<svg xmlns="http://www.w3.org/2000/svg" xmlns:xlink="http://www.w3.org/1999/xlink" width="758.708" height="540" viewBox="0 0 758.708 540">
  <defs>
    <linearGradient id="linear-gradient" x1="0.001" y1="0.499" x2="1" y2="0.499" gradientUnits="objectBoundingBox">
      <stop offset="0" stop-color="#b0c7ff"/>
      <stop offset="1" stop-color="#76abff"/>
    </linearGradient>
    <linearGradient id="linear-gradient-2" x1="-0.382" y1="0.5" x2="1.382" y2="0.5" xlink:href="#linear-gradient"/>
    <linearGradient id="linear-gradient-3" x1="-0.096" y1="0.5" x2="1.096" y2="0.5" xlink:href="#linear-gradient"/>
    <linearGradient id="linear-gradient-4" x1="0" y1="0.5" x2="1" y2="0.5" xlink:href="#linear-gradient"/>
    <linearGradient id="linear-gradient-5" x1="0.158" y1="0.5" x2="0.842" y2="0.5" xlink:href="#linear-gradient"/>
    <linearGradient id="linear-gradient-6" x1="0.107" y1="0.5" x2="0.893" y2="0.5" xlink:href="#linear-gradient"/>
    <linearGradient id="linear-gradient-8" x1="0.11" y1="0.5" x2="0.89" y2="0.5" xlink:href="#linear-gradient"/>
    <linearGradient id="linear-gradient-9" x1="0.195" y1="0.5" x2="0.805" y2="0.5" xlink:href="#linear-gradient"/>
    <linearGradient id="linear-gradient-10" x1="-0.001" y1="0.5" x2="1" y2="0.5" xlink:href="#linear-gradient"/>
    <linearGradient id="linear-gradient-11" x1="0.212" y1="0.5" x2="0.788" y2="0.5" xlink:href="#linear-gradient"/>
    <linearGradient id="linear-gradient-12" x1="0.092" y1="0.5" x2="0.908" y2="0.5" xlink:href="#linear-gradient"/>
    <linearGradient id="linear-gradient-13" x1="-0.032" y1="0.5" x2="1.032" y2="0.5" xlink:href="#linear-gradient"/>
    <linearGradient id="linear-gradient-14" x1="0" y1="0.5" x2="1" y2="0.5" xlink:href="#linear-gradient"/>
    <linearGradient id="linear-gradient-15" x1="-0.088" y1="0.5" x2="1.088" y2="0.5" xlink:href="#linear-gradient"/>
    <linearGradient id="linear-gradient-16" x1="-0.344" y1="0.5" x2="1.344" y2="0.5" xlink:href="#linear-gradient"/>
    <linearGradient id="linear-gradient-17" x1="0" y1="0.5" x2="1" y2="0.5" xlink:href="#linear-gradient"/>
    <linearGradient id="linear-gradient-18" x1="-0.001" y1="0.5" x2="1" y2="0.5" xlink:href="#linear-gradient"/>
  </defs>
  <g id="Group_7504" data-name="Group 7504" transform="translate(-1019 -2729)">
    <g id="_05" data-name="05" transform="translate(1019 2729)">
      <path id="Path_15729" data-name="Path 15729" d="M888.18,697.623c-19.549-14.433-59.362-48-82.048-104.878-8.65-21.688-34.157-85.586-5.772-148.359,21.921-48.506,64.831-71.544,101.014-90.977,100.718-54.1,146.794-17.374,215.014-68.58,59.425-44.614,45.654-88.4,96.684-106.373,55.362-19.505,116.254,16.341,171.715,48.987,42.725,25.151,94.37,55.558,126.988,118.969,33.8,65.731,27.007,127.779,23.087,159.558-12.189,98.878-68.513,165.2-93.911,191.656" transform="translate(-787.316 -172.923)" fill="#f0f5ff"/>
      <rect id="Rectangle_3164" data-name="Rectangle 3164" width="161.365" height="245.059" transform="translate(587.531 262.12)" fill="#d1d1d1"/>
      <rect id="Rectangle_3165" data-name="Rectangle 3165" width="146.039" height="229.327" transform="translate(595.194 269.524)" fill="#ededed"/>
      <rect id="Rectangle_3166" data-name="Rectangle 3166" width="130.134" height="223.763" transform="translate(604.07 275.046)" fill="#f7f7f7"/>
      <rect id="Rectangle_3167" data-name="Rectangle 3167" width="168.73" height="9.375" transform="translate(583.18 497.807)" fill="#d1d1d1"/>
      <rect id="Rectangle_3168" data-name="Rectangle 3168" width="130.564" height="1.674" transform="translate(603.937 345.145)" fill="#d1d1d1"/>
      <rect id="Rectangle_3169" data-name="Rectangle 3169" width="130.564" height="1.674" transform="translate(603.937 399.719)" fill="#d1d1d1"/>
      <rect id="Rectangle_3170" data-name="Rectangle 3170" width="130.564" height="1.674" transform="translate(603.937 451.276)" fill="#d1d1d1"/>
      <rect id="Rectangle_3171" data-name="Rectangle 3171" width="78.953" height="1.506" transform="translate(652.611 345.984) rotate(-90)" fill="#d1d1d1"/>
      <rect id="Rectangle_3172" data-name="Rectangle 3172" width="78.953" height="1.506" transform="translate(623.298 345.982) rotate(-90)" fill="#d1d1d1"/>
      <rect id="Rectangle_3173" data-name="Rectangle 3173" width="78.953" height="1.506" transform="translate(711.234 345.982) rotate(-90)" fill="#d1d1d1"/>
      <rect id="Rectangle_3174" data-name="Rectangle 3174" width="78.953" height="1.506" transform="translate(681.922 346.427) rotate(-90)" fill="#d1d1d1"/>
      <rect id="Rectangle_3175" data-name="Rectangle 3175" width="154.84" height="4.352" transform="translate(671.228 345.31) rotate(90)" fill="#d1d1d1"/>
      <rect id="Rectangle_3176" data-name="Rectangle 3176" width="752.577" height="32.644" transform="translate(0.696 507.356)" fill="#e6e6e6"/>
      <path id="Path_15730" data-name="Path 15730" d="M0,0H163.2V47.667A24.253,24.253,0,0,1,138.943,71.92H0Z" transform="translate(522.878 428.841) rotate(-90)" fill="#a3a9b2"/>
      <path id="Path_15731" data-name="Path 15731" d="M0,0H163.2a19.853,19.853,0,0,1-19.853,19.853H0Z" transform="translate(574.936 428.844) rotate(-90)" fill="#474c56" opacity="0.8"/>
      <rect id="Rectangle_3177" data-name="Rectangle 3177" width="32.516" height="14.694" transform="translate(560.554 443.694) rotate(180)" fill="#71757c" opacity="0.8"/>
      <rect id="Rectangle_3178" data-name="Rectangle 3178" width="6.879" height="52.839" transform="translate(547.735 496.531) rotate(180)" fill="#474c56" opacity="0.8"/>
      <path id="Path_15732" data-name="Path 15732" d="M2963.1,2298.57a7.192,7.192,0,0,1,7.192-7.19H3029.7a7.192,7.192,0,0,1,7.192,7.19h0v9.3a.541.541,0,0,1-.541.543h-6.11a.541.541,0,0,1-.541-.543v-6.681a2.623,2.623,0,0,0-2.626-2.624h-22.94a.541.541,0,0,0-.541.541v8.764a.543.543,0,0,1-.543.543h-6.105a.543.543,0,0,1-.543-.543v-8.764a.541.541,0,0,0-.541-.541H2973.03a2.738,2.738,0,0,0-2.738,2.735v6.569a.541.541,0,0,1-.541.543h-6.107a.542.542,0,0,1-.541-.543v-9.3h0Z" transform="translate(-2455.7 -1797.349)" fill="#474c56" opacity="0.8"/>
      <rect id="Rectangle_3179" data-name="Rectangle 3179" width="16.884" height="14.694" transform="translate(560.554 443.694) rotate(180)" fill="#363a42" opacity="0.8"/>
      <circle id="Ellipse_318" data-name="Ellipse 318" cx="6.917" cy="6.917" r="6.917" transform="translate(569.296 511.322) rotate(-13.28)" fill="#a3a9b2"/>
      <circle id="Ellipse_319" data-name="Ellipse 319" cx="6.917" cy="6.917" r="6.917" transform="translate(534.321 516.425) rotate(-45)" fill="#a3a9b2"/>
      <circle id="Ellipse_320" data-name="Ellipse 320" cx="6.917" cy="6.917" r="6.917" transform="translate(501.961 516.426) rotate(-45)" fill="#a3a9b2"/>
      <path id="Path_15733" data-name="Path 15733" d="M0,0H125.111a38.084,38.084,0,0,1,38.073,38.084V61.23a26.818,26.818,0,0,1-26.818,26.818H0Z" transform="translate(297.806 428.842) rotate(-90)" fill="#a3a9b2"/>
      <path id="Path_15734" data-name="Path 15734" d="M0,0H163.2a19.853,19.853,0,0,1-19.853,19.853H0Z" transform="translate(366.014 428.844) rotate(-90)" fill="#474c56" opacity="0.8"/>
      <rect id="Rectangle_3180" data-name="Rectangle 3180" width="32.516" height="14.694" transform="translate(351.632 443.694) rotate(180)" fill="#a3a9b2"/>
      <rect id="Rectangle_3181" data-name="Rectangle 3181" width="6.879" height="52.839" transform="translate(338.813 496.531) rotate(180)" fill="#474c56" opacity="0.8"/>
      <path id="Path_15735" data-name="Path 15735" d="M2067.22,2298.57a7.192,7.192,0,0,1,7.192-7.19h59.406a7.192,7.192,0,0,1,7.192,7.19h0v9.3a.541.541,0,0,1-.541.543h-6.108a.541.541,0,0,1-.541-.543v-6.681a2.624,2.624,0,0,0-2.626-2.624h-22.94a.541.541,0,0,0-.541.541v8.764a.543.543,0,0,1-.543.543h-6.105a.543.543,0,0,1-.544-.543v-8.764a.541.541,0,0,0-.541-.541H2077.15a2.738,2.738,0,0,0-2.738,2.735v6.569a.541.541,0,0,1-.541.543h-6.108a.541.541,0,0,1-.541-.543v-9.3h0Z" transform="translate(-1768.742 -1797.349)" fill="#474c56" opacity="0.8"/>
      <rect id="Rectangle_3182" data-name="Rectangle 3182" width="16.884" height="14.694" transform="translate(351.632 443.694) rotate(180)" fill="#474c56" opacity="0.8"/>
      <circle id="Ellipse_321" data-name="Ellipse 321" cx="6.917" cy="6.917" r="6.917" transform="translate(359.67 520.166) rotate(-67.5)" fill="#a3a9b2"/>
      <circle id="Ellipse_322" data-name="Ellipse 322" cx="6.917" cy="6.917" r="6.917" transform="translate(327.265 510.678) rotate(-9.22)" fill="#a3a9b2"/>
      <circle id="Ellipse_323" data-name="Ellipse 323" cx="6.917" cy="6.917" r="6.917" transform="translate(294.902 510.679) rotate(-9.22)" fill="#a3a9b2"/>
      <rect id="Rectangle_3183" data-name="Rectangle 3183" width="74.278" height="16.084" transform="translate(34.506 161.022)" fill="#e6e6e6"/>
      <rect id="Rectangle_3184" data-name="Rectangle 3184" width="59.849" height="7.602" transform="translate(41.719 165.263)" fill="#f0f0f0"/>
      <rect id="Rectangle_3185" data-name="Rectangle 3185" width="37.049" height="16.084" transform="translate(71.734 161.022)" fill="#f0f0f0"/>
      <rect id="Rectangle_3186" data-name="Rectangle 3186" width="54.192" height="16.084" transform="translate(44.547 145.287)" fill="#ededed"/>
      <rect id="Rectangle_3187" data-name="Rectangle 3187" width="27.117" height="16.084" transform="translate(71.622 145.287)" fill="#f7f7f7"/>
      <rect id="Rectangle_3188" data-name="Rectangle 3188" width="40.801" height="10.699" transform="translate(113.818 177.413) rotate(-90)" fill="#ededed"/>
      <rect id="Rectangle_3189" data-name="Rectangle 3189" width="60.915" height="13.043" transform="translate(124.196 177.413) rotate(-90)" fill="#e6e6e6"/>
      <rect id="Rectangle_3190" data-name="Rectangle 3190" width="49.868" height="13.043" transform="translate(136.917 177.413) rotate(-90)" fill="#ededed"/>
      <rect id="Rectangle_3191" data-name="Rectangle 3191" width="30.114" height="7.602" transform="translate(71.454 165.263)" fill="#fafafa"/>
      <rect id="Rectangle_3192" data-name="Rectangle 3192" width="46.156" height="7.602" transform="translate(48.566 150.031)" fill="#fafafa"/>
      <rect id="Rectangle_3193" data-name="Rectangle 3193" width="23.225" height="7.602" transform="translate(71.499 150.031)" fill="#fff"/>
      <line id="Line_135" data-name="Line 135" x2="12.273" transform="translate(124.629 122.858)" fill="none" stroke="#9c9c9c" stroke-width="0.66"/>
      <line id="Line_136" data-name="Line 136" x2="12.273" transform="translate(124.629 170.172)" fill="none" stroke="#9c9c9c" stroke-width="0.66"/>
      <rect id="Rectangle_3194" data-name="Rectangle 3194" width="49.658" height="5.581" transform="translate(140.252 177.539) rotate(-90)" fill="#e6e6e6"/>
      <line id="Line_137" data-name="Line 137" x2="12.276" transform="translate(137.127 163.032)" fill="none" stroke="#9c9c9c" stroke-width="0.66"/>
      <line id="Line_138" data-name="Line 138" x2="12.276" transform="translate(137.127 141.383)" fill="none" stroke="#9c9c9c" stroke-width="0.66"/>
      <rect id="Rectangle_3195" data-name="Rectangle 3195" width="20.198" height="5.581" transform="translate(127.976 136.696) rotate(-90)" fill="#ededed"/>
      <rect id="Rectangle_3196" data-name="Rectangle 3196" width="138.597" height="9.375" transform="translate(28.435 177.092)" fill="#d1d1d1"/>
      <rect id="Rectangle_3197" data-name="Rectangle 3197" width="9.792" height="20.45" transform="translate(61.035 180.426)" fill="#d1d1d1"/>
      <rect id="Rectangle_3198" data-name="Rectangle 3198" width="9.792" height="20.45" transform="translate(117.274 180.426)" fill="#d1d1d1"/>
      <rect id="Rectangle_3199" data-name="Rectangle 3199" width="126.277" height="41.627" transform="translate(0.12 354.559)" fill="#e8e8e8"/>
      <rect id="Rectangle_3200" data-name="Rectangle 3200" width="126.277" height="41.627" transform="translate(0.12 396.186)" fill="#e8e8e8"/>
      <rect id="Rectangle_3201" data-name="Rectangle 3201" width="126.277" height="41.627" transform="translate(0.12 437.811)" fill="#e8e8e8"/>
      <rect id="Rectangle_3202" data-name="Rectangle 3202" width="126.277" height="41.627" transform="translate(0.12 479.437)" fill="#e8e8e8"/>
      <path id="Path_15736" data-name="Path 15736" d="M1329.32,1661.5l27.495-9.673v157.846l-27.495,18.332Z" transform="translate(-1202.923 -1306.944)" fill="#d1d1d1"/>
      <path id="Path_15737" data-name="Path 15737" d="M787.83,1661.5l30.55-9.673H941.6l-27.495,9.673Z" transform="translate(-787.71 -1306.944)" fill="#e0e0e0"/>
      <rect id="Rectangle_3203" data-name="Rectangle 3203" width="40.395" height="6.663" rx="3.331" transform="translate(43.06 372.043)" fill="#b0c7ff"/>
      <path id="Path_15738" data-name="Path 15738" d="M1009.056,1952.522H975.323a3.332,3.332,0,0,1-3.323-3.33h0a3.332,3.332,0,0,1,3.332-3.333h33.724a3.33,3.33,0,0,1,3.33,3.333h0A3.33,3.33,0,0,1,1009.056,1952.522Z" transform="translate(-928.931 -1532.405)" fill="#b0c7ff"/>
      <rect id="Rectangle_3204" data-name="Rectangle 3204" width="40.395" height="6.663" rx="3.331" transform="translate(43.06 454.869)" fill="#b0c7ff"/>
      <path id="Path_15739" data-name="Path 15739" d="M1009.056,2312.069H975.323a3.33,3.33,0,0,1-3.323-3.337h0a3.332,3.332,0,0,1,3.332-3.332h33.724a3.33,3.33,0,0,1,3.33,3.332h0a3.33,3.33,0,0,1-3.33,3.337Z" transform="translate(-928.931 -1808.099)" fill="#b0c7ff"/>
      <line id="Line_139" data-name="Line 139" x2="126.277" transform="translate(0.12 396.186)" fill="none" stroke="#a3a3a3" stroke-width="2.7"/>
      <line id="Line_140" data-name="Line 140" x2="126.277" transform="translate(0.12 436.157)" fill="none" stroke="#a3a3a3" stroke-width="2.7"/>
      <line id="Line_141" data-name="Line 141" x2="126.277" transform="translate(0.12 476.128)" fill="none" stroke="#a3a3a3" stroke-width="2.7"/>
      <path id="Path_15740" data-name="Path 15740" d="M1807.59,1008.536V996.452a18.868,18.868,0,0,1,18.868-18.868h108.514a14.249,14.249,0,0,1,14.249,14.249v7.036a15.3,15.3,0,0,0,15.3,15.3h139.724V965.835a14.516,14.516,0,0,1,14.512-14.515h28.381" transform="translate(-1569.659 -769.795)" fill="none" stroke="#2c75ff" stroke-width="3"/>
      <path id="Path_15741" data-name="Path 15741" d="M1325.3,1507.87l-28.917,39.411,20.587,55.192-27.595,14.018-31.977,49.5,3.943,10.949,75.623-49.521a37.583,37.583,0,0,0,12.891-20.028h0a37.56,37.56,0,0,0-.467-20.216Z" transform="translate(-1147.775 -1196.556)" fill="#ffcfbf"/>
      <path id="Path_15742" data-name="Path 15742" d="M1502.006,1748.953l-3.032-9.946-.1-.173c-8.6-14.692-35.68,1.973-37.951,3.4l4.058,10.884,5.2,13.307C1475.672,1747.532,1491.7,1747.071,1502.006,1748.953Z" transform="translate(-1303.833 -1369.046)" fill="#ffa28e"/>
      <path id="Path_15743" data-name="Path 15743" d="M1311.374,1560.46l2.628,88.92-5.009,29.057a43.726,43.726,0,0,0,.653,17.957l13.118,52.853h8.762l14.015-104.242,9.636-71.827Z" transform="translate(-1186.849 -1236.882)" fill="#ffcfbf"/>
      <path id="Path_15744" data-name="Path 15744" d="M1360.623,1809.112l-30.225,19.71-.658-26.063,30.006,6.352" transform="translate(-1203.245 -1422.677)" fill="#ffa28e"/>
      <path id="Path_15745" data-name="Path 15745" d="M1313.9,1461.932l-1.516,2.418a58.93,58.93,0,0,0-5.846,50.316l4.09,12,38.546-14.459,12.323-46.407-9.256-10.541Z" transform="translate(-1183.032 -1156.215)" fill="#ffcfbf"/>
      <path id="Path_15746" data-name="Path 15746" d="M996.981,1347.334l2.229-7.805-8.6-7.486-7.964-1.593-5.576,16.089Z" transform="translate(-932.819 -1060.511)" fill="#ffcfbf"/>
      <path id="Path_15747" data-name="Path 15747" d="M1028.276,1305.776l-4.825-16.149a1.276,1.276,0,0,0-.972-.886h0a1.278,1.278,0,0,0-1.523,1.339l.417,6.087-.583,7.539Z" transform="translate(-966.343 -1028.509)" fill="#ffcfbf"/>
      <path id="Path_15748" data-name="Path 15748" d="M960.922,1309.746l-13.8-7.773a1.413,1.413,0,0,0-2.1,1h0a1.415,1.415,0,0,0,.583,1.4l12.917,9.046Z" transform="translate(-908.229 -1038.531)" fill="#ffcfbf"/>
      <path id="Path_15749" data-name="Path 15749" d="M945.722,1335.331c-.375-.378-10.548-3.624-14.841-4.981a1.816,1.816,0,0,0-2.332,1.329h0a1.819,1.819,0,0,0,1.166,2.12l15.2,5.364Z" transform="translate(-895.578 -1060.366)" fill="#ffcfbf"/>
      <path id="Path_15750" data-name="Path 15750" d="M943.77,1364.919l-12.162-.513a1.334,1.334,0,0,0-1.388,1.418h0a1.329,1.329,0,0,0,1.126,1.234l11.954,1.866a1.336,1.336,0,0,0,1.525-1.115l.208-1.348a1.336,1.336,0,0,0-1.264-1.542Z" transform="translate(-896.893 -1086.547)" fill="#ffcfbf"/>
      <path id="Path_15751" data-name="Path 15751" d="M954.717,1383.5l-9.431,2.187a1.432,1.432,0,0,0-1.028,1.866h0a1.436,1.436,0,0,0,1.663.921l8.8-1.954Z" transform="translate(-907.598 -1101.189)" fill="#ffcfbf"/>
      <path id="Path_15752" data-name="Path 15752" d="M1716.789,649.93h-87.964a11.215,11.215,0,0,0-11.215,11.21v48.74a11.215,11.215,0,0,0,11.215,11.215h18.383l-7.742,13.449,2.332-.079L1661.31,721.1h55.479a11.215,11.215,0,0,0,11.217-11.219V661.14A11.215,11.215,0,0,0,1716.789,649.93Z" transform="translate(-1423.983 -538.69)" fill="#b5b5b5"/>
      <path id="Path_15753" data-name="Path 15753" d="M1726.409,649.93h-87.964a11.215,11.215,0,0,0-11.215,11.21V709.88a11.215,11.215,0,0,0,11.215,11.215h18.383l-7.745,13.449,21.856-13.449h55.47a11.215,11.215,0,0,0,11.215-11.215V661.14a11.215,11.215,0,0,0-11.215-11.21Z" transform="translate(-1431.359 -538.69)" fill="#e6e6e6"/>
      <path id="Path_15754" data-name="Path 15754" d="M1764.146,696.593h-82.374a1.682,1.682,0,0,1-1.682-1.681h0a1.682,1.682,0,0,1,1.682-1.681h82.374a1.681,1.681,0,0,1,1.681,1.681h0A1.682,1.682,0,0,1,1764.146,696.593Z" transform="translate(-1471.892 -571.893)" fill="#fff"/>
      <path id="Path_15755" data-name="Path 15755" d="M1764.146,891.233h-82.374a1.682,1.682,0,0,1-1.682-1.681h0a1.682,1.682,0,0,1,1.682-1.681h82.374a1.681,1.681,0,0,1,1.681,1.681h0A1.682,1.682,0,0,1,1764.146,891.233Z" transform="translate(-1471.892 -721.142)" fill="#fff"/>
      <path id="Path_15756" data-name="Path 15756" d="M1721.558,739.85h-39.787a1.679,1.679,0,0,1-1.682-1.679h0a1.682,1.682,0,0,1,1.682-1.681h39.787a1.681,1.681,0,0,1,1.681,1.681h0a1.679,1.679,0,0,1-1.681,1.679Z" transform="translate(-1471.892 -605.064)" fill="#fff"/>
      <path id="Path_15757" data-name="Path 15757" d="M1916,739.237h-35.489a1.772,1.772,0,0,1-1.775-1.772h0a1.772,1.772,0,0,1,1.775-1.775H1916a1.775,1.775,0,0,1,1.775,1.775h0A1.775,1.775,0,0,1,1916,739.237Z" transform="translate(-1624.216 -604.451)" fill="#fff"/>
      <rect id="Rectangle_3205" data-name="Rectangle 3205" width="43.15" height="3.363" rx="1.681" transform="translate(208.198 149.543)" fill="#fff"/>
      <path id="Path_15758" data-name="Path 15758" d="M1916,816.929h-35.489a1.775,1.775,0,0,1-1.775-1.775h0a1.775,1.775,0,0,1,1.775-1.775H1916a1.775,1.775,0,0,1,1.775,1.775h0A1.775,1.775,0,0,1,1916,816.929Z" transform="translate(-1624.216 -664.023)" fill="#fff"/>
      <path id="Path_15759" data-name="Path 15759" d="M1819.152,778.106h-65.374a1.588,1.588,0,0,1-1.588-1.588h0a1.588,1.588,0,0,1,1.588-1.588h65.376a1.588,1.588,0,0,1,1.588,1.588h0a1.588,1.588,0,0,1-1.59,1.588Z" transform="translate(-1527.178 -634.54)" fill="#fff"/>
      <path id="Path_15760" data-name="Path 15760" d="M1692.7,778.106h-11.021a1.588,1.588,0,0,1-1.588-1.588h0a1.588,1.588,0,0,1,1.588-1.588H1692.7a1.588,1.588,0,0,1,1.588,1.588h0A1.588,1.588,0,0,1,1692.7,778.106Z" transform="translate(-1471.892 -634.54)" fill="#fff"/>
      <path id="Path_15761" data-name="Path 15761" d="M1793.462,854.39h-39.6a1.679,1.679,0,0,1-1.681-1.679h0a1.681,1.681,0,0,1,1.681-1.681h39.6a1.681,1.681,0,0,1,1.681,1.681h0a1.679,1.679,0,0,1-1.681,1.679Z" transform="translate(-1527.171 -692.893)" fill="#fff"/>
      <path id="Path_15762" data-name="Path 15762" d="M1965.4,854.367h-20.925a1.679,1.679,0,0,1-1.681-1.679h0a1.681,1.681,0,0,1,1.681-1.688h20.921a1.681,1.681,0,0,1,1.681,1.681h0a1.679,1.679,0,0,1-1.677,1.686Z" transform="translate(-1673.329 -692.87)" fill="#fff"/>
      <path id="Path_15763" data-name="Path 15763" d="M1692.7,855h-11.021a1.586,1.586,0,0,1-1.588-1.586h0a1.588,1.588,0,0,1,1.588-1.588H1692.7a1.588,1.588,0,0,1,1.588,1.588h0A1.586,1.586,0,0,1,1692.7,855Z" transform="translate(-1471.892 -693.507)" fill="#fff"/>
      <path id="Path_15764" data-name="Path 15764" d="M2507.864,2329.515l2.5,19.372-54.714.949,15.007-9.379,16.572-4.065,5.627-8.442Z" transform="translate(-2066.589 -1825.391)" fill="#ffcfbf"/>
      <path id="Path_15765" data-name="Path 15765" d="M2469.791,2364.15s14.692,7.817,21.886,1.565l1.865,13.444h-18.134l-1.865-2.19-6.1.7-2.332,2.348-32.2.392,19.071-12.194Z" transform="translate(-2049.152 -1853.149)" fill="#76abff"/>
      <path id="Path_15766" data-name="Path 15766" d="M2678.8,2334.542l2.5,19.375-54.714.949,15.007-9.379,16.572-4.065,5.627-8.442Z" transform="translate(-2197.665 -1829.247)" fill="#ffcfbf"/>
      <path id="Path_15767" data-name="Path 15767" d="M2640.685,2369.18s14.692,7.817,21.886,1.563l1.865,13.444H2646.3l-1.866-2.187-6.1.7-2.344,2.332-32.206.392,19.074-12.194Z" transform="translate(-2180.182 -1857.005)" fill="#76abff"/>
      <path id="Path_15768" data-name="Path 15768" d="M2608.731,1770.52l-45.474,13.628A22.945,22.945,0,0,0,2546.9,1805.8l-.07,5.053,33.3,6.565Z" transform="translate(-2136.506 -1397.955)" fill="#415490"/>
      <path id="Path_15769" data-name="Path 15769" d="M2533.969,1921.063l-3.908,104.1,35.33-4.065,3.75-101.77Z" transform="translate(-2123.646 -1512.062)" fill="#415490"/>
      <path id="Path_15770" data-name="Path 15770" d="M2881.219,1719.54s9.851,43.609-9.379,50.652c-68.94.466-50.372,3.913-50.372,3.913l-19.227-39.395,30.016-14.058Z" transform="translate(-2332.353 -1358.864)" fill="#415490"/>
      <path id="Path_15771" data-name="Path 15771" d="M2739.532,1810l-48.422,4.795,3.244-28.283,47.874-20.023Z" transform="translate(-2247.139 -1394.865)" fill="#415490"/>
      <path id="Path_15772" data-name="Path 15772" d="M2703.133,1869.854l10.473,104.426-45.647,2.033-5.315-98.908a30.852,30.852,0,0,1,10-24.435h0Z" transform="translate(-2225.277 -1461.177)" fill="#415490"/>
      <path id="Path_15773" data-name="Path 15773" d="M3373.36,1754.016v138.819h13.131l-.937-158.515Z" transform="translate(-2770.286 -1370.197)" fill="#826c51"/>
      <path id="Path_15774" data-name="Path 15774" d="M1792.19,1753.888v139.288h-13.6L1780,1734.66Z" transform="translate(-1547.422 -1370.458)" fill="#826c51"/>
      <path id="Path_15775" data-name="Path 15775" d="M3354.858,1818.78l-5.627,5.158v130.384l5.627,3.281Z" transform="translate(-2751.783 -1434.961)" fill="#5b4e3d"/>
      <path id="Path_15776" data-name="Path 15776" d="M1836.91,1817.11l5.627,5.158v130.377l-5.627,3.284Z" transform="translate(-1592.141 -1433.68)" fill="#5b4e3d"/>
      <path id="Path_15777" data-name="Path 15777" d="M2662.152,1948.765l-.315-3.692-.292-3.692-.583-7.386q-.553-7.383-1.075-14.774c-.354-4.925-.669-9.853-1-14.78l-.933-14.783-.879-14.788-.415-7.395c-.14-2.467-.28-4.921-.394-7.4a19.505,19.505,0,0,1,1.166-7.427,17.638,17.638,0,0,1,1.675-3.377,16.782,16.782,0,0,1,2.348-2.941,14.456,14.456,0,0,1,6.462-3.675,19.234,19.234,0,0,1,7.385-.347l-.933-.049-.467-.026-.233-.012h-.233c-.616.019-1.231,0-1.845.07-.305.03-.611.049-.917.082l-.909.149c-.149.026-.3.04-.45.079l-.448.11-.446.11a3.631,3.631,0,0,0-.441.124,14,14,0,0,0-6.145,3.776,16.606,16.606,0,0,0-2.19,2.892,16.963,16.963,0,0,0-1.528,3.286,18.972,18.972,0,0,0-.974,7.138l1,14.771.933,14.783.879,14.787c.271,4.93.562,9.86.814,14.79s.508,9.865.744,14.8l.329,7.4.163,3.7Z" transform="translate(-2220.407 -1452.847)" fill="#fff"/>
      <path id="Path_15778" data-name="Path 15778" d="M2799.349,1944.169c-.984-.25-1.964-.513-2.943-.781l-2.931-.819-2.922-.846-2.913-.87.574-.583c.963,2.668,1.915,5.338,2.831,8.02.467,1.339.933,2.677,1.371,4.023s.907,2.687,1.343,4.035l1.308,4.046c.422,1.353.856,2.7,1.269,4.06q1.249,4.065,2.388,8.162c-1.08-2.628-2.1-5.277-3.085-7.929-.5-1.327-.977-2.661-1.467-3.99l-1.427-4.006q-.7-2-1.4-4.016c-.467-1.339-.917-2.684-1.367-4.027q-1.358-4.03-2.64-8.083l-.28-.884.856.3,2.871,1.005,2.861,1.031,2.852,1.056C2797.456,1943.434,2798.4,1943.794,2799.349,1944.169Z" transform="translate(-2320.712 -1527.666)" fill="#fff"/>
      <path id="Path_15779" data-name="Path 15779" d="M2945.066,1839.823s.625,14.382-3.125,15.006c-7.5-6.565-61.281-15.006-61.281-15.006S2945.066,1839.511,2945.066,1839.823Z" transform="translate(-2392.485 -1450.99)" fill="#ffc968"/>
      <path id="Path_15780" data-name="Path 15780" d="M2189.586,1823.938H1843.008l-6.1-5.158h358.305Z" transform="translate(-1592.141 -1434.961)" fill="#5b4e3d"/>
      <path id="Path_15781" data-name="Path 15781" d="M2090.4,1262.276c8.706,6.208,22.569,16.6,22.569,16.6l-25.326,22.511-13.181-24.626a11.019,11.019,0,0,1,1.371-12.906h0A11.019,11.019,0,0,1,2090.4,1262.276Z" transform="translate(-1773.161 -1006.668)" fill="#88b6ff"/>
      <path id="Path_15782" data-name="Path 15782" d="M1931.124,1244.677l-12.192-9.067L1881.1,1277.5l19.307,63.312,2.267-1.094L1883.6,1278.13l35.563-39.785,10.4,8.519Z" transform="translate(-1626.026 -987.788)" fill="#2c75ff"/>
      <path id="Path_15783" data-name="Path 15783" d="M1942.73,1686.746l-3.048-7.036h-19.463l-2.579,6.567Z" transform="translate(-1654.045 -1328.322)" fill="#2c75ff"/>
      <path id="Path_15784" data-name="Path 15784" d="M1918.45,1713.427l-5.392-6.567h-37.753l-4.925,6.8Z" transform="translate(-1617.806 -1349.141)" fill="#88b6ff"/>
      <ellipse id="Ellipse_324" data-name="Ellipse 324" cx="17.024" cy="4.874" rx="17.024" ry="4.874" transform="matrix(0.752, -0.659, 0.659, 0.752, 311.283, 290.979)" fill="#2c75ff"/>
      <path id="Path_15785" data-name="Path 15785" d="M2099.407,1329.148l5.38,8.428a1.355,1.355,0,0,1-.205,1.709l-.373.357a1.357,1.357,0,0,1-2.115-.308l-5.009-8.785a1.357,1.357,0,0,1,.385-1.772h0a1.357,1.357,0,0,1,1.938.371Z" transform="translate(-1791.505 -1059.031)" fill="#fff"/>
      <path id="Path_15786" data-name="Path 15786" d="M2156.075,1355.124a51.944,51.944,0,0,1,7.229-5.364,10.157,10.157,0,0,1,.509,3.157,9.812,9.812,0,0,1-9.692,9.927,9.433,9.433,0,0,1-4.431-1.108A51.684,51.684,0,0,1,2156.075,1355.124Z" transform="translate(-1831.98 -1075.318)" fill="#fff"/>
      <path id="Path_15787" data-name="Path 15787" d="M1265.772,896.526s6.831,5.312,8.349-5.315-.758-17.957,6.063-14.169,27.835,10.627,29.85-2.53c1.012-13.16-17.723-1.581-27.835-6.39s-25.419-.632-26.949,10.247,5.695,25.242-9.489,29.038-28.593,34.666,1.266,43.775c30.111,7.593,62.755,3.032,63.261-18.472.252-21.76-16.954-16.7-15.436-35.426s-18.22,6.075-18.22,6.075Z" transform="translate(-1126.157 -704.484)" fill="#1e2023" opacity="0.89"/>
      <path id="Path_15788" data-name="Path 15788" d="M1499.869,1176.9l30.661,21.455s.658-18.617,14.676-19.93c-6.791-10.961-27.378-37.891-34.167-41.174C1504.468,1133.972,1491.546,1147.113,1499.869,1176.9Z" transform="translate(-1331.623 -911.989)" fill="#ffc968"/>
      <path id="Path_15789" data-name="Path 15789" d="M1674.515,1421.736c-.438.658-.657,14.459-10.513,16.208s-15.769,1.532-26.282-17.3C1663.564,1420.859,1674.515,1421.736,1674.515,1421.736Z" transform="translate(-1439.403 -1129.668)" fill="#ffcfbf"/>
      <path id="Path_15790" data-name="Path 15790" d="M1319.388,1113.934l20.149,6.35s-.583,18.19,6.716,32.49-7.008,21.609-8.468,29.785-.294,21.317-.294,21.317-33.581,16.863-47.6-3.871c2.845-19.123,3.5-38.619-5.256-44.094,3.794-11.681,2.92-29.127-12.558-26.79C1275,1122.4,1296.611,1111.884,1319.388,1113.934Z" transform="translate(-1159.031 -894.287)" fill="#ffc968"/>
      <path id="Path_15791" data-name="Path 15791" d="M1347.557,1354.005c2.12-14.253,3.032-28.7-.277-37.413,2.7,3.731,7.432,8.109,14.512,7.337,12.045-1.315,15.55-8.761,25.844-4.82s14.892,3.5,14.237-4.6c.874,5.256-1.754,15.112-6.572,22.122-1.441,4.118-.492,18.3-.233,19.983a.782.782,0,0,0,.014.182c-1.6,2.589-20.158-2.435-29.554-6.588-7.558-3.339-8.344,7-3.153,13.482A22.673,22.673,0,0,1,1347.557,1354.005Z" transform="translate(-1216.695 -1048.288)" fill="#ffa647"/>
      <path id="Path_15792" data-name="Path 15792" d="M1335.4,1302.505l-.079-.205s.03.079.089.217A.024.024,0,0,1,1335.4,1302.505Z" transform="translate(-1207.524 -1038.926)" fill="#ffa647"/>
      <path id="Path_15793" data-name="Path 15793" d="M1499.227,1165.57l-25.638,62.121H1366.31l.438-3.293,47.165-.072,24.109-57.839Z" transform="translate(-1231.287 -934.081)" fill="#b5b5b5"/>
      <path id="Path_15794" data-name="Path 15794" d="M1725.213,1159.528l-4.9-1.838-58.756.919,2.449,1.835Z" transform="translate(-1457.683 -928.039)" fill="#f0f0f0"/>
      <path id="Path_15795" data-name="Path 15795" d="M1718.4,1425.751s11.387-.877,16.644-10.221l-20.44-1.46S1708.766,1424.874,1718.4,1425.751Z" transform="translate(-1497.014 -1124.63)" fill="#ffcfbf"/>
      <path id="Path_15796" data-name="Path 15796" d="M1784.265,1384.674l6.791-5.256,3.731-9.7a1.462,1.462,0,0,0-1.143-1.968h0a1.46,1.46,0,0,0-1.53.791l-4.123,8.246-6.572,6.569Z" transform="translate(-1549.592 -1089.101)" fill="#ffcfbf"/>
      <path id="Path_15797" data-name="Path 15797" d="M1756.68,1377.153c.438-.875,7.448-6.789,7.448-6.789l1.73-8.134a1.67,1.67,0,0,0-1.744-2.012h0a1.674,1.674,0,0,0-1.457,1.089l-2.691,7.306-7.665,7.875Z" transform="translate(-1527.263 -1083.334)" fill="#ffcfbf"/>
      <path id="Path_15798" data-name="Path 15798" d="M1741.715,1380.407c0-.658,5.037-9.417,5.037-9.417l-.063-6.047a1.485,1.485,0,0,0-1.754-1.318h0a1.485,1.485,0,0,0-1.2,1.327l-.485,4.942-5.037,8.761Z" transform="translate(-1516.458 -1085.93)" fill="#ffcfbf"/>
      <path id="Path_15799" data-name="Path 15799" d="M1721.146,1380.963c0-.655,1.024-8.176,1.024-8.176l-1.483-5.014a1.488,1.488,0,0,0-1.833-1.01h0a1.488,1.488,0,0,0-1.028,1.835l1.131,4.044-3.286,7.446Z" transform="translate(-1499.175 -1088.312)" fill="#ffcfbf"/>
      <path id="Path_15800" data-name="Path 15800" d="M1779.22,1436.833l7.446-1.607,3.54-3.276h-5.291Z" transform="translate(-1547.905 -1138.341)" fill="#ffcfbf"/>
      <path id="Path_15801" data-name="Path 15801" d="M1555.08,1228.11s2.409,10.294,4.16,12.264c1.973,1.971,3.731,9.636,1.973,17.957l7.666-17.957s-6.133-1.313-13.8-12.264h0" transform="translate(-1376.035 -982.037)" fill="#ffa647"/>
      <path id="Path_15802" data-name="Path 15802" d="M1579.8,1161.69l-25.107,59.966,3.214,2.908,24.668-61.048Z" transform="translate(-1375.736 -931.106)" fill="#9c9c9c"/>
      <ellipse id="Ellipse_325" data-name="Ellipse 325" cx="10.329" cy="5.508" rx="10.329" ry="5.508" transform="matrix(0.242, -0.97, 0.97, 0.242, 221.537, 270.464)" fill="#fff"/>
      <path id="Path_15803" data-name="Path 15803" d="M1408.078,1404.621H1363.49l47.016-4.321Z" transform="translate(-1229.124 -1114.072)" fill="#9c9c9c"/>
      <path id="Path_15804" data-name="Path 15804" d="M1555.26,1194.3a23.426,23.426,0,0,0-.723,6.18c0,.515.037,1.033.056,1.548.056.513.091,1.026.163,1.535l.124.762c.042.254.068.508.131.758l.168.751c.058.25.1.5.182.746.152.492.282.986.448,1.469l.532,1.439.637,1.4c.208.467.466.933.7,1.4a47.515,47.515,0,0,1,2.439,5.868,24.253,24.253,0,0,1,1.194,6.3,20.39,20.39,0,0,1-.751,6.376c-.068.259-.156.511-.233.767l-.121.382-.135.375c-.093.25-.18.5-.277.749l-.31.737a28.573,28.573,0,0,1-1.437,2.833,35.514,35.514,0,0,1-3.65,5.131,49.386,49.386,0,0,0,3.109-5.429,28.012,28.012,0,0,0,2.111-5.8,20.644,20.644,0,0,0,.513-6.063,23.7,23.7,0,0,0-1.2-5.984,49.34,49.34,0,0,0-2.318-5.746c-.212-.466-.445-.933-.653-1.429l-.625-1.479-.511-1.523c-.149-.513-.264-1.038-.4-1.555a22.556,22.556,0,0,1-.49-6.348c.047-.53.082-1.059.163-1.581s.161-1.045.261-1.562A17.279,17.279,0,0,1,1555.26,1194.3Z" transform="translate(-1375.121 -956.112)" fill="#ed9636"/>
      <path id="Path_15805" data-name="Path 15805" d="M1238.917,1160.731s3.845,12.066,1.539,24.374c-2.885,39.411-2.693,46.344-17.308,48.075-11.539-3.461-14.808-18.656-10-24.423,3.076-8.267,7.115-36.921,7.115-36.921S1226.608,1149.432,1238.917,1160.731Z" transform="translate(-1112.2 -927.93)" fill="#ffc968"/>
      <path id="Path_15806" data-name="Path 15806" d="M1214.545,1380.087c.394.04.744.1,1.108.168s.714.152,1.066.233a19.04,19.04,0,0,1,2.076.672,18.511,18.511,0,0,1,3.839,2.033,17.921,17.921,0,0,1,1.7,1.353,17.312,17.312,0,0,1,1.5,1.562,17.116,17.116,0,0,1,2.32,3.631l-.354.1c-.159-1.714-.371-3.426-.609-5.13s-.5-3.414-.788-5.114q.525,2.532.975,5.084c.3,1.7.574,3.4.8,5.13l.133,1.04-.49-.933a16.556,16.556,0,0,0-2.381-3.451,15.809,15.809,0,0,0-3.186-2.694,17.83,17.83,0,0,0-5.748-2.381c-.336-.077-.676-.14-1.017-.2s-.7-.1-1.005-.119Z" transform="translate(-1114.864 -1098.199)" fill="#ed9636"/>
      <path id="Path_15807" data-name="Path 15807" d="M1093.495,1365.485s-2.885-1.73-9.615-1.346c-8.654-.385-33.845-6.53-33.845-6.53l-2.115,11.539s27.5,16.345,37.313,16.924,12.885,1.346,15.578.191C1100.409,1381.063,1093.495,1365.485,1093.495,1365.485Z" transform="translate(-987.146 -1081.337)" fill="#ffc968"/>
      <path id="Path_15808" data-name="Path 15808" d="M1110.915,1406.5s-9.617,10.592-20.088,6.7-25.323-9.86-42.49-17.9c-.651,3.207-.487,3.9-.487,3.9s21.184,12.418,28.733,17.288C1086.322,1420.866,1105.071,1422.083,1110.915,1406.5Z" transform="translate(-987.079 -1110.238)" fill="#ffa647"/>
      <path id="Path_15809" data-name="Path 15809" d="M1405.749,1039.782l-.868,16.25a6.232,6.232,0,0,0,1.224,4.048l.553.744a10.133,10.133,0,0,0,7.665,4.069l2.218.042c2.332.1,2.421-.639,4.3-2.036l.546-.406a7.767,7.767,0,0,0,3.12-5.874l.268-5.856-13.5-11.854Z" transform="translate(-1260.857 -836.959)" fill="#ffcfbf"/>
      <path id="Path_15810" data-name="Path 15810" d="M1416.44,1031.9l3.591,4.431s.494,15.081,13.227,14.785l.215-4.664-13.5-11.856Z" transform="translate(-1269.726 -831.584)" fill="#ffa28e"/>
      <path id="Path_15811" data-name="Path 15811" d="M1409.669,948.827c2.115,2.773,6.045,6.063,12.292,4.631,6.779-.814,9.277-6.317,10.429-19.188.588-12.894-.2-20.233-8.43-24.542l-19.622-.9-4.2,30.146.625.539A61.866,61.866,0,0,1,1409.669,948.827Z" transform="translate(-1257.227 -737.214)" fill="#ffcfbf"/>
      <path id="Path_15812" data-name="Path 15812" d="M1502.572,993.64c.089.511.233,1.007.354,1.511l.38,1.5c.25,1.005.494,2.008.73,3.015l.352,1.511.173.756a2.447,2.447,0,0,1,.058.826,2.264,2.264,0,0,1-.749,1.444,2.169,2.169,0,0,1-.7.424,2.345,2.345,0,0,1-.8.138h.014l-1.007.121c-.336.04-.672.077-1.007.11.329-.075.66-.147.991-.215l.993-.208h.014a2.07,2.07,0,0,0,1.313-.574,2.031,2.031,0,0,0,.606-1.271,2.264,2.264,0,0,0-.068-.714l-.18-.753c-.121-.5-.233-1.01-.345-1.513q-.343-1.516-.639-3.032c-.1-.506-.2-1.017-.28-1.527l-.121-.767A5.744,5.744,0,0,1,1502.572,993.64Z" transform="translate(-1334.084 -802.246)" fill="#415490"/>
      <path id="Path_15813" data-name="Path 15813" d="M1470.37,987.269a2.587,2.587,0,0,1,.947-1.152,2.785,2.785,0,0,1,1.483-.5,2.259,2.259,0,0,1,1.555.529,2.1,2.1,0,0,1,.721,1.341,8.853,8.853,0,0,0-1.2-.564,2.969,2.969,0,0,0-1.042-.147,5.521,5.521,0,0,0-1.136.17C1471.293,987.035,1470.867,987.157,1470.37,987.269Z" transform="translate(-1311.079 -796.089)" fill="#415490"/>
      <path id="Path_15814" data-name="Path 15814" d="M1465.92,966.78a3.7,3.7,0,0,1,2.95-1.789,2.715,2.715,0,0,1,2.75,2.047,7.62,7.62,0,0,0-1.36-.828,3.143,3.143,0,0,0-1.36-.252,5.512,5.512,0,0,0-1.439.268C1466.965,966.391,1466.466,966.575,1465.92,966.78Z" transform="translate(-1307.667 -780.277)" fill="#415490"/>
      <path id="Path_15815" data-name="Path 15815" d="M1513.74,968.329a3.576,3.576,0,0,1,1.217-1.238,3.538,3.538,0,0,1,1.733-.548,2.736,2.736,0,0,1,1.786.569,2.8,2.8,0,0,1,.963,1.479,7.806,7.806,0,0,0-1.359-.83,3.186,3.186,0,0,0-1.36-.252,5.646,5.646,0,0,0-1.441.271C1514.785,967.93,1514.283,968.126,1513.74,968.329Z" transform="translate(-1344.335 -781.466)" fill="#415490"/>
      <path id="Path_15816" data-name="Path 15816" d="M1519.38,991.125a2.489,2.489,0,0,1,.833-1.014,2.535,2.535,0,0,1,1.292-.492,1.866,1.866,0,0,1,1.4.466,1.769,1.769,0,0,1,.567,1.229,5.361,5.361,0,0,0-.993-.6,2.05,2.05,0,0,0-.9-.131,5.232,5.232,0,0,0-1.017.205C1520.192,990.889,1519.814,991.013,1519.38,991.125Z" transform="translate(-1348.66 -799.157)" fill="#415490"/>
      <path id="Path_15817" data-name="Path 15817" d="M1478.346,993.816c-.035.807-.569,1.437-1.192,1.4a1.33,1.33,0,0,1-1.061-1.511c.037-.812.571-1.434,1.194-1.4A1.331,1.331,0,0,1,1478.346,993.816Z" transform="translate(-1315.466 -801.222)" fill="#415490"/>
      <path id="Path_15818" data-name="Path 15818" d="M1522.727,997.824a1.056,1.056,0,1,1-.961-1.367A1.2,1.2,0,0,1,1522.727,997.824Z" transform="translate(-1349.659 -804.406)" fill="#415490"/>
      <path id="Path_15819" data-name="Path 15819" d="M1485.35,1050.679a2.089,2.089,0,0,1,2.782,1.814c1.166-.679,2.39-.623,2.036.991A3.75,3.75,0,0,1,1485.35,1050.679Z" transform="translate(-1322.566 -845.909)" fill="#ff6d60"/>
      <path id="Path_15820" data-name="Path 15820" d="M1488.4,1055.259s1.152,1.679-.648,1.994a3.363,3.363,0,0,1-3.475-4.722C1484.9,1053.668,1485.369,1055.359,1488.4,1055.259Z" transform="translate(-1321.5 -847.403)" fill="#ffa28e"/>
      <path id="Path_15821" data-name="Path 15821" d="M1484.8,1048.24a7.5,7.5,0,0,0,.791,1.663,3.777,3.777,0,0,0,1.213,1.2,3.91,3.91,0,0,0,1.632.518,10.932,10.932,0,0,0,1.852,0,4.486,4.486,0,0,1-1.866.506,3.437,3.437,0,0,1-1.954-.466,3.382,3.382,0,0,1-1.322-1.516A3.845,3.845,0,0,1,1484.8,1048.24Z" transform="translate(-1322.139 -844.113)" fill="#415490"/>
      <path id="Path_15822" data-name="Path 15822" d="M1396.513,916.217s9.489,3.794,10.438-6.833.758-16.131,7.022-11.387,16.889,11.956,21.634,3.985,2.467-15.562-14.993-12.905-26-1.707-26-1.707S1391.767,913.939,1396.513,916.217Z" transform="translate(-1252.341 -720.759)" fill="#1e2023" opacity="0.89"/>
      <ellipse id="Ellipse_326" data-name="Ellipse 326" cx="4.554" cy="6.926" rx="4.554" ry="6.926" transform="translate(139.554 189.829)" fill="#ffcfbf"/>
      <ellipse id="Ellipse_327" data-name="Ellipse 327" cx="1.903" cy="2.894" rx="1.903" ry="2.894" transform="translate(142.64 194.572)" fill="#ffa28e"/>
      <path id="Path_15823" data-name="Path 15823" d="M1394.14,996.389a5.291,5.291,0,0,1,.623-1.255,2.548,2.548,0,0,1,1.077-.963,1.289,1.289,0,0,1,.774-.065,1.709,1.709,0,0,1,.679.34,4.519,4.519,0,0,1,1,1.042,5.609,5.609,0,0,1,.909,2.687,6.574,6.574,0,0,1-.38,2.768,8.709,8.709,0,0,0,.079-2.736c-.026-.233-.082-.445-.126-.665a6.084,6.084,0,0,0-.2-.644,5.3,5.3,0,0,0-.6-1.192,4.251,4.251,0,0,0-.9-.97,1.372,1.372,0,0,0-.539-.3,1.061,1.061,0,0,0-.59.019,2.489,2.489,0,0,0-1.028.8A7.107,7.107,0,0,0,1394.14,996.389Z" transform="translate(-1252.627 -802.579)" fill="#ffa28e"/>
      <path id="Path_15824" data-name="Path 15824" d="M1260.715,920.19s2.656,17.651-8.54,20.118-26.13,10.853-11.548,29.241" transform="translate(-1130.272 -745.925)" fill="none" stroke="#1e2023" stroke-width="1" opacity="0.89"/>
      <path id="Path_15825" data-name="Path 15825" d="M1229.906,1039c-2.53,0-6.441,2.878-8.694,3.89-4.146,1.866-8.778,2.565-12.633,5.074-5.114,3.316-6.977,9.328-6.026,15.2,1.189,7.329,5.275,10.049,11.737,12.9" transform="translate(-1105.535 -837.028)" fill="none" stroke="#1e2023" stroke-width="1" opacity="0.89"/>
      <path id="Path_15826" data-name="Path 15826" d="M1473.58,884.134s13.666-19.167-2.276-17.269-17.08,6.063-23.724,3.417" transform="translate(-1293.604 -704.934)" fill="none" stroke="#1e2023" stroke-width="1" opacity="0.89"/>
      <path id="Path_15827" data-name="Path 15827" d="M1303.627,896.291a6.2,6.2,0,0,0-2.4-.2,6.013,6.013,0,0,0-2.281.7,6.763,6.763,0,0,0-1.842,1.509,9.521,9.521,0,0,0-1.308,2,17.666,17.666,0,0,0-1.472,4.568,35.569,35.569,0,0,0-.553,4.8c-.091,1.611-.054,3.225-.058,4.855s-.026,3.265-.077,4.883-.145,3.265-.285,4.883a48.438,48.438,0,0,1-.648,4.867,21.348,21.348,0,0,1-1.43,4.743,11.209,11.209,0,0,1-1.276,2.166,8.558,8.558,0,0,1-1.817,1.772,9.1,9.1,0,0,1-2.253,1.152,13.577,13.577,0,0,1-2.425.592c-.406.065-.833.11-1.215.159a11.482,11.482,0,0,0-1.166.215,10.949,10.949,0,0,0-2.225.793,9.247,9.247,0,0,0-3.57,3.018,8.275,8.275,0,0,0-1.476,4.431,9.66,9.66,0,0,0,1.042,4.634,15.024,15.024,0,0,0,2.861,3.895,16.518,16.518,0,0,1-1.686-1.763,13.022,13.022,0,0,1-1.362-2.036,9.965,9.965,0,0,1-1.245-4.736,8.71,8.71,0,0,1,1.437-4.722,9.74,9.74,0,0,1,3.731-3.279,11.29,11.29,0,0,1,2.332-.882,11.146,11.146,0,0,1,1.227-.233c.411-.054.8-.1,1.2-.168a10.143,10.143,0,0,0,4.356-1.67,7.852,7.852,0,0,0,1.651-1.632,10.5,10.5,0,0,0,1.182-2.026,20.957,20.957,0,0,0,1.36-4.576,66.6,66.6,0,0,0,.965-9.631c.07-1.618.107-3.239.128-4.86.014-.811,0-1.618.028-2.437s.051-1.632.11-2.451a33.575,33.575,0,0,1,.66-4.862,17.892,17.892,0,0,1,1.632-4.641,9.93,9.93,0,0,1,1.427-2.017,6.974,6.974,0,0,1,1.961-1.5,6.141,6.141,0,0,1,2.367-.641A6.249,6.249,0,0,1,1303.627,896.291Z" transform="translate(-1160.089 -727.338)" fill="#fff"/>
      <path id="Path_15828" data-name="Path 15828" d="M1390.263,917.75a15.068,15.068,0,0,1,.527,2.078,16.429,16.429,0,0,1,.256,2.141,11.1,11.1,0,0,1-.557,4.307,6.88,6.88,0,0,1-1.061,1.957,6.705,6.705,0,0,1-1.67,1.5,7.431,7.431,0,0,1-2.052.882l-.539.138c-.182.037-.364.063-.546.093-.373.065-.7.112-1.057.161s-.7.119-1.028.184a9.356,9.356,0,0,0-1.007.257,9.179,9.179,0,0,0-1.9.769,5.563,5.563,0,0,0-1.567,1.236,4.746,4.746,0,0,0-.933,1.749,6.192,6.192,0,0,0-.21,2.024,10.841,10.841,0,0,0,.306,2.068,24.694,24.694,0,0,0,1.4,4.011,19.769,19.769,0,0,1-1.763-3.913,11.241,11.241,0,0,1-.445-2.131,6.511,6.511,0,0,1,.133-2.213,5.1,5.1,0,0,1,.993-2.029,6.317,6.317,0,0,1,1.728-1.441,9.461,9.461,0,0,1,2.043-.856,15.471,15.471,0,0,1,2.134-.48c.359-.049.728-.1,1.056-.152.17-.028.34-.049.508-.084l.5-.121a3.8,3.8,0,0,0,.487-.147c.159-.058.327-.1.478-.173l.466-.21c.151-.072.292-.166.438-.247a6,6,0,0,0,1.527-1.3,6.961,6.961,0,0,0,1.026-1.751,11.355,11.355,0,0,0,.742-4.083,18.387,18.387,0,0,0-.089-2.117A19.628,19.628,0,0,0,1390.263,917.75Z" transform="translate(-1239.006 -744.054)" fill="#fff"/>
      <path id="Path_15829" data-name="Path 15829" d="M1424.52,889.124a12.061,12.061,0,0,1,1.122-2.633,7,7,0,0,1,1.889-2.2,3.963,3.963,0,0,1,1.35-.639,3.89,3.89,0,0,1,1.513-.047,6.133,6.133,0,0,1,2.656,1.3l.562.466.527.506c.343.338.662.676,1,1.007q1.012.993,2.073,1.936a54.078,54.078,0,0,0,4.405,3.559,38.022,38.022,0,0,0,4.781,3,20.04,20.04,0,0,0,5.235,1.961,12.537,12.537,0,0,0,1.378.191,10.618,10.618,0,0,0,1.4,0,7.323,7.323,0,0,0,2.668-.683,7.442,7.442,0,0,0,2.241-1.646,9.462,9.462,0,0,0,.891-1.1,12.346,12.346,0,0,0,.758-1.206,10.612,10.612,0,0,1-1.488,2.446,7.4,7.4,0,0,1-5.026,2.693,10.817,10.817,0,0,1-2.917-.112c-.48-.082-.954-.189-1.425-.31a14.471,14.471,0,0,1-1.383-.443,24.8,24.8,0,0,1-2.656-1.15,37.573,37.573,0,0,1-4.9-3.032,53.2,53.2,0,0,1-4.443-3.643q-1.056-.972-2.062-2c-.336-.338-.665-.7-.989-1.035l-.485-.5-.515-.466a5.718,5.718,0,0,0-2.374-1.271,3.4,3.4,0,0,0-1.32-.019,3.649,3.649,0,0,0-1.236.522,6.8,6.8,0,0,0-1.919,2,11.826,11.826,0,0,0-.718,1.222A12.266,12.266,0,0,0,1424.52,889.124Z" transform="translate(-1275.922 -717.832)" fill="#fff"/>
      <path id="Path_15830" data-name="Path 15830" d="M1368.155,2349.209l18.805,4.051,12.868,7.283-45.6.305,2.754-14.088Z" transform="translate(-1222.024 -1839.814)" fill="#ffcfbf"/>
      <path id="Path_15831" data-name="Path 15831" d="M1386.523,2352.769l-9.755-1.607-1.945,1.056a5.963,5.963,0,0,0-3.1,5.6h0s-14.612.247-14.881-11.065l-2.8,14.508,46.132-.343Z" transform="translate(-1221.878 -1839.807)" fill="#415490"/>
      <path id="Path_15832" data-name="Path 15832" d="M1226.486,2194.149l10.433,16.161,3.95,14.249-32.459-32.026,11.91-8.013Z" transform="translate(-1110.209 -1715.409)" fill="#ffcfbf"/>
      <path id="Path_15833" data-name="Path 15833" d="M1235.973,2209.765l-5.76-8.034-2.124-.63a5.96,5.96,0,0,0-6.152,1.765h0s-10.508-10.158-2.7-18.346L1207,2192.794l32.882,32.387Z" transform="translate(-1109.128 -1715.409)" fill="#415490"/>
      <path id="Path_15834" data-name="Path 15834" d="M1302.721,1475.94l-3.134,4.4a63.133,63.133,0,0,0-10.219,49.936c2.854,13.269,4.694,29.034,1.087,40.279,9.638-1.313,27.6,0,45.556-14.018s31.538-11.387,34.6-1.751l-21.9-71.4S1330.316,1490.394,1302.721,1475.94Z" transform="translate(-1171.187 -1172.072)" fill="#415490"/>
      <path id="Path_15835" data-name="Path 15835" d="M1441.98,1941.76c-.329,3.892-.744,7.775-1.189,11.66-.215,1.94-.466,3.876-.7,5.814l-.741,5.807-.791,5.8c-.28,1.931-.543,3.864-.839,5.8-.576,3.859-1.185,7.717-1.88,11.562.327-3.894.742-7.777,1.187-11.66.214-1.94.466-3.876.7-5.814l.744-5.807.791-5.8c.28-1.931.543-3.864.839-5.793C1440.679,1949.46,1441.285,1945.6,1441.98,1941.76Z" transform="translate(-1284.602 -1529.261)" fill="#ffa28e"/>
      <path id="Path_15836" data-name="Path 15836" d="M1312.4,2121.678c-.763-2.565-1.418-5.172-2.034-7.782-.312-1.3-.595-2.612-.884-3.92s-.543-2.624-.814-3.936-.5-2.633-.739-3.95l-.338-1.982q-.173-.989-.322-1.984c-.413-2.649-.767-5.308-1-7.983.6,2.616,1.147,5.238,1.686,7.859.285,1.308.529,2.624.807,3.932l.784,3.937.765,3.941c.233,1.315.5,2.628.737,3.946C1311.533,2116.387,1312,2119.024,1312.4,2121.678Z" transform="translate(-1185.248 -1643.039)" fill="#ffa28e"/>
      <path id="Path_15837" data-name="Path 15837" d="M1511.888,1913.12l1.173,6.532-2.041-6.315Z" transform="translate(-1342.25 -1507.3)" fill="#ffa28e"/>
      <path id="Path_15838" data-name="Path 15838" d="M1332.13,1941.76a11.285,11.285,0,0,1,.569,1.894c.138.639.233,1.28.315,1.924a17.491,17.491,0,0,1,.124,1.945,11.332,11.332,0,0,1-.131,1.975,11.307,11.307,0,0,1-.569-1.9,19.992,19.992,0,0,1-.436-3.869A11.511,11.511,0,0,1,1332.13,1941.76Z" transform="translate(-1204.977 -1529.261)" fill="#ffa28e"/>
      <path id="Path_15839" data-name="Path 15839" d="M1384.275,1114.663l-5.695.875,20.149,26.063,9.419-25.405A41.953,41.953,0,0,0,1384.275,1114.663Z" transform="translate(-1240.695 -894.24)" fill="#ffcfbf"/>
      <path id="Path_15840" data-name="Path 15840" d="M1462.443,1918.28l-12.483,28.253,3.5-23.654Z" transform="translate(-1295.429 -1511.257)" fill="#ffa28e"/>
      <path id="Path_15841" data-name="Path 15841" d="M1408.63,1159.44s12.7,14.018,16.646,5.914l-3.5,11.168Z" transform="translate(-1263.738 -929.381)" fill="#ffa28e"/>
      <path id="Path_15842" data-name="Path 15842" d="M1378.58,1121.87c1.8,2.08,3.547,4.2,5.3,6.318l2.6,3.193,2.582,3.209c.86,1.068,1.707,2.15,2.565,3.225s1.707,2.15,2.547,3.234c1.686,2.167,3.381,4.326,5.047,6.509l-1.061.163c.791-2.115,1.581-4.23,2.4-6.336l1.208-3.16,1.238-3.153q.616-1.577,1.252-3.148c.422-1.047.835-2.1,1.269-3.141.856-2.1,1.719-4.179,2.619-6.255-.672,2.159-1.376,4.307-2.1,6.45-.352,1.073-.723,2.138-1.084,3.209s-.728,2.138-1.1,3.2l-1.115,3.2-1.14,3.19c-.753,2.129-1.53,4.249-2.309,6.369l-.378,1.031-.683-.87c-1.7-2.159-3.358-4.345-5.03-6.53-.837-1.087-1.663-2.185-2.488-3.281s-1.658-2.187-2.477-3.291l-2.456-3.307-2.435-3.323C1381.749,1126.362,1380.14,1124.134,1378.58,1121.87Z" transform="translate(-1240.695 -900.572)" fill="#ed9636"/>
      <ellipse id="Ellipse_328" data-name="Ellipse 328" cx="13.087" cy="7.521" rx="13.087" ry="7.521" transform="matrix(0.046, -0.999, 0.999, 0.046, 136.441, 207.991)" fill="#2c75ff"/>
      <ellipse id="Ellipse_329" data-name="Ellipse 329" cx="13.087" cy="7.521" rx="13.087" ry="7.521" transform="matrix(0.046, -0.999, 0.999, 0.046, 135.141, 207.845)" fill="#88b6ff"/>
      <ellipse id="Ellipse_330" data-name="Ellipse 330" cx="3.668" cy="2.108" rx="3.668" ry="2.108" transform="matrix(0.046, -0.999, 0.999, 0.046, 136.77, 195.067)" fill="#fff"/>
      <path id="Path_15843" data-name="Path 15843" d="M1408.5,1041.122a10.885,10.885,0,0,0,12.127,6.91l-.051,1.129a12.506,12.506,0,0,1-13.339-7.138C1404.352,1034.485,1408.5,1041.122,1408.5,1041.122Z" transform="translate(-1261.884 -836.584)" fill="#88b6ff"/>
      <path id="Path_15844" data-name="Path 15844" d="M1464.649,1078.454a1.97,1.97,0,1,1-1.866-1.782A1.839,1.839,0,0,1,1464.649,1078.454Z" transform="translate(-1303.703 -865.913)" fill="#2c75ff"/>
      <path id="Path_15845" data-name="Path 15845" d="M1406.125,899.5c.208-.686,3.465-22.471,18.9-21.245-3.451-.679-14.459-3.794-20.608,20.471A2.666,2.666,0,0,1,1406.125,899.5Z" transform="translate(-1260.509 -713.386)" fill="#2c75ff"/>
      <path id="Path_15846" data-name="Path 15846" d="M1400.66,895.666s1.807-24.29,15.452-21.921l6.033,1.32s-16.289-5.445-19.479,22.437A19.484,19.484,0,0,0,1400.66,895.666Z" transform="translate(-1257.626 -710.186)" fill="#88b6ff"/>
      <path id="Path_15847" data-name="Path 15847" d="M3352.779,789.58h-87.964a11.215,11.215,0,0,0-11.215,11.215v48.739a11.215,11.215,0,0,0,11.215,11.215H3283.2l-7.745,13.449,2.332-.079,19.519-13.37h55.47a11.214,11.214,0,0,0,11.212-11.212V800.795a11.215,11.215,0,0,0-11.208-11.215Z" transform="translate(-2678.454 -645.774)" fill="#b5b5b5"/>
      <path id="Path_15848" data-name="Path 15848" d="M3362.4,789.58h-87.964a11.213,11.213,0,0,0-11.212,11.215v48.739a11.213,11.213,0,0,0,11.215,11.215h18.381l-7.742,13.449,21.854-13.449h55.47a11.215,11.215,0,0,0,11.215-11.215V800.795A11.215,11.215,0,0,0,3362.4,789.58Z" transform="translate(-2685.831 -645.774)" fill="#e6e6e6"/>
      <path id="Path_15849" data-name="Path 15849" d="M3400.136,836.243h-82.375a1.681,1.681,0,0,1-1.681-1.681h0a1.681,1.681,0,0,1,1.681-1.681h82.375a1.682,1.682,0,0,1,1.682,1.681h0A1.682,1.682,0,0,1,3400.136,836.243Z" transform="translate(-2726.364 -678.976)" fill="#fff"/>
      <path id="Path_15850" data-name="Path 15850" d="M3400.136,1030.883h-82.375a1.681,1.681,0,0,1-1.681-1.682h0a1.681,1.681,0,0,1,1.681-1.681h82.375a1.681,1.681,0,0,1,1.682,1.681h0A1.682,1.682,0,0,1,3400.136,1030.883Z" transform="translate(-2726.364 -828.225)" fill="#fff"/>
      <path id="Path_15851" data-name="Path 15851" d="M3357.548,879.5h-39.787a1.679,1.679,0,0,1-1.681-1.679h0a1.681,1.681,0,0,1,1.681-1.681h39.787a1.681,1.681,0,0,1,1.681,1.681h0a1.678,1.678,0,0,1-1.681,1.679Z" transform="translate(-2726.364 -712.147)" fill="#fff"/>
      <path id="Path_15852" data-name="Path 15852" d="M3551.986,878.887h-35.491a1.775,1.775,0,0,1-1.775-1.772h0a1.775,1.775,0,0,1,1.775-1.775h35.491a1.775,1.775,0,0,1,1.774,1.775h0A1.775,1.775,0,0,1,3551.986,878.887Z" transform="translate(-2878.68 -711.534)" fill="#fff"/>
      <path id="Path_15853" data-name="Path 15853" d="M3357.548,957.193h-39.787a1.681,1.681,0,0,1-1.681-1.681h0a1.681,1.681,0,0,1,1.681-1.681h39.787a1.681,1.681,0,0,1,1.681,1.681h0A1.681,1.681,0,0,1,3357.548,957.193Z" transform="translate(-2726.364 -771.72)" fill="#fff"/>
      <path id="Path_15854" data-name="Path 15854" d="M3551.986,956.579h-35.491a1.775,1.775,0,0,1-1.775-1.775h0a1.775,1.775,0,0,1,1.775-1.775h35.491a1.775,1.775,0,0,1,1.774,1.775h0A1.775,1.775,0,0,1,3551.986,956.579Z" transform="translate(-2878.68 -771.107)" fill="#fff"/>
      <path id="Path_15855" data-name="Path 15855" d="M3455.15,917.756h-65.372a1.588,1.588,0,0,1-1.588-1.588h0a1.588,1.588,0,0,1,1.588-1.588h65.376a1.588,1.588,0,0,1,1.588,1.588h0a1.588,1.588,0,0,1-1.593,1.588Z" transform="translate(-2781.657 -741.623)" fill="#fff"/>
      <path id="Path_15856" data-name="Path 15856" d="M3328.689,917.756h-11.021a1.588,1.588,0,0,1-1.588-1.588h0a1.588,1.588,0,0,1,1.588-1.588h11.021a1.588,1.588,0,0,1,1.588,1.588h0a1.588,1.588,0,0,1-1.588,1.588Z" transform="translate(-2726.364 -741.623)" fill="#fff"/>
      <path id="Path_15857" data-name="Path 15857" d="M3429.449,994.04h-39.6a1.679,1.679,0,0,1-1.681-1.679h0a1.681,1.681,0,0,1,1.681-1.681h39.6a1.679,1.679,0,0,1,1.681,1.681h0a1.679,1.679,0,0,1-1.681,1.679Z" transform="translate(-2781.642 -799.976)" fill="#fff"/>
      <path id="Path_15858" data-name="Path 15858" d="M3601.394,994.04h-20.923a1.679,1.679,0,0,1-1.681-1.679h0a1.681,1.681,0,0,1,1.681-1.681h20.921a1.681,1.681,0,0,1,1.681,1.681h0a1.679,1.679,0,0,1-1.679,1.679Z" transform="translate(-2927.809 -799.976)" fill="#fff"/>
      <path id="Path_15859" data-name="Path 15859" d="M3328.689,994.654h-11.021a1.586,1.586,0,0,1-1.588-1.586h0a1.588,1.588,0,0,1,1.588-1.588h11.021a1.588,1.588,0,0,1,1.588,1.588h0a1.586,1.586,0,0,1-1.588,1.586Z" transform="translate(-2726.364 -800.59)" fill="#fff"/>
      <path id="Path_15860" data-name="Path 15860" d="M0,0H101.145A12.36,12.36,0,0,1,113.5,12.36h0a12.36,12.36,0,0,1-12.36,12.36H0Z" transform="translate(594.947 428.998) rotate(180)" fill="#71757c" opacity="0.8"/>
      <rect id="Rectangle_3206" data-name="Rectangle 3206" width="57.841" height="24.701" transform="translate(594.632 428.998) rotate(180)" fill="#363a42" opacity="0.8"/>
      <path id="Path_15861" data-name="Path 15861" d="M0,0H101.145A12.36,12.36,0,0,1,113.5,12.36h0a12.36,12.36,0,0,1-12.36,12.36H0Z" transform="translate(386.022 428.998) rotate(180)" fill="#71757c" opacity="0.8"/>
      <rect id="Rectangle_3207" data-name="Rectangle 3207" width="57.841" height="24.701" transform="translate(385.71 428.998) rotate(180)" fill="#363a42" opacity="0.8"/>
      <rect id="Rectangle_3208" data-name="Rectangle 3208" width="53.149" height="50.013" transform="translate(320.427 117.385)" fill="#f2f2f2"/>
      <rect id="Rectangle_3209" data-name="Rectangle 3209" width="38.971" height="39.589" transform="translate(327.617 122.73)" fill="#2c75ff"/>
      <rect id="Rectangle_3210" data-name="Rectangle 3210" width="43.35" height="42.825" transform="translate(325.427 121.113)" fill="none" stroke="#2c75ff" stroke-width="1"/>
      <rect id="Rectangle_3211" data-name="Rectangle 3211" width="34.192" height="35.347" transform="translate(330.005 124.877)" fill="#f2f2f2"/>
      <rect id="Rectangle_3212" data-name="Rectangle 3212" width="13.402" height="13.855" transform="translate(340.401 135.623)" fill="#2c75ff"/>
      <line id="Line_142" data-name="Line 142" x2="4.802" y2="3.461" transform="translate(368.775 163.937)" fill="none" stroke="#2c75ff" stroke-width="1"/>
      <line id="Line_143" data-name="Line 143" y1="3.729" x2="4.802" transform="translate(368.775 117.385)" fill="none" stroke="#2c75ff" stroke-width="1"/>
      <line id="Line_144" data-name="Line 144" x1="5" y1="3.729" transform="translate(320.427 117.385)" fill="none" stroke="#2c75ff" stroke-width="1"/>
      <line id="Line_145" data-name="Line 145" x1="5" y2="3.461" transform="translate(320.427 163.937)" fill="none" stroke="#2c75ff" stroke-width="1"/>
      <rect id="Rectangle_3213" data-name="Rectangle 3213" width="53.149" height="50.013" transform="translate(421.395 182.877)" fill="#f2f2f2"/>
      <rect id="Rectangle_3214" data-name="Rectangle 3214" width="38.971" height="39.589" transform="translate(428.582 188.222)" fill="#2c75ff"/>
      <rect id="Rectangle_3215" data-name="Rectangle 3215" width="43.35" height="42.825" transform="translate(426.392 186.604)" fill="none" stroke="#2c75ff" stroke-width="1"/>
      <rect id="Rectangle_3216" data-name="Rectangle 3216" width="34.192" height="35.347" transform="translate(430.972 190.368)" fill="#f2f2f2"/>
      <rect id="Rectangle_3217" data-name="Rectangle 3217" width="13.402" height="13.855" transform="translate(441.366 201.114)" fill="#2c75ff"/>
      <line id="Line_146" data-name="Line 146" x2="4.799" y2="3.461" transform="translate(469.742 229.429)" fill="none" stroke="#2c75ff" stroke-width="1"/>
      <line id="Line_147" data-name="Line 147" y1="3.727" x2="4.799" transform="translate(469.742 182.877)" fill="none" stroke="#2c75ff" stroke-width="1"/>
      <line id="Line_148" data-name="Line 148" x1="4.998" y1="3.727" transform="translate(421.395 182.877)" fill="none" stroke="#2c75ff" stroke-width="1"/>
      <line id="Line_149" data-name="Line 149" x1="4.998" y2="3.461" transform="translate(421.395 229.429)" fill="none" stroke="#2c75ff" stroke-width="1"/>
      <path id="Path_15862" data-name="Path 15862" d="M3632.351,1216.977c-.6,1.775-3.629,2.353-6.763,1.29s-5.184-3.363-4.582-5.13,3.631-2.351,6.763-1.29S3632.962,1215.207,3632.351,1216.977Z" transform="translate(-2960.1 -969.16)" fill="url(#linear-gradient)"/>
      <ellipse id="Ellipse_331" data-name="Ellipse 331" cx="3.969" cy="7.005" rx="3.969" ry="7.005" transform="translate(676.599 245.407) rotate(-87.33)" fill="url(#linear-gradient-2)"/>
      <ellipse id="Ellipse_332" data-name="Ellipse 332" cx="3.969" cy="7.005" rx="3.969" ry="7.005" transform="translate(693.93 219.92) rotate(-26.52)" fill="url(#linear-gradient-3)"/>
      <path id="Path_15863" data-name="Path 15863" d="M3833.68,1153.844c-1.77,1.292-5.053-.194-7.337-3.318s-2.693-6.707-.933-8,5.053.194,7.334,3.318S3835.45,1152.552,3833.68,1153.844Z" transform="translate(-3116.08 -916.055)" fill="url(#linear-gradient-4)"/>
      <ellipse id="Ellipse_333" data-name="Ellipse 333" cx="7.005" cy="3.969" rx="7.005" ry="3.969" transform="matrix(0.467, -0.884, 0.884, 0.467, 718.479, 232.433)" fill="url(#linear-gradient-5)"/>
      <ellipse id="Ellipse_334" data-name="Ellipse 334" cx="7.005" cy="3.969" rx="7.005" ry="3.969" transform="translate(702.745 209.519) rotate(-48.68)" fill="url(#linear-gradient-6)"/>
      <ellipse id="Ellipse_335" data-name="Ellipse 335" cx="7.005" cy="3.969" rx="7.005" ry="3.969" transform="matrix(0.467, -0.884, 0.884, 0.467, 710.163, 219.827)" fill="url(#linear-gradient-5)"/>
      <ellipse id="Ellipse_336" data-name="Ellipse 336" cx="5.989" cy="3.393" rx="5.989" ry="3.393" transform="translate(656.235 259.507) rotate(-49.34)" fill="url(#linear-gradient-8)"/>
      <ellipse id="Ellipse_337" data-name="Ellipse 337" cx="5.989" cy="3.393" rx="5.989" ry="3.393" transform="matrix(0.273, -0.962, 0.962, 0.273, 665.297, 263.592)" fill="url(#linear-gradient-9)"/>
      <path id="Path_15864" data-name="Path 15864" d="M3716.441,1255.862c1.8.513,2.53,3.5,1.632,6.688s-3.1,5.347-4.9,4.834-2.533-3.5-1.632-6.688S3714.639,1255.349,3716.441,1255.862Z" transform="translate(-3029.309 -1003.259)" fill="url(#linear-gradient-10)"/>
      <path id="Path_15865" data-name="Path 15865" d="M3795.49,1226.592l3.242,15.077H3811.7l2.92-15.158Z" transform="translate(-3093.974 -980.81)" fill="#88b6ff"/>
      <path id="Path_15866" data-name="Path 15866" d="M3781.895,1214.6h-1.784l-2.351-3.729H3804.1l-1.7,3.808Z" transform="translate(-3080.378 -968.817)" fill="#2c75ff"/>
      <path id="Path_15867" data-name="Path 15867" d="M3802.44,1290.81h16.615l-.809,2.108H3804.3Z" transform="translate(-3099.303 -1030.115)" fill="#2c75ff"/>
      <path id="Path_15868" data-name="Path 15868" d="M3674.99,1183.859s4.431-12.068-8.447-12.472-7.645,17.3-17.7,18.1-18.5-3.216-23.733,8.449" transform="translate(-2963.327 -938.537)" fill="none" stroke="#2c75ff" stroke-width="1"/>
      <path id="Path_15869" data-name="Path 15869" d="M3820.629,1031.553s4.431-16.9-8.85-21.723-6.033-37.408,14.883-23.32,23.332-9.655,6.84-11.66" transform="translate(-3101.328 -787.838)" fill="none" stroke="#2c75ff" stroke-width="1"/>
      <path id="Path_15870" data-name="Path 15870" d="M3662.192,1249.77s.536,6.436-3.032,8.223" transform="translate(-2989.436 -998.646)" fill="none" stroke="#2c75ff" stroke-width="1"/>
      <path id="Path_15871" data-name="Path 15871" d="M3649.067,1231.545a13.956,13.956,0,0,0-9.3-5" transform="translate(-2974.568 -980.833)" fill="none" stroke="#2c75ff" stroke-width="1"/>
      <path id="Path_15872" data-name="Path 15872" d="M3725.971,1248.81s2.379,5.161-1.551,8.862" transform="translate(-3039.478 -997.91)" fill="none" stroke="#2c75ff" stroke-width="1"/>
      <line id="Line_150" data-name="Line 150" x1="11.264" y1="0.536" transform="translate(681.605 242.274)" fill="none" stroke="#2c75ff" stroke-width="1"/>
      <line id="Line_151" data-name="Line 151" x1="6.257" y1="10.014" transform="translate(699.261 223.098)" fill="none" stroke="#2c75ff" stroke-width="1"/>
      <line id="Line_152" data-name="Line 152" x1="6.849" y1="9.617" transform="translate(712.911 231.073)" fill="none" stroke="#2c75ff" stroke-width="1"/>
      <ellipse id="Ellipse_338" data-name="Ellipse 338" cx="7.005" cy="3.969" rx="7.005" ry="3.969" transform="translate(704.295 194.973) rotate(-82.61)" fill="url(#linear-gradient-11)"/>
      <line id="Line_153" data-name="Line 153" y1="13.81" x2="1.565" transform="translate(708.468 184.169)" fill="none" stroke="#2c75ff" stroke-width="1"/>
      <ellipse id="Ellipse_339" data-name="Ellipse 339" cx="7.005" cy="3.969" rx="7.005" ry="3.969" transform="translate(717.026 190.459) rotate(-44.5)" fill="url(#linear-gradient-12)"/>
      <line id="Line_154" data-name="Line 154" y1="9.902" x2="9.755" transform="translate(718.444 185.489)" fill="none" stroke="#2c75ff" stroke-width="1"/>
      <ellipse id="Ellipse_340" data-name="Ellipse 340" cx="3.969" cy="7.005" rx="3.969" ry="7.005" transform="matrix(0.968, -0.251, 0.251, 0.968, 695.616, 192.185)" fill="url(#linear-gradient-13)"/>
      <line id="Line_155" data-name="Line 155" x1="3.703" y1="13.398" transform="translate(700.367 193.642)" fill="none" stroke="#2c75ff" stroke-width="1"/>
      <path id="Path_15873" data-name="Path 15873" d="M3848.319,1013.625c1.283-1.777,4.865-1.381,8,.884s4.639,5.543,3.356,7.32-4.867,1.38-8-.886S3847.034,1015.4,3848.319,1013.625Z" transform="translate(-3134.13 -816.719)" fill="url(#linear-gradient-14)"/>
      <line id="Line_156" data-name="Line 156" x2="11.399" y2="7.955" transform="translate(711.915 195.892)" fill="none" stroke="#2c75ff" stroke-width="1"/>
      <ellipse id="Ellipse_341" data-name="Ellipse 341" cx="3.969" cy="7.005" rx="3.969" ry="7.005" transform="matrix(0.905, -0.426, 0.426, 0.905, 726.992, 204.982)" fill="url(#linear-gradient-15)"/>
      <line id="Line_157" data-name="Line 157" x2="6.122" y2="12.479" transform="translate(729.086 201.3)" fill="none" stroke="#2c75ff" stroke-width="1"/>
      <ellipse id="Ellipse_342" data-name="Ellipse 342" cx="3.969" cy="7.005" rx="3.969" ry="7.005" transform="matrix(0.356, -0.935, 0.935, 0.356, 742.79, 204.681)" fill="url(#linear-gradient-16)"/>
      <line id="Line_158" data-name="Line 158" x2="13.069" y2="4.734" transform="translate(741.795 200.619)" fill="none" stroke="#2c75ff" stroke-width="1"/>
      <path id="Path_15874" data-name="Path 15874" d="M3974.286,961.66c-1.553-1.546-.6-5.023,2.122-7.768s6.2-3.717,7.752-2.173.606,5.021-2.12,7.768S3975.842,963.2,3974.286,961.66Z" transform="translate(-3230.502 -769.538)" fill="url(#linear-gradient-17)"/>
      <line id="Line_159" data-name="Line 159" y1="10.018" x2="9.634" transform="translate(742.429 184.188)" fill="none" stroke="#2c75ff" stroke-width="1"/>
      <ellipse id="Ellipse_343" data-name="Ellipse 343" cx="3.969" cy="7.005" rx="3.969" ry="7.005" transform="matrix(1, -0.03, 0.03, 1, 733.104, 172.324)" fill="url(#linear-gradient-18)"/>
      <line id="Line_160" data-name="Line 160" x1="0.641" y1="13.885" transform="translate(737.425 174.767)" fill="none" stroke="#2c75ff" stroke-width="1"/>
      <line id="Line_161" data-name="Line 161" y1="7.152" x2="5.9" transform="translate(704.044 206.65)" fill="none" stroke="#2c75ff" stroke-width="1"/>
      <line id="Line_162" data-name="Line 162" y1="7.15" x2="5.9" transform="translate(712.491 215.367)" fill="none" stroke="#2c75ff" stroke-width="1"/>
      <line id="Line_163" data-name="Line 163" y1="7.152" x2="5.9" transform="translate(719.867 228.105)" fill="none" stroke="#2c75ff" stroke-width="1"/>
      <path id="Path_15875" data-name="Path 15875" d="M2081.705,994.457,2068.03,980.15l61.719,19.12Z" transform="translate(-1769.363 -791.902)" fill="#6079ba"/>
      <path id="Path_15876" data-name="Path 15876" d="M2127.13,1041.05l1.322,4.918h46.615Z" transform="translate(-1814.681 -838.6)" fill="#415490"/>
      <path id="Path_15877" data-name="Path 15877" d="M2037.063,1062.14l-29.664,11.217,76.279-11.217Z" transform="translate(-1722.872 -854.772)" fill="#6079ba"/>
      <path id="Path_15878" data-name="Path 15878" d="M2723.558,1550.28l-47.328,7.749,5.536,15.221L2723,1583.49Z" transform="translate(-2235.729 -1229.076)" fill="#ffc968"/>
      <path id="Path_15879" data-name="Path 15879" d="M2828.88,1381.148s-9.615,4.473-13.356,21.968c-5.856,21.079-6.355,33.008-6.355,33.008l14.925,11.059,11.408-38.805S2836.07,1379.284,2828.88,1381.148Z" transform="translate(-2337.667 -1099.32)" fill="#ffc968"/>
      <path id="Path_15880" data-name="Path 15880" d="M2770.9,1511.71s-16.406,23.248-22,23.248-16.4.415-17.024.623,6.852,13.491,7.889,13.292,24.468,12.253,24.468,12.253S2768.414,1528.937,2770.9,1511.71Z" transform="translate(-2278.371 -1199.5)" fill="#ffa647"/>
      <path id="Path_15881" data-name="Path 15881" d="M2908.662,1331s36.8,4.8,40.778,17.957c-4.9,1.532-20.431,40.785-19.512,64.348,2.449,24.635-14.074,17.616-14.074,17.616l-19.741.613-36.613-10.48,4.706-23.248s5.363-53.721,1.383-53.415c3.759-2.889,13.507-9.517,22.217-12.423C2892.918,1330.26,2899.709,1331.06,2908.662,1331Z" transform="translate(-2376.26 -1060.829)" fill="#ffc968"/>
      <path id="Path_15882" data-name="Path 15882" d="M2950.31,1616.31s-7.817,16.884-25.638,15.625-34.393,5.317-40.332,9.694,64.408,2.187,64.408,2.187" transform="translate(-2395.034 -1279.707)" fill="#ffa647"/>
      <path id="Path_15883" data-name="Path 15883" d="M2999.162,1251.586l.949,17.8a6.8,6.8,0,0,1-1.338,4.431l-.606.814a11.1,11.1,0,0,1-8.4,4.459h0a11.1,11.1,0,0,1-7.134-2.185l-.6-.443a8.514,8.514,0,0,1-3.419-6.436l-.292-6.411,14.79-12.985Z" transform="translate(-2467.378 -999.305)" fill="#ffcfbf"/>
      <path id="Path_15884" data-name="Path 15884" d="M2997.767,1243l-3.932,4.855s-.544,16.516-14.491,16.191l-.233-5.112,14.79-12.982Z" transform="translate(-2467.977 -993.454)" fill="#ffa28e"/>
      <path id="Path_15885" data-name="Path 15885" d="M2949.821,1151.957c-2.316,3.032-6.623,6.642-13.463,5.074-7.425-.891-10.163-6.919-11.427-21.016-.646-14.123.217-22.154,9.232-26.881l21.492-.984,4.587,33.022-.683.59A67.726,67.726,0,0,0,2949.821,1151.957Z" transform="translate(-2426.304 -890.052)" fill="#ffcfbf"/>
      <path id="Path_15886" data-name="Path 15886" d="M2949.423,1201.06a6.353,6.353,0,0,1-.088.846l-.133.842c-.093.56-.2,1.117-.305,1.672q-.329,1.672-.7,3.328c-.126.553-.248,1.108-.38,1.658l-.2.826a2.42,2.42,0,0,0-.072.781,2.2,2.2,0,0,0,.665,1.4,2.261,2.261,0,0,0,1.437.63h.014l1.089.233c.364.075.725.152,1.087.233-.371-.035-.737-.077-1.105-.121l-1.1-.133h.014a2.676,2.676,0,0,1-.875-.152,2.415,2.415,0,0,1-.767-.466,2.475,2.475,0,0,1-.821-1.581,2.614,2.614,0,0,1,.063-.9l.189-.828.385-1.656c.259-1.1.527-2.2.8-3.3l.417-1.646.208-.823C2949.307,1201.613,2949.386,1201.34,2949.423,1201.06Z" transform="translate(-2443.483 -961.295)" fill="#415490"/>
      <path id="Path_15887" data-name="Path 15887" d="M2983.054,1194.035c-.546-.121-1.012-.252-1.458-.357a6.352,6.352,0,0,0-1.245-.187,3.193,3.193,0,0,0-1.14.163,9.361,9.361,0,0,0-1.311.618,2.3,2.3,0,0,1,.788-1.471,2.5,2.5,0,0,1,1.7-.578,3.03,3.03,0,0,1,1.632.553,2.836,2.836,0,0,1,1.028,1.259Z" transform="translate(-2467.048 -954.517)" fill="#415490"/>
      <path id="Path_15888" data-name="Path 15888" d="M2979.105,1169.049c-1.04-.4-2-.791-2.95-1.089a10.5,10.5,0,0,0-2.784-.529,6.036,6.036,0,0,0-2.633.5,14.291,14.291,0,0,0-2.6,1.632,5.672,5.672,0,0,1,.28-.791,5.481,5.481,0,0,1,.411-.742l.247-.352c.091-.112.189-.219.285-.329.049-.054.1-.112.147-.163l.163-.149c.109-.1.217-.2.335-.289a5.231,5.231,0,0,1,1.607-.84c.147-.044.3-.086.445-.121l.453-.082a6.663,6.663,0,0,1,.914-.04,6.8,6.8,0,0,1,3.319,1.045,7.574,7.574,0,0,1,1.324,1.038A5.878,5.878,0,0,1,2979.105,1169.049Z" transform="translate(-2459.565 -934.151)" fill="#415490"/>
      <path id="Path_15889" data-name="Path 15889" d="M2932.991,1172.3c-.763-.166-1.4-.352-2.031-.494a9.1,9.1,0,0,0-1.728-.259,4.545,4.545,0,0,0-1.586.233,13.309,13.309,0,0,0-1.826.853,3.179,3.179,0,0,1,1.1-2.047,3.457,3.457,0,0,1,2.372-.809,4.218,4.218,0,0,1,2.262.772,4.446,4.446,0,0,1,.847.772A3.327,3.327,0,0,1,2932.991,1172.3Z" transform="translate(-2427.114 -937.307)" fill="#415490"/>
      <path id="Path_15890" data-name="Path 15890" d="M2931.63,1198.266c-.467-.121-.888-.256-1.287-.371a5.788,5.788,0,0,0-1.115-.233,2.189,2.189,0,0,0-.989.145,5.652,5.652,0,0,0-1.089.655,1.937,1.937,0,0,1,.62-1.346,2.048,2.048,0,0,1,1.534-.511,2.8,2.8,0,0,1,1.413.541A2.714,2.714,0,0,1,2931.63,1198.266Z" transform="translate(-2428.134 -957.874)" fill="#415490"/>
      <path id="Path_15891" data-name="Path 15891" d="M2983.172,1201.26a1.279,1.279,0,1,0,1.166-1.653A1.453,1.453,0,0,0,2983.172,1201.26Z" transform="translate(-2471.089 -960.18)" fill="#415490"/>
      <path id="Path_15892" data-name="Path 15892" d="M2935.323,1205.637a1.157,1.157,0,1,0,1.052-1.5A1.32,1.32,0,0,0,2935.323,1205.637Z" transform="translate(-2434.399 -963.654)" fill="#415490"/>
      <path id="Path_15893" data-name="Path 15893" d="M2969.847,1268.81s1.742,3.05-.872,4.212c-2.4.945-3.265-1.961-3.265-1.961S2967.741,1271.5,2969.847,1268.81Z" transform="translate(-2457.701 -1013.246)" fill="#415490"/>
      <path id="Path_15894" data-name="Path 15894" d="M2958.42,1264.585a11.753,11.753,0,0,0,2.027,0,4.235,4.235,0,0,0,1.791-.567,4.142,4.142,0,0,0,1.327-1.32,8.118,8.118,0,0,0,.865-1.819,4.2,4.2,0,0,1-.375,2.1,3.711,3.711,0,0,1-1.45,1.661,3.761,3.761,0,0,1-2.141.513A4.936,4.936,0,0,1,2958.42,1264.585Z" transform="translate(-2452.111 -1007.165)" fill="#415490"/>
      <path id="Path_15895" data-name="Path 15895" d="M2915.528,1092.288s-6.97-11-8.059-11.11-5.229-1.632-11.66,5.009-23.2,1.852-19.932-5.662,8.932-2.941,8.932-2.941-9.911-1.089-4.683-9.585,6.425,3.265,14.7,1.306,23.962-7.623,27.012.653.543,10.13.543,10.13,12.2-.872,10.13,10.238c-2.178,11-9.795,12.525-9.795,12.525Z" transform="translate(-2388.497 -856.873)" fill="#1e2023" opacity="0.89"/>
      <ellipse id="Ellipse_344" data-name="Ellipse 344" cx="7.481" cy="13.015" rx="7.481" ry="13.015" transform="matrix(0.999, -0.046, 0.046, 0.999, 523.133, 228.813)" fill="#2c75ff"/>
      <ellipse id="Ellipse_345" data-name="Ellipse 345" cx="7.481" cy="13.015" rx="7.481" ry="13.015" transform="matrix(0.999, -0.046, 0.046, 0.999, 524.424, 228.67)" fill="#88b6ff"/>
      <path id="Path_15896" data-name="Path 15896" d="M3079.638,1180.557c.094,2.015,1.105,3.6,2.262,3.549s2.02-1.728,1.928-3.731-1.105-3.6-2.262-3.549S3079.548,1178.544,3079.638,1180.557Z" transform="translate(-2545.056 -942.711)" fill="#fff"/>
      <path id="Path_15897" data-name="Path 15897" d="M3016.706,1239.187a10.846,10.846,0,0,1-12.066,6.87l.052,1.124a12.44,12.44,0,0,0,13.269-7.1C3020.815,1232.6,3016.706,1239.187,3016.706,1239.187Z" transform="translate(-2487.552 -988.475)" fill="#88b6ff"/>
      <path id="Path_15898" data-name="Path 15898" d="M2995.2,1276.358a1.964,1.964,0,1,0,1.863-1.772A1.828,1.828,0,0,0,2995.2,1276.358Z" transform="translate(-2480.315 -1017.673)" fill="#2c75ff"/>
      <path id="Path_15899" data-name="Path 15899" d="M2998.771,1098.383c-.205-.683-3.447-22.35-18.8-21.13,3.433-.676,14.373-3.773,20.5,20.361A2.645,2.645,0,0,0,2998.771,1098.383Z" transform="translate(-2468.635 -865.978)" fill="#2c75ff"/>
      <path id="Path_15900" data-name="Path 15900" d="M3001.339,1094.537s-1.8-24.157-15.368-21.807l-6,1.313s16.2-5.415,19.375,22.318A19.3,19.3,0,0,1,3001.339,1094.537Z" transform="translate(-2468.636 -862.769)" fill="#88b6ff"/>
      <path id="Path_15901" data-name="Path 15901" d="M2908.873,1121.3a19.583,19.583,0,0,0-3.848-2.241,15.953,15.953,0,0,0-4.23-1.259,11.453,11.453,0,0,0-4.356.173,10.51,10.51,0,0,0-2.057.725l-.25.112-.233.133-.48.261c-.308.2-.611.39-.921.6a44.7,44.7,0,0,1-3.822,2.374,21.41,21.41,0,0,1-4.146,1.784,10.241,10.241,0,0,1-2.239.413,5.459,5.459,0,0,1-2.262-.315,4.081,4.081,0,0,1-1.789-1.387,6.063,6.063,0,0,1-.949-2.029,6.525,6.525,0,0,0,1.059,1.943,3.863,3.863,0,0,0,1.768,1.229,5.131,5.131,0,0,0,2.147.212,10.149,10.149,0,0,0,2.144-.467,22.46,22.46,0,0,0,4.025-1.828c1.292-.723,2.542-1.525,3.764-2.372.305-.21.636-.413.956-.618l.5-.273.252-.135.261-.116c.175-.077.348-.159.525-.233l.537-.2a4.889,4.889,0,0,1,.548-.17,5.675,5.675,0,0,1,.553-.145,11.5,11.5,0,0,1,4.533-.091,15.421,15.421,0,0,1,4.277,1.429,19.583,19.583,0,0,1,1.933,1.138A15.325,15.325,0,0,1,2908.873,1121.3Z" transform="translate(-2389.901 -896.998)" fill="#fff"/>
      <path id="Path_15902" data-name="Path 15902" d="M2925.812,1104.538a27.214,27.214,0,0,0-1.453-4.289,16.616,16.616,0,0,0-1.029-2.006,8.523,8.523,0,0,0-1.376-1.747,3.828,3.828,0,0,0-1.866-1.045,2.985,2.985,0,0,0-1.059-.026c-.175.035-.35.077-.522.123a3.694,3.694,0,0,0-.506.2l-4.121,1.91a71.937,71.937,0,0,1-8.458,3.37,22.656,22.656,0,0,1-2.211.581,12.4,12.4,0,0,1-2.274.294,5.022,5.022,0,0,1-1.15-.107,2.352,2.352,0,0,1-1.049-.492,1.7,1.7,0,0,1-.551-1,3.27,3.27,0,0,1,.028-1.138,3.245,3.245,0,0,0,.038,1.124,1.631,1.631,0,0,0,.56.933,2.181,2.181,0,0,0,1.007.417,4.783,4.783,0,0,0,1.11.054,12.161,12.161,0,0,0,2.218-.348c.732-.177,1.455-.394,2.169-.632,1.427-.485,2.838-1.028,4.228-1.618s2.775-1.2,4.151-1.831,2.745-1.273,4.135-1.891c.177-.072.368-.14.553-.208a3.73,3.73,0,0,1,.585-.133,3.4,3.4,0,0,1,1.2.047,3.574,3.574,0,0,1,1.105.443,4.735,4.735,0,0,1,.48.345l.233.187c.072.065.14.138.21.205a8.849,8.849,0,0,1,1.38,1.849,16.38,16.38,0,0,1,.984,2.064c.277.7.518,1.432.728,2.159A22.412,22.412,0,0,1,2925.812,1104.538Z" transform="translate(-2405.898 -879.969)" fill="#fff"/>
      <path id="Path_15903" data-name="Path 15903" d="M2991.775,1297.19l-11.97,11.7-1.383,4.151-1.385-4.984-6.434-5.879-2.423,5.049,7.75,14.116,24.08-14.668Z" transform="translate(-2459.595 -1035.007)" fill="#ffc968"/>
      <path id="Path_15904" data-name="Path 15904" d="M3008.846,1345.26l-2.012,7.229a23.7,23.7,0,0,1-13.02,15.2h0a5.3,5.3,0,0,0-5.238,3.393l-3.393,8.848,1.453-21.8-5.4,11.833.277-20.48,3.113-2.7,3.666,8.232,2.915-6.793,5.191,10.515Z" transform="translate(-2469.61 -1071.867)" fill="#ffa647"/>
      <path id="Path_15905" data-name="Path 15905" d="M3034.577,1337.84c-1.591,2.181-3.265,4.293-4.949,6.387s-3.428,4.153-5.221,6.168c-.45.5-.9,1-1.364,1.5q-.348.376-.7.742a8.8,8.8,0,0,1-.779.732c-.04.033-.079.063-.133.1l-.089.058-.063.035-.049.021-.061.023-.091.023a.66.66,0,0,1-.194,0,.633.633,0,0,1-.156-.049.568.568,0,0,1-.156-.1.647.647,0,0,1-.107-.138.6.6,0,0,1-.049-.107l-.019-.044-.038-.089-.2-.441-.429-.907c-.284-.606-.583-1.208-.865-1.817-1.15-2.43-2.3-4.862-3.4-7.316l.6-.014c-.233.466-.45.933-.681,1.376l-.7,1.371-.7,1.367q-.352.681-.721,1.357.259-.725.527-1.443l.543-1.437.555-1.432c.182-.466.378-.951.564-1.425l.254-.639.343.625c1.3,2.358,2.544,4.741,3.769,7.141.31.6.6,1.2.9,1.807l.443.914c.075.158.145.3.222.466l.061.145.028.07a.514.514,0,0,0-.04-.091.536.536,0,0,0-.1-.126.511.511,0,0,0-.14-.1.621.621,0,0,0-.145-.042.539.539,0,0,0-.161,0l-.061.016h-.038a.794.794,0,0,0,.07-.054c.215-.182.455-.424.683-.655s.466-.466.7-.716c.466-.483.912-.975,1.364-1.469l5.434-5.954C3030.853,1341.734,3032.684,1339.762,3034.577,1337.84Z" transform="translate(-2494.163 -1066.177)" fill="#ed9636"/>
      <path id="Path_15906" data-name="Path 15906" d="M2974.944,1348.652c-.25-.466-.485-.933-.718-1.4s-.466-.933-.686-1.4c-.441-.945-.881-1.889-1.3-2.845l.728.166q-1.6,1.633-3.246,3.193c-.55.522-1.1,1.042-1.66,1.558s-1.115,1.028-1.679,1.535l-.933.835.035-1.227q.063-2.211.2-4.431c.044-.737.1-1.476.168-2.213s.138-1.474.233-2.213q.123,1.11.2,2.218c.054.737.1,1.476.133,2.215q.107,2.213.133,4.431l-.9-.392q.814-.793,1.632-1.579t1.663-1.556q1.677-1.542,3.4-3.032l.513-.445.215.609c.345.984.665,1.975.986,2.969.152.5.308,1,.455,1.5S2974.813,1348.144,2974.944,1348.652Z" transform="translate(-2457.502 -1067.995)" fill="#ed9636"/>
      <path id="Path_15907" data-name="Path 15907" d="M2996.53,1363.874c-.7,0-5.919-.564-5.919-.564l-.9,1.6a7.569,7.569,0,0,0-.933,4.59l.135,1.166a3.421,3.421,0,0,0,2.547,2.922h0a3.643,3.643,0,0,0,3.5-.952h0a7.579,7.579,0,0,0,1.961-7.323Z" transform="translate(-2475.353 -1085.708)" fill="#2c75ff"/>
      <path id="Path_15908" data-name="Path 15908" d="M2964.795,1398.431c.1.676,1.614,20.741,2.358,30.7a20.63,20.63,0,0,1-1.966,10.457l-6.763,14.132-4.757-15.51a20.671,20.671,0,0,1,.161-12.635l9.307-27.751Z" transform="translate(-2447.768 -1112.17)" fill="#2c75ff"/>
      <path id="Path_15909" data-name="Path 15909" d="M3019.45,1364.365l.9-.415,2.008,4.636-3.738,1.938Z" transform="translate(-2498.272 -1086.198)" fill="#2c75ff"/>
      <path id="Path_15910" data-name="Path 15910" d="M2984.321,1358.91l1,1.026-.86,3.815-2.631-2.766Z" transform="translate(-2470.062 -1082.334)" fill="#2c75ff"/>
      <path id="Path_15911" data-name="Path 15911" d="M2879.466,1425.3a.124.124,0,0,0-.135.021.345.345,0,0,0-.079.121,1.454,1.454,0,0,0-.073.287,4.66,4.66,0,0,0-.054.6c-.019.4-.016.8,0,1.208q.026,1.211.089,2.423l.221,4.848c.08,1.619.117,3.237.163,4.858s.044,3.242.051,4.865-.04,3.244-.093,4.865-.135,3.244-.268,4.862a76.764,76.764,0,0,1-1.269,9.652q.278-4.86.389-9.694c.026-1.616.072-3.23.077-4.844s.037-3.23.033-4.846,0-3.232,0-4.848,0-3.234.028-4.855.044-3.239.1-4.862c.04-.812.077-1.632.152-2.435.039-.406.084-.812.149-1.215a5.477,5.477,0,0,1,.138-.6,1.451,1.451,0,0,1,.116-.287.373.373,0,0,1,.107-.119A.137.137,0,0,1,2879.466,1425.3Z" transform="translate(-2390.461 -1133.222)" fill="#ed9636"/>
      <path id="Path_15912" data-name="Path 15912" d="M2867.878,1477.58a18.351,18.351,0,0,1-1.448-2.432q-.637-1.248-1.152-2.549t-.933-2.638a18.027,18.027,0,0,1-.625-2.761,18.177,18.177,0,0,1,1.45,2.43q.635,1.252,1.15,2.549t.933,2.64a18.21,18.21,0,0,1,.625,2.761Z" transform="translate(-2379.496 -1165.37)" fill="#ed9636"/>
      <path id="Path_15913" data-name="Path 15913" d="M3496.968,1576.648l-2.388-8.358,9.209-8.015,8.529-1.7,5.97,17.224Z" transform="translate(-2863.237 -1235.432)" fill="#ffcfbf"/>
      <path id="Path_15914" data-name="Path 15914" d="M3515.06,1532.149l5.166-17.29a1.368,1.368,0,0,1,1.04-.949h0a1.364,1.364,0,0,1,1.632,1.432l-.445,6.518.625,8.071Z" transform="translate(-2878.941 -1201.167)" fill="#ffcfbf"/>
      <path id="Path_15915" data-name="Path 15915" d="M3557.48,1536.423l14.776-8.321a1.513,1.513,0,0,1,2.234,1.07h0a1.513,1.513,0,0,1-.625,1.488l-13.827,9.685Z" transform="translate(-2911.469 -1211.921)" fill="#ffcfbf"/>
      <path id="Path_15916" data-name="Path 15916" d="M3569.18,1563.776c.4-.4,11.294-3.88,15.891-5.333a1.945,1.945,0,0,1,2.483,1.425h0a1.947,1.947,0,0,1-1.25,2.267l-16.273,5.734Z" transform="translate(-2920.44 -1235.265)" fill="#ffcfbf"/>
      <path id="Path_15917" data-name="Path 15917" d="M3579.641,1595.474l13.022-.548a1.43,1.43,0,0,1,1.486,1.516h0a1.427,1.427,0,0,1-1.206,1.322l-12.8,1.992a1.425,1.425,0,0,1-1.633-1.194l-.233-1.441a1.432,1.432,0,0,1,1.364-1.646Z" transform="translate(-2927.403 -1263.309)" fill="#ffcfbf"/>
      <path id="Path_15918" data-name="Path 15918" d="M3583.07,1615.37l10.1,2.332a1.53,1.53,0,0,1,1.1,2h0a1.534,1.534,0,0,1-1.779.989l-9.417-2.1Z" transform="translate(-2931.091 -1278.987)" fill="#ffcfbf"/>
      <path id="Path_15919" data-name="Path 15919" d="M3164.373,1378.455s-4.372,13.715-1.749,27.7c3.279,44.8,3.06,52.671,19.671,54.637,13.113-3.934,16.828-21.2,11.364-27.751-3.5-9.4-8.088-41.963-8.088-41.963S3178.36,1365.614,3164.373,1378.455Z" transform="translate(-2608.051 -1094.547)" fill="#ffc968"/>
      <path id="Path_15920" data-name="Path 15920" d="M3244.863,1611.13s3.279-1.966,10.928-1.53c9.837-.436,38.479-7.43,38.479-7.43l4.459,8.862s-33.309,22.835-44.456,23.491-14.643,1.53-17.7.219C3236.995,1628.832,3244.863,1611.13,3244.863,1611.13Z" transform="translate(-2665.396 -1268.865)" fill="#ffc968"/>
      <path id="Path_15921" data-name="Path 15921" d="M3186.91,1657.771s10.93,12.038,22.831,7.609,28.78-11.208,48.29-20.34c.739,3.645-23.132,18.444-32.1,24.076C3214.859,1674.1,3193.552,1675.482,3186.91,1657.771Z" transform="translate(-2627.316 -1301.738)" fill="#ffa647"/>
      <path id="Path_15922" data-name="Path 15922" d="M3253.31,1628.881c-.357.021-.76.075-1.143.135s-.774.133-1.166.233a20.334,20.334,0,0,0-6.53,2.705,19.719,19.719,0,0,0-1.907,1.4,19.033,19.033,0,0,0-1.709,1.651,18.832,18.832,0,0,0-2.707,3.922l-.558,1.063.152-1.182c.252-1.95.564-3.887.9-5.83s.7-3.857,1.108-5.779q-.494,2.9-.9,5.814c-.268,1.94-.511,3.885-.7,5.83l-.4-.117a18.607,18.607,0,0,1,4.347-5.9,20.134,20.134,0,0,1,1.931-1.537,20.9,20.9,0,0,1,4.363-2.311,21.671,21.671,0,0,1,2.358-.763c.4-.1.8-.2,1.213-.278a12.582,12.582,0,0,1,1.257-.193Z" transform="translate(-2666.178 -1288.058)" fill="#ed9636"/>
      <path id="Path_15923" data-name="Path 15923" d="M3478.987,1605.574l6.7-3.172-1.868-11.623-6.644,2.906Z" transform="translate(-2849.887 -1260.131)" fill="#ffa647"/>
      <path id="Path_15924" data-name="Path 15924" d="M3543.62,2143.75l8.444,59.115H3577.4l7.119-58.875S3543.788,2143.918,3543.62,2143.75Z" transform="translate(-2900.841 -1684.147)" fill="#2c75ff"/>
      <ellipse id="Ellipse_346" data-name="Ellipse 346" cx="10.657" cy="24.869" rx="10.657" ry="24.869" transform="translate(637.749 385.805) rotate(-12.81)" fill="#ffc968"/>
      <ellipse id="Ellipse_347" data-name="Ellipse 347" cx="19.923" cy="11.779" rx="19.923" ry="11.779" transform="matrix(0.198, -0.98, 0.98, 0.198, 619.986, 470.996)" fill="#ffc968"/>
      <ellipse id="Ellipse_348" data-name="Ellipse 348" cx="29.754" cy="14.892" rx="29.754" ry="14.892" transform="matrix(0.66, -0.751, 0.751, 0.66, 659.469, 436.928)" fill="#ffc968"/>
      <ellipse id="Ellipse_349" data-name="Ellipse 349" cx="20.984" cy="8.789" rx="20.984" ry="8.789" transform="translate(673.709 450.708) rotate(-15.83)" fill="#ffc968"/>
      <path id="Path_15925" data-name="Path 15925" d="M3495.938,2060.411s-3.412-31.548,11.938-32.686c5.116-.569,13.358,1.7,14.781,27.569" transform="translate(-2864.03 -1595.125)" fill="none" stroke="#2c75ff" stroke-width="3"/>
      <path id="Path_15926" data-name="Path 15926" d="M3567.66,1837.83s15.625,24.72,12.789,71.626" transform="translate(-2919.274 -1449.568)" fill="none" stroke="#2c75ff" stroke-width="3"/>
      <path id="Path_15927" data-name="Path 15927" d="M3637.13,1964.32s8.81-44.341,41.5-54.57" transform="translate(-2972.544 -1504.716)" fill="none" stroke="#2c75ff" stroke-width="3"/>
      <path id="Path_15928" data-name="Path 15928" d="M3645.66,2106.645s25.865-11.938,46.613-11.66" transform="translate(-2979.084 -1646.75)" fill="none" stroke="#2c75ff" stroke-width="3"/>
      <path id="Path_15929" data-name="Path 15929" d="M1795.943,1754.016h358.305l12.194-19.7H1783.28Z" transform="translate(-1551.018 -1370.197)" fill="#826c51"/>
      <path id="Path_15930" data-name="Path 15930" d="M3155.812,1434.473c-.45-2.414-.774-4.851-1.063-7.29s-.5-4.9-.639-7.341-.219-4.916-.233-7.376.093-4.928.285-7.388a61.562,61.562,0,0,1,1.031-7.344c.264-1.212.572-2.416.947-3.6a23.109,23.109,0,0,1,1.4-3.477,14.744,14.744,0,0,1,2.064-3.153,9.358,9.358,0,0,1,3-2.306l.215-.1a2.461,2.461,0,0,1,.233-.084l.445-.161a3.935,3.935,0,0,1,.466-.126l.466-.114c.313-.04.623-.1.933-.121l.467-.019a3.91,3.91,0,0,1,.466,0,10.884,10.884,0,0,1,1.845.233c.3.079.6.14.893.233l.875.291-.9-.208c-.3-.065-.6-.1-.9-.147a10.5,10.5,0,0,0-1.812-.091,2.922,2.922,0,0,0-.45.033l-.448.047c-.3.04-.588.117-.879.17l-.427.135a3.691,3.691,0,0,0-.42.145l-.408.179c-.068.03-.138.056-.2.089l-.194.11a8.753,8.753,0,0,0-2.677,2.285,14.7,14.7,0,0,0-1.838,3.057,31.351,31.351,0,0,0-2.083,6.912,63.463,63.463,0,0,0-.954,7.229c-.21,2.428-.3,4.865-.345,7.306s-.014,4.883.042,7.327.168,4.9.31,7.334S3155.609,1432.027,3155.812,1434.473Z" transform="translate(-2601.985 -1101.926)" fill="#ed9636"/>
      <path id="Path_15931" data-name="Path 15931" d="M3138.05,1484.29c.578,1.35,1.047,2.726,1.486,4.111s.821,2.784,1.166,4.2.667,2.822.933,4.249a43.109,43.109,0,0,1,.625,4.328,42.868,42.868,0,0,1-1.486-4.111q-.651-2.08-1.166-4.2t-.933-4.249C3138.409,1487.189,3138.176,1485.752,3138.05,1484.29Z" transform="translate(-2589.851 -1178.475)" fill="#ed9636"/>
      <path id="Path_15932" data-name="Path 15932" d="M2548.15,1439.41l9.829,68.807h120.326v-3.729h-54.231l-8.134-64.061Z" transform="translate(-2137.518 -1144.061)" fill="#b5b5b5"/>
      <path id="Path_15933" data-name="Path 15933" d="M2548.15,1432.723l5.422-2.033,65.078,1.017-2.71,2.033Z" transform="translate(-2137.518 -1137.375)" fill="#f0f0f0"/>
      <ellipse id="Ellipse_350" data-name="Ellipse 350" cx="6.101" cy="11.439" rx="6.101" ry="11.439" transform="translate(438.245 323.154) rotate(-7.47)" fill="#fff"/>
    </g>
  </g>
</svg>
