<svg xmlns="http://www.w3.org/2000/svg" xmlns:xlink="http://www.w3.org/1999/xlink" width="849" height="572.426" viewBox="0 0 849 572.426">
  <defs>
    <linearGradient id="linear-gradient" y1="0.5" x2="1" y2="0.5" gradientUnits="objectBoundingBox">
      <stop offset="0" stop-color="#d90"/>
      <stop offset="1" stop-color="#edc433"/>
    </linearGradient>
    <linearGradient id="linear-gradient-2" x1="0" y1="0.5" x2="1" y2="0.5" xlink:href="#linear-gradient"/>
    <linearGradient id="linear-gradient-4" x1="0.002" y1="0.5" x2="1.002" y2="0.5" xlink:href="#linear-gradient"/>
    <linearGradient id="linear-gradient-5" x1="0.001" y1="0.5" x2="1" y2="0.5" xlink:href="#linear-gradient"/>
    <linearGradient id="linear-gradient-6" x1="0.001" y1="0.503" x2="0.999" y2="0.503" xlink:href="#linear-gradient"/>
    <linearGradient id="linear-gradient-8" x1="0" y1="0.5" x2="1" y2="0.5" xlink:href="#linear-gradient"/>
    <linearGradient id="linear-gradient-9" x1="0" y1="0.5" x2="1" y2="0.5" xlink:href="#linear-gradient"/>
    <linearGradient id="linear-gradient-10" x1="0" y1="0.499" x2="1" y2="0.499" xlink:href="#linear-gradient"/>
    <linearGradient id="linear-gradient-11" x1="0" y1="0.496" x2="1" y2="0.496" xlink:href="#linear-gradient"/>
    <linearGradient id="linear-gradient-12" x1="0" y1="0.499" x2="1" y2="0.499" xlink:href="#linear-gradient"/>
    <linearGradient id="linear-gradient-13" x1="0" y1="0.5" x2="1" y2="0.5" xlink:href="#linear-gradient"/>
    <linearGradient id="linear-gradient-15" x1="0" y1="0.498" x2="1" y2="0.498" xlink:href="#linear-gradient"/>
    <linearGradient id="linear-gradient-16" x1="0.007" y1="0.5" x2="1.007" y2="0.5" xlink:href="#linear-gradient"/>
    <linearGradient id="linear-gradient-17" x1="-0.001" y1="0.5" x2="0.999" y2="0.5" xlink:href="#linear-gradient"/>
    <linearGradient id="linear-gradient-19" x1="0.001" y1="0.5" x2="1" y2="0.5" xlink:href="#linear-gradient"/>
  </defs>
  <g id="OBJECTS" transform="translate(-119.06 -53.292)">
    <path id="Path_18144" data-name="Path 18144" d="M236.544,625.718c-21.779-15.754-66.353-52.366-91.667-114.415-9.668-23.655-38.164-93.373-6.455-161.863,24.5-52.9,72.439-78.049,112.847-99.245,112.586-59.021,164.015-18.951,240.158-74.822C557.841,126.7,542.455,78.926,599.448,59.329,661.374,38.042,729.4,77.159,791.359,112.786c47.74,27.436,105.454,60.6,141.882,129.785C971,314.289,963.412,381.979,959.032,416.654c-13.618,107.868-76.543,180.215-104.917,209.034" transform="translate(2.573 0)" fill="#f0f4ff" opacity="0.6"/>
    <rect id="Rectangle_4761" data-name="Rectangle 4761" width="287.975" height="505.308" rx="12.53" transform="translate(392.264 119.549)" fill="#49558c"/>
    <rect id="Rectangle_4762" data-name="Rectangle 4762" width="259.355" height="421.111" rx="6.82" transform="translate(406.574 153.825)" fill="#383c56"/>
    <path id="Path_18145" data-name="Path 18145" d="M557.454,129.409V523.545a5.533,5.533,0,0,1-5.549,5.549H315.543a5.549,5.549,0,0,1-5.533-5.549V129.409a5.549,5.549,0,0,1,5.533-5.549H551.874a5.533,5.533,0,0,1,5.549,5.257Z" transform="translate(102.543 37.896)" fill="#fff"/>
    <path id="Path_18146" data-name="Path 18146" d="M557.459,129.117V263.7H310V129.409a5.549,5.549,0,0,1,5.533-5.549H551.88a5.533,5.533,0,0,1,5.579,5.257Z" transform="translate(102.537 37.896)" fill="#3262ea"/>
    <path id="Path_18147" data-name="Path 18147" d="M509.128,165.19l-23.316-23.562a12.3,12.3,0,0,1-18.828,14.509l14.141,14.141a8.945,8.945,0,0,1,2.6,7.562c-1.829,12.4-12.3,17.6-19.059,10.759L400,123.86H503.61a5.533,5.533,0,0,1,5.549,5.257Z" transform="translate(150.868 37.896)" fill="#fff"/>
    <circle id="Ellipse_420" data-name="Ellipse 420" cx="38.902" cy="38.902" r="38.902" transform="translate(497.949 177.187)" fill="url(#linear-gradient)"/>
    <path id="Path_18148" data-name="Path 18148" d="M404.237,154.078a9.9,9.9,0,1,1-9.9-9.9A9.9,9.9,0,0,1,404.237,154.078Z" transform="translate(142.512 48.808)" fill="#fff"/>
    <path id="Path_18149" data-name="Path 18149" d="M416.142,177.7H378.7a18.721,18.721,0,1,1,37.442,0Z" transform="translate(139.43 56.756)" fill="#fff"/>
    <rect id="Rectangle_4763" data-name="Rectangle 4763" width="107.837" height="6.148" rx="2" transform="translate(482.932 264.597)" fill="#cbddfe"/>
    <path id="Path_18150" data-name="Path 18150" d="M437.573,205.078H369.944A3.074,3.074,0,0,1,366.87,202h0a3.074,3.074,0,0,1,3.074-3.074h67.629A3.074,3.074,0,0,1,440.647,202h0A3.074,3.074,0,0,1,437.573,205.078Z" transform="translate(133.077 78.209)" fill="#cbddfe"/>
    <rect id="Rectangle_4764" data-name="Rectangle 4764" width="28.143" height="28.143" rx="4.01" transform="translate(421.913 314.381)" fill="#7ba9fa"/>
    <path id="Path_18151" data-name="Path 18151" d="M323.715,233.014a1.983,1.983,0,1,1-.591-1.444A1.983,1.983,0,0,1,323.715,233.014Z" transform="translate(107.773 95.431)" fill="#fff"/>
    <path id="Path_18152" data-name="Path 18152" d="M327.926,233a1.967,1.967,0,1,1-.582-1.4,1.983,1.983,0,0,1,.582,1.4Z" transform="translate(110.034 95.447)" fill="#fff"/>
    <path id="Path_18153" data-name="Path 18153" d="M332.146,233a1.983,1.983,0,1,1-1.983-1.967A1.983,1.983,0,0,1,332.146,233Z" transform="translate(112.3 95.447)" fill="#fff"/>
    <path id="Path_18154" data-name="Path 18154" d="M327.75,242.1v6.394l6.425-7.731H327.75Z" transform="translate(112.069 100.672)" fill="#7ba9fa"/>
    <rect id="Rectangle_4765" data-name="Rectangle 4765" width="192.265" height="24.592" rx="2.86" transform="translate(458.34 316.149)" fill="#cbddfe"/>
    <rect id="Rectangle_4766" data-name="Rectangle 4766" width="36.888" height="11.359" rx="1.89" transform="translate(613.701 348.441)" fill="#7ba9fa"/>
    <path id="Path_18155" data-name="Path 18155" d="M441.974,250.982a5.687,5.687,0,1,1-5.672-5.672,5.687,5.687,0,0,1,5.672,5.672Z" transform="translate(167.301 103.116)" fill="#7ba9fa"/>
    <path id="Path_18156" data-name="Path 18156" d="M431.664,250.982a5.687,5.687,0,1,1-5.672-5.672,5.687,5.687,0,0,1,5.672,5.672Z" transform="translate(161.764 103.116)" fill="#7ba9fa"/>
    <rect id="Rectangle_4767" data-name="Rectangle 4767" width="228.692" height="2.49" transform="translate(421.913 367.239)" fill="#cbddfe"/>
    <rect id="Rectangle_4768" data-name="Rectangle 4768" width="228.692" height="138.377" rx="8.3" transform="translate(421.913 401.268)" fill="#1c4d93"/>
    <rect id="Rectangle_4769" data-name="Rectangle 4769" width="62.633" height="88.639" rx="4.96" transform="translate(578.519 412.135)" fill="#4b74fa"/>
    <circle id="Ellipse_421" data-name="Ellipse 421" cx="19.412" cy="19.412" r="19.412" transform="translate(582.379 457.624) rotate(-45)" fill="url(#linear-gradient-2)"/>
    <path id="Path_18157" data-name="Path 18157" d="M449.181,316.421c0,4.427-8.023,16.031-8.023,16.031s-8.008-11.6-8.008-16.031a8.023,8.023,0,0,1,16.031,0Z" transform="translate(168.67 137.183)" fill="#fff"/>
    <path id="Path_18158" data-name="Path 18158" d="M444.935,315.417a4.872,4.872,0,1,1-4.872-4.857,4.872,4.872,0,0,1,4.872,4.857Z" transform="translate(169.766 138.156)" fill="#ebac3b"/>
    <rect id="Rectangle_4770" data-name="Rectangle 4770" width="62.633" height="88.639" rx="4.96" transform="translate(504.942 412.135)" fill="#4b74fa"/>
    <circle id="Ellipse_422" data-name="Ellipse 422" cx="19.412" cy="19.412" r="19.412" transform="translate(508.803 457.623) rotate(-45)" fill="url(#linear-gradient-2)"/>
    <path id="Path_18159" data-name="Path 18159" d="M387.57,323.528V313.383a.968.968,0,0,1,1.383-.861l10.144,5.011a.968.968,0,0,1,0,1.721l-10.129,5.118a.953.953,0,0,1-1.4-.845Z" transform="translate(144.193 139.16)" fill="#fff"/>
    <rect id="Rectangle_4771" data-name="Rectangle 4771" width="62.633" height="88.639" rx="4.07" transform="translate(397.351 408.801) rotate(-14.03)" fill="#4b74fa"/>
    <path id="Path_18160" data-name="Path 18160" d="M352.326,310.524a19.412,19.412,0,1,1-23.839-13.6A19.412,19.412,0,0,1,352.326,310.524Z" transform="translate(104.785 130.461)" fill="url(#linear-gradient-4)"/>
    <path id="Path_18161" data-name="Path 18161" d="M328.781,318.194l-2.367.646-2.4-8.976a1.245,1.245,0,0,1,.861-1.537h0a1.245,1.245,0,0,1,1.537.861Z" transform="translate(110.039 136.931)" fill="#fff"/>
    <path id="Path_18162" data-name="Path 18162" d="M333.9,320.832l-2.367.646-5.38-19.72a1.214,1.214,0,0,1,.861-1.537h0a1.2,1.2,0,0,1,1.537.861Z" transform="translate(111.18 132.572)" fill="#fff"/>
    <path id="Path_18163" data-name="Path 18163" d="M337.6,318.382l-2.367.646L330.9,303.135a1.23,1.23,0,0,1,.861-1.537h0a1.23,1.23,0,0,1,1.537.861Z" transform="translate(113.732 133.316)" fill="#fff"/>
    <path id="Path_18164" data-name="Path 18164" d="M325.359,321.729l-2.352.646-4.35-15.908a1.23,1.23,0,0,1,.861-1.537h0a1.214,1.214,0,0,1,1.537.845Z" transform="translate(107.159 135.102)" fill="#fff"/>
    <path id="Path_18165" data-name="Path 18165" d="M383.449,354.6H323.767a1.537,1.537,0,0,1-1.537-1.46h0a1.537,1.537,0,0,1,1.537-1.537h59.682a1.537,1.537,0,0,1,1.46,1.46h0A1.537,1.537,0,0,1,383.449,354.6Z" transform="translate(109.105 160.195)" fill="#fff"/>
    <path id="Path_18166" data-name="Path 18166" d="M431.3,354.6H371.637a1.537,1.537,0,0,1-1.537-1.46h0a1.537,1.537,0,0,1,1.537-1.537H431.3a1.537,1.537,0,0,1,1.537,1.46h0A1.537,1.537,0,0,1,431.3,354.6Z" transform="translate(134.812 160.195)" fill="#fff"/>
    <path id="Path_18167" data-name="Path 18167" d="M479.158,354.687H419.537a1.537,1.537,0,0,1-1.537-1.46h0a1.537,1.537,0,0,1,1.537-1.537H479.2a1.537,1.537,0,0,1,1.537,1.46h0a1.537,1.537,0,0,1-1.583,1.537Z" transform="translate(160.535 160.243)" fill="#fff"/>
    <path id="Path_18168" data-name="Path 18168" d="M453.417,273.677H362.426a4.4,4.4,0,0,1-4.4-4.411h0a4.4,4.4,0,0,1,4.4-4.4h90.991a4.4,4.4,0,0,1,4.411,4.4h0a4.4,4.4,0,0,1-4.411,4.411Z" transform="translate(128.33 113.62)" fill="#cbddfe"/>
    <path id="Path_18169" data-name="Path 18169" d="M335.069,361.555l-.338.354-1.322,1.291-.277.292a.092.092,0,0,0,0,.108c.123.768.261,1.537.4,2.321v.384l-.63-.338-1.8-.922a.108.108,0,0,0-.138,0l-2.321,1.245h-.077c.123-.707.231-1.429.354-2.136a1.037,1.037,0,0,1,.077-.476.092.092,0,0,0,0-.123l-2-1.906h0l.538-.077,1.675-.261h.476a.169.169,0,0,0,.138-.092c.369-.784.753-1.537,1.137-2.367h0l.138.277,1.091,2.167a.123.123,0,0,0,.092,0c.876.138,1.752.246,2.644.369Z" transform="translate(111.666 164.088)" fill="#ebac3b"/>
    <path id="Path_18170" data-name="Path 18170" d="M341.537,361.539a3.664,3.664,0,0,1-.338.354l-1.307,1.291-.292.292a.216.216,0,0,0,0,.108l.415,2.321v.384l-.63-.338-1.783-.922a.138.138,0,0,0-.154,0l-2.321,1.245h-.077c.123-.707.246-1.429.354-2.136l.092-.476a.153.153,0,0,0,0-.123l-1.937-1.86h0l.523-.077,1.691-.261h.476a.154.154,0,0,0,.123-.092l1.153-2.367h0a2.5,2.5,0,0,1,.154.277l1.076,2.167a.123.123,0,0,0,.092,0l2.644.369Z" transform="translate(115.189 164.104)" fill="#ebac3b"/>
    <path id="Path_18171" data-name="Path 18171" d="M348.059,361.539a3.649,3.649,0,0,1-.338.354l-1.306,1.291-.277.292v.108l.415,2.321a2.508,2.508,0,0,1,0,.384l-.63-.338-1.783-.922a.139.139,0,0,0-.154,0l-2.305,1.245H341.6c.108-.707.231-1.429.354-2.136v-.476a.123.123,0,0,0,0-.123l-1.937-1.86h0l.523-.077,1.691-.261h.476a.154.154,0,0,0,.123-.092l1.153-2.367h0l.138.277,1.091,2.167a.123.123,0,0,0,.092,0l2.628.369Z" transform="translate(118.658 164.104)" fill="#ebac3b"/>
    <path id="Path_18172" data-name="Path 18172" d="M354.574,361.539l-.338.354-1.322,1.291-.277.292a.092.092,0,0,0,0,.108l.415,2.321v.384l-.63-.338-1.783-.922a.138.138,0,0,0-.154,0l-2.321,1.245h-.077c.123-.707.231-1.429.354-2.136v-.476a.092.092,0,0,0,0-.123l-1.921-1.86h0l.523-.077,1.691-.261h.461c.077,0,.108,0,.138-.092.369-.784.753-1.537,1.137-2.367h0l.138.277,1.091,2.167a.123.123,0,0,0,.092,0c.876.138,1.752.246,2.644.369Z" transform="translate(122.149 164.104)" fill="#ebac3b"/>
    <path id="Path_18173" data-name="Path 18173" d="M361.047,361.539a3.657,3.657,0,0,1-.338.354l-1.307,1.291-.292.292a.216.216,0,0,0,0,.108l.415,2.321v.384l-.63-.338-1.783-.922a.138.138,0,0,0-.154,0l-2.305,1.245h-.092c.123-.707.246-1.429.354-2.136l.092-.476a.153.153,0,0,0,0-.123l-1.937-1.86h0l.523-.077,1.691-.261h.476a.154.154,0,0,0,.123-.092l1.153-2.367h0a2.49,2.49,0,0,1,.154.277c.354.722.722,1.445,1.091,2.167a.108.108,0,0,0,.077,0l2.644.369Z" transform="translate(125.666 164.104)" fill="#4b74fa"/>
    <path id="Path_18174" data-name="Path 18174" d="M382.9,361.539l-.323.354-1.322,1.291-.277.292a.092.092,0,0,0,0,.108c.123.768.261,1.537.4,2.321v.384l-.646-.338-1.783-.922a.108.108,0,0,0-.138,0l-2.321,1.245h-.077c.123-.707.231-1.429.354-2.136a1.037,1.037,0,0,1,.077-.476.092.092,0,0,0,0-.123l-1.937-1.86h0l.538-.077,1.675-.261h.477s.108,0,.123-.092l1.153-2.367h0l.138.277,1.091,2.167a.123.123,0,0,0,.092,0l2.628.369Z" transform="translate(137.395 164.104)" fill="#ebac3b"/>
    <path id="Path_18175" data-name="Path 18175" d="M389.407,361.539a3.665,3.665,0,0,1-.338.354l-1.307,1.291-.292.292a.216.216,0,0,0,0,.108l.415,2.321v.384l-.63-.338-1.783-.922a.138.138,0,0,0-.154,0L383,366.273h-.077c.123-.707.246-1.429.354-2.136l.092-.476a.153.153,0,0,0,0-.123l-1.937-1.86h0l.523-.077,1.691-.261h.461c.077,0,.108,0,.138-.092.384-.784.769-1.537,1.137-2.367h0a2.485,2.485,0,0,1,.154.277l1.076,2.167a.123.123,0,0,0,.092,0c.876.138,1.768.246,2.644.369Z" transform="translate(140.896 164.104)" fill="#ebac3b"/>
    <path id="Path_18176" data-name="Path 18176" d="M395.929,361.539a3.664,3.664,0,0,1-.338.354l-1.307,1.291c-.092.108-.2.184-.277.292s0,.077,0,.108l.415,2.321v.384l-.63-.338-1.783-.922a.139.139,0,0,0-.154,0l-2.305,1.245h-.077c.108-.707.231-1.429.354-2.136v-.476a.123.123,0,0,0,0-.123l-1.937-1.86h0l.523-.077,1.691-.261h.476a.154.154,0,0,0,.123-.092l1.153-2.367h0l.138.277c.354.722.722,1.445,1.091,2.167a.108.108,0,0,0,.092,0l2.628.369Z" transform="translate(144.365 164.104)" fill="#ebac3b"/>
    <path id="Path_18177" data-name="Path 18177" d="M402.428,361.539l-.338.354-1.322,1.291-.277.292a.092.092,0,0,0,0,.108c.123.768.261,1.537.4,2.321a.746.746,0,0,0,.077.384l-.63-.338-1.8-.922a.108.108,0,0,0-.138,0l-2.321,1.245H396c.123-.707.231-1.429.354-2.136v-.476a.092.092,0,0,0,0-.123l-1.937-1.86h0l.538-.077,1.675-.261h.476a.169.169,0,0,0,.138-.092c.369-.784.753-1.537,1.137-2.367h0l.138.277,1.091,2.167a.123.123,0,0,0,.092,0c.876.138,1.752.246,2.644.369Z" transform="translate(147.872 164.104)" fill="#4b74fa"/>
    <path id="Path_18178" data-name="Path 18178" d="M408.917,361.539a3.665,3.665,0,0,1-.338.354l-1.307,1.291-.292.292a.216.216,0,0,0,0,.108l.415,2.321v.384l-.63-.338-1.783-.922a.138.138,0,0,0-.154,0l-2.321,1.245h-.077c.123-.707.246-1.429.354-2.136l.092-.476a.153.153,0,0,0,0-.123l-1.937-1.86h0l.523-.077,1.691-.261h.476a.154.154,0,0,0,.123-.092l1.153-2.367h0a2.481,2.481,0,0,1,.154.277l1.076,2.167a.123.123,0,0,0,.092,0l2.644.369Z" transform="translate(151.373 164.104)" fill="#4b74fa"/>
    <path id="Path_18179" data-name="Path 18179" d="M430.76,361.539a3.665,3.665,0,0,1-.338.354l-1.307,1.291-.277.292v.108l.415,2.321v.384l-.646-.338-1.783-.922a.138.138,0,0,0-.154,0l-2.306,1.245h0c.108-.707.231-1.429.354-2.136a1.037,1.037,0,0,1,.077-.476.123.123,0,0,0,0-.123l-1.937-1.86h0l.538-.077,1.675-.261h.476s.108,0,.123-.092l1.153-2.367h0l.138.277,1.091,2.167a.123.123,0,0,0,.092,0l2.628.369Z" transform="translate(163.144 164.104)" fill="#ebac3b"/>
    <path id="Path_18180" data-name="Path 18180" d="M437.25,361.539l-.338.354-1.306,1.291-.292.292v.108l.415,2.321v.384l-.63-.338-1.783-.922a.139.139,0,0,0-.154,0l-2.321,1.245h0c.123-.707.231-1.429.354-2.136a1.037,1.037,0,0,1,.077-.476.092.092,0,0,0,0-.123l-1.921-1.86h0l.523-.077,1.691-.261h.461c.077,0,.108,0,.138-.092.384-.784.753-1.537,1.137-2.367h0a1.167,1.167,0,0,1,.138.277c.369.722.738,1.445,1.091,2.167a.123.123,0,0,0,.092,0c.876.138,1.768.246,2.644.369Z" transform="translate(166.63 164.104)" fill="#ebac3b"/>
    <path id="Path_18181" data-name="Path 18181" d="M441.834,363.5a.138.138,0,0,0,0,.108l.415,2.321v.384l-.63-.338c-.6-.307-1.2-.6-1.783-.922a.092.092,0,0,0-.108,0h0l-2.305,1.245h-.092c.123-.707.246-1.414.354-2.136l.092-.492v-.108l-1.937-1.86h0l.523-.077,1.691-.246.476-.077a.154.154,0,0,0,.123-.092l1.153-2.367h0a2.317,2.317,0,0,0,.138.277l1.076,2.167a.123.123,0,0,0,.108,0l2.628.369h0l-.338.354c-.446.43-.861.876-1.306,1.291A.476.476,0,0,0,441.834,363.5Z" transform="translate(170.115 164.083)" fill="#4b74fa"/>
    <path id="Path_18182" data-name="Path 18182" d="M450.282,361.539l-.323.354-1.322,1.291-.277.292a.092.092,0,0,0,0,.108c.123.768.261,1.537.4,2.321v.384l-.646-.338-1.783-.922a.108.108,0,0,0-.138,0l-2.321,1.245H443.8c.123-.707.231-1.429.354-2.136a1.037,1.037,0,0,1,.077-.476.092.092,0,0,0,0-.123l-1.937-1.86h0l.538-.077,1.675-.261h.477s.108,0,.123-.092l1.153-2.367h0l.138.277,1.091,2.167a.123.123,0,0,0,.092,0l2.628.369Z" transform="translate(173.579 164.104)" fill="#4b74fa"/>
    <path id="Path_18183" data-name="Path 18183" d="M456.787,361.539a3.664,3.664,0,0,1-.338.354l-1.307,1.291-.292.292a.215.215,0,0,0,0,.108l.415,2.321v.384l-.63-.338-1.783-.922a.139.139,0,0,0-.154,0l-2.321,1.245H450.3c.123-.707.246-1.429.354-2.136l.092-.476a.154.154,0,0,0,0-.123l-1.937-1.86h0l.523-.077,1.691-.261h.461c.077,0,.108,0,.138-.092.384-.784.768-1.537,1.137-2.367h0a2.485,2.485,0,0,1,.154.277l1.076,2.167a.123.123,0,0,0,.092,0c.876.138,1.768.246,2.644.369Z" transform="translate(177.08 164.104)" fill="#4b74fa"/>
    <path id="Path_18184" data-name="Path 18184" d="M448.843,111.445H363.708a2.6,2.6,0,0,1-2.6-2.6h0a2.582,2.582,0,0,1,2.6-2.6h85.135a2.6,2.6,0,0,1,2.6,2.6h0a2.6,2.6,0,0,1-2.6,2.6Z" transform="translate(129.984 28.439)" fill="#383c56"/>
    <path id="Path_18185" data-name="Path 18185" d="M410.567,413.378A14.878,14.878,0,1,1,395.688,398.5a14.878,14.878,0,0,1,14.878,14.878Z" transform="translate(140.563 185.381)" fill="#fff"/>
    <path id="Path_18186" data-name="Path 18186" d="M406.709,412.379a12.019,12.019,0,1,1-12.019-12.019A12.019,12.019,0,0,1,406.709,412.379Z" transform="translate(141.562 186.379)" fill="#384870"/>
    <line id="Line_164" data-name="Line 164" y1="3.843" transform="translate(597.978 176.188)" fill="none" stroke="#ebac3b" stroke-width="1"/>
    <path id="Path_18187" data-name="Path 18187" d="M430.65,141.61V119.876s3.658-16.246,16.246-16.246c10.759,0,103.41.476,130.815.63" transform="translate(167.328 27.032)" fill="none" stroke="#ebac3b" stroke-width="1" stroke-dasharray="4.91 4.91"/>
    <path id="Path_18188" data-name="Path 18188" d="M528.78,104.05h3.843" transform="translate(220.025 27.257)" fill="none" stroke="#ebac3b" stroke-width="1"/>
    <circle id="Ellipse_423" data-name="Ellipse 423" cx="7.024" cy="7.024" r="7.024" transform="translate(590.954 173.007)" fill="url(#linear-gradient-5)"/>
    <path id="Path_18189" data-name="Path 18189" d="M691.965,90.6v60.328a19.628,19.628,0,0,1-19.628,19.628H531.378a19.628,19.628,0,0,1-19.628-19.628V90.6A19.643,19.643,0,0,1,531.378,71H672.352a19.628,19.628,0,0,1,19.612,19.6Z" transform="translate(210.879 9.509)" fill="#4b74fa"/>
    <path id="Path_18190" data-name="Path 18190" d="M691.965,112.92v15.493a19.628,19.628,0,0,1-19.628,19.628H531.378a19.628,19.628,0,0,1-19.628-19.628V112.92Z" transform="translate(210.879 32.021)" fill="#3f6cb1"/>
    <path id="Path_18191" data-name="Path 18191" d="M596.247,134.43H561.9a7.685,7.685,0,0,1-7.685-7.685h0a7.685,7.685,0,0,1,7.685-7.685h34.352a7.685,7.685,0,0,1,7.685,7.685h0A7.685,7.685,0,0,1,596.247,134.43Z" transform="translate(233.681 35.318)" fill="url(#linear-gradient-6)"/>
    <text id="_404" data-name="404" transform="translate(776.855 121.38)" fill="#fff" font-size="35" font-family="Montserrat" font-weight="700"><tspan x="0" y="0">404</tspan></text>
    <path id="Path_18192" data-name="Path 18192" d="M621.989,110.661H547.4A3.673,3.673,0,0,1,543.74,107h0a3.658,3.658,0,0,1,3.658-3.643h74.591A3.643,3.643,0,0,1,625.632,107h0A3.658,3.658,0,0,1,621.989,110.661Z" transform="translate(228.059 26.887)" fill="#cbddfe"/>
    <line id="Line_165" data-name="Line 165" y2="3.843" transform="translate(883.324 525.029)" fill="none" stroke="#ebac3b" stroke-width="1"/>
    <path id="Path_18193" data-name="Path 18193" d="M708.355,367.62V409.7s0,20.319-22.425,20.319H459.7a14.832,14.832,0,0,1-14.817-14.817V397.7" transform="translate(174.969 168.798)" fill="none" stroke="#ebac3b" stroke-width="1" stroke-dasharray="4.91 4.91"/>
    <line id="Line_166" data-name="Line 166" y1="3.843" transform="translate(619.849 558.889)" fill="none" stroke="#ebac3b" stroke-width="1"/>
    <circle id="Ellipse_424" data-name="Ellipse 424" cx="7.024" cy="7.024" r="7.024" transform="translate(612.825 546.255)" fill="url(#linear-gradient-5)"/>
    <path id="Path_18194" data-name="Path 18194" d="M730.05,248.033V417.1a17.568,17.568,0,0,1-15.124,17.414,15.918,15.918,0,0,1-2.444.169H579.853a16.111,16.111,0,0,1-2.459-.169A17.568,17.568,0,0,1,562.27,417.1V248.033a17.583,17.583,0,0,1,17.583-17.583H712.482A17.583,17.583,0,0,1,730.05,248.033Z" transform="translate(238.009 95.136)" fill="#4b74fa"/>
    <path id="Path_18195" data-name="Path 18195" d="M730.05,300.72v78.587a17.568,17.568,0,0,1-15.124,17.414H577.394a17.568,17.568,0,0,1-15.124-17.414V300.72Z" transform="translate(238.009 132.872)" fill="#3f6cb1"/>
    <rect id="Rectangle_4772" data-name="Rectangle 4772" width="37.964" height="67.167" rx="2.55" transform="translate(919.613 360.507)" fill="#3f6cb1"/>
    <path id="Path_18196" data-name="Path 18196" d="M669.47,257.166v59.175a4.012,4.012,0,0,1-4.011,4H574.191a3.981,3.981,0,0,1-3.981-4V257.166a3.981,3.981,0,0,1,3.981-4h91.268a4.012,4.012,0,0,1,4.011,4Z" transform="translate(242.273 107.337)" fill="#fff"/>
    <path id="Path_18197" data-name="Path 18197" d="M669.47,288v9.7a4.012,4.012,0,0,1-4.011,4H574.191a3.981,3.981,0,0,1-3.981-4V288Z" transform="translate(242.273 126.041)" fill="#3f6cb1"/>
    <rect id="Rectangle_4773" data-name="Rectangle 4773" width="144.833" height="6.21" rx="2.02" transform="translate(812.745 341.11)" fill="#cbddfe"/>
    <rect id="Rectangle_4774" data-name="Rectangle 4774" width="144.833" height="14.371" rx="2.7" transform="translate(812.745 443.89)" fill="#cbddfe"/>
    <rect id="Rectangle_4775" data-name="Rectangle 4775" width="119.979" height="7.178" rx="2.34" transform="translate(837.598 479.917)" fill="#cbddfe"/>
    <rect id="Rectangle_4776" data-name="Rectangle 4776" width="15.693" height="15.693" rx="2.18" transform="translate(812.745 475.66)" fill="url(#linear-gradient-8)"/>
    <path id="Path_18198" data-name="Path 18198" d="M658.144,351.438h-68a3.581,3.581,0,0,1-3.6-3.581h0a3.6,3.6,0,0,1,3.6-3.6h68a3.6,3.6,0,0,1,3.6,3.6h0a3.581,3.581,0,0,1-3.6,3.581Z" transform="translate(251.048 156.253)" fill="#cbddfe"/>
    <rect id="Rectangle_4777" data-name="Rectangle 4777" width="15.693" height="15.693" rx="2.18" transform="translate(812.745 496.256)" fill="url(#linear-gradient-9)"/>
    <rect id="Rectangle_4778" data-name="Rectangle 4778" width="27.405" height="8.438" rx="2.74" transform="translate(930.172 464.209)" fill="url(#linear-gradient-10)"/>
    <rect id="Rectangle_4779" data-name="Rectangle 4779" width="27.343" height="11.743" rx="2.05" transform="translate(924.916 364.826)" fill="#cbddfe"/>
    <rect id="Rectangle_4780" data-name="Rectangle 4780" width="27.343" height="11.743" rx="2.05" transform="translate(924.916 380.426)" fill="#cbddfe"/>
    <rect id="Rectangle_4781" data-name="Rectangle 4781" width="27.343" height="11.743" rx="2.05" transform="translate(924.916 396.012)" fill="#cbddfe"/>
    <rect id="Rectangle_4782" data-name="Rectangle 4782" width="27.343" height="11.743" rx="2.05" transform="translate(924.916 411.612)" fill="#cbddfe"/>
    <path id="Path_18199" data-name="Path 18199" d="M658.071,293.1H579.684a.984.984,0,0,1-.984-.984h0a.984.984,0,0,1,.984-.968h78.388a.984.984,0,0,1,.984.968h0A.984.984,0,0,1,658.071,293.1Z" transform="translate(246.832 127.732)" fill="#cbddfe"/>
    <path id="Path_18200" data-name="Path 18200" d="M621.945,293.1H579.724a.984.984,0,0,1-.984-.984h0a.984.984,0,0,1,.984-.968h42.222a.984.984,0,0,1,.984.969h0a.984.984,0,0,1-.984.984Z" transform="translate(246.854 127.732)" fill="url(#linear-gradient-11)"/>
    <path id="Path_18201" data-name="Path 18201" d="M578.086,293.1h-5.272a.984.984,0,0,1-.984-.984h0a.984.984,0,0,1,.984-.968h5.272a.968.968,0,0,1,.968.968h0a.984.984,0,0,1-.968.984Z" transform="translate(243.143 127.732)" fill="#cbddfe"/>
    <circle id="Ellipse_425" data-name="Ellipse 425" cx="3.75" cy="3.75" r="3.75" transform="translate(866.033 415.685)" fill="#fff"/>
    <circle id="Ellipse_426" data-name="Ellipse 426" cx="14.125" cy="14.125" r="14.125" transform="translate(847.973 371.911)" fill="#3f6cb1"/>
    <rect id="Rectangle_4783" data-name="Rectangle 4783" width="3.059" height="12.327" rx="0.67" transform="translate(857.487 379.873)" fill="#fff"/>
    <rect id="Rectangle_4784" data-name="Rectangle 4784" width="3.059" height="12.327" rx="0.67" transform="translate(863.666 379.873)" fill="#fff"/>
    <path id="Path_18202" data-name="Path 18202" d="M474.222,177.39l-1,1.014-7.516-7.516a1.783,1.783,0,0,0-2.536,0L450.229,183.83a3.212,3.212,0,0,1-4.611,0l-4.611-4.611a3.212,3.212,0,0,1,0-4.534l4.611-4.611,1,1-4.611,4.611a1.783,1.783,0,0,0,0,2.536l4.611,4.611a1.783,1.783,0,0,0,2.536,0l12.957-12.942a3.2,3.2,0,0,1,4.534,0Z" transform="translate(172.387 62.108)" fill="#fff"/>
    <rect id="Rectangle_4785" data-name="Rectangle 4785" width="7.562" height="17.322" transform="translate(643.027 242.311) rotate(-45)" fill="#ebac3b"/>
    <path id="Path_18203" data-name="Path 18203" d="M470.644,159.877a6.148,6.148,0,0,1-1.768,4.3l-1.537,1.537-5.072,5.057-5.134,5.134-5.057,5.057-.646.646c-3.289,3.289-9.406,2.013-10.5-3.812a4.826,4.826,0,0,1,1.414-4.288l17.937-17.891a6.071,6.071,0,0,1,10.359,4.273Z" transform="translate(172.814 53.998)" fill="#4361b7"/>
    <path id="Path_18204" data-name="Path 18204" d="M460.839,159.266a3.643,3.643,0,0,0-2.567-1.076,3.858,3.858,0,0,0-3.781,3.8,2.767,2.767,0,0,0,.738,1.952l3.6,3.6a3.627,3.627,0,0,0-5.011,4.965l-1.721-1.721a3.627,3.627,0,0,0-2.567-1.061,3.843,3.843,0,0,0-3.766,3.858,2.506,2.506,0,0,0,.738,1.906l3.074,3.074,5.041-5.057.092-.092,4.965-4.965.077-.077,5.072-5.057Z" transform="translate(175.441 56.331)" fill="#5d95e8"/>
    <rect id="Rectangle_4786" data-name="Rectangle 4786" width="12.173" height="45.157" transform="translate(731.206 254.13)" fill="#f1cbc2"/>
    <path id="Path_18205" data-name="Path 18205" d="M550.047,178.95a11.5,11.5,0,0,0-11.5-11.5H515.372c-6.348,0-11.5-1.706-11.5,4.611v22.21h0s-7.347,23.055,17.445,22.671c4.242,0,12.849-.461,15.954-2.029a23.055,23.055,0,0,0,12.742-20.335h0Z" transform="translate(206.104 61.193)" fill="#f1cbc2"/>
    <path id="Path_18206" data-name="Path 18206" d="M551.594,181.681v18.075A23.055,23.055,0,0,1,538.837,220.4V178.638H505.668c-4.888-.984-12.3-15.124,5.871-21.518,0,0-1.03,8.115,4.1,8.315s23.194,0,23.194,0S551.594,163.652,551.594,181.681Z" transform="translate(204.542 55.757)" fill="#383c56"/>
    <rect id="Rectangle_4787" data-name="Rectangle 4787" width="19.505" height="20.319" transform="translate(727.994 233.288)" fill="#383c56"/>
    <path id="Path_18207" data-name="Path 18207" d="M533.155,186.2a7.362,7.362,0,0,1-3.781,6.44,7.285,7.285,0,0,1-3.6.938,7.378,7.378,0,1,1,7.378-7.378Z" transform="translate(214.451 67.41)" fill="#f1cbc2"/>
    <path id="Path_18208" data-name="Path 18208" d="M509.566,182.509c0,2.044-.738,3.689-1.629,3.689s-1.537-1.645-1.537-3.689.722-3.689,1.537-3.689S509.566,180.465,509.566,182.509Z" transform="translate(208.006 67.41)" fill="#383c56"/>
    <path id="Path_18209" data-name="Path 18209" d="M512.051,192.421a7.931,7.931,0,0,1-4.319,4.365.707.707,0,0,1-.8-.246,11.267,11.267,0,0,1-2.06-5.011.722.722,0,0,1,.707-.83h5.349a1.23,1.23,0,0,1,1.122,1.721Z" transform="translate(207.182 73.79)" fill="#fff"/>
    <path id="Path_18210" data-name="Path 18210" d="M505.914,180.77a42.874,42.874,0,0,1-4.042,7.178c-3.735,4.365,5.1,3.7,5.1,3.7Z" transform="translate(205.08 68.457)" fill="#f1cbc2"/>
    <path id="Path_18211" data-name="Path 18211" d="M563.614,408.952,540.3,420.234l-24.715-59.513L511.14,272.85h29.772l.461,84.028Z" transform="translate(210.552 117.905)" fill="#4361b7"/>
    <path id="Path_18212" data-name="Path 18212" d="M532.564,427.228h-27.1a843.569,843.569,0,0,1,0-154.377H541.2l-13.833,82.768Z" transform="translate(205.605 117.905)" fill="#5d95e8"/>
    <path id="Path_18213" data-name="Path 18213" d="M510.674,372.86v3.966s-18.444-.261-18.444,13.664h45.157V372.86Z" transform="translate(200.397 171.612)" fill="#383c56"/>
    <path id="Path_18214" data-name="Path 18214" d="M534.075,372.94l1.445,3.7s-17.245,6.471-12.173,19.428L540.5,389.34l24.884-9.745-4.98-12.711-1.445-3.7Z" transform="translate(216.605 166.413)" fill="#383c56"/>
    <path id="Path_18215" data-name="Path 18215" d="M557.429,365.095l-26.314,10.621a2.736,2.736,0,0,1-3.566-1.537h0a2.751,2.751,0,0,1,1.537-3.581l26.3-10.529a2.736,2.736,0,0,1,3.566,1.537h0A2.736,2.736,0,0,1,557.429,365.095Z" transform="translate(219.258 164.637)" fill="#4361b7"/>
    <path id="Path_18216" data-name="Path 18216" d="M533.055,375.8H504.666a2.736,2.736,0,0,1-2.736-2.736h0a2.751,2.751,0,0,1,2.736-2.751h28.389a2.751,2.751,0,0,1,2.8,2.751h0a2.736,2.736,0,0,1-2.8,2.736Z" transform="translate(205.606 170.242)" fill="#5d95e8"/>
    <path id="Path_18217" data-name="Path 18217" d="M564.585,253.043a7.27,7.27,0,0,1-.968,7.547l-32.784,33.568a5.61,5.61,0,0,1-8.131.907c-2.613-2.09-2.459-5.364-.369-7.977l25.637-30.218-20.688-32.508c-3.074-2.674-2-9.222.676-12.3s8.915-2.505,11.912.169C539.869,212.267,564.17,252.167,564.585,253.043Z" transform="translate(215.714 84.147)" fill="#e5b7ae"/>
    <path id="Path_18218" data-name="Path 18218" d="M542.383,214.233l15.37,25.376a1.445,1.445,0,0,1-.492,1.967l-19.628,11.789a1.537,1.537,0,0,1-1.983-.492l-15.37-25.361a11.389,11.389,0,0,1,3.858-15.616l3.074-5.841C534.974,205.165,539.171,208.869,542.383,214.233Z" transform="translate(214.584 81.965)" fill="#383c56"/>
    <path id="Path_18219" data-name="Path 18219" d="M545.988,322H502.675A3.627,3.627,0,0,1,499,318.174l8.161-87.748c0-13.987,14-27.436,19.612-27.436h11.835c6.148,0,13.833,9.914,13.833,30.264l-2.721,85.166A3.627,3.627,0,0,1,545.988,322Z" transform="translate(204.031 80.389)" fill="#383c56"/>
    <path id="Path_18220" data-name="Path 18220" d="M493.547,244.416a7.777,7.777,0,0,1-6.947-4.273L468.263,193.3a6.025,6.025,0,0,1,2.69-8.361c3.2-1.629,6.333,0,7.962,3.166l18.244,38.425,37.688-5.795c3.935-1.752,9.929,2.121,11.681,6.056s-1.537,9.837-5.41,11.574C541.118,238.391,494.608,244.416,493.547,244.416Z" transform="translate(187.122 70.349)" fill="#f1cbc2"/>
    <path id="Path_18221" data-name="Path 18221" d="M526.94,230.569l-26.79,4.088a1.4,1.4,0,0,1-1.537-1.168L495.324,211.8a1.383,1.383,0,0,1,1.153-1.537l26.79-4.073a12.3,12.3,0,0,1,14.079,10.359h0a12.3,12.3,0,0,1-10.406,14.017Z" transform="translate(202.053 82.029)" fill="#383c56"/>
    <path id="Path_18222" data-name="Path 18222" d="M463.488,179.475l7.547,1.23a1.322,1.322,0,0,0,1.137-2.259h0a1.322,1.322,0,0,1,.922-2.275,7.347,7.347,0,0,1,6.625,4.088,25.53,25.53,0,0,1,2.751,12.2l-10.621,5.2s-15.478-4.365-9.745-17.414a1.307,1.307,0,0,1,1.383-.768Z" transform="translate(183.535 65.987)" fill="#f1cbc2"/>
    <rect id="Rectangle_4788" data-name="Rectangle 4788" width="84.213" height="63.248" transform="translate(690.829 562.101)" fill="#cbddfe"/>
    <rect id="Rectangle_4789" data-name="Rectangle 4789" width="47.14" height="63.248" transform="translate(727.886 562.101)" fill="#7ba9fa"/>
    <path id="Path_18223" data-name="Path 18223" d="M351.588,270.179a7.024,7.024,0,1,1-7.024-7.009,7.024,7.024,0,0,1,7.024,7.009Z" transform="translate(117.327 112.707)" fill="url(#linear-gradient-12)"/>
    <line id="Line_167" data-name="Line 167" x1="3.843" transform="translate(458.356 382.424)" fill="none" stroke="#ebac3b" stroke-width="1"/>
    <path id="Path_18224" data-name="Path 18224" d="M420.686,267.43H189.611a14.817,14.817,0,0,0-14.8,14.817v4.872" transform="translate(29.939 114.994)" fill="none" stroke="#ebac3b" stroke-width="1" stroke-dasharray="5.03 5.03"/>
    <line id="Line_168" data-name="Line 168" y2="3.843" transform="translate(204.749 405.987)" fill="none" stroke="#ebac3b" stroke-width="1"/>
    <path id="Path_18225" data-name="Path 18225" d="M289.945,288.361V408a9.13,9.13,0,0,1-9.13,9.222H128.19A9.13,9.13,0,0,1,119.06,408V288.422a9.13,9.13,0,0,1,9.13-9.222H280.815a9.13,9.13,0,0,1,9.13,9.161Z" transform="translate(0 121.315)" fill="#4b74fa"/>
    <path id="Path_18226" data-name="Path 18226" d="M289.945,344.65v28.2a9.13,9.13,0,0,1-9.13,9.222H128.19a9.13,9.13,0,0,1-9.13-9.222v-28.2Z" transform="translate(0 156.463)" fill="#3f6cb1"/>
    <path id="Path_18227" data-name="Path 18227" d="M207.286,367.781H167.478a8.838,8.838,0,0,1-8.838-8.838h0a8.838,8.838,0,0,1,8.838-8.853h39.809a8.838,8.838,0,0,1,8.838,8.838h0a8.838,8.838,0,0,1-8.838,8.853Z" transform="translate(21.255 159.384)" fill="url(#linear-gradient-13)"/>
    <rect id="Rectangle_4790" data-name="Rectangle 4790" width="82.107" height="6.824" rx="2.22" transform="translate(161.789 419.282)" fill="#fff"/>
    <rect id="Rectangle_4791" data-name="Rectangle 4791" width="33.845" height="6.348" rx="2.06" transform="translate(136.751 445.35)" fill="#cbddfe"/>
    <path id="Path_18228" data-name="Path 18228" d="M237.235,310.591c0,.476-.6.861-1.322.861H169.192c-.722,0-1.322-.384-1.322-.861s.6-.861,1.322-.861h66.722C236.636,309.73,237.235,310.145,237.235,310.591Z" transform="translate(26.212 137.71)" fill="#fff"/>
    <path id="Path_18229" data-name="Path 18229" d="M167.925,310.17l-3.458,1.184,3.458,1.183v1.937l-5.825-2.029v-2.029l5.825-2.106Z" transform="translate(23.113 136.948)" fill="#cbddfe"/>
    <path id="Path_18230" data-name="Path 18230" d="M215,308.26l5.825,2.106v2.106L215,314.5v-1.937l3.458-1.184L215,310.2Z" transform="translate(51.521 136.921)" fill="#cbddfe"/>
    <path id="Path_18231" data-name="Path 18231" d="M194.463,311.112a3.182,3.182,0,1,1-3.182-3.182A3.182,3.182,0,0,1,194.463,311.112Z" transform="translate(37.075 136.743)" fill="url(#linear-gradient)"/>
    <rect id="Rectangle_4792" data-name="Rectangle 4792" width="23.332" height="6.348" rx="2.06" transform="translate(136.751 460.797)" fill="#cbddfe"/>
    <path id="Path_18232" data-name="Path 18232" d="M237.235,320.651c0,.476-.6.861-1.322.861H169.192c-.722,0-1.322-.384-1.322-.861s.6-.861,1.322-.861h66.722C236.636,319.79,237.235,320.113,237.235,320.651Z" transform="translate(26.212 143.112)" fill="#fff"/>
    <path id="Path_18233" data-name="Path 18233" d="M167.925,320.267l-3.458,1.184,3.458,1.183v1.937L162.1,322.45v-2.029l5.825-2.121Z" transform="translate(23.113 142.312)" fill="#cbddfe"/>
    <path id="Path_18234" data-name="Path 18234" d="M215,318.31l5.825,2.121v2.013L215,324.566v-1.937l3.458-1.184L215,320.262Z" transform="translate(51.521 142.318)" fill="#cbddfe"/>
    <path id="Path_18235" data-name="Path 18235" d="M206.693,321.166A3.182,3.182,0,1,1,203.512,318a3.182,3.182,0,0,1,3.182,3.166Z" transform="translate(43.643 142.151)" fill="url(#linear-gradient-15)"/>
    <rect id="Rectangle_4793" data-name="Rectangle 4793" width="38.103" height="6.348" rx="2.06" transform="translate(136.751 476.259)" fill="#cbddfe"/>
    <path id="Path_18236" data-name="Path 18236" d="M237.235,330.7c0,.476-.6.861-1.322.861H169.192c-.722,0-1.322-.384-1.322-.861s.6-.861,1.322-.861h66.722C236.636,329.84,237.235,330.24,237.235,330.7Z" transform="translate(26.212 148.509)" fill="#fff"/>
    <path id="Path_18237" data-name="Path 18237" d="M167.925,330.307l-3.458,1.183,3.458,1.2v1.937L162.1,332.5v-2.029l5.825-2.106Z" transform="translate(23.113 147.72)" fill="#cbddfe"/>
    <path id="Path_18238" data-name="Path 18238" d="M215,328.37l5.825,2.106V332.5L215,334.626v-1.937l3.458-1.2L215,330.307Z" transform="translate(51.521 147.72)" fill="#cbddfe"/>
    <path id="Path_18239" data-name="Path 18239" d="M184.223,331.232a3.182,3.182,0,1,1-3.182-3.182,3.182,3.182,0,0,1,3.182,3.182Z" transform="translate(31.576 147.548)" fill="url(#linear-gradient-16)"/>
    <rect id="Rectangle_4794" data-name="Rectangle 4794" width="11.098" height="41.151" transform="translate(345.845 379.096) rotate(-164.995)" fill="#f1cbc2"/>
    <path id="Path_18240" data-name="Path 18240" d="M265.972,332.8l2.259,53.427a7.9,7.9,0,0,1-1.307,4.611l-38.886,58.729a7.854,7.854,0,0,0,3.658,11.651h0c3.212,1.26,4.719-.646,6.87-3.335l51.92-61.035a7.809,7.809,0,0,0,1.721-4.319l4.411-57.961a7.854,7.854,0,0,0-7.009-8.407l-14.97-1.537a7.854,7.854,0,0,0-8.669,8.177Z" transform="translate(57.818 145.686)" fill="#e5b7ae"/>
    <path id="Path_18241" data-name="Path 18241" d="M244.711,414.073s11.635,9.591,16.569,18.075a2.367,2.367,0,0,1-2.92,3.381l-12.2-4.611-15.57-9.683-1.429,3.151-7.946-3.074c1.153-6.44,5.088-11.359,10.129-15.662Z" transform="translate(54.856 189.22)" fill="#383c56"/>
    <path id="Path_18242" data-name="Path 18242" d="M253.769,339.3l21.257,49.031a7.777,7.777,0,0,1,.461,4.826L260.24,461.94a7.869,7.869,0,0,0,7.608,9.56h0c3.443,0,4.15-2.29,5.211-5.579l26.59-75.59a7.963,7.963,0,0,0,0-4.611l-16.661-55.7a7.854,7.854,0,0,0-9.56-5.333l-14.54,3.9a7.854,7.854,0,0,0-5.118,10.713Z" transform="translate(71.989 145.596)" fill="#f1cbc2"/>
    <path id="Path_18243" data-name="Path 18243" d="M274.848,416.64s14.31,4.78,21.949,10.944a2.367,2.367,0,0,1-1.537,4.2H282.18l-18-3.458-.215,3.458h-8.515c-1.23-6.425.692-12.434,3.843-18.26Z" transform="translate(73.042 193.447)" fill="#383c56"/>
    <path id="Path_18244" data-name="Path 18244" d="M288.007,316.525c8.331,23.24,14.094,44.573,16.231,63.018.815,3.166-.538,6.348-3.074,7.132a124.824,124.824,0,0,1-48.078,6.056c-2.659-.2-4.811-3.074-4.749-6.455-4.1-28.02-6.148-56.869,0-76.205Z" transform="translate(67.338 137.893)" fill="#383c56"/>
    <path id="Path_18245" data-name="Path 18245" d="M257.467,254.4s-14.817,20.381,0,49.523L245.078,336.2a4.734,4.734,0,0,0,3.9,6.609l39.3,5.533a2.49,2.49,0,0,0,2.92-2.367l-.338-48.723s8.438-3,9.222-10.1c1.245-11.9-18.352-29.449-18.352-29.449Z" transform="translate(67.461 107.997)" stroke="#707070" stroke-width="1" fill="url(#linear-gradient-17)"/>
    <path id="Path_18246" data-name="Path 18246" d="M327.508,336.838a6.146,6.146,0,0,1-2.459-.507l-44.2-17a6.148,6.148,0,0,1-3.243-3.258L252.41,271.5c-1.322-3.151,0-13.018,2.843-14.832a8.208,8.208,0,0,1,11.589,3.074l19.6,46.31,43.528,18.859a6.148,6.148,0,0,1-2.459,11.866Z" transform="translate(71.334 108.543)" fill="#f1cbc2"/>
    <path id="Path_18247" data-name="Path 18247" d="M312.818,317.154l-1.184-7.193a1.26,1.26,0,0,1,2.152-1.091h0a1.26,1.26,0,0,0,2.167-.876,6.978,6.978,0,0,0-3.889-6.317,24.147,24.147,0,0,0-11.635-2.613l-4.949,10.16s4.165,14.74,16.6,9.222a1.276,1.276,0,0,0,.738-1.291Z" transform="translate(94.74 131.977)" fill="#f1cbc2"/>
    <path id="Path_18248" data-name="Path 18248" d="M298.353,254.941h0a23.717,23.717,0,0,1-1.967,9.868c-.184.4-.4.784-.615,1.168-2.644,4.611-7.962,8.208-18.629,5.134-3.812-1.107-11.451-3.55-13.833-5.7a21.518,21.518,0,0,1-6.5-21.411h0l3.827-14.094a10.759,10.759,0,0,1,13.126-7.547l20.842,5.625c5.718,1.537,10.759,1.245,9.222,6.963Z" transform="translate(73.607 90.596)" fill="#f1cbc2"/>
    <path id="Path_18249" data-name="Path 18249" d="M288.156,249.513c2.813-2.736,6.717-7.439,7.562-13.08,0,0,10.544,11.143,15.293,11.143s9.714-11.866,5.487-20.089-20.78-8.715-20.78-8.715-16.907-10.406-26.467-1.414c-17.891,16.784,1.983,31.693-17.691,46.541-15.662,11.82-8.715,32.923,14.663,32.907,13.188,0,17.261-13.618,18.828-40.377a10.252,10.252,0,0,1,3.1-6.917Z" transform="translate(66.636 86.14)" fill="#383c56"/>
    <path id="Path_18250" data-name="Path 18250" d="M280.088,240.029c-.492,1.829-.246,3.5.569,3.72s1.844-1.091,2.352-2.936.246-3.489-.569-3.7S280.642,238.154,280.088,240.029Z" transform="translate(86.339 98.699)" fill="#383c56"/>
    <path id="Path_18251" data-name="Path 18251" d="M281.57,237.07l2.767.984-2.4.984Z" transform="translate(87.27 98.691)" fill="#383c56"/>
    <path id="Path_18252" data-name="Path 18252" d="M285.257,239.6a39.534,39.534,0,0,0,1.891,7.455c2.29,4.842-5.487,2.09-5.487,2.09Z" transform="translate(87.318 100.049)" fill="#f1cbc2"/>
    <path id="Path_18253" data-name="Path 18253" d="M284.543,251.235c-.184.4-.4.784-.615,1.168-2.259-.231-5.134-1.306-5.733-4.38a.584.584,0,0,1,.461-.707.6.6,0,0,1,.722.461C279.948,250.666,283.006,251.173,284.543,251.235Z" transform="translate(85.45 104.184)" fill="#ca7e86"/>
    <rect id="Rectangle_4795" data-name="Rectangle 4795" width="66.891" height="59.344" rx="5.47" transform="translate(202.571 292.189) rotate(-0.42)" fill="#4b74fa"/>
    <path id="Path_18254" data-name="Path 18254" d="M226.826,233.344a23.486,23.486,0,1,1-21.272-20.673A23.486,23.486,0,0,1,226.826,233.344Z" transform="translate(32.732 85.54)" fill="#fff"/>
    <path id="Path_18255" data-name="Path 18255" d="M214.527,224.784l-12.665,8.884a2.721,2.721,0,0,1-3.166,0L186,224.784v-.323a2.428,2.428,0,0,1,2.567-2.29h23.363a2.428,2.428,0,0,1,2.567,2.29Z" transform="translate(35.948 90.688)" fill="#3f6cb1"/>
    <path id="Path_18256" data-name="Path 18256" d="M198.7,234.519l-12.7-8.9v13.065a2.89,2.89,0,0,0,3.074,2.705H211.5a2.874,2.874,0,0,0,3.074-2.705V225.62l-12.665,8.9A2.782,2.782,0,0,1,198.7,234.519Z" transform="translate(35.948 92.542)" fill="#3f6cb1"/>
    <rect id="Rectangle_4796" data-name="Rectangle 4796" width="47.063" height="41.761" rx="5.47" transform="translate(332.589 89.495) rotate(-0.42)" fill="#4b74fa"/>
    <path id="Path_18257" data-name="Path 18257" d="M294.876,95.632A15.923,15.923,0,1,1,278.722,80,15.923,15.923,0,0,1,294.876,95.632Z" transform="translate(77.315 14.342)" fill="#fff"/>
    <path id="Path_18258" data-name="Path 18258" d="M286.932,92.743l-9.022-10.3a1.214,1.214,0,0,0-1.829,0l-9.053,10.3a1.23,1.23,0,0,0,.922,2.044h1.061v9.837h5.426V97h5.088v7.593h5.426V94.757h1.061a1.23,1.23,0,0,0,.922-2.013Z" transform="translate(79.295 15.432)" fill="#3f6cb1"/>
    <rect id="Rectangle_4797" data-name="Rectangle 4797" width="55.379" height="49.138" rx="5.47" transform="translate(791.994 241.238) rotate(-0.42)" fill="#7ba9fa"/>
    <path id="Path_18259" data-name="Path 18259" d="M600.292,197.695a18.736,18.736,0,1,1-19.013-18.444,18.736,18.736,0,0,1,19.013,18.444Z" transform="translate(238.305 67.64)" fill="#fff"/>
    <path id="Path_18260" data-name="Path 18260" d="M587.993,194.432a1.783,1.783,0,0,1-1.706.968h-.108a1.783,1.783,0,0,1,1.383,1.86,1.875,1.875,0,0,1-1.66,1.691H585.6a1.845,1.845,0,0,1,1.291,1.752,1.429,1.429,0,0,1-.354.876,2.69,2.69,0,0,1-1.537.845l-.415.077h.092a1.752,1.752,0,0,1,1.337,1.429,1.445,1.445,0,0,1-.676,1.537,4,4,0,0,1-.722.369,3.35,3.35,0,0,1-1.276.231H571.47V192.31a10.9,10.9,0,0,0,2.106-1.291,11.141,11.141,0,0,0,2.751-3,5.241,5.241,0,0,0,.861-2.92,3.8,3.8,0,0,1,.261-1.168,1.768,1.768,0,0,1,2.229-1.061,1.875,1.875,0,0,1,1.168.938,3.3,3.3,0,0,1,.461,1.706,14.035,14.035,0,0,1-.815,4.227,7.424,7.424,0,0,1-.769,1.537,1.142,1.142,0,0,0-.123.2h6.763a2.014,2.014,0,0,1,1.2.369,1.706,1.706,0,0,1,.43,2.582Z" transform="translate(242.95 69.535)" fill="#4361b7"/>
    <path id="Path_18261" data-name="Path 18261" d="M569.245,189.14h2.844v13.833h-2.844a1.614,1.614,0,0,1-1.614-1.614V190.831a1.614,1.614,0,0,1,1.614-1.691Z" transform="translate(240.887 72.952)" fill="#4361b7"/>
    <circle id="Ellipse_427" data-name="Ellipse 427" cx="7.024" cy="7.024" r="7.024" transform="translate(433.994 271.16)" fill="url(#linear-gradient-5)"/>
    <line id="Line_169" data-name="Line 169" x1="3.843" transform="translate(437.176 277.923)" fill="none" stroke="#ebac3b" stroke-width="1"/>
    <path id="Path_18262" data-name="Path 18262" d="M367.834,206.351H248.977a14.817,14.817,0,0,1-14.817-14.8v-4.98" transform="translate(61.81 71.572)" fill="none" stroke="#ebac3b" stroke-width="1" stroke-dasharray="4.91 4.91"/>
    <line id="Line_170" data-name="Line 170" y1="3.843" transform="translate(295.97 250.518)" fill="none" stroke="#ebac3b" stroke-width="1"/>
    <path id="Path_18263" data-name="Path 18263" d="M350.619,142.507V205.4a10.052,10.052,0,0,1-10.037,10.052H188.772a10.052,10.052,0,0,1-10.052-10.067V142.507a10.037,10.037,0,0,1,10.037-10.037h151.78a10.037,10.037,0,0,1,10.083,10.037Z" transform="translate(32.038 42.519)" fill="#4b74fa"/>
    <path id="Path_18264" data-name="Path 18264" d="M350.619,175.59v7.255a9.483,9.483,0,0,1-9.483,9.483H188.2a9.5,9.5,0,0,1-9.483-9.5V175.59Z" transform="translate(32.038 65.675)" fill="#3f6cb1"/>
    <path id="Path_18265" data-name="Path 18265" d="M190.68,187.438h0a1.66,1.66,0,0,1-1.66-1.66V139.76a1.66,1.66,0,0,1,1.66-1.66h0a1.675,1.675,0,0,1,1.66,1.66v46.018A1.66,1.66,0,0,1,190.68,187.438Z" transform="translate(37.57 45.543)" fill="#fff"/>
    <path id="Path_18266" data-name="Path 18266" d="M199.19,158.09a6.64,6.64,0,1,1-6.64-6.64,6.64,6.64,0,0,1,6.64,6.64Z" transform="translate(35.899 52.712)" fill="url(#linear-gradient-19)"/>
    <rect id="Rectangle_4798" data-name="Rectangle 4798" width="128.955" height="49.338" rx="5.64" transform="translate(244.419 183.643)" fill="#cbddfe"/>
    <rect id="Rectangle_4799" data-name="Rectangle 4799" width="4.442" height="24.254" rx="1.45" transform="translate(251.781 204.162)" fill="#3f6cb1"/>
    <rect id="Rectangle_4800" data-name="Rectangle 4800" width="4.442" height="38.963" rx="1.45" transform="translate(261.787 189.453)" fill="#3f6cb1"/>
    <path id="Path_18267" data-name="Path 18267" d="M220.669,172.788h0a2.229,2.229,0,0,1-2.229-2.229V159.109a2.229,2.229,0,0,1,2.229-2.229h0a2.229,2.229,0,0,1,2.213,2.229v11.451a2.229,2.229,0,0,1-2.213,2.229Z" transform="translate(53.368 55.628)" fill="#3f6cb1"/>
    <rect id="Rectangle_4801" data-name="Rectangle 4801" width="4.442" height="26.129" rx="1.45" transform="translate(281.814 202.287)" fill="#3f6cb1"/>
    <rect id="Rectangle_4802" data-name="Rectangle 4802" width="4.442" height="38.963" rx="1.45" transform="translate(291.82 189.453)" fill="#3f6cb1"/>
    <rect id="Rectangle_4803" data-name="Rectangle 4803" width="4.442" height="21.395" rx="1.45" transform="translate(301.842 207.021)" fill="#3f6cb1"/>
    <rect id="Rectangle_4804" data-name="Rectangle 4804" width="4.442" height="34.475" rx="1.45" transform="translate(311.848 193.941)" fill="#3f6cb1"/>
    <path id="Path_18268" data-name="Path 18268" d="M253.223,180.843h0a2.213,2.213,0,0,1-2.213-2.229V144.109a2.213,2.213,0,0,1,2.213-2.229h0a2.229,2.229,0,0,1,2.229,2.229v34.506a2.229,2.229,0,0,1-2.229,2.229Z" transform="translate(70.859 47.573)" fill="#3f6cb1"/>
    <rect id="Rectangle_4805" data-name="Rectangle 4805" width="4.442" height="15.908" rx="1.45" transform="translate(331.875 212.508)" fill="#3f6cb1"/>
    <rect id="Rectangle_4806" data-name="Rectangle 4806" width="4.442" height="29.68" rx="1.45" transform="translate(341.881 198.752)" fill="#3f6cb1"/>
    <rect id="Rectangle_4807" data-name="Rectangle 4807" width="4.442" height="38.963" rx="1.45" transform="translate(351.902 189.453)" fill="#3f6cb1"/>
    <path id="Path_18269" data-name="Path 18269" d="M279.289,177.594h0a2.229,2.229,0,0,1-2.229-2.229V150.143a2.213,2.213,0,0,1,2.229-2.213h0a2.2,2.2,0,0,1,2.213,2.213v25.222a2.213,2.213,0,0,1-2.213,2.229Z" transform="translate(84.848 50.822)" fill="#3f6cb1"/>
  </g>
</svg>
