<svg xmlns="http://www.w3.org/2000/svg" xmlns:xlink="http://www.w3.org/1999/xlink" width="1171.272" height="978.485" viewBox="0 0 1171.272 978.485">
  <defs>
    <clipPath id="clip-path">
      <path id="Path_8703" data-name="Path 8703" d="M-7556,1170v978.485H-8727.272L-8215.151,1170Z" transform="translate(9476 -1170)" fill="none" stroke="#707070" stroke-width="1"/>
    </clipPath>
  </defs>
  <g id="BG" transform="translate(-748.728)" clip-path="url(#clip-path)">
    <g id="Group_4764" data-name="Group 4764" transform="translate(2)">
      <path id="Path_8515" data-name="Path 8515" d="M1297.76,32.119c-15.612,120.813-121.107,224.032-242.233,237.007-63.318,6.783-126.59-8.6-189.642-17.529s-130.935-10.544-186.4,20.751c-44.734,25.238-75.622,68.58-109.364,107.306s-75.688,75.838-126.832,80.577c-51.46,4.769-109.14-23.144-151.884,5.909-31.328,21.3-39.289,64.6-66.138,91.324-25.831,25.714-64.7,32.124-100.942,35.968S49.555,600.645,20.4,622.522s-92.906,59.9-66.09,84.592l930.379,647.059,660.723-854.252Z" transform="matrix(0.788, -0.616, 0.616, 0.788, 426.303, 563.659)" fill="#0f6cb6"/>
      <path id="Path_8514" data-name="Path 8514" d="M1297.76,32.119c-15.612,120.813-121.107,224.032-242.233,237.007-63.318,6.783-126.59-8.6-189.642-17.529s-130.935-10.544-186.4,20.751c-44.734,25.238-75.622,68.58-109.364,107.306s-75.688,75.838-126.832,80.577c-51.46,4.769-106.782-19.491-149.526,9.562-31.328,21.3-41.647,60.944-68.5,87.67-25.831,25.714-64.7,32.124-100.942,35.968S49.555,600.645,20.4,622.522s-102.757,72.511-75.941,97.2l898.672,640.843,693.157-887.2Z" transform="matrix(0.788, -0.616, 0.616, 0.788, 449.303, 563.659)" fill="#415490"/>
    </g>
  </g>
</svg>
