<svg xmlns="http://www.w3.org/2000/svg" width="31" height="26.667" viewBox="0 0 31 26.667">
  <g id="briefcase_1_" data-name="briefcase (1)" transform="translate(0 -42.666)">
    <g id="Group_4665" data-name="Group 4665" transform="translate(0 42.666)">
      <g id="Group_4664" data-name="Group 4664">
        <path id="Path_8344" data-name="Path 8344" d="M28.417,46.666H21.958V45.333a2.629,2.629,0,0,0-2.583-2.667h-7.75a2.629,2.629,0,0,0-2.583,2.667v1.333H2.583A2.629,2.629,0,0,0,0,49.333v4A2.629,2.629,0,0,0,2.583,56H12.917v-.667a.656.656,0,0,1,.646-.667h3.875a.656.656,0,0,1,.646.667V56H28.417A2.629,2.629,0,0,0,31,53.333v-4A2.629,2.629,0,0,0,28.417,46.666Zm-9.042,0h-7.75V45.333h7.75Z" transform="translate(0 -42.666)" fill="#86888b"/>
        <path id="Path_8345" data-name="Path 8345" d="M30.642,266.454a.63.63,0,0,0-.677.066,2.5,2.5,0,0,1-1.548.548H18.083v2a.656.656,0,0,1-.646.667H13.562a.656.656,0,0,1-.646-.667v-2H2.583a2.5,2.5,0,0,1-1.548-.548.625.625,0,0,0-.677-.066.669.669,0,0,0-.358.6v9.35a2.629,2.629,0,0,0,2.583,2.667H28.417A2.629,2.629,0,0,0,31,276.4v-9.35A.669.669,0,0,0,30.642,266.454Z" transform="translate(0 -252.401)" fill="#86888b"/>
      </g>
    </g>
  </g>
</svg>
