<svg xmlns="http://www.w3.org/2000/svg" width="30.328" height="25.545" viewBox="0 0 30.328 25.545">
  <path id="Path_230" data-name="Path 230" d="M2025.09,529.167h-23.853A3.02,3.02,0,0,0,1998,531.9v14.6a3.02,3.02,0,0,0,3.238,2.737h3.23V553.8c0,.814,1.168,1.215,1.843.645,3.01-2.547.895-.758,5.831-4.94a1.193,1.193,0,0,1,.766-.267h12.184a3.02,3.02,0,0,0,3.238-2.737V531.9A3.02,3.02,0,0,0,2025.09,529.167Zm-21.7,5.473h15.232a.926.926,0,1,1,0,1.825h-15.232a.925.925,0,1,1,0-1.825Zm10.926,9.123h-10.926a.925.925,0,1,1,0-1.825h10.926a.925.925,0,1,1,0,1.825Zm8.621-3.649h-19.547a.925.925,0,1,1,0-1.825h19.547a.925.925,0,1,1,0,1.825Z" transform="translate(-1998 -529.167)" fill="#b8bdc6"/>
</svg>
