<svg id="Group_401" data-name="Group 401" xmlns="http://www.w3.org/2000/svg" width="39.694" height="39.694" viewBox="0 0 39.694 39.694">
  <path id="Path_524" data-name="Path 524" d="M153.694,223.847a19.847,19.847,0,1,0-19.847,19.847c.116,0,.233,0,.349-.008V228.243h-4.264v-4.969H134.2v-3.659c0-4.241,2.59-6.551,6.373-6.551a34.591,34.591,0,0,1,3.822.194v4.434h-2.6c-2.054,0-2.458.977-2.458,2.411v3.163h4.923l-.643,4.969h-4.28v14.691a19.853,19.853,0,0,0,14.366-19.079Zm0,0" transform="translate(-114 -204)" fill="#2d72f1"/>
</svg>
