<svg id="OBJECTS" xmlns="http://www.w3.org/2000/svg" xmlns:xlink="http://www.w3.org/1999/xlink" viewBox="0 0 1573.5 1400.15"><defs><style>.cls-1{fill:#e5e2df;opacity:0.36;}.cls-2{fill:#ffe6d2;}.cls-3{fill:#ffb469;}.cls-4{fill:#ff9f34;}.cls-5{fill:#d3dfff;}.cls-6{fill:#fff;}.cls-7{fill:#1f6ce8;}.cls-8{fill:#00050d;}.cls-9{fill:#f9b384;}.cls-10{fill:#e28b6d;}.cls-11{fill:url(#linear-gradient);}.cls-12{fill:url(#linear-gradient-2);}.cls-13{fill:url(#linear-gradient-3);}.cls-14{fill:#102048;}.cls-15{fill:#fbc343;}.cls-16{fill:#eb5d60;opacity:0.4;}.cls-17{fill:#41548f;}.cls-18{fill:#1f3c88;}</style><linearGradient id="linear-gradient" x1="404.91" y1="1015.67" x2="679.1" y2="1015.67" gradientUnits="userSpaceOnUse"><stop offset="0" stop-color="#1f6ce8"/><stop offset="1" stop-color="#41548f"/></linearGradient><linearGradient id="linear-gradient-2" x1="619.53" y1="1008.79" x2="857.65" y2="1008.79" xlink:href="#linear-gradient"/><linearGradient id="linear-gradient-3" x1="271.94" y1="882.59" x2="576.82" y2="882.59" xlink:href="#linear-gradient"/></defs><path class="cls-1" d="M1477.39,1003.77C1453.28,949,1407,903.2,1351.4,880.68,1293.48,857.23,1227,865.77,1166,857.91c-53-6.82-91.21-30.47-122.84-72.52-30.31-40.29-57.49-84.91-107.05-103.55-39.16-14.73-83.68-10.65-122.59,4.7-71.72,28.28-125.89,88.4-171.5,148.3-41.65,54.68-75.63,114.57-152.66,116.52s-150.48-42-228.1-30.37c-102.58,15.4-188,100.8-205.92,202.47-16.77,95.28,25.33,187.69,97.66,242H1396.21C1487.35,1268.77,1535.17,1135.2,1477.39,1003.77Z"/><path class="cls-1" d="M725.07,522.53c21.78,22.26,31.54,59.75,19.53,94.32-11.62,33.47-37.11,61.19-67.73,79-24.64,14.34-56.78,22.25-81,7.24-18.11-11.23-27.5-33.24-28-54.54s6.64-42,15.5-61.43c12.47-27.31,29.27-53.8,54.28-70.41C672.1,493.83,704.14,501.14,725.07,522.53Z"/><path class="cls-2" d="M436.38,132.33H256V51.77H436.38Zm-176.59-3.75H432.63V55.52H259.79Z"/><path class="cls-2" d="M319.06,209.38H138.72V128.81H319.06Zm-176.59-3.75H315.31V132.56H142.47Z"/><path class="cls-3" d="M1462.48,295.22Q1445,237,1400.86,188.15t-120.54-80.77q-76.35-31.92-194-31.92-93.87,0-191.32,25.31T725.71,173.11l62.27,171-33.37,27L803,385.36q71.68-37.51,130.6-54.49T1058.7,314q66.21,0,100.24,31.91c22.7,21.35,34,47,34,77q0,54.48-34.91,96.74t-77.31,85.48q-29.37,30-57,61.94A444.74,444.74,0,0,0,975,735.73a373,373,0,0,0-34,78.88q-12.93,42.28-12.88,94.84c0,11.32.24,24.77.9,40.42.11,2.89.26,5.7.44,8.48H883.67l49.94,33.77h242.82a161,161,0,0,1-1.86-26.29V943.27a162.94,162.94,0,0,1,12.88-62.92,325.32,325.32,0,0,1,32.21-59.19,437.32,437.32,0,0,1,43.24-53.51q23.89-25.41,46-47.94,29.37-30,60.65-63.84a501,501,0,0,0,55.21-71.36,401,401,0,0,0,39.53-81.75Q1479.91,458.65,1480,406T1462.48,295.22Z"/><path class="cls-4" d="M1007.3,302.07q-65.52,0-123.63,16.33T754.61,371.13l-76.4-205.41q70.92-45.45,167.29-70t189.08-24.5q116.28,0,191.73,30.9t119.13,78.17q43.59,47.31,60.89,103.62t17.28,107.23q0,51-15.5,93.62a384.66,384.66,0,0,1-39.06,79.12,486.46,486.46,0,0,1-54.56,69.06q-30.88,32.76-60,61.79-21.84,21.82-45.45,46.39a424.15,424.15,0,0,0-42.72,51.78,312.35,312.35,0,0,0-31.84,57.29,155.06,155.06,0,0,0-12.72,60.89v21.84a153.29,153.29,0,0,0,1.83,25.44h-240a254.79,254.79,0,0,1-4.55-40.89c-.65-15.15-.89-28.17-.89-39.11q0-50.86,12.72-91.79a356.82,356.82,0,0,1,33.62-76.34,430.38,430.38,0,0,1,48.17-66.4q27.24-30.89,56.33-60,41.82-41.8,76.4-82.73t34.5-93.62q0-43.66-33.61-74.56T1007.3,302.07Z"/><path class="cls-3" d="M1193.05,1227.82q0,65.67-42.52,101.39T1054.38,1365q-53.72,0-96.19-35.77t-42.47-101.39q0-65.6,42.47-101.39c43.63-36.82,108.18-45,159.26-19.18C1162.78,1130.18,1193.05,1176.75,1193.05,1227.82Z"/><path class="cls-4" d="M1145.55,1227.82q0,65.67-42.52,101.39T1006.88,1365q-53.71,0-96.19-35.77t-42.47-101.39q0-65.6,42.47-101.39t96.19-35.77q53.66,0,96.15,35.77T1145.55,1227.82Z"/><circle class="cls-5" cx="401" cy="602.38" r="26.15" transform="translate(-264.95 885.54) rotate(-79.38)"/><ellipse class="cls-5" cx="424.63" cy="653.59" rx="14.71" ry="14.81" transform="translate(-295.99 950.57) rotate(-79.39)"/><circle class="cls-5" cx="336.47" cy="470.72" r="102.96" transform="translate(-234.3 375.79) rotate(-45)"/><circle class="cls-6" cx="296.93" cy="470.71" r="12.97"/><circle class="cls-6" cx="336.47" cy="470.71" r="12.97"/><circle class="cls-6" cx="376" cy="470.71" r="12.97"/><path class="cls-7" d="M262.71,1313.44l9.62,37.08c2.51,9.67,11.86,16.21,22.21,15.51,31.54-2.15,97.08-9.87,134.69-37.6L418.54,1275c-51.72-2.92-100.08,0-142,14.06C266.09,1292.57,260,1303.08,262.71,1313.44Z"/><path class="cls-6" d="M323,1343a1.24,1.24,0,0,1-1.2-.92l-12.92-46.25a1.25,1.25,0,0,1,2.41-.67l12.91,46.25a1.24,1.24,0,0,1-.86,1.54A1.4,1.4,0,0,1,323,1343Z"/><path class="cls-6" d="M350.91,1336.71a1.26,1.26,0,0,1-1.21-.92l-12.91-46.25a1.25,1.25,0,1,1,2.4-.67l12.92,46.25a1.24,1.24,0,0,1-.87,1.54A1.26,1.26,0,0,1,350.91,1336.71Z"/><polygon class="cls-8" points="383.33 1112.96 263.13 1148.63 352.39 1270.95 480.55 1281.14 657.32 1206.39 590.15 1105.31 383.33 1112.96"/><path class="cls-8" d="M531.52,1130c264-78.15,306.4,155.15-105.47,197.62-14.55-16.37-31.55-44.77-38.3-68.52l217.5-100.51Z"/><path class="cls-9" d="M542.73,1297.15c-12.34-4-24.17-11.76-24.17-11.76l-42.43,13.3,9.72,46.15,44.08,9C543.35,1329.24,544.14,1309.08,542.73,1297.15Z"/><path class="cls-6" d="M388.69,1260.68l-1.88-3.25c45.37-26.37,161.6-89.72,260.62-108.4l.7,3.68C549.67,1171.29,433.9,1234.4,388.69,1260.68Z"/><path class="cls-8" d="M383.33,1113C137.62,1066.24,74,1302.37,485.85,1344.84a149.58,149.58,0,0,0,32.71-59.45c-63.27-42.34-134-82.57-211.54-120.9Z"/><path class="cls-6" d="M517.55,1287c-11.69-7.44-23.87-15.31-36.76-23.63-64.73-41.79-138.09-89.16-200.42-116.17l1.49-3.44c62.61,27.13,136.11,74.59,201,116.46,12.89,8.32,25.07,16.18,36.74,23.61Z"/><path class="cls-7" d="M665.28,1283.4c-31.49-19.44-92.51,14.16-107.83,15.86-4.47.5-9.64-.48-14.72-2.11,1.41,11.93.62,32.09-12.8,56.65l7.48,1.52s51.75,19,106.65,7.93C694.74,1353.06,690,1298.69,665.28,1283.4Z"/><path class="cls-6" d="M622.37,1347a1.21,1.21,0,0,1-.38-.06,1.25,1.25,0,0,1-.82-1.57c3.74-11.84,5.37-35.14-5.46-50.78a1.25,1.25,0,0,1,2.06-1.43c11.34,16.39,9.67,40.65,5.79,53A1.25,1.25,0,0,1,622.37,1347Z"/><path class="cls-6" d="M597.68,1351.71a1.25,1.25,0,0,1-1.19-1.63c3.74-11.84,5.37-35.14-5.47-50.79a1.25,1.25,0,0,1,2.06-1.42c11.34,16.39,9.68,40.65,5.79,53A1.25,1.25,0,0,1,597.68,1351.71Z"/><path class="cls-9" d="M339.86,808.49s61.88-52.62,59.59-62.62c-1.64-7.14-19.17,3.34-19.17,3.34S404.86,720,403.61,716.5c-2.23-6.33-19.23,5.47-19.23,5.47s11.49-16.54,6-19.24-17.48,7.5-17.48,7.5,7-9.18,3.71-11.59-17.47,7.5-17.47,7.5,5.09-11.59-5.72-7.2-86.63,74-86.63,74Z"/><path class="cls-10" d="M365.18,746.08a1.3,1.3,0,0,1-.85-.32c-10.62-9.71-15.3-12.06-27-15.67a1.25,1.25,0,1,1,.73-2.39c12.15,3.74,17,6.17,28,16.21a1.25,1.25,0,0,1,.08,1.77A1.24,1.24,0,0,1,365.18,746.08Z"/><path class="cls-10" d="M346.53,774.62h-.17a1.25,1.25,0,0,1-1.07-1.41c1.22-8.7,4-14.14,8.38-16.62,3.77-2.13,8.69-1.91,14.61.65a1.25,1.25,0,1,1-1,2.29c-5.17-2.23-9.33-2.48-12.4-.76-3.64,2-6,7-7.12,14.79A1.25,1.25,0,0,1,346.53,774.62Z"/><path class="cls-10" d="M343.61,722a1.25,1.25,0,0,1-.85-2.16l15.53-14.63A1.25,1.25,0,0,1,360,707l-15.53,14.64A1.23,1.23,0,0,1,343.61,722Z"/><path class="cls-10" d="M358,727a1.25,1.25,0,0,1-.9-2.11L372,709.37a1.25,1.25,0,1,1,1.81,1.73l-14.92,15.54A1.25,1.25,0,0,1,358,727Z"/><path class="cls-10" d="M372.68,735.77a1.25,1.25,0,0,1-.92-2.1l11.7-12.55a1.25,1.25,0,1,1,1.83,1.7l-11.7,12.55A1.21,1.21,0,0,1,372.68,735.77Z"/><path class="cls-11" d="M573.61,1160.45l-226.25,8.75L322.36,963s75.75-71.84,104.89-98.3l49.19-2.52C629.07,931.51,604.08,1018.16,573.61,1160.45Z"/><path class="cls-12" d="M476.44,862.13S651.06,877.06,706.11,996.7c53.87,117.07-167.5,158.75-167.5,158.75Z"/><path class="cls-13" d="M276.84,887.77,349,800l-67.48-40.89c-28.15,19.57-82.58,63.9-128.71,114.1-10.18,11.08-18.13,24-22.14,38.28a82.34,82.34,0,0,0-2.12,35.93h0c5,30.66,29.12,54.31,61.31,58.08,27.5,3.22,132.5-5,217.5-30l25-96.49C419.52,871.67,324,870.41,276.84,887.77Z"/><path class="cls-9" d="M492.42,816.28l0,3.2-.5,49.73-.07,5.39a31,31,0,0,1-61.93,0l-.6-61.45Z"/><path class="cls-14" d="M492.39,819.48l-.5,49.73c-27.64-11.25-39-41.18-39-41.18Z"/><path class="cls-9" d="M503.33,732.69c9.9,11.89,38.82,79.24,9.51,102.22-33,25.86-83.2-16.64-83.2-16.64l-6.74-78.44,43.58-11.49Z"/><path class="cls-8" d="M400.7,728.37S304,778.79,382.85,924.12c10.12,18.67,32.55,26.82,51.73,17.71h0a39.2,39.2,0,0,0,17.19-54.76c-12.89-22.9-25.33-52.4-20-74.34Z"/><circle class="cls-15" cx="409.83" cy="752.24" r="26.15" transform="translate(-411.88 510.12) rotate(-45)"/><path class="cls-8" d="M442,783.66c-2.82-16.32-4.54-27.5,11.95-35.91,0,0,58.1,10.57,69.2-11.36s-5.81-56.52-41.21-32.49c-90.59-17.69-102.74,67.09-75.27,95.36l27.11-4.17A9.86,9.86,0,0,0,442,783.66Z"/><circle class="cls-14" cx="486.98" cy="783.7" r="3.86"/><circle class="cls-14" cx="513.13" cy="770.83" r="3.86"/><path class="cls-14" d="M510.46,795.59a1.09,1.09,0,0,1-.79-1.84c1.55-1.63,3.24-3.93,2.53-5.59s-3.87-2.47-5.31-2.47c-3.08,0-4.56-5.48-4.82-6.58a1.09,1.09,0,1,1,2.12-.52c.57,2.32,1.84,4.91,2.7,4.91,1.48,0,6,.7,7.32,3.8.95,2.21-.05,4.89-3,8A1.06,1.06,0,0,1,510.46,795.59Z"/><path class="cls-14" d="M510.66,810.25a1.11,1.11,0,0,1-.61-.18c-7.28-4.91-14.62-.8-14.7-.75a1.1,1.1,0,0,1-1.09-1.9c.35-.2,8.62-4.83,17,.83a1.09,1.09,0,0,1-.61,2Z"/><path class="cls-14" d="M485.29,767c2.2,4.14-1.63,5-6.12,7.35s-9.08,3.26-10.12,1.29,1.73-5.51,6.22-7.89S483.59,763.77,485.29,767Z"/><path class="cls-14" d="M501.66,759.51c1,3.69,3.72,2.07,7.72,1s7.24-3.07,6.78-4.83-4.08-2.33-8.09-1.29S500.91,756.65,501.66,759.51Z"/><circle class="cls-16" cx="469.16" cy="801.73" r="11.39" transform="translate(-419.27 530.46) rotate(-42.69)"/><ellipse class="cls-9" cx="425.9" cy="801.77" rx="15.43" ry="17.53" transform="translate(-469.04 649.11) rotate(-52.34)"/><path class="cls-14" d="M432.68,807.49a1.09,1.09,0,0,1-1.1-1.09,9.58,9.58,0,0,0-4.21-8,7.73,7.73,0,0,0-7.19-1,1.09,1.09,0,0,1-.82-2,9.9,9.9,0,0,1,9.23,1.16,11.77,11.77,0,0,1,5.18,9.81A1.09,1.09,0,0,1,432.68,807.49Z"/><rect class="cls-17" x="228.03" y="907.86" width="58.14" height="2.5" transform="translate(-584.99 480.77) rotate(-47.25)"/><path class="cls-17" d="M554,1070.4l-.73-2.39c28.73-8.75,56.62-19.23,81.89-50.83l2,1.56C611.37,1050.9,583.1,1061.53,554,1070.4Z"/><path class="cls-5" d="M571.45,973.59H327c-8.79,0-15.92,7.71-15.92,17.22v174.51c0,9.51,7.13,17.21,15.92,17.21H571.45c8.79,0,15.91-7.7,15.91-17.21V990.81C587.36,981.3,580.24,973.59,571.45,973.59Z"/><path class="cls-18" d="M462.14,1067a1.76,1.76,0,0,1,1.68,1.82v18.43a1.75,1.75,0,0,1-1.68,1.81h-25.8a1.75,1.75,0,0,1-1.68-1.81v-18.43a1.76,1.76,0,0,1,1.68-1.82h25.8m0-5h-25.8a6.75,6.75,0,0,0-6.68,6.82v18.43a6.75,6.75,0,0,0,6.68,6.81h25.8a6.75,6.75,0,0,0,6.68-6.81v-18.43a6.75,6.75,0,0,0-6.68-6.82Z"/><rect class="cls-14" x="46.38" y="1362.95" width="1473.68" height="5"/></svg>