<svg xmlns="http://www.w3.org/2000/svg" width="741.144" height="677.646" viewBox="0 0 741.144 677.646">
  <g id="graphic" transform="translate(-988.306 -186.188)">
    <path id="Path_4474" data-name="Path 4474" d="M363.086,224.532V211.878a2.241,2.241,0,0,0-2.241-2.241h-3.257a2.055,2.055,0,0,1-2.011-1.578,44.792,44.792,0,0,0-5.636-13.68,2.085,2.085,0,0,1,.272-2.591l2.29-2.29a2.243,2.243,0,0,0,0-3.17l-8.948-8.948a2.24,2.24,0,0,0-3.169,0l-2.288,2.288a2.09,2.09,0,0,1-2.591.272,44.762,44.762,0,0,0-13.683-5.643,2.057,2.057,0,0,1-1.578-2.011V169.04a2.24,2.24,0,0,0-2.241-2.241H305.352a2.24,2.24,0,0,0-2.241,2.241v3.246a2.057,2.057,0,0,1-1.578,2.011,44.806,44.806,0,0,0-13.687,5.641,2.09,2.09,0,0,1-2.591-.272l-2.285-2.284a2.241,2.241,0,0,0-3.17,0l-8.946,8.948a2.243,2.243,0,0,0,0,3.17l2.288,2.288a2.088,2.088,0,0,1,.272,2.589,44.78,44.78,0,0,0-5.638,13.685,2.055,2.055,0,0,1-2.011,1.576h-3.254a2.241,2.241,0,0,0-2.241,2.241v12.654a2.242,2.242,0,0,0,2.241,2.243h3.255a2.053,2.053,0,0,1,2.009,1.576,44.86,44.86,0,0,0,5.64,13.681,2.085,2.085,0,0,1-.272,2.591l-2.29,2.29a2.243,2.243,0,0,0,0,3.17l8.946,8.948a2.243,2.243,0,0,0,3.17,0l2.294-2.294a2.085,2.085,0,0,1,2.589-.272,44.835,44.835,0,0,0,13.68,5.632,2.055,2.055,0,0,1,1.578,2.011v3.265a2.241,2.241,0,0,0,2.241,2.241h12.654a2.241,2.241,0,0,0,2.241-2.241v-3.266a2.053,2.053,0,0,1,1.578-2.009,44.847,44.847,0,0,0,13.678-5.634,2.087,2.087,0,0,1,2.589.272l2.3,2.3a2.241,2.241,0,0,0,3.169,0l8.948-8.948a2.243,2.243,0,0,0,0-3.17l-2.294-2.292a2.09,2.09,0,0,1-.272-2.591,44.8,44.8,0,0,0,5.638-13.68,2.055,2.055,0,0,1,2.011-1.576h3.259A2.242,2.242,0,0,0,363.086,224.532Zm-51.41,27.341A33.663,33.663,0,1,1,345.323,218.2,33.657,33.657,0,0,1,311.676,251.873Z" transform="translate(1313.358 218.279)" fill="#68a5f2"/>
    <g id="Group_4811" data-name="Group 4811" transform="translate(2949.381 1504.731) rotate(-163)">
      <ellipse id="Ellipse_72" data-name="Ellipse 72" cx="3.848" cy="3.848" rx="3.848" ry="3.848" transform="translate(1621.511 544.859)" fill="#a4afff"/>
      <path id="Path_4478" data-name="Path 4478" d="M498.1,245.913a8.208,8.208,0,1,1-8.208-8.208A8.208,8.208,0,0,1,498.1,245.913Z" transform="translate(1125.69 322.819)" fill="#a4afff"/>
    </g>
    <g id="Group_4812" data-name="Group 4812">
      <ellipse id="Ellipse_172" data-name="Ellipse 172" cx="5.581" cy="5.581" rx="5.581" ry="5.581" transform="translate(1153.865 206.783)" fill="#a4afff"/>
      <path id="Path_8615" data-name="Path 8615" d="M505.5,249.611A11.9,11.9,0,1,1,493.592,237.7,11.905,11.905,0,0,1,505.5,249.611Z" transform="translate(641.732 -51.517)" fill="#a4afff"/>
    </g>
    <g id="Group_743" data-name="Group 743" transform="translate(1503.886 361.922)">
      <rect id="Rectangle_98" data-name="Rectangle 98" width="12.728" height="12.728" rx="0.664" fill="#dee3fc"/>
      <rect id="Rectangle_99" data-name="Rectangle 99" width="12.728" height="12.728" rx="0.664" transform="translate(17.025)" fill="#dee3fc"/>
      <rect id="Rectangle_100" data-name="Rectangle 100" width="12.728" height="12.728" rx="0.664" transform="translate(34.051)" fill="#dee3fc"/>
    </g>
    <rect id="Rectangle_104" data-name="Rectangle 104" width="295.675" height="571.184" rx="21.349" transform="translate(1175.787 217.945)" fill="#3945ba"/>
    <rect id="Rectangle_105" data-name="Rectangle 105" width="284.602" height="558.065" rx="18.7" transform="translate(1181.324 222.946)" fill="#fff"/>
    <path id="Path_4480" data-name="Path 4480" d="M556.518,107.487V602.85a21.036,21.036,0,0,1-21.036,21.036H317.869a21.036,21.036,0,0,1-21.036-21.036V107.487a21.037,21.037,0,0,1,21.036-21.038h36.288a5.321,5.321,0,0,1,4.757,2.938l3.854,7.693a10.394,10.394,0,0,0,9.322,5.772h109.17a10.394,10.394,0,0,0,9.322-5.772l3.854-7.693a5.32,5.32,0,0,1,4.757-2.938h36.288A21.037,21.037,0,0,1,556.518,107.487Z" transform="translate(896.57 145.549)" fill="#dee3fc"/>
    <path id="Path_4481" data-name="Path 4481" d="M439.048,93.854H351.12a3.7,3.7,0,0,1-3.7-3.7h0a3.7,3.7,0,0,1,3.7-3.7h87.928a3.7,3.7,0,0,1,3.7,3.7h0A3.7,3.7,0,0,1,439.048,93.854Z" transform="translate(930.392 145.549)" fill="#dee3fc"/>
    <rect id="Rectangle_106" data-name="Rectangle 106" width="223.5" height="96.926" rx="8.379" transform="translate(1209.342 655.315)" fill="none" stroke="#698bd1" stroke-linecap="round" stroke-linejoin="round" stroke-width="1" stroke-dasharray="2.837"/>
    <rect id="Rectangle_107" data-name="Rectangle 107" width="117.141" height="68.051" rx="6.044" transform="translate(1301.904 446.344)" fill="none" stroke="#698bd1" stroke-linecap="round" stroke-linejoin="round" stroke-width="1" stroke-dasharray="2.837"/>
    <g id="Group_940" data-name="Group 940" transform="translate(1209.742 525.495)">
      <path id="Path_4482" data-name="Path 4482" d="M529.7,272.943v84.6a11.931,11.931,0,0,1-11.943,11.927H318.143A11.931,11.931,0,0,1,306.2,357.543v-84.6A11.945,11.945,0,0,1,318.143,261H517.757A11.945,11.945,0,0,1,529.7,272.943Z" transform="translate(-306.2 -261)" fill="#7f95f4"/>
      <g id="Group_751" data-name="Group 751" transform="translate(0 0)">
        <path id="Path_4497" data-name="Path 4497" d="M529.7,272.943V276.5H306.2v-3.555A11.945,11.945,0,0,1,318.143,261H517.757A11.945,11.945,0,0,1,529.7,272.943Z" transform="translate(-306.2 -261)" fill="#3052ce"/>
        <g id="Group_750" data-name="Group 750" transform="translate(175.835 5.261)">
          <path id="Path_4498" data-name="Path 4498" d="M417.593,266.934a2.769,2.769,0,1,1-2.769-2.767A2.769,2.769,0,0,1,417.593,266.934Z" transform="translate(-412.055 -264.167)" fill="#dee3fc"/>
          <path id="Path_4499" data-name="Path 4499" d="M426.121,266.934a2.769,2.769,0,1,1-2.769-2.767A2.769,2.769,0,0,1,426.121,266.934Z" transform="translate(-406.417 -264.167)" fill="#dee3fc"/>
          <path id="Path_4500" data-name="Path 4500" d="M434.649,266.934a2.769,2.769,0,1,1-2.769-2.767A2.769,2.769,0,0,1,434.649,266.934Z" transform="translate(-400.779 -264.167)" fill="#dee3fc"/>
        </g>
      </g>
    </g>
    <rect id="Rectangle_110" data-name="Rectangle 110" width="67.99" height="67.99" rx="7.151" transform="translate(1222.426 446.406)" fill="none" stroke="#495ad6" stroke-miterlimit="10" stroke-width="0.896"/>
    <g id="Group_753" data-name="Group 753" transform="translate(1234.186 470.567)">
      <path id="Path_4501" data-name="Path 4501" d="M332.619,230.071,322.26,240.43,332.7,250.87" transform="translate(-322.26 -230.071)" fill="none" stroke="#495ad6" stroke-linecap="round" stroke-linejoin="round" stroke-width="3.67"/>
      <path id="Path_4502" data-name="Path 4502" d="M340.962,230.071,351.32,240.43l-10.44,10.44" transform="translate(-308.172 -230.071)" fill="none" stroke="#495ad6" stroke-linecap="round" stroke-linejoin="round" stroke-width="3.67"/>
      <line id="Line_11" data-name="Line 11" x1="9.701" y2="20.8" transform="translate(16.724)" fill="none" stroke="#495ad6" stroke-linecap="round" stroke-linejoin="round" stroke-width="3.67"/>
    </g>
    <rect id="Rectangle_111" data-name="Rectangle 111" width="223.5" height="165.495" rx="8.18" transform="translate(1209.342 266.866)" fill="#fff"/>
    <ellipse id="Ellipse_76" data-name="Ellipse 76" cx="32.391" cy="32.391" rx="32.391" ry="32.391" transform="translate(1355.186 278.178)" fill="#ffab17"/>
    <g id="Group_4807" data-name="Group 4807" transform="translate(1209.342 304.211)">
      <path id="Path_4503" data-name="Path 4503" d="M437.576,258.072H319.788A13.593,13.593,0,0,1,306.2,244.484V222.707l51.544-89.284a7,7,0,0,1,12.126,0l38.919,67.407,28.9,50.065A6.869,6.869,0,0,1,437.576,258.072Z" transform="translate(-306.2 -129.922)" fill="#f63311"/>
      <path id="Path_4504" data-name="Path 4504" d="M460.7,243.382H348.06l33.056-57.241,17.807-30.847a6.3,6.3,0,0,1,10.913,0Z" transform="translate(-278.526 -115.233)" fill="#2a4e96"/>
    </g>
    <g id="Group_766" data-name="Group 766" transform="translate(1384.43 505.489)">
      <g id="Group_758" data-name="Group 758" transform="translate(88.691 235.2)">
        <rect id="Rectangle_112" data-name="Rectangle 112" width="81.941" height="123.145" fill="#3b47bc"/>
        <rect id="Rectangle_113" data-name="Rectangle 113" width="31.375" height="123.145" transform="translate(113.316 123.145) rotate(180)" fill="#495ad6"/>
        <g id="Group_757" data-name="Group 757" transform="translate(86.433 4.729)">
          <rect id="Rectangle_114" data-name="Rectangle 114" width="23.036" height="3.93" fill="#b2c1f9"/>
          <rect id="Rectangle_115" data-name="Rectangle 115" width="23.036" height="3.93" transform="translate(0 8.443)" fill="#b2c1f9"/>
          <rect id="Rectangle_116" data-name="Rectangle 116" width="23.036" height="3.93" transform="translate(0 16.886)" fill="#b2c1f9"/>
          <rect id="Rectangle_117" data-name="Rectangle 117" width="23.036" height="3.93" transform="translate(0 25.328)" fill="#b2c1f9"/>
          <rect id="Rectangle_118" data-name="Rectangle 118" width="23.036" height="3.93" transform="translate(0 33.771)" fill="#b2c1f9"/>
          <rect id="Rectangle_119" data-name="Rectangle 119" width="23.036" height="3.93" transform="translate(0 42.214)" fill="#b2c1f9"/>
          <rect id="Rectangle_120" data-name="Rectangle 120" width="23.036" height="3.93" transform="translate(0 50.657)" fill="#b2c1f9"/>
          <rect id="Rectangle_121" data-name="Rectangle 121" width="23.036" height="3.93" transform="translate(0 59.099)" fill="#b2c1f9"/>
          <rect id="Rectangle_122" data-name="Rectangle 122" width="23.036" height="3.93" transform="translate(0 67.542)" fill="#b2c1f9"/>
          <rect id="Rectangle_123" data-name="Rectangle 123" width="23.036" height="3.93" transform="translate(0 75.985)" fill="#b2c1f9"/>
          <rect id="Rectangle_124" data-name="Rectangle 124" width="23.036" height="3.93" transform="translate(0 84.428)" fill="#b2c1f9"/>
          <rect id="Rectangle_125" data-name="Rectangle 125" width="23.036" height="3.93" transform="translate(0 92.87)" fill="#b2c1f9"/>
          <rect id="Rectangle_126" data-name="Rectangle 126" width="23.036" height="3.93" transform="translate(0 101.313)" fill="#b2c1f9"/>
          <rect id="Rectangle_127" data-name="Rectangle 127" width="23.036" height="3.93" transform="translate(0 109.756)" fill="#b2c1f9"/>
        </g>
      </g>
      <g id="Group_765" data-name="Group 765">
        <path id="Path_4505" data-name="Path 4505" d="M489.62,446.374h41.644s2.328-7.416-2.716-16.6c0,0-3.351,2.688-13.392.87a44.656,44.656,0,0,1-7.083,4.95C505.162,437,488.5,440.27,489.62,446.374Z" transform="translate(-414.239 -88.029)" fill="#fff"/>
        <path id="Path_4506" data-name="Path 4506" d="M491.8,368.5c2.69,16.049,15.1,70.348,20.437,102.424,9.751.831,14.435-.288,16.916-.861-.486-11.185-1.448-37.94-1.335-49.674.185-19.83,1.116-45.98-7.613-60.33l-29.352,2.31c.179,1.549.342,2.81.484,3.712C491.473,366.95,491.635,367.748,491.8,368.5Z" transform="translate(-413.512 -127.585)" fill="#4a72b8"/>
        <path id="Path_4507" data-name="Path 4507" d="M441.564,446.374h41.646s2.328-7.416-2.716-16.6c0,0-3.353,2.688-13.392.87a44.7,44.7,0,0,1-7.085,4.95C457.106,437,440.441,440.27,441.564,446.374Z" transform="translate(-441.509 -88.029)" fill="#fff"/>
        <path id="Path_4508" data-name="Path 4508" d="M457.066,473.484a47.778,47.778,0,0,0,16.451,1.472c2.215-12.894,5.712-41.263,8.859-54.56,4.884-20.67,9.665-49.1,6.344-59.237l-28.873-7.251C459.749,354.821,457.4,441.818,457.066,473.484Z" transform="translate(-432.682 -131.079)" fill="#2a5bb2"/>
        <path id="Path_4509" data-name="Path 4509" d="M571,338.6h0c-.58-5.706-1.248-9.873-1.248-9.873l-32.258,7.9-27.4,6.243c-10.159,2.263-22.43,4.988-33.251,7.433-12.14,2.759-20.2,11.98-17.54,24.137l3.042,14.745c16.98-.232,96.814-7.884,103.642-11.333C573.7,373.95,576.024,360.175,571,338.6Z" transform="translate(-431.702 -145.368)" fill="#2a5bb2"/>
        <path id="Path_4510" data-name="Path 4510" d="M601.722,339.307h0a44.569,44.569,0,0,0-3.362-11.828l-30.144,9.85-27.4,6.243c-10.159,2.263-22.432,4.988-33.251,7.433-12.14,2.759-20.2,11.98-17.542,24.137l3.044,14.745c16.979-.232,87.95-2.705,103.642-11.333C604.282,374.39,606.746,360.883,601.722,339.307Z" transform="translate(-414.269 -146.076)" fill="#4a72b8"/>
        <g id="Group_759" data-name="Group 759" transform="translate(49.741 144.128)">
          <path id="Path_4511" data-name="Path 4511" d="M520.665,306.569s14.328-6.472,18.27.019c2.159,3.553.666,10.154-4.221,12.925s-32.5,14.45-58.564,20.963a63.263,63.263,0,0,0-2.908-7.436,137.224,137.224,0,0,0,23.316-13.013,148.622,148.622,0,0,1,24.106-13.458Z" transform="translate(-473.243 -303.698)" fill="#e5918f"/>
        </g>
        <path id="Path_4512" data-name="Path 4512" d="M510.228,276.985l-12.28,49.047s1.268,12.4,13.791,6.314,20.822-45.162,20.822-45.162Z" transform="translate(-409.483 -174.729)" fill="#e5918f"/>
        <path id="Path_4513" data-name="Path 4513" d="M528.6,314.64c-1.519-.367-2.969-.77-4.367-1.188q-2.149-.63-4.088-1.31c-11.668-4-17.974-8.8-17.974-8.8,3.668-15.947,8.088-26.655,12.018-33.713a5.032,5.032,0,0,0,.3-.523l.313-.524a30.667,30.667,0,0,1,8.543-8.891c.35-.245.68-.472,1.03-.716l1.45,25.608.244,2.636Z" transform="translate(-407.084 -184.952)" fill="#fff"/>
        <path id="Path_4514" data-name="Path 4514" d="M522.1,305.559c-1.519-.367-2.969-.77-4.367-1.188q-2.149-.63-4.088-1.31c2.45-17.25,4.665-28.089,4.665-28.089l1.257,3.162Z" transform="translate(-400.577 -175.872)" fill="#c7e5f2"/>
        <path id="Path_4515" data-name="Path 4515" d="M594.5,273.854c-.3,7.58-1.625,19.756-2.778,31.982-.367,3.878-.716,7.773-1.014,11.529-.208,2.34-3.737,14.831-3.878,17.067-.628,10.69-5.869,18.69-.908,34.97a25.628,25.628,0,0,1,1.484,7.511c0,1.118-1.45,2.289-2.025,2.6-2.08,1.205-6.166,2.042-11.127,2.655h-.017c-9.765,1.187-22.935,1.414-30.884,1.414-10.673,0-26.691-1.694-28.718-4.384-1.851-2.462-.139-6.044.734-10.988,3.931-22.307,2.533-33.939,2.288-50.044,0-.4-.017-.8-.017-1.223-.4-24.84-2.044-46.1-.89-53.765.35-.244.68-.472,1.03-.716,1.694-1.154,3.354-2.184,4.961-3.093.139-.069.315-.174.489-.279.489-.279,1-.541,1.467-.8a5.656,5.656,0,0,1,.56-.279,121.719,121.719,0,0,1,11.913-4.7c.384-.122.734-.245,1.031-.332,2.846-.174,5.938-.208,9.275-.121,2.9.086,7.337.47,12.157,1.1h.017a125.614,125.614,0,0,1,16.14,3.021s.053.019.088.036c.89.279,6.673,2.445,12.7,8.891A43.028,43.028,0,0,1,594.5,273.854Z" transform="translate(-400.484 -188.447)" fill="#fff"/>
        <path id="Path_4516" data-name="Path 4516" d="M564.871,355.859a25.625,25.625,0,0,1,1.484,7.511c0,1.118-1.45,2.289-2.025,2.6-2.08,1.205-6.166,2.042-11.128,2.655,2.044-.246,5.571-3.488,5.572-6.411,0-2.049-2.655-15.878-1.922-24.805.734-8.908,2.184-23.092-.577-34.447-2.778-11.353-5.38-26.289-5.38-26.289l15.563,9.4s2.009,2.812,4.21,6.218c-.367,3.878-.716,7.773-1.014,11.529C569.448,306.163,559.91,339.579,564.871,355.859Z" transform="translate(-379.436 -174.904)" fill="#c7e5f2"/>
        <g id="Group_763" data-name="Group 763" transform="translate(109.653)">
          <path id="Path_4517" data-name="Path 4517" d="M516.13,224.354s1.346,16.278,6.743,17.372,4.072-5.823,4.072-5.823l-.754-7.729Z" transform="translate(-508.818 -204.595)" fill="#002c54"/>
          <path id="Path_4518" data-name="Path 4518" d="M534.58,276.756c-10.568-1.259-6.621-11.529-5.171-13.888.384-.122,2.2-.68,2.34-.768a.058.058,0,0,1,.036-.017,2.9,2.9,0,0,0,.82-1.223c1.031-2.709.56-8.105.525-8.455v-1c.174-.646.35-1.259.489-1.834l5.555-4.367,11.754-9.242s-3.125,15.46-.611,25.206a3.673,3.673,0,0,0,1.555,2.342c0,.017.017,0,.017,0a2.847,2.847,0,0,0,1.171.418C555.943,265.3,551.925,278.818,534.58,276.756Z" transform="translate(-502.38 -198.005)" fill="#e5918f"/>
          <path id="Path_4519" data-name="Path 4519" d="M542.04,242.236s-.1,10.317-11.3,15.06c1.041-2.691.561-8.093.528-8.439l4.691-3.684Z" transform="translate(-500.526 -194.448)" fill="#cc6362"/>
          <path id="Path_4520" data-name="Path 4520" d="M517.776,231.68s2.444,33.774,11.563,36.644c0,0,11.618,1.094,19.96-10.127,2.4-3.234,5.441-3.959,6.433-7.864,1.611-6.342,3.884-18.038.984-25.087C552.588,215.208,518.168,207.236,517.776,231.68Z" transform="translate(-507.884 -209.605)" fill="#e5918f"/>
          <path id="Path_4521" data-name="Path 4521" d="M560.437,221.816c-.149-6.135-6.359-8.427-6.359-8.427-6.182-2.893-19.029-1.646-32.274,1.309-3.105.693-7-1.213-9.171.292-2.621,1.818-.011,10.126-.011,10.126,5.11,15.472,23.91,10.441,29.559,8.532,1.343,3.985,1.171,9.522,4.521,12.378,1.907,1.629,5.226,1.674,8.6,1.113.416.788,1.975,1.484,2.292,2.568,1.063,3.618.911,9.272.878,13.637l1.594-.779C560.271,261.381,576.761,222.322,560.437,221.816Z" transform="translate(-511.465 -211.748)" fill="#002c54"/>
          <g id="Group_760" data-name="Group 760" transform="translate(11.247 26.94)">
            <path id="Path_4522" data-name="Path 4522" d="M526.64,234.7c.476,2.8-.906,5.378-3.09,5.749s-4.339-1.6-4.817-4.4.906-5.38,3.089-5.751S526.162,231.895,526.64,234.7Z" transform="translate(-518.64 -228.19)" fill="none" stroke="#fff" stroke-miterlimit="10" stroke-width="0.501"/>
            <path id="Path_4523" data-name="Path 4523" d="M533.67,233.386c.478,2.8-.9,5.38-3.088,5.751s-4.34-1.6-4.817-4.406.906-5.38,3.088-5.751S533.193,230.582,533.67,233.386Z" transform="translate(-514.65 -228.935)" fill="none" stroke="#fff" stroke-miterlimit="10" stroke-width="0.501"/>
            <path id="Path_4524" data-name="Path 4524" d="M523.744,233.307s.483-.785,3.02-.564" transform="translate(-515.744 -226.797)" fill="none" stroke="#fff" stroke-miterlimit="10" stroke-width="0.501"/>
            <line id="Line_12" data-name="Line 12" y1="1.505" x2="9.42" transform="translate(19.114 3.619)" fill="none" stroke="#fff" stroke-miterlimit="10" stroke-width="0.501"/>
          </g>
          <g id="Group_761" data-name="Group 761" transform="translate(37.78 28.294)">
            <path id="Path_4525" data-name="Path 4525" d="M538.261,244.021c6.488,2.484,8.513-13.482,2.353-14.19-4.671-.536-4.862,5.981-4.862,5.981S534.557,242.6,538.261,244.021Z" transform="translate(-535.568 -229.799)" fill="#e5918f"/>
          </g>
          <g id="Group_762" data-name="Group 762" transform="translate(40.416 30.733)" opacity="0.5">
            <path id="Path_4526" data-name="Path 4526" d="M539.446,231.355s-3.832,2.028-1.373,8.253" transform="translate(-537.25 -231.355)" fill="none" stroke="#cc6362" stroke-miterlimit="10" stroke-width="0.724"/>
            <path id="Path_4527" data-name="Path 4527" d="M540.438,233.289a3.388,3.388,0,0,0-3.151,2.339" transform="translate(-537.228 -230.258)" fill="none" stroke="#cc6362" stroke-miterlimit="10" stroke-width="0.724"/>
          </g>
        </g>
        <path id="Path_4528" data-name="Path 4528" d="M589.08,328.367v.016c-2.851,3.307-13.67,5.718-18.875,1.143-1.636-1.458-3.483-5.3-5.3-10.063-4.616-12.184-8.985-30.412-8.985-30.412l24.211-12.372s3.115,13.966,5.8,27.238c0,0,.023.135.074.37.873,4.251,1.686,8.433,2.324,12.021a1.656,1.656,0,0,1,.047.285A50.831,50.831,0,0,1,589.08,328.367Z" transform="translate(-376.585 -174.903)" fill="#e5918f"/>
        <path id="Path_4529" data-name="Path 4529" d="M550.089,283.139c2.339,9.721,9.687,28.145,9.687,28.145,5.148.854,12.049-.094,17.769-2.149a32.739,32.739,0,0,0,11.319-7.351s-4.875-13.7-9.248-23.539c-3.927-8.834-6.284-12.132-7.983-13.883a38.477,38.477,0,0,0-9.613-7.149Z" transform="translate(-379.895 -185.949)" fill="#fff"/>
        <path id="Path_4530" data-name="Path 4530" d="M578.817,290.466l-14.207-6.13-11.195-28.844s2.052.624,4.754,1.715h.013c.052.025.168.064.364.143a1.492,1.492,0,0,1,.207.091c2.415,1.13,11.78,6.649,18.261,26.7l.155.506c.688,2.312,1.194,4.169,1.467,5.13.027.091.053.182.078.285C578.753,290.193,578.78,290.336,578.817,290.466Z" transform="translate(-378.007 -186.926)" fill="#fff"/>
        <g id="Group_764" data-name="Group 764" transform="translate(121.634 128.654)">
          <path id="Path_4531" data-name="Path 4531" d="M604.033,318.636v.016c-.209,1.773-.7,3.047-1.574,3.5-.14.089-2.127,1.273-2.267,1.362a120.852,120.852,0,0,1-15.007,7.76,543.7,543.7,0,0,1-52.406,18.83,61.789,61.789,0,0,0-3.206-7.315,137.3,137.3,0,0,0,22.75-13.966c11.294-8.619,27.537-19.09,27.537-19.09l4.1-4.825s14.581-13.421,16.922-10.721c0,0,.023.135.074.37.348,1.4,1.5,6.549,2.324,12.021a1.668,1.668,0,0,1,.047.285A50.848,50.848,0,0,1,604.033,318.636Z" transform="translate(-513.172 -293.826)" fill="#e5918f"/>
          <path id="Path_4532" data-name="Path 4532" d="M537.187,325.263a9.021,9.021,0,0,1-5.756,1.107c-1.607-.337-2.255-1-3.444-1.2s-4.353-.6-5.92-1.368-2.177-.854-2.122.719,3.146,2.933,3.985,3.368a7.937,7.937,0,0,1,2,2.006c.114.176-5.152,2.931-6.568,2.372a4.1,4.1,0,0,0-.182,1.977c.24.707,1.323.956,1.408,1.312s-.249,1.082-.014,1.647,1.2.566,1.591,1.483-.039.933.245,1.889,1.508,1.13,1.74,1.622.11,1.071.622,1.411,5.25-1.18,6.978-1.92,6.348-7.392,11.46-9.659Z" transform="translate(-519.109 -277.122)" fill="#e5918f"/>
        </g>
        <path id="Path_4533" data-name="Path 4533" d="M559.416,344.782H522.585v-3.6h36.831a1.8,1.8,0,0,1,1.8,1.8h0A1.8,1.8,0,0,1,559.416,344.782Z" transform="translate(-395.502 -138.302)" fill="#375f84"/>
        <path id="Path_4534" data-name="Path 4534" d="M574.477,369.81H482.258a2.457,2.457,0,0,1-2.368-1.8l-18.875-67.945a2.361,2.361,0,0,1,2.274-2.992h89.178a4.626,4.626,0,0,1,4.456,3.389l18.806,67.7A1.3,1.3,0,0,1,574.477,369.81Z" transform="translate(-430.491 -163.331)" fill="#375f84"/>
        <path id="Path_4535" data-name="Path 4535" d="M572.346,369.81H480.129a2.46,2.46,0,0,1-2.37-1.8l-18.874-67.945a2.361,2.361,0,0,1,2.274-2.992h89.176a4.627,4.627,0,0,1,4.458,3.389l18.806,67.7A1.3,1.3,0,0,1,572.346,369.81Z" transform="translate(-431.699 -163.331)" fill="#467cdb"/>
        <ellipse id="Ellipse_82" data-name="Ellipse 82" cx="9.481" cy="8.533" rx="9.481" ry="8.533" transform="translate(71.713 160.222)" fill="#fff"/>
      </g>
    </g>
    <g id="Group_769" data-name="Group 769" transform="translate(1477.641 191.573)">
      <path id="Path_4551" data-name="Path 4551" d="M646.27,207.074H575.216a8.246,8.246,0,0,0-8.246,8.246V232.1a8.249,8.249,0,0,0,7.205,8.181,1.186,1.186,0,0,1,1.04,1.18v9.19a.547.547,0,0,0,.991.317l7.237-10.12a1.2,1.2,0,0,1,.975-.5H646.27a8.246,8.246,0,0,0,8.246-8.246V215.32A8.246,8.246,0,0,0,646.27,207.074Z" transform="translate(-566.97 -207.074)" fill="#8ab1ff" stroke="#fff" stroke-miterlimit="10" stroke-width="0.896"/>
      <g id="Group_768" data-name="Group 768" transform="translate(13.717 13.898)">
        <path id="Path_4552" data-name="Path 4552" d="M582.644,220.168a2.715,2.715,0,1,1-2.716-2.716A2.715,2.715,0,0,1,582.644,220.168Z" transform="translate(-577.214 -217.453)" fill="#fff" stroke="#fff" stroke-miterlimit="10" stroke-width="0.896"/>
        <path id="Path_4553" data-name="Path 4553" d="M592.853,220.168a2.715,2.715,0,1,1-2.714-2.716A2.714,2.714,0,0,1,592.853,220.168Z" transform="translate(-573.753 -217.453)" fill="#fff" stroke="#fff" stroke-miterlimit="10" stroke-width="0.896"/>
        <path id="Path_4554" data-name="Path 4554" d="M603.061,220.168a2.714,2.714,0,1,1-2.714-2.716A2.713,2.713,0,0,1,603.061,220.168Z" transform="translate(-570.291 -217.453)" fill="#fff" stroke="#fff" stroke-miterlimit="10" stroke-width="0.896"/>
        <path id="Path_4555" data-name="Path 4555" d="M613.272,220.168a2.715,2.715,0,1,1-2.716-2.716A2.714,2.714,0,0,1,613.272,220.168Z" transform="translate(-566.83 -217.453)" fill="#fff" stroke="#fff" stroke-miterlimit="10" stroke-width="0.896"/>
        <path id="Path_4556" data-name="Path 4556" d="M623.481,220.168a2.715,2.715,0,1,1-2.714-2.716A2.713,2.713,0,0,1,623.481,220.168Z" transform="translate(-563.369 -217.453)" fill="#fff" stroke="#fff" stroke-miterlimit="10" stroke-width="0.896"/>
      </g>
    </g>
    <g id="Group_774" data-name="Group 774" transform="translate(1221.713 664.928)">
      <path id="Path_8614" data-name="Path 8614" d="M7.067,0H65.381a7.067,7.067,0,0,1,7.067,7.067V65.381a7.067,7.067,0,0,1-7.067,7.067H7.067A7.067,7.067,0,0,1,0,65.381V7.067A7.067,7.067,0,0,1,7.067,0Z" fill="#f63311"/>
      <path id="Path_4565" data-name="Path 4565" d="M358.05,413.57l20.8,12.006a1.926,1.926,0,0,1,0,3.336l-20.8,12.006a1.924,1.924,0,0,1-2.887-1.668V415.238A1.925,1.925,0,0,1,358.05,413.57Z" transform="translate(-330.383 -391.021)" fill="#fff"/>
    </g>
    <rect id="Rectangle_131" data-name="Rectangle 131" width="52.587" height="52.587" rx="10.076" transform="translate(1310.045 452.902)" fill="none" stroke="#193091" stroke-width="1"/>
    <g id="Group_4809" data-name="Group 4809" transform="translate(1323.167 459.486)">
      <path id="Path_4566" data-name="Path 4566" d="M613.556,401.694a6.318,6.318,0,1,1-6.318-6.319A6.318,6.318,0,0,1,613.556,401.694Z" transform="translate(-594.066 -395.375)" fill="#193091"/>
      <path id="Path_4567" data-name="Path 4567" d="M620.491,422.911v9.327a1.526,1.526,0,0,1-1.525,1.526H595.674a1.527,1.527,0,0,1-1.526-1.526v-9.327a13.171,13.171,0,0,1,13.171-13.17h0A13.17,13.17,0,0,1,620.491,422.911Z" transform="translate(-594.148 -395.201)" fill="#193091"/>
    </g>
    <g id="Group_4810" data-name="Group 4810" transform="translate(65.586 -66.236)">
      <ellipse id="Ellipse_80" data-name="Ellipse 80" cx="58.888" cy="58.888" rx="58.888" ry="58.888" transform="matrix(0.233, -0.972, 0.972, 0.233, 1521.414, 387.961)" fill="none" stroke="#bec6ed" stroke-miterlimit="10" stroke-width="0.79"/>
      <circle id="Ellipse_81" data-name="Ellipse 81" cx="51.196" cy="51.196" r="51.196" transform="translate(1524.868 318.312) rotate(-23.868)" fill="#6974d8"/>
      <path id="Path_4586" data-name="Path 4586" d="M577.612,112.583a4.66,4.66,0,1,1-4.66-4.661A4.66,4.66,0,0,1,577.612,112.583Z" transform="translate(1018.449 231.831)" fill="#fff"/>
      <path id="Path_4587" data-name="Path 4587" d="M578.3,123.38h0a1.458,1.458,0,0,1-1.982-.567L561.262,95.655a1.457,1.457,0,0,1,.567-1.982h0a1.457,1.457,0,0,1,1.982.567L578.868,121.4A1.457,1.457,0,0,1,578.3,123.38Z" transform="translate(1012.593 220.118)" fill="#fff"/>
      <path id="Path_4588" data-name="Path 4588" d="M571.465,111.094h0a1.459,1.459,0,0,1,2.062,0l13.026,13.027a1.457,1.457,0,0,1,0,2.06h0a1.455,1.455,0,0,1-2.062,0l-13.026-13.026A1.459,1.459,0,0,1,571.465,111.094Z" transform="translate(1020.677 234.06)" fill="#fff"/>
      <g id="Group_781" data-name="Group 781" transform="translate(1544.535 297.548)">
        <line id="Line_15" data-name="Line 15" y1="5.888" transform="translate(47.18)" fill="none" stroke="#fff" stroke-linecap="round" stroke-miterlimit="10" stroke-width="2"/>
        <line id="Line_16" data-name="Line 16" x2="5.888" transform="translate(87.845 47.18)" fill="none" stroke="#fff" stroke-linecap="round" stroke-miterlimit="10" stroke-width="2"/>
        <line id="Line_17" data-name="Line 17" y2="5.888" transform="translate(46.553 87.845)" fill="none" stroke="#fff" stroke-linecap="round" stroke-miterlimit="10" stroke-width="2"/>
        <line id="Line_18" data-name="Line 18" x1="5.888" transform="translate(0 46.553)" fill="none" stroke="#fff" stroke-linecap="round" stroke-miterlimit="10" stroke-width="2"/>
      </g>
      <line id="Line_19" data-name="Line 19" x1="2.944" y1="5.099" transform="translate(1568.24 303.67)" fill="none" stroke="#dee3fc" stroke-linecap="round" stroke-miterlimit="10" stroke-width="1"/>
      <line id="Line_20" data-name="Line 20" y1="2.944" x2="5.099" transform="translate(1627.046 321.253)" fill="none" stroke="#dee3fc" stroke-linecap="round" stroke-miterlimit="10" stroke-width="1"/>
      <line id="Line_21" data-name="Line 21" x2="2.944" y2="5.099" transform="translate(1611.619 380.059)" fill="none" stroke="#dee3fc" stroke-linecap="round" stroke-miterlimit="10" stroke-width="1"/>
      <line id="Line_22" data-name="Line 22" x1="5.099" y2="2.944" transform="translate(1550.657 364.632)" fill="none" stroke="#dee3fc" stroke-linecap="round" stroke-miterlimit="10" stroke-width="1"/>
      <line id="Line_23" data-name="Line 23" x1="5.099" y1="2.944" transform="translate(1550.971 320.71)" fill="none" stroke="#dee3fc" stroke-linecap="round" stroke-miterlimit="10" stroke-width="1"/>
      <line id="Line_24" data-name="Line 24" y1="5.099" x2="2.944" transform="translate(1612.162 303.984)" fill="none" stroke="#dee3fc" stroke-linecap="round" stroke-miterlimit="10" stroke-width="1"/>
      <line id="Line_25" data-name="Line 25" x2="5.099" y2="2.944" transform="translate(1626.733 365.175)" fill="none" stroke="#dee3fc" stroke-linecap="round" stroke-miterlimit="10" stroke-width="1"/>
      <line id="Line_26" data-name="Line 26" x1="2.944" y2="5.099" transform="translate(1567.697 379.746)" fill="none" stroke="#dee3fc" stroke-linecap="round" stroke-miterlimit="10" stroke-width="1"/>
    </g>
    <g id="Group_788" data-name="Group 788" transform="translate(1639.601 564.527)">
      <rect id="Rectangle_136" data-name="Rectangle 136" width="69.437" height="69.437" rx="4.513" fill="#7e89fd" stroke="#dee3fc" stroke-miterlimit="10" stroke-width="1"/>
    </g>
    <g id="Group_793" data-name="Group 793" transform="translate(1653.581 578.505)">
      <g id="Group_789" data-name="Group 789" transform="translate(4.556)">
        <path id="Path_4593" data-name="Path 4593" d="M598.194,351.428a2.046,2.046,0,0,1-.587-.082,2.147,2.147,0,0,1-1.484-2.652l10.5-37.171a2.15,2.15,0,1,1,4.139,1.168l-10.5,37.171A2.15,2.15,0,0,1,598.194,351.428Z" transform="translate(-596.041 -309.953)" fill="#fff"/>
      </g>
      <g id="Group_790" data-name="Group 790" transform="translate(22.114)">
        <path id="Path_4594" data-name="Path 4594" d="M606.357,351.428a2.025,2.025,0,0,1-.585-.082,2.146,2.146,0,0,1-1.486-2.652l10.5-37.171a2.15,2.15,0,1,1,4.138,1.168l-10.5,37.171A2.148,2.148,0,0,1,606.357,351.428Z" transform="translate(-604.204 -309.953)" fill="#fff"/>
      </g>
      <g id="Group_791" data-name="Group 791" transform="translate(0 10.166)">
        <path id="Path_4595" data-name="Path 4595" d="M633.245,318.981H596.074a2.151,2.151,0,0,1,0-4.3h37.171a2.151,2.151,0,1,1,0,4.3Z" transform="translate(-593.923 -314.679)" fill="#fff"/>
      </g>
      <g id="Group_792" data-name="Group 792" transform="translate(0 27.146)">
        <path id="Path_4596" data-name="Path 4596" d="M633.245,326.875H596.074a2.151,2.151,0,0,1,0-4.3h37.171a2.151,2.151,0,0,1,0,4.3Z" transform="translate(-593.923 -322.573)" fill="#fff"/>
      </g>
    </g>
    <g id="Group_4806" data-name="Group 4806" transform="translate(1318.896 568.209)">
      <path id="Path_4597" data-name="Path 4597" d="M241.88,238.957H215.858A2.855,2.855,0,0,1,213,236.1h0a2.855,2.855,0,0,1,2.854-2.852H241.88a2.853,2.853,0,0,1,2.852,2.852h0A2.853,2.853,0,0,1,241.88,238.957Z" transform="translate(-213.004 -233.248)" fill="#f0f4ff"/>
      <path id="Path_4598" data-name="Path 4598" d="M289.983,245.04h-72.99c-2.2,0-3.989-1.276-3.989-2.852h0c0-1.576,1.786-2.854,3.989-2.854h72.99c2.2,0,3.986,1.278,3.986,2.854h0C293.969,243.763,292.185,245.04,289.983,245.04Z" transform="translate(-213.004 -226.666)" fill="#f0f4ff"/>
      <path id="Path_4599" data-name="Path 4599" d="M222.027,251.124h-6.169A2.855,2.855,0,0,1,213,248.269h0a2.853,2.853,0,0,1,2.854-2.852h6.169a2.851,2.851,0,0,1,2.852,2.852h0A2.853,2.853,0,0,1,222.027,251.124Z" transform="translate(-213.004 -220.083)" fill="#f0f4ff"/>
      <path id="Path_4600" data-name="Path 4600" d="M257.77,251.124H198.476a2.853,2.853,0,0,1-2.852-2.854h0a2.851,2.851,0,0,1,2.852-2.852H257.77a2.851,2.851,0,0,1,2.852,2.852h0A2.853,2.853,0,0,1,257.77,251.124Z" transform="translate(-179.657 -220.083)" fill="#f0f4ff"/>
      <path id="Path_8613" data-name="Path 8613" d="M259.847,251.124H223.476a2.853,2.853,0,0,1-2.852-2.854h0a2.851,2.851,0,0,1,2.852-2.852h36.371a2.851,2.851,0,0,1,2.852,2.852h0A2.853,2.853,0,0,1,259.847,251.124Z" transform="translate(-181.735 -245.417)" fill="#f0f4ff"/>
    </g>
    <g id="Group_4813" data-name="Group 4813" transform="translate(-13 8.78)">
      <path id="Path_4603" data-name="Path 4603" d="M126.455,428.1a16.664,16.664,0,0,1,.226-7.111c1.995-7.794,4.277-22.455-.8-38.294-8.462-26.423-42.76-49.825-42.76-49.825s9.31,38.993,16.964,55.6c5.6,12.156,15.406,25.988,20.845,33.272a16.255,16.255,0,0,1,2.993,6.832,284.446,284.446,0,0,1,4.728,54.8l2.574.1A287.13,287.13,0,0,0,126.455,428.1Z" transform="translate(929.733 142.19)" fill="#b6d3f8"/>
      <path id="Path_4604" data-name="Path 4604" d="M132.826,392.745c6.812-21.54,9.98-46.914,9.98-46.914s-30.751,25.374-33.271,45.006a65.89,65.89,0,0,0,2.1,27.346,18.707,18.707,0,0,1,.725,7.435,260.3,260.3,0,0,0-.634,51.374l2.313-.266A256.384,256.384,0,0,1,114.4,428.5a19.189,19.189,0,0,1,4.236-10.19C123.04,412.876,129.332,403.792,132.826,392.745Z" transform="translate(950.708 152.706)" fill="#68a5f2"/>
      <path id="Path_4605" data-name="Path 4605" d="M161.979,345.278s-33.138,12.3-41.8,39.354c-5.274,16.468-2.783,31.689-.721,39.571a13.6,13.6,0,0,1-.005,6.743c-7.763,31.135-7.882,63.365-7.882,63.795H114.2c0-.42.121-31.883,7.618-62.42a23.4,23.4,0,0,1,3.929-8.392c5.65-7.612,15.268-21.308,20.839-33.39C154.428,373.539,161.979,345.278,161.979,345.278Z" transform="translate(952.816 152.258)" fill="#b6d3f8"/>
      <path id="Path_4606" data-name="Path 4606" d="M131.768,451a91.909,91.909,0,0,0-7.652-30.077,10.269,10.269,0,0,1-.772-5.442,49.724,49.724,0,0,0-.774-16.172c-2.69-13.275-20.31-41.954-45.821-43.635,0,0,8.8,14.151,13.332,25.991,5.73,14.978,13.911,30.649,27.475,36.662a10.194,10.194,0,0,1,5.248,5.449,88.911,88.911,0,0,1,6.64,27.392Z" transform="translate(924.557 160.696)" fill="#68a5f2"/>
      <g id="Group_798" data-name="Group 798" transform="translate(1028.089 597.407)">
        <g id="Group_797" data-name="Group 797">
          <path id="Path_4607" data-name="Path 4607" d="M102.52,472.793h42.1l10.924-66.749a4.855,4.855,0,0,0-4.792-5.638H96.388a4.854,4.854,0,0,0-4.79,5.638Z" transform="translate(-91.533 -400.406)" fill="#b6d3f8"/>
        </g>
      </g>
    </g>
    <rect id="Rectangle_260" data-name="Rectangle 260" width="74.956" height="74.956" rx="4.861" transform="translate(1219.668 546.642)" fill="#fff"/>
    <path id="Path_8616" data-name="Path 8616" d="M301.84,181.917V167.733a2.51,2.51,0,0,0-2.511-2.511h-3.65a2.3,2.3,0,0,1-2.254-1.768,50.172,50.172,0,0,0-6.318-15.333,2.341,2.341,0,0,1,.306-2.9l2.567-2.567a2.513,2.513,0,0,0,0-3.553L279.95,129.068a2.511,2.511,0,0,0-3.552,0l-2.564,2.564a2.339,2.339,0,0,1-2.9.3,50.217,50.217,0,0,0-15.337-6.325,2.3,2.3,0,0,1-1.767-2.253V119.72a2.513,2.513,0,0,0-2.513-2.513H237.132a2.513,2.513,0,0,0-2.513,2.513v3.638a2.3,2.3,0,0,1-1.768,2.254,50.187,50.187,0,0,0-15.339,6.324,2.339,2.339,0,0,1-2.9-.306l-2.561-2.561a2.511,2.511,0,0,0-3.552,0L198.467,139.1a2.513,2.513,0,0,0,0,3.553l2.564,2.564a2.337,2.337,0,0,1,.3,2.9,50.268,50.268,0,0,0-6.32,15.337,2.3,2.3,0,0,1-2.253,1.768h-3.646a2.512,2.512,0,0,0-2.513,2.511v14.183a2.513,2.513,0,0,0,2.513,2.512h3.648a2.3,2.3,0,0,1,2.253,1.767,50.239,50.239,0,0,0,6.321,15.333,2.339,2.339,0,0,1-.3,2.9L198.467,207a2.511,2.511,0,0,0,0,3.552l10.028,10.029a2.511,2.511,0,0,0,3.552,0l2.57-2.571a2.341,2.341,0,0,1,2.9-.3,50.223,50.223,0,0,0,15.331,6.313,2.3,2.3,0,0,1,1.768,2.254v3.657a2.513,2.513,0,0,0,2.513,2.513h14.182a2.513,2.513,0,0,0,2.513-2.513v-3.659a2.3,2.3,0,0,1,1.768-2.254,50.208,50.208,0,0,0,15.329-6.313,2.338,2.338,0,0,1,2.9.3l2.572,2.572a2.511,2.511,0,0,0,3.552,0l10.028-10.029a2.511,2.511,0,0,0,0-3.552l-2.57-2.57a2.341,2.341,0,0,1-.306-2.9,50.169,50.169,0,0,0,6.32-15.33,2.3,2.3,0,0,1,2.253-1.768h3.653A2.511,2.511,0,0,0,301.84,181.917Zm-57.621,32.9a39.984,39.984,0,1,1,39.967-40A39.978,39.978,0,0,1,244.219,214.814Z" transform="translate(814.702 159.114)" fill="none" stroke="#193091" stroke-miterlimit="10" stroke-width="0.79"/>
    <g id="Group_939" data-name="Group 939" transform="translate(1001.307 548.048)">
      <path id="Path_4536" data-name="Path 4536" d="M298.064,328.1l11.51-11.8s.4-5.263,1.025-6.372,2.246-5.221,3.052-5.668a4.17,4.17,0,0,1,2.42,0,11.082,11.082,0,0,1,2.316-.539,6.791,6.791,0,0,1,2.059.655s1.721-.117,2.437-.117a1.53,1.53,0,0,1,.947.2,50.847,50.847,0,0,1,4.119-4.268c1.344-1.074,3.4-3.055,4.01-3.047.574.007.828,1.017.409,2.093a11.924,11.924,0,0,1-2.238,2.81l-5.244,7.947a11.268,11.268,0,0,0,1.373-.657c.478-.3,3.677-3.287,3.871-3.407s1.627-1.074,2.464-.118-5.491,8.534-6.508,9.551-6.832,3.961-6.832,3.961-6.141,11.048-6.739,11.764S298.064,328.1,298.064,328.1Z" transform="translate(-105.908 -247.817)" fill="#e49191"/>
      <path id="Path_4537" data-name="Path 4537" d="M321.921,291.163s-6.43,37.245-12.482,38.11c0,0-24.161.975-29.542-28.336-4.668-25.418,14.054-30.837,22.81-28.893S323.8,275.253,321.921,291.163Z" transform="translate(-118.931 -265.357)" fill="#e49191"/>
      <path id="Path_4538" data-name="Path 4538" d="M301.588,310.509s-3.385,4.562-4.57,15.613c0,0-10.063,1.439-19.339-3.337a136.883,136.883,0,0,0,5.613-32.513" transform="translate(-119.953 -252.55)" fill="#e49191"/>
      <path id="Path_4539" data-name="Path 4539" d="M295.8,268.389c-13.2,2.917-12.147,11.142-12.147,11.142-6.18,1.53-7.509,4.082-7.459,15.491s4.18,25.11,6.457,26.225,15.184,1.169,16.262.777,5.594-10.858,4.542-12.7.052-9.083,3.059-9.357,2.417,4.385,2.417,4.385l2.471-.542,1.909-4.679c17.447,1.039,21.955-18.844,21.955-18.844C331.072,277.555,309,265.472,295.8,268.389Z" transform="translate(-120.977 -267.938)" fill="#002c54"/>
      <path id="Path_4540" data-name="Path 4540" d="M204.062,417.558l13.35,1.929-4.422,15.589-14.458-3.646s-5.883-7.974,3-13.872A4.864,4.864,0,0,1,204.062,417.558Z" transform="translate(-175.8 -164.968)" fill="#e5918f"/>
      <path id="Path_4541" data-name="Path 4541" d="M298.579,418.472,278.9,358.894s-5.964-2.125-9.017,0c0,0-20.5,11.022-18.312,42.451,1.648,23.693,6.651,49.391,8.678,59.7l-52.5-1.942a17.887,17.887,0,0,0-2.287,17.719s65.965,17.741,75.256,19.379c7.552,1.334,15.817,2.361,19.809-1.059C307.565,489.115,298.579,418.472,298.579,418.472Z" transform="translate(-170.677 -205.921)" fill="#010e19"/>
      <path id="Path_4542" data-name="Path 4542" d="M240.863,417.558l13.35,1.929-4.422,15.589-14.458-3.646s-5.883-7.974,3-13.872A4.864,4.864,0,0,1,240.863,417.558Z" transform="translate(-150.444 -164.968)" fill="#e5918f"/>
      <path id="Path_4543" data-name="Path 4543" d="M244.513,427.363c-.3,3.069,2.386,5.832,1.9,6.6s-9.465,15.821-9.465,15.821,6.774,2.951,5.682,7.212H225.468s-4.479-4.043-4.371-9.835a49.772,49.772,0,0,1,4.226-12.566c3.059-5.9,10.016-19.224,10.016-19.224a9.713,9.713,0,0,1,5.719.11,34.686,34.686,0,0,1,8.3,3.712S245.251,419.78,244.513,427.363Z" transform="translate(-158.938 -166.6)" fill="#467cdb"/>
      <path id="Path_4544" data-name="Path 4544" d="M368.955,482.237c-4.236-15.806-44.091-83.282-57.574-101.5-27.693-12.024-57.209-22.227-57.209-22.227-12.206,2.915-18.219,27.512-11.3,43.909,4.749,11.25,34.881,39.563,53.333,56.232l-51.2-.061s-6.033,9.016-.566,17.579c0,0,85.16,19.364,92.631,20.457s24.232,0,24.232,0S372.521,495.543,368.955,482.237Z" transform="translate(-145.946 -205.536)" fill="#00213e"/>
      <path id="Path_4545" data-name="Path 4545" d="M207.712,427.363c-.3,3.069,2.387,5.832,1.9,6.6s-9.467,15.821-9.467,15.821,6.776,2.951,5.683,7.212H188.667s-4.481-4.043-4.371-9.835a49.772,49.772,0,0,1,4.226-12.566c3.059-5.9,10.016-19.224,10.016-19.224a9.711,9.711,0,0,1,5.719.11,34.721,34.721,0,0,1,8.3,3.712S208.45,419.78,207.712,427.363Z" transform="translate(-184.294 -166.6)" fill="#467cdb"/>
      <path id="Path_4546" data-name="Path 4546" d="M380.16,308.679,352.7,356.989l-19.67-19.606-16.28,24.234,4.728,2.27-1.7,1.415s37.958,18.486,42.507,14.409,25.742-65.539,25.742-65.539Z" transform="translate(-93.037 -239.868)" fill="#e49191"/>
      <path id="Path_4547" data-name="Path 4547" d="M389.558,344.056S384.373,365.928,374,376.3l-26.534-10.1s-12.313,20.707-24.355,36.583c-4.628,6.131-6.165,14.762-11.6,15.893-.338-.118-.659-.22-1-.3-14.745-4.425-36.5.27-54.453-6.4-19.829-7.381-15.978-11.536-15.978-11.536s12.026-21.67,18.849-44.623a273.59,273.59,0,0,0,6.553-26.906,30.979,30.979,0,0,1,26.078-24.946c.152-.017.287-.051.439-.068,15.032-1.909,54.385,2.736,62.036,6.013S389.558,344.056,389.558,344.056Z" transform="translate(-146.063 -243.473)" fill="#467cdb"/>
      <path id="Path_4548" data-name="Path 4548" d="M318.209,342.032s-12.313,20.707-24.355,36.583c-4.628,6.131-6.165,14.762-11.6,15.893,2.381-.844,6.334-13.377,7.736-16.2,1.419-2.8,3.665-5.624,8.529-15.471,4.847-9.864,11.428-24.32,11.428-24.32Z" transform="translate(-116.803 -219.307)" fill="#5996ef"/>
      <path id="Path_4549" data-name="Path 4549" d="M273.26,417.805s13.655-.468,26.47,3.8" transform="translate(-122.997 -164.692)" fill="none" stroke="#000" stroke-miterlimit="10" stroke-width="1.065"/>
      <path id="Path_4550" data-name="Path 4550" d="M375.468,301.678c-.444-.046-3.258,2.214-4.618,3.331l1.566-3a29.505,29.505,0,0,0,2.815-3.1c.747-1.1.353-2.2-.235-2.255-.414-.042-2.892,1.924-4.326,3.093l.316-.6a29.512,29.512,0,0,0,2.816-3.1c.745-1.1.353-2.2-.235-2.255s-5.352,3.94-5.352,3.94l-2.321,3.106,1.748-3.4a14.656,14.656,0,0,0,1.537-2.354c.613-1.228.171-1.6-.171-2.013s-3.548,1.979-4.368,2.934a49.533,49.533,0,0,0-3.616,5.374l-2.68,5.545c-.172-1.606-.441-4.356-.63-6.107-.274-2.525-2.559-3.123-2.638-1.9s-1.353,7.268-1.064,10.543.836,5.425,1.04,7.268-1.706,5.525-1.706,5.525,7.643,4.746,8.908,3.326a59.7,59.7,0,0,0,5.253-6.7,35.687,35.687,0,0,0,2.991-6.756l2.388-5.1a29.515,29.515,0,0,0,2.816-3.1C376.447,302.834,376.055,301.736,375.468,301.678Z" transform="translate(-67.818 -250.649)" fill="#e49191"/>
    </g>
  </g>
</svg>
