<svg xmlns="http://www.w3.org/2000/svg" width="167" height="61" viewBox="0 0 167 61">
  <g id="Group_946" data-name="Group 946" transform="translate(-1783.5 -43.327)">
    <rect id="Rectangle_259" data-name="Rectangle 259" width="166" height="60" rx="30" transform="translate(1784 43.827)" fill="#f8fafe" stroke="#b2b3b9" stroke-width="1"/>
    <g id="Group_938" data-name="Group 938" transform="translate(44.299 13.411)">
      <path id="Path_240" data-name="Path 240" d="M3777.329,105.253a28.17,28.17,0,1,0-29.073,29.078c.308.009.615.015.914.015a28.169,28.169,0,0,0,28.16-29.093Zm-12.177,16.39a22.074,22.074,0,0,1-15.982,6.769c-.242,0-.485,0-.727-.012a22.24,22.24,0,0,1,.727-44.467c.243,0,.494,0,.737.011a22.242,22.242,0,0,1,15.245,37.7Z" transform="translate(-1978.574 -45.758)" fill="#2d72f1"/>
      <path id="Path_241" data-name="Path 241" d="M3761.04,107.444,3747.78,97.9a2.141,2.141,0,0,0-3.39,1.744v19.092a2.141,2.141,0,0,0,3.39,1.744l13.26-9.546A2.151,2.151,0,0,0,3761.04,107.444Z" transform="translate(-1980 -49)" fill="#2d72f1"/>
    </g>
  </g>
</svg>
