<svg id="Group_18" data-name="Group 18" xmlns="http://www.w3.org/2000/svg" width="30.016" height="34.148" viewBox="0 0 30.016 34.148">
  <path id="Path_219" data-name="Path 219" d="M2008.106,363.406a3.005,3.005,0,0,0-3,3v8.137a3,3,0,1,0,6,0v-8.137A3.007,3.007,0,0,0,2008.106,363.406Z" transform="translate(-2001.106 -349.4)" fill="#b8bdc6"/>
  <path id="Path_220" data-name="Path 220" d="M2002.426,366.778a4.573,4.573,0,0,1,.086-.843,2.991,2.991,0,0,0-2.092,2.844v4.134a2.991,2.991,0,0,0,2.092,2.844,4.574,4.574,0,0,1-.086-.843Z" transform="translate(-2000.42 -349.77)" fill="#b8bdc6"/>
  <path id="Path_221" data-name="Path 221" d="M2025.493,363.406a3.007,3.007,0,0,0-3,3v8.137a3.007,3.007,0,0,0,3,3,2.919,2.919,0,0,0,.854-.141,2.986,2.986,0,0,1-2.86,2.141H2020.3a3,3,0,1,0,0,2h3.184a5.009,5.009,0,0,0,5-5V366.408A3.005,3.005,0,0,0,2025.493,363.406Z" transform="translate(-2002.477 -349.4)" fill="#b8bdc6"/>
  <path id="Path_222" data-name="Path 222" d="M2033.13,365.935a4.6,4.6,0,0,1,.085.843v8.137a4.6,4.6,0,0,1-.085.843,2.991,2.991,0,0,0,2.092-2.844v-4.134A2.991,2.991,0,0,0,2033.13,365.935Z" transform="translate(-2005.206 -349.77)" fill="#b8bdc6"/>
  <path id="Path_223" data-name="Path 223" d="M2015.428,347a15.026,15.026,0,0,0-15.008,15.006v.026a4.984,4.984,0,0,1,2.049-.93,12.99,12.99,0,0,1,25.918,0,4.985,4.985,0,0,1,2.049.93v-.026A15.026,15.026,0,0,0,2015.428,347Z" transform="translate(-2000.42 -347)" fill="#b8bdc6"/>
</svg>
