<svg xmlns="http://www.w3.org/2000/svg" width="31.95" height="31.95" viewBox="0 0 31.95 31.95">
  <path id="home" d="M31.092,13.9l0,0L18.055.861a2.941,2.941,0,0,0-4.16,0L.867,13.887.854,13.9a2.94,2.94,0,0,0,1.958,5.011q.045,0,.091,0h.52v9.591a3.446,3.446,0,0,0,3.443,3.442h5.1a.936.936,0,0,0,.936-.936V23.494a1.572,1.572,0,0,1,1.571-1.571h3.008a1.572,1.572,0,0,1,1.571,1.571v7.519a.936.936,0,0,0,.936.936h5.1a3.446,3.446,0,0,0,3.443-3.442V18.916h.482a2.942,2.942,0,0,0,2.082-5.02Zm0,0" transform="translate(0 0.001)" fill="#2d72f1"/>
</svg>
