<svg xmlns="http://www.w3.org/2000/svg" width="31" height="31" viewBox="0 0 31 31">
  <g id="info-button" transform="translate(0 0)">
    <g id="Group_986" data-name="Group 986" transform="translate(0 0)">
      <path id="Path_5006" data-name="Path 5006" d="M26.461,4.539a15.5,15.5,0,1,0,0,21.921A15.5,15.5,0,0,0,26.461,4.539Zm-8.94,17.7a2.022,2.022,0,0,1-4.044,0V14.152a2.022,2.022,0,0,1,4.044,0ZM15.464,10.7a1.8,1.8,0,0,1-1.917-1.843,1.8,1.8,0,0,1,1.94-1.867,1.859,1.859,0,1,1-.024,3.711Z" transform="translate(0 0)" fill="#86888b"/>
    </g>
  </g>
</svg>
