<svg id="Group_403" data-name="Group 403" xmlns="http://www.w3.org/2000/svg" width="39.694" height="39.694" viewBox="0 0 39.694 39.694">
  <path id="Path_526" data-name="Path 526" d="M264.6,350.8a3.8,3.8,0,1,1-3.8-3.8,3.8,3.8,0,0,1,3.8,3.8Zm0,0" transform="translate(-240.952 -330.952)" fill="#b8bdc6"/>
  <path id="Path_527" data-name="Path 527" d="M203.711,278.11a3.774,3.774,0,0,0-2.163-2.163,6.306,6.306,0,0,0-2.116-.392c-1.2-.055-1.562-.067-4.605-.067s-3.4.012-4.605.066a6.31,6.31,0,0,0-2.116.392,3.776,3.776,0,0,0-2.163,2.163,6.309,6.309,0,0,0-.392,2.116c-.055,1.2-.067,1.562-.067,4.605s.012,3.4.067,4.605a6.306,6.306,0,0,0,.392,2.116,3.774,3.774,0,0,0,2.163,2.163,6.3,6.3,0,0,0,2.116.392c1.2.055,1.562.066,4.6.066s3.4-.012,4.605-.066a6.3,6.3,0,0,0,2.116-.392,3.774,3.774,0,0,0,2.163-2.163,6.312,6.312,0,0,0,.392-2.116c.055-1.2.066-1.562.066-4.605s-.012-3.4-.066-4.605a6.3,6.3,0,0,0-.392-2.116Zm-8.884,12.573a5.852,5.852,0,1,1,5.852-5.852,5.852,5.852,0,0,1-5.852,5.852Zm6.083-10.568a1.368,1.368,0,1,1,1.368-1.368,1.368,1.368,0,0,1-1.368,1.368Zm0,0" transform="translate(-174.98 -264.984)" fill="#b8bdc6"/>
  <path id="Path_528" data-name="Path 528" d="M69.847,140a19.847,19.847,0,1,0,19.847,19.847A19.849,19.849,0,0,0,69.847,140Zm11.328,24.546a8.361,8.361,0,0,1-.53,2.766,5.827,5.827,0,0,1-3.333,3.333,8.367,8.367,0,0,1-2.766.53c-1.215.055-1.6.069-4.7.069s-3.483-.013-4.7-.069a8.366,8.366,0,0,1-2.766-.53,5.827,5.827,0,0,1-3.333-3.333,8.359,8.359,0,0,1-.53-2.766c-.056-1.216-.069-1.6-.069-4.7s.013-3.483.069-4.7a8.362,8.362,0,0,1,.529-2.766,5.831,5.831,0,0,1,3.333-3.333,8.369,8.369,0,0,1,2.766-.53c1.215-.055,1.6-.069,4.7-.069s3.483.013,4.7.069a8.371,8.371,0,0,1,2.766.529,5.829,5.829,0,0,1,3.333,3.333,8.36,8.36,0,0,1,.53,2.766c.055,1.215.068,1.6.068,4.7s-.013,3.483-.069,4.7Zm0,0" transform="translate(-50 -140)" fill="#b8bdc6"/>
</svg>
