<?xml version="1.0" encoding="utf-8"?>
<!-- Generator: Adobe Illustrator 26.2.1, SVG Export Plug-In . SVG Version: 6.00 Build 0)  -->
<svg version="1.1" id="Layer_1" xmlns="http://www.w3.org/2000/svg" xmlns:xlink="http://www.w3.org/1999/xlink" x="0px" y="0px"
	 viewBox="0 0 905.7 680.4" style="enable-background:new 0 0 905.7 680.4;" xml:space="preserve">
<style type="text/css">
	.st0{fill:#FFFFFF;}
	.st1{opacity:0.33;fill:#1145A5;enable-background:new    ;}
	.st2{fill:#36A720;}
	.st3{fill:#2A4E96;}
	.st4{fill:#263238;}
	.st5{fill:#455A64;}
	.st6{fill:#29CC09;}
	.st7{fill:#0A0A0A;}
	.st8{fill:#2D72F1;}
	.st9{fill:#FF2600;}
	.st10{fill:#FFB600;}
	.st11{font-family:'Roboto-Regular';}
	.st12{font-size:19px;}
	.st13{fill:#FFD500;}
	.st14{opacity:0.3;}
	.st15{fill:#FFBE9D;}
	.st16{fill:#EB996E;}
	.st17{opacity:0.6;}
	.st18{fill:#FFAB17;}
	.st19{fill:#FF725E;}
	.st20{fill:none;}
</style>
<g id="Group_6823" transform="translate(-941.474 -218.565)">
	<g id="Group_6820">
		<path id="Path_5078" class="st0" d="M1847.2,530c-1.5-0.4-3-0.6-4.6-0.5c-1.5-0.1-3.1,0-4.6,0.3c1.5,0.4,3,0.6,4.6,0.5
			C1844.2,530.5,1845.7,530.4,1847.2,530z"/>
		<path id="Path_5194" class="st0" d="M1565,898.5c0,0.2,10.4,0.4,23.1,0.4c12.8,0,23.1-0.2,23.1-0.4s-10.4-0.4-23.1-0.4
			C1575.4,898.1,1565,898.3,1565,898.5z"/>
		<path id="Path_5196" class="st0" d="M1177.5,898.5c0,0.2,10.4,0.4,23.1,0.4c12.8,0,23.1-0.2,23.1-0.4s-10.4-0.4-23.1-0.4
			C1187.9,898.1,1177.5,898.3,1177.5,898.5z"/>
		<path id="BG" class="st1" d="M1739.7,674.9c-12.2-33.8-31.3-44-49.6-65.7c-22.3-26.4-37.3-45.7-31.5-79.7
			c9.4-55.6,13.5-194.2-134.4-176.1c-53,6.5-94.9,46.9-125.4,87.3c-25.9,34.3-72.6,37.4-110.1,45.4c-46.1,9.8-93.1,24.7-135.8,46.5
			c-87.9,44.8-114.1,109.3-110.6,191.7c1.1,24.9,4.6,64.2,46.9,110.1c57.1,62,140,70.3,239.8,41.8c22.8-6.5,44.4-16.7,66.9-24.4
			c23.4-8,47.6-13.2,72.2-15.6c57.3-5.5,116.8,4.5,171.8-12.6c29.2-9.1,55.6-25.4,76.8-47.4C1743.2,748.7,1752.5,710.6,1739.7,674.9
			z"/>
		<path id="Path_5021" class="st2" d="M1135.4,712.7l-14,99.7l-3.6,0.1C1120.1,778.7,1122.6,744.1,1135.4,712.7z"/>
		<path id="Path_5022" class="st2" d="M1096.5,708.1c9.8,10.7,13.7,25.5,16.2,39.8c3.5,20.3,3.8,44.2,2.8,64.8l-5.1,0.1
			C1112.4,777.3,1107.7,741.8,1096.5,708.1z"/>
		<path id="Path_5023" class="st2" d="M1132.8,771.8c1.1-4.9,2.4-10,5.2-14.2c3.8-5.7,10-9.3,16.3-12.1c6.2-2.7,12.8-5,18.5-8.9
			c-6.3,10.3-20.6,13.1-27.9,22.7c-3.6,4.8-5.1,10.8-6.5,16.7c-3.1,12.8-5,23.8-8.1,36.5h-4.1
			C1127.5,798.8,1129.7,785.2,1132.8,771.8L1132.8,771.8z"/>
		<path id="Path_5024" class="st2" d="M1106.6,812.6c0,0-3.5-39.6-6.1-46.9s-27.2-27.4-26.9-26.4c0.2,0.9,18.4,22.9,21,27.4
			c2.6,4.5,7.1,45.9,7.1,45.9H1106.6z"/>
		<path id="Path_5014" class="st3" d="M1098.3,760.8c0,0.2,153.3,0.3,342.4,0.3s342.4-0.2,342.4-0.3c0-0.2-153.3-0.3-342.4-0.3
			S1098.3,760.6,1098.3,760.8z"/>
		<path id="Path_5015" class="st3" d="M1123.2,780.5c0,0.2,33.3,0.4,74.5,0.4c41.2,0,74.5-0.2,74.5-0.4c0-0.2-33.3-0.3-74.5-0.3
			C1156.5,780.2,1123.2,780.3,1123.2,780.5z"/>
		<path id="Path_5019" class="st3" d="M983.9,877.2l89.7-97.4l59,23.2l10.4,16.8c6.3,10.2,14.9,18.7,25.1,25
			c12.6,7.8,29.6,20,35.8,32.4C1203.9,877.2,1055,879.3,983.9,877.2z"/>
		<path id="Path_5020" class="st3" d="M1732.3,877.2l-135.6-67.5l-59.5,67.5H1732.3z"/>
		<path id="Path_5025" class="st3" d="M1144.7,790.7c0.3,0.1,0.6,0.1,0.9,0.1l2.4,0.1l8.9,0.1l29.3,0.1l29.3-0.1l8.9-0.1l2.4-0.1
			c0.3,0,0.6,0,0.8-0.1c-0.3-0.1-0.6-0.1-0.8-0.1h-2.4l-8.9-0.1l-29.3-0.1l-29.3,0.1l-8.9,0.1h-2.4
			C1145.3,790.6,1145,790.7,1144.7,790.7z"/>
		<g id="freepik--Plants--inject-12" transform="translate(1007.618 743.515)">
			<path id="Path_5028" class="st4" d="M22.3,88c-0.1-0.3-0.2-0.6-0.3-0.9c-0.2-0.6-0.5-1.5-0.9-2.5c-0.9-2.7-2.3-5.3-4.1-7.6
				c-1.8-2.3-4.2-4.1-6.9-5.1c-0.8-0.3-1.7-0.5-2.6-0.6h-1c1.2,0.2,2.3,0.5,3.4,0.9c2.7,1.1,5,2.9,6.8,5.1c1.7,2.3,3.1,4.8,4.1,7.5
				c0.4,1,0.8,1.8,1,2.4C22,87.5,22.1,87.7,22.3,88L22.3,88z"/>
			<path id="Path_5032" class="st2" d="M727.1,116.2l-0.6-0.1c1.3-19.8,11.3-41.1,18.5-59.7c7.4-19.2,14.4-38.8,31.3-50.5
				C758.1,41.9,741.6,78.7,727.1,116.2"/>
			<path id="Path_5033" class="st5" d="M715.2,15.4v0.3l0.2,0.7l0.9,2.8c0.2,0.6,0.4,1.3,0.7,2l0.7,2.5c0.5,1.8,1.2,3.8,1.7,6
				c0.3,1.1,0.6,2.3,0.9,3.5s0.6,2.5,0.9,3.8c0.6,2.6,1.2,5.5,1.7,8.5c1,6.1,1.9,12.7,2.5,19.7s0.6,13.7,0.4,19.8
				c-0.1,3.1-0.2,6-0.5,8.7c-0.1,1.4-0.2,2.7-0.3,3.9c-0.1,1.3-0.3,2.5-0.4,3.6c-0.2,2.3-0.5,4.4-0.8,6.2l-0.4,2.5
				c-0.1,0.8-0.3,1.5-0.4,2.1c-0.2,1.3-0.4,2.2-0.5,2.9l-0.1,0.8c0,0.1,0,0.2,0,0.3c0,0,1.3-5.6,2.4-14.8c0.1-1.1,0.3-2.4,0.4-3.6
				s0.2-2.6,0.3-3.9c0.3-2.7,0.4-5.6,0.5-8.7c0.2-6.1,0.1-12.9-0.4-19.9c-0.5-7.1-1.5-13.7-2.5-19.8c-0.6-3.1-1.1-5.9-1.8-8.5
				c-0.3-1.3-0.6-2.6-0.9-3.8c-0.3-1.2-0.6-2.4-0.9-3.5c-0.6-2.2-1.3-4.2-1.8-6l-0.8-2.4l-0.7-2c-0.4-1.2-0.8-2.1-1-2.8
				c-0.1-0.3-0.2-0.5-0.3-0.7L715.2,15.4z"/>
			<path id="Rectangle_276" class="st6" d="M715.7,32.7l-7.7-27c-0.4-1.6,0.5-3.2,2.1-3.7l4-1.1c1.6-0.4,3.2,0.5,3.7,2.1l7.7,27
				c0.4,1.6-0.5,3.2-2.1,3.7l-4,1.1C717.8,35.2,716.2,34.3,715.7,32.7z"/>
			<path id="Path_5034" class="st4" d="M720.9,34.3c-0.3,0.1-0.5,0.1-0.8,0.1c-0.8,0.1-1.6-0.1-2.3-0.4c-1.1-0.5-2-1.5-2.4-2.6
				c-0.4-1.4-0.8-3-1.3-4.7c-1-3.5-2.2-7.7-3.5-12.4c-0.6-2.3-1.3-4.8-2-7.3c-0.3-1.3-0.1-2.6,0.7-3.6c0.4-0.5,0.9-1,1.4-1.3
				c0.6-0.3,1.3-0.5,1.9-0.7c1.9-0.5,4,0.3,4.9,2.1c0.3,0.6,0.5,1.2,0.6,1.8c0.7,2.5,1.4,5,2.1,7.3c1.3,4.6,2.5,8.8,3.5,12.3
				c0.3,0.9,0.5,1.7,0.7,2.5c0.3,0.7,0.4,1.5,0.5,2.2c0,1.2-0.5,2.4-1.4,3.2c-0.6,0.5-1.3,0.9-2,1.1l-0.6,0.2L720.9,34.3l0.2,0
				l0.6-0.2c2.1-0.4,3.6-2.3,3.6-4.4c0-0.8-0.2-1.6-0.4-2.3c-0.2-0.8-0.4-1.6-0.7-2.5c-1-3.5-2.2-7.6-3.5-12.4
				c-0.6-2.3-1.3-4.8-2-7.3c-0.1-0.7-0.4-1.3-0.7-1.9c-0.3-0.6-0.8-1.1-1.4-1.5c-1.2-0.9-2.7-1.1-4.1-0.7c-0.7,0.2-1.4,0.4-2,0.7
				c-0.6,0.3-1.1,0.8-1.5,1.4c-0.8,1.2-1.1,2.6-0.7,4c0.7,2.5,1.4,5,2.1,7.3l3.5,12.3c0.5,1.8,0.9,3.3,1.4,4.7
				c0.7,2,2.7,3.3,4.8,3.1C720.3,34.5,720.6,34.5,720.9,34.3L720.9,34.3z"/>
			<path id="Path_5035" class="st2" d="M722.8,116.2c0.6-15.3,0.6-32.2-8.1-44.9c-4.9-7.2-12.4-12.3-20.3-15.9
				c-8-3.3-16.4-5.9-24.9-7.7c9.4,13.2,30.7,13.3,39.7,26.8c2.7,4,3.9,8.7,5.1,13.4c2.5,9.6,4.7,18.7,7.2,28.4"/>
			<path id="Path_5036" class="st5" d="M790.1,62.3h-0.8c-0.5,0.1-1.3,0.1-2.3,0.3c-2.9,0.5-5.7,1.2-8.4,2.1
				c-4.1,1.4-8,3.2-11.7,5.4c-2.2,1.3-4.3,2.8-6.3,4.3c-2.2,1.7-4.2,3.5-6.1,5.5c-1.9,2-3.6,4.1-5.2,6.3c-0.8,1.1-1.5,2.2-2.2,3.2
				s-1.3,2.2-1.9,3.2c-2.1,3.8-3.8,7.7-5.1,11.8c-0.9,2.8-1.6,5.6-2,8.4c-0.2,1-0.2,1.8-0.3,2.3v0.6c0-0.2,0-0.4,0.1-0.6
				c0.1-0.5,0.2-1.3,0.4-2.3c0.5-2.8,1.2-5.6,2.1-8.4c1.3-4.1,3-8,5.1-11.7c0.6-1.1,1.2-2.1,1.9-3.2c0.7-1.1,1.4-2.2,2.2-3.2
				c1.6-2.2,3.3-4.3,5.2-6.3c1.9-2,3.9-3.8,6-5.5c2-1.6,4.1-3,6.2-4.3c6.1-3.7,12.9-6.3,20-7.6c1-0.2,1.8-0.3,2.3-0.4l0.6-0.1
				L790.1,62.3z"/>
			<path id="Rectangle_277" class="st6" d="M775.7,69.6l-1.8-3.8c-0.7-1.5-0.1-3.3,1.4-4l25.3-12.2c1.5-0.7,3.3-0.1,4,1.4l1.8,3.8
				c0.7,1.5,0.1,3.3-1.4,4L779.6,71C778.2,71.7,776.4,71,775.7,69.6z"/>
			<path id="Path_5037" class="st4" d="M774.5,67.2c-0.1-0.3-0.2-0.5-0.2-0.8c-0.5-2,0.4-4,2.2-5c1.3-0.6,2.8-1.3,4.4-2.1l11.5-5.5
				l6.8-3.3c1.2-0.5,2.5-0.5,3.7,0c0.6,0.3,1.1,0.7,1.5,1.2c0.4,0.6,0.7,1.1,1,1.8c0.6,1.2,0.6,2.6,0,3.8c-0.3,0.6-0.7,1.1-1.2,1.5
				c-0.5,0.4-1.1,0.7-1.7,0.9l-6.8,3.2l-11.5,5.6l-2.3,1.1c-0.7,0.4-1.4,0.7-2.1,0.8c-1.2,0.2-2.5-0.1-3.4-0.9
				c-0.6-0.5-1.1-1.1-1.4-1.8l-0.3-0.5C774.6,67.3,774.6,67.2,774.5,67.2c0,0,0,0.1,0,0.1l0.2,0.6c0.3,0.7,0.8,1.4,1.4,1.9
				c1,0.8,2.3,1.1,3.6,0.9c0.8-0.2,1.5-0.4,2.2-0.8l2.4-1.1l11.6-5.5c2.2-1.1,4.5-2.1,6.8-3.3c0.6-0.3,1.2-0.6,1.8-1
				c0.6-0.4,1-1,1.3-1.6c0.6-1.3,0.6-2.9,0-4.2c-0.3-0.7-0.6-1.3-1-1.8c-1.4-1.7-3.7-2.3-5.7-1.4l-6.8,3.3l-11.5,5.6
				c-1.6,0.8-3.1,1.5-4.4,2.2c-1.1,0.6-1.9,1.7-2.2,3c-0.2,0.8-0.2,1.6,0,2.4C774.2,66.7,774.3,67,774.5,67.2L774.5,67.2z"/>
		</g>
		<path id="Path_5055" class="st3" d="M1344,592.6c0.1-0.2-3.7-1.7-8.1-4.2c-4.4-2.4-7.7-4.8-7.9-4.6c2.2,2.2,4.7,3.9,7.5,5.3
			C1338.2,590.8,1341,591.9,1344,592.6z"/>
		<path id="Path_5056" class="st3" d="M1380.1,596.8c-3-0.4-6.1-0.5-9.2-0.4h-6.5c-0.9-0.1-1.8,0-2.7,0.2c0.9,0.3,1.8,0.4,2.7,0.4
			l2.9,0.2h3.6C1374,597.4,1377.1,597.3,1380.1,596.8z"/>
		<path id="Path_5057" class="st3" d="M1414.7,586.3c-0.1-0.2-3.6,2-8.2,4.1c-4.6,2.1-8.4,3.4-8.4,3.6c3-0.5,6-1.5,8.7-2.9
			C1409.7,589.9,1412.4,588.3,1414.7,586.3L1414.7,586.3z"/>
		<g id="freepik--Rocks--inject-12" transform="translate(1068.668 817.377)">
			<path id="Path_5178" class="st7" d="M377,59.7l33.1-35l27.2,1.5l19.2,7.6l12.2,25.8"/>
			<path id="Path_5179" class="st7" d="M437.3,26.3l-28.1,33.4H377l33.1-35L437.3,26.3z"/>
			<path id="Path_5180" class="st7" d="M468.8,59.8c0-0.2-0.1-0.3-0.2-0.5l-0.6-1.4c-0.6-1.3-1.3-3-2.4-5.3l-8.7-18.8v-0.1h-0.1
				l-19.2-7.7h-0.1l-13-0.7l-14.1-0.8h-0.2l-0.1,0.1l-23.6,25.1l-6.9,7.4c-0.8,0.8-1.3,1.5-1.8,2c-0.2,0.2-0.4,0.5-0.6,0.7
				c0.2-0.2,0.5-0.4,0.7-0.6l1.9-1.9l7-7.3c6-6.2,14.3-14.9,23.8-24.9l-0.3,0.1l14.1,0.8l13,0.7h-0.1l19.2,7.5l-0.1-0.1
				c3.7,7.7,6.8,14.1,9,18.7l2.5,5.2l0.7,1.3C468.6,59.5,468.7,59.6,468.8,59.8L468.8,59.8z"/>
			<path id="Path_5181" class="st7" d="M675.7,59.7l-12.6-22L640,31.4l-21.6,18.3v10"/>
			<path id="Path_5182" class="st7" d="M663.7,37.8l-44.6,11.9l21.6-18.3L663.7,37.8z"/>
			<path id="Path_5183" class="st7" d="M619.1,59.8c0.1-0.2,0.1-0.5,0.1-0.7v-2c0-1.8,0-4.3,0.1-7.4l-0.1,0.2l21.6-18.2l-0.3,0.1
				l5.3,1.4l17.8,4.9l-0.2-0.1l9.3,15.8c1.1,1.9,2,3.4,2.7,4.5l0.7,1.2c0.1,0.1,0.2,0.3,0.3,0.4c0-0.2-0.1-0.3-0.2-0.4l-0.6-1.2
				l-2.5-4.5l-9-15.9v-0.1h-0.1l-17.8-5l-5.3-1.5h-0.2l-0.1,0.1L619,49.6l-0.1,0.1v0.1c0,3.1,0.1,5.6,0.1,7.4v2
				C619.1,59.3,619.1,59.5,619.1,59.8L619.1,59.8z"/>
			<path id="Path_5184" class="st7" d="M160.6,20.3l32-18.2l56.2,20.5l45.4,37.2l-160.6-0.8L160.6,20.3z"/>
			<path id="Path_5185" class="st7" d="M294.2,59.7l-57.6-33.4l-76-6l33.3-19.7l54.9,21.9L294.2,59.7z"/>
			<path id="Path_5186" class="st7" d="M211.4,59.3l-28.8-19.7l-26.2-1.9l22,4.9l11.4,16.6L211.4,59.3z"/>
			<path id="Path_5187" class="st7" d="M294.2,59.8c0,0,0-0.1-0.2-0.2l-0.6-0.5L291,57l-9.3-7.7l-32.7-27l0,0L209,6l-14.8-6L194,0
				l-0.1,0.1l-33.3,20l0,0l-19.5,28.1l-5.4,7.9l-1.3,2.1c-0.2,0.2-0.3,0.5-0.5,0.7c0,0,0.2-0.2,0.5-0.7l1.5-2
				c1.3-1.8,3.2-4.5,5.5-7.8l19.7-28l-0.1,0.1l33.3-19.9h-0.3l14.8,6l40.1,16.2h-0.1l32.9,26.8l9.3,7.6l2.3,2l0.7,0.5L294.2,59.8z"
				/>
			<path id="Path_5188" class="st7" d="M155.6,37.7c0.7,0.2,1.4,0.3,2.1,0.3l5.7,0.5l19.3,1.5h-0.2l3.2,2.2
				c7.1,4.8,13.5,9.2,18.2,12.3l5.5,3.6l1.5,1c0.3,0.2,0.5,0.3,0.6,0.3c-0.1-0.2-0.3-0.3-0.5-0.4l-1.5-1.1l-5.4-3.8
				c-4.6-3.2-11-7.7-18-12.5l-3.2-2.2h-0.2l-19.3-1.3l-5.7-0.3C156.9,37.7,156.2,37.6,155.6,37.7L155.6,37.7z"/>
			<path id="Path_5189" class="st7" d="M9.3,40.6l19.2-7.6l32.1,5.8l15.5,20.9L0,59.7L9.3,40.6z"/>
			<path id="Path_5190" class="st7" d="M60.5,38.8c-0.9-0.2-51.3,1.8-51.3,1.8L28.5,33L60.5,38.8z"/>
			<path id="Path_5191" class="st7" d="M76.1,59.7c-0.1-0.1-0.1-0.3-0.2-0.4L75,58.1l-3.1-4.3L60.8,38.6l-0.1-0.1h-0.1l-23.9-4.4
				l-8.2-1.5h-0.2L9.2,40.3H9v0.1l-6.7,14l-1.8,3.9l-0.5,1C0.1,59.4,0,59.6,0,59.7c0.1-0.1,0.2-0.2,0.2-0.3l0.5-1
				c0.5-0.9,1.1-2.2,1.9-3.8c1.7-3.4,4-8.1,6.8-13.9l-0.1,0.1l19.2-7.5h-0.2l8.2,1.5L60.5,39l-0.2-0.1c4.7,6.2,8.6,11.3,11.4,15
				l3.2,4.2l0.9,1.1C75.8,59.4,76,59.5,76.1,59.7z"/>
		</g>
		<path id="Path_5193" class="st0" d="M1510.7,889c0,0.2,32.8,0.4,73.3,0.4c40.5,0,73.3-0.2,73.3-0.4s-32.8-0.4-73.3-0.4
			C1543.5,888.6,1510.7,888.8,1510.7,889z"/>
		<path id="Path_5195" class="st0" d="M1123.2,889c0,0.2,32.8,0.4,73.3,0.4c40.5,0,73.3-0.2,73.3-0.4s-32.8-0.4-73.3-0.4
			C1156,888.6,1123.2,888.8,1123.2,889z"/>
		<g>
			<path id="Path_5038" class="st8" d="M1765.1,482.6c1.5,0.1,3.1,0,4.6-0.4c-1.5-0.4-3-0.5-4.6-0.4c-1.5-0.1-3.1,0-4.6,0.4
				C1762,482.6,1763.5,482.8,1765.1,482.6z"/>
			<path id="Path_5012" class="st2" d="M1554.6,417.1c-0.6-2.9,1.7-5.8,4.4-7c2.7-1.2,5.8-1.3,8.7-1.4s6-0.5,8.5-2.3
				c2.5-1.8,3.8-4.9,6.5-6.3c3.5-2,7.9-0.5,12-0.7c4.7-0.3,8.9-2.9,13-5.1s9.2-3.7,13.5-1.9c5.7,2.4,8.1,10,14.1,12.1
				c2.7,0.9,5.7,0.5,8.6,0.7c6.1,0.5,14.1,5.2,13.3,10.9L1554.6,417.1z"/>
			<path id="Path_5016" class="st9" d="M1121.9,256c-0.8-4.3,2.5-8.5,6.4-10.3s8.4-1.8,12.8-2.1s8.8-0.8,12.4-3.4s5.6-7.1,9.5-9.3
				c5.2-2.9,11.7-0.7,17.6-1.1c6.8-0.4,12.9-4.3,19-7.4c6.1-3.1,13.4-5.5,19.7-2.8c8.4,3.6,11.9,14.8,20.6,17.8
				c4,1.4,8.4,0.7,12.6,1.1c8.8,0.7,20.6,7.6,19.5,15.9L1121.9,256z"/>
			<path id="Path_5017" class="st3" d="M946.1,445.3c-0.7-3.7,2.1-7.4,5.6-8.9s7.3-1.6,11.1-1.8s7.7-0.6,10.8-2.9s4.9-6.2,8.3-8.1
				c4.5-2.5,10.1-0.6,15.3-0.9c6-0.4,11.2-3.7,16.5-6.4c5.3-2.7,11.7-4.7,17.2-2.4c7.4,3.1,10.4,12.8,17.9,15.5
				c3.5,1.2,7.3,0.6,10.9,0.9c7.7,0.6,17.9,6.6,16.9,13.8L946.1,445.3z"/>
			<path id="Path_5018" class="st10" d="M1416.5,305.5c-0.5-2.6,1.5-5.2,3.9-6.3c2.5-0.9,5.2-1.4,7.8-1.3c2.7,0.1,5.3-0.7,7.6-2.1
				c2.2-1.7,3.5-4.4,5.8-5.7c3.2-1.8,7.2-0.4,10.8-0.7c4.2-0.3,7.9-2.7,11.7-4.5s8.2-3.3,12.1-1.7c5.2,2.2,7.3,9.1,12.6,10.9
				c2.4,0.9,5.1,0.5,7.7,0.7c5.5,0.4,12.7,4.7,12,9.8L1416.5,305.5z"/>
			<path id="Path_5039" class="st8" d="M1742.2,482.2c-6.1-0.5-12.2-0.5-18.3,0C1730,482.8,1736.1,482.8,1742.2,482.2z"/>
			<path id="Path_5040" class="st8" d="M1705.6,482.2c-6.1-0.5-12.2-0.5-18.3,0C1693.4,482.8,1699.5,482.8,1705.6,482.2z"/>
			<path id="Path_5041" class="st3" d="M1669,482.2c-6.1-0.5-12.2-0.5-18.3,0C1656.8,482.8,1662.9,482.8,1669,482.2z"/>
			<path id="Path_5042" class="st3" d="M1632.4,482.2c-6.1-0.5-12.2-0.5-18.3,0C1620.2,482.8,1626.3,482.8,1632.4,482.2z"/>
			<path id="Path_5043" class="st3" d="M1586.7,482.5c3.1,0.2,6.1,0.2,9.2-0.2c-3-0.4-6.1-0.6-9.2-0.6c-3-0.2-6.1-0.3-9.2-0.2
				C1580.5,482.1,1583.6,482.5,1586.7,482.5z"/>
			<path id="Path_5044" class="st3" d="M1545.1,466.6c1.6,2.7,3.8,4.9,6.3,6.6c1.8,1.3,3.7,2.4,5.7,3.2c0.8,0.4,1.7,0.7,2.6,0.8
				c0.1-0.2-3.7-1.8-7.8-4.7C1547.9,469.7,1545.3,466.5,1545.1,466.6L1545.1,466.6z"/>
			<path id="Path_5045" class="st3" d="M1535.4,441.2c0.2,3.1,0.9,6.1,2,8.9c0.3-0.1-0.6-4.1-1.3-9.1c-0.6-5-0.9-9.1-1.1-9.1
				C1534.8,435.1,1534.9,438.2,1535.4,441.2z"/>
			<path id="Path_5046" class="st3" d="M1526.9,406.3c2.7,4.3,4.3,8,4.5,7.9c-0.8-3-2.1-5.8-3.8-8.4c-1.5-2.7-3.5-5.1-5.7-7.2
				C1521.6,398.9,1524.2,402,1526.9,406.3z"/>
			<path id="Path_5047" class="st3" d="M1500.1,382.4c4.5,2.2,8,4.4,8.1,4.2c-2.3-2-4.9-3.7-7.8-4.9c-2.7-1.5-5.6-2.5-8.6-3.1
				C1491.7,378.8,1495.6,380.2,1500.1,382.4z"/>
			<path id="Path_5048" class="st3" d="M1464.6,376.4c2.5-0.2,4.8-0.3,6.4-0.3c0.9,0,1.8-0.1,2.7-0.3c-0.9-0.2-1.8-0.3-2.7-0.3
				c-2.2-0.1-4.3-0.1-6.5,0c-3.1,0.1-6.1,0.7-9,1.7C1455.6,377.4,1459.6,376.7,1464.6,376.4z"/>
			<path id="Path_5049" class="st3" d="M1430.9,388.6c4-3,7.6-5,7.5-5.2c-2.9,1.1-5.6,2.6-8,4.6c-2.6,1.7-4.8,3.8-6.7,6.3
				C1423.9,394.5,1426.9,391.6,1430.9,388.6z"/>
			<path id="Path_5050" class="st3" d="M1410,417.7c1.5-4.8,3.3-8.5,3.1-8.6c-3.2,5.3-5.1,11.3-5.3,17.4
				C1408,426.5,1408.5,422.5,1410,417.7z"/>
			<path id="Path_5051" class="st3" d="M1407.5,453.9c0.2-3.1,0.1-6.1-0.3-9.2c-0.4,3-0.6,6.1-0.5,9.2c-0.2,3.1-0.1,6.1,0.3,9.2
				C1407.4,460.1,1407.6,457,1407.5,453.9z"/>
			<path id="Path_5052" class="st3" d="M1406.9,490.5c0.2-3.1,0.1-6.1-0.3-9.2c-0.4,3-0.6,6.1-0.5,9.2c-0.2,3.1-0.1,6.1,0.3,9.2
				C1406.9,496.6,1407,493.6,1406.9,490.5z"/>
			<path id="Path_5053" class="st3" d="M1406.4,527.1c0.2-3.1,0.1-6.1-0.3-9.2c-0.4,3-0.6,6.1-0.5,9.2c-0.2,3.1-0.1,6.1,0.3,9.2
				C1406.3,533.2,1406.5,530.2,1406.4,527.1z"/>
			<path id="Path_5054" class="st3" d="M1395.8,570.8c2.1-2.3,3.8-4.9,5-7.7c1.5-2.7,2.5-5.7,2.9-8.7c-0.2-0.1-1.4,3.8-3.6,8.4
				S1395.6,570.6,1395.8,570.8L1395.8,570.8z"/>
			<path id="Path_5058" class="st3" d="M1273.6,558.5c0.7,3,2,5.8,3.6,8.4c1.5,2.7,3.3,5.2,5.6,7.3c0.2-0.1-2.4-3.3-4.9-7.6
				C1275.4,562.2,1273.8,558.4,1273.6,558.5L1273.6,558.5z"/>
			<path id="Path_5059" class="st3" d="M1269.7,531.4c-0.1,3.1,0,6.1,0.4,9.2c0.4-3,0.5-6.1,0.4-9.2c0.1-3.1,0-6.1-0.4-9.2
				C1269.7,525.3,1269.6,528.4,1269.7,531.4z"/>
			<path id="Path_5060" class="st3" d="M1269.7,494.9c-0.1,3.1,0,6.1,0.4,9.2c0.4-3,0.5-6.1,0.4-9.2c0.1-3.1,0-6.1-0.4-9.2
				C1269.7,488.7,1269.6,491.8,1269.7,494.9z"/>
			<path id="Path_5061" class="st3" d="M1269.7,458.2c-0.1,3.1,0,6.1,0.4,9.2c0.4-3,0.5-6.1,0.4-9.2c0.1-3.1,0-6.1-0.4-9.2
				C1269.7,452.1,1269.6,455.2,1269.7,458.2z"/>
			<path id="Path_5062" class="st3" d="M1269.7,421.6c-0.1,3.1,0,6.1,0.4,9.2c0.4-3,0.5-6.1,0.4-9.2c0.1-3.1,0-6.1-0.4-9.2
				C1269.7,415.5,1269.6,418.6,1269.7,421.6z"/>
			<path id="Path_5063" class="st3" d="M1269.9,378.6c-0.1,1.6-0.1,3.9-0.1,6.5c-0.1,3.1,0,6.1,0.4,9.2c0.4-3,0.5-6.1,0.4-9.2
				c0-2.5,0-4.8-0.1-6.5c0-0.9-0.1-1.8-0.4-2.7C1269.9,376.8,1269.9,377.7,1269.9,378.6z"/>
			<path id="Path_5064" class="st3" d="M1261.4,350.2c2.7,4.2,4.4,8,4.6,7.9c-0.8-3-2.1-5.8-3.9-8.3c-1.5-2.7-3.5-5.1-5.8-7.1
				C1256.1,342.9,1258.7,346,1261.4,350.2z"/>
			<path id="Path_5065" class="st3" d="M1234,327.2c4.6,2,8.2,4,8.3,3.8c-5-3.7-10.7-6.1-16.8-7.2
				C1225.4,324,1229.4,325.2,1234,327.2z"/>
			<path id="Path_5066" class="st3" d="M1198.3,321.9c2.5-0.2,4.8-0.1,6.5-0.2c0.9,0,1.8,0,2.7-0.3c-0.9-0.2-1.8-0.3-2.7-0.3
				c-1.7,0-4-0.1-6.5,0c-3.1,0-6.1,0.6-9.1,1.5C1189.2,322.8,1193.2,322.2,1198.3,321.9z"/>
			<path id="Path_5067" class="st3" d="M1164.2,333.5c4.1-2.9,7.7-4.8,7.6-5c-5.7,2.3-10.8,5.9-14.9,10.5
				C1157.2,339.1,1160.1,336.3,1164.2,333.5z"/>
			<path id="Path_5068" class="st3" d="M1142.5,361.9c1.6-4.8,3.5-8.4,3.3-8.5c-1.8,2.5-3.2,5.3-4,8.2c-1.1,2.9-1.7,5.9-1.8,9
				C1140.2,370.6,1140.9,366.6,1142.5,361.9z"/>
			<path id="Path_5069" class="st3" d="M1139.8,398c0.1-3.1,0-6.1-0.4-9.2c-0.4,3-0.5,6.1-0.4,9.2c-0.1,3.1,0,6.1,0.4,9.2
				C1139.8,404.1,1139.9,401.1,1139.8,398z"/>
			<path id="Path_5070" class="st3" d="M1139.8,434.6c0.1-3.1,0-6.1-0.4-9.2c-0.4,3-0.5,6.1-0.4,9.2c-0.1,3.1,0,6.1,0.4,9.2
				C1139.8,440.8,1139.9,437.7,1139.8,434.6z"/>
			<path id="Path_5071" class="st3" d="M1139.8,471.2c0.1-3.1,0-6.1-0.4-9.2c-0.4,3-0.5,6.1-0.4,9.2c-0.1,5.1-0.7,9.2-0.5,9.2
				C1139.4,477.4,1139.8,474.3,1139.8,471.2z"/>
			<path id="Path_5072" class="st3" d="M1132.2,497.4c-0.2-0.1-2.3,3.4-5.5,7.3c-3.3,3.9-6.3,6.7-6.1,6.9
				C1125.5,507.8,1129.5,503,1132.2,497.4z"/>
			<path id="Path_5073" class="st3" d="M1096.8,525.2c3-0.8,5.8-2,8.4-3.7c-0.1-0.2-3.8,1.4-8.7,2.9c-4.8,1.5-8.8,2.2-8.8,2.4
				C1090.9,526.8,1093.9,526.2,1096.8,525.2z"/>
			<path id="Path_5074" class="st3" d="M1060.4,528.4c3.1,0.1,6.1-0.1,9.2-0.5c-3-0.4-6.1-0.5-9.2-0.3c-3.1-0.1-6.1,0.1-9.2,0.5
				C1054.3,528.5,1057.4,528.6,1060.4,528.4z"/>
			<path id="Path_5075" class="st3" d="M1023.8,528.9c3.1,0.1,6.1-0.1,9.2-0.5c-3-0.3-6.1-0.4-9.2-0.3c-3.1-0.1-6.1,0.1-9.2,0.5
				C1017.7,529,1020.8,529,1023.8,528.9z"/>
			<path id="Path_5076" class="st3" d="M987.2,529.4c3.1,0.1,6.1-0.1,9.2-0.5c-3-0.4-6.1-0.4-9.2-0.3c-3.1-0.1-6.1,0.1-9.2,0.5
				C981.1,529.5,984.2,529.6,987.2,529.4z"/>
			<path id="Path_5077" class="st3" d="M950.6,529.9c3.1,0.1,6.1-0.1,9.2-0.5c-3-0.3-6.1-0.4-9.2-0.3c-3.1-0.1-6.1,0.1-9.2,0.5
				C944.5,530,947.6,530.1,950.6,529.9z"/>
			<path id="Path_5079" class="st9" d="M1216.9,304.2L1216.9,304.2c-0.5,0.7-1,1.4-1.5,2.1l-6.2,8.2c-0.1,0.1-0.2,0.3-0.4,0.4
				c-0.9,0.7-2.1,0.5-2.8-0.4l-6.4-8.4c-0.5-0.6-1.1-1.3-1.5-2l0,0c-1-1.7-1.5-3.6-1.5-5.6c0-6,4.9-10.9,10.9-10.9
				c6,0,10.9,4.9,10.9,10.9C1218.4,300.6,1217.9,302.5,1216.9,304.2z M1207.5,303.4c2.6,0,4.8-2.1,4.8-4.8s-2.1-4.8-4.8-4.8
				s-4.8,2.1-4.8,4.8C1202.7,301.3,1204.9,303.4,1207.5,303.4L1207.5,303.4z"/>
			<path id="Path_5080" class="st2" d="M1629.4,465.3L1629.4,465.3c-0.5,0.7-1,1.4-1.5,2.1l-6.2,8.2c-0.1,0.1-0.2,0.2-0.3,0.3
				c-0.8,0.7-2.1,0.5-2.7-0.3l-6.3-8.4c-0.6-0.6-1.1-1.3-1.5-1.9l0,0c-1-1.7-1.5-3.6-1.5-5.5c0-6,4.9-10.9,10.9-10.9
				c6,0,10.9,4.9,10.9,10.9C1631,461.8,1630.5,463.7,1629.4,465.3z M1623.6,463.1c0.9-0.9,1.4-2.1,1.4-3.4c0-2.6-2.1-4.8-4.8-4.8
				s-4.8,2.1-4.8,4.8s2.1,4.8,4.8,4.8C1621.4,464.5,1622.7,464,1623.6,463.1z"/>
			<path id="Path_5081" class="st10" d="M1476.6,357.5L1476.6,357.5c-0.5,0.7-1,1.4-1.5,2.1l-6.2,8.2c-0.1,0.1-0.2,0.3-0.4,0.4
				c-0.9,0.7-2.1,0.5-2.8-0.4l-6.3-8.4c-0.6-0.6-1.1-1.3-1.5-2l0,0c-1-1.7-1.5-3.6-1.5-5.6c0-6,4.9-10.9,10.9-10.9
				c6,0,10.9,4.9,10.9,10.9C1478.1,354,1477.6,355.9,1476.6,357.5z M1472,352C1472,352,1472,352,1472,352c0-2.7-2.2-4.8-4.8-4.8
				c-2.6,0-4.8,2.2-4.8,4.8s2.2,4.8,4.8,4.8C1469.9,356.8,1472,354.6,1472,352z"/>
			<path id="Path_5082" class="st3" d="M1029.5,496.9c0,2.4-0.7,4.7-1.9,6.8l0,0c-0.6,0.9-1.3,1.8-2,2.6l-7.6,10.2
				c-0.1,0.2-0.3,0.4-0.5,0.5c-1.1,0.8-2.6,0.6-3.4-0.5l-7.8-10.4c-0.6-0.8-1.3-1.6-1.8-2.4l0,0c-1.3-2.1-1.9-4.5-1.9-7
				c0-7.4,6.1-13.4,13.5-13.4C1023.6,483.4,1029.5,489.5,1029.5,496.9L1029.5,496.9z M1016,502.8c3.3,0,5.9-2.7,5.9-5.9
				s-2.7-5.9-5.9-5.9s-5.9,2.7-5.9,5.9C1010.1,500.1,1012.8,502.8,1016,502.8C1016,502.8,1016,502.8,1016,502.8z"/>
			<text transform="matrix(1 0 0 1 1598.838 441)" class="st3 st11 st12">2021</text>
			<path id="Path_5012_00000138554566254370427840000016916843919141266093_" class="st13" d="M1707.8,417.1c-0.6-2.9,1.7-5.8,4.4-7
				c2.7-1.2,5.8-1.3,8.7-1.4s6-0.5,8.5-2.3c2.5-1.8,3.8-4.9,6.5-6.3c3.5-2,7.9-0.5,12-0.7c4.7-0.3,8.9-2.9,13-5.1s9.2-3.7,13.5-1.9
				c5.7,2.4,8.1,10,14.1,12.1c2.7,0.9,5.7,0.5,8.6,0.7c6.1,0.5,14.1,5.2,13.3,10.9L1707.8,417.1z"/>
			<path id="Path_5080_00000006689843361416342170000002081334015098679466_" class="st13" d="M1782.6,465.3L1782.6,465.3
				c-0.5,0.7-1,1.4-1.5,2.1l-6.2,8.2c-0.1,0.1-0.2,0.2-0.3,0.3c-0.8,0.7-2.1,0.5-2.7-0.3l-6.3-8.4c-0.6-0.6-1.1-1.3-1.5-1.9l0,0
				c-1-1.7-1.5-3.6-1.5-5.5c0-6,4.9-10.9,10.9-10.9c6,0,10.9,4.9,10.9,10.9C1784.2,461.8,1783.6,463.7,1782.6,465.3z M1776.7,463.1
				c0.9-0.9,1.4-2.1,1.4-3.4c0-2.6-2.1-4.8-4.8-4.8c-2.6,0-4.8,2.1-4.8,4.8s2.1,4.8,4.8,4.8C1774.6,464.5,1775.8,464,1776.7,463.1z"
				/>
			<text transform="matrix(1 0 0 1 1752.0199 441)" class="st13 st11 st12">2022</text>
			<text transform="matrix(1 0 0 1 1445.8831 335)" class="st3 st11 st12">2020</text>
			<text transform="matrix(1 0 0 1 1186.1541 283)" class="st3 st11 st12">2019</text>
			<text transform="matrix(1 0 0 1 994.7133 474)" class="st3 st11 st12">2018</text>
		</g>
		<g id="freepik--Character--inject-12" transform="translate(1241.107 411.571)">
			<path id="Path_5083" class="st3" d="M119.6,89.5L98,204c-0.3,0.2-0.6,0.4-0.9,0.7c-10.4,6.9-24.5,4-31.4-6.4
				c-1.8-2.7-3.1-5.8-5.9-7.5s-6.5-1.5-9.5-2.8c-4.7-2.2-6.4-7.8-7.4-12.8c-2.1-10.7-2.8-21.9,0.5-32.3s11.2-19.7,21.7-22.5
				c-5.5-5.4-5.9-14.6-2.4-21.4s10.1-11.7,17-14.9c6.5-3.3,13.8-4.8,21.1-4.4C108.2,80.2,115.4,83.6,119.6,89.5z"/>
			<path id="Path_5084" class="st4" d="M115.4,91.9c-0.6,0.5-1.2,1.1-1.7,1.7l-4.4,4.5c-4.8,5-10.1,9.5-15.8,13.4
				c-5.7,3.9-12.3,6.5-19.2,7.6c-2.1,0.3-4.2,0.4-6.3,0.3c-1.5-0.1-2.3-0.1-2.3-0.1c0.2,0.1,0.4,0.1,0.6,0.1
				c0.6,0.1,1.1,0.2,1.7,0.2c2.1,0.2,4.3,0.1,6.4-0.1c7-1,13.6-3.5,19.5-7.5c5.8-4,11.1-8.6,15.8-13.7c1.8-2,3.3-3.5,4.3-4.7
				C114.5,93.1,115,92.5,115.4,91.9L115.4,91.9z"/>
			<path id="Path_5085" class="st4" d="M73.2,120.6c0.4-1.8,1-3.6,1.9-5.2c-0.5,0.4-0.9,0.8-1.2,1.3c-0.7,1.2-1.2,2.5-1.5,3.9
				c-0.2,1.4-0.1,2.8,0.2,4.1c0.1,0.6,0.4,1.1,0.7,1.5C73.1,124.4,73,122.5,73.2,120.6z"/>
			<path id="Path_5086" class="st4" d="M80.7,130.5c0.2,0.9,0.5,1.7,0.8,2.6c0.5,1.7,1.2,4,1.8,7c1.7,7.8,1.6,15.9-0.2,23.7
				c-2,7.8-6.2,14.8-12.1,20.2c-1.8,1.6-3.8,3-5.8,4.3c-0.8,0.4-1.6,0.8-2.3,1.3c0.2-0.1,0.4-0.1,0.7-0.2c0.6-0.2,1.2-0.5,1.8-0.9
				c2.2-1.1,4.2-2.5,6-4.1c6.1-5.4,10.4-12.5,12.4-20.4c1.9-7.9,1.9-16.1,0-24c-0.5-2.4-1.2-4.7-2-7c-0.3-0.8-0.5-1.4-0.7-1.9
				C80.9,130.9,80.8,130.7,80.7,130.5L80.7,130.5z"/>
			<path id="Path_5087" class="st4" d="M84.4,148.5c-0.5-0.3-1-0.5-1.6-0.7c-1-0.4-2.5-0.8-4.4-1.3c-9.7-2.6-19.8-3.5-29.8-2.7
				c-1.9,0.2-3.5,0.3-4.5,0.5c-0.6,0-1.1,0.2-1.6,0.3c0.6,0.1,1.1,0.1,1.7,0c1.1-0.1,2.6-0.2,4.5-0.3c10-0.5,20,0.4,29.7,2.7
				c1.9,0.4,3.4,0.8,4.4,1.1C83.3,148.3,83.8,148.5,84.4,148.5L84.4,148.5z"/>
			<g id="Group_1014" transform="translate(157.715 100.303)" class="st14">
				<path id="Path_5088" d="M-50,0c-3,8.1-8.6,15.4-16.3,19.3s-17.5,4.5-24.7-0.2l0,0C-75,20-60.1,11.6-50,0z"/>
			</g>
			<g id="Group_1015" transform="translate(181.801 164.464)" class="st14">
				<path id="Path_5089" d="M-119.1,25.1c2.8-1.3,5.4-3,7.8-4.9c2.1-1.7,4.1-3.6,5.7-5.8c2.9-4.5,5.4-9.4,7.3-14.4
					c-0.5,5.9-2.4,11.6-5.6,16.6C-107.3,21.5-112.9,24.7-119.1,25.1"/>
			</g>
			<path id="Path_5090" class="st4" d="M70.7,148.7c0.2,1.3,0.4,2.6,0.7,3.8c0.2,0.7,0.2,1.4,0,2.1c-0.2,0.7-0.8,1.2-1.5,1.2
				c-0.7-0.1-1.3-0.6-1.5-1.3c-0.2-0.7-0.2-1.4,0-2.1c0.3-1.3,0.7-2.6,1-3.7c0.4-1.1,0.6-2.3,0.7-3.5c-0.5,1.1-0.9,2.2-1.2,3.4
				c-0.3,1.1-0.7,2.3-1.1,3.7c-0.2,0.8-0.2,1.6,0,2.4c0.3,0.9,1.1,1.6,2.1,1.8c1,0,1.9-0.7,2.1-1.6c0.2-0.8,0.2-1.7,0-2.5
				c-0.4-1.4-0.6-2.7-0.9-3.8c-0.1-1.2-0.5-2.4-0.9-3.5C70.3,145.1,70.5,146.4,70.7,148.7z"/>
			<path id="Path_5091" class="st4" d="M100.8,101.4c-0.7-0.5-1.7-1.2-3-2.1c-3.3-2.2-6.8-4.2-10.4-5.9c-3.6-1.7-7.5-2.9-11.5-3.5
				c-1.2-0.2-2.4-0.3-3.6-0.3c-0.4,0-0.9,0-1.3,0.1c0,0.1,1.9,0.1,4.9,0.7c3.9,0.7,7.7,1.9,11.2,3.6c3.6,1.7,7.1,3.6,10.4,5.7
				c1.4,0.9,2.8,1.7,4.3,2.5C101.5,101.9,101.2,101.6,100.8,101.4z"/>
			<path id="Path_5092" class="st4" d="M99.2,102.1c-0.5,0.5-1.2,0.7-1.8,0.6l0,0l0.2,0.5c0.3-0.6,0.8-1.2,1.5-1.5
				c0.5-0.3,0.8-0.4,0.8-0.5s-0.4-0.2-1,0c-0.8,0.3-1.5,0.9-1.9,1.6l-0.2,0.4l0.4,0.1l0,0c0.9,0.2,1.8-0.2,2.4-1
				c0.4-0.6,0.3-1,0.2-1C99.7,101.3,99.6,101.7,99.2,102.1z"/>
			<path id="Path_5093" class="st15" d="M219.7,100.9c0.2-0.3,6.2,0.6,6.2,0.6l4.3-8.8l4.5-11.7l2.5-10.2c0,0-0.1-1.1-1.5-1
				s-2.8,5.7-2.8,5.7l-1.6,4c0,0-2,2.7-2.1,2.3s1.5-5.9,1.5-5.9l2.9-12.2c0-0.9-0.7-1.6-1.5-1.6c-0.9-0.1-1.9,0.8-2.5,2.5
				s-1.2,4.9-1.6,5.8s-2.2,6.7-2.2,6.7l1.9-14.2c0,0,1.2-4.4-0.8-4.6s-2.1,3.3-2.7,4.5s-1.9,10.9-3.2,13.2s-1.1,0.9-1.1,0.9
				s0.8-4.4,1.4-7.8s0.3-5.7-1-6.6s-2.7,7.1-2.7,7.1l-2.3,11l-2,2.9l-0.9-3.9c0,0,0.7-3.9-0.6-6.5c-1.5-2.8-2.5-1.1-2.5-1.1
				l-2.2,16.5c0,2.8,5.3,9.9,5.3,9.9S219.5,101.2,219.7,100.9z"/>
			<path id="Path_5094" class="st16" d="M222.3,91.1c-0.4-1-0.9-1.9-1.5-2.8c-0.8-1.1-1.9-1.9-3.1-2.4c-1.1-0.5-2.4-0.6-3.6-0.2
				l0.4,0.3c-0.4-1.5-0.9-2.9-1.4-4.4c-0.2-0.6-0.4-1.1-0.7-1.6c0,0.6,0.1,1.2,0.3,1.8c0.2,1.1,0.8,2.6,1.2,4.3l0.1,0.4l0.3-0.1
				c1-0.3,2.1-0.2,3.1,0.2c2,1,3.6,2.6,4.4,4.7c0.3,0.9,0.8,1.7,1.2,2.6C223,92.9,222.7,91.9,222.3,91.1z"/>
			<path id="Path_5095" class="st13" d="M161.6,137.9c0,0,21.9,29.4,32.8,30.9s19.8-5.9,22.7-11.1s10.2-56.9,10.2-56.9l-18.2-4.5
				l-13.3,38.5l-29.5-44.2L161.6,137.9z"/>
			<path id="Path_5096" class="st4" d="M199.5,152.6c0.4-0.9,0.6-1.8,0.6-2.8c0.2-2.3,0.1-4.7-0.5-6.9c-0.5-2.3-1.3-4.5-2.5-6.5
				c-0.4-0.9-1-1.7-1.7-2.3C198.7,139.7,200.1,146.2,199.5,152.6L199.5,152.6z"/>
			<g id="Group_1016" transform="translate(93.113 109.172)" class="st14">
				<path id="Path_5097" d="M75.3,37.2L74.8,0c1.1,8.7,2.8,17.8,4,26.5c0.4,2.1,0.5,4.3,0.2,6.5c-0.3,2.2-1.6,4.1-3.6,5.1"/>
			</g>
			<g id="Group_1017" transform="translate(62.436 134.177)" class="st14">
				<path id="Path_5098" d="M137.3,16.3c0.2-5.7-1.2-11.4-4.1-16.3c4.1,2.1,6.9,6.1,7.3,10.7c0.2,1.2,0,2.4-0.5,3.5
					C139.5,15.3,138.5,16.1,137.3,16.3"/>
			</g>
			<path id="Path_5099" d="M221.7,368.3l10.7,26.1c0,0,30.8-2.3,33,2.2l-48.3,20.3l-16.9-38.4L221.7,368.3z"/>
			<g id="Group_1018" transform="translate(43.729 397.162)" class="st17">
				<path id="Path_5100" class="st0" d="M174.6,0.5c0.9-0.8,2.2-0.7,2.9,0.1c0.6,1,0.5,2.2-0.4,3c-0.9,0.6-2.1,0.4-2.8-0.4
					c-0.6-0.9-0.4-2.1,0.4-2.8"/>
			</g>
			<g id="Group_1019" transform="translate(0 394.889)" class="st17">
				<path id="Path_5101" class="st0" d="M265.4,1.6C265,0,262.4,0,262.4,0l-46.9,18l1.5,4L265.4,1.6z"/>
			</g>
			<path id="Path_5102" class="st4" d="M230.6,396.1c-1.1,1.5-0.9,3-0.6,3s0.5-1.3,1.3-2.5s2-1.9,1.9-2.1
				C233.2,394.3,231.7,394.6,230.6,396.1z"/>
			<path id="Path_5103" class="st4" d="M238.6,396.1c-0.5,1.7,0.2,2.9,0.5,2.8s0-1.2,0.4-2.6s1.2-2.2,1.1-2.4
				C240.4,393.8,239.1,394.5,238.6,396.1z"/>
			<path id="Path_5104" class="st4" d="M245.7,396.3c0-1.3,0.4-2.3,0.2-2.4s-1.1,0.8-1.1,2.4s0.8,2.6,0.9,2.4
				C246,398.6,245.6,397.5,245.7,396.3z"/>
			<path id="Path_5105" class="st4" d="M227.2,388.4c-1.5,0.7-2.2,2-2,2.2s1.1-0.7,2.4-1.3s2.5-0.8,2.5-1
				C230.2,388,228.8,387.7,227.2,388.4z"/>
			<path id="Path_5106" d="M43.5,423.2L22,424.6L0,388.4l13.9-10.9l10.7-16.1l0.6-0.8l21,13.5L29,395.6l2.1,20.5
				C41.5,418.2,43.5,423.2,43.5,423.2z"/>
			<g id="Group_1020" transform="translate(221.956 386.127)" class="st17">
				<path id="Path_5107" class="st0" d="M-219,0l20.4,34.2l17.5-0.2l2.6,3.1l-21.4,1.4l-22-36.2L-219,0z"/>
			</g>
			<path id="Path_5108" class="st4" d="M27.1,405.6c-2,0.2-3.1,1.5-2.9,1.7s1.3-0.6,3-0.7s2.9,0.5,3.1,0.2
				C30.5,406.6,29.1,405.4,27.1,405.6z"/>
			<path id="Path_5109" class="st4" d="M29.1,400.7c-1.3-1.4-3.4-1.6-5-0.7c-0.6,0.4-0.9,0.6-0.7,0.8s1.5-0.7,3.2-0.4s2.8,1.4,3,1.2
				C29.7,401.6,29.6,401.2,29.1,400.7z"/>
			<path id="Path_5110" class="st4" d="M29,394.1c-1-1.4-2.9-1.9-4.5-1.2c-0.6,0.3-0.9,0.5-0.8,0.7s1.4-0.3,3,0.1s2.3,1.6,2.6,1.5
				C29.4,395,29.4,394.6,29,394.1z"/>
			<path id="Path_5111" class="st4" d="M32.8,387c-1.7-1-3.3-0.5-3.2-0.3s1.4,0.3,2.8,1.1s2.1,1.9,2.3,1.8
				C34.9,389.6,34.5,388,32.8,387z"/>
			<path id="Path_5112" class="st4" d="M35.7,382.5c-0.6-0.8-1.2-1.7-1.8-2.6c-0.4-0.4-0.7-0.9-0.9-1.4c-0.1-0.2-0.1-0.4,0-0.6
				c0.1-0.1,0.2-0.2,0.4-0.2c0.6,0.1,1.1,0.3,1.5,0.7c0.5,0.3,0.9,0.7,1.3,1.2c0.6,0.8,1.1,1.7,1.3,2.7c0.2,0.9,0.3,1.9,0.4,2.8
				c0.5-0.9,0.6-2,0.3-3c-0.3-1.8-1.3-3.3-2.7-4.4c-0.6-0.5-1.3-0.8-2.1-0.9c-0.5,0-1,0.3-1.2,0.8c-0.2,0.4-0.2,0.9,0,1.3
				c0.3,0.6,0.7,1.2,1.1,1.7c0.7,0.8,1.3,1.7,2,2.5c1.1,1.4,1.9,2.2,2,2.1C36.8,384.1,36.3,383.2,35.7,382.5z"/>
			<path id="Path_5113" class="st4" d="M39.4,383.7c0.6-0.6,1.4-1.1,2.2-1.3c0.5-0.2,1-0.2,1.5-0.2c0.3,0,0.5,0,0.8,0.1
				c0.2,0,0.4,0.1,0.6,0.2c0,0.1,0.1,0,0,0.2c-0.2,0.2-0.3,0.4-0.5,0.5c-1.1,0.9-2.4,1.6-3.8,2c-1.5,0.4-2.5,0.4-2.5,0.6
				c0.9,0.3,1.8,0.3,2.7,0c1.5-0.3,3-1,4.2-1.9c0.3-0.2,0.5-0.4,0.7-0.7c0.1-0.2,0.2-0.5,0.2-0.7c0-0.3-0.2-0.6-0.4-0.7
				c-2.2-1-4.8-0.3-6.3,1.6c-1.1,1.4-1.1,2.5-1,2.5C38.1,385.7,38.4,384.7,39.4,383.7z"/>
			<g id="Group_1021" transform="translate(248.33 384.283)" class="st17">
				<path id="Path_5114" class="st0" d="M-233.9,0C-234,0-234,0-233.9,0c-1.4,0.1-2.5,1.3-2.4,2.7c0.1,1.4,1.3,2.5,2.7,2.4
					c1.4-0.1,2.5-1.3,2.4-2.7C-231.4,1-232.6-0.1-233.9,0z"/>
			</g>
			<path id="Path_5115" class="st18" d="M174.9,20.1c-1.7-5-3.7-10.4-7.7-13.8c-2.4-2.3-5.2-4-8.3-5.1c-4.4-1.4-9.1-1.5-13.6-0.3
				c-4.3,1.4-7.9,4.4-10.2,8.4c-2.2,3.9-3.8,8.2-4.7,12.6"/>
			<path id="Path_5116" class="st19" d="M176.5,42.2l-42.9,1.1c-2.3-2-5.2-10.1-5.5-13.1c-0.6-6.7,2.4-14.1,7.5-19.6
				s13.9-7.5,21.3-6.9c4.8,0.2,9.5,1.8,13.5,4.6c3.9,3,6.5,7.4,7.3,12.2C178.5,25.2,179,38.1,176.5,42.2z"/>
			<path id="Path_5117" class="st15" d="M178.6,59.6c-0.2,12.7-12.9,14.7-12.9,14.7l0.3,19.9h-30.3l-2.3-61
				c-1.1-13.2,5.6-24.8,18.9-25.6h1.2c12.3,0,22.6,9.5,23.6,21.8C177.8,40.8,178.6,53.5,178.6,59.6z"/>
			<path id="Path_5118" class="st16" d="M165.7,77.4c-12.7,1.1-16.6-8-16.6-8c5,3.2,10.7,4.9,16.6,4.9L165.7,77.4z"/>
			<path id="Path_5119" class="st4" d="M171.9,39.4c-0.1-1-0.9-1.7-1.9-1.6c-1,0-1.8,0.8-1.8,1.8c0,0,0,0,0,0c0.1,1,0.9,1.7,1.9,1.6
				C171.2,41.2,171.9,40.4,171.9,39.4C171.9,39.4,171.9,39.4,171.9,39.4z"/>
			<path id="Path_5120" class="st4" d="M173.4,34.6c-0.8-0.6-1.8-0.9-2.8-0.9c-1,0-2,0.3-2.9,0.9c-0.6,0.5-1,0.7-0.7,1
				s1.7-0.7,3.6-0.7s3.3,1,3.5,0.8C174.3,35.5,174,35.1,173.4,34.6z"/>
			<path id="Path_5121" class="st4" d="M153.1,40.3C153.1,40.3,153.1,40.3,153.1,40.3c-0.1-1-0.9-1.7-1.9-1.7c-1,0-1.8,0.9-1.7,1.8
				c0,0,0,0,0,0c0.1,1,0.9,1.7,1.9,1.6C152.4,42.1,153.1,41.3,153.1,40.3L153.1,40.3z"/>
			<path id="Path_5122" class="st4" d="M154.2,35.6c-0.8-0.6-1.8-0.9-2.8-0.9c-1,0-2,0.3-2.9,0.9c-0.6,0.5-1,0.7-0.8,1
				s1.7-0.7,3.6-0.7s3.3,1,3.5,0.8C155,36.5,154.8,36.1,154.2,35.6z"/>
			<path id="Path_5123" class="st4" d="M162,50.5c1.1,0.1,2.1,0.1,3.2,0c0.3,0,0.6,0,0.8-0.1c0.4-0.1,0.7-0.4,0.8-0.7
				c0.1-0.7,0.1-1.4-0.3-2c-0.5-1.2-0.9-2.5-1.4-3.8c-2-5.4-3.9-9.7-4.1-9.7s1.3,4.5,3.3,9.9l1.5,3.8c0.3,0.4,0.4,1,0.3,1.5
				c-0.1,0.3-0.6,0.5-1.1,0.5C164.1,49.9,163,50.1,162,50.5L162,50.5z"/>
			<path id="Path_5124" class="st4" d="M155.9,53.2c0.1,1.2,0.7,2.3,1.6,3c1,0.8,2.2,1.2,3.4,1.2c1,0,1.5-0.2,1.5-0.4
				s-2.3-0.1-4.1-1.6s-1.8-3.6-2.1-3.6C156.1,51.8,155.9,52.3,155.9,53.2z"/>
			<path id="Path_5125" class="st4" d="M154.7,31.2c-2.3-0.8-4.8-0.5-6.8,0.8c-0.7,0.5-1.1,1-0.9,1.3c0.3,0.5,2.2-0.2,4.5-0.5
				s4.2-0.1,4.4-0.6C156,31.9,155.6,31.5,154.7,31.2z"/>
			<path id="Path_5126" class="st4" d="M173.8,28.9c-1-0.5-2.2-0.7-3.3-0.6c-1.1,0.1-2.2,0.4-3.2,1.1c-0.7,0.5-0.9,1-0.7,1.2
				c0.4,0.4,2.1-0.1,4-0.3s3.6,0.1,4-0.4C174.8,29.7,174.5,29.3,173.8,28.9z"/>
			<path id="Path_5127" class="st15" d="M135.6,55.1c0,0.3-8.7,2.3-8.9-6.4s8.3-6.2,8.5-6.1C135.1,42.6,135.6,54.8,135.6,55.1z"/>
			<path id="Path_5128" class="st16" d="M133.3,52.2c-0.4,0.3-0.9,0.4-1.3,0.3c-1.5-0.6-2.4-2.1-2.3-3.7c-0.1-0.8,0.1-1.7,0.5-2.4
				c0.2-0.7,0.8-1.2,1.5-1.4c0.3,0,0.6,0,0.9,0.2c0.2,0.1,0.3,0.3,0.3,0.5c0.1,0.4,0,0.5-0.1,0.5s0-0.2-0.1-0.4
				c-0.2-0.3-0.6-0.5-0.9-0.4c-0.5,0.2-1,0.6-1.1,1.2c-0.3,0.7-0.4,1.4-0.4,2.2c0,1.4,0.7,2.6,1.8,3.3c0.4,0.1,0.8,0.1,1.1,0
				c0.3-0.1,0.4-0.2,0.4-0.2C133.6,51.9,133.6,52.1,133.3,52.2z"/>
			<path id="Path_5129" class="st4" d="M140,22c2,4.8,0.5,10.4-3.6,13.7l0.4,7.7c0.2,2-0.4,3.6-2.4,3.6l0,0c0,0-1-7.2-1.6-9.6
				c-1-4.6-3.7-10-3.1-14.7c0,0,0-2.8,3.4-6.1c4.3-4.1,16.2-11.3,22.2-11.2s10,0,14.7,3.5c2.2,1.7-0.1,7.9,1,6.4l-2.5-2.8l-9.6,2.5
				L145.1,13l-4.3,3.7C138.4,18.1,139.5,21.3,140,22z"/>
			<path id="Path_5130" class="st4" d="M139.2,18.8C139.2,18.8,139.2,18.8,139.2,18.8c0.3,0.7,0,1.5-0.7,1.7c-0.7,0.2-1.4,0.1-2-0.3
				c-1.5-1.1-2.1-3-1.7-4.8c0.5-1.7,1.4-3.3,2.7-4.6c1.7-1.9,3.8-3.8,6.3-4c1.3-0.1,2.6,0.1,3.8,0.6c0.9,0.3,1.8,0.5,2.7,0.4
				c1.4-0.2,2.5-1.3,3.8-1.7c1-0.3,2-0.4,3-0.4c2.3,0,4.6,0.2,6.9,0.5c1.5,0.1,2.9,0.5,4.2,1.2c0.4,0.2,0.7,0.5,1,0.7
				c2.7,2.4,2.9,6.4,0.6,9.1c-0.7,1-2,1.4-3.2,1.2c0,0.8-0.3,1.6-0.9,2.3c-1.2,1.4-3.4,1.4-4.7,0.2c-0.7,0.7-1.7,0.8-2.6,0.4
				c-0.8-0.5-1.5-1.1-2-1.9c-0.1-0.1-0.2-0.2-0.3-0.3c-0.2-0.1-0.4,0.1-0.6,0.2c-0.6,0.3-1.3,0.3-1.9-0.1c-0.6-0.4-1.1-0.8-1.6-1.3
				c-1.8-1.9-4.3-3-6.9-3.2c-2.7-0.1-5.1,1.5-6.1,4"/>
			<path id="Path_5131" class="st0" d="M129.6,30.7c-2-5.9-0.7-12.3,3.5-16.9c6.1-7.4,11.6-8.9,24.2-9.1s16.9,8.4,16.9,8.4l0.5,7.6
				c-3.5-9.2-13.1-9.6-17.5-10.4c-5.7-1.1-14.2,2.4-19.1,8.1s-6,13.7-5,20.4C131.6,36.2,130.5,33.5,129.6,30.7z"/>
			<path id="Path_5132" class="st4" d="M167.2,6.3c-0.3-0.1-0.8-0.3-1.3-0.5c-1.6-0.6-3.3-1-4.9-1.3c-2.5-0.5-5-0.6-7.6-0.5
				c-3.1,0.1-6.2,0.7-9.1,1.8c-2.9,1.1-5.6,2.7-8,4.7c-1,0.9-2,1.8-2.9,2.9c-0.4,0.5-0.8,1-1.1,1.5c-0.3,0.5-0.7,1-0.9,1.4
				c-0.9,1.5-1.6,3-2.2,4.6c-0.2,0.6-0.3,1-0.4,1.3l-0.1,0.5c0.1-0.1,0.1-0.3,0.2-0.5c0.1-0.3,0.2-0.8,0.5-1.3
				c0.6-1.6,1.3-3.1,2.2-4.6c0.3-0.5,0.6-1,0.9-1.4c0.4-0.5,0.7-1,1.1-1.4c0.9-1,1.8-2,2.9-2.8c2.4-1.9,5.1-3.5,8-4.6
				c2.9-1,5.9-1.7,9-1.8c2.5-0.1,5,0,7.5,0.4c1.7,0.3,3.3,0.8,4.9,1.3c0.6,0.2,1,0.4,1.3,0.5c0.1,0.1,0.3,0.1,0.5,0.2L167.2,6.3z"/>
			<path id="Path_5133" class="st4" d="M132.7,26.5c-0.9-0.9-1.6-1.9-2.1-3.1c-0.4-1.2-0.6-2.4-0.5-3.7c0.1-1,0.3-1.5,0.2-1.5
				s-0.1,0.1-0.2,0.4c-0.1,0.4-0.2,0.7-0.3,1.1c-0.4,2.6,0.6,5.3,2.6,7c0.3,0.3,0.6,0.5,0.9,0.7c0.1,0.1,0.2,0.1,0.4,0.2
				C133.9,27.5,133.4,27.2,132.7,26.5z"/>
			<path id="Path_5134" class="st4" d="M136.6,18.9c-0.7-0.8-1.3-1.7-1.6-2.7c-0.3-1-0.5-2.1-0.3-3.1c0.1-0.8,0.2-1.3,0.2-1.3
				c-0.2,0.4-0.4,0.9-0.4,1.3c-0.2,1.1-0.1,2.2,0.3,3.3c0.4,1,1,2,1.7,2.8c0.3,0.3,0.7,0.6,1.1,0.8
				C137.6,19.9,137.1,19.6,136.6,18.9z"/>
			<path id="Path_5135" class="st4" d="M141.2,11.4c-0.5-1.1-0.8-2.4-0.9-3.6c-0.1,0.4-0.1,0.7-0.1,1.1c0,0.9,0.3,1.8,0.7,2.7
				c0.4,0.8,1,1.5,1.7,2.1c0.3,0.3,0.6,0.5,0.9,0.6C142.6,13.5,141.8,12.5,141.2,11.4z"/>
			<path id="Path_5136" class="st4" d="M150.4,7.7c0.5,1.8,0.5,3.3,0.6,3.3c0.1-0.3,0.1-0.7,0.1-1c0-0.8-0.1-1.6-0.3-2.4
				c-0.2-0.8-0.5-1.5-0.9-2.2c-0.1-0.3-0.3-0.6-0.5-0.8C149.2,4.6,149.9,5.9,150.4,7.7z"/>
			<path id="Path_5137" class="st4" d="M160.3,4.3c0.3,1.1,0.5,2.2,0.5,3.3c-0.1,1.1-0.4,2.2-0.8,3.2c0.2-0.2,0.4-0.5,0.5-0.8
				c0.3-0.7,0.5-1.5,0.6-2.3c0-0.8-0.1-1.6-0.3-2.4C160.7,4.9,160.5,4.6,160.3,4.3L160.3,4.3z"/>
			<path id="Path_5138" class="st4" d="M167.4,6.3c0.5,1.1,0.8,2.3,0.9,3.5c0,1.2-0.3,2.4-0.7,3.5c0.2-0.3,0.4-0.6,0.5-0.9
				c0.3-0.8,0.5-1.7,0.5-2.6c0-0.9-0.2-1.8-0.6-2.6C167.9,6.9,167.7,6.6,167.4,6.3L167.4,6.3z"/>
			<path id="Path_5139" class="st4" d="M173.9,15.1c-0.4,0.9-0.9,1.7-1.4,2.5c0,0,0.3-0.2,0.7-0.6c0.9-1.1,1.4-2.5,1.3-3.9
				c0-0.3,0-0.6-0.1-0.9C174.3,13.3,174.1,14.2,173.9,15.1z"/>
			<path id="Path_5140" class="st4" d="M176.8,21.6c-0.4,0.6-0.9,1.1-1.3,1.6c0.7-0.3,1.3-0.8,1.6-1.4c0.4-0.6,0.7-1.3,0.7-2.1
				C177.5,20.4,177.1,21,176.8,21.6z"/>
			<path id="Path_5141" class="st4" d="M177.5,28.8c-0.4,0.3-0.8,0.5-0.8,0.6s0.5,0,1-0.4s0.5-0.9,0.5-0.9
				C178.1,28.1,177.9,28.5,177.5,28.8z"/>
			<path id="Path_5142" class="st4" d="M128.2,31.8c1,1.8,2.8,3,4.8,3.3C131.1,34.4,129.5,33.3,128.2,31.8z"/>
			<path id="Path_5143" class="st4" d="M132.5,39.5c-0.7,0.1-1.2-0.2-1.2-0.1s0.5,0.4,1.3,0.4c0.5,0,0.9-0.2,1.2-0.5
				C133.6,39.2,133.1,39.4,132.5,39.5z"/>
			<g id="Group_1022" transform="translate(98.689 2.253)" class="st14">
				<path id="Path_5144" d="M53.1,1.9C41.8,2.3,33.9,12.2,33.9,12.2c3.4-5.8,8.9-10,15.4-11.6C55.8-0.9,62.5,0.4,68,4
					C68,4,64.3,1.6,53.1,1.9z"/>
			</g>
			<path id="Path_5145" class="st5" d="M157.9,38.2c-0.3-1.4-1.2-2.7-2.3-3.6c-1.8-1.4-4.1-1.7-6.2-1c-0.6,0.2-1.2,0.5-1.7,0.9
				c-0.5,0.4-1,0.9-1.4,1.4c-1.7,2.3-1.7,5.5,0,7.8c0.4,0.5,0.9,1,1.4,1.3c0.5,0.4,1.1,0.7,1.7,0.9c1.1,0.4,2.3,0.5,3.5,0.3
				c1-0.2,2-0.6,2.8-1.2c1.2-0.9,2-2.2,2.3-3.6c0.1-0.5,0.2-1.1,0.1-1.6c0,0.5-0.1,1.1-0.3,1.6c-0.4,1.4-1.2,2.6-2.4,3.5
				c-0.5,0.4-1,0.7-1.6,0.9c-3.3,1.2-6.9-0.5-8.1-3.8c-1.2-3.3,0.5-6.9,3.8-8.1c1.1-0.4,2.2-0.5,3.3-0.3c1,0.2,1.9,0.6,2.7,1.2
				c1.2,0.9,2,2.1,2.4,3.5c0.1,0.5,0.2,1,0.3,1.6C158,39.2,158,38.7,157.9,38.2z"/>
			<path id="Path_5146" class="st5" d="M177.4,39c0-0.5,0-1.1-0.1-1.6c-0.4-1.5-1.3-2.9-2.6-3.8c-3-2.1-7.1-1.5-9.2,1.5
				c-2.1,3-1.5,7.1,1.5,9.2c0.5,0.4,1.1,0.7,1.7,0.9c1.1,0.4,2.3,0.5,3.5,0.3c1-0.2,2-0.6,2.8-1.2c1.2-0.9,2-2.2,2.3-3.6
				C177.4,40,177.4,39.5,177.4,39c0,0,0,0.6-0.3,1.6c-0.4,1.4-1.2,2.6-2.4,3.5c-1.7,1.3-4,1.6-6,0.9c-0.6-0.2-1.1-0.5-1.6-0.9
				c-0.5-0.4-0.9-0.8-1.3-1.3c-2.1-2.8-1.5-6.8,1.3-8.9c0.5-0.4,1-0.7,1.6-0.9c1.1-0.4,2.2-0.5,3.3-0.3c1,0.2,1.9,0.6,2.7,1.2
				c1.2,0.9,2,2.1,2.4,3.5C177.3,37.9,177.3,38.4,177.4,39L177.4,39z"/>
			<path id="Path_5147" class="st5" d="M163.6,35.8c-0.8-0.5-1.8-0.7-2.8-0.7c-1,0.1-1.9,0.4-2.7,1c-0.3,0.2-0.6,0.5-0.8,0.9
				c0,0,0.3-0.3,0.9-0.7c1.6-1,3.6-1.2,5.3-0.3c0.4,0.2,0.7,0.4,1,0.6C164.4,36.2,164,35.9,163.6,35.8z"/>
			<path id="Path_5148" class="st5" d="M139.6,40.2c-3.2,1-5.8,1.9-5.8,2s2.7-0.7,5.9-1.7s5.8-1.9,5.8-2
				C143.5,39,141.5,39.5,139.6,40.2z"/>
			<path id="Path_5149" class="st0" d="M151.3,45.1c-0.3-0.1-0.7-0.3-1-0.4c-1.7-0.6-3.1-1.9-3.8-3.5c-0.1-0.4-0.3-0.7-0.4-1
				c0,0.4,0.1,0.8,0.2,1.1c0.3,0.9,0.9,1.7,1.5,2.3c0.7,0.6,1.5,1.1,2.4,1.3C150.5,45.1,150.9,45.1,151.3,45.1L151.3,45.1z"/>
			<path id="Path_5150" class="st0" d="M167.2,43c-0.3-0.2-0.6-0.5-0.8-0.7c-0.5-0.7-0.8-1.4-0.9-2.2c-0.1-0.8-0.1-1.6,0-2.4
				c0.1-0.6,0.2-1,0.2-1c-0.2,0.3-0.4,0.6-0.4,0.9c-0.2,0.8-0.2,1.7,0,2.5c0.1,0.8,0.5,1.6,1.1,2.3C166.5,42.7,166.8,42.9,167.2,43
				L167.2,43z"/>
			<path id="Path_5151" class="st4" d="M158.6,51.7c0.4-0.4,0.6-0.7,0.6-0.8s-0.4,0.2-0.8,0.5c-0.2,0.2-0.4,0.5-0.6,0.8
				C157.9,52.3,158.2,52.1,158.6,51.7z"/>
			<path id="Path_5152" class="st4" d="M159.5,52.1c0.4-0.5,0.6-0.9,0.5-0.9s-0.4,0.3-0.8,0.7c-0.2,0.3-0.4,0.6-0.5,0.9
				C158.8,52.9,159.1,52.5,159.5,52.1z"/>
			<path id="Path_5153" class="st4" d="M160.3,52.7c0.3-0.5,0.4-0.9,0.3-1s-0.4,0.3-0.6,0.8s-0.4,1-0.3,1
				C159.8,53.6,160,53.2,160.3,52.7z"/>
			<path id="Path_5154" class="st4" d="M161.3,52.9c0-0.4,0-0.7-0.1-0.7s-0.2,0.3-0.2,0.7s0,0.7,0.1,0.7
				C161.2,53.5,161.3,53.2,161.3,52.9z"/>
			<path id="Path_5155" class="st4" d="M162.7,53.2c0-0.3-0.1-0.6-0.1-0.6s-0.2,0.3-0.2,0.6s0.1,0.6,0.2,0.6
				C162.6,53.8,162.7,53.5,162.7,53.2z"/>
			<path id="Path_5156" class="st4" d="M163.8,53.1c-0.1-0.4-0.2-0.8-0.3-0.7s-0.1,0.4,0,0.8s0.3,0.7,0.3,0.7
				C163.9,53.9,163.9,53.5,163.8,53.1z"/>
			<path id="Path_5157" class="st4" d="M133.2,56.8c-0.3,0.4-0.7,0.7-1.3,0.8c-0.6,0.1-1.3-0.2-1.6-0.7c-0.4-0.5-0.5-1.2-0.4-1.8
				c0.1-0.5,0.4-1,0.8-1.3c0.4-0.3,0.9-0.5,1.3-0.5c-0.5-0.1-1.1,0-1.5,0.4c-0.5,0.3-0.8,0.8-1,1.4c-0.1,0.7,0,1.4,0.5,2
				c0.4,0.6,1.2,0.9,1.9,0.8c0.6-0.1,1.1-0.4,1.4-1c0.3-0.4,0.4-1,0.4-1.5C133.7,55.9,133.5,56.4,133.2,56.8z"/>
			<path id="Path_5158" class="st9" d="M112.1,231l48-9.1c0,0,50.8,67.2,53.5,75.8s15,84.6,15,84.6l-22.2,10.3c0,0-2.9,1.8-7.6-5.8
				s-14.7-56.4-14.7-61.2s-66.6-74.2-68.2-74.2L112.1,231z"/>
			<path id="Path_5159" class="st9" d="M147.1,226.5c0,0-5,26.2-9.3,38c-4.3,11.8-26.8,57.9-32.2,64.9s-62.2,54.1-62.2,54.1
				l-21.5-18.1c0.7-4.2,1.7-8.3,3-12.3c1.6-4.3,6.4-2.7,6.4-2.7c2.7-4.8,46-48.2,46-48.2l13.8-85.5L147.1,226.5z"/>
			<path id="Path_5160" class="st5" d="M190.3,318.3c-1.3,1.9-2.7,3.7-4.3,5.3c-0.7,0.6-1.4,1.3-2,2c0.9-0.4,1.6-1,2.3-1.7
				c1.7-1.6,3.2-3.3,4.5-5.2c1.3-1.9,2.5-3.9,3.4-5.9c0.4-0.8,0.8-1.7,1-2.7C195,310,193.3,314,190.3,318.3z"/>
			<path id="Path_5161" class="st5" d="M85.1,308.2c-1.4-0.7-2.8-1.6-4.1-2.5c-1.2-1.1-2.3-2.3-3.3-3.5c0.5,1.6,1.5,3,2.9,4
				C81.8,307.4,83.4,308.1,85.1,308.2L85.1,308.2z"/>
			<path id="Path_5162" class="st5" d="M40.4,361.6c-1.8-1.5-3.4-3.3-4.9-5.1c-1.3-2-2.4-4.1-3.3-6.3C33,355.1,36,359.4,40.4,361.6
				L40.4,361.6z"/>
			<path id="Path_5163" class="st5" d="M107.3,232.6c-1.5,2.5-3.4,4.8-5.5,6.9c-2.2,2-4.6,3.7-7.2,5.1c-2,1-3.3,1.5-3.3,1.6
				c0.3,0,0.7-0.1,1-0.2c0.9-0.3,1.7-0.6,2.5-1c5.5-2.5,10.1-6.8,12.9-12.1c0.4-0.8,0.8-1.6,1.1-2.5c0.1-0.3,0.2-0.6,0.3-1
				C108.9,229.4,108.4,230.7,107.3,232.6z"/>
			<path id="Path_5164" class="st5" d="M142.1,253.3c-0.6,1.5-1.5,3.4-2.5,5.8c-2.1,4.9-4.9,11.7-8.2,19s-6.5,14-8.7,18.8l-2.7,5.7
				c-0.4,0.7-0.6,1.4-0.9,2.1c0.4-0.6,0.8-1.3,1.1-2l2.9-5.6c2.4-4.8,5.6-11.4,8.9-18.8s6.1-14.2,8.1-19.1c0.9-2.4,1.7-4.4,2.3-5.9
				c0.3-0.7,0.6-1.4,0.7-2.2C142.7,251.9,142.3,252.6,142.1,253.3z"/>
			<path id="Path_5165" class="st18" d="M132.4,69.3l34.2,9l-0.9,7.5l2.7,17.3c0.1,0.7,0.2,1.4,0.1,2.1l-0.9,94l1.2,21.9
				c0.2,3-0.8,5.9-2.7,8.2l0,0l-76.3-11.7c-1.8-7,11.5-80.2,11.5-80.2s10.1-38.1,11.8-43.3c3.4-10.3,18.1-16.2,18.1-16.2L132.4,69.3
				z"/>
			<path id="Path_5166" class="st13" d="M132.2,76.8l31.2,9.6c0.3,0.1,0.7,0.2,1,0.2c2.3,0.1,4.3-1.6,4.5-4l0.1-1.3
				c0.1-2-1.2-3.8-3.1-4.3l-31.3-8.3c-0.1,0-0.3-0.1-0.4-0.1c-2.3-0.4-4.5,1.2-4.8,3.5l0,0C129,74.1,130.2,76.1,132.2,76.8z"/>
			<path id="Path_5167" class="st4" d="M164.6,85.3l-4.3-1.3c-3.6-1-8.7-2.5-14.2-4l-7.5-2.1l0,0c-0.9-0.1-1.8-0.3-2.7-0.6
				c-0.8-0.3-1.6-0.5-1.9-1.2c-0.4-1.3-0.4-2.6,0.1-3.9c0.4-1.1,1-2.2,1.8-3.1c0,0-0.3,0.2-0.7,0.6c-0.6,0.7-1.1,1.5-1.4,2.3
				c-0.3,0.6-0.4,1.3-0.5,1.9c-0.1,0.8,0,1.6,0.3,2.3c0.1,0.2,0.2,0.4,0.4,0.6c0.2,0.2,0.4,0.3,0.6,0.4c0.4,0.2,0.8,0.4,1.2,0.5
				c0.9,0.3,1.8,0.5,2.8,0.6l0,0l7.4,2.1c5.5,1.5,10.6,2.9,14.3,3.9l4.3,1.1c0.5,0.2,1.1,0.3,1.6,0.3
				C165.8,85.7,165.2,85.5,164.6,85.3z"/>
			<path id="Path_5169" class="st4" d="M142.5,75.4c-0.4,1.4-0.1,2.9,0.7,4.2c-0.1-1.3-0.1-2.7,0-4c0.3-1.3,0.7-2.6,1.2-3.9
				C143.3,72.6,142.6,74,142.5,75.4z"/>
			<path id="Path_5170" class="st4" d="M153.3,73.7c0.3,1.4,0.3,2.8,0.1,4.2c-0.4,1.4-1,2.6-1.7,3.8c0.1,0.1,0.5-0.2,1-0.8
				c1.4-1.7,1.9-4,1.2-6.1C153.8,74.4,153.6,74,153.3,73.7L153.3,73.7z"/>
			<path id="Path_5171" class="st4" d="M162,76.1c1,2.7,0.5,5.7-1.3,7.9c0.1,0.1,0.5-0.2,1.1-0.8c1.4-1.7,1.8-4,1-6
				C162.4,76.5,162,76.1,162,76.1L162,76.1z"/>
			<path id="Path_5172" class="st0" d="M152.3,129.9c-5.3,13.2-8.8,27-14.2,40.3c-2.8,6.9-5.7,13.9-11.1,19
				c-5.8,5.5-13.7,8-21.3,10.3c-3.1,0.9-13.8,4.8-16.8,3.6s2.8-8.6,5.3-10.7c10.5-4.7,21.3-9.7,29.3-17.9
				c10-10.3,13.5-24.9,17.8-38.6c3.4-10.7,8-21.2,8.2-32.3c0.1-5.7-2.9-11.5-6.9-15.5c-5.4-5.5-12.8-5.4-19.4-1.5
				s-12.3,15.5-15.8,17.4l8-17c6.3-7.3,14.5-9.2,23.4-7.4s15.8,9.2,18.7,17.7C161.3,108.8,156.8,118.6,152.3,129.9z"/>
			<path id="Path_5173" class="st15" d="M147.2,258.6c0,0-1.2,6.1-3.1,6.7s-4.2-4.6-4.2-4.6c-2.6,0.8-5.7-1.4-6.2-1.8l-1.7-0.1
				c-3-0.2-4.6-4.9-4.6-4.9c-1.3,1.1-2.9,1.5-4.5,1.2c-2.7-0.5-4-18.6-4-18.6l0,0l20.4-7.1l6.1,10.3L147.2,258.6z"/>
			<path id="Path_5174" class="st13" d="M148.9,106.7c-1.3,8.5-18.3,64.7-18.3,64.7l10.9,60l-24,7.2c0,0-17.1-53.3-17.6-62.3
				c-0.4-7.1,9.2-57.3,13.2-76.4c1.5-7.3,6.8-13.3,13.8-15.8C142.3,78.8,150.4,97.4,148.9,106.7z"/>
			<path id="Path_5175" class="st20" d="M127.4,84.1c0.5-0.2,0.9-0.3,1.4-0.4c1.8-0.5,3.8-0.5,5.6-0.2c3,0.6,5.7,2.1,7.8,4.4
				c4.3,4.9,6.7,11.2,6.8,17.8c-0.2,2.6-0.7,5.2-1.5,7.8c-1.4,5.3-3,11.1-4.8,17.2c-3.6,12.2-7.7,25.8-12.3,40.6v0.2
				c3.3,18.4,7,38.7,10.9,60l0.2-0.4l-11.3,3.4l-12.8,3.8l0.4,0.2c-3.6-10.9-6.9-21.6-10-31.9c-1.5-5.1-3.1-10.2-4.4-15.2
				c-0.7-2.5-1.3-4.9-1.9-7.4c-0.3-1.2-0.6-2.4-0.8-3.7c-0.3-1.2-0.4-2.4-0.5-3.6c0.1-2.4,0.3-4.8,0.6-7.2c0.3-2.4,0.7-4.7,1-7
				c0.7-4.6,1.5-9,2.2-13.3c1.5-8.6,3-16.6,4.4-23.8s2.7-13.8,3.8-19.5c0.4-2.7,1-5.3,1.7-7.9c0.7-2.1,1.8-4.2,3.1-6
				c1.8-2.6,4.2-4.7,6.9-6.3c0.7-0.4,1.4-0.8,2.2-1.1c0.5-0.2,0.8-0.3,0.8-0.3c-1,0.3-2.1,0.8-3,1.3c-2.8,1.5-5.2,3.7-7.1,6.2
				c-1.3,1.9-2.4,3.9-3.1,6.1c-0.8,2.6-1.4,5.3-1.8,8l-3.9,19.5c-1.4,7.2-2.9,15.2-4.5,23.8c-0.8,4.3-1.5,8.7-2.3,13.3
				c-0.4,2.3-0.7,4.6-1,7c-0.4,2.4-0.6,4.9-0.7,7.3c0.1,1.2,0.2,2.5,0.4,3.7c0.2,1.2,0.5,2.5,0.8,3.7c0.6,2.5,1.2,4.9,1.9,7.4
				c1.3,5,2.8,10.1,4.4,15.2c3.1,10.3,6.5,21,10,31.9l0.1,0.3l0.3-0.1l12.8-3.9l11.3-3.4l0.3-0.1v-0.3l-10.9-60v0.1
				c4.6-14.8,8.7-28.4,12.2-40.6c1.8-6.1,3.4-11.9,4.7-17.2c0.3-1.3,0.7-2.7,0.9-4c0.3-1.3,0.5-2.6,0.5-3.9c-0.1-6.6-2.5-13-7-18
				c-2.1-2.3-4.9-3.8-7.9-4.4c-1.9-0.3-3.8-0.2-5.7,0.3c-0.6,0.2-1.3,0.4-1.9,0.6C127,84.2,127.2,84.1,127.4,84.1z"/>
			<path id="Path_5176" class="st4" d="M117.8,166.7c4.7,0.1,9.3,1.7,13.1,4.4C127.5,167.5,122.6,165.9,117.8,166.7z"/>
			<g id="Group_1023" transform="translate(153.701 165.557)" class="st14">
				<path id="Path_5177" d="M-42.8,57.7c-0.6-10-4.1-19.6-7-29.2c-2.9-9.6-4.6-18.6-2.9-28.5c-6.4,16.5-0.5,39.7,10.7,56.3"/>
			</g>
		</g>
	</g>
</g>
</svg>
