<svg xmlns="http://www.w3.org/2000/svg" width="905.747" height="680.361" viewBox="0 0 905.747 680.361">
  <g id="Group_6823" data-name="Group 6823" transform="translate(-941.474 -218.565)">
    <g id="Group_6820" data-name="Group 6820">
      <path id="Path_5078" data-name="Path 5078" d="M113.82,220.409a14.152,14.152,0,0,0-4.58-.458,13.742,13.742,0,0,0-4.58.336,13.741,13.741,0,0,0,4.58.458,12.916,12.916,0,0,0,4.58-.336Z" transform="translate(1733.401 309.602)" fill="#fff"/>
      <path id="Path_5038" data-name="Path 5038" d="M668.36,189.093a13.648,13.648,0,0,0-4.58-.4,13.83,13.83,0,0,0-4.58.4,13.831,13.831,0,0,0,4.58.4A13.649,13.649,0,0,0,668.36,189.093Z" transform="translate(282.274 293.15)" fill="#2d72f1"/>
      <path id="Path_5194" data-name="Path 5194" d="M227.69,469.307c0,.214,10.366.4,23.129.4s23.144-.183,23.144-.4-10.366-.4-23.144-.4S227.69,469.047,227.69,469.307Z" transform="translate(1337.34 429.222)" fill="#fff"/>
      <path id="Path_5196" data-name="Path 5196" d="M227.69,469.307c0,.214,10.366.4,23.129.4s23.144-.183,23.144-.4-10.366-.4-23.144-.4S227.69,469.047,227.69,469.307Z" transform="translate(949.821 429.222)" fill="#fff"/>
      <path id="BG" d="M1011.524,454.774c-12.168-33.763-31.329-44.037-49.555-65.694-22.258-26.449-37.272-45.677-31.493-79.7,9.444-55.591,13.487-194.234-134.389-176.112-53,6.5-94.886,46.918-125.357,87.269C644.8,254.876,598.165,257.9,560.624,265.909c-46.124,9.836-93.109,24.693-135.783,46.459C336.953,357.2,310.7,421.648,314.288,504.108c1.082,24.913,4.626,64.155,46.91,110.072,57.074,61.975,140.01,70.276,239.83,41.812,22.849-6.515,44.447-16.734,66.925-24.425a317.083,317.083,0,0,1,72.226-15.608c57.331-5.517,116.761,4.461,171.758-12.575a181.344,181.344,0,0,0,76.818-47.415C1015.025,528.587,1024.367,490.41,1011.524,454.774Z" transform="translate(728.14 220.161)" fill="#1145a5" opacity="0.33"/>
      <path id="Path_5021" data-name="Path 5021" d="M655.814,320.45l-14,99.742-3.641.107C640.49,386.438,642.971,351.857,655.814,320.45Z" transform="translate(479.59 392.29)" fill="#36a720"/>
      <path id="Path_5022" data-name="Path 5022" d="M652.7,317c9.776,10.669,13.71,25.459,16.19,39.755,3.521,20.271,3.841,44.21,2.787,64.761l-5.121.12A281.1,281.1,0,0,0,652.7,317Z" transform="translate(443.813 391.139)" fill="#36a720"/>
      <path id="Path_5023" data-name="Path 5023" d="M616.821,373.5c1.133-4.948,2.414-9.976,5.228-14.177,3.814-5.695,10.029-9.335,16.27-12.083s12.816-5.041,18.458-8.909c-6.295,10.322-20.591,13.07-27.859,22.672-3.628,4.8-5.135,10.829-6.548,16.67-3.094,12.75-5,23.779-8.1,36.528H610.14a326.5,326.5,0,0,1,6.681-40.7Z" transform="translate(516.009 398.256)" fill="#36a720"/>
      <path id="Path_5024" data-name="Path 5024" d="M692.789,413.664s-3.508-39.609-6.108-46.877-27.179-27.366-26.939-26.419,18.431,22.925,21.031,27.419,7.095,45.877,7.095,45.877Z" transform="translate(413.849 398.925)" fill="#36a720"/>
      <path id="Path_5012" data-name="Path 5012" d="M539.058,115.457c-.787-5.708,7.268-10.4,13.336-10.9,2.894-.227,5.881.213,8.615-.734,5.961-2.12,8.335-9.722,14.056-12.149,4.321-1.827,9.335-.2,13.483,1.907s8.322,4.761,13,5.054c4.068.267,8.5-1.254,12,.734,2.667,1.48,4,4.548,6.495,6.348s5.508,2.134,8.482,2.294,6.041.2,8.749,1.44,4.935,4.094,4.374,7.015Z" transform="translate(514.899 300.67)" fill="#36a720"/>
      <path id="Path_5014" data-name="Path 5014" d="M69.26,367.847c0,.187,153.3.347,342.37.347s342.423-.16,342.423-.347-153.288-.347-342.4-.347S69.26,367.66,69.26,367.847Z" transform="translate(1029.055 392.958)" fill="#2a4e96"/>
      <path id="Path_5015" data-name="Path 5015" d="M452.31,382.617c0,.2,33.341.36,74.537.36s74.537-.16,74.537-.36-33.341-.347-74.537-.347S452.31,382.43,452.31,382.617Z" transform="translate(670.877 397.885)" fill="#2a4e96"/>
      <path id="Path_5016" data-name="Path 5016" d="M63.873,161.7c-1.16-8.335,10.669-15.2,19.471-15.91,4.214-.347,8.589.307,12.589-1.094,8.655-3.014,12.123-14.2,20.565-17.764,6.321-2.667,13.59-.293,19.724,2.787s12.216,7.028,19.018,7.4c5.948.373,12.416-1.827,17.617,1.08,3.881,2.16,5.908,6.668,9.482,9.269s8,3.134,12.4,3.374,8.842.28,12.79,2.08,7.228,5.988,6.4,10.269Z" transform="translate(1375.336 92.792)" fill="#ff2600"/>
      <path id="Path_5017" data-name="Path 5017" d="M535.687,264.248c-1-7.255,9.242-13.23,16.937-13.843,3.668-.307,7.482.267,10.949-.947,7.535-2.667,10.549-12.363,17.9-15.457,5.495-2.321,11.829-.253,17.151,2.427s10.589,6.055,16.55,6.428c5.175.333,10.789-1.587,15.323.947,3.374,1.88,5.148,5.775,8.255,8.068s7.015,2.667,10.789,2.921,7.682.24,11.123,1.814,6.281,5.215,5.575,8.935Z" transform="translate(1098.757 179.731)" fill="#2a4e96"/>
      <path id="Path_5018" data-name="Path 5018" d="M375.509,91.139c-.707-5.121,6.521-9.335,12-9.776,2.6-.213,5.334.187,7.735-.667,5.334-1.854,7.442-8.722,12.629-10.909,3.881-1.64,8.349-.173,12.109,1.707s7.482,4.281,11.683,4.548c3.641.24,7.615-1.12,10.816.667,2.374,1.334,3.627,4,5.828,5.695a13.883,13.883,0,0,0,7.615,2.067,21.564,21.564,0,0,1,7.842,1.334c2.427,1.107,4.441,3.681,3.934,6.295Z" transform="translate(826.966 213.394)" fill="#ffb600"/>
      <path id="Path_5019" data-name="Path 5019" d="M553.791,479.368l89.671-97.408,59.013,23.205,10.376,16.817a76.885,76.885,0,0,0,25.1,24.966c12.616,7.775,29.633,20,35.795,32.421C773.744,479.368,624.9,481.51,553.791,479.368Z" transform="translate(430.11 397.782)" fill="#2a4e96"/>
      <path id="Path_5020" data-name="Path 5020" d="M225.95,477.45,90.318,409.928,30.86,477.45H225.95Z" transform="translate(1506.374 399.7)" fill="#2a4e96"/>
      <path id="Path_5025" data-name="Path 5025" d="M485.68,390.27a4.27,4.27,0,0,0,.854.067l2.414.067,8.909.107,29.34.107,29.34-.107,8.9-.107,2.427-.067a4.2,4.2,0,0,0,.84-.067,3.23,3.23,0,0,0-.84-.067h-2.427l-8.9-.107-29.34-.107-29.34.107-8.909.107h-2.414A3.282,3.282,0,0,0,485.68,390.27Z" transform="translate(659.059 400.461)" fill="#2a4e96"/>
      <g id="freepik--Plants--inject-12" transform="translate(1007.618 743.515)">
        <path id="Path_5028" data-name="Path 5028" d="M595.219,441.2a4.583,4.583,0,0,0-.305-.916c-.229-.641-.534-1.527-.916-2.458a26.855,26.855,0,0,0-4.061-7.633,16.49,16.49,0,0,0-6.931-5.145,10.889,10.889,0,0,0-2.565-.626h-.962a16.53,16.53,0,0,1,3.435.9,16.792,16.792,0,0,1,6.763,5.13,29.722,29.722,0,0,1,4.107,7.526c.412,1.023.763,1.847,1.008,2.412a8.119,8.119,0,0,0,.427.809Z" transform="translate(-572.966 -353.197)" fill="#263238"/>
        <path id="Path_5032" data-name="Path 5032" d="M86.161,491.95l-.641-.076c1.328-19.846,11.3-41.128,18.534-59.738,7.435-19.159,14.412-38.823,31.342-50.456A1167.056,1167.056,0,0,0,86.161,491.95" transform="translate(640.961 -375.706)" fill="#36a720"/>
        <path id="Path_5033" data-name="Path 5033" d="M118.167,387.83v.26l.229.733.947,2.84c.2.611.427,1.3.687,2.03l.733,2.458c.519,1.756,1.176,3.756,1.725,6,.29,1.115.611,2.29.931,3.511s.58,2.5.885,3.832c.641,2.641,1.16,5.5,1.74,8.5,1.038,6.107,1.939,12.686,2.473,19.724s.565,13.74.427,19.846c-.137,3.053-.214,5.954-.458,8.656-.107,1.359-.168,2.672-.305,3.924s-.26,2.473-.366,3.618c-.214,2.305-.55,4.366-.779,6.2l-.351,2.534c-.137.779-.26,1.527-.366,2.122-.2,1.252-.351,2.244-.473,2.946l-.107.763a1.619,1.619,0,0,0,0,.259s1.282-5.588,2.4-14.793c.122-1.145.26-2.351.4-3.618s.214-2.565.336-3.924c.26-2.717.351-5.618.489-8.687.168-6.107.092-12.87-.4-19.923s-1.527-13.74-2.519-19.755c-.58-3.053-1.114-5.878-1.771-8.519-.321-1.328-.6-2.611-.916-3.832s-.641-2.4-.947-3.511c-.58-2.244-1.252-4.229-1.786-6l-.779-2.443-.718-2.03c-.427-1.191-.779-2.137-1.008-2.794q-.183-.458-.275-.733Z" transform="translate(597.078 -372.467)" fill="#455a64"/>
        <rect id="Rectangle_276" data-name="Rectangle 276" width="34.075" height="10.152" rx="2.98" transform="matrix(-0.273, -0.962, 0.962, -0.273, 716.515, 35.552)" fill="#29cc09"/>
        <path id="Path_5034" data-name="Path 5034" d="M131.828,411.765a4.264,4.264,0,0,1-.809.107,4.458,4.458,0,0,1-2.259-.412,4.366,4.366,0,0,1-2.351-2.626c-.4-1.374-.824-2.977-1.328-4.733-.977-3.527-2.153-7.71-3.45-12.351-.641-2.32-1.328-4.763-2.046-7.282a4.351,4.351,0,0,1,.672-3.633,4.183,4.183,0,0,1,1.45-1.282,8.154,8.154,0,0,1,1.924-.656A4.336,4.336,0,0,1,128.561,381a8.625,8.625,0,0,1,.626,1.832c.717,2.519,1.42,4.962,2.076,7.282,1.328,4.58,2.534,8.794,3.542,12.32.26.87.489,1.71.718,2.5a7.741,7.741,0,0,1,.458,2.229,4.58,4.58,0,0,1-1.42,3.237,4.855,4.855,0,0,1-2.015,1.1l-.58.183-.2.076h.214l.6-.153a4.551,4.551,0,0,0,3.618-4.412,8.413,8.413,0,0,0-.443-2.305c-.214-.794-.443-1.634-.687-2.5-.992-3.526-2.168-7.633-3.466-12.351-.641-2.32-1.328-4.763-2.046-7.282a8.685,8.685,0,0,0-.656-1.924,4.854,4.854,0,0,0-1.374-1.527,4.778,4.778,0,0,0-4.107-.748,10.078,10.078,0,0,0-2,.7,4.672,4.672,0,0,0-1.527,1.4,4.763,4.763,0,0,0-.733,3.985c.717,2.519,1.42,4.962,2.076,7.282l3.542,12.32c.5,1.756.947,3.328,1.389,4.733A4.58,4.58,0,0,0,131,412.04a3.054,3.054,0,0,0,.824-.275Z" transform="translate(589.05 -377.441)" fill="#263238"/>
        <path id="Path_5035" data-name="Path 5035" d="M173.663,477.485c.626-15.343.641-32.228-8.061-44.9-4.931-7.16-12.351-12.335-20.289-15.892a142.129,142.129,0,0,0-24.9-7.694c9.419,13.19,30.747,13.343,39.693,26.808,2.687,4,3.939,8.748,5.145,13.4,2.519,9.618,4.717,18.747,7.236,28.38" transform="translate(549.184 -361.318)" fill="#36a720"/>
        <path id="Path_5036" data-name="Path 5036" d="M128.762,418.565h-.824c-.534.076-1.328.137-2.336.336a55.484,55.484,0,0,0-8.412,2.107,60.26,60.26,0,0,0-11.709,5.358,65.648,65.648,0,0,0-6.259,4.305,59.549,59.549,0,0,0-6.107,5.511,52.26,52.26,0,0,0-5.191,6.32c-.794,1.053-1.527,2.168-2.168,3.221s-1.313,2.153-1.878,3.221a64.8,64.8,0,0,0-5.068,11.832,54.824,54.824,0,0,0-2,8.442c-.183,1.008-.229,1.8-.29,2.336v.626a1.6,1.6,0,0,1,.092-.611c.107-.534.168-1.328.382-2.32a59.163,59.163,0,0,1,2.122-8.381,65.778,65.778,0,0,1,5.114-11.74c.565-1.069,1.237-2.107,1.878-3.191a37.935,37.935,0,0,1,2.153-3.206,54.324,54.324,0,0,1,5.175-6.259,58.539,58.539,0,0,1,5.984-5.465,67.167,67.167,0,0,1,6.213-4.305,60.379,60.379,0,0,1,19.953-7.633c1.008-.229,1.786-.305,2.321-.412l.611-.107Z" transform="translate(661.335 -356.289)" fill="#455a64"/>
        <rect id="Rectangle_277" data-name="Rectangle 277" width="10.152" height="34.075" rx="2.98" transform="translate(776.95 72.246) rotate(-115.68)" fill="#29cc09"/>
        <path id="Path_5037" data-name="Path 5037" d="M66.51,427.848a4.363,4.363,0,0,1-.244-.779,4.473,4.473,0,0,1,2.214-4.992c1.282-.641,2.794-1.328,4.427-2.122l11.511-5.511,6.839-3.267a4.35,4.35,0,0,1,3.694,0,4.488,4.488,0,0,1,1.527,1.221,9.323,9.323,0,0,1,.977,1.771,4.366,4.366,0,0,1,0,3.8,4.578,4.578,0,0,1-1.191,1.527,8,8,0,0,1-1.71.931L87.761,423.6l-11.541,5.6-2.336,1.13a7.757,7.757,0,0,1-2.122.84,4.58,4.58,0,0,1-3.435-.855,4.824,4.824,0,0,1-1.42-1.786l-.29-.55a1.32,1.32,0,0,0-.107-.183.671.671,0,0,0,0,.2l.244.565a4.811,4.811,0,0,0,1.4,1.893,4.671,4.671,0,0,0,3.572.947,7.891,7.891,0,0,0,2.2-.825l2.351-1.114,11.572-5.511c2.168-1.053,4.458-2.137,6.824-3.267a8.536,8.536,0,0,0,1.771-.992,4.884,4.884,0,0,0,1.328-1.618,4.748,4.748,0,0,0,0-4.168,8.825,8.825,0,0,0-1.023-1.847,4.718,4.718,0,0,0-5.71-1.359l-6.809,3.282-11.541,5.6c-1.634.794-3.053,1.527-4.427,2.168a4.58,4.58,0,0,0-2.168,2.992,4.321,4.321,0,0,0,0,2.351,2.613,2.613,0,0,0,.412.748Z" transform="translate(708 -360.655)" fill="#263238"/>
      </g>
      <path id="Path_5039" data-name="Path 5039" d="M653.54,189.077a105.716,105.716,0,0,0-18.32,0A105.722,105.722,0,0,0,653.54,189.077Z" transform="translate(333.703 293.166)" fill="#2d72f1"/>
      <path id="Path_5040" data-name="Path 5040" d="M629.57,189.077a105.534,105.534,0,0,0-18.32,0A105.543,105.543,0,0,0,629.57,189.077Z" transform="translate(394.268 293.165)" fill="#2d72f1"/>
      <path id="Path_5041" data-name="Path 5041" d="M605.59,189.077a105.719,105.719,0,0,0-18.32,0A105.725,105.725,0,0,0,605.59,189.077Z" transform="translate(454.856 293.166)" fill="#2a4e96"/>
      <path id="Path_5042" data-name="Path 5042" d="M581.62,189.077a105.535,105.535,0,0,0-18.32,0A105.544,105.544,0,0,0,581.62,189.077Z" transform="translate(515.42 293.165)" fill="#2a4e96"/>
      <path id="Path_5043" data-name="Path 5043" d="M557.66,188.422a83.368,83.368,0,0,0-9.16.244,67.86,67.86,0,0,0-9.16.565,43.369,43.369,0,0,0,9.16.229A38.362,38.362,0,0,0,557.66,188.422Z" transform="translate(575.958 293.012)" fill="#2a4e96"/>
      <path id="Path_5044" data-name="Path 5044" d="M532.722,178.712c-.2-.168-2.733,3.053-6.809,6s-7.877,4.473-7.771,4.717a7.878,7.878,0,0,0,2.565-.84,30.418,30.418,0,0,0,5.679-3.237,20.714,20.714,0,0,0,6.336-6.641Z" transform="translate(633.261 287.913)" fill="#2a4e96"/>
      <path id="Path_5045" data-name="Path 5045" d="M513.85,156.05c-.2,0-.458,4.076-1.084,9.068s-1.527,8.992-1.252,9.053a31.071,31.071,0,0,0,2.046-8.946A32.935,32.935,0,0,0,513.85,156.05Z" transform="translate(662.132 275.981)" fill="#2a4e96"/>
      <path id="Path_5046" data-name="Path 5046" d="M512.411,134.22a29.373,29.373,0,0,0-5.725,7.175,27.764,27.764,0,0,0-3.832,8.351c.214.092,1.847-3.664,4.5-7.939S512.594,134.373,512.411,134.22Z" transform="translate(676.899 264.485)" fill="#2a4e96"/>
      <path id="Path_5047" data-name="Path 5047" d="M499.575,121.05a29.587,29.587,0,0,0-8.641,3.053,30.3,30.3,0,0,0-7.755,4.916c.122.2,3.572-2,8.091-4.2S499.652,121.264,499.575,121.05Z" transform="translate(719.779 257.549)" fill="#2a4e96"/>
      <path id="Path_5048" data-name="Path 5048" d="M477.658,120.749a29.968,29.968,0,0,0-9.022-1.695,52.825,52.825,0,0,0-6.5,0,10.061,10.061,0,0,0-2.672.26,8.182,8.182,0,0,0,2.672.305c1.664,0,3.939.107,6.442.305C473.581,120.215,477.612,120.978,477.658,120.749Z" transform="translate(777.909 256.445)" fill="#2a4e96"/>
      <path id="Path_5049" data-name="Path 5049" d="M453.3,135.09a28.577,28.577,0,0,0-6.7-6.29,29.005,29.005,0,0,0-7.969-4.58c-.107.214,3.466,2.214,7.5,5.206S453.135,135.258,453.3,135.09Z" transform="translate(834.063 259.218)" fill="#2a4e96"/>
      <path id="Path_5050" data-name="Path 5050" d="M433.475,158.45a35.893,35.893,0,0,0-5.3-17.45c-.214.107,1.527,3.786,3.053,8.61S433.231,158.48,433.475,158.45Z" transform="translate(869.875 268.055)" fill="#2a4e96"/>
      <path id="Path_5051" data-name="Path 5051" d="M428,182.71a53.738,53.738,0,0,0,.259-9.16,52.022,52.022,0,0,0-.534-9.16,53.854,53.854,0,0,0-.259,9.16A52.013,52.013,0,0,0,428,182.71Z" transform="translate(876.187 280.374)" fill="#2a4e96"/>
      <path id="Path_5052" data-name="Path 5052" d="M427.654,206.68a52.492,52.492,0,0,0,.275-9.16,53.673,53.673,0,0,0-.534-9.16,52.5,52.5,0,0,0-.275,9.16,53.865,53.865,0,0,0,.534,9.16Z" transform="translate(877.056 292.997)" fill="#2a4e96"/>
      <path id="Path_5053" data-name="Path 5053" d="M427.314,230.65a53.442,53.442,0,0,0,.26-9.16,52.015,52.015,0,0,0-.534-9.16,53.616,53.616,0,0,0-.259,9.16A51.765,51.765,0,0,0,427.314,230.65Z" transform="translate(877.93 305.621)" fill="#2a4e96"/>
      <path id="Path_5054" data-name="Path 5054" d="M428.241,252.586c.2-.137-2.107-3.527-4.305-8.045s-3.4-8.412-3.633-8.351a27.172,27.172,0,0,0,2.931,8.7,27.722,27.722,0,0,0,5.007,7.694Z" transform="translate(887.095 318.187)" fill="#2a4e96"/>
      <path id="Path_5055" data-name="Path 5055" d="M417.493,264.263c.076-.214-3.725-1.74-8.122-4.168s-7.725-4.809-7.862-4.58a29.128,29.128,0,0,0,7.48,5.313A29.462,29.462,0,0,0,417.493,264.263Z" transform="translate(926.543 328.356)" fill="#2a4e96"/>
      <path id="Path_5056" data-name="Path 5056" d="M396.174,264.145a58.91,58.91,0,0,0-9.16-.382h-6.458a9.269,9.269,0,0,0-2.687.168,8.884,8.884,0,0,0,2.672.4l2.916.214h3.557A48.286,48.286,0,0,0,396.174,264.145Z" transform="translate(983.952 332.688)" fill="#2a4e96"/>
      <path id="Path_5057" data-name="Path 5057" d="M371.77,257.124c-.137-.2-3.6,1.969-8.168,4.061s-8.442,3.389-8.381,3.618a29.323,29.323,0,0,0,8.717-2.9,29.861,29.861,0,0,0,7.832-4.778Z" transform="translate(1042.935 329.205)" fill="#2a4e96"/>
      <path id="Path_5058" data-name="Path 5058" d="M349.485,238.87c-.229-.076-1.756,3.725-4.305,8.045s-5.084,7.526-4.9,7.633a28.135,28.135,0,0,0,5.587-7.282,27.754,27.754,0,0,0,3.618-8.4Z" transform="translate(1088.043 319.598)" fill="#2a4e96"/>
      <path id="Path_5059" data-name="Path 5059" d="M338.15,215.17a53.667,53.667,0,0,0-.4,9.16,53.77,53.77,0,0,0,.4,9.16,52.085,52.085,0,0,0,.4-9.16A51.9,51.9,0,0,0,338.15,215.17Z" transform="translate(1102.844 307.117)" fill="#2a4e96"/>
      <path id="Path_5060" data-name="Path 5060" d="M338.15,191.2a53.666,53.666,0,0,0-.4,9.16,53.667,53.667,0,0,0,.4,9.16,51.9,51.9,0,0,0,.4-9.16A51.9,51.9,0,0,0,338.15,191.2Z" transform="translate(1102.844 294.493)" fill="#2a4e96"/>
      <path id="Path_5061" data-name="Path 5061" d="M338.15,167.22a53.933,53.933,0,0,0-.4,9.16,53.667,53.667,0,0,0,.4,9.16,51.9,51.9,0,0,0,.4-9.16A52.085,52.085,0,0,0,338.15,167.22Z" transform="translate(1102.843 281.864)" fill="#2a4e96"/>
      <path id="Path_5062" data-name="Path 5062" d="M338.15,143.25a53.666,53.666,0,0,0-.4,9.16,53.912,53.912,0,0,0,.4,9.16,52.085,52.085,0,0,0,.4-9.16,51.9,51.9,0,0,0-.4-9.16Z" transform="translate(1102.844 269.24)" fill="#2a4e96"/>
      <path id="Path_5063" data-name="Path 5063" d="M338.276,119.27a9.709,9.709,0,0,0-.351,2.687c-.076,1.649-.122,3.939-.122,6.473a53.658,53.658,0,0,0,.4,9.16,51.9,51.9,0,0,0,.4-9.16c0-2.534,0-4.824-.107-6.473A9.433,9.433,0,0,0,338.276,119.27Z" transform="translate(1102.717 256.611)" fill="#2a4e96"/>
      <path id="Path_5064" data-name="Path 5064" d="M338.619,97.55a28.455,28.455,0,0,0-5.832,7.1,27.692,27.692,0,0,0-3.893,8.32c.229.092,1.878-3.664,4.58-7.893S338.8,97.7,338.619,97.55Z" transform="translate(1116.267 245.172)" fill="#2a4e96"/>
      <path id="Path_5065" data-name="Path 5065" d="M325.553,85.16a40.578,40.578,0,0,0-16.793,7.221c.122.2,3.664-1.863,8.274-3.832S325.614,85.389,325.553,85.16Z" transform="translate(1160.08 238.647)" fill="#2a4e96"/>
      <path id="Path_5066" data-name="Path 5066" d="M303.228,84.928a30.182,30.182,0,0,0-9.053-1.527c-2.549-.137-4.84,0-6.5,0a9.16,9.16,0,0,0-2.672.29,8.947,8.947,0,0,0,2.672.275c1.664.092,3.954,0,6.458.214C299.2,84.5,303.228,85.157,303.228,84.928Z" transform="translate(1218.678 237.689)" fill="#2a4e96"/>
      <path id="Path_5067" data-name="Path 5067" d="M278.8,98.658A39.586,39.586,0,0,0,263.852,88.2c-.107.214,3.511,2.122,7.633,5.007S278.569,98.825,278.8,98.658Z" transform="translate(1275.396 240.248)" fill="#2a4e96"/>
      <path id="Path_5068" data-name="Path 5068" d="M258.608,121.771a27.114,27.114,0,0,0-1.8-9.007,26.943,26.943,0,0,0-4.03-8.244c-.214.107,1.679,3.74,3.282,8.5S258.379,121.8,258.608,121.771Z" transform="translate(1312.517 248.843)" fill="#2a4e96"/>
      <path id="Path_5069" data-name="Path 5069" d="M252.5,146.09a51.9,51.9,0,0,0,.4-9.16,51.91,51.91,0,0,0-.4-9.16,53.67,53.67,0,0,0-.4,9.16A53.664,53.664,0,0,0,252.5,146.09Z" transform="translate(1319.251 261.088)" fill="#2a4e96"/>
      <path id="Path_5070" data-name="Path 5070" d="M252.5,170.07a51.9,51.9,0,0,0,.4-9.16,52.084,52.084,0,0,0-.4-9.16,53.92,53.92,0,0,0-.4,9.16,53.654,53.654,0,0,0,.4,9.16Z" transform="translate(1319.251 273.717)" fill="#2a4e96"/>
      <path id="Path_5071" data-name="Path 5071" d="M253.076,194.01c.229,0-.458-4.091-.519-9.16a52.494,52.494,0,0,0-.412-9.16,52.823,52.823,0,0,0-.382,9.16,26.946,26.946,0,0,0,1.313,9.16Z" transform="translate(1319.605 286.325)" fill="#2a4e96"/>
      <path id="Path_5072" data-name="Path 5072" d="M251.629,212.967c.153-.183-2.855-2.962-6.107-6.855s-5.313-7.374-5.527-7.252A37.922,37.922,0,0,0,251.629,212.967Z" transform="translate(1338.976 298.526)" fill="#2a4e96"/>
      <path id="Path_5073" data-name="Path 5073" d="M236.03,220.017c0-.229-3.985-.962-8.793-2.443s-8.549-3.053-8.656-2.9a30.06,30.06,0,0,0,8.427,3.664A29.509,29.509,0,0,0,236.03,220.017Z" transform="translate(1387.276 306.85)" fill="#2a4e96"/>
      <path id="Path_5074" data-name="Path 5074" d="M212.95,219.211a54.961,54.961,0,0,0-9.16-.519,50.975,50.975,0,0,0-9.16.275,54.956,54.956,0,0,0,9.16.519,51.1,51.1,0,0,0,9.16-.275Z" transform="translate(1446.919 308.923)" fill="#2a4e96"/>
      <path id="Path_5075" data-name="Path 5075" d="M188.98,219.519a53.009,53.009,0,0,0-9.16-.519,53.74,53.74,0,0,0-9.16.26,52.026,52.026,0,0,0,9.16.534,54.609,54.609,0,0,0,9.16-.275Z" transform="translate(1507.483 309.088)" fill="#2a4e96"/>
      <path id="Path_5076" data-name="Path 5076" d="M165.01,219.864a52.03,52.03,0,0,0-9.16-.534,52.855,52.855,0,0,0-9.16.275,53,53,0,0,0,9.16.519,53.731,53.731,0,0,0,9.16-.26Z" transform="translate(1568.047 309.262)" fill="#2a4e96"/>
      <path id="Path_5077" data-name="Path 5077" d="M141.04,220.21a53.005,53.005,0,0,0-9.16-.519,53.427,53.427,0,0,0-9.16.26,51.714,51.714,0,0,0,9.16.534A52.612,52.612,0,0,0,141.04,220.21Z" transform="translate(1628.61 309.451)" fill="#2a4e96"/>
      <path id="Path_5079" data-name="Path 5079" d="M289.84,72.453A10.885,10.885,0,1,1,310.1,77.964h0a22.237,22.237,0,0,1-1.527,1.954l-6.366,8.4a1.969,1.969,0,0,1-3.13,0l-6.213-8.229a25.842,25.842,0,0,1-1.527-2.092h0A10.869,10.869,0,0,1,289.84,72.453ZM300.679,77.2a4.794,4.794,0,1,0-4.794-4.794A4.794,4.794,0,0,0,300.679,77.2Z" transform="translate(1202.907 226.21)" fill="#ff2600"/>
      <path id="Path_5080" data-name="Path 5080" d="M560.16,178.009a10.885,10.885,0,1,1,20.274,5.5h0a16.247,16.247,0,0,1-1.527,1.939l-6.32,8.366a1.954,1.954,0,0,1-3.053,0l-6.213-8.229a25.869,25.869,0,0,1-1.527-2.092h0A10.871,10.871,0,0,1,560.16,178.009Zm10.885,4.733a4.778,4.778,0,1,0-3.384-1.4A4.794,4.794,0,0,0,571.045,182.742Z" transform="translate(519.903 281.807)" fill="#36a720"/>
      <path id="Path_5081" data-name="Path 5081" d="M459.97,107.418a10.885,10.885,0,1,1,20.259,5.5h0a17.636,17.636,0,0,1-1.527,1.954l-6.32,8.366a1.969,1.969,0,0,1-3.13,0l-6.213-8.229a25.847,25.847,0,0,1-1.527-2.092h0A10.855,10.855,0,0,1,459.97,107.418Zm10.87,4.733a4.794,4.794,0,1,0-4.779-4.794,4.794,4.794,0,0,0,4.779,4.794Z" transform="translate(773.048 244.617)" fill="#ffb600"/>
      <path id="Path_5082" data-name="Path 5082" d="M162.76,203.22a13.45,13.45,0,1,1,25.006,6.794h0a29.2,29.2,0,0,1-1.817,2.4l-7.8,10.351a2.412,2.412,0,0,1-3.878,0l-7.633-10.168a28.193,28.193,0,0,1-1.954-2.6h0a13.389,13.389,0,0,1-1.924-6.778Zm13.465,5.862a5.923,5.923,0,1,0-5.923-5.923,5.923,5.923,0,0,0,5.923,5.923Z" transform="translate(1518.863 293.694)" fill="#2a4e96"/>
      <g id="freepik--Character--inject-12" transform="translate(1241.107 411.571)">
        <path id="Path_5083" data-name="Path 5083" d="M313.862,171.125a42.049,42.049,0,0,1,21.111,4.4c6.975,3.254,13.563,8.068,17.03,14.937s3.081,16-2.387,21.445c10.509,2.787,18.417,12.136,21.725,22.485s2.6,21.6.507,32.274c-1,5.041-2.774,10.669-7.428,12.829-2.987,1.334-6.668,1.067-9.469,2.787s-4.081,4.868-5.855,7.548a22.672,22.672,0,0,1-32.354,5.761L295.191,181.061C299.418,175.139,306.62,171.739,313.862,171.125Z" transform="translate(-149.398 -91.56)" fill="#2a4e96"/>
        <path id="Path_5084" data-name="Path 5084" d="M313.59,180.36a14.775,14.775,0,0,0,1.48,1.787c1,1.12,2.454,2.667,4.294,4.668a91.757,91.757,0,0,0,15.79,13.723,45.652,45.652,0,0,0,19.471,7.495,30.952,30.952,0,0,0,6.361.133,10.084,10.084,0,0,0,1.72-.213,2,2,0,0,0,.587-.133s-.84,0-2.321.08a35.662,35.662,0,0,1-6.281-.347,47.37,47.37,0,0,1-19.151-7.588,102.483,102.483,0,0,1-15.83-13.416l-4.441-4.521a14.666,14.666,0,0,0-1.68-1.667Z" transform="translate(-163.61 -88.459)" fill="#263238"/>
        <path id="Path_5085" data-name="Path 5085" d="M320.287,208.812a3.393,3.393,0,0,0,.72-1.547,10.417,10.417,0,0,0,.2-4.134,10.19,10.19,0,0,0-1.467-3.867,4.423,4.423,0,0,0-1.16-1.334,20.083,20.083,0,0,1,1.934,5.241A19.764,19.764,0,0,1,320.287,208.812Z" transform="translate(-128.298 -82.597)" fill="#263238"/>
        <path id="Path_5086" data-name="Path 5086" d="M315.874,209.28a2.866,2.866,0,0,0-.293.627c-.173.413-.44,1.027-.72,1.854a57.886,57.886,0,0,0-2.04,7.015,52.144,52.144,0,0,0,0,24.005,40.143,40.143,0,0,0,12.416,20.391,31.766,31.766,0,0,0,6.041,4.134,16.427,16.427,0,0,0,1.787.854,3.779,3.779,0,0,0,.653.24,24.433,24.433,0,0,0-2.32-1.334,35.6,35.6,0,0,1-5.841-4.254,41.01,41.01,0,0,1-12.069-20.2,53.571,53.571,0,0,1-.227-23.7c.613-3.014,1.334-5.335,1.8-7.042a21.03,21.03,0,0,0,.813-2.587Z" transform="translate(-131.14 -78.81)" fill="#263238"/>
        <path id="Path_5087" data-name="Path 5087" d="M296.16,224.048a7.679,7.679,0,0,0,1.627-.36c1.04-.28,2.547-.653,4.414-1.094a106.022,106.022,0,0,1,29.673-2.667c1.907.093,3.454.2,4.521.293a7.212,7.212,0,0,0,1.667,0,7.353,7.353,0,0,0-1.64-.333c-1.054-.173-2.6-.347-4.521-.507a89.139,89.139,0,0,0-29.82,2.667c-1.867.493-3.347.947-4.361,1.334a6.668,6.668,0,0,0-1.56.667Z" transform="translate(-115.133 -75.535)" fill="#263238"/>
        <g id="Group_1014" data-name="Group 1014" transform="translate(157.715 100.303)" opacity="0.3">
          <path id="Path_5088" data-name="Path 5088" d="M355.326,205.784h0c-7.255,4.668-17.044,4.134-24.725.2s-13.336-11.229-16.31-19.324C324.332,198.263,339.242,206.678,355.326,205.784Z" transform="translate(-314.29 -186.66)"/>
        </g>
        <g id="Group_1015" data-name="Group 1015" transform="translate(181.801 164.464)" opacity="0.3">
          <path id="Path_5089" data-name="Path 5089" d="M332.2,259.869a20.524,20.524,0,0,1-15.257-8.535,37.008,37.008,0,0,1-5.575-16.564,78.463,78.463,0,0,0,7.308,14.39,35.665,35.665,0,0,0,5.748,5.775,38.043,38.043,0,0,0,7.788,4.934" transform="translate(-311.37 -234.77)"/>
        </g>
        <path id="Path_5090" data-name="Path 5090" d="M317.072,220.23a12,12,0,0,0-.947,3.468c-.227,1.094-.48,2.361-.867,3.774a4.361,4.361,0,0,0,0,2.454,2.24,2.24,0,0,0,2.147,1.64,2.494,2.494,0,0,0,2.054-1.774,4.455,4.455,0,0,0,0-2.441c-.387-1.454-.8-2.667-1.134-3.747a19.076,19.076,0,0,0-1.214-3.374,18.345,18.345,0,0,0,.747,3.521c.293,1.134.627,2.387.974,3.734a4,4,0,0,1,0,2.094,1.867,1.867,0,0,1-1.454,1.334,1.56,1.56,0,0,1-1.467-1.174,4.068,4.068,0,0,1,0-2.081,33.771,33.771,0,0,0,.734-3.827C316.859,221.59,317.072,220.257,317.072,220.23Z" transform="translate(-121.935 -75.157)" fill="#263238"/>
        <path id="Path_5091" data-name="Path 5091" d="M317.55,191.22a39.663,39.663,0,0,0,4.268-2.481,98.025,98.025,0,0,1,10.442-5.655,47.48,47.48,0,0,1,11.242-3.6c2.987-.547,4.881-.56,4.881-.68a4.985,4.985,0,0,0-1.334-.08,26.246,26.246,0,0,0-3.614.267,42.063,42.063,0,0,0-11.469,3.454,74.246,74.246,0,0,0-10.416,5.881c-1.267.84-2.281,1.547-2.974,2.054A5.334,5.334,0,0,0,317.55,191.22Z" transform="translate(-153.98 -89.01)" fill="#263238"/>
        <path id="Path_5092" data-name="Path 5092" d="M336.98,187.48c-.08,0-.147.453.227,1.027a2.321,2.321,0,0,0,2.361.987h0l.44-.08-.2-.413a3.281,3.281,0,0,0-1.88-1.64c-.613-.2-1.014-.12-1.027,0s.347.213.827.493a3.574,3.574,0,0,1,1.454,1.494l.227-.493h0a2.08,2.08,0,0,1-1.84-.613C337.207,187.827,337.087,187.467,336.98,187.48Z" transform="translate(-171.41 -86.164)" fill="#263238"/>
        <path id="Path_5093" data-name="Path 5093" d="M444.352,195.587s5.335-7.015,5.335-9.856l-2.214-16.51s-.96-1.667-2.454,1.094c-1.334,2.534-.587,6.455-.587,6.455l-.934,3.881-2.014-2.934-2.267-11.029s-1.44-8-2.667-7.135-1.6,3.147-.974,6.588,1.427,7.8,1.427,7.8.16,1.334-1.12-.92-2.667-11.909-3.187-13.2-.68-4.734-2.667-4.548-.827,4.574-.827,4.574l1.894,14.217s-1.84-5.721-2.187-6.668-.894-4.094-1.56-5.8-1.654-2.587-2.52-2.481a1.627,1.627,0,0,0-1.534,1.627L426.2,172.9s1.614,5.535,1.507,5.895-2.147-2.307-2.147-2.307l-1.574-4s-1.334-5.588-2.8-5.748-1.547.974-1.547.974l2.467,10.216,4.521,11.656,4.281,8.762s5.975-.934,6.2-.627S444.352,195.587,444.352,195.587Z" transform="translate(-391.434 -96.832)" fill="#ffbe9d"/>
        <path id="Path_5094" data-name="Path 5094" d="M423.585,185.286a17.735,17.735,0,0,0,1.227-2.561A8.882,8.882,0,0,1,429.239,178a4.774,4.774,0,0,1,3.134-.24l.347.093.08-.373c.387-1.694.92-3.254,1.16-4.321a4.228,4.228,0,0,0,.28-1.774,8.687,8.687,0,0,0-.667,1.64,44.928,44.928,0,0,0-1.44,4.361l.44-.28a5.334,5.334,0,0,0-3.6.213,7.522,7.522,0,0,0-3.107,2.414,12.4,12.4,0,0,0-1.52,2.774A8.39,8.39,0,0,0,423.585,185.286Z" transform="translate(-381.255 -91.452)" fill="#eb996e"/>
        <path id="Path_5095" data-name="Path 5095" d="M446.51,179.51l-29.54,44.157-13.336-38.489-18.164,4.468s7.415,51.745,10.242,56.879,11.7,12.549,22.672,11.056,32.834-30.927,32.834-30.927Z" transform="translate(-347.395 -88.743)" fill="#ffd500"/>
        <path id="Path_5096" data-name="Path 5096" d="M411.58,230.554a30.674,30.674,0,0,1,4-18.564,8,8,0,0,0-1.68,2.321,22.407,22.407,0,0,0-2.48,6.495,22.887,22.887,0,0,0-.453,6.935,8.228,8.228,0,0,0,.613,2.814Z" transform="translate(-345.646 -77.906)" fill="#263238"/>
        <g id="Group_1016" data-name="Group 1016" transform="translate(93.113 109.172)" opacity="0.3">
          <path id="Path_5097" data-name="Path 5097" d="M393.995,231.439a6.9,6.9,0,0,1-3.6-5.148,20.071,20.071,0,0,1,.2-6.495c1.187-8.709,2.854-17.777,4-26.486l-.467,37.222" transform="translate(-390.22 -193.31)"/>
        </g>
        <g id="Group_1017" data-name="Group 1017" transform="translate(62.436 134.177)" opacity="0.3">
          <path id="Path_5098" data-name="Path 5098" d="M414.192,228.384a3.614,3.614,0,0,1-2.667-2.134,6.855,6.855,0,0,1-.467-3.521,13.336,13.336,0,0,1,7.282-10.669,29.713,29.713,0,0,0-4.108,16.3" transform="translate(-411 -212.06)"/>
        </g>
        <path id="Path_5099" data-name="Path 5099" d="M479.621,397.779l-16.884,38.435L414.46,415.89c2.227-4.481,33.034-2.2,33.034-2.2l10.669-26.1Z" transform="translate(-414.46 -19.321)"/>
        <g id="Group_1018" data-name="Group 1018" transform="translate(43.729 397.162)" opacity="0.6">
          <path id="Path_5100" data-name="Path 5100" d="M430.753,409.648a2.147,2.147,0,0,1,.413,2.827,2.067,2.067,0,0,1-2.8.427,2.254,2.254,0,0,1-.413-2.987,2.134,2.134,0,0,1,2.947-.133" transform="translate(-427.564 -409.255)" fill="#fff"/>
        </g>
        <g id="Group_1019" data-name="Group 1019" transform="translate(0 394.889)" opacity="0.6">
          <path id="Path_5101" data-name="Path 5101" d="M474.257,429.555l1.52-4-46.85-18s-2.547,0-2.947,1.64Z" transform="translate(-425.98 -407.55)" fill="#fff"/>
        </g>
        <path id="Path_5102" data-name="Path 5102" d="M436.653,407.266c-.093.24,1.04.854,1.88,2.094s1.04,2.494,1.334,2.494.48-1.507-.573-3S436.694,407.04,436.653,407.266Z" transform="translate(-404.526 -12.778)" fill="#263238"/>
        <path id="Path_5103" data-name="Path 5103" d="M443.1,406.911c-.16.2.694,1.027,1.08,2.36s.16,2.494.4,2.574.96-1.174.453-2.827S443.191,406.684,443.1,406.911Z" transform="translate(-418.212 -12.889)" fill="#263238"/>
        <path id="Path_5104" data-name="Path 5104" d="M448.086,411.6c.187.133,1.013-.907.947-2.441s-.947-2.521-1.12-2.374.2,1.134.24,2.4S447.859,411.478,448.086,411.6Z" transform="translate(-428.428 -12.922)" fill="#263238"/>
        <path id="Path_5105" data-name="Path 5105" d="M433.211,402.595c0,.253,1.227.387,2.521,1.04s2.16,1.507,2.374,1.334-.44-1.414-1.974-2.16S433.184,402.368,433.211,402.595Z" transform="translate(-397.99 -14.401)" fill="#263238"/>
        <path id="Path_5106" data-name="Path 5106" d="M279.4,437.406l2.067-20.525L264.34,395.316l20.991-13.5.56.827,10.669,16.11,13.856,10.936-22,36.155-21.431-1.44S268.9,439.406,279.4,437.406Z" transform="translate(-45.051 -21.246)"/>
        <g id="Group_1020" data-name="Group 1020" transform="translate(221.956 386.127)" opacity="0.6">
          <path id="Path_5107" data-name="Path 5107" d="M307.756,403.3l-22,36.155-21.431-1.44,2.627-3.054,17.5.213,20.365-34.194Z" transform="translate(-264.32 -400.98)" fill="#fff"/>
        </g>
        <path id="Path_5108" data-name="Path 5108" d="M282.449,416.737c.133.227,1.427-.387,3.081-.227s2.827.92,3,.72-.907-1.507-2.934-1.667S282.235,416.564,282.449,416.737Z" transform="translate(-47.303 -9.993)" fill="#263238"/>
        <path id="Path_5109" data-name="Path 5109" d="M281.881,413.186c.213.173,1.254-1.027,2.974-1.24s3.054.653,3.2.44-.147-.467-.72-.84a4.013,4.013,0,0,0-4.974.653C281.908,412.706,281.788,413.119,281.881,413.186Z" transform="translate(-46.082 -11.522)" fill="#263238"/>
        <path id="Path_5110" data-name="Path 5110" d="M282.172,408.338c.227.147,1.04-1.054,2.561-1.467s2.841.16,2.961-.067-.187-.427-.76-.68a3.721,3.721,0,0,0-4.468,1.24C282.106,407.885,282.066,408.285,282.172,408.338Z" transform="translate(-46.066 -13.236)" fill="#263238"/>
        <path id="Path_5111" data-name="Path 5111" d="M286.585,404.436c.253.107.934-1.08,2.32-1.841s2.667-.813,2.761-1.08-1.547-.72-3.227.253S286.331,404.383,286.585,404.436Z" transform="translate(-55.88 -14.788)" fill="#263238"/>
        <path id="Path_5112" data-name="Path 5112" d="M289.37,402.265c.107.08.867-.733,2.014-2.12.653-.8,1.334-1.614,1.987-2.454a6.36,6.36,0,0,0,1.107-1.654,1.654,1.654,0,0,0,0-1.334,1.334,1.334,0,0,0-1.24-.774,4,4,0,0,0-2.08.907,7.2,7.2,0,0,0-2.734,4.414,4,4,0,0,0,.293,2.961,26.147,26.147,0,0,1,.36-2.814,7.348,7.348,0,0,1,1.334-2.667,6.667,6.667,0,0,1,1.254-1.187,3.507,3.507,0,0,1,1.534-.707.414.414,0,0,1,.4.227.92.92,0,0,1,0,.6,6.9,6.9,0,0,1-.934,1.44c-.613.88-1.227,1.734-1.827,2.574A8.868,8.868,0,0,0,289.37,402.265Z" transform="translate(-61.159 -17.205)" fill="#263238"/>
        <path id="Path_5113" data-name="Path 5113" d="M300.312,401.746c.107,0,.093-1.134-.974-2.494a5.335,5.335,0,0,0-6.281-1.574.934.934,0,0,0-.387.733,1.334,1.334,0,0,0,.213.707,3.654,3.654,0,0,0,.72.72,9.522,9.522,0,0,0,4.228,1.947,4.467,4.467,0,0,0,2.667,0c0-.16-1.014-.147-2.521-.587a10.361,10.361,0,0,1-3.774-2,2.84,2.84,0,0,1-.533-.52c-.08-.2,0-.147,0-.2a1.854,1.854,0,0,1,.64-.187,5.334,5.334,0,0,1,.8-.067,4.709,4.709,0,0,1,1.52.213,5.136,5.136,0,0,1,2.227,1.334C299.912,400.786,300.165,401.8,300.312,401.746Z" transform="translate(-72.914 -16.1)" fill="#263238"/>
        <g id="Group_1021" data-name="Group 1021" transform="translate(248.33 384.283)" opacity="0.6">
          <path id="Path_5114" data-name="Path 5114" d="M273.3,401.975a2.547,2.547,0,1,0,2.667-2.374A2.547,2.547,0,0,0,273.3,401.975Z" transform="translate(-273.294 -399.598)" fill="#fff"/>
        </g>
        <path id="Path_5115" data-name="Path 5115" d="M406.577,133.215a44.38,44.38,0,0,0-4.694-12.576,18.4,18.4,0,0,0-10.162-8.389,24.579,24.579,0,0,0-13.6.333,22.312,22.312,0,0,0-8.335,5.108c-4,3.454-6.041,8.842-7.722,13.843" transform="translate(-271.533 -111.45)" fill="#ffab17"/>
        <path id="Path_5116" data-name="Path 5116" d="M360.981,130.987a19.218,19.218,0,0,1,7.282-12.2,25.339,25.339,0,0,1,13.47-4.561c7.482-.573,16.23,1.467,21.338,6.935s8.122,12.91,7.482,19.578c-.28,3-3.187,11.122-5.495,13.083L362.2,152.712C359.634,148.631,360.208,135.775,360.981,130.987Z" transform="translate(-273.282 -110.555)" fill="#ff725e"/>
        <path id="Path_5117" data-name="Path 5117" d="M365.774,138.962a23.672,23.672,0,0,1,23.565-21.832h1.227c13.23.747,20,12.389,18.871,25.592l-2.321,61H376.8l.267-19.858s-12.723-1.947-12.9-14.67C364.093,163.06,364.947,150.4,365.774,138.962Z" transform="translate(-277.327 -109.555)" fill="#ffbe9d"/>
        <path id="Path_5118" data-name="Path 5118" d="M376.12,168.388a30.874,30.874,0,0,0,16.644-4.908s-3.894,9.149-16.577,8Z" transform="translate(-276.471 -94.091)" fill="#eb996e"/>
        <path id="Path_5119" data-name="Path 5119" d="M390.52,141.412a1.827,1.827,0,0,0,1.76,1.827,1.734,1.734,0,0,0,1.867-1.64,1.827,1.827,0,0,0-1.76-1.827,1.734,1.734,0,0,0-1.867,1.64Z" transform="translate(-297.059 -102.002)" fill="#263238"/>
        <path id="Path_5120" data-name="Path 5120" d="M389.524,138.64c.227.24,1.6-.787,3.547-.787s3.387.974,3.6.734-.12-.52-.747-.974a5.028,5.028,0,0,0-2.881-.893,4.827,4.827,0,0,0-2.827.92C389.617,138.107,389.377,138.534,389.524,138.64Z" transform="translate(-298.263 -103.019)" fill="#263238"/>
        <path id="Path_5121" data-name="Path 5121" d="M376.44,142.1a1.814,1.814,0,0,0,1.747,1.827,1.747,1.747,0,0,0,1.867-1.64,1.814,1.814,0,0,0-1.747-1.84,1.747,1.747,0,0,0-1.867,1.654Z" transform="translate(-264.188 -101.775)" fill="#263238"/>
        <path id="Path_5122" data-name="Path 5122" d="M375.095,139.367c.213.24,1.6-.787,3.547-.774s3.387.974,3.6.734-.133-.533-.76-.987a4.894,4.894,0,0,0-2.881-.88,4.775,4.775,0,0,0-2.827.907C375.188,138.834,374.975,139.261,375.095,139.367Z" transform="translate(-264.604 -102.772)" fill="#263238"/>
        <path id="Path_5123" data-name="Path 5123" d="M390.075,153.354a13.135,13.135,0,0,0-3.174-.573c-.493,0-.96-.147-1.054-.48a2.533,2.533,0,0,1,.333-1.48l1.467-3.8c2.04-5.415,3.507-9.869,3.294-9.949s-2.054,4.241-4.081,9.655c-.493,1.334-.96,2.667-1.414,3.828a2.907,2.907,0,0,0-.253,1.96,1.227,1.227,0,0,0,.827.72,2.959,2.959,0,0,0,.84.12,12.725,12.725,0,0,0,3.214,0Z" transform="translate(-286.678 -102.902)" fill="#263238"/>
        <path id="Path_5124" data-name="Path 5124" d="M387.452,150.28c-.32,0-.32,2.107-2.134,3.614s-4.068,1.334-4.081,1.574.493.413,1.454.44a5.335,5.335,0,0,0,3.414-1.2,4.548,4.548,0,0,0,1.64-3.027C387.826,150.8,387.6,150.267,387.452,150.28Z" transform="translate(-278.295 -98.495)" fill="#263238"/>
        <path id="Path_5125" data-name="Path 5125" d="M374.558,135.924c.187.533,2.147.307,4.428.613s4.134.934,4.454.467c.133-.227-.187-.734-.92-1.254a7.775,7.775,0,0,0-6.761-.814C374.865,135.257,374.478,135.671,374.558,135.924Z" transform="translate(-265.08 -103.756)" fill="#263238"/>
        <path id="Path_5126" data-name="Path 5126" d="M389.243,134.341c.373.48,2.067.187,4,.36s3.6.667,4,.253c.187-.213,0-.68-.72-1.174a6.548,6.548,0,0,0-3.2-1.054,6.362,6.362,0,0,0-3.307.56C389.363,133.675,389.083,134.1,389.243,134.341Z" transform="translate(-298.463 -104.361)" fill="#263238"/>
        <path id="Path_5127" data-name="Path 5127" d="M359.756,143.481c.213-.093,8.722-2.6,8.468,6.095s-8.935,6.668-8.949,6.388S359.756,143.481,359.756,143.481Z" transform="translate(-229.474 -100.898)" fill="#ffbe9d"/>
        <path id="Path_5128" data-name="Path 5128" d="M361.519,152.052s.16.107.413.24a1.48,1.48,0,0,0,1.12,0,3.747,3.747,0,0,0,1.84-3.307,5.068,5.068,0,0,0-.36-2.187,1.734,1.734,0,0,0-1.107-1.187.773.773,0,0,0-.907.387c-.12.24-.067.413-.12.427s-.173-.147-.093-.507a.974.974,0,0,1,.347-.533,1.147,1.147,0,0,1,.854-.2,2.121,2.121,0,0,1,1.534,1.4,4.973,4.973,0,0,1,.453,2.427,3.921,3.921,0,0,1-2.321,3.694,1.587,1.587,0,0,1-1.333-.267C361.532,152.265,361.492,152.065,361.519,152.052Z" transform="translate(-229.729 -100.2)" fill="#eb996e"/>
        <path id="Path_5129" data-name="Path 5129" d="M391.551,126.819l-4.294-3.708L373.6,125.206l-9.6-2.467-2.521,2.761c1.08,1.454-1.214-4.748.974-6.4,4.708-3.574,8.682-3.441,14.67-3.547s17.937,7.095,22.218,11.176c3.427,3.267,3.4,6.081,3.4,6.081.547,4.708-2.08,10.042-3.121,14.67-.547,2.374-1.587,9.575-1.587,9.575h0c-2,0-2.667-1.587-2.441-3.561l.373-7.748a11.709,11.709,0,0,1-3.574-13.67C392.845,131.38,393.952,128.153,391.551,126.819Z" transform="translate(-266.976 -110.082)" fill="#263238"/>
        <path id="Path_5130" data-name="Path 5130" d="M397.547,128.823a6.215,6.215,0,0,0-6.068-4,10.669,10.669,0,0,0-6.908,3.161,8.958,8.958,0,0,1-1.56,1.334,2.014,2.014,0,0,1-1.92.107c-.187-.093-.373-.24-.573-.187a.627.627,0,0,0-.32.293,5.415,5.415,0,0,1-2.014,1.907,2.227,2.227,0,0,1-2.574-.387,3.334,3.334,0,0,1-5.588-2.467,3.147,3.147,0,0,1-3.161-1.2,6.455,6.455,0,0,1,1.6-9.856,11.656,11.656,0,0,1,4.2-1.214,54.127,54.127,0,0,1,6.881-.52,8.709,8.709,0,0,1,3,.36c1.334.48,2.427,1.56,3.814,1.734a6.668,6.668,0,0,0,2.667-.427,10.415,10.415,0,0,1,3.827-.56c2.547.227,4.654,2.054,6.335,4a10.563,10.563,0,0,1,2.667,4.614,4.548,4.548,0,0,1-1.694,4.774,2.254,2.254,0,0,1-2.027.267,1.334,1.334,0,0,1-.72-1.747" transform="translate(-271.198 -110.005)" fill="#263238"/>
        <path id="Path_5131" data-name="Path 5131" d="M402.452,149c.934-6.668-.187-14.67-5.028-20.365s-13.4-9.175-19.071-8.1c-4.414.84-14.016,1.187-17.524,10.429l.493-7.628s4.268-8.669,16.87-8.4,18.1,1.734,24.192,9.149a17.111,17.111,0,0,1,3.481,16.937A45.232,45.232,0,0,1,402.452,149Z" transform="translate(-270.09 -110.287)" fill="#fff"/>
        <path id="Path_5132" data-name="Path 5132" d="M360.78,117.024a2.27,2.27,0,0,0,.467-.16c.293-.107.72-.293,1.334-.48a31.083,31.083,0,0,1,4.934-1.334,35.276,35.276,0,0,1,7.522-.44,30.673,30.673,0,0,1,9.015,1.8,29.152,29.152,0,0,1,8,4.6,21.33,21.33,0,0,1,2.867,2.827c.427.467.773.96,1.134,1.427a12.17,12.17,0,0,1,.934,1.4,26.763,26.763,0,0,1,2.24,4.574c.227.547.36,1,.467,1.334a2.01,2.01,0,0,0,.187.453l-.12-.467c-.107-.307-.213-.76-.427-1.334a24.6,24.6,0,0,0-2.161-4.641c-.267-.467-.6-.934-.92-1.427a12.387,12.387,0,0,0-1.134-1.467,22.667,22.667,0,0,0-2.894-2.867,28.818,28.818,0,0,0-8-4.668,30.087,30.087,0,0,0-9.109-1.787,32.954,32.954,0,0,0-7.575.507,29.426,29.426,0,0,0-4.934,1.334c-.573.213-.987.427-1.334.547Z" transform="translate(-263.131 -110.488)" fill="#263238"/>
        <path id="Path_5133" data-name="Path 5133" d="M361.7,134.456a1.332,1.332,0,0,0,.387-.173,7.4,7.4,0,0,0,.947-.693,7.748,7.748,0,0,0,2.587-6.988,6.678,6.678,0,0,0-.28-1.134c-.093-.267-.16-.4-.173-.387s.147.587.24,1.547a8.521,8.521,0,0,1-.467,3.694,8.389,8.389,0,0,1-2.054,3.107C362.192,134.1,361.672,134.416,361.7,134.456Z" transform="translate(-230.175 -106.902)" fill="#263238"/>
        <path id="Path_5134" data-name="Path 5134" d="M365.061,128.432a3.2,3.2,0,0,0,1.094-.787,7.041,7.041,0,0,0,1.747-2.774,6.348,6.348,0,0,0,.253-3.267,3.307,3.307,0,0,0-.44-1.334s.12.507.24,1.334a7.163,7.163,0,0,1-.333,3.134,7.763,7.763,0,0,1-1.614,2.667C365.461,128.1,365.034,128.392,365.061,128.432Z" transform="translate(-237.219 -108.507)" fill="#263238"/>
        <path id="Path_5135" data-name="Path 5135" d="M369.433,123.865a3.173,3.173,0,0,0,.92-.64,7.6,7.6,0,0,0,1.68-2.147,6.669,6.669,0,0,0,.707-2.667,2.668,2.668,0,0,0-.093-1.12,10.094,10.094,0,0,1-.88,3.614A13.667,13.667,0,0,1,369.433,123.865Z" transform="translate(-247.553 -109.501)" fill="#263238"/>
        <path id="Path_5136" data-name="Path 5136" d="M378.008,114.84a2.587,2.587,0,0,0-.547.84,10.676,10.676,0,0,0-.867,2.241,11.524,11.524,0,0,0-.347,2.387,2.961,2.961,0,0,0,.08,1c.093,0,.093-1.52.56-3.307S378.088,114.88,378.008,114.84Z" transform="translate(-261.875 -110.319)" fill="#263238"/>
        <path id="Path_5137" data-name="Path 5137" d="M385.018,114.68a2.4,2.4,0,0,0-.44.894,6.479,6.479,0,0,0-.307,2.387,6.347,6.347,0,0,0,.573,2.334,2.241,2.241,0,0,0,.547.84,10.666,10.666,0,0,1-.827-3.187,11.041,11.041,0,0,1,.453-3.267Z" transform="translate(-279.955 -110.372)" fill="#263238"/>
        <path id="Path_5138" data-name="Path 5138" d="M391.06,116.18a2.843,2.843,0,0,0-.587.907,6.667,6.667,0,0,0-.6,2.561,6.3,6.3,0,0,0,.467,2.574,2.668,2.668,0,0,0,.533.947,10.186,10.186,0,0,1-.693-3.521,10.069,10.069,0,0,1,.88-3.467Z" transform="translate(-293.104 -109.871)" fill="#263238"/>
        <path id="Path_5139" data-name="Path 5139" d="M393.77,120.67a1.881,1.881,0,0,0-.147.854,5.828,5.828,0,0,0,1.334,3.921c.36.413.64.6.654.573a11.791,11.791,0,0,1-1.427-2.507A11.394,11.394,0,0,1,393.77,120.67Z" transform="translate(-302.657 -108.373)" fill="#263238"/>
        <path id="Path_5140" data-name="Path 5140" d="M395.86,126.26a3.4,3.4,0,0,0,.693,2.054,3.268,3.268,0,0,0,1.614,1.427,16.683,16.683,0,0,1-1.334-1.6A12.3,12.3,0,0,1,395.86,126.26Z" transform="translate(-308.2 -106.509)" fill="#263238"/>
        <path id="Path_5141" data-name="Path 5141" d="M396.892,132.55c-.067,0,0,.52.467.92s.96.44.96.36-.387-.24-.76-.587S396.985,132.524,396.892,132.55Z" transform="translate(-309.699 -104.41)" fill="#263238"/>
        <path id="Path_5142" data-name="Path 5142" d="M360.43,138.554a6.481,6.481,0,0,0,4.761-3.254,11.429,11.429,0,0,1-4.761,3.254Z" transform="translate(-227.974 -103.492)" fill="#263238"/>
        <path id="Path_5143" data-name="Path 5143" d="M362.7,140.893a1.507,1.507,0,0,0,1.2.547c.773.04,1.334-.333,1.254-.4s-.56.147-1.24.093S362.744,140.826,362.7,140.893Z" transform="translate(-230.981 -101.63)" fill="#263238"/>
        <g id="Group_1022" data-name="Group 1022" transform="translate(98.689 2.253)" opacity="0.3">
          <path id="Path_5144" data-name="Path 5144" d="M363.77,117.128a24.339,24.339,0,0,1,18.671-3.4,25.006,25.006,0,0,1,15.4,11.616s-7.855-9.936-19.111-10.282S363.77,117.128,363.77,117.128Z" transform="translate(-363.77 -113.139)"/>
        </g>
        <path id="Path_5145" data-name="Path 5145" d="M373.017,142.874a12.667,12.667,0,0,1,.253-1.56,6.455,6.455,0,0,1,2.36-3.494,6.309,6.309,0,0,1,2.667-1.174,6.415,6.415,0,0,1,3.334.28,6.344,6.344,0,1,1-6.015,11.016,6.5,6.5,0,0,1-2.361-3.494,12.227,12.227,0,0,1-.253-1.574,5,5,0,0,0,.147,1.6,6.428,6.428,0,0,0,2.334,3.641,6.668,6.668,0,0,0,2.774,1.24,6.5,6.5,0,0,0,3.467-.267,6.189,6.189,0,0,0,1.68-.894,6.337,6.337,0,0,0,1.4-1.334,6.575,6.575,0,0,0,0-7.828,6.334,6.334,0,0,0-1.4-1.4,6.188,6.188,0,0,0-1.68-.894,6.522,6.522,0,0,0-6.241.974,6.428,6.428,0,0,0-2.334,3.641A4.934,4.934,0,0,0,373.017,142.874Z" transform="translate(-265.633 -103.145)" fill="#455a64"/>
        <path id="Path_5146" data-name="Path 5146" d="M387.519,142.321a6.663,6.663,0,0,1,.267-1.56,6.455,6.455,0,0,1,2.361-3.494,6.228,6.228,0,0,1,2.667-1.174,6.415,6.415,0,0,1,3.334.28,6.241,6.241,0,0,1,1.6.867,6.348,6.348,0,0,1,0,10.176,6.241,6.241,0,0,1-1.6.867,6.388,6.388,0,0,1-6.015-.894,6.5,6.5,0,0,1-2.36-3.494c-.253-.987-.213-1.574-.267-1.574a5.558,5.558,0,0,0,.147,1.6A6.535,6.535,0,0,0,390,147.562a6.668,6.668,0,0,0,2.774,1.24,6.5,6.5,0,0,0,3.467-.267,6.386,6.386,0,0,0,1.68-.894,6.6,6.6,0,1,0-10.269-6.908,5.483,5.483,0,0,0-.133,1.587Z" transform="translate(-299.5 -103.352)" fill="#455a64"/>
        <path id="Path_5147" data-name="Path 5147" d="M382.3,139.175a8.583,8.583,0,0,1,1.014-.56,5.334,5.334,0,0,1,5.335.307c.613.387.92.72.947.68a2.441,2.441,0,0,0-.827-.854,4.988,4.988,0,0,0-2.667-.987,5.082,5.082,0,0,0-2.8.667A2.667,2.667,0,0,0,382.3,139.175Z" transform="translate(-281.544 -102.674)" fill="#455a64"/>
        <path id="Path_5148" data-name="Path 5148" d="M364.64,140.341c0,.08,2.574.96,5.815,1.974s5.881,1.747,5.895,1.68-2.574-.96-5.8-1.974A59.271,59.271,0,0,0,364.64,140.341Z" transform="translate(-244.747 -101.812)" fill="#455a64"/>
        <path id="Path_5149" data-name="Path 5149" d="M373.8,146.494a2.8,2.8,0,0,0,1.134-.147,5.961,5.961,0,0,0,2.387-1.334,6.093,6.093,0,0,0,1.547-2.294,2.668,2.668,0,0,0,.227-1.12,10.1,10.1,0,0,0-.427,1.04,6.828,6.828,0,0,1-3.841,3.494,10.22,10.22,0,0,0-1.027.36Z" transform="translate(-259.708 -101.391)" fill="#fff"/>
        <path id="Path_5150" data-name="Path 5150" d="M388.133,145.261a1.787,1.787,0,0,0,.867-.573,4.721,4.721,0,0,0,1.054-2.281,6.216,6.216,0,0,0,0-2.521,1.962,1.962,0,0,0-.413-.947s.107.373.213,1a7.8,7.8,0,0,1,0,2.414,5.335,5.335,0,0,1-.92,2.2,7.018,7.018,0,0,1-.8.707Z" transform="translate(-289.911 -102.278)" fill="#fff"/>
        <path id="Path_5151" data-name="Path 5151" d="M383.971,150.95a2.069,2.069,0,0,0-.56-.76c-.373-.36-.693-.613-.76-.547s.187.4.56.76S383.9,151,383.971,150.95Z" transform="translate(-276.374 -98.711)" fill="#263238"/>
        <path id="Path_5152" data-name="Path 5152" d="M384.655,151.468a4.132,4.132,0,0,0-.547-.92c-.36-.453-.707-.8-.76-.747s.173.467.533.92S384.588,151.522,384.655,151.468Z" transform="translate(-277.991 -98.656)" fill="#263238"/>
        <path id="Path_5153" data-name="Path 5153" d="M385.012,152.027c.08,0-.08-.467-.333-.96s-.534-.853-.613-.827.08.48.347.974S384.945,152.067,385.012,152.027Z" transform="translate(-279.308 -98.508)" fill="#263238"/>
        <path id="Path_5154" data-name="Path 5154" d="M385.282,151.92c.08,0,.12-.307.093-.667s-.12-.653-.2-.653-.12.307-.093.667S385.189,151.92,385.282,151.92Z" transform="translate(-281.032 -98.388)" fill="#263238"/>
        <path id="Path_5155" data-name="Path 5155" d="M386.227,152.057c.093,0,.16-.267.16-.587s-.067-.6-.16-.6-.147.267-.147.6S386.147,152.057,386.227,152.057Z" transform="translate(-283.377 -98.298)" fill="#263238"/>
        <path id="Path_5156" data-name="Path 5156" d="M386.928,152.237c.08,0,.227-.307.333-.734s.107-.8,0-.814-.227.32-.32.747S386.848,152.224,386.928,152.237Z" transform="translate(-285.386 -98.358)" fill="#263238"/>
        <path id="Path_5157" data-name="Path 5157" d="M361.512,153.552a2.107,2.107,0,0,0,.387,1.48,2.027,2.027,0,0,0,1.414.96,2,2,0,0,0,1.894-.827,2.667,2.667,0,0,0,.453-2.027,2.334,2.334,0,0,0-.974-1.4,1.854,1.854,0,0,0-1.48-.36,3.387,3.387,0,0,1,1.334.533,2.227,2.227,0,0,1,.827,1.334,2.507,2.507,0,0,1-.427,1.8,1.76,1.76,0,0,1-1.627.72,1.787,1.787,0,0,1-1.254-.8A4,4,0,0,1,361.512,153.552Z" transform="translate(-229.909 -98.139)" fill="#263238"/>
        <path id="Path_5158" data-name="Path 5158" d="M461.045,307.393c-1.614,0-68.242,69.349-68.242,74.163s-9.9,53.665-14.67,61.187-7.642,5.761-7.642,5.761L348.34,438.182s12.269-76.017,14.963-84.566,53.505-75.777,53.505-75.777l48.011,9.135Z" transform="translate(-311.479 -55.937)" fill="#ff2600"/>
        <path id="Path_5159" data-name="Path 5159" d="M336.689,274l13.843,85.486s43.3,43.356,46,48.184c0,0,4.828-1.614,6.441,2.667a90.221,90.221,0,0,1,3,12.31l-21.5,18.057s-56.8-47.091-62.174-54.079-27.886-53.065-32.194-64.881-9.335-38.022-9.335-38.022Z" transform="translate(-162.517 -57.218)" fill="#ff2600"/>
        <path id="Path_5160" data-name="Path 5160" d="M402.34,344a9.616,9.616,0,0,0,.96,2.667,37.174,37.174,0,0,0,3.414,5.948,32.1,32.1,0,0,0,4.481,5.214,7.855,7.855,0,0,0,2.307,1.68,22.1,22.1,0,0,0-1.96-2.027,47.206,47.206,0,0,1-4.254-5.335C404.22,347.881,402.54,343.881,402.34,344Z" transform="translate(-332.178 -33.864)" fill="#455a64"/>
        <path id="Path_5161" data-name="Path 5161" d="M322.58,344.035a7.455,7.455,0,0,0,4.561-1.974,7.589,7.589,0,0,0,2.881-4,39.64,39.64,0,0,1-3.321,3.508,38.941,38.941,0,0,1-4.121,2.467Z" transform="translate(-142.326 -35.845)" fill="#455a64"/>
        <path id="Path_5162" data-name="Path 5162" d="M288.52,385.446A15.27,15.27,0,0,0,296.7,374.07a38.972,38.972,0,0,1-3.281,6.268,36.717,36.717,0,0,1-4.894,5.108Z" transform="translate(-63.576 -23.831)" fill="#455a64"/>
        <path id="Path_5163" data-name="Path 5163" d="M332.72,283.48a3.3,3.3,0,0,0,.28.96,19.1,19.1,0,0,0,1.12,2.481,27.686,27.686,0,0,0,12.949,12.109,18.887,18.887,0,0,0,2.547.96,2.773,2.773,0,0,0,.974.213c0-.12-1.334-.587-3.307-1.614a32.207,32.207,0,0,1-7.2-5.055,32.557,32.557,0,0,1-5.535-6.855C333.387,284.734,332.88,283.427,332.72,283.48Z" transform="translate(-176.418 -54.055)" fill="#455a64"/>
        <path id="Path_5164" data-name="Path 5164" d="M353.57,299.86a15.906,15.906,0,0,0,.747,2.187c.587,1.494,1.334,3.467,2.28,5.868,1.974,4.921,4.748,11.723,8.068,19.124s6.561,14,8.935,18.751l2.854,5.6a14.929,14.929,0,0,0,1.134,2.014,15.688,15.688,0,0,0-.894-2.134l-2.667-5.695c-2.267-4.814-5.428-11.429-8.735-18.818s-6.161-14.15-8.242-19.044c-1.027-2.347-1.867-4.294-2.494-5.775A15.143,15.143,0,0,0,353.57,299.86Z" transform="translate(-231.223 -48.59)" fill="#455a64"/>
        <path id="Path_5165" data-name="Path 5165" d="M369.241,172.059s14.67,5.908,18.071,16.217c1.734,5.215,11.843,43.343,11.843,43.343s13.336,73.216,11.5,80.191l-76.324,11.723h0a11.75,11.75,0,0,1-2.667-8.175l1.24-21.938-.894-94.034a12.194,12.194,0,0,1,.147-2.094l2.667-17.337-.853-7.482,34.208-9.042Z" transform="translate(-235.212 -94.107)" fill="#ffab17"/>
        <path id="Path_5166" data-name="Path 5166" d="M400.922,166.372h0a4.228,4.228,0,0,0-5.254-3.427L364.394,171.2a4.241,4.241,0,0,0-3.147,4.321l.08,1.334a4.228,4.228,0,0,0,5.468,3.788l31.194-9.575A4.214,4.214,0,0,0,400.922,166.372Z" transform="translate(-264.838 -94.316)" fill="#ffd500"/>
        <path id="Path_5167" data-name="Path 5167" d="M364.289,180.094a8.3,8.3,0,0,0,1.627-.307l4.334-1.094c3.668-.96,8.709-2.32,14.257-3.868l7.442-2.107h0a19.408,19.408,0,0,0,2.761-.64,6.817,6.817,0,0,0,1.24-.533,2.133,2.133,0,0,0,.573-.427,3.491,3.491,0,0,0,.373-.573,4.162,4.162,0,0,0,.293-2.334,7.481,7.481,0,0,0-.52-1.907,8.359,8.359,0,0,0-1.44-2.347c-.44-.467-.733-.653-.747-.627a10.963,10.963,0,0,1,1.827,3.121,5.335,5.335,0,0,1,.107,3.854c-.293.667-1.067.92-1.894,1.2a17.769,17.769,0,0,1-2.667.573h0l-7.455,2.054c-5.548,1.547-10.576,2.987-14.2,4l-4.281,1.334A9.083,9.083,0,0,0,364.289,180.094Z" transform="translate(-265.174 -94.141)" fill="#263238"/>
        <path id="Path_5169" data-name="Path 5169" d="M371.024,165.21a25.5,25.5,0,0,1,1.24,3.867,27.658,27.658,0,0,1,0,4,5.335,5.335,0,0,0,.693-4.161A5.415,5.415,0,0,0,371.024,165.21Z" transform="translate(-250.024 -93.514)" fill="#263238"/>
        <path id="Path_5170" data-name="Path 5170" d="M379.01,166.74a2.3,2.3,0,0,0-.653,1.147,6.455,6.455,0,0,0,1.2,6.068c.533.614.987.867,1.04.8a13.335,13.335,0,0,1-1.734-3.814,14.026,14.026,0,0,1,.147-4.2Z" transform="translate(-266.892 -93.003)" fill="#263238"/>
        <path id="Path_5171" data-name="Path 5171" d="M385.974,168.54c-.067,0-.427.32-.747,1.067a5.761,5.761,0,0,0,.974,6.015c.547.613,1,.84,1.054.774a7.775,7.775,0,0,1-1.334-7.855Z" transform="translate(-282.511 -92.403)" fill="#263238"/>
        <path id="Path_5172" data-name="Path 5172" d="M331.85,188.986c2.881-8.509,9.869-15.937,18.671-17.684s17.07.12,23.352,7.442l8,17c-3.547-1.974-9.229-13.51-15.844-17.431s-13.977-4-19.418,1.454c-4,4-7,9.816-6.908,15.523.187,11.176,4.841,21.658,8.228,32.327,4.348,13.683,7.788,28.273,17.831,38.555,8.069,8.255,18.871,13.176,29.34,17.911,2.481,2.04,8.215,9.455,5.255,10.669s-13.723-2.667-16.777-3.614c-7.615-2.32-15.523-4.814-21.338-10.282-5.335-5.081-8.3-12.163-11.069-19.018-5.335-13.23-8.829-27.019-14.177-40.262C332.464,210.311,327.956,200.509,331.85,188.986Z" transform="translate(-223.879 -91.684)" fill="#fff"/>
        <path id="Path_5173" data-name="Path 5173" d="M355.344,293.749l6.081-10.269,20.351,7.095h0s-1.334,18.084-4,18.6a5.588,5.588,0,0,1-4.548-1.227s-1.52,4.721-4.561,4.921l-1.694.08c-.547.427-3.641,2.667-6.2,1.84,0,0-2.347,5.094-4.241,4.561s-3.121-6.668-3.121-6.668Z" transform="translate(-235.197 -54.055)" fill="#ffbe9d"/>
        <path id="Path_5174" data-name="Path 5174" d="M361.432,174.807a21.338,21.338,0,0,1,13.843,15.79c4,19.164,13.55,69.349,13.163,76.417-.493,8.989-17.631,62.254-17.631,62.254L346.8,322.04l10.9-60.013s-17-56.146-18.337-64.681C337.893,188.023,346.029,169.472,361.432,174.807Z" transform="translate(-222.908 -90.627)" fill="#ffd500"/>
        <path id="Path_5175" data-name="Path 5175" d="M361.458,174.868a14.68,14.68,0,0,0-1.867-.6,13.336,13.336,0,0,0-5.681-.293,14.309,14.309,0,0,0-7.935,4.4A27.313,27.313,0,0,0,339,196.366a18.773,18.773,0,0,0,.493,3.908c.267,1.334.6,2.667.92,4,1.334,5.335,2.987,11.109,4.748,17.217,3.534,12.216,7.642,25.886,12.2,40.649v-.147l-10.923,60.013v.307l.293.093,11.256,3.374,12.8,3.854.333.093.093-.32c3.561-10.922,6.922-21.591,10.016-31.914,1.534-5.161,3.027-10.229,4.374-15.23.667-2.494,1.334-4.961,1.907-7.428.307-1.227.56-2.467.8-3.694a26.829,26.829,0,0,0,.413-3.721,59.059,59.059,0,0,0-.653-7.308c-.333-2.374-.667-4.708-1.04-7.015-.72-4.6-1.507-9.042-2.267-13.336-1.534-8.589-3.054-16.55-4.454-23.792l-3.854-19.524a74.09,74.09,0,0,0-1.814-8,23.241,23.241,0,0,0-3.147-6.081,21.338,21.338,0,0,0-7.055-6.228,16,16,0,0,0-3.014-1.334s.253.133.76.347a18.671,18.671,0,0,1,2.187,1.08,21.484,21.484,0,0,1,6.908,6.255,23.417,23.417,0,0,1,3.067,6.028,79.5,79.5,0,0,1,1.747,7.922c1.107,5.748,2.361,12.3,3.761,19.538s2.854,15.23,4.361,23.805c.747,4.294,1.507,8.735,2.227,13.336.373,2.294.707,4.628,1.027,7a61.7,61.7,0,0,1,.627,7.2,26.328,26.328,0,0,1-.507,3.628c-.227,1.227-.493,2.441-.8,3.667-.56,2.454-1.24,4.921-1.907,7.4-1.334,4.988-2.854,10.056-4.388,15.2-3.107,10.309-6.468,20.978-10.029,31.9l.427-.227-12.8-3.841-11.256-3.387.24.4c3.868-21.338,7.535-41.649,10.869-60.013v-.16c-4.574-14.763-8.722-28.406-12.3-40.609-1.774-6.095-3.427-11.829-4.8-17.177a38.223,38.223,0,0,1-1.454-7.762,27.272,27.272,0,0,1,6.775-17.791,14.2,14.2,0,0,1,7.762-4.4,13.47,13.47,0,0,1,5.628.2,12.821,12.821,0,0,1,1.4.373A4.714,4.714,0,0,0,361.458,174.868Z" transform="translate(-222.934 -90.649)" fill="none"/>
        <path id="Path_5176" data-name="Path 5176" d="M352.67,240.883a23.5,23.5,0,0,1,13.07-4.414,14.67,14.67,0,0,0-13.07,4.414Z" transform="translate(-218.173 -69.805)" fill="#263238"/>
        <g id="Group_1023" data-name="Group 1023" transform="translate(153.701 165.557)" opacity="0.3">
          <path id="Path_5177" data-name="Path 5177" d="M338.089,291.869c11.189-16.59,17.07-39.782,10.669-56.279,1.747,9.882.08,18.911-2.867,28.5s-6.468,19.151-7.042,29.167" transform="translate(-338.089 -235.59)"/>
        </g>
      </g>
      <g id="freepik--Rocks--inject-12" transform="translate(1068.668 817.377)">
        <path id="Path_5178" data-name="Path 5178" d="M253.48,463.714l33.127-34.954,27.153,1.534,19.231,7.6,12.2,25.819" transform="translate(123.564 -403.981)" fill="#0a0a0a"/>
        <path id="Path_5179" data-name="Path 5179" d="M337.33,430.294,309.2,463.714H277.05l33.127-34.954Z" transform="translate(99.994 -403.981)" fill="#0a0a0a"/>
        <path id="Path_5180" data-name="Path 5180" d="M345.154,463.815a2.492,2.492,0,0,0-.187-.493l-.6-1.4c-.587-1.267-1.334-3.027-2.4-5.254l-8.749-18.791v-.107h-.12l-19.2-7.655h-.107l-13.043-.747-14.123-.787h-.16l-.107.12-23.605,25.072-6.855,7.388c-.76.827-1.334,1.494-1.814,2a4,4,0,0,0-.6.72,7.9,7.9,0,0,0,.68-.64l1.907-1.921,7-7.255c5.975-6.241,14.27-14.937,23.779-24.9l-.267.107,14.123.8,13.043.72h-.107l19.244,7.548-.147-.147c3.694,7.722,6.775,14.15,8.962,18.671l2.547,5.188.68,1.334a2.445,2.445,0,0,0,.227.427Z" transform="translate(123.604 -404.041)" fill="#0a0a0a"/>
        <path id="Path_5181" data-name="Path 5181" d="M198.546,462.07,185.9,440.118l-23.058-6.428L141.28,452.027V462.07" transform="translate(477.151 -402.336)" fill="#0a0a0a"/>
        <path id="Path_5182" data-name="Path 5182" d="M195.383,440.118,150.76,452.027l21.565-18.337Z" transform="translate(468.365 -402.336)" fill="#0a0a0a"/>
        <path id="Path_5183" data-name="Path 5183" d="M141.423,462.193a2.867,2.867,0,0,0,.067-.694v-1.96c0-1.814,0-4.294.093-7.388l-.067.16,21.645-18.244-.32.067,5.308,1.387,17.817,4.935-.187-.147,9.282,15.83c1.12,1.867,2.014,3.361,2.667,4.454l.72,1.174a3.124,3.124,0,0,0,.28.387,1.922,1.922,0,0,0-.187-.44l-.64-1.214-2.521-4.548-9.015-15.9v-.12h-.133l-17.844-5.041-5.255-1.454h-.173l-.133.12-21.5,18.431-.08.067v.107c0,3.094.08,5.575.107,7.388v1.96a2.87,2.87,0,0,0,.067.68Z" transform="translate(477.702 -402.42)" fill="#0a0a0a"/>
        <path id="Path_5184" data-name="Path 5184" d="M411.373,429.941,443.38,411.71l56.2,20.471,45.4,37.222-160.6-.827Z" transform="translate(-250.79 -409.669)" fill="#0a0a0a"/>
        <path id="Path_5185" data-name="Path 5185" d="M517.983,469.77,460.4,436.349l-76.017-6.041,33.287-19.7,54.919,21.938Z" transform="translate(-223.798 -410.036)" fill="#0a0a0a"/>
        <path id="Path_5186" data-name="Path 5186" d="M501.419,460.048l-28.766-19.711L446.42,438.47l21.951,4.881,11.363,16.59Z" transform="translate(-289.972 -400.742)" fill="#0a0a0a"/>
        <path id="Path_5187" data-name="Path 5187" d="M544.7,469.953s0-.08-.2-.2l-.613-.547-2.427-2.054-9.255-7.7-32.7-26.966h0l-40.009-16.27-14.777-5.975-.16-.067-.147.093-33.341,20h0l-19.5,28.113-5.4,7.868-1.334,2.094a8.192,8.192,0,0,0-.453.72s.187-.213.52-.68l1.48-2.027c1.334-1.827,3.161-4.454,5.535-7.775l19.7-28.006-.093.08,33.341-19.938h-.293l14.763,5.988,40.089,16.2h-.08L532.2,459.7l9.335,7.562,2.334,1.987.653.507Z" transform="translate(-250.51 -410.18)" fill="#0a0a0a"/>
        <path id="Path_5188" data-name="Path 5188" d="M446.43,438.421a11.284,11.284,0,0,0,2.08.28l5.721.507,19.311,1.494h-.173l3.161,2.16c7.068,4.841,13.483,9.2,18.151,12.323l5.535,3.614,1.534.974c.347.213.547.32.56.293a2.887,2.887,0,0,0-.48-.413l-1.454-1.08-5.428-3.841c-4.6-3.227-10.976-7.655-18.044-12.5l-3.161-2.161h-.2l-19.311-1.253-5.748-.307a14.659,14.659,0,0,0-2.054-.093Z" transform="translate(-290.875 -400.759)" fill="#0a0a0a"/>
        <path id="Path_5189" data-name="Path 5189" d="M557.175,442.5l19.231-7.615,32.06,5.828L624,461.6l-76.084.067Z" transform="translate(-547.92 -401.936)" fill="#0a0a0a"/>
        <path id="Path_5190" data-name="Path 5190" d="M610.861,440.715c-.934-.173-51.291,1.787-51.291,1.787l19.231-7.6Z" transform="translate(-550.315 -401.933)" fill="#0a0a0a"/>
        <path id="Path_5191" data-name="Path 5191" d="M624,461.683a1.684,1.684,0,0,0-.24-.413l-.8-1.147-3.094-4.308-11.149-15.2-.067-.093h-.12l-23.859-4.374-8.2-1.494h-.187l-19.2,7.655h-.107v.093l-6.668,14-1.787,3.894-.453,1.027a1.687,1.687,0,0,0-.133.373,1.34,1.34,0,0,0,.213-.333l.52-1c.48-.934,1.134-2.227,1.934-3.828,1.68-3.387,4-8.148,6.841-13.883l-.147.133,19.244-7.548h-.187l8.2,1.494,23.859,4.281-.187-.107c4.668,6.175,8.562,11.349,11.363,15.043l3.227,4.2.867,1.094A2.985,2.985,0,0,0,624,461.683Z" transform="translate(-547.93 -402.016)" fill="#0a0a0a"/>
      </g>
      <path id="Path_5193" data-name="Path 5193" d="M197.6,463.047c0,.229,32.808.4,73.279.4s73.279-.168,73.279-.4-32.792-.4-73.279-.4S197.6,462.833,197.6,463.047Z" transform="translate(1313.081 425.925)" fill="#fff"/>
      <path id="Path_5195" data-name="Path 5195" d="M197.6,463.047c0,.229,32.808.4,73.279.4s73.279-.168,73.279-.4-32.792-.4-73.279-.4S197.6,462.833,197.6,463.047Z" transform="translate(925.562 425.925)" fill="#fff"/>
      <text id="_2021" data-name="2021" transform="translate(1114 441)" fill="#2a4e96" font-size="19" font-family="Roboto-Regular, Roboto"><tspan x="-42.676" y="0">2021</tspan></text>
      <text id="_2020" data-name="2020" transform="translate(1268 335)" fill="#2a4e96" font-size="19" font-family="Roboto-Regular, Roboto"><tspan x="-42.676" y="0">2020</tspan></text>
      <text id="_2019" data-name="2019" transform="translate(1528 283)" fill="#2a4e96" font-size="19" font-family="Roboto-Regular, Roboto"><tspan x="-42.676" y="0">2019</tspan></text>
      <text id="_2018" data-name="2018" transform="translate(1715 474)" fill="#2a4e96" font-size="19" font-family="Roboto-Regular, Roboto"><tspan x="-42.676" y="0">2018</tspan></text>
    </g>
  </g>
</svg>
