<svg xmlns="http://www.w3.org/2000/svg" xmlns:xlink="http://www.w3.org/1999/xlink" viewBox="0 0 1865.3 1872.64"><defs><style>.cls-1{fill:#003c99;}.cls-2{fill:#80b2ff;}.cls-3{fill:#c0daff;}.cls-4{fill:#66a2ff;}.cls-5{fill:#0046b3;}.cls-6{fill:#d1f5ff;}.cls-7{fill:#ff9f34;}.cls-8{fill:none;stroke:#1f6ce8;stroke-miterlimit:10;stroke-width:2px;}.cls-9{fill:#fff;}.cls-10{fill:#0050cc;}.cls-11{fill:#005cea;}.cls-12{fill:#4d4d4d;}.cls-13{fill:#d9ffff;}.cls-14{fill:#4d93ff;}.cls-15{fill:#f7a58e;}.cls-16{fill:#00050d;}.cls-17{fill:url(#linear-gradient);}.cls-18{fill:url(#linear-gradient-2);}.cls-19{fill:url(#linear-gradient-3);}.cls-20{fill:url(#linear-gradient-4);}.cls-21{fill:url(#linear-gradient-5);}.cls-22{fill:#e6856a;}</style><linearGradient id="linear-gradient" x1="439.45" y1="1719.5" x2="530.23" y2="1719.5" gradientUnits="userSpaceOnUse"><stop offset="0" stop-color="#ffb469"/><stop offset="1" stop-color="#ff9f34"/></linearGradient><linearGradient id="linear-gradient-2" x1="260.52" y1="1718.38" x2="348.17" y2="1718.38" xlink:href="#linear-gradient"/><linearGradient id="linear-gradient-3" x1="501.28" y1="926.52" x2="695.83" y2="926.52" gradientUnits="userSpaceOnUse"><stop offset="0" stop-color="#ffb469"/><stop offset="1" stop-color="#ff9f34"/></linearGradient><linearGradient id="linear-gradient-4" x1="257.49" y1="1006.04" x2="471.57" y2="1006.04" xlink:href="#linear-gradient"/><linearGradient id="linear-gradient-5" x1="76.58" y1="973.76" x2="291.1" y2="973.76" xlink:href="#linear-gradient-3"/></defs><g id="lady"><path class="cls-1" d="M1706.68,1759.16H128.87a10.94,10.94,0,0,1-10.94-10.94h0a10.94,10.94,0,0,1,10.94-10.94H1706.68a10.94,10.94,0,0,1,10.94,10.94h0A10.94,10.94,0,0,1,1706.68,1759.16Z"/><g id="cloud"><path class="cls-2" d="M134.78,576.31c.08-1,.13-2.06.13-3.11a39.74,39.74,0,0,0-79.48,0c0,1,0,2.08.13,3.11Z"/><path class="cls-2" d="M265.34,576.31c.08-1,.13-2.06.13-3.11a39.74,39.74,0,0,0-79.48,0c0,1,0,2.08.13,3.11Z"/><path class="cls-2" d="M299.15,576.31a29,29,0,0,0,.18-3.11,28.11,28.11,0,0,0-56.21,0,26.64,26.64,0,0,0,.18,3.11Z"/><path class="cls-2" d="M219.62,576.31a58.22,58.22,0,1,0-115.5,0Z"/><path class="cls-2" d="M1114,122.23c.08-1,.13-2.06.13-3.11a39.74,39.74,0,0,0-79.48,0c0,1,0,2.08.13,3.11Z"/><path class="cls-2" d="M1244.54,122.23c.08-1,.13-2.06.13-3.11a39.74,39.74,0,0,0-79.48,0c0,1,0,2.08.13,3.11Z"/><path class="cls-2" d="M1198.83,122.23a58.22,58.22,0,1,0-116-7.41,60.29,60.29,0,0,0,.46,7.41Z"/></g><g id="card"><path class="cls-3" d="M905.2,578.55H890.89a1.92,1.92,0,1,1,0-3.83H905.2a1.92,1.92,0,1,1,0,3.83Zm-28.63,0H862.25a1.92,1.92,0,1,1,0-3.83h14.32a1.92,1.92,0,1,1,0,3.83Zm-28.64,0H833.61a1.92,1.92,0,0,1,0-3.83h14.32a1.92,1.92,0,1,1,0,3.83Zm-28.63,0H805a1.92,1.92,0,1,1,0-3.83H819.3a1.92,1.92,0,1,1,0,3.83Zm-28.64,0H776.34a1.92,1.92,0,0,1,0-3.83h14.32a1.92,1.92,0,1,1,0,3.83Zm-28.63,0H747.71a1.92,1.92,0,1,1,0-3.83H762a1.92,1.92,0,0,1,0,3.83Zm-28.64,0H719.07a1.92,1.92,0,0,1,0-3.83h14.32a1.92,1.92,0,1,1,0,3.83Zm-28.63,0H690.44a1.92,1.92,0,1,1,0-3.83h14.32a1.92,1.92,0,0,1,0,3.83Zm-28.64,0H661.8a1.92,1.92,0,0,1,0-3.83h14.32a1.92,1.92,0,1,1,0,3.83Zm-28.63,0H633.17a1.92,1.92,0,1,1,0-3.83h14.32a1.92,1.92,0,0,1,0,3.83Zm-28.64,0H604.53a1.92,1.92,0,0,1,0-3.83h14.32a1.92,1.92,0,1,1,0,3.83Zm-28.63,0H575.9a1.92,1.92,0,1,1,0-3.83h14.32a1.92,1.92,0,0,1,0,3.83Zm-28.64,0H547.26a1.92,1.92,0,1,1,0-3.83h14.32a1.92,1.92,0,1,1,0,3.83Zm-28.64,0H518.63a1.92,1.92,0,1,1,0-3.83h14.31a1.92,1.92,0,1,1,0,3.83Zm-28.63,0H490a1.92,1.92,0,1,1,0-3.83h14.32a1.92,1.92,0,1,1,0,3.83Zm-28.64,0H461.36a1.92,1.92,0,1,1,0-3.83h14.31a1.92,1.92,0,1,1,0,3.83Zm-28.63,0H432.72a1.92,1.92,0,1,1,0-3.83H447a1.92,1.92,0,1,1,0,3.83Zm-28.64,0H404.09a1.92,1.92,0,1,1,0-3.83H418.4a1.92,1.92,0,1,1,0,3.83Zm-28.63,0h-2.34a18.79,18.79,0,0,1-12.26-4.49,1.92,1.92,0,1,1,2.5-2.91,15,15,0,0,0,9.76,3.57h2.34a1.92,1.92,0,1,1,0,3.83Zm529-3.39a1.92,1.92,0,0,1-1.16-3.45,13.49,13.49,0,0,0,5.5-10.78A1.91,1.91,0,0,1,925,559h0a1.91,1.91,0,0,1,1.91,1.92,17.27,17.27,0,0,1-7,13.83A1.93,1.93,0,0,1,918.78,575.16ZM371,561.83a1.91,1.91,0,0,1-1.92-1.91V545.6a1.92,1.92,0,1,1,3.84,0v14.32A1.91,1.91,0,0,1,371,561.83ZM925,548.53a1.92,1.92,0,0,1-1.92-1.91V532.3a1.92,1.92,0,1,1,3.83,0v14.32A1.91,1.91,0,0,1,925,548.53ZM371,533.2a1.92,1.92,0,0,1-1.92-1.92V517a1.92,1.92,0,0,1,3.84,0v14.32A1.92,1.92,0,0,1,371,533.2ZM925,519.9a1.92,1.92,0,0,1-1.92-1.92V503.66a1.92,1.92,0,1,1,3.83,0V518A1.91,1.91,0,0,1,925,519.9ZM371,504.56a1.91,1.91,0,0,1-1.92-1.91V488.33a1.92,1.92,0,0,1,3.84,0v14.32A1.91,1.91,0,0,1,371,504.56ZM925,491.26a1.92,1.92,0,0,1-1.92-1.92V475a1.92,1.92,0,1,1,3.83,0v14.31A1.91,1.91,0,0,1,925,491.26ZM371,475.93A1.92,1.92,0,0,1,369,474V459.69a1.92,1.92,0,0,1,3.84,0V474A1.92,1.92,0,0,1,371,475.93ZM925,462.63a1.92,1.92,0,0,1-1.92-1.92V446.39a1.92,1.92,0,1,1,3.83,0v14.32A1.91,1.91,0,0,1,925,462.63ZM371,447.29a1.92,1.92,0,0,1-1.92-1.91V431.06a1.92,1.92,0,0,1,3.84,0v14.32A1.92,1.92,0,0,1,371,447.29ZM925,434a1.92,1.92,0,0,1-1.92-1.92V417.76a1.92,1.92,0,1,1,3.83,0v14.31A1.91,1.91,0,0,1,925,434ZM371,418.66a1.92,1.92,0,0,1-1.92-1.92V402.42a1.92,1.92,0,0,1,3.84,0v14.32A1.92,1.92,0,0,1,371,418.66ZM925,405.36a1.92,1.92,0,0,1-1.92-1.92V389.12a1.92,1.92,0,1,1,3.83,0v14.32A1.91,1.91,0,0,1,925,405.36ZM371,390A1.92,1.92,0,0,1,369,388.1V373.79a1.92,1.92,0,0,1,3.84,0V388.1A1.92,1.92,0,0,1,371,390ZM925,376.72a1.92,1.92,0,0,1-1.92-1.92V360.49a1.92,1.92,0,1,1,3.83,0V374.8A1.91,1.91,0,0,1,925,376.72ZM371,361.39a1.92,1.92,0,0,1-1.92-1.92V345.15a1.92,1.92,0,0,1,3.84,0v14.32A1.92,1.92,0,0,1,371,361.39ZM925,348.09a1.92,1.92,0,0,1-1.92-1.92V331.85a1.92,1.92,0,1,1,3.83,0v14.32A1.91,1.91,0,0,1,925,348.09ZM371,332.75a1.92,1.92,0,0,1-1.92-1.92V316.52a1.92,1.92,0,0,1,3.84,0v14.31A1.92,1.92,0,0,1,371,332.75ZM925,319.45a1.92,1.92,0,0,1-1.92-1.92V303.22a1.92,1.92,0,1,1,3.83,0v14.31A1.91,1.91,0,0,1,925,319.45ZM371,304.12A1.92,1.92,0,0,1,369,302.2V287.88a2,2,0,0,1,1.92-1.95,1.89,1.89,0,0,1,1.92,1.88V302.2A1.92,1.92,0,0,1,371,304.12ZM925,290.81a1.91,1.91,0,0,1-1.92-1.91v-1a13.57,13.57,0,0,0-4.77-10.23,1.91,1.91,0,1,1,2.5-2.9,17.35,17.35,0,0,1,6.1,13.13v1A1.9,1.9,0,0,1,925,290.81Zm-547.8-13.37a1.92,1.92,0,0,1-1.16-3.45,18.71,18.71,0,0,1,11.35-3.76h3.39a1.92,1.92,0,1,1,0,3.83h-3.39a14.91,14.91,0,0,0-9,3A1.92,1.92,0,0,1,377.24,277.44Zm529-3.38H891.94a1.92,1.92,0,1,1,0-3.83h14.31a1.92,1.92,0,1,1,0,3.83Zm-28.63,0H863.3a1.92,1.92,0,1,1,0-3.83h14.32a1.92,1.92,0,1,1,0,3.83Zm-28.64,0H834.67a1.92,1.92,0,1,1,0-3.83H849a1.92,1.92,0,1,1,0,3.83Zm-28.63,0H806a1.92,1.92,0,1,1,0-3.83h14.32a1.92,1.92,0,1,1,0,3.83Zm-28.64,0H777.4a1.92,1.92,0,1,1,0-3.83h14.31a1.92,1.92,0,1,1,0,3.83Zm-28.63,0H748.76a1.92,1.92,0,1,1,0-3.83h14.32a1.92,1.92,0,1,1,0,3.83Zm-28.64,0H720.13a1.92,1.92,0,1,1,0-3.83h14.31a1.92,1.92,0,1,1,0,3.83Zm-28.63,0H691.49a1.92,1.92,0,1,1,0-3.83h14.32a1.92,1.92,0,0,1,0,3.83Zm-28.64,0H662.85a1.92,1.92,0,0,1,0-3.83h14.32a1.92,1.92,0,1,1,0,3.83Zm-28.63,0H634.22a1.92,1.92,0,1,1,0-3.83h14.32a1.92,1.92,0,0,1,0,3.83Zm-28.64,0H605.58a1.92,1.92,0,0,1,0-3.83H619.9a1.92,1.92,0,1,1,0,3.83Zm-28.63,0H577a1.92,1.92,0,1,1,0-3.83h14.32a1.92,1.92,0,0,1,0,3.83Zm-28.64,0H548.31a1.92,1.92,0,0,1,0-3.83h14.32a1.92,1.92,0,1,1,0,3.83Zm-28.63,0H519.68a1.92,1.92,0,1,1,0-3.83H534a1.92,1.92,0,0,1,0,3.83Zm-28.64,0H491a1.92,1.92,0,0,1,0-3.83h14.32a1.92,1.92,0,1,1,0,3.83Zm-28.63,0H462.41a1.92,1.92,0,1,1,0-3.83h14.32a1.92,1.92,0,0,1,0,3.83Zm-28.64,0H433.77a1.92,1.92,0,1,1,0-3.83h14.32a1.92,1.92,0,1,1,0,3.83Zm-28.64,0H405.14a1.92,1.92,0,1,1,0-3.83h14.31a1.92,1.92,0,1,1,0,3.83Z"/><path class="cls-4" d="M945,532.11h-509a19.41,19.41,0,0,1-19.4-19.4V223.88a19.4,19.4,0,0,1,19.4-19.4H945a19.4,19.4,0,0,1,19.41,19.4V512.71A19.41,19.41,0,0,1,945,532.11Z"/><rect class="cls-5" x="416.54" y="266.35" width="547.85" height="56.54"/><path class="cls-6" d="M542,469.25H461.48a9.27,9.27,0,0,0-9.27,9.27h0a9.27,9.27,0,0,0,9.27,9.27H542a9.27,9.27,0,0,0,9.27-9.27h0A9.27,9.27,0,0,0,542,469.25Z"/><path class="cls-6" d="M665.9,469.25H585.35a9.27,9.27,0,0,0-9.27,9.27h0a9.27,9.27,0,0,0,9.27,9.27H665.9a9.27,9.27,0,0,0,9.27-9.27h0A9.27,9.27,0,0,0,665.9,469.25Z"/><path class="cls-6" d="M789.77,469.25H709.22a9.27,9.27,0,0,0-9.27,9.27h0a9.27,9.27,0,0,0,9.27,9.27h80.55a9.27,9.27,0,0,0,9.27-9.27h0A9.27,9.27,0,0,0,789.77,469.25Z"/><path class="cls-6" d="M913.65,469.25H833.09a9.27,9.27,0,0,0-9.27,9.27h0a9.27,9.27,0,0,0,9.27,9.27h80.56a9.27,9.27,0,0,0,9.27-9.27h0A9.27,9.27,0,0,0,913.65,469.25Z"/><path class="cls-6" d="M457.77,221.1h0a10.24,10.24,0,0,0-10.23,10.24v3.59a10.23,10.23,0,0,0,10.24,10.23h0A10.23,10.23,0,0,0,468,234.93v-3.59A10.24,10.24,0,0,0,457.77,221.1Z"/><path class="cls-6" d="M479.81,233.13h0a12,12,0,0,0,12,12h42.64a12,12,0,0,0,12-12h0a12,12,0,0,0-12-12H491.84A12,12,0,0,0,479.81,233.13Z"/><rect class="cls-7" x="458.24" y="353.3" width="87.03" height="79.44" rx="15.98"/></g><g id="Gear"><path class="cls-8" d="M1544.25,465.39a191.08,191.08,0,0,0,3.81-75.4l7.76-1.17,15.32-2.29.2,0a214,214,0,0,0-28-78.5l-20.18,12a191,191,0,0,0-50.67-56l14-18.93a213.33,213.33,0,0,0-75.32-35.76l-5.79,22.85a191,191,0,0,0-75.41-3.81l-3.5-23.27a215.3,215.3,0,0,0-78.49,28l12,20.18A191.25,191.25,0,0,0,1204,304l-18.93-14a213.17,213.17,0,0,0-35.76,75.32l22.85,5.79a190.79,190.79,0,0,0-3.81,75.4L1151.92,449,1145.2,450l-.08,0a215.3,215.3,0,0,0,28,78.49l20.18-12a191.51,191.51,0,0,0,50.76,56l-14,18.93a212.83,212.83,0,0,0,75.24,35.74l5.79-22.86a191.26,191.26,0,0,0,75.49,3.84l2.69,18.09.8,5.18a215.06,215.06,0,0,0,78.41-28l-12-20.18a193.42,193.42,0,0,0,56.06-50.74l18.93,14a214.22,214.22,0,0,0,35.65-75.26Zm-211.62,53.88a104.17,104.17,0,1,1,126.53-75.44A104.16,104.16,0,0,1,1332.63,519.27Z"/><path class="cls-8" d="M1634,674.34a100.61,100.61,0,0,0-30.39-25.63l2-3.62,3.92-7.15,0-.1a112.6,112.6,0,0,0-41.82-13.26l-1.39,12.28a100.69,100.69,0,0,0-39.6,3.41l-3.47-11.9a112.22,112.22,0,0,0-39,20.18l7.73,9.71a100.44,100.44,0,0,0-25.62,30.38l-10.87-5.94a113.22,113.22,0,0,0-13.27,41.82l12.29,1.39a100.69,100.69,0,0,0,3.41,39.6L1446.09,769a112.22,112.22,0,0,0,20.18,39l9.71-7.73a100.36,100.36,0,0,0,30.39,25.62l-4.22,7.69-1.69,3.15,0,0A113.22,113.22,0,0,0,1542.24,850l1.4-12.29a100.87,100.87,0,0,0,39.63-3.44l3.47,11.91a112,112,0,0,0,39-20.15l-7.73-9.71a100.61,100.61,0,0,0,25.66-30.42l8.44,4.64,2.43,1.31a113,113,0,0,0,13.23-41.79l-12.28-1.4A101.61,101.61,0,0,0,1652,709l11.91-3.47a112.89,112.89,0,0,0-20.19-38.92ZM1589.2,780.21a54.85,54.85,0,1,1,8.69-77.08A54.85,54.85,0,0,1,1589.2,780.21Z"/><path class="cls-8" d="M758,1240.09a116.08,116.08,0,0,0-35.06-29.57l2.28-4.18,4.53-8.25,0-.11a130.08,130.08,0,0,0-48.27-15.32l-1.6,14.18a116.27,116.27,0,0,0-45.7,3.94l-4-13.73a129.33,129.33,0,0,0-45,23.28l8.92,11.2a115.88,115.88,0,0,0-29.57,35.07L552,1249.73A130.92,130.92,0,0,0,536.72,1298l14.18,1.61a116.24,116.24,0,0,0,3.94,45.69l-13.74,4a129.44,129.44,0,0,0,23.29,45l11.2-8.93A116.05,116.05,0,0,0,610.66,1415l-4.87,8.87-1.95,3.63-.05,0a130.91,130.91,0,0,0,48.27,15.31l1.61-14.18a116.44,116.44,0,0,0,45.73-4l4,13.74a129.33,129.33,0,0,0,45-23.25l-8.93-11.21a116.18,116.18,0,0,0,29.62-35.1l9.74,5.35,2.8,1.52a130.65,130.65,0,0,0,15.27-48.23l-14.18-1.61a117.42,117.42,0,0,0-3.93-45.77l13.74-4a130.21,130.21,0,0,0-23.29-44.91Zm-51.75,122.17a63.29,63.29,0,1,1,10-88.94A63.28,63.28,0,0,1,706.24,1362.26Z"/></g><g id="phone-2" data-name="phone"><path class="cls-4" d="M1357.35,416.22c-11.1-65.79-112.41-95.48-110.42-52.55l-464.4,2.72c-32.17.19-58.25,29.13-58.28,64.67l-1,1221.37c0,36.82,26.5,66.92,59.29,67.2l474.08,4.07c2.94,6.18,8.44,11.8,17.12,16.49,54.37,1.16,80.45-25.69,90-56a73.33,73.33,0,0,0,4.72-26.65C1366.57,1641.6,1360.79,431.64,1357.35,416.22Z"/><path class="cls-9" d="M1268.71,1740.39l-544.17-3.51c-34-.22-61.42-31.14-61.36-69l2-1256.07c.06-36.53,27.09-66.21,60.39-66.31l533.6-1.74c33.57-.11,61,29.53,61.3,66.22l9.67,1261.88C1330.47,1709.9,1303,1740.61,1268.71,1740.39Z"/><path d="M1276.23,1731.25a49.27,49.27,0,0,1-6.88.43l-544-4.12c-29.17-.22-53-27.32-53-60.39l1.87-1254.69c0-31.89,23.53-57.92,52.15-58L1260,352.12c.84,0,1.68,0,2.51.05a50.46,50.46,0,0,1,35.35,17.21,60.25,60.25,0,0,1,15,39.94l9.55,1263.16C1322.62,1702.42,1302.84,1727.68,1276.23,1731.25Z"/><polygon class="cls-10" points="1294.13 415.67 1303.31 1674.43 690.46 1670.76 692.03 415.67 1294.13 415.67"/></g><g id="login"><path class="cls-7" d="M1080.91,1049.08H916.85a25.32,25.32,0,0,1-25.24-25.24h0a25.32,25.32,0,0,1,25.24-25.24h164.06a25.31,25.31,0,0,1,25.24,25.24h0A25.31,25.31,0,0,1,1080.91,1049.08Z"/><rect class="cls-9" x="756.26" y="811.23" width="474.7" height="50.48" rx="25.24"/><path class="cls-9" d="M1205.72,943H781.5a25.32,25.32,0,0,1-25.24-25.24h0a25.32,25.32,0,0,1,25.24-25.24h424.22A25.32,25.32,0,0,1,1231,917.76h0A25.32,25.32,0,0,1,1205.72,943Z"/><path class="cls-2" d="M860.72,920a8.89,8.89,0,1,1-8.89-8.89A8.89,8.89,0,0,1,860.72,920Z"/><circle class="cls-2" cx="882.3" cy="920" r="8.89" transform="translate(-201.11 1591.62) rotate(-77.99)"/><circle class="cls-2" cx="912.76" cy="920" r="8.89" transform="translate(-383.19 914.88) rotate(-45)"/><circle class="cls-2" cx="943.23" cy="920" r="8.89" transform="translate(-374.27 936.43) rotate(-45)"/><circle class="cls-2" cx="973.7" cy="920" r="8.89" transform="translate(-277.95 442.65) rotate(-22.5)"/><circle class="cls-2" cx="1004.16" cy="920" r="8.89" transform="translate(-121.93 1685.92) rotate(-76.72)"/><circle class="cls-2" cx="1034.63" cy="920" r="8.89" transform="translate(-347.5 1001.05) rotate(-45)"/><circle class="cls-2" cx="1065.1" cy="920" r="8.89" transform="translate(-338.58 1022.6) rotate(-45)"/><circle class="cls-2" cx="1095.56" cy="920" r="8.89" transform="translate(-268.67 489.29) rotate(-22.5)"/><circle class="cls-9" cx="993.76" cy="643.08" r="97.52" transform="translate(-163.66 891.05) rotate(-45)"/><path class="cls-11" d="M993.9,639.16a30.8,30.8,0,0,0,23.92-11.72,30,30,0,0,0,6.59-19,30.64,30.64,0,1,0-61.28,0,30,30,0,0,0,6.6,19A30.91,30.91,0,0,0,993.9,639.16Z"/><path class="cls-11" d="M1048,694c0,19.41-108.41,19.41-108.41,0l0-22.62c4.28-30.93,99.56-32.23,108.39,0Z"/><path class="cls-12" d="M802.54,913.11v-1.36a9.93,9.93,0,0,0-19.86,0v1.36h-1.51V931c0,3.1,22.94,3.1,22.94,0V913.11Zm-16.32-1.36c0-3.43,2.12-6.55,6.39-6.55s6.46,2.92,6.46,6.55v1.36H786.22Zm8.08,10.37v5.17a1.64,1.64,0,0,1-1.72,1.59,1.53,1.53,0,0,1-1.59-1.59v-5.17a3,3,0,0,1-1.6-2.65,3.19,3.19,0,1,1,4.91,2.65Z"/><path class="cls-12" d="M792.64,834.64a6.48,6.48,0,0,0,5-2.48,6.31,6.31,0,0,0,1.4-4,6.47,6.47,0,1,0-12.94,0,6.31,6.31,0,0,0,1.4,4A6.49,6.49,0,0,0,792.64,834.64Z"/><path class="cls-12" d="M804,846.2c0,4.1-23,4.1-23,0l.12-4.77c.91-6.53,21-6.8,22.88,0Z"/><path class="cls-2" d="M941.23,843.87h-93a7.42,7.42,0,0,1-7.4-7.4h0a7.42,7.42,0,0,1,7.4-7.41h93a7.43,7.43,0,0,1,7.41,7.41h0A7.43,7.43,0,0,1,941.23,843.87Z"/><path class="cls-2" d="M1063.84,843.87h-93a7.42,7.42,0,0,1-7.41-7.4h0a7.43,7.43,0,0,1,7.41-7.41h93a7.43,7.43,0,0,1,7.41,7.41h0A7.42,7.42,0,0,1,1063.84,843.87Z"/></g><g id="key"><path class="cls-9" d="M868.59,1309.48v183.9c0,20.43,250.05,20.43,250.05,0v-183.9Z"/><circle class="cls-11" cx="993.61" cy="1378.94" r="30.87" transform="translate(-576.72 2029.16) rotate(-76.72)"/><path class="cls-11" d="M981,1388.45h25.31a0,0,0,0,1,0,0v70.81a12.65,12.65,0,0,1-12.65,12.65h0A12.65,12.65,0,0,1,981,1459.26v-70.81A0,0,0,0,1,981,1388.45Z"/><path class="cls-9" d="M1096.72,1296.38h-25.3V1284a77.81,77.81,0,1,0-155.61,0v12.38H890.5V1284a103.11,103.11,0,1,1,206.22,0Z"/></g><path class="cls-13" d="M1202.72,1087.7h0v0Z"/><path class="cls-13" d="M1202.72,1087.7h0v0Z"/><path class="cls-13" d="M1785.09,1090.31v0Z"/><path class="cls-13" d="M1785.09,1090.31v0Z"/><path class="cls-9" d="M1495,950.86c-64.47,69-167.33,125.65-277.41,149.76,0,7.35-.21,48.08-1,235.82-1.12,250.44,237.22,372.82,274.22,391.6,35.86-16.5,277.2-138.69,278.32-389.13.84-187.74,1-228.47,1.06-235.82C1660.26,1078,1558.83,1020.48,1495,950.86Z"/><path class="cls-2" d="M1494.4,978c-66.46,61-158.53,108.88-259.77,135l-1,223.37c-.46,102.21,40.15,194.68,120.69,274.84,52.93,52.67,108.57,85.33,136.8,100,1.22-.61,2.55-1.31,3.86-2V978.54Z"/><path class="cls-14" d="M1495,978.54v730.72c29.36-15.28,82.72-46.85,133.83-96.8,81.25-79.44,122.68-171.54,123.14-273.75l1-223.38C1652.23,1088.39,1560.84,1039.85,1495,978.54Z"/><path class="cls-5" d="M1697.83,1202.44c-77.07,11.88-182,82.18-248.24,166.71-9.29-39.86-51-76.24-72.8-84.2l-66.08,66.43c41.26,18.6,86.35,71.28,92.33,125.22l66,10.23c27.83-55,99.72-186.49,242.73-257.21C1709,1218.86,1698.94,1204,1697.83,1202.44Z"/><path class="cls-15" d="M442.27,801.43l-11.63,46.72-2.11,8.68c-2.35,11-75.24,6.34-70.08-6.57l4.35-9.51,22.42-49.18Z"/><path class="cls-15" d="M484.89,732.12c.74,50.66-22.77,91.85-59.57,91.68s-72.41-31.41-73.7-92.33c-.82-38.81,30.18-70.14,67-70S484.32,693.3,484.89,732.12Z"/><path d="M419.7,647.58s73.33,3.62,79.43,59.15c8.14,48.75-28.42,12.91-43.35,45.62-17.11,37.47.32,64.89,22.55,72.34-19.76,27.58-132.75,26.59-161.82-21.81C296.59,742.16,324.77,651,419.7,647.58Z"/><path class="cls-15" d="M471.12,750.35a13.66,13.66,0,1,1-14.72-12.51A13.66,13.66,0,0,1,471.12,750.35Z"/><path class="cls-9" d="M459.89,1692.83c3.44-3.64,19.65-3.69,21.13,1.69s-1.38,9.23,5.47,17.77c-3.94,1.13-17.91,1.24-22.18,0S456.45,1696.48,459.89,1692.83Z"/><path class="cls-9" d="M258.73,1697.06c2.88-3.06,16.51-3.1,17.75,1.42s-1.15,7.76,4.6,14.93c-3.31,1-15.05,1-18.64,0S255.84,1700.13,258.73,1697.06Z"/><path class="cls-16" d="M433.1,1711.23h39.51c3.69-167.19,3-349.21,1.66-486.29-.48-49.09-1.84-73.92-10.74-103.39C445.55,1062,361,1080.36,355,1134.3c-2.5,29.94-4.33,88.33,51,286.77C382.05,1508.44,423.85,1613.19,433.1,1711.23Z"/><path class="cls-17" d="M494.74,1713.78c-5.82-.31-19.41-5.91-22-9.78-3.78,4.22-11.64,5.39-21.14,4-11.21-1.67-12.69-6.88-20.73-6.18-3.39,9.42-11.65,30.58-3.68,35.49h83.07C517.71,1730.5,517.51,1716.05,494.74,1713.78Z"/><path class="cls-16" d="M388.94,1132.78c-8.08-61.64-117.74-55.31-125-1.48-2.63,29-10.68,72.55,9.93,287.67-43.47,82.09-31.19,199.89-44.18,286.6-1.43,13.19,35.94,16.36,38.85,4.6C308.33,1549.3,364,1368.8,384.68,1235,392.18,1186.44,392.94,1163.31,388.94,1132.78Z"/><path class="cls-18" d="M288.13,1711.23c-5.82-.31-14.4-7.88-17-11.75-3.78,4.22-11,9.91-20.48,8.49-11.21-1.67-12.69-6.88-20.74-6.18-3.39,9.42-11.65,30.58-3.68,35.49h80.81C314.5,1730.5,310.9,1713.5,288.13,1711.23Z"/><path class="cls-15" d="M573.88,806.51l-20.45,4.54c.46,10.76-.83,28,0,46.93l34.4-4.53C582.59,834.34,577.54,817.59,573.88,806.51Z"/><path class="cls-15" d="M583.12,786.5c-9.45-11.08-30.2-7.21-31.77-6.91l2,30.65c.47,15.14,19.24,15.65,26.89,2.6C580.23,812.84,591.31,797.42,583.12,786.5Z"/><path class="cls-15" d="M561.39,782.48c-6.89-33.39-13.84-28.91-13.84-28.91s1.12,11.79,4.23,32.62C554.11,798,562.24,790.87,561.39,782.48Z"/><path class="cls-19" d="M553.43,858c-.77,37.61-1.77,53.72-2.08,68.54L449.29,861.06c-31.1-9.44-67.37,52.12-28.05,79.9,0,0,135.92,76.74,166.5,54.63,16.54-12,12.25-97.74.09-142.14Z"/><path class="cls-20" d="M473.4,949c6.93-33.73,10.65-67-24.11-88-20.61-12.41-86.86-21.28-117.84-11-31.21,14-24.47,74.79-30.31,170.87-21.51,47.94-30.86,63.69-37.23,110.4,0,0,11.51,35.18,92.57,35.23,36.82,0,91-3.25,115.7-22-2.46-31.84-15.78-62.53-21.33-107.62C450.85,1036.88,472.9,952.9,473.4,949Z"/><path class="cls-21" d="M314.8,856.81c-38.05,29.05-75.16,74.73-92.7,99s-63,121.76-63,121.76L188,1098.87l78.21-106.56,95.54-78.37C394.94,880.1,351.86,828.52,314.8,856.81Z"/><path class="cls-15" d="M147,1102.28l18.75-38.72c4.4,11.64,25.86,22.26,32,22,0,0-20.15,29-25.08,33.93S147.42,1116.11,147,1102.28Z"/><path class="cls-15" d="M177.44,1113.06c-.07.29,0,.68-.06,1-.94,14.09-11.78,20.76-14.71,22.34a1.66,1.66,0,0,1-.75.29c10.19-2,13.24,11.61,8.05,14.76-15,10.15-36.36-3.81-38.16-12.28s15.24-37,15.24-37C155.76,1095.08,178.06,1096.18,177.44,1113.06Z"/><path class="cls-22" d="M177.38,1114c-.61,15.92-15,22.47-15.22,22.53-8.4-.23-11.39-.74-19.4-.72,5.23-2.55,16-9.34,11.8-22.51C162.78,1107,175.13,1112.54,177.38,1114Z"/><path class="cls-15" d="M177.59,1112.21c2.21,13.15,1.28,31.88-1.85,40.13,0,0-8.06.42-7.3-14.8.19-4-.38-12.57-4.3-15.43-12.06-8-14-15.29-9.58-21.29C160.46,1092.83,177.13,1100.94,177.59,1112.21Z"/><path class="cls-15" d="M140.25,1148.14c6.55,4.54,23.87,13.34,26.61,11.17s-11.12-16.92-20.07-18.87S136.9,1145.82,140.25,1148.14Z"/></g></svg>