<svg id="Group_9279" data-name="Group 9279" xmlns="http://www.w3.org/2000/svg" xmlns:xlink="http://www.w3.org/1999/xlink" width="910.892" height="603.378" viewBox="0 0 910.892 603.378">
  <defs>
    <clipPath id="clip-path">
      <rect id="Rectangle_10623" data-name="Rectangle 10623" width="910.892" height="603.378" fill="none"/>
    </clipPath>
  </defs>
  <g id="Group_9274" data-name="Group 9274">
    <g id="Group_9273" data-name="Group 9273" clip-path="url(#clip-path)">
      <path id="Path_27993" data-name="Path 27993" d="M805.719,602.411c35.175-60.068,55.451-130.657,55.451-206.188C861.17,177.395,691.041,0,481.176,0S101.182,177.395,101.182,396.223c0,75.531,20.276,146.12,55.451,206.188Z" transform="translate(-18.382)" fill="#e0f5ff"/>
      <path id="Path_27994" data-name="Path 27994" d="M481.085,136.063c-13.4,0-24.743,9.155-28.6,21.792a20.964,20.964,0,0,0-18.93-12.422c-11.616,0-21.033,9.818-21.033,21.93H511.1c0-17.286-13.44-31.3-30.018-31.3" transform="translate(-74.941 -19.963)" fill="#fff"/>
      <path id="Path_27995" data-name="Path 27995" d="M832.173,326.791v-.043c0-15.379,11.956-27.845,26.7-27.845a25.675,25.675,0,0,1,12.483,3.252,37.882,37.882,0,0,1,31.435-17.084c13.818,0,25.876,7.65,32.625,19.079a26.419,26.419,0,0,1,4.169-2.565c8.588-19.813,27.7-33.6,49.908-33.6,30.239,0,54.753,26.646,54.753,58.176Z" transform="translate(-151.179 -39.318)" fill="#fff"/>
      <path id="Path_27996" data-name="Path 27996" d="M457.308,388.285l2.858-3.4h-5.084c0-.017,5.029-.017,5.029-.017L402.1,357.2c-.013,0-.013-106.549-.013-106.549h2.687v-7.314H301.838v-.048l-.083.048h-.412v.241l-60.216,35.076,1.834,2.746,2.61.777v3.366l.234-.13v25.625h-6.637v9.4h6.637v27.729h-6.638v9.4h6.638v27.3h-6.639v9.4h6.639v27.3h-6.64v9.4h6.641V458.91h-7.05v9.4h7.051v27.3h-7.052v9.4h7.052v27.3h-7.052v9.4h7.053v27.3h-7.054v9.4h7.054l0,27.3h-7.056v9.4h7.056v12.584c-.033,0-.033,6.829-.033,6.829v3.457H355.071v-3.191h.046v3.19H455.256V627.693h-.174V391.705c.016,0,.016-3.3.016-3.3-.016,0-.016-.122-.016-.122Z" transform="translate(-43.375 -35.696)" fill="#bfe5ff"/>
      <path id="Path_27997" data-name="Path 27997" d="M575.805,505.8l-48.678,50.755h7.611l41.067-42.823Z" transform="translate(-95.762 -74.21)" fill="#a9d6f3"/>
      <path id="Path_27998" data-name="Path 27998" d="M554.532,388.691l-144.5,150.681h7.594L554.532,396.61Z" transform="translate(-74.489 -57.028)" fill="#a9d6f3"/>
      <path id="Path_27999" data-name="Path 27999" d="M572.216,486.035l-64.848,67.619h7.594l57.254-59.7Z" transform="translate(-92.172 -71.31)" fill="#a9d6f3"/>
      <path id="Path_28000" data-name="Path 28000" d="M558.124,408.467,429.8,542.274h7.6L558.124,416.39Z" transform="translate(-78.08 -59.929)" fill="#a9d6f3"/>
      <path id="Path_28001" data-name="Path 28001" d="M568.9,467.8l-79.774,83.179h7.594l72.18-75.261Z" transform="translate(-88.859 -68.635)" fill="#a9d6f3"/>
      <path id="Path_28002" data-name="Path 28002" d="M561.717,428.247,449.578,545.176h7.6L561.717,436.171Z" transform="translate(-81.674 -62.831)" fill="#a9d6f3"/>
      <path id="Path_28003" data-name="Path 28003" d="M565.309,448.021,469.348,548.077h7.594l88.367-92.137Z" transform="translate(-85.265 -65.733)" fill="#a9d6f3"/>
      <path id="Path_28004" data-name="Path 28004" d="M553.7,368.911,405.448,523.5v7.919L553.7,376.834Z" transform="translate(-73.657 -54.126)" fill="#a9d6f3"/>
      <path id="Path_28005" data-name="Path 28005" d="M509.879,363.126,405.448,472.018v7.918l112.026-116.81Z" transform="translate(-73.657 -53.277)" fill="#a9d6f3"/>
      <path id="Path_28006" data-name="Path 28006" d="M493.692,363.126,405.448,455.14v7.919l95.843-99.932Z" transform="translate(-73.657 -53.277)" fill="#a9d6f3"/>
      <path id="Path_28007" data-name="Path 28007" d="M526.066,363.126,405.448,488.9v7.919L533.66,363.126Z" transform="translate(-73.657 -53.277)" fill="#a9d6f3"/>
      <path id="Path_28008" data-name="Path 28008" d="M477.506,363.126l-72.058,75.136v7.918L485.1,363.126Z" transform="translate(-73.657 -53.277)" fill="#a9d6f3"/>
      <path id="Path_28009" data-name="Path 28009" d="M542.252,363.126l-136.8,142.648v7.918l144.4-150.566Z" transform="translate(-73.657 -53.277)" fill="#a9d6f3"/>
      <path id="Path_28010" data-name="Path 28010" d="M428.961,363.126l-23.513,24.519v7.918l31.106-32.438Z" transform="translate(-73.657 -53.277)" fill="#a9d6f3"/>
      <path id="Path_28011" data-name="Path 28011" d="M412.775,363.126l-7.327,7.641v7.918l14.921-15.56Z" transform="translate(-73.657 -53.277)" fill="#a9d6f3"/>
      <path id="Path_28012" data-name="Path 28012" d="M445.135,363.126l-39.687,41.38v7.927l47.287-49.307Z" transform="translate(-73.657 -53.277)" fill="#a9d6f3"/>
      <path id="Path_28013" data-name="Path 28013" d="M461.322,363.126l-55.875,58.258V429.3l63.469-66.176Z" transform="translate(-73.657 -53.277)" fill="#a9d6f3"/>
      <path id="Path_28014" data-name="Path 28014" d="M582.992,545.357l-16.3,17h7.594l8.71-9.082Z" transform="translate(-102.949 -80.013)" fill="#a9d6f3"/>
      <path id="Path_28015" data-name="Path 28015" d="M579.4,525.578l-32.491,33.878H554.5l24.9-25.96Z" transform="translate(-99.356 -77.112)" fill="#a9d6f3"/>
      <path id="Path_28016" data-name="Path 28016" d="M866.281,411.064h5.78v-8.471h-145.9V654H866.281Z" transform="translate(-131.921 -59.068)" fill="#bfe5ff"/>
      <rect id="Rectangle_10617" data-name="Rectangle 10617" width="41.002" height="9.719" transform="translate(283.464 241.139)" fill="#e0f5ff"/>
      <rect id="Rectangle_10618" data-name="Rectangle 10618" width="41.002" height="9.719" transform="translate(283.464 263.73)" fill="#e0f5ff"/>
      <rect id="Rectangle_10619" data-name="Rectangle 10619" width="41.002" height="9.719" transform="translate(283.464 286.321)" fill="#e0f5ff"/>
      <rect id="Rectangle_10620" data-name="Rectangle 10620" width="41.002" height="9.719" transform="translate(283.464 309.915)" fill="#e0f5ff"/>
      <rect id="Rectangle_10621" data-name="Rectangle 10621" width="41.002" height="9.719" transform="translate(283.464 333.508)" fill="#e0f5ff"/>
      <rect id="Rectangle_10622" data-name="Rectangle 10622" width="41.002" height="9.719" transform="translate(283.464 382.073)" fill="#e0f5ff"/>
      <path id="Path_28017" data-name="Path 28017" d="M110.173,406.791v-.043c0-15.379,11.956-27.845,26.7-27.845a25.681,25.681,0,0,1,12.484,3.252,37.88,37.88,0,0,1,31.434-17.084c13.818,0,25.876,7.65,32.624,19.079a26.417,26.417,0,0,1,4.169-2.565c8.588-19.813,27.7-33.6,49.908-33.6,30.239,0,54.753,26.645,54.753,58.176Z" transform="translate(-20.015 -51.055)" fill="#fff"/>
    </g>
  </g>
  <g id="Group_9276" data-name="Group 9276">
    <g id="Group_9275" data-name="Group 9275" clip-path="url(#clip-path)">
      <path id="Path_28018" data-name="Path 28018" d="M974.386,701l42.286-.6c0-15.061-11.71-27.271-26.155-27.271a25.35,25.35,0,0,0-16.132,5.83Z" transform="translate(-177.015 -98.76)" fill="#80d3f9"/>
      <path id="Path_28019" data-name="Path 28019" d="M105.6,593.767a12.718,12.718,0,0,0-3.266-3.156,13.611,13.611,0,0,0-2.259-10.55,12.9,12.9,0,0,0-2.523-2.62,18.216,18.216,0,0,0,2.552-9.319,17.823,17.823,0,0,0-9.7-16.02,11.374,11.374,0,0,0,.805-4.216,10.961,10.961,0,0,0-7.545-10.55c0-.154.022-.305.022-.462a17.429,17.429,0,0,0-7.916-14.72,9.755,9.755,0,0,0,.349-2.568,9.022,9.022,0,1,0-18.028,0,9.761,9.761,0,0,0,.349,2.569,17.425,17.425,0,0,0-7.917,14.719,18.034,18.034,0,0,0,.438,3.894,11.033,11.033,0,0,0-6.36,10.1,11.462,11.462,0,0,0,.456,3.2,14.2,14.2,0,0,0-4.8,10.716,14.464,14.464,0,0,0,1.053,5.444A15.906,15.906,0,0,0,33.7,583.917a16.2,16.2,0,0,0,2.6,8.851,15.124,15.124,0,0,0,.947,23.321,15.169,15.169,0,0,0-.231,2.576c0,8.074,6.277,14.619,14.02,14.619a13.46,13.46,0,0,0,4.894-.933,13.793,13.793,0,0,0,22.327-1.594,13.719,13.719,0,0,0,8.624-4.033,12.215,12.215,0,0,0,9.228-2.5,13.407,13.407,0,0,0,5.067-10.931,12.511,12.511,0,0,0,1.9-1.209,13.458,13.458,0,0,0,2.529-18.317" transform="translate(-5.679 -74.853)" fill="#80d3f9"/>
      <path id="Path_28020" data-name="Path 28020" d="M1068.767,698.9h-11.008v-6.926c0-.668.723-1.211,1.615-1.211h7.777c.892,0,1.615.543,1.615,1.211Z" transform="translate(-192.161 -101.347)" fill="#4bb8df"/>
      <rect id="Rectangle_10624" data-name="Rectangle 10624" width="15.547" height="3.05" transform="translate(863.05 493.924)" fill="#4bb8df"/>
      <path id="Path_28021" data-name="Path 28021" d="M708.31,215.1H675.425V195.877H708.31l-8.718,9.613Z" transform="translate(-122.703 -28.739)" fill="#fff"/>
      <rect id="Rectangle_10625" data-name="Rectangle 10625" width="164.815" height="186.295" transform="translate(630.983 415.577)" fill="#fff"/>
      <rect id="Rectangle_10626" data-name="Rectangle 10626" width="169.932" height="8.393" transform="translate(630.115 413.817)" fill="#fff"/>
      <rect id="Rectangle_10627" data-name="Rectangle 10627" width="98.057" height="286.398" transform="translate(351.492 315.487)" fill="#fff"/>
      <path id="Path_28022" data-name="Path 28022" d="M742.076,351.287H587.431V281.414L664.544,244l77.531,38.413Z" transform="translate(-106.717 -35.8)" fill="#fff"/>
      <rect id="Rectangle_10628" data-name="Rectangle 10628" width="80.29" height="68.892" transform="translate(400.425 241.685)" fill="#fff"/>
      <rect id="Rectangle_10629" data-name="Rectangle 10629" width="216.735" height="291.307" transform="translate(449.403 310.578)" fill="#fff"/>
      <path id="Path_28023" data-name="Path 28023" d="M476.829,294.053l-4.075-5.757h77.251l4.074,5.757Z" transform="translate(-85.884 -42.298)" fill="#fff"/>
      <path id="Path_28024" data-name="Path 28024" d="M738.275,281.892l-94.24-43.454H566.784l-94.029,42.544,4.074,5.757h77.251l89.954-39.385,90.313,40.141Z" transform="translate(-85.884 -34.983)" fill="#fff"/>
      <path id="Path_28025" data-name="Path 28025" d="M738.275,281.892l-94.24-43.454H566.784l-94.029,42.544,4.074,5.757h77.251l89.954-39.385,90.313,40.141Z" transform="translate(-85.884 -34.983)" fill="#80d3f9"/>
      <rect id="Rectangle_10630" data-name="Rectangle 10630" width="111.999" height="8.393" transform="translate(345.594 310.578)" fill="#fff"/>
      <rect id="Rectangle_10631" data-name="Rectangle 10631" width="215.164" height="8.393" transform="translate(456.864 310.578)" fill="#fff"/>
      <rect id="Rectangle_10632" data-name="Rectangle 10632" width="164.815" height="186.295" transform="translate(234.451 415.59)" fill="#fff"/>
      <rect id="Rectangle_10633" data-name="Rectangle 10633" width="110.355" height="186.295" transform="translate(124.097 415.59)" fill="#fff"/>
      <rect id="Rectangle_10634" data-name="Rectangle 10634" width="169.932" height="8.393" transform="translate(230.063 413.817)" fill="#fff"/>
      <rect id="Rectangle_10635" data-name="Rectangle 10635" width="121.715" height="8.393" transform="translate(118.793 413.817)" fill="#fff"/>
      <path id="Path_28026" data-name="Path 28026" d="M696.857,289.358c0,8.1-6.3,14.673-14.072,14.673s-14.072-6.569-14.072-14.673,6.3-14.673,14.072-14.673,14.072,6.569,14.072,14.673" transform="translate(-121.484 -40.301)" fill="#80d3f9"/>
      <path id="Path_28027" data-name="Path 28027" d="M685.45,303.764a13.58,13.58,0,0,1-2.661.265c-7.772,0-14.077-6.562-14.077-14.667s6.3-14.678,14.077-14.678a13.515,13.515,0,0,1,2.661.265,14.8,14.8,0,0,0,0,28.815" transform="translate(-121.483 -40.301)" fill="#339cc5"/>
      <path id="Path_28028" data-name="Path 28028" d="M698.037,289.407a11.724,11.724,0,1,1-11.405-14.414,14.5,14.5,0,0,1,11.405,14.414" transform="translate(-122.665 -40.346)" fill="#80d3f9"/>
      <rect id="Rectangle_10636" data-name="Rectangle 10636" width="19.013" height="20.195" transform="translate(517.558 277.25)" fill="#80d3f9"/>
      <rect id="Rectangle_10637" data-name="Rectangle 10637" width="19.013" height="20.195" transform="translate(552.553 277.25)" fill="#80d3f9"/>
      <rect id="Rectangle_10638" data-name="Rectangle 10638" width="19.013" height="20.195" transform="translate(588.475 277.25)" fill="#80d3f9"/>
      <rect id="Rectangle_10639" data-name="Rectangle 10639" width="2.116" height="19.38" transform="translate(519.152 277.861)" fill="#339cc5"/>
      <rect id="Rectangle_10640" data-name="Rectangle 10640" width="18.586" height="2.207" transform="translate(518.233 278.581)" fill="#339cc5"/>
      <rect id="Rectangle_10641" data-name="Rectangle 10641" width="2.116" height="19.38" transform="translate(554.273 277.861)" fill="#339cc5"/>
      <rect id="Rectangle_10642" data-name="Rectangle 10642" width="18.585" height="2.207" transform="translate(553.354 278.581)" fill="#339cc5"/>
      <rect id="Rectangle_10643" data-name="Rectangle 10643" width="2.116" height="19.38" transform="translate(589.608 277.861)" fill="#339cc5"/>
      <rect id="Rectangle_10644" data-name="Rectangle 10644" width="18.586" height="2.207" transform="translate(588.689 278.581)" fill="#339cc5"/>
      <path id="Path_28029" data-name="Path 28029" d="M647.461,251.584l-89.954,39.385H489.735v4.012h67.772l90.06-39.243,77.1,33.762v-3.67Z" transform="translate(-88.969 -36.912)" fill="#339cc5"/>
      <rect id="Rectangle_10645" data-name="Rectangle 10645" width="5.944" height="61.701" transform="translate(474.771 248.877)" fill="#339cc5"/>
      <path id="Path_28030" data-name="Path 28030" d="M469.337,363.98h69.994v8.393H453.946Z" transform="translate(-82.467 -53.402)" fill="#4bb8df"/>
      <rect id="Rectangle_10646" data-name="Rectangle 10646" width="7.538" height="282.914" transform="translate(441.865 318.971)" fill="#339cc5"/>
      <rect id="Rectangle_10647" data-name="Rectangle 10647" width="314.645" height="6.044" transform="translate(351.492 318.971)" fill="#339cc5"/>
      <rect id="Rectangle_10648" data-name="Rectangle 10648" width="181.747" height="27.08" transform="translate(464.941 350.365)" fill="#80d3f9"/>
      <rect id="Rectangle_10649" data-name="Rectangle 10649" width="181.747" height="27.08" transform="translate(464.941 401.382)" fill="#80d3f9"/>
      <rect id="Rectangle_10650" data-name="Rectangle 10650" width="5.079" height="26.599" transform="translate(464.94 350.365)" fill="#339cc5"/>
      <rect id="Rectangle_10651" data-name="Rectangle 10651" width="181.747" height="5.301" transform="translate(464.941 350.365)" fill="#339cc5"/>
      <rect id="Rectangle_10652" data-name="Rectangle 10652" width="5.079" height="26.599" transform="translate(464.94 402.291)" fill="#339cc5"/>
      <rect id="Rectangle_10653" data-name="Rectangle 10653" width="181.747" height="5.301" transform="translate(464.941 402.291)" fill="#339cc5"/>
      <rect id="Rectangle_10654" data-name="Rectangle 10654" width="19.749" height="23.599" transform="translate(473.91 451.388)" fill="#4bb8df"/>
      <rect id="Rectangle_10655" data-name="Rectangle 10655" width="49.593" height="69.382" transform="translate(528.536 499.572)" fill="#4bb8df"/>
      <rect id="Rectangle_10656" data-name="Rectangle 10656" width="4.14" height="68.971" transform="translate(528.536 499.572)" fill="#339cc5"/>
      <rect id="Rectangle_10657" data-name="Rectangle 10657" width="49.593" height="5.469" transform="translate(528.536 499.572)" fill="#339cc5"/>
      <rect id="Rectangle_10658" data-name="Rectangle 10658" width="13.801" height="26.675" transform="translate(667.192 447.666)" fill="#4bb8df"/>
      <rect id="Rectangle_10659" data-name="Rectangle 10659" width="13.801" height="26.675" transform="translate(667.192 496.733)" fill="#4bb8df"/>
      <rect id="Rectangle_10660" data-name="Rectangle 10660" width="13.801" height="26.675" transform="translate(667.192 545.8)" fill="#4bb8df"/>
      <rect id="Rectangle_10661" data-name="Rectangle 10661" width="29.257" height="26.675" transform="translate(696.438 447.666)" fill="#80d3f9"/>
      <rect id="Rectangle_10662" data-name="Rectangle 10662" width="29.257" height="26.675" transform="translate(696.438 496.733)" fill="#80d3f9"/>
      <rect id="Rectangle_10663" data-name="Rectangle 10663" width="29.257" height="26.675" transform="translate(696.438 545.8)" fill="#80d3f9"/>
      <rect id="Rectangle_10664" data-name="Rectangle 10664" width="29.257" height="26.675" transform="translate(740.148 447.666)" fill="#80d3f9"/>
      <rect id="Rectangle_10665" data-name="Rectangle 10665" width="29.257" height="26.675" transform="translate(740.148 496.733)" fill="#80d3f9"/>
      <rect id="Rectangle_10666" data-name="Rectangle 10666" width="29.257" height="26.675" transform="translate(740.148 545.8)" fill="#80d3f9"/>
      <rect id="Rectangle_10667" data-name="Rectangle 10667" width="29.257" height="26.675" transform="translate(259.922 447.666)" fill="#80d3f9"/>
      <rect id="Rectangle_10668" data-name="Rectangle 10668" width="29.257" height="26.675" transform="translate(303.633 447.666)" fill="#80d3f9"/>
      <rect id="Rectangle_10669" data-name="Rectangle 10669" width="29.257" height="26.675" transform="translate(347.344 447.666)" fill="#80d3f9"/>
      <rect id="Rectangle_10670" data-name="Rectangle 10670" width="29.257" height="26.675" transform="translate(259.922 496.607)" fill="#80d3f9"/>
      <rect id="Rectangle_10671" data-name="Rectangle 10671" width="29.257" height="26.675" transform="translate(303.633 496.607)" fill="#80d3f9"/>
      <rect id="Rectangle_10672" data-name="Rectangle 10672" width="29.257" height="26.675" transform="translate(347.344 496.607)" fill="#80d3f9"/>
      <rect id="Rectangle_10673" data-name="Rectangle 10673" width="29.257" height="26.675" transform="translate(259.922 545.8)" fill="#80d3f9"/>
      <rect id="Rectangle_10674" data-name="Rectangle 10674" width="29.257" height="26.675" transform="translate(303.633 545.8)" fill="#80d3f9"/>
      <rect id="Rectangle_10675" data-name="Rectangle 10675" width="29.257" height="26.675" transform="translate(347.344 545.8)" fill="#80d3f9"/>
      <rect id="Rectangle_10676" data-name="Rectangle 10676" width="24.886" height="124.557" transform="translate(146.498 447.666)" fill="#4bb8df"/>
      <rect id="Rectangle_10677" data-name="Rectangle 10677" width="24.886" height="124.557" transform="translate(188.383 447.666)" fill="#4bb8df"/>
      <rect id="Rectangle_10678" data-name="Rectangle 10678" width="28.198" height="4.706" transform="translate(259.922 447.665)" fill="#339cc5"/>
      <rect id="Rectangle_10679" data-name="Rectangle 10679" width="4.556" height="26.675" transform="translate(284.623 447.666)" fill="#339cc5"/>
      <rect id="Rectangle_10680" data-name="Rectangle 10680" width="28.198" height="4.706" transform="translate(303.632 447.665)" fill="#339cc5"/>
      <rect id="Rectangle_10681" data-name="Rectangle 10681" width="4.556" height="26.675" transform="translate(328.335 447.666)" fill="#339cc5"/>
      <rect id="Rectangle_10682" data-name="Rectangle 10682" width="28.198" height="4.706" transform="translate(347.344 447.665)" fill="#339cc5"/>
      <rect id="Rectangle_10683" data-name="Rectangle 10683" width="4.556" height="26.675" transform="translate(372.045 447.666)" fill="#339cc5"/>
      <rect id="Rectangle_10684" data-name="Rectangle 10684" width="28.198" height="4.706" transform="translate(259.922 496.606)" fill="#339cc5"/>
      <rect id="Rectangle_10685" data-name="Rectangle 10685" width="4.556" height="26.675" transform="translate(284.623 496.607)" fill="#339cc5"/>
      <rect id="Rectangle_10686" data-name="Rectangle 10686" width="28.198" height="4.706" transform="translate(303.632 496.606)" fill="#339cc5"/>
      <rect id="Rectangle_10687" data-name="Rectangle 10687" width="4.556" height="26.675" transform="translate(328.335 496.607)" fill="#339cc5"/>
      <rect id="Rectangle_10688" data-name="Rectangle 10688" width="28.198" height="4.706" transform="translate(347.344 496.606)" fill="#339cc5"/>
      <rect id="Rectangle_10689" data-name="Rectangle 10689" width="4.556" height="26.675" transform="translate(372.045 496.607)" fill="#339cc5"/>
      <rect id="Rectangle_10690" data-name="Rectangle 10690" width="28.198" height="4.706" transform="translate(259.922 545.547)" fill="#339cc5"/>
      <rect id="Rectangle_10691" data-name="Rectangle 10691" width="4.556" height="26.675" transform="translate(284.623 545.548)" fill="#339cc5"/>
      <rect id="Rectangle_10692" data-name="Rectangle 10692" width="28.198" height="4.706" transform="translate(303.632 545.547)" fill="#339cc5"/>
      <rect id="Rectangle_10693" data-name="Rectangle 10693" width="4.556" height="26.675" transform="translate(328.335 545.548)" fill="#339cc5"/>
      <rect id="Rectangle_10694" data-name="Rectangle 10694" width="28.198" height="4.706" transform="translate(347.344 545.547)" fill="#339cc5"/>
      <rect id="Rectangle_10695" data-name="Rectangle 10695" width="4.556" height="26.675" transform="translate(372.045 545.548)" fill="#339cc5"/>
      <rect id="Rectangle_10696" data-name="Rectangle 10696" width="28.198" height="4.706" transform="translate(696.608 545.547)" fill="#339cc5"/>
      <rect id="Rectangle_10697" data-name="Rectangle 10697" width="4.556" height="26.675" transform="translate(721.31 545.548)" fill="#339cc5"/>
      <rect id="Rectangle_10698" data-name="Rectangle 10698" width="28.198" height="4.706" transform="translate(740.319 545.547)" fill="#339cc5"/>
      <rect id="Rectangle_10699" data-name="Rectangle 10699" width="4.556" height="26.675" transform="translate(765.02 545.548)" fill="#339cc5"/>
      <rect id="Rectangle_10700" data-name="Rectangle 10700" width="28.198" height="4.706" transform="translate(696.608 496.732)" fill="#339cc5"/>
      <rect id="Rectangle_10701" data-name="Rectangle 10701" width="4.556" height="26.675" transform="translate(721.31 496.733)" fill="#339cc5"/>
      <rect id="Rectangle_10702" data-name="Rectangle 10702" width="28.198" height="4.706" transform="translate(740.319 496.732)" fill="#339cc5"/>
      <rect id="Rectangle_10703" data-name="Rectangle 10703" width="4.556" height="26.675" transform="translate(765.02 496.733)" fill="#339cc5"/>
      <rect id="Rectangle_10704" data-name="Rectangle 10704" width="28.198" height="4.706" transform="translate(696.608 447.665)" fill="#339cc5"/>
      <rect id="Rectangle_10705" data-name="Rectangle 10705" width="4.556" height="26.675" transform="translate(721.31 447.666)" fill="#339cc5"/>
      <rect id="Rectangle_10706" data-name="Rectangle 10706" width="14.623" height="4.706" transform="translate(666.139 447.665)" fill="#339cc5"/>
      <rect id="Rectangle_10707" data-name="Rectangle 10707" width="4.556" height="26.675" transform="translate(677.265 447.666)" fill="#339cc5"/>
      <rect id="Rectangle_10708" data-name="Rectangle 10708" width="14.623" height="4.706" transform="translate(666.139 496.732)" fill="#339cc5"/>
      <rect id="Rectangle_10709" data-name="Rectangle 10709" width="4.556" height="26.675" transform="translate(677.265 496.733)" fill="#339cc5"/>
      <rect id="Rectangle_10710" data-name="Rectangle 10710" width="14.623" height="4.706" transform="translate(666.139 545.8)" fill="#339cc5"/>
      <rect id="Rectangle_10711" data-name="Rectangle 10711" width="4.556" height="26.675" transform="translate(677.265 545.8)" fill="#339cc5"/>
      <rect id="Rectangle_10712" data-name="Rectangle 10712" width="28.198" height="4.706" transform="translate(740.319 447.665)" fill="#339cc5"/>
      <rect id="Rectangle_10713" data-name="Rectangle 10713" width="4.556" height="26.675" transform="translate(765.02 447.666)" fill="#339cc5"/>
      <path id="Path_28031" data-name="Path 28031" d="M268.081,702.661H185.119l19.9-15.79h63.066Z" transform="translate(-33.63 -100.776)" fill="#339cc5"/>
      <rect id="Rectangle_10714" data-name="Rectangle 10714" width="35.335" height="32.931" transform="translate(449.55 568.954)" fill="#339cc5"/>
      <rect id="Rectangle_10715" data-name="Rectangle 10715" width="23.434" height="21.954" transform="translate(483.784 579.931)" fill="#339cc5"/>
      <rect id="Rectangle_10716" data-name="Rectangle 10716" width="22.232" height="10.977" transform="translate(504.107 590.908)" fill="#339cc5"/>
      <rect id="Rectangle_10717" data-name="Rectangle 10717" width="273.172" height="4.605" transform="translate(126.094 424.165)" fill="#339cc5"/>
      <rect id="Rectangle_10718" data-name="Rectangle 10718" width="128.466" height="6.679" transform="translate(667.192 422.211)" fill="#339cc5"/>
      <path id="Path_28032" data-name="Path 28032" d="M630.85,465.669l-24.55,25.6v8.464l24.55-25.6Z" transform="translate(-110.145 -68.322)" fill="#fff"/>
      <path id="Path_28033" data-name="Path 28033" d="M630.85,402.261l-24.55,25.6v8.463l24.55-25.6Z" transform="translate(-110.145 -59.019)" fill="#fff"/>
      <path id="Path_28034" data-name="Path 28034" d="M630.85,444.534l-24.55,25.6V478.6L630.85,453Z" transform="translate(-110.145 -65.221)" fill="#fff"/>
      <path id="Path_28035" data-name="Path 28035" d="M651.2,435.486v8.463L676.568,417.5v-8.463Z" transform="translate(-118.302 -60.012)" fill="#fff"/>
      <path id="Path_28036" data-name="Path 28036" d="M651.2,476.1v8.463l25.368-26.452v-8.463Z" transform="translate(-118.302 -65.971)" fill="#fff"/>
      <path id="Path_28037" data-name="Path 28037" d="M651.2,497.232V505.7l25.368-26.452V470.78Z" transform="translate(-118.302 -69.072)" fill="#fff"/>
      <path id="Path_28038" data-name="Path 28038" d="M707.85,465.669l-24.55,25.6v8.464l24.55-25.6Z" transform="translate(-124.134 -68.322)" fill="#fff"/>
      <path id="Path_28039" data-name="Path 28039" d="M707.85,402.261l-24.55,25.6v8.463l24.55-25.6Z" transform="translate(-124.134 -59.019)" fill="#fff"/>
      <path id="Path_28040" data-name="Path 28040" d="M707.85,444.534l-24.55,25.6V478.6L707.85,453Z" transform="translate(-124.134 -65.221)" fill="#fff"/>
      <path id="Path_28041" data-name="Path 28041" d="M728.2,435.486v8.463L753.568,417.5v-8.463Z" transform="translate(-132.29 -60.012)" fill="#fff"/>
      <path id="Path_28042" data-name="Path 28042" d="M728.2,476.1v8.463l25.368-26.452v-8.463Z" transform="translate(-132.29 -65.971)" fill="#fff"/>
      <path id="Path_28043" data-name="Path 28043" d="M728.2,497.232V505.7l25.368-26.452V470.78Z" transform="translate(-132.29 -69.072)" fill="#fff"/>
      <rect id="Rectangle_10719" data-name="Rectangle 10719" width="24.772" height="4.706" transform="translate(146.499 447.665)" fill="#339cc5"/>
      <rect id="Rectangle_10720" data-name="Rectangle 10720" width="4.99" height="124.81" transform="translate(146.499 447.665)" fill="#339cc5"/>
      <rect id="Rectangle_10721" data-name="Rectangle 10721" width="24.772" height="4.706" transform="translate(188.441 447.665)" fill="#339cc5"/>
      <rect id="Rectangle_10722" data-name="Rectangle 10722" width="4.99" height="124.81" transform="translate(188.441 447.665)" fill="#339cc5"/>
      <path id="Path_28044" data-name="Path 28044" d="M8.03,650.667c1.633,5.007-.762,10.407-.762,10.407s-5.07-2.592-6.7-7.6.789-10.533.789-10.533S6.4,645.66,8.03,650.667" transform="translate(0 -94.331)" fill="#80d3f9"/>
      <path id="Path_28045" data-name="Path 28045" d="M39.767,679.454c-3.69.469-7.045-2.135-7.045-2.135s2.545-3.4,6.235-3.87,7.128,2.173,7.128,2.173-2.628,3.364-6.318,3.832" transform="translate(-5.945 -98.799)" fill="#4bb8df"/>
      <path id="Path_28046" data-name="Path 28046" d="M92.985,574.017c-1.3,3.86-5.225,5.958-5.225,5.958s-1.9-4.1-.6-7.96,5.3-6.02,5.3-6.02,1.827,4.162.531,8.022" transform="translate(-15.751 -83.041)" fill="#fff"/>
      <path id="Path_28047" data-name="Path 28047" d="M98.372,584.323a8.376,8.376,0,0,1-5.449-1.651,8.183,8.183,0,0,1,4.822-2.994,8.572,8.572,0,0,1,5.513,1.681,8.472,8.472,0,0,1-4.886,2.964" transform="translate(-16.881 -85.043)" fill="#fff"/>
      <path id="Path_28048" data-name="Path 28048" d="M661.025,584.521l-17.282,18.02v8.023l24.977-26.043Z" transform="translate(-116.948 -85.759)" fill="#339cc5"/>
      <path id="Path_28049" data-name="Path 28049" d="M677.423,584.521l-33.679,35.118v8.023l41.374-43.141Z" transform="translate(-116.948 -85.759)" fill="#339cc5"/>
      <path id="Path_28050" data-name="Path 28050" d="M644.628,584.521l-.885.922v8.023l8.58-8.946Z" transform="translate(-116.948 -85.759)" fill="#339cc5"/>
      <path id="Path_28051" data-name="Path 28051" d="M650.809,657.077l44.977-46.9v-8.023L643.744,656.42v.657Z" transform="translate(-116.948 -88.347)" fill="#339cc5"/>
      <path id="Path_28052" data-name="Path 28052" d="M690.747,662.957l12.18-12.7v-8.023l-19.875,20.724Z" transform="translate(-124.089 -94.227)" fill="#339cc5"/>
      <path id="Path_28053" data-name="Path 28053" d="M706.567,665.9V662.27l-3.478,3.626Z" transform="translate(-127.729 -97.167)" fill="#339cc5"/>
      <path id="Path_28054" data-name="Path 28054" d="M670.71,660.017l28.577-29.8V622.2l-36.273,37.822Z" transform="translate(-120.448 -91.287)" fill="#339cc5"/>
      <path id="Path_28055" data-name="Path 28055" d="M693.82,584.521l-50.076,52.215v8.023l52.043-54.265v-5.974Z" transform="translate(-116.948 -85.759)" fill="#339cc5"/>
    </g>
  </g>
  <g id="Group_9278" data-name="Group 9278">
    <g id="Group_9277" data-name="Group 9277" clip-path="url(#clip-path)">
      <path id="Path_28056" data-name="Path 28056" d="M1018.172,700.606h-2.864c0-14.214-11.091-25.778-24.723-25.778a24.13,24.13,0,0,0-16.036,6.161l-1.859-2.271a26.921,26.921,0,0,1,17.9-6.876c15.212,0,27.587,12.9,27.587,28.765" transform="translate(-176.706 -98.571)" fill="#1b1e3f"/>
      <rect id="Rectangle_10724" data-name="Rectangle 10724" width="2.864" height="92.771" transform="translate(61.397 508.733)" fill="#1b1e3f"/>
      <path id="Path_28121" data-name="Path 28121" d="M.023.3,36.987-.177,36.949,2.7-.015,3.173Z" transform="translate(61.194 563.048) rotate(-70.783)" fill="#1b1e3f"/>
      <path id="Path_28122" data-name="Path 28122" d="M.172.029,3.059-.019,2.784,17.019-.1,17.067Z" transform="translate(54.216 553.917) rotate(-25.756)" fill="#1b1e3f"/>
      <path id="Path_28057" data-name="Path 28057" d="M66.174,638.542A15.282,15.282,0,0,1,55.2,633.815a14.721,14.721,0,0,1-4.485.706c-8.52,0-15.453-7.227-15.453-16.112a15.942,15.942,0,0,1,.119-1.921,16.687,16.687,0,0,1-1.247-24.241,17.775,17.775,0,0,1-2.187-8.587,17.554,17.554,0,0,1,7.293-14.307,16.015,16.015,0,0,1-.736-4.825,15.772,15.772,0,0,1,4.624-11.222,13.006,13.006,0,0,1-.282-2.693,12.6,12.6,0,0,1,6.173-10.931,19.213,19.213,0,0,1-.251-3.063,18.884,18.884,0,0,1,7.729-15.4,11.182,11.182,0,0,1-.163-1.89,10.455,10.455,0,1,1,20.892,0,11.172,11.172,0,0,1-.163,1.889,18.857,18.857,0,0,1,7.721,14.808,12.6,12.6,0,0,1,7.532,11.6,12.96,12.96,0,0,1-.476,3.492,19.524,19.524,0,0,1,9.375,16.743,19.84,19.84,0,0,1-2.142,8.969,14.09,14.09,0,0,1,1.827,2.076,15.184,15.184,0,0,1,2.675,10.756,14.075,14.075,0,0,1,2.849,2.95h0a14.948,14.948,0,0,1,2.644,10.812,14.6,14.6,0,0,1-5.462,9.6,13.234,13.234,0,0,1-1.327.91,14.938,14.938,0,0,1-5.635,11.232,13.609,13.609,0,0,1-9.6,2.86,15.189,15.189,0,0,1-8.321,3.894,15.376,15.376,0,0,1-12.558,6.623m-10.146-8.2.651.762a12.4,12.4,0,0,0,20.07-1.433l.387-.6.694-.055a12.37,12.37,0,0,0,7.741-3.621l.5-.495.681.093a10.831,10.831,0,0,0,8.184-2.215,11.936,11.936,0,0,0,4.493-9.7l-.023-.947.811-.426a10.986,10.986,0,0,0,1.68-1.072,11.934,11.934,0,0,0,2.241-16.226h0a11.28,11.28,0,0,0-2.894-2.795l-.824-.553.195-1a12.126,12.126,0,0,0-2-9.359,11.491,11.491,0,0,0-2.239-2.323l-1.042-.819.687-1.158a16.74,16.74,0,0,0,2.338-8.534,16.43,16.43,0,0,0-8.89-14.672l-1.224-.611.52-1.308a9.806,9.806,0,0,0,.7-3.644,9.53,9.53,0,0,0-6.522-9.118l-1.053-.327.029-1.144c0-.091.008-.179.015-.267,0-.051.007-.1.007-.154A15.854,15.854,0,0,0,74.7,523.17l-.923-.592.3-1.087a8.217,8.217,0,0,0,.3-2.161,7.588,7.588,0,1,0-15.164,0,8.214,8.214,0,0,0,.3,2.162l.3,1.087-.923.592a15.851,15.851,0,0,0-7.234,13.448,16.531,16.531,0,0,0,.4,3.558l.268,1.211-1.093.495a9.539,9.539,0,0,0-5.5,8.731,9.934,9.934,0,0,0,.394,2.766l.274.943-.723.633a12.7,12.7,0,0,0-4.286,9.574,12.887,12.887,0,0,0,.94,4.862l.493,1.217-1.1.659a14.471,14.471,0,0,0-6.893,12.395,14.652,14.652,0,0,0,2.354,8.012l.723,1.113-.985.867a13.591,13.591,0,0,0,.851,20.961l.741.549-.16.933a13.56,13.56,0,0,0-.209,2.314,12.88,12.88,0,0,0,12.588,13.125,12.082,12.082,0,0,0,4.392-.839Z" transform="translate(-5.361 -74.597)" fill="#1b1e3f"/>
      <path id="Path_28058" data-name="Path 28058" d="M1067.257,594.717h-10.511l-4.583-14.15V576.1h19.464l-.132,4.469Zm-8.455-2.987h6.349l3.494-11.659.029-.982h-13.646v.987Z" transform="translate(-191.144 -84.524)" fill="#1b1e3f"/>
      <rect id="Rectangle_10727" data-name="Rectangle 10727" width="2.864" height="67.696" transform="translate(869.413 513.911)" fill="#1b1e3f"/>
      <path id="Path_28059" data-name="Path 28059" d="M1067.841,684.7h-2.864v-.992h-3.471v.992h-2.864v-1.369a2.562,2.562,0,0,1,2.5-2.61h4.192a2.561,2.561,0,0,1,2.5,2.61Z" transform="translate(-192.321 -99.873)" fill="#1b1e3f"/>
      <path id="Path_28060" data-name="Path 28060" d="M1069.846,697.109h-2.864v-6.493a.087.087,0,0,0-.084-.089h-8.1a.087.087,0,0,0-.084.089v6.493h-2.864v-6.493a3.017,3.017,0,0,1,2.948-3.075h8.1a3.017,3.017,0,0,1,2.948,3.075Z" transform="translate(-191.814 -100.874)" fill="#1b1e3f"/>
      <path id="Path_28061" data-name="Path 28061" d="M1075.006,704.215h-2.864V700.83a.37.37,0,0,0-.362-.377H1051.3a.37.37,0,0,0-.363.377v3.118h-2.864V700.83a3.3,3.3,0,0,1,3.227-3.364h20.48a3.3,3.3,0,0,1,3.226,3.364Z" transform="translate(-190.401 -102.331)" fill="#1b1e3f"/>
      <path id="Path_28062" data-name="Path 28062" d="M1067.4,594.717h-10.511l-4.583-14.15V576.1h19.464l-.132,4.469Zm-8.455-2.987h6.349l3.494-11.658.029-.983h-13.646v.987Z" transform="translate(-191.17 -84.524)" fill="#1b1e3f"/>
      <path id="Path_28063" data-name="Path 28063" d="M1066.333,628.162h-6.012a1.495,1.495,0,0,1,0-2.987h6.012a1.495,1.495,0,0,1,0,2.987" transform="translate(-192.366 -91.724)" fill="#1b1e3f"/>
      <path id="Path_28064" data-name="Path 28064" d="M1066.192,603.361h-6.012a1.495,1.495,0,0,1,0-2.987h6.012a1.495,1.495,0,0,1,0,2.987" transform="translate(-192.34 -88.085)" fill="#1b1e3f"/>
      <path id="Path_28065" data-name="Path 28065" d="M1069,597.4h-13.231a1.495,1.495,0,0,1,0-2.986H1069a1.495,1.495,0,0,1,0,2.986" transform="translate(-191.539 -87.212)" fill="#1b1e3f"/>
      <rect id="Rectangle_10728" data-name="Rectangle 10728" width="900.01" height="2.986" transform="translate(10.882 600.392)" fill="#1b1e3f"/>
      <path id="Path_28066" data-name="Path 28066" d="M711.317,216.341H673.675V194.128h37.642l-10.073,11.106Zm-34.778-2.986h28.128l-7.364-8.12,7.364-8.12H676.539Z" transform="translate(-122.385 -28.482)" fill="#1b1e3f"/>
      <path id="Path_28067" data-name="Path 28067" d="M945.754,675.7H844.171v-2.987H942.89V496.028H815.3V641.279H812.44V493.041H945.754Z" transform="translate(-147.594 -72.338)" fill="#1b1e3f"/>
      <path id="Path_28068" data-name="Path 28068" d="M830.979,552.552H812.27V522.889h18.709Zm-15.845-2.987h12.98v-23.69h-12.98Z" transform="translate(-147.563 -76.717)" fill="#1b1e3f"/>
      <path id="Path_28069" data-name="Path 28069" d="M881.415,552.552h-32.12V522.889h32.12Zm-29.256-2.987h26.392v-23.69H852.159Z" transform="translate(-154.29 -76.717)" fill="#1b1e3f"/>
      <path id="Path_28070" data-name="Path 28070" d="M934.83,552.552H902.71V522.889h32.12Zm-29.257-2.987h26.392v-23.69H905.573Z" transform="translate(-163.993 -76.717)" fill="#1b1e3f"/>
      <path id="Path_28071" data-name="Path 28071" d="M830.979,610.056H812.27V580.393h18.709Zm-15.845-2.986h12.98V583.38h-12.98Z" transform="translate(-147.563 -85.154)" fill="#1b1e3f"/>
      <path id="Path_28072" data-name="Path 28072" d="M881.415,610.056h-32.12V580.393h32.12Zm-29.256-2.986h26.392V583.38H852.159Z" transform="translate(-154.29 -85.154)" fill="#1b1e3f"/>
      <path id="Path_28073" data-name="Path 28073" d="M934.83,610.056H902.71V580.393h32.12Zm-29.257-2.986h26.392V583.38H905.573Z" transform="translate(-163.993 -85.154)" fill="#1b1e3f"/>
      <path id="Path_28074" data-name="Path 28074" d="M830.979,667.56H812.27V637.9h18.709Zm-15.845-2.986h12.98V640.884h-12.98Z" transform="translate(-147.563 -93.591)" fill="#1b1e3f"/>
      <path id="Path_28075" data-name="Path 28075" d="M881.415,667.56h-32.12V637.9h32.12Zm-29.256-2.986h26.392V640.884H852.159Z" transform="translate(-154.29 -93.591)" fill="#1b1e3f"/>
      <path id="Path_28076" data-name="Path 28076" d="M934.83,667.56H902.71V637.9h32.12Zm-29.257-2.986h26.392V640.884H905.573Z" transform="translate(-163.993 -93.591)" fill="#1b1e3f"/>
      <path id="Path_28077" data-name="Path 28077" d="M949.042,494.6H812.27V483.221H949.042Zm-133.908-2.987H946.178v-5.406H815.134Z" transform="translate(-147.563 -70.897)" fill="#1b1e3f"/>
      <path id="Path_28078" data-name="Path 28078" d="M946.072,703.882H814.19V700.9H943.208v-12.8H830.132v-2.987h115.94Z" transform="translate(-147.912 -100.517)" fill="#1b1e3f"/>
      <path id="Path_28079" data-name="Path 28079" d="M528.694,656.474H525.83V375.053H430.637v93.353h-2.864V372.066H528.694Z" transform="translate(-77.713 -54.589)" fill="#1b1e3f"/>
      <path id="Path_28080" data-name="Path 28080" d="M743.19,348.308H585.682V281.519l78.872-34.533,78.636,34.88Zm-154.644-2.987h151.78V283.841l-75.779-33.613-76,33.275Z" transform="translate(-106.4 -36.237)" fill="#1b1e3f"/>
      <path id="Path_28081" data-name="Path 28081" d="M570.722,354.03H487.568V292.221h68.916l14.238-6.234Zm-80.29-2.986h77.426V290.48l-10.8,4.728H490.432Z" transform="translate(-88.575 -41.959)" fill="#1b1e3f"/>
      <path id="Path_28082" data-name="Path 28082" d="M681.876,305.923c-8.967,0-16.263-7.607-16.263-16.957s7.3-16.956,16.263-16.956,16.263,7.606,16.263,16.956-7.3,16.957-16.263,16.957m0-30.927c-7.388,0-13.4,6.267-13.4,13.97s6.011,13.971,13.4,13.971,13.4-6.267,13.4-13.971S689.264,275,681.876,275" transform="translate(-120.92 -39.909)" fill="#1b1e3f"/>
      <path id="Path_28083" data-name="Path 28083" d="M767.019,475.282h-2.864V375.052H550.283v100.23h-2.864V372.066h219.6Z" transform="translate(-99.448 -54.589)" fill="#1b1e3f"/>
      <path id="Path_28084" data-name="Path 28084" d="M707.928,654.029H642.546v-83.98h65.382Zm-62.518-2.986h59.654V573.036H645.41Z" transform="translate(-116.73 -83.636)" fill="#1b1e3f"/>
      <path id="Path_28085" data-name="Path 28085" d="M696.291,656.035H642.546V583.722h53.745Zm-50.881-2.987h48.016v-66.34H645.41Z" transform="translate(-116.73 -85.642)" fill="#1b1e3f"/>
      <path id="Path_28086" data-name="Path 28086" d="M774.544,679H590.778V665.033H774.544Zm-180.9-2.987H771.679v-7.99H593.641Z" transform="translate(-107.325 -97.572)" fill="#1b1e3f"/>
      <path id="Path_28087" data-name="Path 28087" d="M795.7,691.861H618.069V677.9H795.7Zm-174.766-2.986h171.9v-7.99h-171.9Z" transform="translate(-112.283 -99.46)" fill="#1b1e3f"/>
      <path id="Path_28088" data-name="Path 28088" d="M814.4,704.725H641.436V690.762H814.4Zm-170.1-2.987H811.534v-7.99H644.3Z" transform="translate(-116.528 -101.347)" fill="#1b1e3f"/>
      <path id="Path_28089" data-name="Path 28089" d="M627.252,700.95H547.6V665.033h38.2V676.01h22.334v10.978h19.121Zm-76.79-2.987h73.926v-7.99H605.267V679H582.933V668.019H550.462Z" transform="translate(-99.481 -97.572)" fill="#1b1e3f"/>
      <path id="Path_28090" data-name="Path 28090" d="M763.1,553.838H601.5V527.252H763.1Zm-158.732-2.987H760.232V530.238H604.364Z" transform="translate(-109.273 -77.357)" fill="#1b1e3f"/>
      <path id="Path_28091" data-name="Path 28091" d="M599.98,553.838H577.367V527.252H599.98Zm-19.749-2.987h16.885V530.238H580.231Z" transform="translate(-104.889 -77.357)" fill="#1b1e3f"/>
      <path id="Path_28092" data-name="Path 28092" d="M734.339,289.076l-90.8-40.358-89.661,39.257H475.613L470.04,280.1l95.953-43.414h77.851l96.143,44.331Zm-90.792-43.6.556.248L733.37,285.4l2.208-3.149L643.24,239.675H566.588l-92.1,41.673,2.576,3.641H553.3Z" transform="translate(-85.391 -34.726)" fill="#1b1e3f"/>
      <path id="Path_28093" data-name="Path 28093" d="M751.019,438.925H566.407V408.859H751.019Zm-181.747-2.986H748.155V411.846H569.271Z" transform="translate(-102.898 -59.987)" fill="#1b1e3f"/>
      <path id="Path_28094" data-name="Path 28094" d="M751.019,498.712H566.407V468.647H751.019Zm-181.747-2.987H748.155V471.634H569.271Z" transform="translate(-102.898 -68.759)" fill="#1b1e3f"/>
      <path id="Path_28095" data-name="Path 28095" d="M760.554,651.452H750.406V554.909h10.148Zm-7.284-2.987h4.42V557.9h-4.42Z" transform="translate(-136.325 -81.415)" fill="#1b1e3f"/>
      <path id="Path_28096" data-name="Path 28096" d="M624.416,651.452H614.268V554.909h10.148Zm-7.284-2.987h4.42V557.9h-4.42Z" transform="translate(-111.593 -81.415)" fill="#1b1e3f"/>
      <path id="Path_28097" data-name="Path 28097" d="M535.428,373.609H420.565V362.231H535.428Zm-112-2.986H532.564v-5.406H423.429Z" transform="translate(-76.403 -53.146)" fill="#1b1e3f"/>
      <path id="Path_28098" data-name="Path 28098" d="M774.565,373.609H556.537V362.231H774.565ZM559.4,370.623H771.7v-5.406H559.4Z" transform="translate(-101.105 -53.146)" fill="#1b1e3f"/>
      <path id="Path_28099" data-name="Path 28099" d="M652.582,346.354H630.705V323.172h21.877Zm-19.012-2.986h16.149V326.159H633.57Z" transform="translate(-114.579 -47.415)" fill="#1b1e3f"/>
      <path id="Path_28100" data-name="Path 28100" d="M695.912,346.354H674.035V323.172h21.877ZM676.9,343.368h16.149V326.159H676.9Z" transform="translate(-122.45 -47.415)" fill="#1b1e3f"/>
      <path id="Path_28101" data-name="Path 28101" d="M739.242,346.354H717.365V323.172h21.877Zm-19.013-2.986h16.149V326.159H720.229Z" transform="translate(-130.322 -47.415)" fill="#1b1e3f"/>
      <path id="Path_28102" data-name="Path 28102" d="M452.428,675.718H284.749V493.057H452.428Zm-164.815-2.987h161.95V496.044H287.613Z" transform="translate(-51.73 -72.34)" fill="#1b1e3f"/>
      <path id="Path_28103" data-name="Path 28103" d="M263.115,675.718H149.9V493.057H263.115ZM152.76,672.732h107.49V496.044H152.76Z" transform="translate(-27.231 -72.34)" fill="#1b1e3f"/>
      <path id="Path_28104" data-name="Path 28104" d="M348,552.552H315.874V522.889H348Zm-29.257-2.987h26.393v-23.69H318.738Z" transform="translate(-57.384 -76.717)" fill="#1b1e3f"/>
      <path id="Path_28105" data-name="Path 28105" d="M256.2,650.433h-27.75V522.889H256.2Zm-24.885-2.986h22.022V525.876H231.319Z" transform="translate(-41.503 -76.717)" fill="#1b1e3f"/>
      <path id="Path_28106" data-name="Path 28106" d="M205.02,650.433H177.27V522.889h27.75Zm-24.885-2.986h22.022V525.876H180.135Z" transform="translate(-32.204 -76.717)" fill="#1b1e3f"/>
      <path id="Path_28107" data-name="Path 28107" d="M401.41,552.552H369.29V522.889h32.12Zm-29.257-2.987h26.392v-23.69H372.153Z" transform="translate(-67.088 -76.717)" fill="#1b1e3f"/>
      <path id="Path_28108" data-name="Path 28108" d="M454.824,552.552H422.7V522.889h32.12Zm-29.256-2.987H451.96v-23.69H425.568Z" transform="translate(-76.792 -76.717)" fill="#1b1e3f"/>
      <path id="Path_28109" data-name="Path 28109" d="M348,610.056H315.874V580.393H348Zm-29.257-2.986h26.393V583.38H318.738Z" transform="translate(-57.384 -85.154)" fill="#1b1e3f"/>
      <path id="Path_28110" data-name="Path 28110" d="M401.41,610.056H369.29V580.393h32.12Zm-29.257-2.986h26.392V583.38H372.153Z" transform="translate(-67.088 -85.154)" fill="#1b1e3f"/>
      <path id="Path_28111" data-name="Path 28111" d="M454.824,610.056H422.7V580.393h32.12Zm-29.256-2.986H451.96V583.38H425.568Z" transform="translate(-76.792 -85.154)" fill="#1b1e3f"/>
      <path id="Path_28112" data-name="Path 28112" d="M348,667.56H315.874V637.9H348Zm-29.257-2.986h26.393V640.884H318.738Z" transform="translate(-57.384 -93.591)" fill="#1b1e3f"/>
      <path id="Path_28113" data-name="Path 28113" d="M401.41,667.56H369.29V637.9h32.12Zm-29.257-2.986h26.392V640.884H372.153Z" transform="translate(-67.088 -93.591)" fill="#1b1e3f"/>
      <path id="Path_28114" data-name="Path 28114" d="M454.824,667.56H422.7V637.9h32.12Zm-29.256-2.986H451.96V640.884H425.568Z" transform="translate(-76.792 -93.591)" fill="#1b1e3f"/>
      <path id="Path_28115" data-name="Path 28115" d="M453.772,494.6H292.151V483.221H453.772Zm-158.757-2.987H450.908v-5.406H295.015Z" transform="translate(-53.074 -70.897)" fill="#1b1e3f"/>
      <path id="Path_28116" data-name="Path 28116" d="M267.995,494.6H143.415V483.221h124.58Zm-121.715-2.987H265.13v-5.406H146.279Z" transform="translate(-26.054 -70.897)" fill="#1b1e3f"/>
      <path id="Path_28117" data-name="Path 28117" d="M263.115,703.9H149.9V685.121H263.115ZM152.76,700.911h107.49v-12.8H152.76Z" transform="translate(-27.231 -100.519)" fill="#1b1e3f"/>
      <path id="Path_28118" data-name="Path 28118" d="M539.153,703.9h-53V685.121h53Zm-50.137-2.986h47.273v-12.8H489.016Z" transform="translate(-88.318 -100.519)" fill="#1b1e3f"/>
      <path id="Path_28119" data-name="Path 28119" d="M452.328,703.9H284.2V685.121H452.328Zm-165.264-2.986h162.4v-12.8h-162.4Z" transform="translate(-51.63 -100.519)" fill="#1b1e3f"/>
      <rect id="Rectangle_10729" data-name="Rectangle 10729" width="2.864" height="17.09" transform="translate(551.29 186.365)" fill="#1b1e3f"/>
      <rect id="Rectangle_10730" data-name="Rectangle 10730" width="2.864" height="26.599" transform="translate(557.287 350.365)" fill="#1b1e3f"/>
      <rect id="Rectangle_10731" data-name="Rectangle 10731" width="2.864" height="26.599" transform="translate(525.633 349.898)" fill="#1b1e3f"/>
      <rect id="Rectangle_10732" data-name="Rectangle 10732" width="2.864" height="26.599" transform="translate(494.257 349.898)" fill="#1b1e3f"/>
      <rect id="Rectangle_10733" data-name="Rectangle 10733" width="2.864" height="26.599" transform="translate(618.699 349.898)" fill="#1b1e3f"/>
      <rect id="Rectangle_10734" data-name="Rectangle 10734" width="2.864" height="26.599" transform="translate(587.962 349.898)" fill="#1b1e3f"/>
      <rect id="Rectangle_10735" data-name="Rectangle 10735" width="2.864" height="26.599" transform="translate(557.287 400.752)" fill="#1b1e3f"/>
      <rect id="Rectangle_10736" data-name="Rectangle 10736" width="2.864" height="26.599" transform="translate(525.633 400.284)" fill="#1b1e3f"/>
      <rect id="Rectangle_10737" data-name="Rectangle 10737" width="2.864" height="26.599" transform="translate(494.257 400.284)" fill="#1b1e3f"/>
      <rect id="Rectangle_10738" data-name="Rectangle 10738" width="2.864" height="26.599" transform="translate(618.699 400.284)" fill="#1b1e3f"/>
      <rect id="Rectangle_10739" data-name="Rectangle 10739" width="2.864" height="26.599" transform="translate(587.962 400.284)" fill="#1b1e3f"/>
      <rect id="Rectangle_10740" data-name="Rectangle 10740" width="2.864" height="28.229" transform="translate(273.118 446.758)" fill="#1b1e3f"/>
      <rect id="Rectangle_10741" data-name="Rectangle 10741" width="2.864" height="28.229" transform="translate(316.83 446.758)" fill="#1b1e3f"/>
      <rect id="Rectangle_10742" data-name="Rectangle 10742" width="2.864" height="28.229" transform="translate(360.54 446.758)" fill="#1b1e3f"/>
      <rect id="Rectangle_10743" data-name="Rectangle 10743" width="2.864" height="28.229" transform="translate(273.118 496.152)" fill="#1b1e3f"/>
      <rect id="Rectangle_10744" data-name="Rectangle 10744" width="2.864" height="28.229" transform="translate(316.83 496.152)" fill="#1b1e3f"/>
      <rect id="Rectangle_10745" data-name="Rectangle 10745" width="2.864" height="28.229" transform="translate(360.54 496.152)" fill="#1b1e3f"/>
      <rect id="Rectangle_10746" data-name="Rectangle 10746" width="2.864" height="28.228" transform="translate(273.118 545.548)" fill="#1b1e3f"/>
      <rect id="Rectangle_10747" data-name="Rectangle 10747" width="2.864" height="28.228" transform="translate(316.83 545.548)" fill="#1b1e3f"/>
      <rect id="Rectangle_10748" data-name="Rectangle 10748" width="2.864" height="28.228" transform="translate(360.54 545.548)" fill="#1b1e3f"/>
      <rect id="Rectangle_10749" data-name="Rectangle 10749" width="2.864" height="28.228" transform="translate(709.634 545.548)" fill="#1b1e3f"/>
      <rect id="Rectangle_10750" data-name="Rectangle 10750" width="2.864" height="28.228" transform="translate(753.344 545.548)" fill="#1b1e3f"/>
      <rect id="Rectangle_10751" data-name="Rectangle 10751" width="2.864" height="28.229" transform="translate(709.634 495.956)" fill="#1b1e3f"/>
      <rect id="Rectangle_10752" data-name="Rectangle 10752" width="2.864" height="28.229" transform="translate(753.344 495.956)" fill="#1b1e3f"/>
      <rect id="Rectangle_10753" data-name="Rectangle 10753" width="2.864" height="28.229" transform="translate(709.634 446.365)" fill="#1b1e3f"/>
      <rect id="Rectangle_10754" data-name="Rectangle 10754" width="2.864" height="28.229" transform="translate(753.344 446.365)" fill="#1b1e3f"/>
      <path id="Path_28120" data-name="Path 28120" d="M691.165,296.862l-7.429-5.94v-10.6H686.6v9.122l6.308,5.044Z" transform="translate(-124.213 -41.129)" fill="#1b1e3f"/>
    </g>
  </g>
</svg>
