<svg xmlns="http://www.w3.org/2000/svg" width="31" height="23.603" viewBox="0 0 31 23.603">
  <path id="people" d="M24.25,82.779H6.75a1,1,0,0,1-1-1V78.818A3.583,3.583,0,0,1,7.87,75.55c3.746-1.673,3.54-1.616,3.832-1.616h1.189a1,1,0,0,1,.971.761,1.689,1.689,0,0,0,3.276,0,1,1,0,0,1,.971-.761c1.279,0,1.345-.025,1.6.087L23.13,75.55a3.583,3.583,0,0,1,2.12,3.268v2.961A1,1,0,0,1,24.25,82.779Zm-8.726-23.6a6.108,6.108,0,1,0,6.108,6.108,6.115,6.115,0,0,0-6.108-6.108ZM5.889,65.71a3.846,3.846,0,1,0,3.846,3.846A3.85,3.85,0,0,0,5.889,65.71Zm19.223,0a3.846,3.846,0,1,0,3.846,3.846A3.85,3.85,0,0,0,25.111,65.71Zm4.445,9.161c-2.081-.929-2.031-.939-2.316-.939-1.49,0-2.464-.01-3.123-.014a.625.625,0,0,0-.292,1.179,3.592,3.592,0,0,1,1.107.835,4.325,4.325,0,0,1,1.093,3.189.624.624,0,0,0,.625.625H30a1,1,0,0,0,1-1V77.1a2.441,2.441,0,0,0-1.444-2.226Zm-25.8-.939c-.283,0-.228.006-2.316.939A2.441,2.441,0,0,0,0,77.1v1.649a1,1,0,0,0,1,1H4.349a.624.624,0,0,0,.625-.625,4.305,4.305,0,0,1,1.093-3.189,3.6,3.6,0,0,1,1.1-.83.625.625,0,0,0-.289-1.179c-.663,0-1.637.01-3.116.01Z" transform="translate(0 -59.176)" fill="#86888b"/>
</svg>
