<svg xmlns="http://www.w3.org/2000/svg" xmlns:xlink="http://www.w3.org/1999/xlink" width="703.263" height="542.589" viewBox="0 0 703.263 542.589">
  <defs>
    <clipPath id="clip-path">
      <rect id="Rectangle_81" data-name="Rectangle 81" width="33.879" height="24.561" fill="#ccccf2"/>
    </clipPath>
    <clipPath id="clip-path-2">
      <rect id="Rectangle_85" data-name="Rectangle 85" width="163.603" height="116.979" rx="4.72" transform="translate(0)" fill="#3d2558"/>
    </clipPath>
    <clipPath id="clip-path-3">
      <rect id="Rectangle_104" data-name="Rectangle 104" width="135.284" height="74.501" fill="#ffc65b"/>
    </clipPath>
    <clipPath id="clip-path-4">
      <path id="Path_7942" data-name="Path 7942" d="M54.058,357.731c.829-4.233,2.542-8.5,1.658-12.723-1.282-6.157-7.826-10.788-7.384-17.067.365-5.328,5.715-9.2,6.411-14.48.663-5.085-3.139-9.7-3.6-14.812a11.927,11.927,0,0,1,7.373-11.86,5.393,5.393,0,0,1,4.631,0,6.3,6.3,0,0,1,2,2.266A28.032,28.032,0,0,1,68.328,309.5c-1.039,4.488-3.073,9.65-.276,13.264,1.183,1.559,3.029,2.443,4.554,3.681a12.336,12.336,0,0,1,3.88,12.844c-1.36,4.421-5.228,8.058-5.14,12.667s3.957,7.947,6.632,11.628c4.665,6.488,8.356,22.759-1.216,27.07-9.274,4.156-17.885-8.246-20.781-15.32a31.083,31.083,0,0,1-1.923-17.608Z" transform="translate(-48.311 -286.267)" fill="#9fcd4d"/>
    </clipPath>
    <clipPath id="clip-path-5">
      <path id="Path_7945" data-name="Path 7945" d="M67.315,406.36A45.486,45.486,0,0,1,63,385.016c.508-7.306,3.471-14.591,8.843-19.509,4.565-4.134,10.987-6.92,13.021-12.734,2.542-7.262-3.183-14.546-5.228-21.974A23.721,23.721,0,0,1,82.9,311.377c2.288-3.371,5.593-6.455,5.914-10.523.287-3.559-1.824-6.8-3.062-10.147a21.842,21.842,0,0,1,2.509-19.664c3.482-5.018,10.5-8.456,15.773-5.361,2.874,1.691,4.521,4.9,5.527,8.1a29.5,29.5,0,0,1-.365,17.6c-2.686,7.925-8.843,15.066-8.235,23.411.707,10.269,11.584,18.924,9.031,28.9-1.105,4.289-4.565,7.627-5.969,11.838-1.813,5.405,0,11.352-.752,17-.851,6.466-4.963,12.015-9.318,16.868-4.023,4.488-8.622,8.843-14.37,10.5a9.948,9.948,0,0,1-6.124.066,5.239,5.239,0,0,1-3.548-4.642" transform="translate(-62.963 -264.506)" fill="#9fcd4d"/>
    </clipPath>
    <clipPath id="clip-path-6">
      <path id="Path_7947" data-name="Path 7947" d="M48.03,367.7l10.755,55.478H96.61l10.247-54.748Z" transform="translate(-48.03 -367.7)" fill="#4c2357"/>
    </clipPath>
  </defs>
  <g id="Que_3_graphics" data-name="Que 3 graphics" transform="translate(-1114 -243)">
    <g id="Que_3_graphics-2" data-name="Que 3 graphics" transform="translate(1197.666 218.043)">
      <path id="BG" d="M1011.524,456.323c-12.168-33.925-31.329-44.248-49.555-66.009-22.258-26.576-37.272-45.9-31.493-80.077,9.444-55.857,13.487-195.166-134.389-176.956-53,6.528-94.886,47.143-125.357,87.687-25.926,34.5-72.564,37.543-110.105,45.586-46.124,9.883-93.109,24.811-135.783,46.682-87.888,45.046-114.138,109.8-110.553,192.66,1.082,25.033,4.626,64.462,46.91,110.6,57.074,62.272,140.01,70.613,239.83,42.013,22.849-6.547,44.447-16.814,66.925-24.542a315.776,315.776,0,0,1,72.226-15.683c57.331-5.543,116.761,4.482,171.758-12.635A181.209,181.209,0,0,0,988.754,558C1015.025,530.49,1024.367,492.13,1011.524,456.323Z" transform="translate(-397.637 -106.695)" fill="rgba(45,114,241,0.28)"/>
      <g id="OBJECTS" transform="translate(38.151 55.957)">
        <rect id="Rectangle_72" data-name="Rectangle 72" width="23.853" height="23.853" transform="translate(421.382 279.304)" fill="#b7ddff"/>
        <rect id="Rectangle_73" data-name="Rectangle 73" width="19.222" height="19.178" transform="translate(423.693 282.252)" fill="#fff"/>
        <path id="Path_7929" data-name="Path 7929" d="M447.073,290.406a5.626,5.626,0,1,1-5.626-5.626A5.626,5.626,0,0,1,447.073,290.406Z" transform="translate(-7.938 0.498)" fill="#4c2357"/>
        <path id="Path_7930" data-name="Path 7930" d="M409.277,312.478a39.121,39.121,0,0,1-11.451-1.536,24,24,0,0,1-14.038-10.434c-2.973-5.107-3.769-11.529-2.509-20.206.486-3.316,1.172-6.632,1.835-9.849,1.7-8.246,3.316-16.039,1.89-23.842-1.481-8.135-6.035-15.066-10.844-22.405-1.979-3-4.012-6.113-5.8-9.285a79.178,79.178,0,0,1-9.517-28.85l3.316-.42a76.1,76.1,0,0,0,9.13,27.634c1.724,3.073,3.736,6.135,5.681,9.1,4.786,7.284,9.727,14.823,11.33,23.621,1.547,8.445-.21,16.923-1.9,25.114-.652,3.172-1.337,6.455-1.8,9.65-1.105,7.9-.486,13.64,2.089,18.061a21,21,0,0,0,12.159,8.931c4.421,1.326,9.451,1.691,15.895,1.105a85.113,85.113,0,0,0,32.928-9.849l1.581,2.918a88.506,88.506,0,0,1-34.266,10.224A49.984,49.984,0,0,1,409.277,312.478Z" transform="translate(-16.048 -9.537)" fill="#4c2357"/>
        <rect id="Rectangle_79" data-name="Rectangle 79" width="33.879" height="24.561" transform="translate(316.461 209.626)" fill="#ccccf2"/>
        <g id="Group_61" data-name="Group 61" transform="translate(316.461 191.991)" clip-path="url(#clip-path)">
          <rect id="Rectangle_80" data-name="Rectangle 80" width="63.834" height="31.491" transform="translate(-12.269 -20.869)" fill="#3d3d91" opacity="0.2"/>
        </g>
        <rect id="Rectangle_82" data-name="Rectangle 82" width="163.603" height="116.979" rx="4.72" transform="translate(247.975 98.188)" fill="#3d2558"/>
        <g id="Group_62" data-name="Group 62" transform="translate(247.975 98.188)" clip-path="url(#clip-path-2)">
          <rect id="Rectangle_83" data-name="Rectangle 83" width="177.84" height="32.232" transform="translate(-8.025 100.863)" fill="#ccccf2"/>
          <rect id="Rectangle_84" data-name="Rectangle 84" width="149.576" height="86.538" transform="translate(6.964 5.892)" fill="#fff"/>
        </g>
        <path id="Path_7931" data-name="Path 7931" d="M381.069,237.87H319.943a2.564,2.564,0,0,0-2.553,2.564h0c0,1.4,1.105,3.659,2.553,3.659h61.126c1.415,0,2.553-2.211,2.553-3.659h0a2.553,2.553,0,0,0-2.553-2.564Z" transform="translate(-17.033 -4.041)" fill="#d6d6f5"/>
        <rect id="Rectangle_86" data-name="Rectangle 86" width="143.375" height="9.163" transform="translate(257.746 106.519)" fill="#b7ddff"/>
        <rect id="Rectangle_87" data-name="Rectangle 87" width="17.21" height="67.327" transform="translate(384.409 120.134)" fill="#b7ddff"/>
        <rect id="Rectangle_88" data-name="Rectangle 88" width="3.04" height="41.185" transform="translate(263.552 118.416)" fill="#b7ddff"/>
        <rect id="Rectangle_89" data-name="Rectangle 89" width="15.188" height="15.188" transform="translate(368.701 120.075)" fill="#b7ddff"/>
        <rect id="Rectangle_90" data-name="Rectangle 90" width="94.176" height="2.697" transform="translate(269.965 121.416)" fill="#b7ddff"/>
        <rect id="Rectangle_91" data-name="Rectangle 91" width="94.176" height="63.281" transform="translate(269.965 121.484)" fill="#b7ddff" opacity="0.3"/>
        <circle id="Ellipse_270" data-name="Ellipse 270" cx="9.583" cy="9.583" r="9.583" transform="translate(277.213 150.808) rotate(-76.72)" fill="#fff"/>
        <rect id="Rectangle_92" data-name="Rectangle 92" width="16.58" height="16.58" transform="translate(283.827 205.699) rotate(6.67)" fill="#ffde5b"/>
        <rect id="Rectangle_93" data-name="Rectangle 93" width="16.58" height="16.58" transform="translate(374.079 206.246) rotate(6.67)" fill="#ffde5b"/>
        <rect id="Rectangle_94" data-name="Rectangle 94" width="16.58" height="16.58" transform="matrix(0.994, -0.11, 0.11, 0.994, 307.006, 206.872)" fill="#ffde5b"/>
        <rect id="Rectangle_100" data-name="Rectangle 100" width="146.238" height="5.438" transform="translate(21.86 117.946)" fill="#3d3d91" opacity="0.1"/>
        <circle id="Ellipse_272" data-name="Ellipse 272" cx="34.498" cy="34.498" r="34.498" transform="translate(193.657)" fill="#4c2357"/>
        <circle id="Ellipse_273" data-name="Ellipse 273" cx="29.225" cy="29.225" r="29.225" transform="translate(198.928 5.273)" fill="#2d72f1"/>
        <circle id="Ellipse_274" data-name="Ellipse 274" cx="25.677" cy="25.677" r="25.677" transform="translate(202.476 8.821)" fill="#fff"/>
        <circle id="Ellipse_275" data-name="Ellipse 275" cx="3.018" cy="3.018" r="3.018" transform="translate(225.133 31.48)" fill="#4c2357"/>
        <path id="Path_7934" data-name="Path 7934" d="M249.358,78.1l-7.881-21.842a1.105,1.105,0,1,1,2.078-.752L250.6,75.034,259.9,70.5a1.107,1.107,0,0,1,.973,1.99Z" transform="translate(-21.706 -41.807)" fill="#4c2357"/>
        <rect id="Rectangle_101" data-name="Rectangle 101" width="151.289" height="87.787" transform="translate(19.726 32.011)" fill="#2c75ff"/>
        <rect id="Rectangle_102" data-name="Rectangle 102" width="135.284" height="74.501" transform="translate(27.729 38.654)" fill="#78a8ff"/>
        <g id="Group_64" data-name="Group 64" transform="translate(27.729 38.654)" clip-path="url(#clip-path-3)">
          <rect id="Rectangle_103" data-name="Rectangle 103" width="177.409" height="35.371" transform="translate(-15.884 -32.066)" fill="#cc3d91" opacity="0.2"/>
        </g>
        <rect id="Rectangle_105" data-name="Rectangle 105" width="23.489" height="31.226" transform="translate(30.587 44.581) rotate(6.63)" fill="#fff"/>
        <rect id="Rectangle_106" data-name="Rectangle 106" width="31.414" height="22.306" transform="translate(45.017 65.956)" fill="#ffd"/>
        <rect id="Rectangle_107" data-name="Rectangle 107" width="13.01" height="16.658" transform="translate(79.389 93.886)" fill="#ffd"/>
        <rect id="Rectangle_108" data-name="Rectangle 108" width="13.01" height="16.658" transform="translate(96.37 93.886)" fill="#ffd"/>
        <rect id="Rectangle_109" data-name="Rectangle 109" width="31.414" height="38.698" transform="translate(122.043 44.557)" fill="#ffd"/>
        <circle id="Ellipse_276" data-name="Ellipse 276" cx="5.914" cy="5.914" r="5.914" transform="translate(116.906 63.679)" fill="#698edd"/>
        <circle id="Ellipse_277" data-name="Ellipse 277" cx="3.957" cy="3.957" r="3.957" transform="translate(104.454 80.503)" fill="#985cd2"/>
        <path id="Path_7935" data-name="Path 7935" d="M142.53,102.05a5.98,5.98,0,1,1-5.958-5.98,5.98,5.98,0,0,1,5.958,5.98Z" transform="translate(-29.884 -37.453)" fill="#e272c0"/>
        <path id="Path_7936" data-name="Path 7936" d="M393,216.75h22.582v20.173a9.8,9.8,0,0,1-9.8,9.8h-2.962a9.8,9.8,0,0,1-9.816-9.8Z" transform="translate(-12.449 -3.062)" fill="#985cd2"/>
        <path id="Path_7937" data-name="Path 7937" d="M414.529,218.75a10.158,10.158,0,1,0,7.194,2.975,10.169,10.169,0,0,0-7.194-2.975Zm0,16.381a6.212,6.212,0,1,1,6.212-6.212A6.212,6.212,0,0,1,414.529,235.131Z" transform="translate(-11.252 -2.861)" fill="#985cd2"/>
        <rect id="Rectangle_110" data-name="Rectangle 110" width="387.298" height="16.879" transform="translate(35.566 239.409)" fill="#2c75ff"/>
        <rect id="Rectangle_111" data-name="Rectangle 111" width="12.656" height="166.632" transform="translate(47.692 250.875)" fill="#2c75ff"/>
        <rect id="Rectangle_112" data-name="Rectangle 112" width="12.656" height="166.632" transform="translate(398.082 250.875)" fill="#2c75ff"/>
        <path id="Path_7938" data-name="Path 7938" d="M403.607,237.824s-9.484-5.858-7.583-10.678,7.185-.873,7.185-.873,3.548-3.836,6.323-.94C413.566,229.5,403.607,237.824,403.607,237.824Z" transform="translate(-12.157 -2.269)" fill="#fff"/>
        <path id="Path_7939" data-name="Path 7939" d="M69.523,399.626c-6.433-4.8-12.944-9.727-17.686-16.182s-7.638-14.756-5.858-22.582c1.017-4.477,3.515-8.843,2.631-13.386-1.105-5.582-6.853-8.843-9.7-13.795-2.962-5.118-2.575-11.551-1.2-17.277S41.282,305,41.6,299.072c.332-6.1-1.382-12.159-2.9-18.039s-2.852-12.159-1.769-18.161,5.14-11.9,11.053-13.33c5.173-1.238,10.722,1.161,14.37,5.018s5.67,8.986,7.03,14.115c1.017,3.825,1.713,7.738,3.206,11.407s3.924,7.118,7.472,8.843c7.262,3.6,16.149-1.006,24.03.94s12.944,10.368,13.4,18.526-2.719,16.05-6.245,23.411-7.505,14.69-8.986,22.726c-1.393,7.837-.265,15.95-1.559,23.8a31.193,31.193,0,0,1-8.334,17.067,22.173,22.173,0,0,1-17.453,6.632" transform="translate(-36.544 19.856)" fill="#b5e84f"/>
        <path id="Path_7940" data-name="Path 7940" d="M54.058,357.731c.829-4.233,2.542-8.5,1.658-12.723-1.282-6.157-7.826-10.788-7.384-17.067.365-5.328,5.715-9.2,6.411-14.48.663-5.085-3.139-9.7-3.6-14.812a11.927,11.927,0,0,1,7.373-11.86,5.393,5.393,0,0,1,4.631,0,6.3,6.3,0,0,1,2,2.266A28.032,28.032,0,0,1,68.328,309.5c-1.039,4.488-3.073,9.65-.276,13.264,1.183,1.559,3.029,2.443,4.554,3.681a12.336,12.336,0,0,1,3.88,12.844c-1.36,4.421-5.228,8.058-5.14,12.667s3.957,7.947,6.632,11.628c4.665,6.488,8.356,22.759-1.216,27.07-9.274,4.156-17.885-8.246-20.781-15.32a31.083,31.083,0,0,1-1.923-17.608Z" transform="translate(-35.304 23.759)" fill="#9fcd4d"/>
        <g id="Group_65" data-name="Group 65" transform="translate(13.006 310.027)" clip-path="url(#clip-path-4)">
          <path id="Path_7941" data-name="Path 7941" d="M60.846,360.7c.542-2.907,1.7-5.681,2.211-8.611a19.145,19.145,0,0,0-1.105-10.379c-1.9-4.642-5.682-8.71-5.88-13.739-.133-3.183,1.238-6.223,1.968-9.329a23.964,23.964,0,0,0,0-10.81c-.741-3.217-2.133-6.632-.73-9.661a1.536,1.536,0,0,1,.52-.685c.917-.619,1.934.652,2.288,1.691a37.239,37.239,0,0,1,.663,21.289,31.991,31.991,0,0,0-1.559,7c-.155,4.554,2.421,8.688,3.99,12.966A30.076,30.076,0,0,1,65,352.455c-.177,3.194-.862,6.356-.984,9.561a26.827,26.827,0,0,0,1.326,9.208c.575,1.724,3.316,4.963.542,5.029C60.47,376.408,60.26,363.9,60.846,360.7Z" transform="translate(-47.494 -285.103)" fill="#766e61" opacity="0.2"/>
        </g>
        <path id="Path_7943" data-name="Path 7943" d="M67.315,406.36A45.486,45.486,0,0,1,63,385.016c.508-7.306,3.471-14.591,8.843-19.509,4.565-4.134,10.987-6.92,13.021-12.734,2.542-7.262-3.183-14.546-5.228-21.974A23.721,23.721,0,0,1,82.9,311.377c2.288-3.371,5.593-6.455,5.914-10.523.287-3.559-1.824-6.8-3.062-10.147a21.842,21.842,0,0,1,2.509-19.664c3.482-5.018,10.5-8.456,15.773-5.361,2.874,1.691,4.521,4.9,5.527,8.1a29.5,29.5,0,0,1-.365,17.6c-2.686,7.925-8.843,15.066-8.235,23.411.707,10.269,11.584,18.924,9.031,28.9-1.105,4.289-4.565,7.627-5.969,11.838-1.813,5.405,0,11.352-.752,17-.851,6.466-4.963,12.015-9.318,16.868-4.023,4.488-8.622,8.843-14.37,10.5a9.948,9.948,0,0,1-6.124.066,5.239,5.239,0,0,1-3.548-4.642" transform="translate(-33.761 21.467)" fill="#9fcd4d"/>
        <g id="Group_66" data-name="Group 66" transform="translate(29.202 285.973)" clip-path="url(#clip-path-5)">
          <path id="Path_7944" data-name="Path 7944" d="M72.32,385.392c.851-11.993,17.177-18.128,18.515-30.077.453-4.09-.995-8.29-.122-12.325.564-2.6,2.067-4.974,2.211-7.638.221-4.09-2.808-7.638-3.57-11.661s.884-8.279,1.415-12.446c.608-4.665-.166-9.617,1.713-13.927a27.069,27.069,0,0,0,2.211-4.852c.652-2.918-.752-5.847-1.636-8.7s-1.028-6.488,1.349-8.3a3,3,0,0,1,2.034-.674c2.1.155,2.918,2.785,3.007,4.886.276,7.384-2.122,14.58-3.913,21.753s-2.907,14.944-.2,21.831c1.293,3.316,3.427,6.267,3.913,9.749.984,7.041-4.941,13.264-5.471,20.372-.221,2.951.508,5.869.785,8.843a28.562,28.562,0,0,1-21.565,30.364" transform="translate(-61.977 -263.423)" fill="#766e61" opacity="0.2"/>
        </g>
        <path id="Path_7946" data-name="Path 7946" d="M48.03,367.7l10.755,55.478H96.61l10.247-54.748Z" transform="translate(-35.334 32.338)" fill="#342e37"/>
        <path id="Path_7948" data-name="Path 7948" d="M106.418,374.388H49.028a4.908,4.908,0,0,1-4.908-4.919h0a4.908,4.908,0,0,1,4.908-4.919h57.39a4.908,4.908,0,0,1,4.908,4.919h0a4.908,4.908,0,0,1-4.908,4.919Z" transform="translate(-35.746 32.007)" fill="#342e37"/>
        <path id="Path_7959" data-name="Path 7959" d="M202.775,171.25s.608,15.928,4.421,21.72a60.584,60.584,0,0,0,10.335,11.053s-41.185,3.858-41.826-9.009,4.51-26.385,4.51-26.385Z" transform="translate(-26.814 -29.231)" fill="#ffd0c4"/>
        <path id="Path_7960" data-name="Path 7960" d="M294.837,241.182l-2.907-28.087,1.945-2.255,1.934,1.934,2.255,29.06Z" transform="translate(-17.718 -24.598)" fill="#3d2558"/>
        <path id="Path_7967" data-name="Path 7967" d="M162.054,411.4a6.212,6.212,0,1,0-6.212,6.2,6.212,6.212,0,0,0,6.212-6.2Z" transform="translate(-27.587 23.749)" fill="#fff"/>
        <path id="Path_7968" data-name="Path 7968" d="M248.574,411.4a6.212,6.212,0,1,0-6.212,6.2,6.212,6.212,0,0,0,6.212-6.2Z" transform="translate(-17.406 23.749)" fill="#fff"/>
        <g id="Group_4857" data-name="Group 4857" transform="translate(111.498 94.124)">
          <path id="Path_10475" data-name="Path 10475" d="M267.847,225.842l5.548,12.02L254.9,235.088l-2.311-9.246Z" transform="translate(-201.625 -139.978)" fill="#ff1a79"/>
          <path id="Path_7949" data-name="Path 7949" d="M216.717,366.4,209,385.336l50.61,16.125s.415-6.68-7.659-12.025c-6.911-4.607-20.732-11.242-20.732-11.242l1.06-4.745" transform="translate(-132.075 -67.674)" fill="#f9fbff"/>
          <path id="Path_7950" data-name="Path 7950" d="M238.5,304.5,213.89,375.421s3.7,11.84,18.982,8.42c7.36-12.67,41.914-73.576,41.914-73.576S245.99,303.929,238.5,304.5Z" transform="translate(-131.647 -77.074)" fill="#7c2aff"/>
          <path id="Path_7951" data-name="Path 7951" d="M192.621,344.654l-.541,61.01h15.273l-.587-61.575" transform="translate(-133.656 -71.06)" fill="#2c75ff"/>
          <path id="Path_7952" data-name="Path 7952" d="M175.3,334.111c1.555,6.911,7.118,12.532,13.672,15.261a39.034,39.034,0,0,0,21.308,2.569c6.45-1.152,11.518-3.19,16.344-7.567s9.042-12.2,8.235-18.694" transform="translate(-136.132 -73.855)" fill="#2c75ff"/>
          <path id="Path_7953" data-name="Path 7953" d="M182.912,303.851s-35.072,1.693-38.458,19.223,41.28,21.492,67.3,22.068,65.145-5.114,62.2-24.326C270.011,294.8,182.912,303.851,182.912,303.851Z" transform="translate(-140.511 -77.399)" fill="#03399f"/>
          <path id="Path_7954" data-name="Path 7954" d="M279.89,381.946l2.718,20.283,51.9-11.288s-2.972-5.989-12.67-6.6c-8.247-.53-23.543.576-23.543.576l-1.463-4.607" transform="translate(-123.831 -65.562)" fill="#f9fbff"/>
          <path id="Path_7955" data-name="Path 7955" d="M285.934,306.769S299.18,365.51,302.635,392c-8.638,8.063-21.308,1.152-21.308,1.152L254.26,314.831S276.72,299.282,285.934,306.769Z" transform="translate(-125.726 -78.035)" fill="#7c2aff"/>
          <path id="Path_7956" data-name="Path 7956" d="M158.194,284.425S150.788,320.937,169.216,329s102.552.75,130.2-20.558c-5.183-18.429-10.766-19.824-10.766-19.824S211.729,282.122,158.194,284.425Z" transform="translate(-139.343 -80.192)" fill="#7c2aff"/>
          <path id="Path_7957" data-name="Path 7957" d="M167.364,190c-1.152,1.728-30.522,44.344-27.067,55.862s31.1,9.79,31.1,9.79Z" transform="translate(-140.015 -94.45)" fill="#ff1a79"/>
          <path id="Path_7958" data-name="Path 7958" d="M211.248,113.33a34.554,34.554,0,0,1,13.073,16.6c2.016,5.436,2.672,11.449,5.759,16.378,2.661,4.285,6.911,7.325,10.573,10.769s7.1,7.809,7.222,12.866c.1,3.893-1.785,7.694-1.417,11.576.345,3.663,11.783,12.727,6.692,21.32-5.6,9.445-33.068,9.214-39.7,5.759-3.363-1.751-5.759-4.9-7.775-8.12a63.278,63.278,0,0,1-4.918-9.64,32.088,32.088,0,0,0-3.455-7.141c-2.764-3.8-7.3-5.759-11.08-8.592a29.336,29.336,0,0,1-.9-46.394" transform="translate(-136.484 -106.088)"/>
          <path id="Path_7961" data-name="Path 7961" d="M276.74,235.726s11.783-7.74,15.48-7.06,17.7,11.311,17.023,16.355l-27.459.461Z" transform="translate(-123.802 -88.587)" fill="#ffd0c4"/>
          <path id="Path_7962" data-name="Path 7962" d="M188.3,189.888s39.412,3.566,50.17,10.949,30.281,47.431,30.281,47.431L296.39,237.9s9.79,5.759,11.518,12.67c.979,3.9-36.857,32.826-47.223,32.25-3.605-.2-16.724-20.64-16.724-20.64s8.454,41.361,5.759,44.045-38.8,31.467-95.967,10.493c-7.429-41.58,5.552-118.554,5.552-118.554Z" transform="translate(-140.104 -95.703)" fill="#ff1a79"/>
          <path id="Path_7963" data-name="Path 7963" d="M166.052,132.2s-7.613,39.645,16.252,47.223,44.033,1.877,47.419-2.073-5.552-46.44-13.729-56.9S184.216,106.1,166.052,132.2Z" transform="translate(-137.411 -106.22)" fill="#ffd0c4"/>
          <path id="Path_7964" data-name="Path 7964" d="M185.55,109.816c-8.65,2.569-18.532,7.383-23.036,15.238-3.605,6.346-3.928,14.029-3.386,21.32.207,2.718.518,5.425.783,8.143a23.934,23.934,0,0,1-5.137,10.366c-2.039,2.373-4.538,4.331-6.462,6.8a19.488,19.488,0,0,0-2.3,19.661,23.462,23.462,0,0,1,1.854,4.331c1.06,4.446-2.1,8.7-3.11,13.153a12.67,12.67,0,0,0,4.607,12.935c3.985,2.776,10.113,2.3,13.153-1.532a39.785,39.785,0,0,0,2.995-5.471c1.025-1.82,2.6-3.548,4.676-3.789,1.739-.207,3.386.68,5.079,1.152,5.079,1.44,12.359,1.566,16.125-2.154,7.3-7.268-.23-12.566,5.678-18.889,8.684-9.295-10.55-20.928-6.646-23.669s7.406-9.767-2.211-16.678c33.01-2.684,34-37.283,34-37.283C215.958,107.593,203.841,104.414,185.55,109.816Z" transform="translate(-139.918 -107.042)"/>
          <path id="Path_7965" data-name="Path 7965" d="M191.571,143.969a16.8,16.8,0,0,0-5.759-4.158c-2.3-.795-5.114-.415-6.519,1.52a7.107,7.107,0,0,0-.864,5.079c.553,4.377,2.764,8.765,6.634,10.884s9.445,1.152,11.645-2.626l.058-.852" transform="translate(-135.341 -102.127)" fill="#ffd0c4"/>
          <path id="Path_7966" data-name="Path 7966" d="M206.138,391.67,147.88,410.882l11.311,2.269,48.076-11.322,45.288,12.451,8.489-3.962Z" transform="translate(-139.903 -63.838)" fill="#2c75ff"/>
          <circle id="Ellipse_278" data-name="Ellipse 278" cx="11.311" cy="11.311" r="11.311" transform="translate(1.51 349.876) rotate(-45)" fill="#3d2558"/>
          <circle id="Ellipse_279" data-name="Ellipse 279" cx="11.311" cy="11.311" r="11.311" transform="translate(98.228 349.88) rotate(-45)" fill="#3d2558"/>
          <path id="Path_7969" data-name="Path 7969" d="M154.165,225.592c-6.911,3.455-23.036,53.6-3.329,72.932,13.683,13.384,64.316,14.132,82.422,2.062,8.546-5.7,10.608-68.232,2.845-76.94S177.2,213.994,154.165,225.592Z" transform="translate(-140.481 -90.351)" fill="#03399f"/>
          <path id="Path_7970" data-name="Path 7970" d="M169.983,279.154s-21.769,65.537,18.037,76.018c9.5,0,18.049-.956,18.049-.956s-38.942-15.192-20.893-74.083C176.894,273.361,169.983,279.154,169.983,279.154Z" transform="translate(-137.265 -81.267)" fill="#2c75ff"/>
        </g>
      </g>
    </g>
    <path id="Path_11056" data-name="Path 11056" d="M0,0H626V.95H0Z" transform="translate(1147 729.85)" fill="none" stroke="#000" stroke-linecap="round" stroke-width="2" opacity="0.18"/>
  </g>
</svg>
