<svg xmlns="http://www.w3.org/2000/svg" width="31" height="31.165" viewBox="0 0 31 31.165">
  <g id="services" transform="translate(-48 -466.943)">
    <path id="Path_531" data-name="Path 531" d="M-683.613,415.677l-.165-3.992,4.4-1.872,2.615,3.028a9.07,9.07,0,0,1,2.4,0c.5-.578,2.7-3.028,2.7-3.028l4.322,1.872-.275,3.992a10.8,10.8,0,0,1,1.762,1.762c.964-.165,3.964-.275,3.964-.275s1.762,3.524,1.735,4.4c-.468.468-2.836,2.67-2.836,2.67a22.487,22.487,0,0,1,0,2.4c.633.44,2.836,2.56,2.836,2.56a12.068,12.068,0,0,1-1.955,4.46c-.881-.055-3.744-.3-3.744-.3s-1.239,1.322-1.734,1.79a39.007,39.007,0,0,1,.275,3.964,27.5,27.5,0,0,1-4.57,1.734c-.385-.523-2.368-3-2.368-3s-1.845.055-3.028.11c-.523.716-2.257,3.028-2.257,3.028a33.243,33.243,0,0,1-4.185-1.927c-.028-.826.145-3.056.193-4.075a8.759,8.759,0,0,1-1.734-1.624c-.743.11-4.074.248-4.074.248s-1.679-3.689-1.652-4.46c.413-.33,2.836-2.56,2.836-2.56s-.055-2.2,0-2.45c-.936-.716-3-2.643-3-2.643s1.019-3.3,2.093-4.377c1.046.138,3.8.3,3.8.3A5.6,5.6,0,0,1-683.613,415.677Z" transform="translate(739.156 57.13)" fill="#86888b"/>
    <g id="Ellipse_13" data-name="Ellipse 13" transform="translate(56.476 475.368)" fill="#86888b" stroke="#fff" stroke-width="1.5">
      <circle cx="7.157" cy="7.157" r="7.157" stroke="none"/>
      <circle cx="7.157" cy="7.157" r="7.907" fill="none"/>
    </g>
  </g>
</svg>
