<svg id="Group_17" data-name="Group 17" xmlns="http://www.w3.org/2000/svg" width="32.403" height="32.403" viewBox="0 0 32.403 32.403">
  <path id="Path_231" data-name="Path 231" d="M2017.9,459.051A7.047,7.047,0,1,0,2010.85,452,7.047,7.047,0,0,0,2017.9,459.051Z" transform="translate(-2001.695 -435.802)" fill="#b8bdc6"/>
  <path id="Path_232" data-name="Path 232" d="M2030.631,456l4.051-1.012v-4.741l-4.051-1.013a1.906,1.906,0,0,1-.763-.412,1.763,1.763,0,0,1-.505-.71,1.891,1.891,0,0,1-.145-.861,1.98,1.98,0,0,1,.248-.835l2.155-3.578-3.361-3.353-3.577,2.148a1.925,1.925,0,0,1-2.4-.4,1.856,1.856,0,0,1-.412-.769l-1.01-4.051h-4.742l-1.01,4.051a1.93,1.93,0,0,1-1.99,1.42,1.952,1.952,0,0,1-.835-.254l-3.577-2.147-3.351,3.351,2.144,3.578a1.994,1.994,0,0,1,.258.835,1.9,1.9,0,0,1-.144.861,1.988,1.988,0,0,1-.505.71,1.946,1.946,0,0,1-.773.412l-4.052,1.013v4.741l4.052,1.012a1.947,1.947,0,0,1,.773.413,1.983,1.983,0,0,1,.505.709,1.9,1.9,0,0,1,.144.861,1.854,1.854,0,0,1-.258.835l-2.144,3.578,3.351,3.353,3.577-2.146a1.936,1.936,0,0,1,1.7-.111,1.987,1.987,0,0,1,.711.507,2.119,2.119,0,0,1,.412.769l1.01,4.05h4.742l1.01-4.05a1.856,1.856,0,0,1,.412-.769,1.919,1.919,0,0,1,2.4-.4l3.577,2.148,3.361-3.353-2.155-3.578a1.981,1.981,0,0,1-.248-.835,1.89,1.89,0,0,1,.145-.86,1.862,1.862,0,0,1,.505-.709A1.919,1.919,0,0,1,2030.631,456Zm-12.145,5.454a8.841,8.841,0,1,1,6.248-2.592A8.8,8.8,0,0,1,2018.486,461.457Z" transform="translate(-2002.28 -436.418)" fill="#b8bdc6"/>
</svg>
