<svg id="Group_402" data-name="Group 402" xmlns="http://www.w3.org/2000/svg" width="39.694" height="39.694" viewBox="0 0 39.694 39.694">
  <path id="Path_525" data-name="Path 525" d="M69.847,140a19.847,19.847,0,1,0,19.847,19.847A19.849,19.849,0,0,0,69.847,140Zm9.062,15.475q.013.293.013.589a12.873,12.873,0,0,1-12.961,12.961h0a12.894,12.894,0,0,1-6.983-2.046,9.26,9.26,0,0,0,1.087.063,9.141,9.141,0,0,0,5.658-1.95,4.561,4.561,0,0,1-4.256-3.164,4.539,4.539,0,0,0,2.057-.078,4.557,4.557,0,0,1-3.655-4.465c0-.021,0-.039,0-.058a4.525,4.525,0,0,0,2.063.57,4.559,4.559,0,0,1-1.41-6.082,12.934,12.934,0,0,0,9.39,4.76,4.558,4.558,0,0,1,7.763-4.154,9.139,9.139,0,0,0,2.893-1.106,4.573,4.573,0,0,1-2,2.52,9.085,9.085,0,0,0,2.616-.717,9.259,9.259,0,0,1-2.272,2.359Zm0,0" transform="translate(-50 -140)" fill="#b8bdc6"/>
</svg>
