<svg id="Group_404" data-name="Group 404" xmlns="http://www.w3.org/2000/svg" width="39.694" height="39.694" viewBox="0 0 39.694 39.694">
  <path id="Path_529" data-name="Path 529" d="M274.113,355.476l6.456-3.718-6.456-3.718Zm0,0" transform="translate(-256.738 -331.91)" fill="#b8bdc6"/>
  <path id="Path_530" data-name="Path 530" d="M69.847,140a19.847,19.847,0,1,0,19.847,19.847A19.849,19.849,0,0,0,69.847,140Zm12.4,19.867a32.757,32.757,0,0,1-.511,5.966,3.108,3.108,0,0,1-2.186,2.186c-1.941.511-9.7.511-9.7.511s-7.743,0-9.7-.531a3.108,3.108,0,0,1-2.186-2.186,35.085,35.085,0,0,1,0-11.931,3.171,3.171,0,0,1,2.186-2.206c1.941-.511,9.7-.511,9.7-.511s7.764,0,9.7.531a3.108,3.108,0,0,1,2.186,2.186,31.082,31.082,0,0,1,.511,5.986Zm0,0" transform="translate(-50 -140)" fill="#b8bdc6"/>
</svg>
