<svg xmlns="http://www.w3.org/2000/svg" width="2415.635" height="1346.311" viewBox="0 0 2415.635 1346.311">
  <g id="Group_8997" data-name="Group 8997" transform="translate(224.621 -126.81)">
    <rect id="Rectangle" width="555.999" height="555.999" rx="100" transform="matrix(0.588, -0.809, 0.809, 0.588, -224.621, 1146.313)" fill="#0093ed" opacity="0.04"/>
    <g id="Group_8855" data-name="Group 8855" transform="translate(-4323 -1823.879)" opacity="0.19">
      <rect id="Rectangle-2" data-name="Rectangle" width="555.999" height="555.999" rx="100" transform="matrix(0.588, -0.809, 0.809, 0.588, 5299.799, 2614.074)" fill="#0093ed" opacity="0.01"/>
      <rect id="Rectangle-3" data-name="Rectangle" width="555.999" height="555.999" rx="100" transform="matrix(0.588, -0.809, 0.809, 0.588, 5737.393, 2400.502)" fill="#0093ed" opacity="0.13"/>
      <g id="Ornament_Dotted_white" data-name="Ornament/Dotted/white" transform="translate(5490.109 2003.331)">
        <path id="Fill_1" data-name="Fill 1" d="M5.5,2.75A2.75,2.75,0,1,1,2.75,0,2.75,2.75,0,0,1,5.5,2.75" fill="#3b43f2"/>
        <path id="Fill_3" data-name="Fill 3" d="M5.5,2.75A2.75,2.75,0,1,1,2.75,0,2.75,2.75,0,0,1,5.5,2.75" transform="translate(27.5)" fill="#3b43f2"/>
        <path id="Fill_5" data-name="Fill 5" d="M5.5,2.75A2.75,2.75,0,1,1,2.75,0,2.75,2.75,0,0,1,5.5,2.75" transform="translate(55)" fill="#3b43f2"/>
        <path id="Fill_7" data-name="Fill 7" d="M5.5,2.75A2.75,2.75,0,1,1,2.75,0,2.75,2.75,0,0,1,5.5,2.75" transform="translate(82.5)" fill="#3b43f2"/>
        <path id="Fill_9" data-name="Fill 9" d="M5.5,2.75A2.75,2.75,0,1,1,2.75,0,2.75,2.75,0,0,1,5.5,2.75" transform="translate(110)" fill="#3b43f2"/>
        <path id="Fill_11" data-name="Fill 11" d="M5.5,2.75A2.75,2.75,0,1,1,2.75,0,2.75,2.75,0,0,1,5.5,2.75" transform="translate(137.5)" fill="#3b43f2"/>
        <path id="Fill_13" data-name="Fill 13" d="M5.5,2.75A2.75,2.75,0,1,1,2.75,0,2.75,2.75,0,0,1,5.5,2.75" transform="translate(165)" fill="#3b43f2"/>
        <path id="Fill_15" data-name="Fill 15" d="M5.5,2.75A2.75,2.75,0,1,1,2.75,0,2.75,2.75,0,0,1,5.5,2.75" transform="translate(192.5)" fill="#3b43f2"/>
        <path id="Fill_17" data-name="Fill 17" d="M5.5,2.75A2.75,2.75,0,1,1,2.75,0,2.75,2.75,0,0,1,5.5,2.75" transform="translate(0 27.5)" fill="#3b43f2"/>
        <path id="Fill_19" data-name="Fill 19" d="M5.5,2.75A2.75,2.75,0,1,1,2.75,0,2.75,2.75,0,0,1,5.5,2.75" transform="translate(27.5 27.5)" fill="#3b43f2"/>
        <path id="Fill_21" data-name="Fill 21" d="M5.5,2.75A2.75,2.75,0,1,1,2.75,0,2.75,2.75,0,0,1,5.5,2.75" transform="translate(55 27.5)" fill="#3b43f2"/>
        <path id="Fill_23" data-name="Fill 23" d="M5.5,2.75A2.75,2.75,0,1,1,2.75,0,2.75,2.75,0,0,1,5.5,2.75" transform="translate(82.5 27.5)" fill="#3b43f2"/>
        <path id="Fill_25" data-name="Fill 25" d="M5.5,2.75A2.75,2.75,0,1,1,2.75,0,2.75,2.75,0,0,1,5.5,2.75" transform="translate(110 27.5)" fill="#3b43f2"/>
        <path id="Fill_27" data-name="Fill 27" d="M5.5,2.75A2.75,2.75,0,1,1,2.75,0,2.75,2.75,0,0,1,5.5,2.75" transform="translate(137.5 27.5)" fill="#3b43f2"/>
        <path id="Fill_29" data-name="Fill 29" d="M5.5,2.75A2.75,2.75,0,1,1,2.75,0,2.75,2.75,0,0,1,5.5,2.75" transform="translate(165 27.5)" fill="#3b43f2"/>
        <path id="Fill_31" data-name="Fill 31" d="M5.5,2.75A2.75,2.75,0,1,1,2.75,0,2.75,2.75,0,0,1,5.5,2.75" transform="translate(192.5 27.5)" fill="#3b43f2"/>
        <path id="Fill_33" data-name="Fill 33" d="M5.5,2.75A2.75,2.75,0,1,1,2.75,0,2.75,2.75,0,0,1,5.5,2.75" transform="translate(0 55)" fill="#3b43f2"/>
        <path id="Fill_35" data-name="Fill 35" d="M5.5,2.75A2.75,2.75,0,1,1,2.75,0,2.75,2.75,0,0,1,5.5,2.75" transform="translate(27.5 55)" fill="#3b43f2"/>
        <path id="Fill_37" data-name="Fill 37" d="M5.5,2.75A2.75,2.75,0,1,1,2.75,0,2.75,2.75,0,0,1,5.5,2.75" transform="translate(55 55)" fill="#3b43f2"/>
        <path id="Fill_39" data-name="Fill 39" d="M5.5,2.75A2.75,2.75,0,1,1,2.75,0,2.75,2.75,0,0,1,5.5,2.75" transform="translate(82.5 55)" fill="#3b43f2"/>
        <path id="Fill_41" data-name="Fill 41" d="M5.5,2.75A2.75,2.75,0,1,1,2.75,0,2.75,2.75,0,0,1,5.5,2.75" transform="translate(110 55)" fill="#3b43f2"/>
        <path id="Fill_43" data-name="Fill 43" d="M5.5,2.75A2.75,2.75,0,1,1,2.75,0,2.75,2.75,0,0,1,5.5,2.75" transform="translate(137.5 55)" fill="#3b43f2"/>
        <path id="Fill_45" data-name="Fill 45" d="M5.5,2.75A2.75,2.75,0,1,1,2.75,0,2.75,2.75,0,0,1,5.5,2.75" transform="translate(165 55)" fill="#3b43f2"/>
        <path id="Fill_47" data-name="Fill 47" d="M5.5,2.75A2.75,2.75,0,1,1,2.75,0,2.75,2.75,0,0,1,5.5,2.75" transform="translate(192.5 55)" fill="#3b43f2"/>
        <path id="Fill_49" data-name="Fill 49" d="M5.5,2.75A2.75,2.75,0,1,1,2.75,0,2.75,2.75,0,0,1,5.5,2.75" transform="translate(0 82.5)" fill="#3b43f2"/>
        <path id="Fill_51" data-name="Fill 51" d="M5.5,2.75A2.75,2.75,0,1,1,2.75,0,2.75,2.75,0,0,1,5.5,2.75" transform="translate(27.5 82.5)" fill="#3b43f2"/>
        <path id="Fill_53" data-name="Fill 53" d="M5.5,2.75A2.75,2.75,0,1,1,2.75,0,2.75,2.75,0,0,1,5.5,2.75" transform="translate(55 82.5)" fill="#3b43f2"/>
        <path id="Fill_55" data-name="Fill 55" d="M5.5,2.75A2.75,2.75,0,1,1,2.75,0,2.75,2.75,0,0,1,5.5,2.75" transform="translate(82.5 82.5)" fill="#3b43f2"/>
        <path id="Fill_57" data-name="Fill 57" d="M5.5,2.75A2.75,2.75,0,1,1,2.75,0,2.75,2.75,0,0,1,5.5,2.75" transform="translate(110 82.5)" fill="#3b43f2"/>
        <path id="Fill_59" data-name="Fill 59" d="M5.5,2.75A2.75,2.75,0,1,1,2.75,0,2.75,2.75,0,0,1,5.5,2.75" transform="translate(137.5 82.5)" fill="#3b43f2"/>
        <path id="Fill_61" data-name="Fill 61" d="M5.5,2.75A2.75,2.75,0,1,1,2.75,0,2.75,2.75,0,0,1,5.5,2.75" transform="translate(165 82.5)" fill="#3b43f2"/>
        <path id="Fill_63" data-name="Fill 63" d="M5.5,2.75A2.75,2.75,0,1,1,2.75,0,2.75,2.75,0,0,1,5.5,2.75" transform="translate(192.5 82.5)" fill="#3b43f2"/>
        <path id="Fill_65" data-name="Fill 65" d="M5.5,2.75A2.75,2.75,0,1,1,2.75,0,2.75,2.75,0,0,1,5.5,2.75" transform="translate(0 110)" fill="#3b43f2"/>
        <path id="Fill_67" data-name="Fill 67" d="M5.5,2.75A2.75,2.75,0,1,1,2.75,0,2.75,2.75,0,0,1,5.5,2.75" transform="translate(27.5 110)" fill="#3b43f2"/>
        <path id="Fill_69" data-name="Fill 69" d="M5.5,2.75A2.75,2.75,0,1,1,2.75,0,2.75,2.75,0,0,1,5.5,2.75" transform="translate(55 110)" fill="#3b43f2"/>
        <path id="Fill_71" data-name="Fill 71" d="M5.5,2.75A2.75,2.75,0,1,1,2.75,0,2.75,2.75,0,0,1,5.5,2.75" transform="translate(82.5 110)" fill="#3b43f2"/>
        <path id="Fill_73" data-name="Fill 73" d="M5.5,2.75A2.75,2.75,0,1,1,2.75,0,2.75,2.75,0,0,1,5.5,2.75" transform="translate(110 110)" fill="#3b43f2"/>
        <path id="Fill_75" data-name="Fill 75" d="M5.5,2.75A2.75,2.75,0,1,1,2.75,0,2.75,2.75,0,0,1,5.5,2.75" transform="translate(137.5 110)" fill="#3b43f2"/>
        <path id="Fill_77" data-name="Fill 77" d="M5.5,2.75A2.75,2.75,0,1,1,2.75,0,2.75,2.75,0,0,1,5.5,2.75" transform="translate(165 110)" fill="#3b43f2"/>
        <path id="Fill_79" data-name="Fill 79" d="M5.5,2.75A2.75,2.75,0,1,1,2.75,0,2.75,2.75,0,0,1,5.5,2.75" transform="translate(192.5 110)" fill="#3b43f2"/>
        <path id="Fill_81" data-name="Fill 81" d="M5.5,2.75A2.75,2.75,0,1,1,2.75,0,2.75,2.75,0,0,1,5.5,2.75" transform="translate(0 137.5)" fill="#3b43f2"/>
        <path id="Fill_83" data-name="Fill 83" d="M5.5,2.75A2.75,2.75,0,1,1,2.75,0,2.75,2.75,0,0,1,5.5,2.75" transform="translate(27.5 137.5)" fill="#3b43f2"/>
        <path id="Fill_85" data-name="Fill 85" d="M5.5,2.75A2.75,2.75,0,1,1,2.75,0,2.75,2.75,0,0,1,5.5,2.75" transform="translate(55 137.5)" fill="#3b43f2"/>
        <path id="Fill_87" data-name="Fill 87" d="M5.5,2.75A2.75,2.75,0,1,1,2.75,0,2.75,2.75,0,0,1,5.5,2.75" transform="translate(82.5 137.5)" fill="#3b43f2"/>
        <path id="Fill_89" data-name="Fill 89" d="M5.5,2.75A2.75,2.75,0,1,1,2.75,0,2.75,2.75,0,0,1,5.5,2.75" transform="translate(110 137.5)" fill="#3b43f2"/>
        <path id="Fill_91" data-name="Fill 91" d="M5.5,2.75A2.75,2.75,0,1,1,2.75,0,2.75,2.75,0,0,1,5.5,2.75" transform="translate(137.5 137.5)" fill="#3b43f2"/>
        <path id="Fill_93" data-name="Fill 93" d="M5.5,2.75A2.75,2.75,0,1,1,2.75,0,2.75,2.75,0,0,1,5.5,2.75" transform="translate(165 137.5)" fill="#3b43f2"/>
        <path id="Fill_95" data-name="Fill 95" d="M5.5,2.75A2.75,2.75,0,1,1,2.75,0,2.75,2.75,0,0,1,5.5,2.75" transform="translate(192.5 137.5)" fill="#3b43f2"/>
        <path id="Fill_97" data-name="Fill 97" d="M5.5,2.75A2.75,2.75,0,1,1,2.75,0,2.75,2.75,0,0,1,5.5,2.75" transform="translate(0 165)" fill="#3b43f2"/>
        <path id="Fill_99" data-name="Fill 99" d="M5.5,2.75A2.75,2.75,0,1,1,2.75,0,2.75,2.75,0,0,1,5.5,2.75" transform="translate(27.5 165)" fill="#3b43f2"/>
        <path id="Fill_101" data-name="Fill 101" d="M5.5,2.75A2.75,2.75,0,1,1,2.75,0,2.75,2.75,0,0,1,5.5,2.75" transform="translate(55 165)" fill="#3b43f2"/>
        <path id="Fill_103" data-name="Fill 103" d="M5.5,2.75A2.75,2.75,0,1,1,2.75,0,2.75,2.75,0,0,1,5.5,2.75" transform="translate(82.5 165)" fill="#3b43f2"/>
        <path id="Fill_105" data-name="Fill 105" d="M5.5,2.75A2.75,2.75,0,1,1,2.75,0,2.75,2.75,0,0,1,5.5,2.75" transform="translate(110 165)" fill="#3b43f2"/>
        <path id="Fill_107" data-name="Fill 107" d="M5.5,2.75A2.75,2.75,0,1,1,2.75,0,2.75,2.75,0,0,1,5.5,2.75" transform="translate(137.5 165)" fill="#3b43f2"/>
        <path id="Fill_109" data-name="Fill 109" d="M5.5,2.75A2.75,2.75,0,1,1,2.75,0,2.75,2.75,0,0,1,5.5,2.75" transform="translate(165 165)" fill="#3b43f2"/>
        <path id="Fill_111" data-name="Fill 111" d="M5.5,2.75A2.75,2.75,0,1,1,2.75,0,2.75,2.75,0,0,1,5.5,2.75" transform="translate(192.5 165)" fill="#3b43f2"/>
        <path id="Fill_113" data-name="Fill 113" d="M5.5,2.75A2.75,2.75,0,1,1,2.75,0,2.75,2.75,0,0,1,5.5,2.75" transform="translate(0 192.5)" fill="#3b43f2"/>
        <path id="Fill_115" data-name="Fill 115" d="M5.5,2.75A2.75,2.75,0,1,1,2.75,0,2.75,2.75,0,0,1,5.5,2.75" transform="translate(27.5 192.5)" fill="#3b43f2"/>
        <path id="Fill_117" data-name="Fill 117" d="M5.5,2.75A2.75,2.75,0,1,1,2.75,0,2.75,2.75,0,0,1,5.5,2.75" transform="translate(55 192.5)" fill="#3b43f2"/>
        <path id="Fill_119" data-name="Fill 119" d="M5.5,2.75A2.75,2.75,0,1,1,2.75,0,2.75,2.75,0,0,1,5.5,2.75" transform="translate(82.5 192.5)" fill="#3b43f2"/>
        <path id="Fill_121" data-name="Fill 121" d="M5.5,2.75A2.75,2.75,0,1,1,2.75,0,2.75,2.75,0,0,1,5.5,2.75" transform="translate(110 192.5)" fill="#3b43f2"/>
        <path id="Fill_123" data-name="Fill 123" d="M5.5,2.75A2.75,2.75,0,1,1,2.75,0,2.75,2.75,0,0,1,5.5,2.75" transform="translate(137.5 192.5)" fill="#3b43f2"/>
        <path id="Fill_125" data-name="Fill 125" d="M5.5,2.75A2.75,2.75,0,1,1,2.75,0,2.75,2.75,0,0,1,5.5,2.75" transform="translate(165 192.5)" fill="#3b43f2"/>
        <path id="Fill_127" data-name="Fill 127" d="M5.5,2.75A2.75,2.75,0,1,1,2.75,0,2.75,2.75,0,0,1,5.5,2.75" transform="translate(192.5 192.5)" fill="#3b43f2"/>
      </g>
    </g>
  </g>
</svg>
