<svg xmlns="http://www.w3.org/2000/svg" width="19.027" height="19.018" viewBox="0 0 19.027 19.018">
  <path id="Path_21274" data-name="Path 21274" d="M19.017,8.956v1.115c-.015.134-.031.267-.046.4a9.4,9.4,0,0,1-2.389,5.384,9.33,9.33,0,0,1-5.439,3.023c-.358.063-.721.1-1.081.148H8.948c-.318-.04-.638-.069-.954-.122A9.26,9.26,0,0,1,2.85,16.3a9.292,9.292,0,0,1-2.8-7.738A9.077,9.077,0,0,1,2.368,3.24,9.313,9.313,0,0,1,9.106.013a9.043,9.043,0,0,1,5.246,1.326,9.374,9.374,0,0,1,4.517,6.538c.067.357.1.72.148,1.08m-8.258.552c-.061.065-.107.114-.154.161L7.468,12.809A2.04,2.04,0,0,0,7.293,13a.78.78,0,0,0,.151,1.106.8.8,0,0,0,1.1-.133q1.9-1.9,3.8-3.795a.824.824,0,0,0,0-1.334L8.579,5.089A1.979,1.979,0,0,0,8.4,4.926a.776.776,0,0,0-.992.021.791.791,0,0,0,0,1.209c.61.616,1.225,1.227,1.838,1.84l1.515,1.512" transform="translate(19.028 0) rotate(90)" fill="#26579e"/>
</svg>
