<svg xmlns="http://www.w3.org/2000/svg" width="50" height="50" viewBox="0 0 50 50">
  <g id="Group_6921" data-name="Group 6921" transform="translate(-324 -653)">
    <text id="_1" data-name="1" transform="translate(344 686)" fill="#4567ab" font-size="20" font-family="Roboto-Medium, Roboto" font-weight="500"><tspan x="0" y="0">1</tspan></text>
    <g id="Layer_x0020_1" transform="translate(307.58 636.58)">
      <path id="Path_8774" data-name="Path 8774" d="M55.384,50.675a1.666,1.666,0,0,0,2.251-.693A18.327,18.327,0,1,0,49.863,57.7a1.667,1.667,0,1,0-1.539-2.957,14.772,14.772,0,0,1-6.9,1.682,14.992,14.992,0,1,1,13.271-8,1.664,1.664,0,0,0,.693,2.253ZM41.42,16.42a24.914,24.914,0,0,0-13.554,3.992,1.667,1.667,0,1,0,1.81,2.8,21.666,21.666,0,1,1-6.525,6.559,1.667,1.667,0,0,0-2.808-1.8A25,25,0,1,0,41.42,16.42Z" fill="#4567ab"/>
    </g>
  </g>
</svg>
