<svg xmlns="http://www.w3.org/2000/svg" width="50" height="50" viewBox="0 0 50 50">
  <g id="Layer_x0020_1" transform="translate(-16.42 -16.42)">
    <path id="Path_8774" data-name="Path 8774" d="M41.42,36.094a1.834,1.834,0,0,1,1.831,1.829,1.666,1.666,0,0,0,3.333,0,5.158,5.158,0,0,0-3.5-4.864v-.945a1.666,1.666,0,1,0-3.333,0v.945A5.151,5.151,0,0,0,41.42,43.087a1.831,1.831,0,1,1-1.829,1.831,1.666,1.666,0,1,0-3.333,0,5.151,5.151,0,0,0,3.495,4.862v.945a1.666,1.666,0,1,0,3.333,0v-.945A5.149,5.149,0,0,0,41.42,39.755a1.83,1.83,0,0,1,0-3.661ZM55.384,50.675a1.666,1.666,0,0,0,2.251-.693A18.327,18.327,0,1,0,49.863,57.7a1.667,1.667,0,1,0-1.539-2.957,14.772,14.772,0,0,1-6.9,1.682,14.992,14.992,0,1,1,13.271-8,1.664,1.664,0,0,0,.693,2.253ZM41.42,16.42a24.914,24.914,0,0,0-13.554,3.992,1.667,1.667,0,1,0,1.81,2.8,21.666,21.666,0,1,1-6.525,6.559,1.667,1.667,0,0,0-2.808-1.8A25,25,0,1,0,41.42,16.42Z" fill="#4567ab"/>
  </g>
</svg>
