<svg id="Artwork" xmlns="http://www.w3.org/2000/svg" xmlns:xlink="http://www.w3.org/1999/xlink" viewBox="0 0 2700 1700"><defs><style>.cls-1{fill:#f8fbff;}.cls-2,.cls-7{opacity:0.21;}.cls-3{fill:url(#radial-gradient);}.cls-4{opacity:0.41;}.cls-25,.cls-5,.cls-6,.cls-7{fill:#fff;}.cls-6{opacity:0.28;}.cls-8{fill:url(#radial-gradient-2);}.cls-9{fill:url(#radial-gradient-3);}.cls-10{opacity:0.42;}.cls-11{fill:url(#radial-gradient-4);}.cls-12{fill:url(#radial-gradient-5);}.cls-13{fill:url(#radial-gradient-6);}.cls-14{opacity:0.52;}.cls-15{opacity:0.47;}.cls-16{fill:url(#radial-gradient-7);}.cls-17{fill:url(#radial-gradient-8);}.cls-18{fill:url(#radial-gradient-9);}.cls-19{fill:url(#radial-gradient-10);}.cls-20{opacity:0.25;}.cls-21{fill:url(#radial-gradient-11);}.cls-22{fill:url(#radial-gradient-12);}.cls-23{fill:url(#radial-gradient-13);}.cls-24{opacity:0.22;}.cls-25,.cls-29{opacity:0.34;}.cls-26{fill:url(#radial-gradient-14);}.cls-27,.cls-28,.cls-29{fill:#c0ddff;}.cls-27{opacity:0.23;}.cls-28{opacity:0.13;}.cls-30{fill:url(#radial-gradient-15);}.cls-31{fill:url(#radial-gradient-16);}.cls-32{fill:url(#radial-gradient-17);}.cls-33{fill:url(#radial-gradient-18);}.cls-34{fill:url(#radial-gradient-19);}.cls-35{fill:url(#radial-gradient-21);}.cls-36{fill:url(#linear-gradient);}.cls-37{fill:url(#linear-gradient-2);}.cls-38{fill:url(#radial-gradient-23);}.cls-39{fill:url(#linear-gradient-3);}.cls-40{fill:url(#linear-gradient-4);}.cls-41{fill:url(#linear-gradient-5);}.cls-42{fill:url(#radial-gradient-24);}.cls-43{fill:url(#linear-gradient-6);}.cls-44{fill:url(#linear-gradient-7);}.cls-45{fill:url(#linear-gradient-8);}.cls-46{fill:url(#linear-gradient-9);}.cls-47{fill:#b9ccdb;}.cls-48{fill:url(#linear-gradient-10);}.cls-49{fill:url(#linear-gradient-11);}.cls-50{fill:url(#radial-gradient-25);}.cls-51{fill:url(#radial-gradient-26);}.cls-52{fill:url(#radial-gradient-27);}.cls-53{fill:url(#radial-gradient-28);}.cls-54{fill:url(#radial-gradient-29);}.cls-55{fill:url(#radial-gradient-30);}.cls-56{fill:url(#radial-gradient-31);}.cls-57{fill:url(#radial-gradient-32);}.cls-58{fill:url(#radial-gradient-33);}.cls-59{fill:url(#radial-gradient-34);}.cls-60{opacity:0.06;}.cls-61{fill:url(#radial-gradient-35);}.cls-62{fill:url(#linear-gradient-12);}.cls-63{fill:url(#radial-gradient-36);}.cls-64{fill:url(#radial-gradient-37);}.cls-65{fill:#f4f4f4;}.cls-66{fill:url(#linear-gradient-13);}.cls-67{fill:url(#linear-gradient-14);}.cls-68{fill:url(#linear-gradient-15);}.cls-69{fill:url(#radial-gradient-38);}.cls-70{fill:url(#radial-gradient-39);}.cls-71{fill:url(#radial-gradient-40);}.cls-72{fill:url(#linear-gradient-16);}.cls-73{fill:url(#linear-gradient-17);}.cls-74{fill:url(#radial-gradient-41);}.cls-75{fill:url(#radial-gradient-42);}.cls-76{fill:url(#radial-gradient-43);}.cls-77{fill:url(#radial-gradient-44);}.cls-78{fill:url(#radial-gradient-45);}.cls-79{fill:url(#linear-gradient-18);}.cls-80{fill:url(#radial-gradient-46);}.cls-81{fill:url(#linear-gradient-19);}.cls-82{fill:url(#linear-gradient-20);}.cls-83{fill:#2d0000;opacity:0.26;}.cls-84{fill:url(#radial-gradient-47);}.cls-85{fill:url(#radial-gradient-48);}.cls-86{fill:url(#linear-gradient-21);}.cls-87{fill:url(#radial-gradient-49);}.cls-88{fill:url(#radial-gradient-50);}.cls-89{fill:url(#radial-gradient-51);}.cls-90{fill:#8f959d;}</style><radialGradient id="radial-gradient" cx="-2826.56" cy="1089.32" r="548.43" gradientTransform="matrix(-1, 0, 0, 0.89, -829.51, 393.93)" gradientUnits="userSpaceOnUse"><stop offset="0" stop-color="#219ddb"/><stop offset="0.51" stop-color="#219ddb"/><stop offset="1" stop-color="#10488c"/></radialGradient><radialGradient id="radial-gradient-2" cx="-2851.2" cy="1307.11" r="253" gradientTransform="matrix(-1, 0, 0, 1, -829.51, 0)" xlink:href="#radial-gradient"/><radialGradient id="radial-gradient-3" cx="-2690.99" cy="989.85" r="696.28" xlink:href="#radial-gradient"/><radialGradient id="radial-gradient-4" cx="-2884.22" cy="1146.56" r="608.66" gradientTransform="matrix(1, 0, 0, -1, 4316.36, 2558.76)" xlink:href="#radial-gradient"/><radialGradient id="radial-gradient-5" cx="-2783.87" cy="1097.7" r="412.32" gradientTransform="matrix(1, 0, 0, -1, 4280.71, 2509.15)" xlink:href="#radial-gradient"/><radialGradient id="radial-gradient-6" cx="4135.53" cy="1222.09" r="351.08" gradientTransform="translate(-2170.6 393.93) scale(1 0.89)" xlink:href="#radial-gradient"/><radialGradient id="radial-gradient-7" cx="-217.47" cy="853.3" r="851.71" gradientTransform="matrix(-1, 0, 0, 1.01, 1448.09, 251.01)" xlink:href="#radial-gradient"/><radialGradient id="radial-gradient-8" cx="4.26" cy="1070.79" r="528.44" gradientTransform="matrix(-1, 0, 0, 1.01, 1448.09, 251.01)" xlink:href="#radial-gradient"/><radialGradient id="radial-gradient-9" cx="-142.39" cy="1250.64" r="461.94" gradientTransform="matrix(1, 0, 0, -1.13, 1260.38, 2870.25)" xlink:href="#radial-gradient"/><radialGradient id="radial-gradient-10" cx="-66.23" cy="1213.55" r="312.93" gradientTransform="matrix(1, 0, 0, -1.13, 1233.32, 2827.54)" xlink:href="#radial-gradient"/><radialGradient id="radial-gradient-11" cx="145.72" cy="1125.34" r="445.55" gradientTransform="matrix(-1, 0, 0, 1.01, 1448.09, 251.01)" xlink:href="#radial-gradient"/><radialGradient id="radial-gradient-12" cx="125.7" cy="1350.55" r="205.54" gradientTransform="matrix(-1, 0, 0, 1.13, 1448.09, -195.85)" xlink:href="#radial-gradient"/><radialGradient id="radial-gradient-13" cx="-379.94" cy="906.96" r="1277.85" gradientTransform="matrix(-1, 0, 0, 1.13, 1448.09, -195.85)" gradientUnits="userSpaceOnUse"><stop offset="0.51" stop-color="#219ddb"/><stop offset="1" stop-color="#10488c"/></radialGradient><radialGradient id="radial-gradient-14" cx="-479.96" cy="973.51" r="2024.91" gradientUnits="userSpaceOnUse"><stop offset="0" stop-color="#faffee"/><stop offset="0.45" stop-color="#feffd9"/><stop offset="1" stop-color="#809ebf"/></radialGradient><radialGradient id="radial-gradient-15" cx="1106.91" cy="1277" r="604.59" xlink:href="#radial-gradient-14"/><radialGradient id="radial-gradient-16" cx="850.99" cy="1752.51" r="146.97" xlink:href="#radial-gradient-14"/><radialGradient id="radial-gradient-17" cx="812.98" cy="1598.17" r="356.76" xlink:href="#radial-gradient-14"/><radialGradient id="radial-gradient-18" cx="999.95" cy="1726.49" r="231.63" xlink:href="#radial-gradient-14"/><radialGradient id="radial-gradient-19" cx="1207.34" cy="1764.99" r="272.6" xlink:href="#radial-gradient-14"/><radialGradient id="radial-gradient-21" cx="1149.19" cy="1520.68" r="265.79" xlink:href="#radial-gradient-14"/><linearGradient id="linear-gradient" x1="1058.03" y1="1310.77" x2="1152.77" y2="1361.69" gradientUnits="userSpaceOnUse"><stop offset="0" stop-color="#4e7696"/><stop offset="1" stop-color="#152960"/></linearGradient><linearGradient id="linear-gradient-2" x1="1393.88" y1="1552.89" x2="965.51" y2="954.94" gradientUnits="userSpaceOnUse"><stop offset="0" stop-color="#e20000"/><stop offset="1" stop-color="#ff3c00"/></linearGradient><radialGradient id="radial-gradient-23" cx="754.64" cy="999.34" r="696.41" gradientUnits="userSpaceOnUse"><stop offset="0" stop-color="#fff6a6"/><stop offset="0.35" stop-color="#64b8cb"/><stop offset="0.51" stop-color="#219ddb"/><stop offset="1" stop-color="#10488c"/></radialGradient><linearGradient id="linear-gradient-3" x1="1043.31" y1="1385.45" x2="1032.95" y2="1274.27" gradientUnits="userSpaceOnUse"><stop offset="0" stop-color="#fff171"/><stop offset="1" stop-color="#ff3c00"/></linearGradient><linearGradient id="linear-gradient-4" x1="1059.59" y1="1155.69" x2="1199.5" y2="1228.23" xlink:href="#linear-gradient-3"/><linearGradient id="linear-gradient-5" x1="1103.96" y1="1116.84" x2="1148.9" y2="1116.84" xlink:href="#linear-gradient-2"/><radialGradient id="radial-gradient-24" cx="756.11" cy="810.87" r="816.42" xlink:href="#radial-gradient-23"/><linearGradient id="linear-gradient-6" x1="1176.59" y1="1406.27" x2="1169.05" y2="1248.93" xlink:href="#linear-gradient-3"/><linearGradient id="linear-gradient-7" x1="967.75" y1="1107.32" x2="1353.63" y2="1248.88" xlink:href="#linear-gradient-3"/><linearGradient id="linear-gradient-8" x1="1107.23" y1="1388" x2="1100.63" y2="1207.03" xlink:href="#linear-gradient-3"/><linearGradient id="linear-gradient-9" x1="1065.15" y1="1180.51" x2="1225.16" y2="1297.68" xlink:href="#linear-gradient-3"/><linearGradient id="linear-gradient-10" x1="1019.82" y1="1318.2" x2="1285.78" y2="1427.99" xlink:href="#linear-gradient"/><linearGradient id="linear-gradient-11" x1="1226.54" y1="956.05" x2="1717.41" y2="956.05" xlink:href="#linear-gradient-2"/><radialGradient id="radial-gradient-25" cx="1125.63" cy="1220.91" r="111.02" gradientUnits="userSpaceOnUse"><stop offset="0" stop-color="#fff5ca"/><stop offset="1" stop-color="#d84841"/></radialGradient><radialGradient id="radial-gradient-26" cx="1111.41" cy="82.18" r="1394.28" gradientTransform="translate(-35.11 -257.04) scale(1.1 1.17)" gradientUnits="userSpaceOnUse"><stop offset="0" stop-color="#770707"/><stop offset="1" stop-color="#e23333"/></radialGradient><radialGradient id="radial-gradient-27" cx="2372.51" cy="1036.75" r="893.1" gradientUnits="userSpaceOnUse"><stop offset="0" stop-color="#fff6a6"/><stop offset="0.35" stop-color="#64b8cb"/><stop offset="0.36" stop-color="#5cb5cd"/><stop offset="0.37" stop-color="#46acd2"/><stop offset="0.39" stop-color="#35a5d6"/><stop offset="0.41" stop-color="#2aa0d9"/><stop offset="0.43" stop-color="#239edb"/><stop offset="0.51" stop-color="#219ddb"/><stop offset="1" stop-color="#10488c"/></radialGradient><radialGradient id="radial-gradient-28" cx="903.66" cy="1993.51" r="848.7" xlink:href="#radial-gradient-23"/><radialGradient id="radial-gradient-29" cx="2054.67" cy="1479.86" r="851.64" xlink:href="#radial-gradient-23"/><radialGradient id="radial-gradient-30" cx="-2369.7" cy="1235.22" r="58.08" gradientTransform="matrix(-0.98, -0.2, -0.2, 0.98, -270.24, -439.95)" xlink:href="#radial-gradient-25"/><radialGradient id="radial-gradient-31" cx="-2375.92" cy="1228.87" r="91.88" gradientTransform="matrix(-0.98, -0.2, -0.2, 0.98, -270.24, -439.95)" xlink:href="#radial-gradient-25"/><radialGradient id="radial-gradient-32" cx="2040.38" cy="1905.6" r="874.28" xlink:href="#radial-gradient-23"/><radialGradient id="radial-gradient-33" cx="783.82" cy="1764.98" r="754.33" xlink:href="#radial-gradient-23"/><radialGradient id="radial-gradient-34" cx="-2067.52" cy="1034.19" r="141.58" gradientTransform="matrix(-1, 0, 0, 1, -497.03, 0)" xlink:href="#radial-gradient-25"/><radialGradient id="radial-gradient-35" cx="-1814.99" cy="2029.65" r="116.86" gradientTransform="matrix(-1, 0.09, 0.09, 1, -426.86, -807.37)" xlink:href="#radial-gradient-25"/><linearGradient id="linear-gradient-12" x1="-1874.03" y1="1896.53" x2="-1688.74" y2="2062.79" gradientTransform="matrix(-1, 0.09, 0.09, 1, -426.86, -807.37)" xlink:href="#linear-gradient"/><radialGradient id="radial-gradient-36" cx="-1747.19" cy="1991.29" r="43.89" gradientTransform="matrix(-1, 0.09, 0.09, 1, -426.86, -807.37)" xlink:href="#radial-gradient-25"/><radialGradient id="radial-gradient-37" cx="739.88" cy="674.37" r="1687.43" gradientUnits="userSpaceOnUse"><stop offset="0" stop-color="#fff6a6"/><stop offset="0.35" stop-color="#2c75ff"/><stop offset="0.51" stop-color="#219ddb"/><stop offset="1" stop-color="#342e37"/></radialGradient><linearGradient id="linear-gradient-13" x1="1579.51" y1="1037.24" x2="1409.92" y2="1208.83" xlink:href="#linear-gradient-3"/><linearGradient id="linear-gradient-14" x1="1747.66" y1="1285.77" x2="1804.78" y2="1405.24" xlink:href="#linear-gradient"/><linearGradient id="linear-gradient-15" x1="1160.04" y1="1293.7" x2="1814.48" y2="1078.21" xlink:href="#linear-gradient-3"/><radialGradient id="radial-gradient-38" cx="1193.96" cy="1260.62" r="51.47" xlink:href="#radial-gradient-25"/><radialGradient id="radial-gradient-39" cx="1019.5" cy="925.07" r="905.59" xlink:href="#radial-gradient-23"/><radialGradient id="radial-gradient-40" cx="1218.98" cy="1240.52" r="63.86" xlink:href="#radial-gradient-25"/><linearGradient id="linear-gradient-16" x1="1806.29" y1="1090.7" x2="1984.27" y2="1021.79" gradientTransform="translate(42.42 -60.21) rotate(2.16)" gradientUnits="userSpaceOnUse"><stop offset="0" stop-color="#c45a12"/><stop offset="1" stop-color="#ffb048"/></linearGradient><linearGradient id="linear-gradient-17" x1="1931.85" y1="1661.69" x2="1966.98" y2="1661.69" gradientTransform="translate(42.42 -60.21) rotate(2.16)" xlink:href="#linear-gradient-2"/><radialGradient id="radial-gradient-41" cx="1796.34" cy="1117.34" r="110.99" gradientTransform="translate(42.42 -60.21) rotate(2.16)" xlink:href="#radial-gradient-25"/><radialGradient id="radial-gradient-42" cx="1810.56" cy="1041.3" r="205.47" gradientTransform="matrix(0.94, 0.04, -0.04, 1, 137.63, -56.62)" xlink:href="#radial-gradient-25"/><radialGradient id="radial-gradient-43" cx="1650.72" cy="1089.42" r="437.51" xlink:href="#radial-gradient-23"/><radialGradient id="radial-gradient-44" cx="1999.68" cy="1703.01" r="576.68" gradientTransform="matrix(1, 0.04, -0.04, 1.04, 44.2, -107.41)" xlink:href="#radial-gradient-25"/><radialGradient id="radial-gradient-45" cx="1780.61" cy="1687.98" r="332.58" gradientTransform="matrix(1, 0.04, -0.04, 1.04, 44.2, -107.41)" xlink:href="#radial-gradient-25"/><linearGradient id="linear-gradient-18" x1="2093.4" y1="1477.42" x2="1871.11" y2="1363.59" gradientTransform="translate(42.42 -60.21) rotate(2.16)" xlink:href="#linear-gradient"/><radialGradient id="radial-gradient-46" cx="1912.59" cy="1619.23" r="162.17" gradientTransform="matrix(1, 0.04, -0.04, 1.04, 44.2, -107.41)" xlink:href="#radial-gradient-25"/><linearGradient id="linear-gradient-19" x1="1768.88" y1="931.12" x2="1992.35" y2="1218.44" xlink:href="#linear-gradient-3"/><linearGradient id="linear-gradient-20" x1="1733.66" y1="1198.3" x2="1962.45" y2="1341.96" gradientTransform="translate(169.75 2771.19) rotate(-75.98)" xlink:href="#linear-gradient-3"/><radialGradient id="radial-gradient-47" cx="1593.99" cy="1096.1" r="595.16" xlink:href="#radial-gradient-23"/><radialGradient id="radial-gradient-48" cx="1776.05" cy="1270.08" r="115.59" gradientTransform="translate(42.42 -60.21) rotate(2.16)" xlink:href="#radial-gradient-25"/><linearGradient id="linear-gradient-21" x1="1802.56" y1="1247.65" x2="1900.59" y2="1303.36" gradientTransform="translate(42.42 -60.21) rotate(2.16)" xlink:href="#linear-gradient"/><radialGradient id="radial-gradient-49" cx="1794.05" cy="462.29" r="1110.35" xlink:href="#radial-gradient-23"/><radialGradient id="radial-gradient-50" cx="819.13" cy="252.1" r="1455.58" xlink:href="#radial-gradient-23"/><radialGradient id="radial-gradient-51" cx="1300.04" cy="287.53" r="1359.55" xlink:href="#radial-gradient-23"/></defs><g id="cloud"><path class="cls-1" d="M1549.46,1738.34s-609.49,25-784.39-152.76-116-361.5,12.6-416.65S927,1059.57,855,989.21s-165-216.3-21.54-369.54,317.72,56.32,448.81,24.21,83.56-106.27,247.89-97.89c19.37,1,90.26-144.37,265.56-145.46,178.86-1.12,175.36,204.29,316.49,118.09s222.73-58.82,288,70,43.37,305.5-89,414.07-118,101-64.63,202.61,108.14,439-120.66,493.8S1549.46,1738.34,1549.46,1738.34Z"/></g><g id="icon"><g class="cls-2"><rect class="cls-3" x="1833.29" y="1376.02" width="153.88" height="320.8"/><g class="cls-4"><rect class="cls-5" x="1896.76" y="1430.74" width="90.41" height="9.94" transform="translate(3883.93 2871.43) rotate(-180)"/><rect class="cls-5" x="1896.76" y="1451.16" width="90.41" height="9.94" transform="translate(3883.93 2912.26) rotate(-180)"/><rect class="cls-5" x="1896.76" y="1471.57" width="90.41" height="9.94" transform="translate(3883.93 2953.09) rotate(-180)"/><rect class="cls-5" x="1896.76" y="1491.46" width="90.41" height="9.94" transform="translate(3883.93 2992.87) rotate(-180)"/><rect class="cls-5" x="1896.76" y="1511.87" width="90.41" height="9.94" transform="translate(3883.93 3033.69) rotate(-180)"/><rect class="cls-5" x="1896.76" y="1532.29" width="90.41" height="9.94" transform="translate(3883.93 3074.52) rotate(-180)"/><rect class="cls-5" x="1896.76" y="1552.18" width="90.41" height="9.94" transform="translate(3883.93 3114.3) rotate(-180)"/><rect class="cls-5" x="1896.76" y="1572.59" width="90.41" height="9.94" transform="translate(3883.93 3155.13) rotate(-180)"/><rect class="cls-5" x="1896.76" y="1593" width="90.41" height="9.94" transform="translate(3883.93 3195.95) rotate(-180)"/><rect class="cls-5" x="1896.76" y="1612.89" width="90.41" height="9.94" transform="translate(3883.93 3235.73) rotate(-180)"/><rect class="cls-5" x="1896.76" y="1633.31" width="90.41" height="9.94" transform="translate(3883.93 3276.56) rotate(-180)"/><rect class="cls-5" x="1896.76" y="1653.72" width="90.41" height="9.94" transform="translate(3883.93 3317.39) rotate(-180)"/><rect class="cls-5" x="1871.64" y="1430.74" width="12.42" height="9.94" transform="translate(3755.69 2871.43) rotate(-180)"/><rect class="cls-5" x="1871.64" y="1451.16" width="12.42" height="9.94" transform="translate(3755.69 2912.26) rotate(-180)"/><rect class="cls-5" x="1871.64" y="1471.57" width="12.42" height="9.94" transform="translate(3755.69 2953.09) rotate(-180)"/><rect class="cls-5" x="1871.64" y="1491.46" width="12.42" height="9.94" transform="translate(3755.69 2992.87) rotate(-180)"/><rect class="cls-5" x="1871.64" y="1511.87" width="12.42" height="9.94" transform="translate(3755.69 3033.69) rotate(-180)"/><rect class="cls-5" x="1871.64" y="1532.29" width="12.42" height="9.94" transform="translate(3755.69 3074.52) rotate(-180)"/><rect class="cls-5" x="1871.64" y="1552.18" width="12.42" height="9.94" transform="translate(3755.69 3114.3) rotate(-180)"/><rect class="cls-5" x="1871.64" y="1572.59" width="12.42" height="9.94" transform="translate(3755.69 3155.13) rotate(-180)"/><rect class="cls-5" x="1871.64" y="1593" width="12.42" height="9.94" transform="translate(3755.69 3195.95) rotate(-180)"/><rect class="cls-5" x="1871.64" y="1612.89" width="12.42" height="9.94" transform="translate(3755.69 3235.73) rotate(-180)"/><rect class="cls-5" x="1871.64" y="1633.31" width="12.42" height="9.94" transform="translate(3755.69 3276.56) rotate(-180)"/><rect class="cls-5" x="1871.64" y="1653.72" width="12.42" height="9.94" transform="translate(3755.69 3317.39) rotate(-180)"/><rect class="cls-5" x="1833.29" y="1430.74" width="27.88" height="9.94" transform="translate(3694.46 2871.43) rotate(-180)"/><rect class="cls-5" x="1833.29" y="1451.16" width="27.88" height="9.94" transform="translate(3694.46 2912.26) rotate(-180)"/><rect class="cls-5" x="1833.29" y="1471.57" width="27.88" height="9.94" transform="translate(3694.46 2953.09) rotate(-180)"/><rect class="cls-5" x="1833.29" y="1491.46" width="27.88" height="9.94" transform="translate(3694.46 2992.87) rotate(-180)"/><rect class="cls-5" x="1833.29" y="1511.87" width="27.88" height="9.94" transform="translate(3694.46 3033.69) rotate(-180)"/><rect class="cls-5" x="1833.29" y="1532.29" width="27.88" height="9.94" transform="translate(3694.46 3074.52) rotate(-180)"/><rect class="cls-5" x="1833.29" y="1552.18" width="27.88" height="9.94" transform="translate(3694.46 3114.3) rotate(-180)"/><rect class="cls-5" x="1833.29" y="1572.59" width="27.88" height="9.94" transform="translate(3694.46 3155.13) rotate(-180)"/><rect class="cls-5" x="1833.29" y="1593" width="27.88" height="9.94" transform="translate(3694.46 3195.95) rotate(-180)"/><rect class="cls-5" x="1833.29" y="1612.89" width="27.88" height="9.94" transform="translate(3694.46 3235.73) rotate(-180)"/><rect class="cls-5" x="1833.29" y="1633.31" width="27.88" height="9.94" transform="translate(3694.46 3276.56) rotate(-180)"/><rect class="cls-5" x="1833.29" y="1653.72" width="27.88" height="9.94" transform="translate(3694.46 3317.39) rotate(-180)"/></g><rect class="cls-6" x="1943.87" y="1677.8" width="22.51" height="19.03" transform="translate(3910.25 3374.63) rotate(-180)"/><rect class="cls-6" x="1919.46" y="1677.8" width="22.51" height="19.03" transform="translate(3861.42 3374.63) rotate(-180)"/><rect class="cls-6" x="1884.06" y="1677.8" width="22.51" height="9.51" transform="translate(3790.62 3365.11) rotate(-180)"/><rect class="cls-6" x="1855.34" y="1677.8" width="22.51" height="9.51" transform="translate(3733.19 3365.11) rotate(-180)"/><rect class="cls-7" x="1833.29" y="1409.39" width="153.88" height="10.34" transform="translate(3820.46 2829.12) rotate(-180)"/><rect class="cls-7" x="1833.29" y="1391" width="153.88" height="10.34" transform="translate(3820.46 2792.35) rotate(-180)"/><polygon class="cls-8" points="1957.9 1376.02 1843.55 1376.02 1843.55 1354.22 1933.19 1354.22 1957.9 1376.02"/><rect class="cls-9" x="1653.57" y="1289.54" width="195.37" height="407.29"/><g class="cls-10"><rect class="cls-5" x="1716.53" y="1345.72" width="15.77" height="12.63" transform="translate(3448.83 2704.06) rotate(-180)"/><rect class="cls-5" x="1716.53" y="1371.64" width="15.77" height="12.63" transform="translate(3448.83 2755.9) rotate(-180)"/><rect class="cls-5" x="1716.53" y="1397.55" width="15.77" height="12.63" transform="translate(3448.83 2807.73) rotate(-180)"/><rect class="cls-5" x="1716.53" y="1422.8" width="15.77" height="12.63" transform="translate(3448.83 2858.24) rotate(-180)"/><rect class="cls-5" x="1716.53" y="1448.72" width="15.77" height="12.63" transform="translate(3448.83 2910.07) rotate(-180)"/><rect class="cls-5" x="1716.53" y="1474.64" width="15.77" height="12.63" transform="translate(3448.83 2961.9) rotate(-180)"/><rect class="cls-5" x="1716.53" y="1499.89" width="15.77" height="12.63" transform="translate(3448.83 3012.41) rotate(-180)"/><rect class="cls-5" x="1716.53" y="1525.81" width="15.77" height="12.63" transform="translate(3448.83 3064.24) rotate(-180)"/><rect class="cls-5" x="1716.53" y="1551.72" width="15.77" height="12.63" transform="translate(3448.83 3116.07) rotate(-180)"/><rect class="cls-5" x="1716.53" y="1576.98" width="15.77" height="12.63" transform="translate(3448.83 3166.58) rotate(-180)"/><rect class="cls-5" x="1716.53" y="1602.89" width="15.77" height="12.63" transform="translate(3448.83 3218.41) rotate(-180)"/><rect class="cls-5" x="1716.53" y="1628.81" width="15.77" height="12.63" transform="translate(3448.83 3270.25) rotate(-180)"/><rect class="cls-5" x="1672.17" y="1345.72" width="15.77" height="12.63" transform="translate(3360.11 2704.06) rotate(-180)"/><rect class="cls-5" x="1672.17" y="1371.64" width="15.77" height="12.63" transform="translate(3360.11 2755.9) rotate(-180)"/><rect class="cls-5" x="1672.17" y="1397.55" width="15.77" height="12.63" transform="translate(3360.11 2807.73) rotate(-180)"/><rect class="cls-5" x="1672.17" y="1422.8" width="15.77" height="12.63" transform="translate(3360.11 2858.24) rotate(-180)"/><rect class="cls-5" x="1672.17" y="1448.72" width="15.77" height="12.63" transform="translate(3360.11 2910.07) rotate(-180)"/><rect class="cls-5" x="1672.17" y="1474.64" width="15.77" height="12.63" transform="translate(3360.11 2961.9) rotate(-180)"/><rect class="cls-5" x="1672.17" y="1499.89" width="15.77" height="12.63" transform="translate(3360.11 3012.41) rotate(-180)"/><rect class="cls-5" x="1672.17" y="1525.81" width="15.77" height="12.63" transform="translate(3360.11 3064.24) rotate(-180)"/><rect class="cls-5" x="1672.17" y="1551.72" width="15.77" height="12.63" transform="translate(3360.11 3116.07) rotate(-180)"/><rect class="cls-5" x="1672.17" y="1576.98" width="15.77" height="12.63" transform="translate(3360.11 3166.58) rotate(-180)"/><rect class="cls-5" x="1672.17" y="1602.89" width="15.77" height="12.63" transform="translate(3360.11 3218.41) rotate(-180)"/><rect class="cls-5" x="1672.17" y="1628.81" width="15.77" height="12.63" transform="translate(3360.11 3270.25) rotate(-180)"/><rect class="cls-5" x="1805.25" y="1345.72" width="15.77" height="12.63" transform="translate(3626.27 2704.06) rotate(-180)"/><rect class="cls-5" x="1805.25" y="1371.64" width="15.77" height="12.63" transform="translate(3626.27 2755.9) rotate(-180)"/><rect class="cls-5" x="1805.25" y="1397.55" width="15.77" height="12.63" transform="translate(3626.27 2807.73) rotate(-180)"/><rect class="cls-5" x="1805.25" y="1422.8" width="15.77" height="12.63" transform="translate(3626.27 2858.24) rotate(-180)"/><rect class="cls-5" x="1805.25" y="1448.72" width="15.77" height="12.63" transform="translate(3626.27 2910.07) rotate(-180)"/><rect class="cls-5" x="1805.25" y="1474.64" width="15.77" height="12.63" transform="translate(3626.27 2961.9) rotate(-180)"/><rect class="cls-5" x="1805.25" y="1499.89" width="15.77" height="12.63" transform="translate(3626.27 3012.41) rotate(-180)"/><rect class="cls-5" x="1805.25" y="1525.81" width="15.77" height="12.63" transform="translate(3626.27 3064.24) rotate(-180)"/><rect class="cls-5" x="1805.25" y="1551.72" width="15.77" height="12.63" transform="translate(3626.27 3116.07) rotate(-180)"/><rect class="cls-5" x="1805.25" y="1576.98" width="15.77" height="12.63" transform="translate(3626.27 3166.58) rotate(-180)"/><rect class="cls-5" x="1805.25" y="1602.89" width="15.77" height="12.63" transform="translate(3626.27 3218.41) rotate(-180)"/><rect class="cls-5" x="1805.25" y="1628.81" width="15.77" height="12.63" transform="translate(3626.27 3270.25) rotate(-180)"/><rect class="cls-5" x="1760.89" y="1345.72" width="15.77" height="12.63" transform="translate(3537.55 2704.06) rotate(-180)"/><rect class="cls-5" x="1760.89" y="1371.64" width="15.77" height="12.63" transform="translate(3537.55 2755.9) rotate(-180)"/><rect class="cls-5" x="1760.89" y="1397.55" width="15.77" height="12.63" transform="translate(3537.55 2807.73) rotate(-180)"/><rect class="cls-5" x="1760.89" y="1422.8" width="15.77" height="12.63" transform="translate(3537.55 2858.24) rotate(-180)"/><rect class="cls-5" x="1760.89" y="1448.72" width="15.77" height="12.63" transform="translate(3537.55 2910.07) rotate(-180)"/><rect class="cls-5" x="1760.89" y="1474.64" width="15.77" height="12.63" transform="translate(3537.55 2961.9) rotate(-180)"/><rect class="cls-5" x="1760.89" y="1499.89" width="15.77" height="12.63" transform="translate(3537.55 3012.41) rotate(-180)"/><rect class="cls-5" x="1760.89" y="1525.81" width="15.77" height="12.63" transform="translate(3537.55 3064.24) rotate(-180)"/><rect class="cls-5" x="1760.89" y="1551.72" width="15.77" height="12.63" transform="translate(3537.55 3116.07) rotate(-180)"/><rect class="cls-5" x="1760.89" y="1576.98" width="15.77" height="12.63" transform="translate(3537.55 3166.58) rotate(-180)"/><rect class="cls-5" x="1760.89" y="1602.89" width="15.77" height="12.63" transform="translate(3537.55 3218.41) rotate(-180)"/><rect class="cls-5" x="1760.89" y="1628.81" width="15.77" height="12.63" transform="translate(3537.55 3270.25) rotate(-180)"/></g><rect class="cls-6" x="1793.96" y="1672.67" width="28.57" height="24.16" transform="translate(3616.49 3369.5) rotate(-180)"/><rect class="cls-6" x="1762.97" y="1672.67" width="28.57" height="24.16" transform="translate(3554.51 3369.5) rotate(-180)"/><rect class="cls-6" x="1718.02" y="1672.67" width="28.57" height="12.08" transform="translate(3464.62 3357.42) rotate(-180)"/><rect class="cls-6" x="1681.56" y="1672.67" width="28.57" height="12.08" transform="translate(3391.7 3357.42) rotate(-180)"/><rect class="cls-11" x="1664.32" y="1266.98" width="158.22" height="24.8" transform="translate(3486.85 2558.76) rotate(-180)"/><rect class="cls-12" x="1664.32" y="1242.17" width="122.56" height="24.8" transform="translate(3451.2 2509.15) rotate(-180)"/><polygon class="cls-13" points="2069.76 1696.83 1971.25 1696.83 1971.25 1491.46 2069.76 1514.98 2069.76 1696.83"/><g class="cls-4"><rect class="cls-5" x="1971.25" y="1526.49" width="57.88" height="6.37"/><rect class="cls-5" x="1971.25" y="1539.56" width="57.88" height="6.37"/><rect class="cls-5" x="1971.25" y="1552.63" width="57.88" height="6.37"/><rect class="cls-5" x="1971.25" y="1565.36" width="57.88" height="6.37"/><rect class="cls-5" x="1971.25" y="1578.43" width="57.88" height="6.37"/><rect class="cls-5" x="1971.25" y="1591.5" width="57.88" height="6.37"/><rect class="cls-5" x="1971.25" y="1604.23" width="57.88" height="6.37"/><rect class="cls-5" x="1971.25" y="1617.3" width="57.88" height="6.37"/><rect class="cls-5" x="1971.25" y="1630.36" width="57.88" height="6.37"/><rect class="cls-5" x="1971.25" y="1643.1" width="57.88" height="6.37"/><rect class="cls-5" x="1971.25" y="1656.16" width="57.88" height="6.37"/><rect class="cls-5" x="1971.25" y="1669.23" width="57.88" height="6.37"/><rect class="cls-5" x="2037.26" y="1526.49" width="7.95" height="6.37"/><rect class="cls-5" x="2037.26" y="1539.56" width="7.95" height="6.37"/><rect class="cls-5" x="2037.26" y="1552.63" width="7.95" height="6.37"/><rect class="cls-5" x="2037.26" y="1565.36" width="7.95" height="6.37"/><rect class="cls-5" x="2037.26" y="1578.43" width="7.95" height="6.37"/><rect class="cls-5" x="2037.26" y="1591.5" width="7.95" height="6.37"/><rect class="cls-5" x="2037.26" y="1604.23" width="7.95" height="6.37"/><rect class="cls-5" x="2037.26" y="1617.3" width="7.95" height="6.37"/><rect class="cls-5" x="2037.26" y="1630.36" width="7.95" height="6.37"/><rect class="cls-5" x="2037.26" y="1643.1" width="7.95" height="6.37"/><rect class="cls-5" x="2037.26" y="1656.16" width="7.95" height="6.37"/><rect class="cls-5" x="2037.26" y="1669.23" width="7.95" height="6.37"/><rect class="cls-5" x="2051.91" y="1526.49" width="17.85" height="6.37"/><rect class="cls-5" x="2051.91" y="1539.56" width="17.85" height="6.37"/><rect class="cls-5" x="2051.91" y="1552.63" width="17.85" height="6.37"/><rect class="cls-5" x="2051.91" y="1565.36" width="17.85" height="6.37"/><rect class="cls-5" x="2051.91" y="1578.43" width="17.85" height="6.37"/><rect class="cls-5" x="2051.91" y="1591.5" width="17.85" height="6.37"/><rect class="cls-5" x="2051.91" y="1604.23" width="17.85" height="6.37"/><rect class="cls-5" x="2051.91" y="1617.3" width="17.85" height="6.37"/><rect class="cls-5" x="2051.91" y="1630.36" width="17.85" height="6.37"/><rect class="cls-5" x="2051.91" y="1643.1" width="17.85" height="6.37"/><rect class="cls-5" x="2051.91" y="1656.16" width="17.85" height="6.37"/><rect class="cls-5" x="2051.91" y="1669.23" width="17.85" height="6.37"/></g><rect class="cls-6" x="1984.56" y="1684.65" width="14.41" height="12.18"/><rect class="cls-6" x="2000.18" y="1684.65" width="14.41" height="12.18"/><rect class="cls-6" x="2022.85" y="1684.65" width="14.41" height="6.09"/><rect class="cls-6" x="2041.23" y="1684.65" width="14.41" height="6.09"/></g><g class="cls-14"><g class="cls-15"><polygon class="cls-16" points="1411.25 1696.6 1650.23 1696.6 1650.23 1131.44 1411.25 1196.15 1411.25 1696.6"/><g class="cls-4"><rect class="cls-5" x="1509.82" y="1227.84" width="140.4" height="17.52" transform="translate(3160.05 2473.2) rotate(-180)"/><rect class="cls-5" x="1509.82" y="1263.8" width="140.4" height="17.52" transform="translate(3160.05 2545.12) rotate(-180)"/><rect class="cls-5" x="1509.82" y="1299.76" width="140.4" height="17.52" transform="translate(3160.05 2617.05) rotate(-180)"/><rect class="cls-5" x="1509.82" y="1334.8" width="140.4" height="17.52" transform="translate(3160.05 2687.13) rotate(-180)"/><rect class="cls-5" x="1509.82" y="1370.77" width="140.4" height="17.52" transform="translate(3160.05 2759.05) rotate(-180)"/><rect class="cls-5" x="1509.82" y="1406.73" width="140.4" height="17.52" transform="translate(3160.05 2830.98) rotate(-180)"/><rect class="cls-5" x="1509.82" y="1441.77" width="140.4" height="17.52" transform="translate(3160.05 2901.06) rotate(-180)"/><rect class="cls-5" x="1509.82" y="1477.73" width="140.4" height="17.52" transform="translate(3160.05 2972.98) rotate(-180)"/><rect class="cls-5" x="1509.82" y="1513.69" width="140.4" height="17.52" transform="translate(3160.05 3044.91) rotate(-180)"/><rect class="cls-5" x="1509.82" y="1548.73" width="140.4" height="17.52" transform="translate(3160.05 3114.99) rotate(-180)"/><rect class="cls-5" x="1509.82" y="1584.7" width="140.4" height="17.52" transform="translate(3160.05 3186.91) rotate(-180)"/><rect class="cls-5" x="1509.82" y="1620.66" width="140.4" height="17.52" transform="translate(3160.05 3258.84) rotate(-180)"/><rect class="cls-5" x="1470.8" y="1227.84" width="19.29" height="17.52" transform="translate(2960.9 2473.2) rotate(-180)"/><rect class="cls-5" x="1470.8" y="1263.8" width="19.29" height="17.52" transform="translate(2960.9 2545.12) rotate(-180)"/><rect class="cls-5" x="1470.8" y="1299.76" width="19.29" height="17.52" transform="translate(2960.9 2617.05) rotate(-180)"/><rect class="cls-5" x="1470.8" y="1334.8" width="19.29" height="17.52" transform="translate(2960.9 2687.13) rotate(-180)"/><rect class="cls-5" x="1470.8" y="1370.77" width="19.29" height="17.52" transform="translate(2960.9 2759.05) rotate(-180)"/><rect class="cls-5" x="1470.8" y="1406.73" width="19.29" height="17.52" transform="translate(2960.9 2830.98) rotate(-180)"/><rect class="cls-5" x="1470.8" y="1441.77" width="19.29" height="17.52" transform="translate(2960.9 2901.06) rotate(-180)"/><rect class="cls-5" x="1470.8" y="1477.73" width="19.29" height="17.52" transform="translate(2960.9 2972.98) rotate(-180)"/><rect class="cls-5" x="1470.8" y="1513.69" width="19.29" height="17.52" transform="translate(2960.9 3044.91) rotate(-180)"/><rect class="cls-5" x="1470.8" y="1548.73" width="19.29" height="17.52" transform="translate(2960.9 3114.99) rotate(-180)"/><rect class="cls-5" x="1470.8" y="1584.7" width="19.29" height="17.52" transform="translate(2960.9 3186.91) rotate(-180)"/><rect class="cls-5" x="1470.8" y="1620.66" width="19.29" height="17.52" transform="translate(2960.9 3258.84) rotate(-180)"/><rect class="cls-5" x="1411.25" y="1227.84" width="43.3" height="17.52" transform="translate(2865.8 2473.2) rotate(-180)"/><rect class="cls-5" x="1411.25" y="1263.8" width="43.3" height="17.52" transform="translate(2865.8 2545.12) rotate(-180)"/><rect class="cls-5" x="1411.25" y="1299.76" width="43.3" height="17.52" transform="translate(2865.8 2617.05) rotate(-180)"/><rect class="cls-5" x="1411.25" y="1334.8" width="43.3" height="17.52" transform="translate(2865.8 2687.13) rotate(-180)"/><rect class="cls-5" x="1411.25" y="1370.77" width="43.3" height="17.52" transform="translate(2865.8 2759.05) rotate(-180)"/><rect class="cls-5" x="1411.25" y="1406.73" width="43.3" height="17.52" transform="translate(2865.8 2830.98) rotate(-180)"/><rect class="cls-5" x="1411.25" y="1441.77" width="43.3" height="17.52" transform="translate(2865.8 2901.06) rotate(-180)"/><rect class="cls-5" x="1411.25" y="1477.73" width="43.3" height="17.52" transform="translate(2865.8 2972.98) rotate(-180)"/><rect class="cls-5" x="1411.25" y="1513.69" width="43.3" height="17.52" transform="translate(2865.8 3044.91) rotate(-180)"/><rect class="cls-5" x="1411.25" y="1548.73" width="43.3" height="17.52" transform="translate(2865.8 3114.99) rotate(-180)"/><rect class="cls-5" x="1411.25" y="1584.7" width="43.3" height="17.52" transform="translate(2865.8 3186.91) rotate(-180)"/><rect class="cls-5" x="1411.25" y="1620.66" width="43.3" height="17.52" transform="translate(2865.8 3258.84) rotate(-180)"/></g><rect class="cls-6" x="1582.98" y="1663.08" width="34.95" height="33.52" transform="translate(3200.91 3359.67) rotate(-180)"/><rect class="cls-6" x="1545.07" y="1663.08" width="34.95" height="33.52" transform="translate(3125.09 3359.67) rotate(-180)"/><rect class="cls-6" x="1490.09" y="1663.08" width="34.95" height="16.76" transform="translate(3015.13 3342.91) rotate(-180)"/><rect class="cls-6" x="1445.49" y="1663.08" width="34.95" height="16.76" transform="translate(2925.94 3342.91) rotate(-180)"/><rect class="cls-17" x="1286.04" y="1345.94" width="148.27" height="350.65"/><g class="cls-10"><rect class="cls-5" x="1333.82" y="1394.32" width="11.97" height="10.87" transform="translate(2679.62 2799.5) rotate(-180)"/><rect class="cls-5" x="1333.82" y="1416.63" width="11.97" height="10.87" transform="translate(2679.62 2844.13) rotate(-180)"/><rect class="cls-5" x="1333.82" y="1438.94" width="11.97" height="10.87" transform="translate(2679.62 2888.75) rotate(-180)"/><rect class="cls-5" x="1333.82" y="1460.68" width="11.97" height="10.87" transform="translate(2679.62 2932.23) rotate(-180)"/><rect class="cls-5" x="1333.82" y="1482.99" width="11.97" height="10.87" transform="translate(2679.62 2976.86) rotate(-180)"/><rect class="cls-5" x="1333.82" y="1505.31" width="11.97" height="10.87" transform="translate(2679.62 3021.48) rotate(-180)"/><rect class="cls-5" x="1333.82" y="1527.05" width="11.97" height="10.87" transform="translate(2679.62 3064.96) rotate(-180)"/><rect class="cls-5" x="1333.82" y="1549.36" width="11.97" height="10.87" transform="translate(2679.62 3109.59) rotate(-180)"/><rect class="cls-5" x="1333.82" y="1571.67" width="11.97" height="10.87" transform="translate(2679.62 3154.21) rotate(-180)"/><rect class="cls-5" x="1333.82" y="1593.41" width="11.97" height="10.87" transform="translate(2679.62 3197.7) rotate(-180)"/><rect class="cls-5" x="1333.82" y="1615.73" width="11.97" height="10.87" transform="translate(2679.62 3242.32) rotate(-180)"/><rect class="cls-5" x="1333.82" y="1638.04" width="11.97" height="10.87" transform="translate(2679.62 3286.95) rotate(-180)"/><rect class="cls-5" x="1300.16" y="1394.32" width="11.97" height="10.87" transform="translate(2612.28 2799.5) rotate(-180)"/><rect class="cls-5" x="1300.16" y="1416.63" width="11.97" height="10.87" transform="translate(2612.28 2844.13) rotate(-180)"/><rect class="cls-5" x="1300.16" y="1438.94" width="11.97" height="10.87" transform="translate(2612.28 2888.75) rotate(-180)"/><rect class="cls-5" x="1300.16" y="1460.68" width="11.97" height="10.87" transform="translate(2612.28 2932.23) rotate(-180)"/><rect class="cls-5" x="1300.16" y="1482.99" width="11.97" height="10.87" transform="translate(2612.28 2976.86) rotate(-180)"/><rect class="cls-5" x="1300.16" y="1505.31" width="11.97" height="10.87" transform="translate(2612.28 3021.48) rotate(-180)"/><rect class="cls-5" x="1300.16" y="1527.05" width="11.97" height="10.87" transform="translate(2612.28 3064.96) rotate(-180)"/><rect class="cls-5" x="1300.16" y="1549.36" width="11.97" height="10.87" transform="translate(2612.28 3109.59) rotate(-180)"/><rect class="cls-5" x="1300.16" y="1571.67" width="11.97" height="10.87" transform="translate(2612.28 3154.21) rotate(-180)"/><rect class="cls-5" x="1300.16" y="1593.41" width="11.97" height="10.87" transform="translate(2612.28 3197.7) rotate(-180)"/><rect class="cls-5" x="1300.16" y="1615.73" width="11.97" height="10.87" transform="translate(2612.28 3242.32) rotate(-180)"/><rect class="cls-5" x="1300.16" y="1638.04" width="11.97" height="10.87" transform="translate(2612.28 3286.95) rotate(-180)"/><rect class="cls-5" x="1401.16" y="1394.32" width="11.97" height="10.87" transform="translate(2814.29 2799.5) rotate(-180)"/><rect class="cls-5" x="1401.16" y="1416.63" width="11.97" height="10.87" transform="translate(2814.29 2844.13) rotate(-180)"/><rect class="cls-5" x="1401.16" y="1438.94" width="11.97" height="10.87" transform="translate(2814.29 2888.75) rotate(-180)"/><rect class="cls-5" x="1401.16" y="1460.68" width="11.97" height="10.87" transform="translate(2814.29 2932.23) rotate(-180)"/><rect class="cls-5" x="1401.16" y="1482.99" width="11.97" height="10.87" transform="translate(2814.29 2976.86) rotate(-180)"/><rect class="cls-5" x="1401.16" y="1505.31" width="11.97" height="10.87" transform="translate(2814.29 3021.48) rotate(-180)"/><rect class="cls-5" x="1401.16" y="1527.05" width="11.97" height="10.87" transform="translate(2814.29 3064.96) rotate(-180)"/><rect class="cls-5" x="1401.16" y="1549.36" width="11.97" height="10.87" transform="translate(2814.29 3109.59) rotate(-180)"/><rect class="cls-5" x="1401.16" y="1571.67" width="11.97" height="10.87" transform="translate(2814.29 3154.21) rotate(-180)"/><rect class="cls-5" x="1401.16" y="1593.41" width="11.97" height="10.87" transform="translate(2814.29 3197.7) rotate(-180)"/><rect class="cls-5" x="1401.16" y="1615.73" width="11.97" height="10.87" transform="translate(2814.29 3242.32) rotate(-180)"/><rect class="cls-5" x="1401.16" y="1638.04" width="11.97" height="10.87" transform="translate(2814.29 3286.95) rotate(-180)"/><rect class="cls-5" x="1367.49" y="1394.32" width="11.97" height="10.87" transform="translate(2746.95 2799.5) rotate(-180)"/><rect class="cls-5" x="1367.49" y="1416.63" width="11.97" height="10.87" transform="translate(2746.95 2844.13) rotate(-180)"/><rect class="cls-5" x="1367.49" y="1438.94" width="11.97" height="10.87" transform="translate(2746.95 2888.75) rotate(-180)"/><rect class="cls-5" x="1367.49" y="1460.68" width="11.97" height="10.87" transform="translate(2746.95 2932.23) rotate(-180)"/><rect class="cls-5" x="1367.49" y="1482.99" width="11.97" height="10.87" transform="translate(2746.95 2976.86) rotate(-180)"/><rect class="cls-5" x="1367.49" y="1505.31" width="11.97" height="10.87" transform="translate(2746.95 3021.48) rotate(-180)"/><rect class="cls-5" x="1367.49" y="1527.05" width="11.97" height="10.87" transform="translate(2746.95 3064.96) rotate(-180)"/><rect class="cls-5" x="1367.49" y="1549.36" width="11.97" height="10.87" transform="translate(2746.95 3109.59) rotate(-180)"/><rect class="cls-5" x="1367.49" y="1571.67" width="11.97" height="10.87" transform="translate(2746.95 3154.21) rotate(-180)"/><rect class="cls-5" x="1367.49" y="1593.41" width="11.97" height="10.87" transform="translate(2746.95 3197.7) rotate(-180)"/><rect class="cls-5" x="1367.49" y="1615.73" width="11.97" height="10.87" transform="translate(2746.95 3242.32) rotate(-180)"/><rect class="cls-5" x="1367.49" y="1638.04" width="11.97" height="10.87" transform="translate(2746.95 3286.95) rotate(-180)"/></g><rect class="cls-6" x="1392.59" y="1675.8" width="21.69" height="20.8" transform="translate(2806.86 3372.39) rotate(-180)"/><rect class="cls-6" x="1369.07" y="1675.8" width="21.69" height="20.8" transform="translate(2759.82 3372.39) rotate(-180)"/><rect class="cls-6" x="1334.95" y="1675.8" width="21.69" height="10.4" transform="translate(2691.6 3362) rotate(-180)"/><rect class="cls-6" x="1307.29" y="1675.8" width="21.69" height="10.4" transform="translate(2636.26 3362) rotate(-180)"/><rect class="cls-18" x="1294.2" y="1326.52" width="120.08" height="21.36" transform="translate(2708.47 2674.4) rotate(-180)"/><rect class="cls-19" x="1294.2" y="1305.17" width="93.02" height="21.36" transform="translate(2681.41 2631.69) rotate(-180)"/></g><g class="cls-20"><rect class="cls-21" x="1169.33" y="1399.71" width="125.02" height="295.65"/><g class="cls-4"><rect class="cls-5" x="1220.9" y="1450.14" width="73.45" height="9.17" transform="translate(2515.24 2909.44) rotate(-180)"/><rect class="cls-5" x="1220.9" y="1468.95" width="73.45" height="9.17" transform="translate(2515.24 2947.07) rotate(-180)"/><rect class="cls-5" x="1220.9" y="1487.76" width="73.45" height="9.17" transform="translate(2515.24 2984.69) rotate(-180)"/><rect class="cls-5" x="1220.9" y="1506.09" width="73.45" height="9.17" transform="translate(2515.24 3021.35) rotate(-180)"/><rect class="cls-5" x="1220.9" y="1524.91" width="73.45" height="9.17" transform="translate(2515.24 3058.98) rotate(-180)"/><rect class="cls-5" x="1220.9" y="1543.72" width="73.45" height="9.17" transform="translate(2515.24 3096.6) rotate(-180)"/><rect class="cls-5" x="1220.9" y="1562.05" width="73.45" height="9.17" transform="translate(2515.24 3133.27) rotate(-180)"/><rect class="cls-5" x="1220.9" y="1580.86" width="73.45" height="9.17" transform="translate(2515.24 3170.89) rotate(-180)"/><rect class="cls-5" x="1220.9" y="1599.68" width="73.45" height="9.17" transform="translate(2515.24 3208.52) rotate(-180)"/><rect class="cls-5" x="1220.9" y="1618.01" width="73.45" height="9.17" transform="translate(2515.24 3245.18) rotate(-180)"/><rect class="cls-5" x="1220.9" y="1636.82" width="73.45" height="9.17" transform="translate(2515.24 3282.81) rotate(-180)"/><rect class="cls-5" x="1220.9" y="1655.63" width="73.45" height="9.17" transform="translate(2515.24 3320.43) rotate(-180)"/><rect class="cls-5" x="1200.48" y="1450.14" width="10.09" height="9.17" transform="translate(2411.06 2909.44) rotate(-180)"/><rect class="cls-5" x="1200.48" y="1468.95" width="10.09" height="9.17" transform="translate(2411.06 2947.07) rotate(-180)"/><rect class="cls-5" x="1200.48" y="1487.76" width="10.09" height="9.17" transform="translate(2411.06 2984.69) rotate(-180)"/><rect class="cls-5" x="1200.48" y="1506.09" width="10.09" height="9.17" transform="translate(2411.06 3021.35) rotate(-180)"/><rect class="cls-5" x="1200.48" y="1524.91" width="10.09" height="9.17" transform="translate(2411.06 3058.98) rotate(-180)"/><rect class="cls-5" x="1200.48" y="1543.72" width="10.09" height="9.17" transform="translate(2411.06 3096.6) rotate(-180)"/><rect class="cls-5" x="1200.48" y="1562.05" width="10.09" height="9.17" transform="translate(2411.06 3133.27) rotate(-180)"/><rect class="cls-5" x="1200.48" y="1580.86" width="10.09" height="9.17" transform="translate(2411.06 3170.89) rotate(-180)"/><rect class="cls-5" x="1200.48" y="1599.68" width="10.09" height="9.17" transform="translate(2411.06 3208.52) rotate(-180)"/><rect class="cls-5" x="1200.48" y="1618.01" width="10.09" height="9.17" transform="translate(2411.06 3245.18) rotate(-180)"/><rect class="cls-5" x="1200.48" y="1636.82" width="10.09" height="9.17" transform="translate(2411.06 3282.81) rotate(-180)"/><rect class="cls-5" x="1200.48" y="1655.63" width="10.09" height="9.17" transform="translate(2411.06 3320.43) rotate(-180)"/><rect class="cls-5" x="1169.33" y="1450.14" width="22.65" height="9.17" transform="translate(2361.31 2909.44) rotate(-180)"/><rect class="cls-5" x="1169.33" y="1468.95" width="22.65" height="9.17" transform="translate(2361.31 2947.07) rotate(-180)"/><rect class="cls-5" x="1169.33" y="1487.76" width="22.65" height="9.17" transform="translate(2361.31 2984.69) rotate(-180)"/><rect class="cls-5" x="1169.33" y="1506.09" width="22.65" height="9.17" transform="translate(2361.31 3021.35) rotate(-180)"/><rect class="cls-5" x="1169.33" y="1524.91" width="22.65" height="9.17" transform="translate(2361.31 3058.98) rotate(-180)"/><rect class="cls-5" x="1169.33" y="1543.72" width="22.65" height="9.17" transform="translate(2361.31 3096.6) rotate(-180)"/><rect class="cls-5" x="1169.33" y="1562.05" width="22.65" height="9.17" transform="translate(2361.31 3133.27) rotate(-180)"/><rect class="cls-5" x="1169.33" y="1580.86" width="22.65" height="9.17" transform="translate(2361.31 3170.89) rotate(-180)"/><rect class="cls-5" x="1169.33" y="1599.68" width="22.65" height="9.17" transform="translate(2361.31 3208.52) rotate(-180)"/><rect class="cls-5" x="1169.33" y="1618.01" width="22.65" height="9.17" transform="translate(2361.31 3245.18) rotate(-180)"/><rect class="cls-5" x="1169.33" y="1636.82" width="22.65" height="9.17" transform="translate(2361.31 3282.81) rotate(-180)"/><rect class="cls-5" x="1169.33" y="1655.63" width="22.65" height="9.17" transform="translate(2361.31 3320.43) rotate(-180)"/></g><rect class="cls-6" x="1259.17" y="1677.82" width="18.29" height="17.54" transform="translate(2536.62 3373.18) rotate(-180)"/><rect class="cls-6" x="1239.34" y="1677.82" width="18.29" height="17.54" transform="translate(2496.96 3373.18) rotate(-180)"/><rect class="cls-6" x="1210.57" y="1677.82" width="18.29" height="8.77" transform="translate(2439.43 3364.41) rotate(-180)"/><rect class="cls-6" x="1187.24" y="1677.82" width="18.29" height="8.77" transform="translate(2392.77 3364.41) rotate(-180)"/><rect class="cls-7" x="1169.33" y="1430.46" width="125.02" height="9.53" transform="translate(2463.67 2870.45) rotate(-180)"/><rect class="cls-7" x="1169.33" y="1413.51" width="125.02" height="9.53" transform="translate(2463.67 2836.55) rotate(-180)"/><polygon class="cls-22" points="1270.57 1399.71 1177.67 1399.71 1177.67 1379.62 1250.49 1379.62 1270.57 1399.71"/><path class="cls-23" d="M1029.4,1516.26v180h176.67V1534.15c0-2.52-.08-5-.24-7.49q-.27-4.5-.89-8.9a113.19,113.19,0,0,0-2.54-12.8q-1.17-4.55-2.68-8.91a110.12,110.12,0,0,0-5.38-12.81c-1.53-3.06-3.18-6-5-8.9a101.09,101.09,0,0,0-9.4-12.8,96.62,96.62,0,0,0-8.72-8.91,91,91,0,0,0-18.38-12.81,82.28,82.28,0,0,0-38.35-9.53h-9.34a68.72,68.72,0,0,0-36.88,10.85,77.37,77.37,0,0,0-14.08,11.49,82.66,82.66,0,0,0-7.49,8.91,87.38,87.38,0,0,0-7.73,12.8,89.18,89.18,0,0,0-3.81,8.9,93,93,0,0,0-3.68,12.81c-.63,2.92-1.11,5.88-1.46,8.91A97.85,97.85,0,0,0,1029.4,1516.26Z"/><g class="cls-24"><path class="cls-5" d="M1089.82,1483.24v12.81h109.9a110.12,110.12,0,0,0-5.38-12.81Z"/><path class="cls-5" d="M1089.82,1461.54v12.8h99.55a101.09,101.09,0,0,0-9.4-12.8Z"/><path class="cls-5" d="M1089.82,1439.82v12.81h81.43a91,91,0,0,0-18.38-12.81Z"/><rect class="cls-5" x="1089.82" y="1548.38" width="116.25" height="12.8"/><path class="cls-5" d="M1089.82,1526.66v12.81h116.25v-5.32c0-2.52-.08-5-.24-7.49Z"/><path class="cls-5" d="M1089.82,1505v12.8h115.12a113.19,113.19,0,0,0-2.54-12.8Z"/><rect class="cls-5" x="1089.82" y="1570.08" width="116.25" height="12.81"/><rect class="cls-5" x="1089.82" y="1635.21" width="116.25" height="12.81"/><rect class="cls-5" x="1089.82" y="1613.51" width="116.25" height="12.8"/><rect class="cls-5" x="1089.82" y="1591.79" width="116.25" height="12.8"/></g><g class="cls-24"><path class="cls-5" d="M1031.51,1496.05h36.79v-12.81h-33.11A93,93,0,0,0,1031.51,1496.05Z"/><path class="cls-5" d="M1039,1474.34h29.3v-12.8h-21.57A87.38,87.38,0,0,0,1039,1474.34Z"/><path class="cls-5" d="M1054.22,1452.63h14.08v-11.49A77.37,77.37,0,0,0,1054.22,1452.63Z"/><rect class="cls-5" x="1029.4" y="1548.38" width="38.91" height="12.8"/><rect class="cls-5" x="1029.4" y="1526.66" width="38.91" height="12.81"/><path class="cls-5" d="M1029.4,1516.26v1.5h38.9V1505h-38.25A97.85,97.85,0,0,0,1029.4,1516.26Z"/><rect class="cls-5" x="1029.4" y="1570.08" width="38.91" height="12.81"/><rect class="cls-5" x="1029.4" y="1635.21" width="38.91" height="12.81"/><rect class="cls-5" x="1029.4" y="1613.51" width="38.91" height="12.8"/><rect class="cls-5" x="1029.4" y="1591.79" width="38.91" height="12.8"/></g><rect class="cls-25" x="1089.82" y="1664.47" width="58.13" height="31.81" transform="translate(2237.76 3360.75) rotate(-180)"/><rect class="cls-25" x="1156.04" y="1675.85" width="13.28" height="7.27" transform="translate(2325.37 3358.97) rotate(-180)"/><rect class="cls-25" x="1156.04" y="1664.47" width="13.28" height="7.27" transform="translate(2325.37 3336.21) rotate(-180)"/><rect class="cls-25" x="1173.17" y="1675.85" width="13.28" height="7.27" transform="translate(2359.62 3358.97) rotate(-180)"/><rect class="cls-25" x="1173.17" y="1664.47" width="13.28" height="7.27" transform="translate(2359.62 3336.21) rotate(-180)"/><rect class="cls-25" x="1049.9" y="1675.85" width="13.28" height="7.27" transform="translate(2113.09 3358.97) rotate(-180)"/><rect class="cls-25" x="1049.9" y="1664.47" width="13.28" height="7.27" transform="translate(2113.09 3336.21) rotate(-180)"/><rect class="cls-25" x="1067.03" y="1675.85" width="13.28" height="7.27" transform="translate(2147.34 3358.97) rotate(-180)"/><rect class="cls-25" x="1067.03" y="1664.47" width="13.28" height="7.27" transform="translate(2147.34 3336.21) rotate(-180)"/></g></g><path class="cls-26" d="M926.5,1615.26h196.39s-20-65.1-50.26-43.79-45.77-62.27-105.51-30.49-40.1,58.49-99.52,42.28-59.41,32-59.41,32Z"/><path class="cls-27" d="M2398.2,817.14a9.41,9.41,0,0,0-3.53.69,17.83,17.83,0,0,0-17.83-17.49,18.48,18.48,0,0,0-3.51.34,25.93,25.93,0,0,0-50.09,9.41c0,.26,0,.52,0,.77a13,13,0,1,0-4.42,25.15h79.37a9.44,9.44,0,1,0,0-18.87Z"/><path class="cls-28" d="M1158.17,999.12a12.37,12.37,0,0,0-4.64.9,23.43,23.43,0,0,0-28-22.54,34.09,34.09,0,0,0-65.85,12.37c0,.34,0,.68,0,1a17.28,17.28,0,0,0-5.82-1,17,17,0,0,0,0,34.08h104.34a12.41,12.41,0,1,0,0-24.81Z"/><path class="cls-29" d="M1876.91,573.86a24.7,24.7,0,0,0-9.28,1.8,46.92,46.92,0,0,0-56.11-45.07,68.17,68.17,0,0,0-131.7,24.73c0,.68,0,1.36,0,2a34.08,34.08,0,1,0-11.63,66.12h208.68a24.81,24.81,0,0,0,0-49.62Z"/><path class="cls-29" d="M1056.05,669.88a17.92,17.92,0,0,0-7.2,1.51c-.39-21.32-16.54-38.47-36.43-38.47a34,34,0,0,0-7.17.76c-7.69-21.26-26.89-36.34-49.36-36.34-29.25,0-53,25.54-53,57,0,.57,0,1.14,0,1.71a24.54,24.54,0,0,0-9-1.71c-14.62,0-26.48,12.77-26.48,28.51s11.86,28.52,26.48,28.52h162.13c10.65,0,19.28-9.3,19.28-20.76S1066.7,669.88,1056.05,669.88Z"/><path class="cls-29" d="M2235.86,626a9.06,9.06,0,0,0-3.42.67A17.31,17.31,0,0,0,2211.77,610a25.11,25.11,0,0,0-48.51,9.11c0,.25,0,.5,0,.75a12.56,12.56,0,1,0-4.28,24.36h76.87a9.14,9.14,0,0,0,0-18.28Z"/><path class="cls-30" d="M1303.67,1706.18c-1-.75-3.92-3.12-8.44-7.06-17.8-15.5-59.65-55.3-97.24-116-36.48-58.92-69-137.56-71.56-232.85,0,0-19.19-38.88-22.47,4.06-3.28-42.94-22.47-4.06-22.47-4.06-2.14,78.34-24.47,145.42-52.62,199.55-6.08,11.72-12.45,22.82-18.94,33.3-8.19,13.25-16.6,25.5-24.91,36.71-29.64,40-58.11,66.92-72.11,79.13-4.64,4-7.69,6.49-8.66,7.25l-.33.26H1304Z"/><path class="cls-31" d="M913.48,1706.44H855.62a28.93,28.93,0,0,1,57.29-5.73A28.48,28.48,0,0,1,913.48,1706.44Z"/><circle class="cls-32" cx="870.09" cy="1656.09" r="14.47"/><path class="cls-33" d="M1045.06,1616.24a34.83,34.83,0,0,0-64-19.1h0A71.35,71.35,0,0,0,892,1666.22a72.28,72.28,0,0,0,1.1,12.57,71.12,71.12,0,0,0,11.18,27.46l.14.19H1022.2a71.48,71.48,0,0,0,8.93-62.33h0A34.78,34.78,0,0,0,1045.06,1616.24Z"/><path class="cls-34" d="M1316,1666.22a71.05,71.05,0,0,1-12.28,40l-.14.19H1185.72A71.34,71.34,0,1,1,1316,1666.22Z"/><circle class="cls-34" cx="1370.33" cy="1651.08" r="16.25"/><circle class="cls-35" cx="1194.63" cy="1580.35" r="14.47"/><path class="cls-34" d="M1375.71,1683.69a41.81,41.81,0,0,1-6.68,22.75h-70.77a40.66,40.66,0,0,1-3-5.59,42.07,42.07,0,0,1,59.32-53.67,42,42,0,0,1,21.16,36.51Z"/><rect class="cls-36" x="1073.76" y="1316.19" width="60.39" height="38.52"/><path class="cls-37" d="M1104,1072.15v89.37H1059v-6.32C1059,1098.86,1104,1072.15,1104,1072.15Z"/><path class="cls-38" d="M1104,1161.52v182.92H1059V1161.52Z"/><path class="cls-39" d="M1059,1252.52l-46.34,70.07a15.69,15.69,0,0,0-2.45,8.57h0c0,7.33,4.65,13.28,10.39,13.28H1059Z"/><rect class="cls-40" x="1055.6" y="1161.52" width="48.36" height="9.29"/><path class="cls-41" d="M1104,1072.15v89.37h44.94v-6.32C1148.9,1098.86,1104,1072.15,1104,1072.15Z"/><path class="cls-42" d="M1104,1161.52v182.92h44.94V1161.52Z"/><path class="cls-43" d="M1148.9,1252.52l46.34,70.07a15.61,15.61,0,0,1,2.46,8.57h0c0,7.33-4.66,13.28-10.4,13.28h-38.4Z"/><rect class="cls-44" x="1103.96" y="1161.52" width="48.36" height="9.29"/><rect class="cls-45" x="1098.77" y="1252.52" width="10.38" height="91.92" rx="3.53"/><circle class="cls-46" cx="1103.96" cy="1208.93" r="30.2"/><path class="cls-47" d="M1128.83,1208.93a24.85,24.85,0,1,1-4.55-14.35A24.87,24.87,0,0,1,1128.83,1208.93Z"/><path class="cls-5" d="M1124.28,1194.58l-34.67,34.66a24.87,24.87,0,1,1,34.67-34.66Z"/><rect class="cls-48" x="1072.94" y="1351.15" width="62.03" height="3.56"/><path class="cls-49" d="M1228,862.88s109.15-41.3,169.52,43.61,163.56,57,202.25,0,65.69,74.26,117.61,29.84c0,0-11.64,51.64-63.7,23.88s-21.59,39.8-99.48,75.12-153.32,31.86-203.13-12.48-124.56-2.53-124.56-2.53Z"/><polygon class="cls-50" points="1221.44 1275.33 1239.79 1273.14 1227.54 1250.04 1221.44 1275.33"/><rect class="cls-51" x="1221.58" y="834.31" width="7.08" height="863.91" rx="3.54"/><path class="cls-52" d="M1521.92,1352.46l-27.27,315.1h-27.52s-10.94-67,.69-132c0,0-7.08-89,6.58-156.86s28.45-76,28.45-76Z"/><polygon class="cls-53" points="1494.65 1344.17 1446.4 1492.73 1393.19 1667.56 1357.95 1667.56 1411.85 1355.91 1498.34 1285.66 1511.93 1294.15 1494.65 1344.17"/><path class="cls-54" d="M1540.19,1110s49.25,51.7,85.87,97.31c0,0,86.15,18.32,108.37,34L1728,1264l-118.51-23.88-74.83-64.65Z"/><path class="cls-55" d="M1757.76,1253.51l15.66,4.91s-3.18,5.93-14.53-.77l-8.66-.85,9.39,3.85,6.51,6.89a9.86,9.86,0,0,1-9.66-4.7l-7.19-1.5,6.11,4.51,2.48,5.37s-4.35.74-5.73-3.44l-7.76-5.21,4.5,5.73.2,4.84s-2.54.37-3.62-5.1l-5.66-5.07-5.31-1.11,9.85-12.78Z"/><path class="cls-56" d="M1736.63,1244.62l27.53,5.72s-5.69,6.92-16.61.6c0,0-7.48,13.72-16.16,12.52Z"/><path class="cls-57" d="M1487.25,1666.82s10.45,12.43,35.61,16.25a2.37,2.37,0,0,1,0,4.14h-35.61l-8-3.67-1.4,3.67h-8s-3.66-12.1,3.07-20.39Z"/><path class="cls-58" d="M1367.18,1666.82s-10.45,12.43-35.61,16.25a2.37,2.37,0,0,0,0,4.14h35.61l8-3.67,1.4,3.67h8s3.66-12.1-3.07-20.39Z"/><polygon class="cls-59" points="1494.48 1031.41 1482.51 1094.72 1516.54 1094.72 1516.54 1052.52 1494.48 1031.41"/><path class="cls-60" d="M1516.54,1063.07v14.43s-25-12.42-25.65-27.1l3.59-19Z"/><path class="cls-61" d="M1498.37,1025.72s-2.57,43.31,36.28,39.35l-5.13-58.93S1503.26,1002.4,1498.37,1025.72Z"/><path class="cls-62" d="M1498.92,1010.53s7.36-12.52,21.22-14h0s7.9-2,19.49,4.35l-4,1s4.78,5.16,8.64-1.23c0,0,6.29,11.6-6.26,12.55l-7.86.69-22.76,1.3-2.84,9.28,1.73,19.83-2.86.25-2.19-13.41-10.17,18C1478.68,1008.33,1498.92,1010.53,1498.92,1010.53Z"/><path class="cls-63" d="M1500.57,1026.67s-5-2.08-6.8,1.36c-2.1,3.92,3.07,12.16,9.08,12.71Z"/><path class="cls-64" d="M1405.06,1360.73l40.5-111.35c-8.65-83-22.88-135.54-22.88-135.54l55.58-25.65,40.27,7.49v.3l.09-.29,21.57,14.35s19.48,151.63-18.27,242.42l-19.07-49.75C1476.83,1352.9,1405.06,1360.73,1405.06,1360.73Z"/><polygon class="cls-5" points="1485.38 1079.54 1511.04 1094.72 1496.48 1112.57 1478.26 1088.19 1485.38 1079.54"/><polygon class="cls-5" points="1511.04 1094.72 1516.54 1089.63 1521.92 1098.56 1521.92 1107.79 1511.04 1094.72"/><path class="cls-65" d="M1496.48,1112.57s20.51,83.78,14.56,143.67c0,0,19.44-67.53,10.88-148.45L1511,1094.72Z"/><polygon class="cls-66" points="1511.04 1094.72 1518.62 1103.84 1514.83 1114.48 1510.29 1114.48 1503.71 1103.7 1511.04 1094.72"/><polygon class="cls-67" points="1734.43 1241.39 1739.5 1243.4 1731.9 1268.04 1726.26 1266.32 1734.43 1241.39"/><path class="cls-68" d="M1514.83,1114.48s23.7,32.52,15.87,92-109.18,36.39-135.44,73.71l-24.87,2.76,7.37-21.79s15.2-17,53.44-19.72,82.72-10,87.42-41.37-8.33-85.54-8.33-85.54Z"/><path class="cls-69" d="M1224,1249.5l-12.09,2.07s-1.84,23,4.6,23.65,15.28-.61,11-25.18Z"/><path class="cls-70" d="M1422.68,1113.84l-72.33,113.55s-18-1.21-110.56,26.69v19.07s105.23-5.47,136.13-16.91c19.34-7.16,64.95-80.76,64.95-80.76S1450.1,1137.79,1422.68,1113.84Z"/><path class="cls-71" d="M1239.79,1254.08l-11.59-9.26-12.9,14.43s10.36,2.15,12.24-9.21c0,0,4.19,23.57,12.25,23.11Z"/><path class="cls-72" d="M1845.62,1036.82s-22.49,8.3-14.61,29.56,18.35,46.12,6.7,52.73c0,0,27.9,18.85,35.66-4.7S1845.62,1036.82,1845.62,1036.82Z"/><path class="cls-73" d="M1946.06,1657.75l-1.2,31.87-3.55-.13.55-14.55-6.18,14.33-25.81.43s-1.58-7.9,7-8.14Z"/><path class="cls-74" d="M1854.61,1104.83s17.31,25.34,10.68,42.36c0,0,25.51-5.35,26.82-22.57L1872,1076.25Z"/><path class="cls-75" d="M1839.92,1060.49l-1.79,47.63s30.52,2.86,33.83-31.87S1841.34,1022.72,1839.92,1060.49Z"/><path class="cls-76" d="M1892.11,1124.62l37.31,25-20.8,127.8s25.78,22.94,45.56,63.38l-94.43-3.56s8.16-90.69-25.29-131.85c0,0-2.22-3.94,5-19.21s25.82-39,25.82-39Z"/><polygon class="cls-5" points="1892.11 1124.62 1889.73 1118.9 1863.59 1141.23 1858.25 1164.98 1892.11 1124.62"/><path class="cls-77" d="M1954.18,1340.79s7.47,30-4,105l-11.43,75s35.87,49.53,7.26,136.94l-12.4-.47L1890.13,1379l-30.38-41.73Z"/><polygon class="cls-78" points="1859.75 1337.23 1933.66 1657.28 1890.13 1378.96 1859.75 1337.23"/><path class="cls-79" d="M1859.75,1337.23l26.88,134.52,40,1.51,8.74-32.31,5.21,32.83,16.09.61-1.93-66.83s10.27-47.1-.56-66.77Z"/><polygon class="cls-80" points="1933.66 1657.28 1921.88 1677.55 1916.89 1681.57 1931.5 1679.04 1946.06 1657.75 1933.66 1657.28"/><path class="cls-81" d="M1842.7,1046.77s-2.55,21.25,13.06,27.54,31.2,30.24,17.61,40.1c0,0,25.56,5.18,38.17-10.82s-1-57.56-40.3-71.27C1857.52,1027.53,1845.73,1026.51,1842.7,1046.77Z"/><rect class="cls-82" x="1793.23" y="1231.95" width="131.31" height="89.96" transform="translate(2647.57 -835.88) rotate(75.98)"/><polygon class="cls-83" points="1816.6 1293.25 1839.13 1297.24 1907.65 1286.59 1902.69 1266.89 1814.94 1286.59 1816.6 1293.25"/><path class="cls-84" d="M1929.42,1149.61s26,36.27,47,107.29l-137.28,33.5-5.19-12.78s60.84-39.5,99.57-36.87l-21.59-41.07S1907.8,1147.35,1929.42,1149.61Z"/><path class="cls-85" d="M1833.94,1277.62l-7.79-5.48-6.86-.26,5.22,5.39-12.71,1.11s-1.48,11.45,10.61,12l16.72,0Z"/><polygon class="cls-86" points="1833.94 1277.62 1839.13 1290.4 1845.89 1288.75 1841.93 1272.73 1833.94 1277.62"/><circle class="cls-87" cx="2242.64" cy="911.92" r="83.37"/><path class="cls-5" d="M2242.88,890.07V877.15a24.29,24.29,0,0,0,6.53.78h0c5.57,0,10.8-1.28,14-3.42a20.88,20.88,0,0,0,9.15-20.71,2.24,2.24,0,0,0-2.2-1.8,49.94,49.94,0,0,0-19.26,4.33,27.26,27.26,0,0,0-10.45,8.35,27.15,27.15,0,0,0-10.44-8.35,49.94,49.94,0,0,0-19.27-4.33,2.22,2.22,0,0,0-2.19,1.8,20.86,20.86,0,0,0,9.15,20.71c3.18,2.14,8.4,3.42,14,3.42a24.35,24.35,0,0,0,6.54-.78v12.92h-41V911h9.46l6,60.87h55.69l6-60.87h9.46v-20.9Zm10.14-29.7a45,45,0,0,1,15.31-3.8,16.34,16.34,0,0,1-7.43,14.23c-2.43,1.64-6.83,2.65-11.48,2.65h0c-3.82,0-5.94-.71-6.34-1.05l-.1-.15a8.09,8.09,0,0,0,0-2.3C2243.79,867.12,2247.14,863.19,2253,860.37Zm-14.7,11.88a1.3,1.3,0,0,1-.1.15c-.41.34-2.52,1.06-6.35,1.06-4.65,0-9-1-11.48-2.66a16.34,16.34,0,0,1-7.43-14.23,44.6,44.6,0,0,1,15.3,3.8c5.88,2.82,9.24,6.75,10.09,9.58A7.42,7.42,0,0,0,2238.32,872.25Zm-31.93,34.24h-4.54v-12h36.56v12Zm58,60.87h-47.57L2211.33,911H2270Zm15-60.87h-36.56v-12h36.56Z"/><path class="cls-5" d="M2241.35,952.85A23.42,23.42,0,0,1,2229,948.6l-2.46,3.58a18.12,18.12,0,0,0,10.35,4.75l1.55.21v4.76h4.38v-4.71l1.56-.2c6.72-.87,10.89-4.75,10.89-10.11,0-6.46-4.08-9.36-14.08-10-5.67-.36-8.54-2.32-8.54-5.82,0-1.28.61-5.45,8.51-5.45a14.65,14.65,0,0,1,8.88,2.57l2.75-3.23a16.5,16.5,0,0,0-8.37-3.13l-1.6-.17v-4.71h-4.38v4.81L2237,922c-3.63.69-9.72,2.81-9.72,9.33,0,7.12,7.37,9.17,13.56,9.64,2.93.17,9,.52,9,5.67C2249.83,950.19,2246.07,953,2241.35,952.85Z"/><circle class="cls-88" cx="1410.83" cy="738.98" r="109.55"/><path class="cls-5" d="M1468.87,703l16.68-16.68-17.41-17.41-16.68,16.68L1452,699l-10.2,10.2a48.22,48.22,0,1,0-61,74.55L1362,814.61l4,2.47,18.7-30.68a47.92,47.92,0,0,0,22.27,6.73v22.72h4.74V793.13A47.83,47.83,0,0,0,1433,787l18.33,30.08,4-2.47L1437,784.47a48.17,48.17,0,0,0,8.1-71.89l10.1-10.1Zm10-16.68L1467,698.15l-7.2-.25,15.34-15.34Zm-10.7-10.7,3.62,3.62-15.23,15.23-.25-7ZM1452.87,745a43.55,43.55,0,1,1-14.48-32.37l-12.57,12.57a25.8,25.8,0,1,0,3.35,3.35l12.57-12.57A43.31,43.31,0,0,1,1452.87,745Zm-41.82,1.68,14.75-14.75a21,21,0,1,1-3.35-3.36l-14.75,14.75Z"/><circle class="cls-89" cx="1814.82" cy="860.74" r="83.37"/><path class="cls-5" d="M1857,911.22a10.6,10.6,0,0,0-4.28-18.87V879.5h-35.8V871h22.72V859.78c0-7.85-8.69-14-15.39-16.8a21.4,21.4,0,0,0,6.07-4.68,25.81,25.81,0,0,0,6.31-17.41c0-14.14-9.78-25.65-21.79-25.65S1793,806.75,1793,820.89a25.76,25.76,0,0,0,6.31,17.41,21.26,21.26,0,0,0,6.07,4.68c-6.71,2.76-15.39,8.95-15.39,16.8V871h22.72v8.49h-35.8v12.85a10.6,10.6,0,0,0-4.29,18.87,11,11,0,0,0-4.68,9h4.15a6.9,6.9,0,0,1,13.8,0h4.15a11,11,0,0,0-4.68-9,10.6,10.6,0,0,0-4.29-18.87v-8.69h31.64v8.69a10.6,10.6,0,0,0-4.29,18.87,11,11,0,0,0-4.69,9h4.16a6.9,6.9,0,0,1,13.8,0h4.15a11,11,0,0,0-4.69-9,10.6,10.6,0,0,0-4.28-18.87v-8.69h31.64v8.69a10.6,10.6,0,0,0-4.29,18.87,11,11,0,0,0-4.69,9h4.16a6.9,6.9,0,0,1,13.8,0h4.15A11,11,0,0,0,1857,911.22Zm-71.52-8.47a6.44,6.44,0,1,1-6.44-6.45A6.45,6.45,0,0,1,1785.46,902.75Zm29.36-103.35c8.26,0,15.21,7,17.11,16.32l-.1-.12c-8.85,7.8-20.14-.12-23.75-3.83a2.07,2.07,0,0,0-1.86-.59,17.09,17.09,0,0,0-8.54,4.69C1799.54,806.43,1806.51,799.4,1814.82,799.4Zm-17.56,23.36,0,0c1-1.68,4.4-6,8.65-7.28a30.52,30.52,0,0,0,6.78,4.76v10.8h4.16V822c.38.13.77.24,1.15.34a20.17,20.17,0,0,0,5.23.71,16.54,16.54,0,0,0,9.16-2.7c0,.18,0,.36,0,.55,0,11.51-7.58,20.19-17.63,20.19C1805.32,841.08,1798,833.33,1797.26,822.76Zm26.54,24.55-9,11.36-9-11.36a16.4,16.4,0,0,1,5.64-1.74h6.68A16.46,16.46,0,0,1,1823.8,847.31Zm-2.54,55.44a6.45,6.45,0,1,1-6.44-6.45A6.45,6.45,0,0,1,1821.26,902.75Zm-27.09-35.89v-7.08c0-4.3,4.42-8,7-9.81.31-.22.62-.42.93-.62l12.67,16,12.66-16c.31.2.63.4.94.62,2.63,1.82,7,5.51,7,9.81v7.08Zm56.45,42.33a6.45,6.45,0,1,1,6.44-6.44A6.45,6.45,0,0,1,1850.62,909.19Z"/><path class="cls-90" d="M1518.43,794.55a1,1,0,0,1-.29-2,51,51,0,0,1,6-1.31,1,1,0,0,1,.33,2,52.54,52.54,0,0,0-5.73,1.24A1,1,0,0,1,1518.43,794.55Z"/><path class="cls-90" d="M1644.8,882.37h0a81.76,81.76,0,0,1-12.46-1.54,1,1,0,1,1,.4-2,79.09,79.09,0,0,0,12.16,1.5,1,1,0,0,1,1,1A1,1,0,0,1,1644.8,882.37Zm20.59-1.45a1,1,0,0,1-.19-2,87.66,87.66,0,0,0,11.87-3.1,1,1,0,0,1,.64,1.9,90.14,90.14,0,0,1-12.14,3.16A.55.55,0,0,1,1665.39,880.92Zm-52.26-7.1a.91.91,0,0,1-.48-.13,58.84,58.84,0,0,1-10.32-7.23,1,1,0,1,1,1.32-1.5,57.47,57.47,0,0,0,10,7,1,1,0,0,1-.48,1.88Zm-22.81-23.29a1,1,0,0,1-.89-.54,64,64,0,0,1-4.66-11.68,1,1,0,1,1,1.92-.56,61.72,61.72,0,0,0,4.51,11.32,1,1,0,0,1-.42,1.35A1.11,1.11,0,0,1,1590.32,850.53Zm-10.72-31.2a1,1,0,0,1-.91-.58,50.35,50.35,0,0,0-6.37-10.31,1,1,0,1,1,1.55-1.26,52.16,52.16,0,0,1,6.63,10.73,1,1,0,0,1-.48,1.33A1.06,1.06,0,0,1,1579.6,819.33Zm-22.81-22.9a1,1,0,0,1-.4-.09,48.25,48.25,0,0,0-11.66-3.31,1,1,0,1,1,.31-2,50.15,50.15,0,0,1,12.14,3.46,1,1,0,0,1,.53,1.31A1,1,0,0,1,1556.79,796.43Z"/><path class="cls-90" d="M1696,868.71a1,1,0,0,1-.56-1.83c1.65-1.1,3.25-2.28,4.76-3.5a1,1,0,0,1,1.25,1.55c-1.55,1.26-3.2,2.47-4.9,3.61A.94.94,0,0,1,1696,868.71Z"/><path class="cls-90" d="M2101.37,922.82h-2.19a1,1,0,0,1-1-1,1,1,0,0,1,1-1h0c3.79.05,7.81,0,11.92-.26a1,1,0,1,1,.11,2C2107.86,922.73,2104.54,922.82,2101.37,922.82Zm-22-1.77h-.18a91.08,91.08,0,0,1-11.76-2.85,1,1,0,0,1,.61-1.91,90,90,0,0,0,11.5,2.79,1,1,0,0,1-.17,2Zm51.75-.48a1,1,0,0,1-.13-2l.14,0a1,1,0,0,1,.28,2l-.15,0Zm-81.36-10.86a.94.94,0,0,1-.55-.17,71.41,71.41,0,0,1-9.49-7.55,1,1,0,1,1,1.37-1.46,69,69,0,0,0,9.23,7.35,1,1,0,0,1,.28,1.38A1,1,0,0,1,2049.72,909.71Zm-22.33-22.61a1,1,0,0,1-.82-.42c-2.54-3.54-4.94-7.19-6.75-10a1,1,0,0,1,1.68-1.09c1.8,2.77,4.18,6.39,6.7,9.91a1,1,0,0,1-.23,1.39A1,1,0,0,1,2027.39,887.1Zm-17.69-26.68a1,1,0,0,1-.82-.43c-2.48-3.57-4.81-6.7-7.13-9.54a1,1,0,0,1,1.55-1.27c2.35,2.89,4.71,6.06,7.22,9.67a1,1,0,0,1-.25,1.39A1,1,0,0,1,2009.7,860.42Zm-90.34-23a1,1,0,0,1-.71-.3,1,1,0,0,1,0-1.41,52.18,52.18,0,0,1,9.92-7.19,1,1,0,0,1,1,1.74,50.67,50.67,0,0,0-9.51,6.88A1,1,0,0,1,1919.36,837.4Zm69.17-.81a1,1,0,0,1-.63-.22,67.88,67.88,0,0,0-9.74-6.68,1,1,0,0,1-.39-1.36,1,1,0,0,1,1.36-.38,68.32,68.32,0,0,1,10,6.87,1,1,0,0,1,.14,1.4A1,1,0,0,1,1988.53,836.59Zm-40.7-12.85a1,1,0,0,1-.14-2,47.19,47.19,0,0,1,12.22-.19,1,1,0,0,1,.88,1.11,1,1,0,0,1-1.11.88,45,45,0,0,0-11.71.18Z"/><path class="cls-27" d="M966.36,876.8a9.41,9.41,0,0,0-3.53.69A17.84,17.84,0,0,0,945,860a17.63,17.63,0,0,0-3.51.35,25.93,25.93,0,0,0-50.09,9.4c0,.26,0,.52,0,.78A13,13,0,1,0,887,895.68h79.37a9.44,9.44,0,0,0,0-18.88Z"/></g></svg>