<svg id="Слой_1" data-name="Слой 1" xmlns="http://www.w3.org/2000/svg" viewBox="0 0 3000 2000"><defs><style>.cls-1{fill:#f8fbff;}.cls-2{fill:none;}.cls-3{fill:#d2e3fc;}.cls-4{fill:#dfebfd;}.cls-5{fill:#95c38b;}.cls-6{fill:#c6ccd5;}.cls-7{fill:#d7d9dc;}.cls-8{fill:#f1a34f;}.cls-9{fill:#699dee;}.cls-10{fill:#e4edf9;}.cls-11{fill:#afcdfb;}.cls-12{fill:#e9f3fe;}.cls-13{fill:#cae0ff;}.cls-14{fill:#1c468a;}.cls-15{fill:#78acea;}.cls-16{fill:#fff;}.cls-17{fill:#a8d29f;}.cls-18{fill:#e49963;}.cls-19{fill:#4a75cb;}.cls-20{fill:#2b478b;}.cls-21{fill:#163560;}.cls-22{fill:#a0795f;}.cls-23{fill:#739af0;}.cls-24{fill:#d68d5d;}.cls-25{fill:#fafdff;}.cls-26{fill:#b7d5f9;}.cls-27{fill:#f99746;}.cls-28{fill:#ed7d2b;}.cls-29{opacity:0.5;}.cls-30{fill:#d1a586;}.cls-31{fill:#f4a269;}.cls-32{fill:#ffb27d;}.cls-33{fill:#c65447;}.cls-34{fill:#b5453c;}.cls-35{fill:#9e332e;}</style></defs><path class="cls-1" d="M1344.19,1736s-740.36,30.46-952.85-186.89-141-441.88,15.21-509.26,181.34-133.64,93.89-219.66S300,555.8,474.19,368.53s386,68.9,545.2,29.68,101.47-129.87,301.1-119.6c23.52,1.21,109.6-176.44,322.54-177.74,217.27-1.33,213.06,249.75,384.48,144.41s270.54-71.85,349.86,85.69,52.76,373.41-108,506.09S2126,960.51,2190.91,1084.7s131.45,536.66-146.46,603.55S1344.19,1736,1344.19,1736Z"/><path class="cls-2" d="M1564.76,1641.6s-728.95,29.52-937.87-174-138.25-414.16,15.64-477.54S821.24,864.51,735.25,784,538.27,536.28,710,360.46s379.9,64.1,536.72,27.12S1346.8,265.67,1543.32,275c23.16,1.1,108.14-165.59,317.79-167.09,213.91-1.52,209.44,233.91,378.35,134.92s266.45-67.72,344.34,79.89,51.45,350.07-107,474.69-141.3,115.94-77.57,232.31,128.72,503.05-145,566.13S1564.76,1641.6,1564.76,1641.6Z"/><path class="cls-3" d="M897.32,1286.49s95.43,20,90.61,37.54-104.73-30-104.73-30-73.66,65.88-83.91,99.46c0,0,107.58-15.22,98.6.58s-120.21,36.84-120.21,36.84-50.57,77.89-6.19,112.14,78.44,22.74,86.74,11.53,40.49-91.83,50-85.43,3.78,67.46-18.11,93.78c0,0,96.09.76,110-44.71s-7.51-70.22,1.63-98.17,24.62-44.71,26.3-28.15-22.2,60.36-12.67,89.93,13.65,52,38.81,14.86,50.16-112.22,25-139.75q-1.63-1.8-3.15-3.44a17.68,17.68,0,0,1,3.15,3.44c7.48-5.68,33-8.28,52.2-9.46,3.18,0,7.68-.18,13.88-.67h0c2.75-.1,5-.17,6.55-.2,41.76.52,100.48,33.74,100.48,33.74l5.92-7.72c-54.38-45.06-119.57-32.55-119.57-32.55-49.68,5.05-84.66-10.67-84.66-10.67s-11.38-96.23-85.85-84.37C968.17,1245.07,919.64,1259.13,897.32,1286.49Z"/><path class="cls-4" d="M2155.54,475.64c-25.42-93.87-183.82-64.53-183.82-64.53s-107.56,164.27-138.84,168.18,64.53-158.41,64.53-158.41c-60.62-5.86-215.11,68.45-215.11,68.45s9.77,191.65-21.52,187.73,0-170.13,0-170.13c-58.66,17.6-113.42,86.05-113.42,86.05-68.44,111.46,78.22,193.6,78.22,193.6s2,66.49-39.11,142.75h0s-9.27,14.09-18.69,38h16q2-6.44,4.34-12.41a.11.11,0,0,1,0-.08c0-.05,0-.11.07-.17,1.09-2.47,2.67-6,4.63-10.27v0c4.88-9.56,8.19-16.63,10.27-21.73,0,0,0,0,0,0,14.64-30,35.73-69.15,49.8-77.36a30.94,30.94,0,0,1-3.42-7.33l3.42,7.33c27.38,58.67,164.27,68.45,240.54,52.8s43-37.15,2-72.06-127.11-25.71-152.53-39.4,11.73-27.38,62.58-23.47,76.26,54.76,158.4,62.58S2108.61,679,2108.61,679c-56.71,17.6-158.4-13.69-162.31-33.24s146.67-17.6,170.13-23.47S2181,569.51,2155.54,475.64Z"/><path class="cls-3" d="M636.88,482.54c35-56,132.26-5.78,132.26-5.78s37.62,128,57.2,136.72-10.79-115.73-10.79-115.73C856.14,505.87,942,584.62,942,584.62S897.89,707.35,919,711s33.5-110.65,33.5-110.65c34.69,23,56.83,78.29,56.83,78.29,22.57,86-89,110.52-89,110.52S906,832,917.68,889.67h0s3.25,11,4.67,28.41L912,914.93c0-3-.13-6-.38-8.93a.07.07,0,0,0,0,0c0-.05,0-.09,0-.13-.23-1.82-.56-4.42-1-7.59h0s0,0,0,0c-1.3-7.18-2.06-12.43-2.41-16.16v0c-3.61-22.42-9.63-52-17.16-60.12a21,21,0,0,0,3.67-4.1l-3.67,4.1c-29.36,32.76-120.32,12.17-166.84-13s-20.67-32.64,12.92-47.26,87.73,8.31,107,4.41S841.79,745.9,808,738.43,747.57,759,692.6,748s-65.24-123.89-65.24-123.89c33.42,22.62,105.72,22.29,112.12,10.34s-91.93-40.33-106-48.76S601.86,538.59,636.88,482.54Z"/><path class="cls-4" d="M1459.26,475.84c-24.51-40.82-95.2-5.86-95.2-5.86s-28.73,91.74-43,97.76,9.25-83.23,9.25-83.23c-29.34,5.33-92.18,61-92.18,61s30.19,89,14.93,91.3-22.71-80.14-22.71-80.14c-25.29,16.12-41.94,55.67-41.94,55.67-17.36,61.65,62.69,80.75,62.69,80.75s9.8,31.06.64,72.46h0a111.45,111.45,0,0,0-3.73,20.41l7.54-2.14c0-2.19.17-4.34.39-6.43,0,0,0,0,0,0s0-.06,0-.09c.19-1.31.46-3.17.81-5.45h0s0,0,0,0c1-5.16,1.64-8.93,1.94-11.61v0c2.89-16.09,7.6-37.34,13.13-43.08a15.51,15.51,0,0,1-2.59-3l2.59,3c20.73,24,86.51,10.3,120.35-7.25s15.3-23.24-8.7-34.2-63.31,4.86-77.11,1.8,1.87-14.46,26.34-19.4,43.24,15.6,83,8.32,48.58-88.4,48.58-88.4c-24.37,15.86-76.44,14.7-80.89,6s66.73-27.87,77-33.77S1483.77,516.65,1459.26,475.84Z"/><path class="cls-5" d="M265.79,1554.78c-.78.22-1.78.44-3,.66C263.76,1555.2,264.77,1555,265.79,1554.78Z"/><path class="cls-6" d="M1265,988.83l-48.1,571.89s-5,34.67,20.75,34.73c42.39.1,211,0,211,0s-31.91-7.21-31.52-23.45c.46-19.14,56.22-588.58,56.22-588.58Z"/><path class="cls-6" d="M1462.38,1585.08c-8.34,0-169.41.53-210.69,0-18-.23-21.15-16-21.3-26.21a50.76,50.76,0,0,1,.54-8.51l1.25-14.87,3.19-37.88,2.82-33.48,3.62-43,3-36.3L1279,978.45,1487.4,973s-23.48,238.31-40.09,411.78c-1.86,19.33-3.62,37.86-5.25,55.16q-.8,8.28-1.54,16.18c-1.54,16.41-2.94,31.48-4.17,44.79q-1,10.53-1.78,19.5c-2.12,23.4-3.36,38.34-3.38,41.18a23.29,23.29,0,0,0,.41,4.62C1435,1584.48,1459.25,1585.08,1462.38,1585.08Z"/><polygon class="cls-7" points="758.98 677.63 876.13 1148.23 892.17 1212.68 946.74 1431.87 1960.49 1431.87 1759.37 677.63 758.98 677.63"/><polygon class="cls-7" points="758.97 677.63 742.74 683.04 925.15 1448.24 946.74 1431.87 758.97 677.63"/><polygon class="cls-6" points="925.15 1448.24 1932.67 1448.24 1960.49 1431.87 946.74 1431.87 925.15 1448.24"/><rect class="cls-6" x="1278.96" y="1585.31" width="218.14" height="10.37" transform="translate(2776.07 3180.98) rotate(180)"/><polygon class="cls-8" points="1911.38 1292.89 1746.89 687.6 761.46 687.6 758.98 677.63 1759.37 677.63 1923.31 1291.54 1911.38 1292.89"/><polygon class="cls-7" points="1441.65 1448.23 1440.52 1456.16 1235.37 1497.61 1238.19 1464.13 1239.53 1448.23 1441.65 1448.23"/><path class="cls-7" d="M1462.38,1585.08c-8.34,0-169.41.53-210.69,0-18-.23-21.15-16-21.3-26.21l204.18-38.42c-2.12,23.4-3.36,38.34-3.38,41.18a23.29,23.29,0,0,0,.41,4.62C1435,1584.48,1459.25,1585.08,1462.38,1585.08Z"/><polygon class="cls-6" points="1392.07 1279.18 946.74 1431.87 892.17 1212.68 1392.07 1279.18"/><polygon class="cls-9" points="758.97 677.63 1759.37 677.63 1921.68 1283.8 909.88 1283.8 758.97 677.63"/><ellipse class="cls-6" cx="1453.57" cy="1360.43" rx="24.43" ry="29.66" transform="translate(-530.7 1522.6) rotate(-47.78)"/><polygon class="cls-10" points="1874.5 1257.53 937.83 1257.53 831.75 834.96 823.62 802.55 816.68 774.91 800.41 710.1 1723.59 710.1 1741.45 774.91 1749.07 802.55 1758.01 834.96 1874.5 1257.53"/><polygon class="cls-11" points="1741.45 774.91 816.68 774.91 800.41 710.1 1723.59 710.1 1741.45 774.91"/><path class="cls-12" d="M838.6,739.39c-1.11-4.48,1.61-8.1,6.09-8.1a11.06,11.06,0,0,1,10.12,8.1c1.11,4.47-1.61,8.1-6.08,8.1A11.08,11.08,0,0,1,838.6,739.39Z"/><path class="cls-12" d="M865.52,739.39c-1.11-4.48,1.61-8.1,6.09-8.1a11.06,11.06,0,0,1,10.12,8.1c1.11,4.47-1.61,8.1-6.08,8.1A11.08,11.08,0,0,1,865.52,739.39Z"/><path class="cls-12" d="M894.51,739.39c-1.11-4.48,1.61-8.1,6.08-8.1a11.07,11.07,0,0,1,10.13,8.1c1.11,4.47-1.61,8.1-6.09,8.1A11.08,11.08,0,0,1,894.51,739.39Z"/><polygon class="cls-13" points="1668.16 1220.04 974.34 1220.04 868.75 805.69 1552.79 805.69 1668.16 1220.04"/><polygon class="cls-3" points="1757.89 902.1 1600.64 902.1 1571.89 805.69 1731.05 805.69 1757.89 902.1"/><polygon class="cls-14" points="1333.65 846.04 1243.67 846.04 1239.97 832.17 1329.94 832.17 1333.65 846.04"/><polygon class="cls-15" points="1493.17 846.04 1345.98 846.04 1342.28 832.17 1489.47 832.17 1493.17 846.04"/><polygon class="cls-15" points="1348.77 883.42 1189.2 883.42 1185.5 869.54 1345.07 869.54 1348.77 883.42"/><polygon class="cls-8" points="1445.83 883.42 1363.12 883.42 1359.42 869.54 1442.13 869.54 1445.83 883.42"/><polygon class="cls-9" points="1360.8 947.77 1270.83 947.77 1267.12 933.89 1357.1 933.89 1360.8 947.77"/><polygon class="cls-15" points="1520.32 947.77 1373.13 947.77 1369.43 933.89 1516.62 933.89 1520.32 947.77"/><polygon class="cls-16" points="1375.92 985.14 1216.36 985.14 1212.65 971.27 1372.22 971.27 1375.92 985.14"/><polygon class="cls-16" points="1472.98 985.14 1390.28 985.14 1386.57 971.27 1469.28 971.27 1472.98 985.14"/><polygon class="cls-14" points="1279.3 1043 974.9 1043 971.2 1029.12 1275.6 1029.12 1279.3 1043"/><polygon class="cls-9" points="1388.74 1043 1298.76 1043 1295.06 1029.12 1385.03 1029.12 1388.74 1043"/><polygon class="cls-15" points="1548.26 1043 1401.07 1043 1397.36 1029.12 1544.56 1029.12 1548.26 1043"/><polygon class="cls-16" points="1074.85 1080.37 984.87 1080.37 981.17 1066.5 1071.14 1066.5 1074.85 1080.37"/><polygon class="cls-8" points="1403.86 1080.37 1244.29 1080.37 1240.59 1066.5 1400.15 1066.5 1403.86 1080.37"/><polygon class="cls-15" points="1234.37 1080.37 1087.18 1080.37 1083.47 1066.5 1230.67 1066.5 1234.37 1080.37"/><polygon class="cls-15" points="1500.92 1080.37 1418.21 1080.37 1414.51 1066.5 1497.22 1066.5 1500.92 1080.37"/><polygon class="cls-14" points="1313.86 1146.18 1009.46 1146.18 1005.75 1132.31 1310.16 1132.31 1313.86 1146.18"/><polygon class="cls-9" points="1423.3 1146.18 1333.32 1146.18 1329.62 1132.31 1419.59 1132.31 1423.3 1146.18"/><polygon class="cls-16" points="1109.4 1183.56 1019.43 1183.56 1015.73 1169.68 1105.7 1169.68 1109.4 1183.56"/><polygon class="cls-8" points="1438.42 1183.56 1278.85 1183.56 1275.15 1169.68 1434.71 1169.68 1438.42 1183.56"/><polygon class="cls-15" points="1268.93 1183.56 1121.73 1183.56 1118.03 1169.68 1265.23 1169.68 1268.93 1183.56"/><polygon class="cls-15" points="1535.48 1183.56 1452.77 1183.56 1449.07 1169.68 1531.78 1169.68 1535.48 1183.56"/><polygon class="cls-15" points="1679.6 931.93 1610.4 932.14 1608.87 925.86 1678.07 925.64 1679.6 931.93"/><polygon class="cls-15" points="1716.1 931.82 1690.08 931.89 1688.55 925.61 1714.57 925.53 1716.1 931.82"/><polygon class="cls-15" points="1768.85 931.65 1722.85 931.79 1721.32 925.51 1767.31 925.37 1768.85 931.65"/><polygon class="cls-15" points="1652.21 947.91 1614.27 948.03 1612.74 941.75 1650.68 941.63 1652.21 947.91"/><polygon class="cls-15" points="1707.53 947.75 1658.54 947.9 1657.01 941.61 1706 941.46 1707.53 947.75"/><polygon class="cls-15" points="1772.72 947.54 1716.57 947.72 1715.04 941.43 1771.19 941.26 1772.72 947.54"/><polygon class="cls-15" points="1687.88 965.88 1618.68 966.1 1617.14 959.81 1686.35 959.6 1687.88 965.88"/><polygon class="cls-15" points="1724.38 965.77 1698.35 965.85 1696.82 959.56 1722.85 959.48 1724.38 965.77"/><polygon class="cls-15" points="1777.12 965.61 1731.13 965.75 1729.6 959.46 1775.59 959.32 1777.12 965.61"/><polygon class="cls-15" points="1660.49 981.87 1622.55 981.99 1621.02 975.7 1658.96 975.58 1660.49 981.87"/><polygon class="cls-15" points="1715.81 981.7 1666.81 981.85 1665.28 975.57 1714.28 975.41 1715.81 981.7"/><polygon class="cls-15" points="1780.99 981.5 1724.84 981.67 1723.31 975.39 1779.46 975.21 1780.99 981.5"/><polygon class="cls-16" points="1633.61 819.07 1591.93 819.2 1591.01 815.41 1632.69 815.29 1633.61 819.07"/><polygon class="cls-16" points="1655.59 819 1639.92 819.05 1638.99 815.27 1654.66 815.22 1655.59 819"/><polygon class="cls-16" points="1687.35 818.9 1659.65 818.99 1658.73 815.21 1686.43 815.12 1687.35 818.9"/><polygon class="cls-16" points="1617.12 828.7 1594.27 828.77 1593.35 824.99 1616.19 824.91 1617.12 828.7"/><polygon class="cls-16" points="1650.43 828.6 1620.92 828.69 1620 824.9 1649.51 824.81 1650.43 828.6"/><polygon class="cls-16" points="1689.68 828.48 1655.87 828.58 1654.95 824.79 1688.76 824.69 1689.68 828.48"/><polygon class="cls-16" points="1638.59 839.52 1596.92 839.65 1596 835.86 1637.67 835.73 1638.59 839.52"/><polygon class="cls-16" points="1660.57 839.45 1644.9 839.5 1643.98 835.71 1659.65 835.67 1660.57 839.45"/><polygon class="cls-16" points="1692.33 839.35 1664.64 839.44 1663.72 835.65 1691.41 835.57 1692.33 839.35"/><polygon class="cls-16" points="1622.1 849.15 1599.25 849.22 1598.33 845.43 1621.18 845.36 1622.1 849.15"/><polygon class="cls-16" points="1655.41 849.04 1625.91 849.13 1624.98 845.35 1654.49 845.26 1655.41 849.04"/><polygon class="cls-16" points="1694.67 848.92 1660.85 849.03 1659.93 845.24 1693.74 845.14 1694.67 848.92"/><polygon class="cls-15" points="1702.02 1023.9 1632.82 1024.11 1631.29 1017.83 1700.49 1017.61 1702.02 1023.9"/><polygon class="cls-15" points="1738.52 1023.78 1712.5 1023.86 1710.96 1017.58 1736.99 1017.5 1738.52 1023.78"/><polygon class="cls-15" points="1791.26 1023.62 1745.27 1023.76 1743.74 1017.48 1789.73 1017.34 1791.26 1023.62"/><polygon class="cls-15" points="1674.63 1039.88 1636.69 1040 1635.16 1033.72 1673.1 1033.6 1674.63 1039.88"/><polygon class="cls-15" points="1729.95 1039.71 1680.95 1039.87 1679.42 1033.58 1728.42 1033.43 1729.95 1039.71"/><polygon class="cls-15" points="1795.14 1039.51 1738.98 1039.69 1737.45 1033.4 1793.6 1033.23 1795.14 1039.51"/><polygon class="cls-15" points="1715.88 1080.76 1646.68 1080.97 1645.15 1074.68 1714.35 1074.47 1715.88 1080.76"/><polygon class="cls-15" points="1752.38 1080.64 1726.36 1080.72 1724.82 1074.44 1750.85 1074.36 1752.38 1080.64"/><polygon class="cls-15" points="1805.12 1080.48 1759.13 1080.62 1757.6 1074.34 1803.59 1074.2 1805.12 1080.48"/><polygon class="cls-15" points="1688.49 1096.75 1650.55 1096.86 1649.02 1090.58 1686.96 1090.46 1688.49 1096.75"/><polygon class="cls-15" points="1743.81 1096.58 1694.82 1096.73 1693.28 1090.44 1742.28 1090.29 1743.81 1096.58"/><polygon class="cls-15" points="1809 1096.37 1752.85 1096.55 1751.31 1090.26 1807.46 1090.09 1809 1096.37"/><polygon class="cls-15" points="1728.37 1131.99 1659.16 1132.2 1657.63 1125.91 1726.84 1125.7 1728.37 1131.99"/><polygon class="cls-15" points="1764.87 1131.87 1738.84 1131.95 1737.31 1125.67 1763.33 1125.59 1764.87 1131.87"/><polygon class="cls-15" points="1817.61 1131.71 1771.62 1131.85 1770.09 1125.57 1816.08 1125.43 1817.61 1131.71"/><polygon class="cls-15" points="1700.98 1147.97 1663.04 1148.09 1661.51 1141.81 1699.44 1141.69 1700.98 1147.97"/><polygon class="cls-15" points="1756.3 1147.8 1707.3 1147.95 1705.77 1141.67 1754.77 1141.52 1756.3 1147.8"/><polygon class="cls-15" points="1821.48 1147.6 1765.33 1147.78 1763.8 1141.49 1819.95 1141.32 1821.48 1147.6"/><path class="cls-17" d="M1761,1208.18c-11.12,0-22.81-9-26.06-20.17s3.16-20.17,14.29-20.17,22.81,9.05,26,20.17S1772.09,1208.18,1761,1208.18Zm-10.7-36.65c-9.09,0-14.33,7.39-11.67,16.48s12.21,16.49,21.3,16.49,14.32-7.4,11.67-16.49S1759.36,1171.53,1750.27,1171.53Z"/><path class="cls-17" d="M1757.67,1198.27a4.22,4.22,0,0,1-2.26-.94l-11.32-9.06c-1.53-1.23-2-3.17-1.17-4.34s2.84-1.13,4.37.1l8,6.4,4.1-9.48c.59-1.37,2.42-1.67,4.08-.68s2.53,2.91,1.94,4.28L1760,1197a2.14,2.14,0,0,1-1.91,1.26Z"/><path class="cls-8" d="M1816.65,1208.18c-11.12,0-22.81-9-26.06-20.17s3.16-20.17,14.28-20.17,22.81,9.05,26.06,20.17S1827.77,1208.18,1816.65,1208.18Zm-10.7-36.65c-9.09,0-14.33,7.39-11.67,16.48s12.2,16.49,21.29,16.49,14.33-7.4,11.68-16.49S1815,1171.53,1806,1171.53Z"/><path class="cls-8" d="M1811.72,1191.31h0a4.13,4.13,0,0,1-3.68-2.85l-2.5-8.57a2.07,2.07,0,0,1,2-2.85h0a4.11,4.11,0,0,1,3.68,2.85l2.5,8.57A2.07,2.07,0,0,1,1811.72,1191.31Z"/><path class="cls-8" d="M1814,1198h-.62a3.69,3.69,0,0,1-3.29-2.55h0a1.84,1.84,0,0,1,1.8-2.54h.62a3.68,3.68,0,0,1,3.29,2.54h0A1.85,1.85,0,0,1,1814,1198Z"/><path class="cls-17" d="M1698.93,892.81c-6.1,0-12.51-5-14.29-11s1.74-11.06,7.83-11.06,12.51,5,14.29,11.06S1705,892.81,1698.93,892.81Zm-5.87-20.09c-5,0-7.85,4-6.4,9s6.7,9,11.68,9,7.85-4,6.4-9S1698.05,872.72,1693.06,872.72Z"/><path class="cls-17" d="M1697.12,887.38a2.31,2.31,0,0,1-1.24-.51l-6.21-5a1.83,1.83,0,0,1-.64-2.38,1.7,1.7,0,0,1,2.4.05l4.38,3.51,2.25-5.2c.32-.75,1.33-.91,2.24-.37a2,2,0,0,1,1.06,2.35l-2.95,6.83a1.19,1.19,0,0,1-1.05.69Z"/><path class="cls-17" d="M1667.29,892.81c-6.1,0-12.51-5-14.29-11s1.73-11.06,7.83-11.06,12.51,5,14.29,11.06S1673.39,892.81,1667.29,892.81Zm-5.87-20.09c-5,0-7.85,4-6.4,9s6.69,9,11.68,9,7.85-4,6.4-9S1666.41,872.72,1661.42,872.72Z"/><path class="cls-17" d="M1665.48,887.38a2.31,2.31,0,0,1-1.24-.51l-6.21-5a1.83,1.83,0,0,1-.64-2.38,1.7,1.7,0,0,1,2.4.05l4.38,3.51,2.25-5.2c.32-.75,1.33-.91,2.24-.37a2,2,0,0,1,1.06,2.35l-3,6.83a1.19,1.19,0,0,1-1,.69Z"/><path class="cls-17" d="M1634.51,892.81c-6.09,0-12.5-5-14.28-11s1.73-11.06,7.83-11.06,12.5,5,14.28,11.06S1640.61,892.81,1634.51,892.81Zm-5.86-20.09c-5,0-7.86,4-6.4,9s6.69,9,11.67,9,7.86-4,6.4-9S1633.63,872.72,1628.65,872.72Z"/><path class="cls-17" d="M1632.71,887.38a2.31,2.31,0,0,1-1.25-.51l-6.2-5a1.81,1.81,0,0,1-.64-2.38,1.69,1.69,0,0,1,2.39.05l4.39,3.51,2.24-5.2c.33-.75,1.33-.91,2.24-.37a2,2,0,0,1,1.07,2.35l-3,6.83a1.17,1.17,0,0,1-1,.69Z"/><path class="cls-8" d="M1729.46,892.81c-6.1,0-12.51-5-14.29-11s1.73-11.06,7.83-11.06,12.51,5,14.29,11.06S1735.55,892.81,1729.46,892.81Zm-5.87-20.09c-5,0-7.86,4-6.4,9s6.69,9,11.68,9,7.85-4,6.4-9S1728.57,872.72,1723.59,872.72Z"/><path class="cls-8" d="M1726.76,883.56h0a2.26,2.26,0,0,1-2-1.56l-1.38-4.7a1.13,1.13,0,0,1,1.11-1.56h0a2.26,2.26,0,0,1,2,1.56l1.37,4.7A1.13,1.13,0,0,1,1726.76,883.56Z"/><path class="cls-8" d="M1728,887.25h-.34a2,2,0,0,1-1.8-1.39h0a1,1,0,0,1,1-1.4h.34a2,2,0,0,1,1.8,1.4h0A1,1,0,0,1,1728,887.25Z"/><path class="cls-18" d="M664.43,1199.14s16.67,4.28,27.26,1.09,28.84,2,31.78,5.91,1.85,5.4-3.39,6.73-23.81,9.26-36,4.67-28.12-4.75-28.12-4.75Z"/><path class="cls-19" d="M520.36,1054.33s18.73,133.1,49.73,145c15.3,5.88,82.92,19.21,102.92,20.55,0,0,4.9-4,3.71-20.15,0,0-70.84-26-80.91-40.16-15-21,9.3-86-9.49-105.76S535.87,1025.56,520.36,1054.33Z"/><rect class="cls-20" x="522.75" y="1355.39" width="25.9" height="226.64" rx="8.43" transform="translate(1071.4 2937.41) rotate(180)"/><path class="cls-20" d="M455.78,1596.93c8.38-17.34,41-30.27,79.92-30.27s71.54,12.93,79.92,30.27Z"/><rect class="cls-20" x="474.82" y="1529" width="121.75" height="9.13" rx="2.24" transform="translate(1071.4 3067.13) rotate(180)"/><path class="cls-21" d="M526.67,1334.73A233.7,233.7,0,0,0,545,1360.91c20.13,25.4,42,46.35,45.86,66.16a89.36,89.36,0,0,0,3.53,12.67c1.6,4.54,3.57,9.31,5.84,14.24,8.54,18.55,21.31,39.34,34.07,58.23,22,32.67,42.77,59.92,42.77,59.92l38-1.62c-1.53-3.81-18.11-48.91-40.29-104l-27.82-69.12q-1.85-4.6-3.68-9.15c-2.83-7-5.61-13.93-8.32-20.67l-37.42-93s-83.24-31.54-91.88-11.11C498.51,1280.32,504.32,1296.83,526.67,1334.73Z"/><path class="cls-21" d="M678.22,1565.22s1.94,31.37,8,31.82c.81.06,30.78.06,30.78.06l38.27-.22s-.25-9.22-11.44-11.17-29.9-9.81-36.68-24.59C700,1545.57,678.22,1565.22,678.22,1565.22Z"/><path class="cls-21" d="M590.19,1475.61s-26.44,17-23.87,22.5c.34.74,14.95,26.91,14.95,26.91l18.85,33.3s7.92-4.71,4.17-15.43-6-30.89,3.59-44C618,1485.07,590.19,1475.61,590.19,1475.61Z"/><path class="cls-14" d="M627.42,1260.54s103,64.15,114.69,107.89-139,137-139,137-16.53-14.58-19.44-25.27c0,0,68.09-81.58,82.86-99.87,9.08-11.23-134.13-38.88-151.62-66.1s-11.24-50.11-11.24-50.11Z"/><rect class="cls-22" x="421.01" y="1343.18" width="229.39" height="58.32" rx="7.78" transform="translate(1071.4 2744.68) rotate(180)"/><path class="cls-18" d="M577.65,1031.52a59,59,0,0,1,15.92,14.42c-25,6.48-66.53-16.72-66.53-16.72s16.12-10.82,22.08-34.61c.31-1.2.58-2.43.82-3.69a74.77,74.77,0,0,0,1.36-13l11.5,10.3,19.12,17.13a165.64,165.64,0,0,1-2.83,19.34Q578.47,1027.86,577.65,1031.52Z"/><path class="cls-23" d="M500.54,1149.7c3.58,48.22-1.13,121.56,2.93,134.26,3.51,11,43.51,4.45,59.48.79,5.9-1.35,13.06-3.29,20.45-5.58,20.62-6.38,43.09-15.5,45.5-22.26a6.62,6.62,0,0,0,.22-.78,6,6,0,0,0,0-2.84c-.8-3.45-3.9-7.18-4.27-15.72-.4-9.54-.34-20.77-.7-32.85,0-1.36,0-2.84-.19-4.19v-.5c0-.26,0-.51,0-.77-.35-13.47-1-27.63-1.87-41.67-.52-8.82-1.12-17.56-1.81-25.92-1.8-21.61-4.22-40.82-7.43-53-5.24-19.8-16.8-32.71-27.32-42.17l-7.6-6.53c-8.5,1.86-18.53.62-27.61-3.68-9.83-4.66-13.22-8-14.94-6.75C512.63,1037.09,496.3,1090.75,500.54,1149.7Z"/><path class="cls-19" d="M583.4,1279.17c20.62-6.38,43.09-15.5,45.5-22.26a6.62,6.62,0,0,0,.22-.78c0-1,0-1.89,0-2.84-.8-3.45-3.9-7.18-4.27-15.72-.4-9.54-.34-20.77-.7-32.85,0-1.36,0-2.84-.19-4.19v-.5c0-.26,0-.51,0-.77L546,1163.93S541.53,1226.71,583.4,1279.17Z"/><path class="cls-24" d="M581.92,1005.32a165.64,165.64,0,0,1-2.83,19.34c-18.67-6-27.14-22.9-30-30.05-.8-2-1.15-3.27-1.15-3.27l2-.42,12.86-2.73Z"/><path class="cls-18" d="M589.48,1005.14s-41,4.62-43.51-21S536.51,942,562.6,937.91s32.13,5.24,35,13.58S600.08,1003.27,589.48,1005.14Z"/><path class="cls-20" d="M546.15,985.94s2.6-34,39.94-37.48c25.57-2.41,11.31-24.43,8.59-27.94,0,0-19.6,2.69-39.68,6C512.84,933.49,542,980.65,546.15,985.94Z"/><rect class="cls-19" x="759.88" y="1136.64" width="3.78" height="98.86" transform="translate(1119.93 2549.43) rotate(-162.01)"/><rect class="cls-19" x="644.63" y="1226.34" width="103.74" height="6.21" transform="translate(1366.59 2473.49) rotate(-178.78)"/><path class="cls-18" d="M655.85,1219.6s16.1,6.09,27,4.09,28.43,5.21,30.93,9.38,1.25,5.57-4.11,6.32-24.68,6.57-36.31.67-27.42-7.82-27.42-7.82Z"/><path class="cls-23" d="M528.62,1059.79s3.94,134.35,33.45,149.62c14.56,7.53,80.29,28.24,100,31.77,0,0,5.31-3.41,5.91-19.62,0,0-67.54-33.66-76-48.83-12.56-22.57,18.72-84.45,2.22-106.17S547.21,1032.9,528.62,1059.79Z"/><polygon class="cls-25" points="2029.7 747.84 1386.66 747.84 1337.38 586.46 1980.42 586.46 2029.7 747.84"/><path class="cls-26" d="M1955.94,641l5.9,19.3c2.59,8.5-2.23,15.44-10.73,15.44H1418.37c-8.49,0-17.57-6.94-20.16-15.44l-5.89-19.3c-2.6-8.49,2.23-15.44,10.72-15.44h532.75C1944.28,625.59,1953.35,632.54,1955.94,641Z"/><path class="cls-9" d="M1849.26,645.06h-8.17l-.77-2.51h11.43l.66,2.16-3,14.1h-3.2Z"/><path class="cls-9" d="M1856.23,650.68c-1.41-4.64.27-8.41,4.54-8.41s8.2,3.72,9.63,8.41-.27,8.41-4.54,8.41S1857.67,655.37,1856.23,650.68Zm11.22,0c-1-3.2-3.43-5.83-5.94-5.83s-3.33,2.56-2.33,5.83,3.41,5.83,5.94,5.83S1868.44,653.93,1867.45,650.68Z"/><path class="cls-9" d="M1871.58,646.52c-.69-2.25.28-4.15,2.58-4.15a5.72,5.72,0,0,1,5.08,4.15c.69,2.26-.29,4.16-2.59,4.16A5.7,5.7,0,0,1,1871.58,646.52Zm12.32-4h2.3l-6.93,16.26H1877Zm-6.73,4a3.08,3.08,0,0,0-2.51-2.36c-1.09,0-1.41,1.06-1,2.36a3.08,3.08,0,0,0,2.51,2.37C1877.25,648.89,1877.57,647.82,1877.17,646.52Zm6.77,8.32c-.69-2.25.28-4.16,2.58-4.16a5.7,5.7,0,0,1,5.08,4.16c.69,2.25-.29,4.15-2.58,4.15A5.71,5.71,0,0,1,1883.94,654.84Zm5.59,0a3.08,3.08,0,0,0-2.51-2.37c-1.09,0-1.41,1.07-1,2.37a3.09,3.09,0,0,0,2.52,2.37C1889.61,657.21,1889.93,656.14,1889.53,654.84Z"/><path class="cls-27" d="M1763.28,625.59l15.32,50.18H1418.37c-7.08,0-14.55-4.82-18.34-11.33a19.23,19.23,0,0,1-1.82-4.11l-5.89-19.3c-2.6-8.49,2.23-15.44,10.72-15.44Z"/><path class="cls-28" d="M1466.8,625.59l-15.18,50.18h-33.25c-7.08,0-14.55-4.82-18.34-11.33l11.75-38.85Z"/><polygon class="cls-28" points="1561.08 625.59 1545.89 675.77 1490.88 675.77 1506.07 625.59 1561.08 625.59"/><polygon class="cls-28" points="1655.36 625.59 1640.18 675.77 1585.15 675.77 1600.34 625.59 1655.36 625.59"/><polygon class="cls-28" points="1749.65 625.59 1734.46 675.77 1679.44 675.77 1694.62 625.59 1749.65 625.59"/><polygon class="cls-11" points="1516.07 705.5 1419.86 705.5 1417.83 698.87 1514.05 698.87 1516.07 705.5"/><polygon class="cls-11" points="1495.44 724.06 1425.53 724.06 1423.5 717.43 1493.41 717.43 1495.44 724.06"/><polygon class="cls-11" points="1541.54 724.06 1499.75 724.06 1497.72 717.43 1539.51 717.43 1541.54 724.06"/><polygon class="cls-11" points="1612.6 724.06 1548.76 724.06 1546.74 717.43 1610.57 717.43 1612.6 724.06"/><polygon class="cls-11" points="1552.44 705.5 1523.31 705.5 1521.28 698.87 1550.41 698.87 1552.44 705.5"/><polygon class="cls-11" points="1668.34 705.5 1562.41 705.5 1560.38 698.87 1666.32 698.87 1668.34 705.5"/><polygon class="cls-25" points="1161.74 991.41 709.38 991.41 639.07 761.15 1091.43 761.15 1161.74 991.41"/><polygon class="cls-19" points="1097.9 876.28 702.91 876.28 673.03 778.42 1068.01 778.42 1097.9 876.28"/><polygon class="cls-13" points="767.86 798.32 700.95 798.32 699.36 793.1 766.26 793.1 767.86 798.32"/><polygon class="cls-13" points="839.42 798.32 783.78 798.32 782.18 793.1 837.83 793.1 839.42 798.32"/><polygon class="cls-13" points="968.93 798.32 853.92 798.32 852.33 793.1 967.34 793.1 968.93 798.32"/><polygon class="cls-13" points="773.57 817.02 706.66 817.02 705.07 811.8 771.98 811.8 773.57 817.02"/><polygon class="cls-13" points="845.14 817.02 789.49 817.02 787.89 811.8 843.54 811.8 845.14 817.02"/><polygon class="cls-13" points="910.85 817.02 855.21 817.02 853.61 811.8 909.26 811.8 910.85 817.02"/><polygon class="cls-13" points="1042.72 819.2 927.71 819.2 926.12 813.98 1041.13 813.98 1042.72 819.2"/><polygon class="cls-13" points="780.81 840.74 713.9 840.74 712.31 835.51 779.22 835.51 780.81 840.74"/><polygon class="cls-13" points="852.38 840.74 796.73 840.74 795.14 835.51 850.78 835.51 852.38 840.74"/><polygon class="cls-13" points="981.89 840.74 866.88 840.74 865.28 835.51 980.29 835.51 981.89 840.74"/><polygon class="cls-13" points="786.52 859.44 719.62 859.44 718.02 854.22 784.93 854.22 786.52 859.44"/><polygon class="cls-13" points="858.09 859.44 802.44 859.44 800.85 854.22 856.5 854.22 858.09 859.44"/><polygon class="cls-13" points="923.81 859.44 868.16 859.44 866.57 854.22 922.21 854.22 923.81 859.44"/><polygon class="cls-13" points="1055.68 861.62 940.66 861.62 939.07 856.39 1054.08 856.39 1055.68 861.62"/><path class="cls-17" d="M967.77,957.35c-15.34,0-31.62-12.47-36.3-27.8s4-27.81,19.31-27.81,31.62,12.48,36.3,27.81S983.1,957.35,967.77,957.35Zm-15.43-50.53c-12.54,0-19.62,10.2-15.79,22.73s17.13,22.73,29.67,22.73,19.61-10.2,15.78-22.73S964.87,906.82,952.34,906.82Z"/><path class="cls-17" d="M963,943.69a5.85,5.85,0,0,1-3.13-1.29l-15.77-12.5c-2.13-1.69-2.89-4.36-1.7-6s3.89-1.56,6,.13l11.14,8.83,5.47-13.06c.8-1.89,3.31-2.31,5.63-1s3.54,4,2.74,5.91L966.25,942a2.92,2.92,0,0,1-2.61,1.73A3.11,3.11,0,0,1,963,943.69Z"/><path class="cls-17" d="M888.21,957.35c-15.33,0-31.62-12.47-36.3-27.8s4-27.81,19.32-27.81,31.61,12.48,36.29,27.81S903.54,957.35,888.21,957.35Zm-15.43-50.53c-12.53,0-19.62,10.2-15.79,22.73s17.14,22.73,29.67,22.73,19.61-10.2,15.78-22.73S885.31,906.82,872.78,906.82Z"/><path class="cls-17" d="M883.48,943.69a5.88,5.88,0,0,1-3.14-1.29l-15.77-12.5c-2.13-1.69-2.89-4.36-1.69-6s3.89-1.56,6,.13L880,932.88l5.48-13.06c.79-1.89,3.31-2.31,5.62-1s3.54,4,2.75,5.91L886.69,942a2.91,2.91,0,0,1-2.61,1.73A3,3,0,0,1,883.48,943.69Z"/><path class="cls-17" d="M805.8,957.35c-15.33,0-31.61-12.47-36.29-27.8s4-27.81,19.31-27.81,31.61,12.48,36.29,27.81S821.13,957.35,805.8,957.35Zm-15.43-50.53c-12.53,0-19.61,10.2-15.79,22.73s17.14,22.73,29.67,22.73,19.61-10.2,15.79-22.73S802.9,906.82,790.37,906.82Z"/><path class="cls-17" d="M801.07,943.69a5.88,5.88,0,0,1-3.14-1.29l-15.77-12.5c-2.13-1.69-2.89-4.36-1.69-6s3.89-1.56,6,.13l11.14,8.83,5.48-13.06c.79-1.89,3.31-2.31,5.62-1s3.54,4,2.75,5.91L804.28,942a2.91,2.91,0,0,1-2.61,1.73A3,3,0,0,1,801.07,943.69Z"/><path class="cls-8" d="M1044.52,957.35c-15.33,0-31.61-12.47-36.29-27.8s4-27.81,19.31-27.81,31.61,12.48,36.3,27.81S1059.85,957.35,1044.52,957.35Zm-15.43-50.53c-12.53,0-19.61,10.2-15.79,22.73s17.14,22.73,29.67,22.73,19.61-10.2,15.79-22.73S1041.62,906.82,1029.09,906.82Z"/><path class="cls-8" d="M1037.42,934.1h0a5.79,5.79,0,0,1-5.13-3.93l-3.61-11.82c-.66-2.16.57-3.93,2.73-3.93h0a5.79,5.79,0,0,1,5.13,3.93l3.61,11.82C1040.81,932.33,1039.58,934.1,1037.42,934.1Z"/><path class="cls-8" d="M1040.68,943.37h-.85a5.17,5.17,0,0,1-4.58-3.51h0a2.51,2.51,0,0,1,2.43-3.51h.85a5.17,5.17,0,0,1,4.58,3.51h0A2.51,2.51,0,0,1,1040.68,943.37Z"/><g class="cls-29"><path class="cls-11" d="M1100.76,601.85v-8.24h8.49v8.24Z"/><path class="cls-11" d="M1100.76,585.18v-8.24h8.49v8.24Z"/><path class="cls-11" d="M1100.76,568.51v-8.24h8.49v8.24Z"/><path class="cls-11" d="M1100.76,551.84V543.6h8.49v8.24Z"/><path class="cls-11" d="M1100.76,535.18v-8.25h8.49v8.25Z"/><path class="cls-11" d="M1100.76,518.51v-8.24h8.49v8.24Z"/><path class="cls-11" d="M1100.76,501.84V493.6h8.49v8.24Z"/><path class="cls-11" d="M1100.76,485.17v-8.24h8.49v8.24Z"/><path class="cls-11" d="M1100.76,468.5v-8.24h8.49v8.24Z"/><path class="cls-11" d="M1100.76,451.84v-8.25h8.49v8.25Z"/><path class="cls-11" d="M1100.76,435.17v-8.25h8.49v8.25Z"/><path class="cls-11" d="M1100.76,418.5v-8.24h8.49v8.24Z"/><path class="cls-11" d="M1100.76,401.83v-8.24h8.49v8.24Z"/><path class="cls-11" d="M1100.76,385.16v-8.24h8.49v8.24Z"/><path class="cls-11" d="M1100.76,368.49v-8.24h8.49v8.24Z"/><path class="cls-11" d="M1100.76,351.83v-8.25h8.49v8.25Z"/><path class="cls-11" d="M1100.76,335.16v-8.24h8.49v8.24Z"/><path class="cls-11" d="M1100.76,318.49v-8.24h8.49v8.24Z"/></g><g class="cls-29"><path class="cls-11" d="M1074.81,501.84V493.6h8.49v8.24Z"/><path class="cls-11" d="M1074.81,485.17v-8.24h8.49v8.24Z"/><path class="cls-11" d="M1074.81,468.5v-8.24h8.49v8.24Z"/><path class="cls-11" d="M1074.81,451.84v-8.25h8.49v8.25Z"/><path class="cls-11" d="M1074.81,435.17v-8.25h8.49v8.25Z"/><path class="cls-11" d="M1074.81,418.5v-8.24h8.49v8.24Z"/><path class="cls-11" d="M1074.81,401.83v-8.24h8.49v8.24Z"/><path class="cls-11" d="M1074.81,385.16v-8.24h8.49v8.24Z"/><path class="cls-11" d="M1074.81,368.49v-8.24h8.49v8.24Z"/><path class="cls-11" d="M1074.81,351.83v-8.25h8.49v8.25Z"/><path class="cls-11" d="M1074.81,335.16v-8.24h8.49v8.24Z"/><path class="cls-11" d="M1074.81,318.49v-8.24h8.49v8.24Z"/></g><g class="cls-29"><path class="cls-11" d="M1048.37,601.85v-8.24h8.49v8.24Z"/><path class="cls-11" d="M1048.37,585.18v-8.24h8.49v8.24Z"/><path class="cls-11" d="M1048.37,568.51v-8.24h8.49v8.24Z"/><path class="cls-11" d="M1048.37,551.84V543.6h8.49v8.24Z"/><path class="cls-11" d="M1048.37,535.18v-8.25h8.49v8.25Z"/><path class="cls-11" d="M1048.37,518.51v-8.24h8.49v8.24Z"/><path class="cls-11" d="M1048.37,501.84V493.6h8.49v8.24Z"/><path class="cls-11" d="M1048.37,485.17v-8.24h8.49v8.24Z"/><path class="cls-11" d="M1048.37,468.5v-8.24h8.49v8.24Z"/><path class="cls-11" d="M1048.37,451.84v-8.25h8.49v8.25Z"/><path class="cls-11" d="M1048.37,435.17v-8.25h8.49v8.25Z"/><path class="cls-11" d="M1048.37,418.5v-8.24h8.49v8.24Z"/><path class="cls-11" d="M1048.37,401.83v-8.24h8.49v8.24Z"/><path class="cls-11" d="M1048.37,385.16v-8.24h8.49v8.24Z"/><path class="cls-11" d="M1048.37,368.49v-8.24h8.49v8.24Z"/><path class="cls-11" d="M1048.37,351.83v-8.25h8.49v8.25Z"/><path class="cls-11" d="M1048.37,335.16v-8.24h8.49v8.24Z"/><path class="cls-11" d="M1048.37,318.49v-8.24h8.49v8.24Z"/></g><g class="cls-29"><path class="cls-11" d="M1026.1,635.18v-8.24h8.49v8.24Z"/><path class="cls-11" d="M1026.1,618.52v-8.25h8.49v8.25Z"/><path class="cls-11" d="M1026.1,601.85v-8.24h8.49v8.24Z"/><path class="cls-11" d="M1026.1,585.18v-8.24h8.49v8.24Z"/><path class="cls-11" d="M1026.1,568.51v-8.24h8.49v8.24Z"/><path class="cls-11" d="M1026.1,551.84V543.6h8.49v8.24Z"/><path class="cls-11" d="M1026.1,535.18v-8.25h8.49v8.25Z"/><path class="cls-11" d="M1026.1,518.51v-8.24h8.49v8.24Z"/><path class="cls-11" d="M1026.1,501.84V493.6h8.49v8.24Z"/><path class="cls-11" d="M1026.1,485.17v-8.24h8.49v8.24Z"/><path class="cls-11" d="M1026.1,468.5v-8.24h8.49v8.24Z"/><path class="cls-11" d="M1026.1,451.84v-8.25h8.49v8.25Z"/><path class="cls-11" d="M1026.1,435.17v-8.25h8.49v8.25Z"/><path class="cls-11" d="M1026.1,418.5v-8.24h8.49v8.24Z"/><path class="cls-11" d="M1026.1,401.83v-8.24h8.49v8.24Z"/><path class="cls-11" d="M1026.1,385.16v-8.24h8.49v8.24Z"/><path class="cls-11" d="M1026.1,368.49v-8.24h8.49v8.24Z"/><path class="cls-11" d="M1026.1,351.83v-8.25h8.49v8.25Z"/><path class="cls-11" d="M1026.1,335.16v-8.24h8.49v8.24Z"/><path class="cls-11" d="M1026.1,318.49v-8.24h8.49v8.24Z"/></g><g class="cls-29"><path class="cls-11" d="M996.72,485.17v-8.24h8.49v8.24Z"/><path class="cls-11" d="M996.72,468.5v-8.24h8.49v8.24Z"/><path class="cls-11" d="M996.72,451.84v-8.25h8.49v8.25Z"/><path class="cls-11" d="M996.72,435.17v-8.25h8.49v8.25Z"/><path class="cls-11" d="M996.72,418.5v-8.24h8.49v8.24Z"/><path class="cls-11" d="M996.72,401.83v-8.24h8.49v8.24Z"/><path class="cls-11" d="M996.72,385.16v-8.24h8.49v8.24Z"/><path class="cls-11" d="M996.72,368.49v-8.24h8.49v8.24Z"/><path class="cls-11" d="M996.72,351.83v-8.25h8.49v8.25Z"/><path class="cls-11" d="M996.72,335.16v-8.24h8.49v8.24Z"/><path class="cls-11" d="M996.72,318.49v-8.24h8.49v8.24Z"/></g><g class="cls-29"><path class="cls-11" d="M2047.93,958.27v8.24h-8.49v-8.24Z"/><path class="cls-11" d="M2047.93,974.93v8.25h-8.49v-8.25Z"/><path class="cls-11" d="M2047.93,991.6v8.24h-8.49V991.6Z"/><path class="cls-11" d="M2047.93,1008.27v8.24h-8.49v-8.24Z"/><path class="cls-11" d="M2047.93,1024.94v8.24h-8.49v-8.24Z"/><path class="cls-11" d="M2047.93,1041.61v8.24h-8.49v-8.24Z"/><path class="cls-11" d="M2047.93,1058.27v8.25h-8.49v-8.25Z"/><path class="cls-11" d="M2047.93,1074.94v8.24h-8.49v-8.24Z"/><path class="cls-11" d="M2047.93,1091.61v8.24h-8.49v-8.24Z"/><path class="cls-11" d="M2047.93,1108.28v8.24h-8.49v-8.24Z"/><path class="cls-11" d="M2047.93,1125v8.24h-8.49V1125Z"/><path class="cls-11" d="M2047.93,1141.61v8.25h-8.49v-8.25Z"/><path class="cls-11" d="M2047.93,1158.28v8.24h-8.49v-8.24Z"/><path class="cls-11" d="M2047.93,1175v8.24h-8.49V1175Z"/><path class="cls-11" d="M2047.93,1191.62v8.24h-8.49v-8.24Z"/><path class="cls-11" d="M2047.93,1208.29v8.24h-8.49v-8.24Z"/><path class="cls-11" d="M2047.93,1225v8.24h-8.49V1225Z"/><path class="cls-11" d="M2047.93,1241.62v8.25h-8.49v-8.25Z"/></g><g class="cls-29"><path class="cls-11" d="M2073.88,1058.27v8.25h-8.49v-8.25Z"/><path class="cls-11" d="M2073.88,1074.94v8.24h-8.49v-8.24Z"/><path class="cls-11" d="M2073.88,1091.61v8.24h-8.49v-8.24Z"/><path class="cls-11" d="M2073.88,1108.28v8.24h-8.49v-8.24Z"/><path class="cls-11" d="M2073.88,1125v8.24h-8.49V1125Z"/><path class="cls-11" d="M2073.88,1141.61v8.25h-8.49v-8.25Z"/><path class="cls-11" d="M2073.88,1158.28v8.24h-8.49v-8.24Z"/><path class="cls-11" d="M2073.88,1175v8.24h-8.49V1175Z"/><path class="cls-11" d="M2073.88,1191.62v8.24h-8.49v-8.24Z"/><path class="cls-11" d="M2073.88,1208.29v8.24h-8.49v-8.24Z"/><path class="cls-11" d="M2073.88,1225v8.24h-8.49V1225Z"/><path class="cls-11" d="M2073.88,1241.62v8.25h-8.49v-8.25Z"/></g><g class="cls-29"><path class="cls-11" d="M2100.32,958.27v8.24h-8.49v-8.24Z"/><path class="cls-11" d="M2100.32,974.93v8.25h-8.49v-8.25Z"/><path class="cls-11" d="M2100.32,991.6v8.24h-8.49V991.6Z"/><path class="cls-11" d="M2100.32,1008.27v8.24h-8.49v-8.24Z"/><path class="cls-11" d="M2100.32,1024.94v8.24h-8.49v-8.24Z"/><path class="cls-11" d="M2100.32,1041.61v8.24h-8.49v-8.24Z"/><path class="cls-11" d="M2100.32,1058.27v8.25h-8.49v-8.25Z"/><path class="cls-11" d="M2100.32,1074.94v8.24h-8.49v-8.24Z"/><path class="cls-11" d="M2100.32,1091.61v8.24h-8.49v-8.24Z"/><path class="cls-11" d="M2100.32,1108.28v8.24h-8.49v-8.24Z"/><path class="cls-11" d="M2100.32,1125v8.24h-8.49V1125Z"/><path class="cls-11" d="M2100.32,1141.61v8.25h-8.49v-8.25Z"/><path class="cls-11" d="M2100.32,1158.28v8.24h-8.49v-8.24Z"/><path class="cls-11" d="M2100.32,1175v8.24h-8.49V1175Z"/><path class="cls-11" d="M2100.32,1191.62v8.24h-8.49v-8.24Z"/><path class="cls-11" d="M2100.32,1208.29v8.24h-8.49v-8.24Z"/><path class="cls-11" d="M2100.32,1225v8.24h-8.49V1225Z"/><path class="cls-11" d="M2100.32,1241.62v8.25h-8.49v-8.25Z"/></g><g class="cls-29"><path class="cls-11" d="M2122.58,924.93v8.24h-8.48v-8.24Z"/><path class="cls-11" d="M2122.58,941.6v8.24h-8.48V941.6Z"/><path class="cls-11" d="M2122.58,958.27v8.24h-8.48v-8.24Z"/><path class="cls-11" d="M2122.58,974.93v8.25h-8.48v-8.25Z"/><path class="cls-11" d="M2122.58,991.6v8.24h-8.48V991.6Z"/><path class="cls-11" d="M2122.58,1008.27v8.24h-8.48v-8.24Z"/><path class="cls-11" d="M2122.58,1024.94v8.24h-8.48v-8.24Z"/><path class="cls-11" d="M2122.58,1041.61v8.24h-8.48v-8.24Z"/><path class="cls-11" d="M2122.58,1058.27v8.25h-8.48v-8.25Z"/><path class="cls-11" d="M2122.58,1074.94v8.24h-8.48v-8.24Z"/><path class="cls-11" d="M2122.58,1091.61v8.24h-8.48v-8.24Z"/><path class="cls-11" d="M2122.58,1108.28v8.24h-8.48v-8.24Z"/><path class="cls-11" d="M2122.58,1125v8.24h-8.48V1125Z"/><path class="cls-11" d="M2122.58,1141.61v8.25h-8.48v-8.25Z"/><path class="cls-11" d="M2122.58,1158.28v8.24h-8.48v-8.24Z"/><path class="cls-11" d="M2122.58,1175v8.24h-8.48V1175Z"/><path class="cls-11" d="M2122.58,1191.62v8.24h-8.48v-8.24Z"/><path class="cls-11" d="M2122.58,1208.29v8.24h-8.48v-8.24Z"/><path class="cls-11" d="M2122.58,1225v8.24h-8.48V1225Z"/><path class="cls-11" d="M2122.58,1241.62v8.25h-8.48v-8.25Z"/></g><g class="cls-29"><path class="cls-11" d="M2152,1074.94v8.24h-8.49v-8.24Z"/><path class="cls-11" d="M2152,1091.61v8.24h-8.49v-8.24Z"/><path class="cls-11" d="M2152,1108.28v8.24h-8.49v-8.24Z"/><path class="cls-11" d="M2152,1125v8.24h-8.49V1125Z"/><path class="cls-11" d="M2152,1141.61v8.25h-8.49v-8.25Z"/><path class="cls-11" d="M2152,1158.28v8.24h-8.49v-8.24Z"/><path class="cls-11" d="M2152,1175v8.24h-8.49V1175Z"/><path class="cls-11" d="M2152,1191.62v8.24h-8.49v-8.24Z"/><path class="cls-11" d="M2152,1208.29v8.24h-8.49v-8.24Z"/><path class="cls-11" d="M2152,1225v8.24h-8.49V1225Z"/><path class="cls-11" d="M2152,1241.62v8.25h-8.49v-8.25Z"/></g><path class="cls-30" d="M1860.28,1543.32c7.19,26.88,60.33,42.7,118.45,52h216.91c52.28-25.6,52.21-56.13,56.4-140.43,8.67-174.13-82.93-258.19-123.77-244.31-1.7.57-3.43,1.2-5.19,1.92-11.87,4.77-25.16,13.21-38.1,33.28,0,0-40.6,67.66-74,108-10.76,13-20.77,23.17-28.44,27.33a1.71,1.71,0,0,1-.27.14c-.41.22-.8.41-1.2.59-17.7,8.1-42.65,25.09-65.44,46.52h0C1880.28,1461.57,1850.14,1505.43,1860.28,1543.32Z"/><path class="cls-22" d="M1915.63,1428.36c30.41,9.34,186.94,54.53,223.78,6.61,26.67-34.69,10.06-123.58-4.67-181.1-6-23.57-36.18-28.92-49.37-8.71l-.39.6s-40.6,67.66-74,108c-9.67,12.75-19.2,22.58-28.44,27.33a1.71,1.71,0,0,1-.27.14c-.4.22-.8.41-1.2.59C1963.37,1389.94,1938.42,1406.93,1915.63,1428.36Z"/><path class="cls-31" d="M2032.06,1208.7s-10.85,16-17,49.79c-5.42,29.56-10.17,40.47-18,46.53s-51.42,24-51.42,24l3.26,7.64s63.9-8.71,71.08-19.39,34.54-73.77,32.42-88.3S2032.06,1208.7,2032.06,1208.7Z"/><path class="cls-32" d="M1875.59,1561.19c.58,6.23-8.1,7.75-18.15,8.25s-7,2.56-20.78,5-19.29-1.27-20.29-3.13c-.88-1.65,5.52-4.24,12.34-7.15l2.58-1.12c7.68-3.37,12-10.26,18-16.65,5.67-6,11.06-25.41,11.06-25.41l18.71-4s-5.25,17.42-7.08,24.86c-1.07,4.38.51,9.27,1.92,13A24.34,24.34,0,0,1,1875.59,1561.19Z"/><path class="cls-33" d="M1857.44,1569.44c-10,.5-7,2.56-20.78,5s-19.29-1.27-20.29-3.13c-.88-1.65,5.52-4.24,12.34-7.15l.11.11a39.19,39.19,0,0,0,20.86.25c9.11-2.47,17.91-7.91,24.19-9.67a24.34,24.34,0,0,1,1.72,6.29C1876.17,1567.42,1867.49,1568.94,1857.44,1569.44Z"/><path class="cls-21" d="M2061.94,1339.29s-124.35-9.36-147.76,5.41-61,186.87-61,186.87,2.32,1.86,7.49,2.42c4.82.52,15.42-2.31,15.42-2.31s54-77,57.76-96.4,2.87-36.71,11.52-37.17,116.54,13.12,132.86-15.63,2.83-57.21,2.83-57.21Z"/><path class="cls-32" d="M1923.17,1581.17c.58,6.23-8.1,7.74-18.15,8.24s-7,2.56-20.78,5-19.29-1.27-20.29-3.13c-.88-1.65,5.52-4.23,12.34-7.15.86-.36,1.72-.74,2.58-1.12,7.68-3.37,12-10.26,18-16.64,5.68-6.05,11.06-25.42,11.06-25.42l18.71-4s-5.25,17.43-7.08,24.87c-1.07,4.37.52,9.27,1.92,13A24.41,24.41,0,0,1,1923.17,1581.17Z"/><path class="cls-33" d="M1905,1589.41c-10,.5-7,2.56-20.78,5s-19.29-1.27-20.29-3.13c-.88-1.65,5.52-4.23,12.34-7.15l.11.12a39.31,39.31,0,0,0,20.86.25c9.11-2.48,17.91-7.92,24.19-9.68a24.41,24.41,0,0,1,1.72,6.3C1923.75,1587.4,1915.07,1588.91,1905,1589.41Z"/><path class="cls-14" d="M2086.29,1347s-110.46,5.23-133.28,20.91S1899.37,1557,1899.37,1557s2.39,1.77,7.59,2.13c4.82.33,15.31-2.91,15.31-2.91s50.92-79,54-98.57,1.44-36.79,10.07-37.59,117,8.57,132.15-20.8S2086.29,1347,2086.29,1347Z"/><path class="cls-34" d="M2048.47,1199.86c-2.14-3.76-4.7-10.52-6.55-22.76.24,1.21,3.39,16.59,9.94,25,25.59,14.46,76.16,65.06,75.91,75.31,0,0,14.67-29.18,14.95-29.36,0,0,27.94-40.86-9.73-60.68-19.14-10.08-20-24.59-20.08-37.24s-9.48-66.51-45.37-49.86c0,0-6.08-2.23-8.7-1.66a7.23,7.23,0,0,1,3.36,1.33c-4.29,0-10.37.76-15.27,4C2033.94,1112.49,2026.44,1182.14,2048.47,1199.86Z"/><path class="cls-32" d="M2090.93,1190.21a125.22,125.22,0,0,0-20.57,0,66.57,66.57,0,0,0-17.85,4.48c-9.74,4.07-8.72,21.31,11.71,18.12S2092.36,1195.32,2090.93,1190.21Z"/><path class="cls-32" d="M2053.37,1202.78c-.12.07-2.92,14.83,10.46,14.24,8.78-.39,27.72-11,26.05-18.53-.8-3.57-7.43-12.85-8.77-34l-1.6.43-26.87,7.21s1.19,8.53,1.74,16.6C2054.86,1195.5,2054.87,1202,2053.37,1202.78Z"/><path class="cls-31" d="M2052.64,1172.12s1.19,8.53,1.74,16.6c15.22-1.45,22.35-15.89,25.13-23.81Z"/><path class="cls-34" d="M2082.13,1161.75s7.14-13.15,8.34-24.07c.86-7.79-5-36.09-33.39-30.06a39,39,0,0,0-15.76,7.19c-6,4.62-14.34,14.31-2.63,38.56l3.18,8.24Z"/><path class="cls-32" d="M2048.06,1180.1s36.1-1.81,34.62-24.27,2.2-37.83-20.91-37.62-27,9.07-28.36,16.69S2038.63,1180,2048.06,1180.1Z"/><path class="cls-34" d="M2045.31,1118.75s11.63,25.7,27,28.58,21.71-1.61,21.71-1.61a43,43,0,0,1-15.72-24.41S2051.92,1105.71,2045.31,1118.75Z"/><path class="cls-34" d="M2047.9,1120.73s-7,6.37-8.4,12.21-1.44,17.67-4.9,17.5c0,0-8.63-17.42-.95-28.11C2041.8,1111,2047.9,1120.73,2047.9,1120.73Z"/><path class="cls-14" d="M2011.94,1341.17c2.92,3.49,12,4.56,21.79,6.16,7.67,1.27,15.73,2.86,21.46,6.23,13,7.64,55.53,33.46,68,32.28,4.83-.45,3.93-9.67,1-21.91-4.61-19.33-14.25-46.17-14.25-57.83,0-6.37-2.12-21.44-4.95-38.68-.23-1.38-.46-2.78-.7-4.2-5.59-33.5-13.35-73-13.35-73s-8.64,18.87-25.49,18.87-12.93-14.39-12.93-14.39-15.37,1.81-19,5.72-12.84,20.83-14.67,25.44c0,0-.37,5.87,14.16,8.66,0,0-3.54,15.93-4,26.55-.31,7.84,5.35,32.39,7,47.66.58,5.41.66,9.65-.22,11.58-1.13,2.46-4.76,4.92-8.9,7.33C2018.68,1332.41,2008.47,1337,2011.94,1341.17Z"/><path class="cls-21" d="M2026.89,1327.63c-9.32,15.9,25.29,20.68,31,24,13,7.64,52.81,35.34,65.27,34.16,4.83-.45,3.93-9.67,1-21.91-4.61-19.33-14.25-46.17-14.25-57.83,0-6.37-2.12-21.44-4.95-38.68l-15-14.4s-16.07,41.54-31.39,48.35a128.33,128.33,0,0,1-22.58,7.35c.58,5.41.66,9.65-.22,11.58C2034.66,1322.76,2031,1325.22,2026.89,1327.63Z"/><path class="cls-32" d="M2095.54,1202.65s12.83-7.79,25.23,7S2112,1330,2093.58,1335.45c-20.41,6-79.36-1-79.36-1l1.13-9.21s62.76-12,65.37-15.39S2089,1204.35,2095.54,1202.65Z"/><path class="cls-14" d="M2090.93,1190.21s26.34,2.38,34,11,9.88,32.14,9.88,32.14-23.19,18.72-51.14,11.46Z"/><rect class="cls-35" x="1973.27" y="1339.42" width="34.79" height="4.11" transform="translate(3981.33 2682.95) rotate(180)"/><path class="cls-35" d="M1980.66,1343c-.34-1.36-32-51-32-51h-70.4l35.31,49.71Z"/><path class="cls-34" d="M1977.7,1343.53c-.34-1.36-32.09-51.61-32.09-51.61h-67.33l33.59,51.61Z"/><path class="cls-35" d="M1918.34,1317.89a5.62,5.62,0,0,0,4.9,3.65c2,0,3.08-1.63,2.39-3.65a5.62,5.62,0,0,0-4.9-3.64C1918.71,1314.25,1917.65,1315.88,1918.34,1317.89Z"/><path class="cls-32" d="M2020.47,1324.72s-20.43-4-22.74-3-15.16,12.52-13.84,14.83,6.59,4,12.52,2,18.79-3,21.1-5.94S2020.47,1324.72,2020.47,1324.72Z"/></svg>