 <svg xmlns="http://www.w3.org/2000/svg" width="26.79" height="31.6" viewBox="0 0 26.79 31.6">
          <defs>
            <style>
              .a {
                fill: #86888b;
              }
            </style>
          </defs>
          <g transform="translate(-2.725)">
            <path class="a" d="M16,20a8,8,0,1,0-8-8A8.024,8.024,0,0,0,16,20Z" />
            <path class="a"
              d="M29.4,26.1l-3.5-7.3A12.158,12.158,0,0,0,28,12,12,12,0,0,0,4,12a11.813,11.813,0,0,0,2.2,6.9L2.8,26.1a1.379,1.379,0,0,0,0,.9,1.126,1.126,0,0,0,.8.5l4.7.3,3.2,3.5a1.08,1.08,0,0,0,.7.3h.2c.3,0,.6-.3.8-.6l2.9-6L19,31a1.037,1.037,0,0,0,.8.6H20a.908.908,0,0,0,.7-.3l3.2-3.5,4.7-.3a1.02,1.02,0,0,0,.8-.5A.956.956,0,0,0,29.4,26.1ZM16,2A10,10,0,1,1,6,12,10.029,10.029,0,0,1,16,2Z" />
          </g>
        </svg>
