 <svg xmlns="http://www.w3.org/2000/svg" width="32.057" height="26.56" viewBox="0 0 32.057 26.56">
          <defs>
            <style>
              .a {
                fill: #86888b;
              }

              .b {
                fill: #fff;
              }
            </style>
          </defs>
          <g transform="translate(0.175 -9.014)">
            <path class="a"
              d="M31.217,7.957H3.033A1.936,1.936,0,0,0,1.1,9.893h0V29.355a1.937,1.937,0,0,0,1.936,1.933h9.658l-1.8,2.6a.457.457,0,0,0,.258.593.452.452,0,0,0,.168.032H22.879a.458.458,0,0,0,.457-.459.463.463,0,0,0-.03-.161L21.56,31.288h9.658a1.937,1.937,0,0,0,1.936-1.933V9.893a1.936,1.936,0,0,0-1.936-1.936Z"
              transform="translate(-1.272 1.057)" />
            <path class="b" d="M77.415,44.242V28.115h4.208V44.242Z" transform="translate(-56.553 -16.022)" />
            <path class="b" d="M63.211,59.761h-4.2v-7.9h4.2Z" transform="translate(-44.533 -31.528)" />
            <path class="b" d="M40.617,61.694H44.8v4.477H40.617Z" transform="translate(-32.523 -37.949)" />
          </g>
        </svg>