 <svg xmlns="http://www.w3.org/2000/svg" width="28.989" height="28.99" viewBox="0 0 28.989 28.99">
          <defs>
            <style>
              .a {
                fill: #86888b;
              }
            </style>
          </defs>
          <path class="a"
            d="M27.046,7.219a14.434,14.434,0,0,0-5.275-5.275A14.178,14.178,0,0,0,14.5,0,14.179,14.179,0,0,0,7.219,1.944,14.43,14.43,0,0,0,1.944,7.219,14.178,14.178,0,0,0,0,14.495,14.181,14.181,0,0,0,1.944,21.77a14.437,14.437,0,0,0,5.275,5.275,14.18,14.18,0,0,0,7.276,1.944,14.18,14.18,0,0,0,7.276-1.944,14.43,14.43,0,0,0,5.275-5.275,14.182,14.182,0,0,0,1.944-7.276A14.182,14.182,0,0,0,27.046,7.219Zm-10.738,14.9c-.126-.151-.17-.277-.132-.378a.277.277,0,0,1-.132.17,1.8,1.8,0,0,0-.34-.283,1.781,1.781,0,0,1-.34-.284c-.025-.038-.06-.091-.1-.16s-.1-.16-.17-.274a1.9,1.9,0,0,1-.151-.293c-.031-.082-.034-.129-.01-.141a1.29,1.29,0,0,1-1.038-.208,1.857,1.857,0,0,1-.4-.4.614.614,0,0,0-.547-.283q-.094.019-.255.066a.987.987,0,0,1-.274.047.861.861,0,0,1-.3-.076,2.434,2.434,0,0,1-.406-.217,2.705,2.705,0,0,0-.349-.2l-.245-.132-.3-.151a.927.927,0,0,1-.236-.179.6.6,0,0,1-.16-.255,3.634,3.634,0,0,1-.094-.453,1.41,1.41,0,0,0-.151-.491,1.7,1.7,0,0,0-.321-.377.6.6,0,0,0-.377-.189c.1,0,.1-.084,0-.255a1.912,1.912,0,0,0-.264-.368c-.025-.025-.1-.107-.227-.246s-.233-.258-.321-.359a1.509,1.509,0,0,1-.227-.349.4.4,0,0,1-.038-.33c.012-.012,0-.031-.038-.057a.978.978,0,0,0-.142-.076c-.057-.025-.11-.047-.16-.066a.371.371,0,0,0-.113-.028,1.442,1.442,0,0,1,.085.274,1.086,1.086,0,0,0,.1.293q.038.075.321.547a2.223,2.223,0,0,1,.453,1.17c-.076.025-.126.013-.151-.038a.687.687,0,0,1-.057-.208,1.187,1.187,0,0,0-.038-.189.71.71,0,0,0-.293-.246.641.641,0,0,1-.293-.264.088.088,0,0,0,.047-.019.091.091,0,0,1,.047-.019.648.648,0,0,0-.2-.434q-.217-.264-.179-.377a.924.924,0,0,1-.264-.443,1.664,1.664,0,0,0-.189-.425.807.807,0,0,0-.189-.2q-.113-.085-.283-.189t-.227-.142a.727.727,0,0,1-.151-.169q-.623-.755-.377-.812-.245.057-.406-.368a1.175,1.175,0,0,1-.1-.651l-.038-.019a2.8,2.8,0,0,0,.019-.444,4.365,4.365,0,0,1,.047-.67q.047-.3.179-.3-.132.019-.2-.236a.505.505,0,0,1-.01-.349c.013-.038.069-.012.17.076a.966.966,0,0,1,.17.17q.245-.132.189-.34a2.591,2.591,0,0,0-.4-.4,7.026,7.026,0,0,0-.83-.51.265.265,0,0,0-.057-.359q-.189.113-.217.057a.731.731,0,0,1-.047-.208c-.012-.1-.044-.157-.094-.17A.5.5,0,0,1,4.267,8.1,11.911,11.911,0,0,1,8.7,3.908a3.02,3.02,0,0,1,.415-.019.754.754,0,0,1,.283.094,1.489,1.489,0,0,1,.274.208q.142.132.217.189A.462.462,0,0,0,9.8,4.04q.037-.113.415-.227a1.069,1.069,0,0,1,.566.019A4.965,4.965,0,0,0,10.4,3.36l-.094.094q-.151-.132-.793.132c-.025.012-.088.047-.189.1a2.207,2.207,0,0,1-.245.123.465.465,0,0,1-.227.019,10.692,10.692,0,0,1,1.774-.774,1.864,1.864,0,0,1,.189.16q.132.123.208.179c-.038-.025-.063-.013-.076.038a.487.487,0,0,0,0,.377.351.351,0,0,0,.255.151,1.405,1.405,0,0,0,.387-.019,2.35,2.35,0,0,1,.3-.038l.189.019q.6.057.472-.113a1.211,1.211,0,0,1,.132.312.837.837,0,0,0,.17.33q.094-.076.038-.264a.31.31,0,0,1,0-.264.215.215,0,0,1,.113-.076l.217-.085q.123-.047.161-.066.113-.076-.151-.264a1.289,1.289,0,0,0-.16-.057c-.082-.025-.154-.05-.217-.075a1.2,1.2,0,0,1-.2-.1.161.161,0,0,1-.095-.151.51.51,0,0,1,.1-.217.514.514,0,0,1,.368-.075.934.934,0,0,1,.387.094q.51.283.151.51a1.354,1.354,0,0,1,.453.151q.264.132.208.283.151-.283.3-.283c.063.013.123.1.179.255a1.55,1.55,0,0,0,.1.255c.1.138.2.17.3.094a1.592,1.592,0,0,0,.311-.33q.16-.217.179-.2c-.126-.05-.139-.1-.038-.151a.6.6,0,0,1,.509-.094.715.715,0,0,1,.151.17q.169.34-.057.321a.412.412,0,0,1,.142.377c-.019.151-.117.22-.293.208a.67.67,0,0,1-.274-.094.848.848,0,0,0-.274-.1.455.455,0,0,0-.264.1,2.389,2.389,0,0,0-.2.321,1.445,1.445,0,0,1-.217.321,1.114,1.114,0,0,1-.944.208c.038,0,.035.038-.01.113a2.177,2.177,0,0,1-.179.255q-.113.141-.132.16a.963.963,0,0,0-.227.434q0,.038-.019.255a.949.949,0,0,1-.076.33q.226-.057.359.227.113.264,0,.283a2.228,2.228,0,0,1,1.1.076q.679.245.774.491.113-.17.547-.019c.113.063.214.252.3.566a1.22,1.22,0,0,0,.255.491.309.309,0,0,0,.387.113l.056-.038c.05-.025.091-.047.123-.066a.8.8,0,0,0,.1-.076.179.179,0,0,0,.066-.085.08.08,0,0,0-.028-.076.681.681,0,0,1-.2-.311.4.4,0,0,1,.029-.349,1.262,1.262,0,0,1,.3-.227.682.682,0,0,0,.3-.3.333.333,0,0,0-.188-.406q-.264-.16-.264-.293a.37.37,0,0,1,.123-.227.3.3,0,0,0,.1-.245.917.917,0,0,0-.066-.236,1.3,1.3,0,0,1-.075-.264.281.281,0,0,1,.085-.2,1.168,1.168,0,0,1,.623.009,2.107,2.107,0,0,1,.642.179,1.674,1.674,0,0,0,.245.113,2.273,2.273,0,0,1,.331.16c.094.057.147.11.16.16h-.094a.453.453,0,0,1,.16.264.2.2,0,0,1-.141.227.594.594,0,0,1,.3.057q.3.113.019.208a1.21,1.21,0,0,1,.16-.038.435.435,0,0,0,.16-.057.53.53,0,0,0,.094-.066.311.311,0,0,1,.085-.056.6.6,0,0,1,.085-.019.154.154,0,0,1,.113.028c.013,0,.041-.032.085-.094s.091-.126.141-.189.094-.094.132-.094a.143.143,0,0,1,.1.047.4.4,0,0,1,.076.1c.019.038.037.079.057.122s.034.079.047.1a.5.5,0,0,0,.179.2.506.506,0,0,1,.179.2c.013.038.037.132.075.283a.621.621,0,0,0,.151.311.737.737,0,0,0,.283.142.3.3,0,0,0,.17-.019.452.452,0,0,1,.217-.019c.057.012.085.063.085.151q.113-.113.113-.151a.8.8,0,0,0,.123.4.335.335,0,0,0,.33.132l-.038.415a.421.421,0,0,1-.283.141,1.032,1.032,0,0,0-.283.085,1.3,1.3,0,0,0-.274.227c-.145.139-.2.22-.179.245a.919.919,0,0,0-.962-.208,4.749,4.749,0,0,0-.981.227,1.373,1.373,0,0,0-.415.283.593.593,0,0,0-.066.132q-.047.113-.094.208c-.032.063-.06.094-.085.094a.485.485,0,0,0,.255-.179,1.092,1.092,0,0,1,.179-.179,1.015,1.015,0,0,1,.813-.225q.415.113.132.3c-.025.025-.091.034-.2.028a.68.68,0,0,0-.217.01,1,1,0,0,1,.284.1.122.122,0,0,1,.056.179q.3.17.113.378a.682.682,0,0,1-.585.208q.057,0,0,.075l-.321.208q-.037.019-.245.094a.641.641,0,0,0-.283.17.377.377,0,0,0-.057.227,1,1,0,0,1-.019.227c-.012.051-.063.063-.151.038q-.057.113-.349.179a.636.636,0,0,0-.387.2.218.218,0,0,1-.019.3.241.241,0,0,1-.4-.038.272.272,0,0,0-.142.189.35.35,0,0,1-.141.208c.088.138.075.239-.037.3a.26.26,0,0,1,.085.038,1.419,1.419,0,0,1,.142.094.274.274,0,0,0,.094.057c-.05.113-.12.17-.208.17q.113.3-.283.661a.867.867,0,0,1-.236.151c-.107.05-.2.091-.293.123a.616.616,0,0,0-.151.066,1.279,1.279,0,0,0-.283.349.408.408,0,0,0-.029.349.426.426,0,0,0,.349.227l.018.151v.34l.019.151q.019.132.029.236a1.874,1.874,0,0,1,0,.264c-.006.107-.035.167-.085.179a.344.344,0,0,1-.208-.038q-.152-.075-.359-.83a1.26,1.26,0,0,0-.227-.453.568.568,0,0,1-.16.122c-.044.019-.076.022-.094.01a1.244,1.244,0,0,1-.1-.085,1.26,1.26,0,0,0-.132-.1,1,1,0,0,0-.331-.094.611.611,0,0,1-.292-.094q-.453.34-.548-.169a.4.4,0,0,0,.01.255,1.481,1.481,0,0,1,.047.179q-.132.246-.415.038-.113-.113-.519-.028a1.085,1.085,0,0,1-.538.028c.013,0,.038.019.076.057a.515.515,0,0,1,.075.056.237.237,0,0,1-.057.113.08.08,0,0,1-.075.029.192.192,0,0,0-.085,0,.318.318,0,0,0-.085.028,1.166,1.166,0,0,0-.189.2.939.939,0,0,1-.17.179,1.245,1.245,0,0,1,.1.462q-.01.161-.057.472a3.487,3.487,0,0,0-.047.5,1.735,1.735,0,0,0,.179.7,1.2,1.2,0,0,0,.425.547,1.116,1.116,0,0,0,.453.094,1.1,1.1,0,0,0,.453-.038.464.464,0,0,0,.17-.132.638.638,0,0,0,.094-.217q.038-.141.057-.2a.521.521,0,0,1,.49-.378.553.553,0,0,1,.331.047.166.166,0,0,1,.085.179.95.95,0,0,1-.075.236c-.038.082-.085.173-.142.274a1.043,1.043,0,0,0-.1.227,3.146,3.146,0,0,0-.066.425,2.335,2.335,0,0,1-.048.33,1.1,1.1,0,0,0,.283.019.448.448,0,0,1,.028-.123.537.537,0,0,0,.028-.1.373.373,0,0,0,.3.17.287.287,0,0,0,.3-.151q.038.057.227.283a.816.816,0,0,1,.208.377c.013.051.037.132.075.246a.468.468,0,0,1,.038.236c-.013.043-.076.066-.189.066a.087.087,0,0,0-.094.057.257.257,0,0,0,0,.141,1.269,1.269,0,0,0,.047.16,1.228,1.228,0,0,0,.075.16.349.349,0,0,1,.048.1.636.636,0,0,0,.925.34q0,.547-.265.6C16.547,22.335,16.434,22.272,16.308,22.121Zm.282,4.264a1.511,1.511,0,0,1-.036-.3.7.7,0,0,1,.132-.406.873.873,0,0,0,.151-.387q-.3-.075-.227-.491a1.555,1.555,0,0,1,.547-.755.872.872,0,0,0,.227-.906,5.219,5.219,0,0,1-.095-.717,6.422,6.422,0,0,0-.076-.661c0,.038.06.072.18.1s.192.072.217.122a1.143,1.143,0,0,0,.094-.207.96.96,0,0,1,.113-.227.643.643,0,0,1,.161-.142,1.854,1.854,0,0,1,.16-.1,1.445,1.445,0,0,0,.169-.123q.132-.1.217-.16a.627.627,0,0,1,.226-.085.161.161,0,0,1,.2.085q.095.113-.037.349t0,.331a1.407,1.407,0,0,0,.037-.246.457.457,0,0,1,.113-.283.429.429,0,0,1,.217-.132.269.269,0,0,1,.188.028,1.678,1.678,0,0,1,.2.132.531.531,0,0,0,.208.1,2.337,2.337,0,0,1,.68.415c-.013-.013-.013-.028,0-.048a.2.2,0,0,1,.076-.057c.038-.019.072-.037.1-.057a.529.529,0,0,1,.1-.047l.057-.019a.648.648,0,0,0,.188-.019.217.217,0,0,1,.16.038,1.286,1.286,0,0,1,.141.085c.025.019.069.053.132.1a1.658,1.658,0,0,1,.132.113l.208.132q.151.094.236.151a.5.5,0,0,1,.151.169.372.372,0,0,1,.048.246,2.98,2.98,0,0,1,.453.151.678.678,0,0,0,.236.066.455.455,0,0,1,.236.085A11.666,11.666,0,0,1,16.59,26.385Z"
            transform="translate(0)" />
        </svg>
