<svg xmlns="http://www.w3.org/2000/svg" width="31" height="31" viewBox="0 0 31 31">
  <g id="Group_7988" data-name="Group 7988" transform="translate(2308 -3042.979)">
    <path id="Path_20932" data-name="Path 20932" d="M83.1,245.324c.085,0,.142-.01.2-.01.3,0,.6.01.892,0a1.343,1.343,0,0,1,1.366,1.339c0,.059,0,.118,0,.177q0,9.488,0,18.975a1.845,1.845,0,0,1-.074.589,1.319,1.319,0,0,1-1.191.915l-.239,0H56.063a1.941,1.941,0,0,1-.518-.043,1.339,1.339,0,0,1-.973-1.152c-.008-.1-.014-.206-.014-.309q0-9.5,0-19a1.9,1.9,0,0,1,.058-.525,1.327,1.327,0,0,1,1.241-.968c.341,0,.682,0,1.023,0,.036,0,.071.006.108.009a.372.372,0,0,1,.032.238q0,1.194,0,2.389,0,7.2,0,14.4a2.7,2.7,0,0,0,.176,1.061,2.41,2.41,0,0,0,1.981,1.557,3.027,3.027,0,0,0,.434.028l20.894,0a2.566,2.566,0,0,0,.941-.145,2.438,2.438,0,0,0,1.617-1.994,2.72,2.72,0,0,0,.031-.418c0-.413,0-.826,0-1.238q0-7.785,0-15.569C83.093,245.535,83.1,245.44,83.1,245.324Z" transform="translate(-2362.557 2800.338)" fill="#1f6ce8"/>
    <path id="Path_20933" data-name="Path 20933" d="M97.4,218.6v-.216q0-1.5,0-3.008a1.56,1.56,0,0,1,.042-.394,1.324,1.324,0,0,1,1.143-1c.137-.009.274-.013.411-.013h20.619q.13,0,.26.008a1.336,1.336,0,0,1,1.225,1.334c0,.052,0,.1,0,.155v3.125a1.033,1.033,0,0,1-.134.027c-.065,0-.13,0-.195,0H97.731A1.27,1.27,0,0,1,97.4,218.6Zm17.065-1.734h.216c.151,0,.3.007.454,0a.571.571,0,0,0,.073-1.124.792.792,0,0,0-.171-.017c-.375,0-.749,0-1.124,0a.809.809,0,0,0-.233.036.568.568,0,0,0-.029,1.063.815.815,0,0,0,.253.044C114.094,216.873,114.282,216.869,114.469,216.869Zm-3.7,0h.259c.13,0,.26.005.389,0a.571.571,0,0,0,.067-1.132.8.8,0,0,0-.15-.012c-.375,0-.749,0-1.124,0a.781.781,0,0,0-.212.031.567.567,0,0,0-.023,1.076.812.812,0,0,0,.233.036C110.395,216.872,110.582,216.869,110.769,216.869Zm7.418,0h.13c.173,0,.346.007.519,0a.568.568,0,0,0,.529-.544.573.573,0,0,0-.46-.584.852.852,0,0,0-.172-.014c-.367,0-.735,0-1.1,0a.837.837,0,0,0-.234.034.568.568,0,0,0-.025,1.07.766.766,0,0,0,.232.039C117.8,216.873,117.992,216.869,118.187,216.869Z" transform="translate(-2401.755 2829.007)" fill="#41548f"/>
    <path id="Path_20934" data-name="Path 20934" d="M118.094,522.739c-.169.021-23.951.036-24.265.017a.266.266,0,0,1-.063-.021c0-.086.061-.135.1-.191a5.523,5.523,0,0,1,2.5-1.933,5.833,5.833,0,0,1,1.193-.312,28.487,28.487,0,0,0,3.827-.838,8.457,8.457,0,0,0,1.177-.443c.17-.081.335-.173.5-.269a2.477,2.477,0,0,0,.282-.2,1,1,0,0,0,.4-.82c0-.169-.021-.337-.034-.505,0-.036-.011-.072-.019-.124a1.082,1.082,0,0,1,.145-.021c.311,0,.621,0,.932,0h3.345c.051.061.027.111.017.159a2.058,2.058,0,0,0-.025.594.961.961,0,0,0,.277.608,2.3,2.3,0,0,0,.466.358,5.794,5.794,0,0,0,.964.449,15.724,15.724,0,0,0,1.954.572c.851.2,1.711.353,2.573.495a5.485,5.485,0,0,1,3.623,2.212A.6.6,0,0,1,118.094,522.739Z" transform="translate(-2398.427 2551.215)" fill="#1f6ce8"/>
    <path id="Path_20935" data-name="Path 20935" d="M120.5,282.077c0-.042-.011-.083-.016-.124a.366.366,0,0,0-.074-.019H96.9a.542.542,0,0,0-.093.023v13.849c0,.074,0,.147,0,.221a1.345,1.345,0,0,0,1.025,1.29,1.963,1.963,0,0,0,.452.036h20.745c.065,0,.13,0,.195,0a1.336,1.336,0,0,0,1.239-1,1.8,1.8,0,0,0,.045-.482q0-6.832,0-13.665C120.5,282.165,120.507,282.121,120.5,282.077Zm-18.194,2.517a.758.758,0,0,1,.128-.016c.05,0,.1,0,.152,0h15.759a1.831,1.831,0,0,1,.238.006.573.573,0,0,1,.284,1.014.533.533,0,0,1-.318.123c-.079,0-.159,0-.238,0H102.62c-.079,0-.159,0-.238,0a.571.571,0,0,1-.072-1.126Zm-3.707.021a.629.629,0,0,1,.19-.036c.4,0,.807,0,1.21,0a.6.6,0,0,1,.128.015.571.571,0,0,1-.064,1.125c-.136.012-.274,0-.41,0H99.4c-.187,0-.375,0-.562,0a.827.827,0,0,1-.253-.043.57.57,0,0,1,.021-1.064Z" transform="translate(-2401.206 2766.652)" fill="#41548f"/>
    <g id="Group_7987" data-name="Group 7987" transform="translate(-2296.488 3055.971)">
      <path id="Path_20936" data-name="Path 20936" d="M192.655,383.073a.044.044,0,0,0,.014-.03.492.492,0,0,1,.114-.252l1.22-1.464a.492.492,0,0,1,.858.183.477.477,0,0,1-.1.443c-.128.155-.257.309-.386.464l-.554.664c-.031.037-.031.026,0,.065l.933,1.119a.509.509,0,0,1,.115.235.492.492,0,0,1-.857.41c-.09-.107-.179-.214-.268-.322l-.955-1.145a.524.524,0,0,1-.108-.2.421.421,0,0,1-.014-.068c0-.009,0-.018-.013-.02Z" transform="translate(-192.655 -380.16)" fill="#fff"/>
      <path id="Path_20937" data-name="Path 20937" d="M229.4,370.087a.378.378,0,0,1-.01.093q-.051.256-.1.512l-.1.516-.111.557-.1.52-.112.561-.1.516-.111.557-.1.52-.112.561c-.007.033-.012.066-.019.1a.477.477,0,0,1-.38.384.489.489,0,0,1-.59-.41.594.594,0,0,1,.012-.2l.176-.881q.1-.508.2-1.017.083-.412.164-.825l.143-.712.149-.75.139-.693a.5.5,0,0,1,.4-.4.489.489,0,0,1,.578.489Z" transform="translate(-224.474 -369.589)" fill="#fff"/>
      <path id="Path_20938" data-name="Path 20938" d="M261.395,383.021v.139a.416.416,0,0,1-.059.177.493.493,0,0,1-.053.075l-1.223,1.467a.492.492,0,0,1-.857-.185.477.477,0,0,1,.1-.44c.111-.136.224-.27.337-.4l.61-.732.012-.015c.008-.011.009-.013,0-.023l-.017-.021-.933-1.119a.514.514,0,0,1-.112-.22.49.49,0,0,1,.394-.591.477.477,0,0,1,.469.175q.424.507.847,1.016l.372.446a.515.515,0,0,1,.1.183A.276.276,0,0,1,261.395,383.021Z" transform="translate(-253.52 -380.14)" fill="#fff"/>
    </g>
  </g>
</svg>
