<svg xmlns="http://www.w3.org/2000/svg" width="31" height="31" viewBox="0 0 31 31">
  <g id="_06_career" data-name="06 career" transform="translate(-41.224 -45.319)">
    <path id="Path_20898" data-name="Path 20898" d="M41.226,88.12a23.021,23.021,0,0,0,2.961,2.542A21.271,21.271,0,0,0,54,94.564c.36.044.719.1,1.082.114.22,0,.248.1.242.286v1.217a1.448,1.448,0,0,0,.657,1.356,1.372,1.372,0,0,0,1.477,0,1.448,1.448,0,0,0,.657-1.356V94.965c0-.194.034-.27.248-.286a21.742,21.742,0,0,0,13.572-6.257c.074-.076.155-.146.229-.216.09.064.056.137.056.2V101.86a4.305,4.305,0,0,1-3.41,4.357,4.509,4.509,0,0,1-.949.089H45.6a4.186,4.186,0,0,1-3.132-1.269,4.406,4.406,0,0,1-1.242-3.208V88.12Z" transform="translate(0 -29.989)" fill="#41548f"/>
    <path id="Path_20899" data-name="Path 20899" d="M72.33,54.245a4.212,4.212,0,0,0-4.029-3.1H64.374c-.239,0-.31-.057-.31-.318a14.265,14.265,0,0,0-.034-1.589,4.28,4.28,0,0,0-3.276-3.778,10.8,10.8,0,0,0-2.56-.114c-1.485,0-2.969-.083-4.451.048a4.22,4.22,0,0,0-3.62,3.114,8.3,8.3,0,0,0-.167,2.313c0,.251-.062.318-.31.318H45.719A4.226,4.226,0,0,0,41.69,54.2a.677.677,0,0,0,.114.681,22.045,22.045,0,0,0,2.52,2.8,18.368,18.368,0,0,0,11.437,4.948,17.544,17.544,0,0,0,4.851-.318A19.15,19.15,0,0,0,72.237,54.83.6.6,0,0,0,72.33,54.245Zm-11.4-3.1H53.12c-.282,0-.356-.089-.341-.365.022-.369,0-.74,0-1.112a1.413,1.413,0,0,1,1.385-1.427h5.672a1.412,1.412,0,0,1,1.395,1.424v1.182c.019.248-.074.3-.3.3Z" transform="translate(-0.287)" fill="#1f6ce8"/>
  </g>
</svg>
