<svg xmlns="http://www.w3.org/2000/svg" width="31" height="28" viewBox="0 0 31 28">
  <g id="_07_gallery" data-name="07 gallery" transform="translate(-79.712 -79.646)">
    <path id="Path_20900" data-name="Path 20900" d="M120.723,84.545c-.08.627-.17,1.254-.238,1.882q-.39,3.472-.767,6.945t-.748,6.851c-.08.724-.142,1.455-.247,2.176a1.509,1.509,0,0,1-1.039,1.209V88.429a3.725,3.725,0,0,0-2.783-3.776,4.3,4.3,0,0,0-.955-.1H94.31l.17-1.652c.053-.485.114-.97.158-1.452a1.749,1.749,0,0,1,2.047-1.785c2.517.3,5.034.618,7.55.925l7.581.915c2.449.294,4.894.6,7.343.892a1.832,1.832,0,0,1,1.564,1.455Z" transform="translate(-10.012)" fill="#1f6ce8"/>
    <path id="Path_20901" data-name="Path 20901" d="M79.747,114.866V102.327a2.378,2.378,0,0,1,.393-1.4,1.389,1.389,0,0,1,1.109-.657h23.042a1.977,1.977,0,0,1,2.074,1.735,2.243,2.243,0,0,1,.022.355v7.014a.435.435,0,0,1-.226.434q-4.43,2.7-8.847,5.423a2.119,2.119,0,0,1-2.828-.293l-4.367-4.016a3.673,3.673,0,0,0-2.862-1.071,3.912,3.912,0,0,0-2.105.878l-5.011,3.836Zm19.479-8.059a3.55,3.55,0,1,0,.006,0Z" transform="translate(-0.023 -14.144)" fill="#41548f"/>
    <path id="Path_20902" data-name="Path 20902" d="M106.354,134.865v8.024a1.75,1.75,0,0,1-1.722,1.829H81.373a1.524,1.524,0,0,1-1.634-1.257,3.23,3.23,0,0,1-.025-.553V140.25a.462.462,0,0,1,.214-.437c2.08-1.53,4.15-3.073,6.227-4.606a2.018,2.018,0,0,1,2.828.123c1.455,1.282,2.894,2.579,4.355,3.855a3.854,3.854,0,0,0,4.084.814,4.479,4.479,0,0,0,.767-.383q3.918-2.272,7.826-4.556A2.3,2.3,0,0,1,106.354,134.865Z" transform="translate(0 -37.072)" fill="#41548f"/>
    <path id="Path_20903" data-name="Path 20903" d="M126.369,117.952a1.866,1.866,0,1,1,1.863-1.851A1.866,1.866,0,0,1,126.369,117.952Z" transform="translate(-30.934 -23.4)" fill="#1f6ce8"/>
  </g>
</svg>
