<svg xmlns="http://www.w3.org/2000/svg" width="31" height="31" viewBox="0 0 31 31">
  <g id="_01_about" data-name="01 about" transform="translate(-74.27 -69.642)">
    <path id="Path_20868" data-name="Path 20868" d="M111.732,103.375a1.462,1.462,0,0,1-.565-.115,1.188,1.188,0,0,1-.642-1.633,5.655,5.655,0,0,0,.622-2.588,6.71,6.71,0,0,0-13.371,0,5.659,5.659,0,0,0,.627,2.588,1.189,1.189,0,0,1-.647,1.635,1.391,1.391,0,0,1-1.779-.594A8.157,8.157,0,0,1,98.66,92.292a10.015,10.015,0,0,1,11.607,0,8.157,8.157,0,0,1,2.682,10.376A1.351,1.351,0,0,1,111.732,103.375Z" transform="translate(-14.692 -14.099)" fill="#1f6ce8"/>
    <path id="Path_20869" data-name="Path 20869" d="M101.844,94.241a1.287,1.287,0,0,1-1.13-.674,1.323,1.323,0,0,1,.035-1.328,13.192,13.192,0,0,0-6.686-19.252A12.808,12.808,0,0,0,79.7,77.128a13.246,13.246,0,0,0-.916,15.111,1.324,1.324,0,0,1-.4,1.812,1.285,1.285,0,0,1-1.787-.407,15.823,15.823,0,0,1,8.021-23.108,15.368,15.368,0,0,1,17.23,4.976,15.894,15.894,0,0,1,1.092,18.132A1.288,1.288,0,0,1,101.844,94.241Z" transform="translate(0 0)" fill="#1f6ce8"/>
    <circle id="Ellipse_590" data-name="Ellipse 590" cx="3.685" cy="3.685" r="3.685" transform="translate(86.085 82.766)" fill="#41548f"/>
    <path id="Path_20870" data-name="Path 20870" d="M110.325,140.44h-7.37a3.688,3.688,0,0,0-3.685,3.685v3.685a1.226,1.226,0,0,0,1.226,1.229h12.284a1.229,1.229,0,0,0,1.229-1.229v-3.685A3.691,3.691,0,0,0,110.325,140.44Z" transform="translate(-16.87 -48.397)" fill="#41548f"/>
  </g>
</svg>
