<svg xmlns="http://www.w3.org/2000/svg" width="31" height="31" viewBox="0 0 31 31">
  <g id="Group_7986" data-name="Group 7986" transform="translate(2532 -3041.983)">
    <path id="Path_20922" data-name="Path 20922" d="M316.938,439.956a1.128,1.128,0,0,1-1.175.646c-2.755-.015-5.511-.007-8.267-.007-.85,0-1.147-.3-1.154-1.141a5.935,5.935,0,0,1,.264-2.206,4.662,4.662,0,0,1,4.263-3.139,3.243,3.243,0,0,1-1.993-1.623,3.037,3.037,0,0,1-.142-2.516,3.109,3.109,0,0,1,5.94.389,3.041,3.041,0,0,1-.356,2.3,3.164,3.164,0,0,1-1.879,1.432,10.949,10.949,0,0,1,1.133.224,4.536,4.536,0,0,1,3.31,3.746c.013.068.037.134.056.2Z" transform="translate(-2817.938 2632.38)" fill="#41548f"/>
    <path id="Path_20923" data-name="Path 20923" d="M53.5,438.328a9.139,9.139,0,0,1,.272-1.046,4.623,4.623,0,0,1,4.167-3.1c-1.915-.866-2.747-2.268-1.968-4.323a3,3,0,0,1,3.268-1.813,3.124,3.124,0,0,1,2.61,2.481,3.073,3.073,0,0,1-.42,2.261,3.147,3.147,0,0,1-1.792,1.355,13.272,13.272,0,0,1,1.436.351,4.606,4.606,0,0,1,3.019,4.269c.007.282,0,.564,0,.846,0,.719-.332,1.047-1.061,1.049-1.12,0-2.241,0-3.361,0-1.665,0-3.331-.013-5,.007a1.125,1.125,0,0,1-1.176-.646Z" transform="translate(-2585.5 2632.314)" fill="#41548f"/>
    <path id="Path_20924" data-name="Path 20924" d="M184.64,208.136a3.345,3.345,0,0,1-2.044-1.9,3.063,3.063,0,0,1-.1-2.042,3.112,3.112,0,0,1,6.033.243c.336,1.544-.394,2.75-2.188,3.655a12.743,12.743,0,0,1,1.384.328,4.609,4.609,0,0,1,3.052,4.28c.01.312.01.625,0,.937a.882.882,0,0,1-.967.958q-4.332.006-8.664,0a.874.874,0,0,1-.959-.959,7.13,7.13,0,0,1,.2-2.246,4.636,4.636,0,0,1,4.111-3.242C184.549,208.146,184.594,208.14,184.64,208.136Z" transform="translate(-2701.962 2840.024)" fill="#41548f"/>
    <path id="Path_20925" data-name="Path 20925" d="M335.8,287.893a.92.92,0,0,1-.781.971.882.882,0,0,1-.991-.695,13.591,13.591,0,0,0-.914-2.868,11.939,11.939,0,0,0-2.477-3.547.966.966,0,0,1-.344-.917.864.864,0,0,1,.639-.7.884.884,0,0,1,.914.249,13.934,13.934,0,0,1,3.923,7.278C335.785,287.755,335.792,287.845,335.8,287.893Z" transform="translate(-2839.937 2768.222)" fill="#1f6ce8"/>
    <path id="Path_20926" data-name="Path 20926" d="M98.314,280.989a1.043,1.043,0,0,1-.373.763,12,12,0,0,0-3.134,5.394c-.085.31-.145.627-.217.94a.906.906,0,1,1-1.773-.366,13.779,13.779,0,0,1,3.9-7.318.908.908,0,0,1,1.046-.246A.9.9,0,0,1,98.314,280.989Z" transform="translate(-2621.621 2768.239)" fill="#1f6ce8"/>
    <path id="Path_20927" data-name="Path 20927" d="M190.837,476.464a13.441,13.441,0,0,1-4.22-.624.907.907,0,1,1,.563-1.723,12.14,12.14,0,0,0,4.334.5,12.771,12.771,0,0,0,2.934-.556.894.894,0,0,1,1.158,1.055.926.926,0,0,1-.71.707A13.585,13.585,0,0,1,190.837,476.464Z" transform="translate(-2707.258 2590.01)" fill="#1f6ce8"/>
  </g>
</svg>
