<svg xmlns="http://www.w3.org/2000/svg" width="31.818" height="31" viewBox="0 0 31.818 31">
  <g id="Group_7989" data-name="Group 7989" transform="translate(2274.818 -3106.822)">
    <path id="Path_20939" data-name="Path 20939" d="M134.954,167.8c.036-.019.076-.038.115-.06a11.252,11.252,0,0,1,2.853-1.184c.169-.044.152-.042.152-.2q0-1.173,0-2.347a1.2,1.2,0,0,1,.038-.365,1.093,1.093,0,0,1,.867-.793,1.261,1.261,0,0,1,.266-.024h3.185a1.161,1.161,0,0,1,.723.222,1.112,1.112,0,0,1,.452.861c0,.05,0,.1,0,.151v2.23c0,.028,0,.056,0,.084,0,.123-.022.133.142.175.308.079.612.173.912.279a11.359,11.359,0,0,1,1.927.895l.058.034c.08.044.084.044.145-.013.033-.031.063-.063.095-.095q.818-.818,1.636-1.636a1.122,1.122,0,0,1,.508-.311,1.094,1.094,0,0,1,.971.172,1.541,1.541,0,0,1,.176.155q1.127,1.125,2.253,2.252a1.18,1.18,0,0,1,.346.619,1.082,1.082,0,0,1-.187.858,1.551,1.551,0,0,1-.177.2q-.811.814-1.624,1.625c-.028.028-.056.055-.083.083-.056.059-.057.06-.017.129q.286.483.523.993a11.433,11.433,0,0,1,.685,1.887c.051.192.012.178.232.178h2.314a1.334,1.334,0,0,1,.4.044,1.092,1.092,0,0,1,.783,1c0,.542,0,1.084,0,1.626,0,.011,0,.022,0,.033,0,.031-.017.053-.05.055s-.078,0-.117,0h-6.84c-.175,0-.165.005-.168-.162A7.619,7.619,0,0,0,142.6,170.2a7.678,7.678,0,0,0-1.291-.189,7.207,7.207,0,0,0-1.172.018,7.286,7.286,0,0,0-2.4.632,7.559,7.559,0,0,0-4.033,4.317,7.053,7.053,0,0,0-.394,1.572,7.188,7.188,0,0,0-.069.9c0,.034,0,.067,0,.1a.053.053,0,0,1-.054.052c-.039,0-.078,0-.117,0h-6.84c-.034,0-.067,0-.1,0-.056,0-.071-.017-.074-.068,0-.028,0-.056,0-.084,0-.486,0-.973,0-1.459a1.124,1.124,0,0,1,.114-.519,1.075,1.075,0,0,1,.977-.626c.324-.01.648,0,.972,0h1.526c.1,0,.1,0,.126-.1.1-.378.215-.751.351-1.118a11.545,11.545,0,0,1,.828-1.756c.109-.188.112-.137-.037-.287q-.834-.837-1.671-1.672a1.123,1.123,0,0,1-.319-.559,1.089,1.089,0,0,1,.184-.906,1.314,1.314,0,0,1,.143-.164q1.145-1.143,2.292-2.284a1.113,1.113,0,0,1,.561-.316,1.087,1.087,0,0,1,.971.241c.051.043.1.092.145.139l1.613,1.612A.422.422,0,0,0,134.954,167.8Z" transform="translate(-2399.75 2944.001)" fill="#1f6ce8"/>
    <path id="Path_20940" data-name="Path 20940" d="M229.337,270.761a4.676,4.676,0,1,1,4.692-4.616A4.677,4.677,0,0,1,229.337,270.761Z" transform="translate(-2488.264 2855.085)" fill="#41548f"/>
    <path id="Path_20941" data-name="Path 20941" d="M131.72,330.11q0-1.6,0-3.2c0-.061,0-.123.005-.184a.453.453,0,0,1,.337-.394.863.863,0,0,1,.233-.021h3.889a.814.814,0,0,1,.2.018.467.467,0,0,1-.074.918l-.184,0h-3.352c-.106,0-.111.007-.113.115,0,.045,0,.089,0,.134q0,3.185,0,6.369a1.579,1.579,0,0,1-.007.2.456.456,0,0,1-.463.419c-.045,0-.089,0-.134,0h-1.609c-.045,0-.089,0-.134,0a.043.043,0,0,0-.042.043q0,.075,0,.151,0,.939,0,1.877c0,.045,0,.09,0,.134,0,.064-.013.073-.083.067-.039,0-.078-.009-.116-.014a2.231,2.231,0,0,0-.535,0c-.05.006-.1.013-.15.015a.046.046,0,0,1-.052-.051c0-.022,0-.045,0-.067q0-1.282,0-2.564a.817.817,0,0,1,0-.1.467.467,0,0,1,.472-.433c.179-.005.358,0,.536,0h1.19c.045,0,.089,0,.134,0a.049.049,0,0,0,.054-.05q0-.075,0-.151Q131.72,331.727,131.72,330.11Z" transform="translate(-2402.693 2796.298)" fill="#41548f"/>
    <path id="Path_20942" data-name="Path 20942" d="M343.929,330.108q0,1.626,0,3.251c0,.208-.024.185.189.186h1.659a.659.659,0,0,1,.215.025.454.454,0,0,1,.32.408c0,.044,0,.089,0,.134q0,1.24,0,2.48c0,.022,0,.045,0,.067,0,.107,0,.108-.118.1-.078-.008-.155-.02-.233-.023a2,2,0,0,0-.418.017.836.836,0,0,1-.117.011.047.047,0,0,1-.051-.052c0-.045,0-.089,0-.134q0-.947,0-1.894c0-.226.022-.2-.194-.2H343.59c-.045,0-.089,0-.134,0a.465.465,0,0,1-.465-.456c0-.056,0-.112,0-.168q0-3.2,0-6.4c0-.05,0-.1,0-.151a.057.057,0,0,0-.064-.06h-3.419c-.061,0-.123,0-.184,0a.456.456,0,0,1-.413-.434.462.462,0,0,1,.325-.474.8.8,0,0,1,.249-.026h3.888a.831.831,0,0,1,.2.018.457.457,0,0,1,.356.414c0,.056,0,.112,0,.168Q343.929,328.508,343.929,330.108Z" transform="translate(-2590.773 2796.3)" fill="#41548f"/>
    <path id="Path_20943" data-name="Path 20943" d="M227.945,439.025a1.925,1.925,0,1,1-1.913-1.928A1.922,1.922,0,0,1,227.945,439.025Z" transform="translate(-2487.74 2696.874)" fill="#41548f"/>
    <path id="Path_20944" data-name="Path 20944" d="M115.172,439.012a1.924,1.924,0,1,1,1.906,1.934A1.921,1.921,0,0,1,115.172,439.012Z" transform="translate(-2389.99 2696.875)" fill="#41548f"/>
    <path id="Path_20945" data-name="Path 20945" d="M170.044,440.947a1.925,1.925,0,1,1,1.932-1.927A1.928,1.928,0,0,1,170.044,440.947Z" transform="translate(-2437.512 2696.875)" fill="#41548f"/>
    <path id="Path_20946" data-name="Path 20946" d="M334.857,439.025a1.924,1.924,0,1,1,1.92,1.921A1.921,1.921,0,0,1,334.857,439.025Z" transform="translate(-2587.138 2696.875)" fill="#41548f"/>
    <path id="Path_20947" data-name="Path 20947" d="M387.816,439.02a1.924,1.924,0,1,1,1.914,1.926A1.92,1.92,0,0,1,387.816,439.02Z" transform="translate(-2634.664 2696.875)" fill="#41548f"/>
    <path id="Path_20948" data-name="Path 20948" d="M278.907,439.018a1.923,1.923,0,1,1,1.911,1.927A1.917,1.917,0,0,1,278.907,439.018Z" transform="translate(-2536.928 2696.875)" fill="#41548f"/>
    <path id="Path_20949" data-name="Path 20949" d="M329.734,358.092v3.37c0,.039,0,.078,0,.117,0,.125,0,.129-.118.113a2.388,2.388,0,0,0-.7,0,.458.458,0,0,1-.05,0c-.059,0-.072-.007-.074-.062s0-.1,0-.151q0-3.119,0-6.237c0-.056,0-.112,0-.167a.044.044,0,0,0-.042-.044c-.045,0-.089,0-.134,0h-1.543c-.056,0-.112,0-.168,0a.466.466,0,0,1-.091-.908.643.643,0,0,1,.2-.027h2.2a.8.8,0,0,1,.166.017.447.447,0,0,1,.36.409c0,.061,0,.123,0,.184Q329.734,356.4,329.734,358.092Z" transform="translate(-2579.625 2771.364)" fill="#41548f"/>
    <path id="Path_20950" data-name="Path 20950" d="M182.4,358.075q0-1.685,0-3.37c0-.061,0-.123,0-.184a.446.446,0,0,1,.361-.408.776.776,0,0,1,.166-.017h2.18a.709.709,0,0,1,.182.021.469.469,0,0,1,.024.9.725.725,0,0,1-.216.019h-1.61c-.151,0-.154-.005-.152.16,0,.034,0,.067,0,.1q0,3.1,0,6.2c0,.226.03.215-.2.186a2.191,2.191,0,0,0-.535,0c-.044.005-.089.012-.133.015s-.063-.008-.065-.053,0-.1,0-.151Q182.4,359.785,182.4,358.075Z" transform="translate(-2450.323 2771.362)" fill="#41548f"/>
    <path id="Path_20951" data-name="Path 20951" d="M238.3,365.752q0-1.482,0-2.965a1.869,1.869,0,0,1,.006-.2.456.456,0,0,1,.423-.4.463.463,0,0,1,.49.346,1.02,1.02,0,0,1,.02.25q0,1.809,0,3.618,0,1.206,0,2.412c0,.161,0,.161-.157.139a2.256,2.256,0,0,0-.634,0c-.033,0-.067.006-.1.008a.038.038,0,0,1-.044-.038c0-.05,0-.1,0-.151Q238.3,367.259,238.3,365.752Z" transform="translate(-2500.49 2764.105)" fill="#41548f"/>
    <path id="Path_20952" data-name="Path 20952" d="M293.977,368.96a2.719,2.719,0,0,0-.914,0,.3.3,0,0,1-.024-.177q0-.838,0-1.675,0-2.169,0-4.338a1.448,1.448,0,0,1,0-.167.48.48,0,0,1,.413-.422.46.46,0,0,1,.5.313.557.557,0,0,1,.024.131c0,.05,0,.1,0,.151v6.187Z" transform="translate(-2549.608 2764.11)" fill="#41548f"/>
  </g>
</svg>
