<svg xmlns="http://www.w3.org/2000/svg" width="31" height="31" viewBox="0 0 31 31">
  <g id="_05_case_study" data-name="05 case_study" transform="translate(-68.46 -75)">
    <path id="Path_20892" data-name="Path 20892" d="M69.1,94.68h5.242v1.305h-4.6v13.28H98.18V95.985h-4.6V94.68h5.245a.645.645,0,0,1,.639.651v18.755a.645.645,0,0,1-.639.651H69.1a.648.648,0,0,1-.642-.651V95.331a.648.648,0,0,1,.642-.651ZM93.471,111.3V112.6h1.259V111.3Zm2.058,0V112.6h1.259V111.3Z" transform="translate(0 -13.684)" fill="#41548f"/>
    <path id="Path_20893" data-name="Path 20893" d="M116.477,155.251c0-.36-.745-.651-1.662-.651s-1.665.291-1.665.651v4.42c0,.36.745.651,1.665.651s1.662-.291,1.662-.651Z" transform="translate(-30.852 -54.984)" fill="#41548f"/>
    <path id="Path_20894" data-name="Path 20894" d="M97.87,169.37c0,1.393,12.892,1.393,12.892,0S97.87,167.98,97.87,169.37Z" transform="translate(-20.355 -64.414)" fill="#41548f"/>
    <path id="Path_20895" data-name="Path 20895" d="M90.064,75h10.854v6.573h6.418V87.52l-3.592,2.842H92.323V91.5h9.98l-1.785,1.415a.66.66,0,0,0-.12.11l-.074.078-.043.106H92.323v1.136h7.468l-.277.648a.494.494,0,0,0-.037.1l-.034.11H89.51V75.57A.562.562,0,0,1,90.064,75Zm12.762,20.21h4.51V91.648l-4.51,3.565Zm-10.5-10.529V85.82h12.2V84.681Zm0,2.845v1.139h12.2V87.52Zm0-5.693v1.139h7V81.833Z" transform="translate(-14.461)" fill="#1f6ce8"/>
    <path id="Path_20896" data-name="Path 20896" d="M128.37,75l5.963,6.006H128.37Z" transform="translate(-41.38 0)" fill="#1f6ce8"/>
    <path id="Path_20897" data-name="Path 20897" d="M124.678,120.88l-.779,1.787a.144.144,0,0,0,0,.028l1.934-.272a.311.311,0,0,0,.047,0l5.822-4.529-1.177-1.565-5.794,4.507a.481.481,0,0,0-.044.041Zm7.49-3.365-1.177-1.565,1.377-1.07.028.041,1.155,1.506-.041.031Z" transform="translate(-38.386 -27.557)" fill="#41548f"/>
  </g>
</svg>
