<svg xmlns="http://www.w3.org/2000/svg" width="31" height="31" viewBox="0 0 31 31">
  <g id="Group_7992" data-name="Group 7992" transform="translate(-6 -736)">
    <path id="Path_20967" data-name="Path 20967" d="M169.17,402.854a1.192,1.192,0,0,1-1.253.687c-1.095-.028-2.191,0-3.286-.014a.976.976,0,0,0-.694.251q-2.947,2.487-5.908,4.957a2.1,2.1,0,0,1-3.463-.949,2.356,2.356,0,0,1,.276-1.832c-.341.284-.678.574-1.025.852a2.091,2.091,0,0,1-3.1-2.743c.049-.075.1-.147.165-.239-1.263.458-2.14.279-2.776-.551a2.146,2.146,0,0,1,.094-2.664c-.121.05-.2.08-.27.111a2.1,2.1,0,0,1-2.614-.789,2.05,2.05,0,0,1,.375-2.67c.99-.859,2-1.692,3.014-2.527a.566.566,0,0,1,.336-.105q2.867-.01,5.735,0a.634.634,0,0,1,.394.174c.725.705,1.43,1.432,2.155,2.137a3.822,3.822,0,0,0,4.021,1,3.772,3.772,0,0,0,2.7-3.03,3.926,3.926,0,0,0-.724-3.14h.356c1.426,0,2.852.018,4.278-.009a1.149,1.149,0,0,1,1.214.692Z" transform="translate(-132.17 357.705)" fill="#41548f"/>
    <path id="Path_20968" data-name="Path 20968" d="M53.5,348.691A1.157,1.157,0,0,1,54.714,348c2.263.022,4.526.007,6.789.013a.612.612,0,0,0,.488-.2,5.311,5.311,0,0,1,4.054-1.669c1.777.021,3.555.011,5.332,0a3.721,3.721,0,0,1,2.742,1.092c1.2,1.19,2.413,2.377,3.593,3.59a2.081,2.081,0,0,1-.966,3.521,2.111,2.111,0,0,1-2.072-.61c-.805-.8-1.615-1.6-2.408-2.409a1.322,1.322,0,0,0-1.019-.419c-2.191.01-4.381,0-6.572.012a.8.8,0,0,0-.465.169c-1.1.9-2.19,1.823-3.282,2.737a3.944,3.944,0,0,0,1.052,6.752.393.393,0,0,1,.212.183c.173.48.327.966.489,1.458a1.739,1.739,0,0,1-1.691-.523c-.54-.622-1.153-1.182-1.749-1.753a.683.683,0,0,0-.426-.173c-1.353-.013-2.708-.026-4.061,0a1.2,1.2,0,0,1-1.254-.687Z" transform="translate(-47.5 399.063)" fill="#41548f"/>
    <path id="Path_20969" data-name="Path 20969" d="M152.709,269.752a2.756,2.756,0,0,1,.625.348c.831.8,1.645,1.62,2.456,2.442a.926.926,0,1,1-1.323,1.3q-1.222-1.2-2.43-2.424a.9.9,0,0,1-.219-1.048A1.07,1.07,0,0,1,152.709,269.752Z" transform="translate(-137.837 468.353)" fill="#1f6ce8"/>
    <path id="Path_20970" data-name="Path 20970" d="M290.118,269.677a1.089,1.089,0,0,1,.889.629.9.9,0,0,1-.209,1.024c-.5.508-1,1.007-1.508,1.509-.314.313-.622.631-.943.937a.926.926,0,0,1-1.331.017.916.916,0,0,1,.023-1.328c.8-.813,1.61-1.627,2.434-2.42A2.992,2.992,0,0,1,290.118,269.677Z" transform="translate(-261.985 468.422)" fill="#1f6ce8"/>
    <path id="Path_20971" data-name="Path 20971" d="M236.094,246.762c0,.484,0,.968,0,1.451a.931.931,0,1,1-1.858-.013q0-1.451,0-2.9a.933.933,0,1,1,1.859.013C236.1,245.795,236.094,246.279,236.094,246.762Z" transform="translate(-213.664 491.705)" fill="#1f6ce8"/>
  </g>
</svg>
