  <svg xmlns="http://www.w3.org/2000/svg" width="27.709" height="27.709" viewBox="0 0 27.709 27.709">
          <defs>
            <style>
              .a {
                fill: #86888b;
              }
            </style>
          </defs>
          <path class="a"
            d="M24.9,1C20.442,1,14.462,4.058,10.446,9.314H7.116c-2.4,0-3.785,1.8-4.733,3.694L1.111,15.55h6l3.118,3.118,3.118,3.118v6l2.542-1.272c1.9-.948,3.694-2.328,3.694-4.733v-3.33C24.844,14.44,27.9,8.46,27.9,4V1ZM19.587,7.236a2.079,2.079,0,0,1,2.079,2.079h0a2.079,2.079,0,0,1-2.079,2.079h0a2.079,2.079,0,0,1-2.079-2.079h0a2.079,2.079,0,0,1,2.079-2.079ZM6.077,19.707,5.037,20.746c-1.5,1.5-2.079,5.2-2.079,5.2s3.529-.412,5.2-2.079l1.039-1.039Z"
            transform="matrix(0.999, -0.035, 0.035, 0.999, -1.145, -0.026)" />
        </svg>