<?xml version="1.0" encoding="UTF-8"?>
<svg width="19px" height="19px" viewBox="0 0 19 19" version="1.1" xmlns="http://www.w3.org/2000/svg" xmlns:xlink="http://www.w3.org/1999/xlink">
    <title>F8AA7918-465D-46DF-9E0B-1295EA1512E8</title>
    <defs>
        <rect id="path-1" x="0" y="0" width="990" height="505" rx="5"></rect>
        <path d="M7.5,0 C8.32842712,0 9,0.671572875 9,1.5 C9,2.32842712 8.32842712,3 7.5,3 C6.67157288,3 6,2.32842712 6,1.5 C6,0.671572875 6.67157288,0 7.5,0 Z M13.5,0 C14.3284271,0 15,0.671572875 15,1.5 C15,2.32842712 14.3284271,3 13.5,3 C12.6715729,3 12,2.32842712 12,1.5 C12,0.671572875 12.6715729,0 13.5,0 Z M1.5,0 C2.32842712,0 3,0.671572875 3,1.5 C3,2.32842712 2.32842712,3 1.5,3 C0.671572875,3 0,2.32842712 0,1.5 C0,0.671572875 0.671572875,0 1.5,0 Z" id="path-3"></path>
    </defs>
    <g id="System&gt;Users&amp;-Roles" stroke="none" stroke-width="1" fill="none" fill-rule="evenodd">
        <g id="Roles_Edit" transform="translate(-1179.000000, -305.000000)">
            <rect id="bg-grey" fill="" x="200" y="100" width="1080" height="640"></rect>
            <g id="Table" transform="translate(245.000000, 193.000000)">
                <g id="BG" transform="translate(0.000000, -0.000000)">
                    <mask id="mask-2" fill="white">
                        <use xlink:href="#path-1"></use>
                    </mask>
                    <rect stroke="#DCE0E2" x="0.5" y="0.5" width="989" height="504" rx="5"></rect>
                </g>
            </g>
            <g id="Row-Copy" transform="translate(247.000000, 291.000000)">
                <g id="Atoms-/-Colors-/-Grey-drop" fill="">
                    <rect id="Atoms-/-Colors-/-Black" x="0" y="0" width="985" height="45"></rect>
                </g>
                <g id="more-icon" transform="translate(932.500000, 14.053030)">
                    <g id="more" transform="translate(1.000000, 7.000000)">
                        <mask id="mask-4" fill="white">
                            <use xlink:href="#path-3"></use>
                        </mask>
                        <use id="Combined-Shape" fill="#743131" xlink:href="#path-3"></use>
                        <g id="Atoms-/-Colors-/-Blue-2" mask="url(#mask-4)" fill="#061F37">
                            <g transform="translate(-3.000000, -9.000000)" id="Atoms-/-Colors-/-Black">
                                <rect x="0" y="0" width="22" height="22"></rect>
                            </g>
                        </g>
                    </g>
                </g>
            </g>
        </g>
    </g>
</svg>