<svg xmlns="http://www.w3.org/2000/svg" xmlns:xlink="http://www.w3.org/1999/xlink" width="810.37" height="553.085" viewBox="0 0 810.37 553.085"><defs><style>.a,.d{fill:#f3f7ff;}.b{fill:none;}.c{clip-path:url(#a);}.d{opacity:0.75;}.e{fill:#b9e4ea;}.f{clip-path:url(#b);}.g{fill:#fff;}.h{fill:#e5edeb;}.i{fill:#231f20;opacity:0.1;}.at,.j{fill:#4c4d6c;}.k{fill:#22a8ff;}.l{fill:#5a99ff;}.m{fill:#e6e6e6;}.n{fill:#cecece;}.o{fill:#6385b7;}.p{fill:#a8a8a8;}.q{fill:#40425b;}.r{fill:#333549;}.s{fill:#8d96c6;opacity:0.4;}.t{fill:url(#c);}.u{fill:#85b4ff;}.v{fill:#ffd15f;}.w{fill:#9e968d;}.x{fill:#f9bb14;}.y{fill:#6c5642;}.z{fill:#ffab4d;}.aa{fill:#756a63;}.ab{fill:#ffecdc;}.ac{fill:#ecdac7;}.ad{fill:#d93534;}.ae{fill:#ba3535;}.af{fill:#3e4056;}.ag{fill:#fdbf14;}.ah{fill:#fff0e3;}.ai{fill:#eaded6;}.aj{fill:#e85f65;}.ak{fill:#a17a4e;}.al{fill:#6bc2b2;}.am{fill:#549e90;}.an{fill:#80613b;}.ao{fill:#abe9dd;}.ap{fill:#ff8e6c;}.aq{fill:#4ccdbb;}.ar{fill:#e4e9ff;}.as{fill:#414254;}.at{font-size:17px;font-family:Arial-BoldMT, Arial;font-weight:700;}.au{fill:#ffe783;}.av{fill:#999ec4;}.aw{fill:#717799;}.ax{fill:#fbfcff;}.ay{fill:#54c0fc;}.az{fill:#3e405b;}.ba{fill:#636582;}.bb{fill:#23c6b0;}</style><clipPath id="a"><path class="a" d="M631.911,779.515h619.457a80.167,80.167,0,0,0,53.153-20.383c39.246-35.529,66.694-147.05,57.419-248.2-9.31-101.505-80.125-158.061-174.535-172.177C983.327,308.245,948.964,226.43,780.766,226.43c-109.06,0-191.385,61.627-219.31,207.823-20.408,106.869-1.127,233.39,46.432,329.092C614.195,776.014,621.619,779.515,631.911,779.515Z" transform="translate(-553.38 -226.43)"/></clipPath><clipPath id="b"><rect class="b" width="459.368" height="445.197"/></clipPath><linearGradient id="c" x1="0.127" y1="0.5" x2="1.127" y2="0.5" gradientUnits="objectBoundingBox"><stop offset="0" stop-color="#2c75ff"/><stop offset="1" stop-color="#415490"/></linearGradient></defs><g transform="translate(-553.38 -226.43)"><g transform="translate(553.38 226.43)"><path class="a" d="M631.911,779.515h619.457a80.167,80.167,0,0,0,53.153-20.383c39.246-35.529,66.694-147.05,57.419-248.2-9.31-101.505-80.125-158.061-174.535-172.177C983.327,308.245,948.964,226.43,780.766,226.43c-109.06,0-191.385,61.627-219.31,207.823-20.408,106.869-1.127,233.39,46.432,329.092C614.195,776.014,621.619,779.515,631.911,779.515Z" transform="translate(-553.38 -226.43)"/><g class="c"><g transform="translate(8.085)"><path class="d" d="M777.032,652.351V226.43h33.692V652.351h21.389V226.43h33.7V652.351h378.544V226.43h33.692V652.351h24.907V226.43h33.692V652.351h42.536V723.6H570.02V652.351Z" transform="translate(-570.02 -226.43)"/></g><g transform="translate(271.569)"><path class="a" d="M1112.28,596.9l446.331-213.285V226.43l-446.331,330.9Z" transform="translate(-1112.28 -226.43)"/></g><g transform="translate(271.569 204.576)"><path class="a" d="M1112.28,912.435l446.331-203.381V645.96L1112.28,890.507Z" transform="translate(-1112.28 -645.96)"/></g><rect class="a" width="21.073" height="553.602" transform="translate(249.11)"/><rect class="a" width="8.032" height="553.602" transform="translate(262.147)"/><rect class="a" width="5.53" height="553.602" transform="translate(254.64 553.602) rotate(180)"/><rect class="a" width="5.719" height="553.602" transform="translate(270.179 553.602) rotate(180)"/><rect class="a" width="21.073" height="553.602" transform="translate(717.9)"/><rect class="a" width="8.032" height="553.602" transform="translate(730.937)"/><rect class="a" width="5.53" height="553.602" transform="translate(723.43 553.602) rotate(180)"/><rect class="a" width="5.719" height="553.602" transform="translate(738.969 553.602) rotate(180)"/><rect class="a" width="810.289" height="55.912" transform="translate(817.247 553.085) rotate(180)"/><rect class="a" width="810.289" height="11.806" transform="translate(817.247 508.979) rotate(180)"/><rect class="a" width="810.289" height="8.153" transform="translate(817.247 505.332) rotate(180)"/></g><path class="e" d="M684.62,873.767c0,7.036,3.667,12.742,8.2,12.742H875.561c4.525,0,8.192-5.705,8.192-12.742h0c0-7.036-3.667-12.747-8.192-12.747H692.817C688.287,861.02,684.62,866.73,684.62,873.767Z" transform="translate(-620.623 -551.575)"/><path class="e" d="M1593.025,945.342c0,7.036,3.711,12.747,8.289,12.747H1785.99c4.574,0,8.29-5.71,8.29-12.747h0c0-7.037-3.711-12.742-8.29-12.742h-184.7c-4.574,0-8.29,5.705-8.29,12.742Z" transform="translate(-1088.938 -588.25)"/><path class="e" d="M812.34,800.222a12.742,12.742,0,0,0,12.742,12.747h213.475a12.742,12.742,0,0,0,12.742-12.747h0a12.742,12.742,0,0,0-12.742-12.742H825.082A12.742,12.742,0,0,0,812.34,800.222Z" transform="translate(-686.698 -513.895)"/><path class="e" d="M1764.575,1015.352a12.742,12.742,0,0,1-12.742,12.747H1467.662a12.742,12.742,0,0,1-12.742-12.747h0a12.742,12.742,0,0,1,12.742-12.742h284.172a12.742,12.742,0,0,1,12.742,12.742Z" transform="translate(-1018.191 -624.121)"/><path class="e" d="M1584,661.467a12.742,12.742,0,0,1-12.732,12.756h-34.48a12.742,12.742,0,0,1-12.742-12.742h0a12.742,12.742,0,0,1,12.742-12.742h34.48A12.742,12.742,0,0,1,1584,661.467Z" transform="translate(-1052.537 -442.809)"/><path class="e" d="M1496,614.552a28.9,28.9,0,1,0,28.894-28.892A28.9,28.9,0,0,0,1496,614.552Z" transform="translate(-1038.107 -410.488)"/><path class="e" d="M1873.827,808.058A55.054,55.054,0,1,1,1818.773,753a55.053,55.053,0,0,1,55.054,55.058Z" transform="translate(-1176.41 -496.228)"/><path class="e" d="M1662.055,791.792a65.343,65.343,0,1,1-65.343-65.343,65.342,65.342,0,0,1,65.343,65.343Z" transform="translate(-1056.491 -482.625)"/><path class="e" d="M1933.669,1038.3a35.694,35.694,0,1,1-35.693-35.69,35.7,35.7,0,0,1,35.693,35.69Z" transform="translate(-1226.91 -624.121)"/><circle class="e" cx="35.69" cy="35.69" r="35.69" transform="translate(50.853 361.647) rotate(-45)"/><circle class="e" cx="65.172" cy="65.172" r="65.172" transform="translate(116.546 329.615) rotate(-4.45)"/><path class="e" d="M974.66,672.46A49.475,49.475,0,1,1,925.19,623a49.475,49.475,0,0,1,49.47,49.46Z" transform="translate(-719.168 -429.62)"/><circle class="e" cx="64.821" cy="64.821" r="64.821" transform="translate(223.236 162.678)"/><path class="e" d="M879.657,754.2A23.119,23.119,0,1,1,856.54,731.08,23.118,23.118,0,0,1,879.657,754.2Z" transform="translate(-697.378 -484.997)"/><path class="e" d="M1250.717,754.2A23.119,23.119,0,1,1,1227.6,731.08a23.118,23.118,0,0,1,23.117,23.119Z" transform="translate(-888.18 -484.997)"/><path class="e" d="M1044.614,914.827a32.642,32.642,0,1,1-32.641-32.637,32.643,32.643,0,0,1,32.641,32.637Z" transform="translate(-772.426 -562.421)"/><path class="e" d="M813.853,882.99,783.8,893.762l39.99,21.48Z" transform="translate(-671.44 -562.831)"/><g class="f" transform="translate(176.692 77.221)"><path class="e" d="M1208.305,891.353a161.012,161.012,0,0,1-65.9-14.01,168.571,168.571,0,0,1-53.815-38.2,178.42,178.42,0,0,1-36.285-56.653,187.553,187.553,0,0,1,0-138.75,178.471,178.471,0,0,1,36.285-56.653,168.64,168.64,0,0,1,53.815-38.2,162.064,162.064,0,0,1,131.807,0,168.608,168.608,0,0,1,53.82,38.2,178.552,178.552,0,0,1,36.285,56.653,187.554,187.554,0,0,1,0,138.75,178.5,178.5,0,0,1-36.285,56.653,168.538,168.538,0,0,1-53.82,38.2A160.981,160.981,0,0,1,1208.305,891.353Zm0-356.063c-93.137,0-168.925,79.776-168.925,177.829s75.782,177.829,168.925,177.829,168.925-79.771,168.925-177.829S1301.453,535.29,1208.305,535.29Z" transform="translate(-980.343 -461.697)"/><path class="e" d="M1187.59,890.326h-2.239v-.8h4.584v.8C1189.17,890.321,1188.38,890.326,1187.59,890.326Zm-6.827-.127c-1.526-.059-3.072-.132-4.6-.229l.044-.8c1.521.093,3.063.171,4.579.229Zm13.8,0-.029-.8c1.521-.058,3.063-.136,4.579-.234l.049.8c-1.536.093-3.082.171-4.608.229Zm-22.987-.571c-1.526-.137-3.067-.292-4.584-.488l.083-.8c1.512.176,3.043.327,4.564.463Zm32.184,0-.063-.8c1.512-.137,3.048-.293,4.559-.488l.083.8c-1.536.171-3.077.332-4.6.473Zm-41.327-1.034c-1.511-.21-3.043-.444-4.554-.7l.122-.795c1.5.249,3.028.487,4.535.692Zm50.475,0-.1-.8c1.511-.21,3.038-.449,4.54-.7l.117.795c-1.526.22-3.058.454-4.574.668Zm-59.564-1.5c-1.5-.288-3.023-.6-4.52-.931l.161-.785c1.463.327,3,.639,4.5.926Zm68.653,0-.136-.795c1.5-.288,3.014-.6,4.5-.931l.156.79c-1.511.273-3.033.59-4.54.883Zm-77.665-1.951c-1.463-.371-2.994-.761-4.467-1.166l.19-.78c1.463.4,2.97.795,4.452,1.161Zm86.676-.029-.175-.785c1.463-.366,2.979-.761,4.452-1.165l.19.785c-1.5.346-3,.736-4.486,1.107Zm-95.575-2.438c-1.463-.444-2.926-.912-4.389-1.39l.229-.77c1.463.488,2.926.946,4.389,1.385Zm104.49-.034-.254-.829q2.194-.665,4.388-1.39l.229.77c-1.443.5-2.926.97-4.394,1.414Zm-113.286-2.867c-1.463-.522-2.926-1.068-4.354-1.624l.263-.761c1.429.556,2.892,1.1,4.335,1.619Zm122.069-.039-.244-.761c1.434-.517,2.892-1.058,4.32-1.614l.263.756c-1.463.522-2.926,1.068-4.369,1.585Zm-130.734-3.326c-1.429-.59-2.863-1.214-4.272-1.843l.3-.741c1.4.629,2.838,1.244,4.252,1.838Zm139.37,0-.283-.751c1.409-.59,2.833-1.2,4.228-1.829l.3.741c-1.434.571-2.857,1.185-4.272,1.78Zm-147.869-3.833c-1.395-.668-2.8-1.365-4.179-2.068l.336-.722c1.37.7,2.77,1.39,4.16,2.053Zm156.305,0-.317-.731c1.38-.663,2.77-1.351,4.14-2.048l.332.727c-1.4.688-2.794,1.38-4.179,2.024Zm8.26-4.213-.351-.717c1.351-.732,2.706-1.463,4.042-2.253l.366.707c-1.365.756-2.726,1.521-4.081,2.253Zm-172.87,0c-1.356-.736-2.726-1.5-4.072-2.277l.366-.707c1.341.775,2.706,1.536,4.057,2.268Zm180.911-4.618-.385-.7c1.312-.8,2.638-1.629,3.935-2.438l.4.688c-1.307.79-2.638,1.619-3.935,2.424Zm-189.025-.034c-1.321-.81-2.653-1.643-3.959-2.487l.4-.688c1.3.839,2.628,1.668,3.945,2.472Zm196.842-5.032-.414-.678c1.277-.868,2.56-1.765,3.818-2.662l.429.668C1292.484,856.914,1291.192,857.811,1289.9,858.684Zm-204.722-.058c-1.287-.873-2.579-1.775-3.843-2.682l.434-.668c1.258.9,2.546,1.8,3.823,2.672Zm212.324-5.364-.444-.653c1.229-.931,2.472-1.892,3.687-2.853l.487.644c-1.234.946-2.477,1.911-3.716,2.843Zm-219.922-.078c-1.243-.936-2.492-1.9-3.711-2.872l.458-.644c1.219.975,2.438,1.95,3.7,2.862Zm227.285-5.744-.487-.634c1.19-.975,2.385-2.014,3.555-3.038l.488.619c-1.161,1.009-2.365,2.033-3.56,3.033Zm-234.638-.093c-1.2-1-2.4-2.033-3.574-3.057l.488-.624c1.166,1.029,2.365,2.053,3.555,3.048Zm241.709-6.1-.488-.61c1.146-1.053,2.3-2.136,3.413-3.213l.517.59c-1.146,1.068-2.3,2.155-3.448,3.213Zm-248.784-.107c-1.151-1.063-2.3-2.15-3.413-3.238l.522-.595c1.117,1.083,2.263,2.17,3.413,3.223Zm255.563-6.442-.531-.58c1.1-1.112,2.194-2.253,3.262-3.413l.546.566c-1.078,1.146-2.185,2.272-3.281,3.408Zm-262.345-.117c-1.1-1.112-2.2-2.263-3.272-3.413l.541-.566c1.073,1.141,2.17,2.282,3.263,3.413Zm268.811-6.773-.556-.551c1.044-1.165,2.087-2.36,3.106-3.55l.57.536c-1.024,1.18-2.072,2.38-3.121,3.545Zm-275.277-.122c-1.043-1.166-2.092-2.365-3.111-3.565l.57-.536c1.014,1.19,2.058,2.384,3.1,3.55Zm281.446-7.11-.58-.522c.975-1.219,1.95-2.468,2.926-3.706l.59.488C1333.294,818.1,1332.319,819.356,1331.344,820.575Zm-287.565-.122c-.975-1.219-1.98-2.468-2.926-3.721l.6-.488c.975,1.243,1.95,2.492,2.926,3.706Zm293.363-7.393-.6-.488c.927-1.268,1.858-2.56,2.76-3.852l.619.488C1339.009,810.486,1338.073,811.788,1337.142,813.061Zm-299.186-.117c-.931-1.268-1.863-2.57-2.765-3.862l.614-.488c.9,1.287,1.828,2.585,2.76,3.847Zm304.647-7.685-.629-.458c.873-1.312,1.741-2.657,2.584-3.994l.639.449C1344.349,802.582,1343.476,803.927,1342.6,805.259Zm-310.089-.1c-.873-1.317-1.745-2.658-2.584-4l.639-.444c.839,1.331,1.7,2.672,2.575,3.984Zm315.185-7.978-.649-.429c.81-1.356,1.614-2.741,2.4-4.121l.653.41c-.78,1.375-1.594,2.765-2.4,4.125Zm-320.261-.083c-.809-1.356-1.619-2.746-2.4-4.125l.658-.414c.776,1.375,1.58,2.76,2.389,4.111Zm324.977-8.256-.668-.4c.746-1.395,1.492-2.823,2.2-4.242l.678.38c-.717,1.409-1.463,2.843-2.214,4.242Zm-329.677-.054c-.746-1.4-1.487-2.828-2.2-4.242l.673-.38c.712,1.409,1.463,2.833,2.194,4.228Zm334.027-8.519-.688-.361c.683-1.463,1.361-2.926,2-4.354l.7.346c-.673,1.438-1.351,2.911-2.033,4.354Zm-338.313,0c-.678-1.434-1.356-2.9-2-4.345l.693-.346c.644,1.463,1.317,2.926,1.994,4.33Zm-3.9-8.743c-.614-1.463-1.219-2.955-1.8-4.442l.707-.307c.58,1.463,1.185,2.97,1.79,4.423Zm346.135-.029-.7-.327c.614-1.463,1.219-2.97,1.8-4.452l.707.307c-.6,1.458-1.209,2.96-1.828,4.438Zm-349.631-8.914c-.546-1.507-1.082-3.033-1.594-4.545l.726-.273c.488,1.507,1.039,3.033,1.585,4.53Zm353.152-.073-.717-.288c.546-1.5,1.082-3.033,1.59-4.54l.722.268c-.536,1.473-1.073,3.014-1.619,4.525Zm-356.233-9.06c-.488-1.521-.941-3.077-1.38-4.623l.731-.229c.439,1.536.9,3.087,1.375,4.6Zm359.32-.1-.726-.249c.488-1.526.936-3.082,1.375-4.623l.736.229c-.468,1.512-.931,3.077-1.409,4.608Zm-361.973-9.172c-.4-1.551-.795-3.126-1.165-4.691l.746-.19c.366,1.551.756,3.121,1.156,4.667Zm364.626-.127-.736-.21c.4-1.546.79-3.116,1.156-4.672l.741.2c-.39,1.531-.78,3.1-1.185,4.652ZM1003.1,734.781c-.332-1.565-.648-3.165-.941-4.74l.751-.156c.293,1.57.61,3.16.936,4.72Zm369.058-.127-.751-.171c.332-1.565.648-3.155.941-4.725l.751.156c-.307,1.526-.634,3.126-.965,4.691Zm-370.833-9.377c-.258-1.585-.488-3.194-.722-4.789l.756-.117c.219,1.59.488,3.189.722,4.769Zm372.6-.132-.756-.132c.258-1.58.488-3.184.717-4.769l.761.117c-.244,1.541-.487,3.15-.746,4.735Zm-373.939-9.46c-.185-1.595-.351-3.213-.488-4.813l.765-.078c.146,1.594.312,3.209.488,4.8Zm375.241-.151-.761-.1c.181-1.59.351-3.2.488-4.793l.766.073C1375.586,712.292,1375.416,713.916,1375.23,715.535ZM999.072,706c-.107-1.6-.2-3.228-.278-4.837l.765-.039c.073,1.6.171,3.223.278,4.818Zm377.046-.132-.766-.059c.112-1.594.2-3.213.278-4.813l.766.039C1376.318,702.637,1376.206,704.266,1376.118,705.865Zm-377.489-9.548c-.039-1.6-.059-3.233-.059-4.842h.766c0,1.609,0,3.233.059,4.828Zm377.914-.127h-.766c.039-1.6.054-3.223.054-4.828v-.268h.77v.273c.015,1.585,0,3.2-.044,4.823Zm-377.167-9.543h-.766c.034-1.609.088-3.238.161-4.842l.766.039c-.058,1.575-.112,3.2-.146,4.8Zm376.4-.4c-.039-1.6-.1-3.228-.17-4.823l.765-.039c.073,1.6.132,3.233.171,4.842Zm-375.963-9.265-.766-.058c.107-1.6.239-3.228.385-4.828l.761.078c-.132,1.619-.259,3.233-.366,4.837Zm375.515-.4c-.117-1.6-.249-3.218-.4-4.808l.766-.078c.146,1.6.278,3.223.39,4.828Zm-374.642-9.206-.761-.1c.185-1.6.385-3.214.6-4.8l.761.117c-.2,1.6-.41,3.2-.59,4.808Zm373.744-.4c-.186-1.59-.39-3.2-.61-4.784l.756-.117c.224,1.59.429,3.209.615,4.8ZM1002,657.828l-.756-.137c.258-1.59.536-3.194.829-4.769l.751.156c-.278,1.595-.551,3.189-.809,4.774Zm371.087-.4c-.258-1.58-.536-3.179-.829-4.745l.751-.156c.292,1.575.575,3.174.834,4.764Zm-369.331-9.08-.751-.171c.332-1.57.683-3.16,1.053-4.72l.741.2c-.346,1.58-.7,3.155-1.024,4.72Zm367.556-.39c-.332-1.561-.688-3.14-1.053-4.691l.741-.2c.371,1.556.727,3.14,1.058,4.716Zm-365.362-8.977-.736-.215c.4-1.546.829-3.116,1.268-4.657l.732.234c-.419,1.561-.844,3.121-1.244,4.662ZM1369.1,638.6c-.4-1.541-.829-3.1-1.273-4.637l.731-.229c.444,1.541.873,3.106,1.278,4.652Zm-360.515-8.86-.727-.249c.488-1.531.975-3.082,1.487-4.6l.722.268c-.492,1.541-.99,3.092-1.463,4.608Zm357.862-.375c-.488-1.521-.975-3.057-1.463-4.569l.722-.268c.488,1.516,1.014,3.057,1.492,4.584Zm-354.79-8.777-.717-.288c.546-1.5,1.117-3.023,1.7-4.515l.707.307c-.561,1.531-1.131,3.048-1.673,4.545Zm351.713-.341c-.541-1.492-1.112-3-1.692-4.481l.707-.307c.58,1.463,1.156,3,1.7,4.5Zm-348.207-8.577-.7-.322c.614-1.463,1.258-2.965,1.907-4.423l.692.341C1016.412,608.744,1015.774,610.206,1015.159,611.669Zm344.754-.293c-.614-1.463-1.253-2.926-1.9-4.389l.692-.346c.648,1.463,1.287,2.926,1.907,4.389Zm-340.853-8.465-.688-.361c.688-1.463,1.395-2.892,2.111-4.316l.678.38c-.707,1.429-1.414,2.877-2.1,4.311Zm336.952-.239c-.678-1.429-1.385-2.867-2.1-4.276l.678-.38c.712,1.414,1.424,2.862,2.107,4.3Zm-332.637-8.29-.668-.395c.751-1.4,1.526-2.814,2.311-4.2l.658.41c-.79,1.38-1.541,2.789-2.311,4.184Zm328.346-.2c-.746-1.39-1.516-2.789-2.3-4.164l.658-.414c.78,1.38,1.556,2.789,2.306,4.184Zm-323.65-8.109-.648-.429c.81-1.36,1.653-2.736,2.5-4.077l.639.444c-.853,1.341-1.687,2.706-2.5,4.062Zm318.964-.161c-.809-1.361-1.648-2.716-2.482-4.047l.634-.444c.844,1.331,1.682,2.7,2.5,4.062Zm-313.907-7.895-.624-.488c.873-1.317,1.775-2.643,2.682-3.94l.614.488C1034.9,575.39,1034,576.711,1033.128,578.023Zm308.836-.132c-.873-1.312-1.77-2.628-2.667-3.9l.614-.488c.9,1.292,1.8,2.614,2.682,3.93Zm-303.4-7.67-.6-.488c.931-1.273,1.892-2.55,2.858-3.8l.595.488C1040.453,567.7,1039.492,568.972,1038.565,570.221Zm297.971-.112c-.931-1.268-1.892-2.536-2.848-3.779l.595-.488c.975,1.243,1.921,2.521,2.858,3.794Zm-292.188-7.383-.58-.522c.975-1.224,2.009-2.438,3.028-3.648l.571.536c-1.014,1.214-2.029,2.433-3.018,3.652Zm286.4-.1c-.975-1.219-2-2.438-3.018-3.628l.571-.541c1.019,1.2,2.038,2.438,3.033,3.647Zm-280.285-7.071-.556-.551c1.044-1.17,2.116-2.341,3.194-3.487l.546.566C1052.58,553.227,1051.507,554.4,1050.468,555.558Zm274.165-.088c-1.038-1.161-2.111-2.331-3.184-3.472l.546-.566c1.078,1.146,2.151,2.316,3.194,3.487Zm-267.709-6.778-.531-.58c1.1-1.117,2.229-2.228,3.35-3.316l.517.59c-1.131,1.083-2.253,2.194-3.35,3.306Zm261.277-.083c-1.092-1.112-2.214-2.219-3.34-3.306l.522-.595c1.126,1.092,2.253,2.209,3.35,3.321Zm-254.543-6.442-.488-.61c1.146-1.053,2.321-2.112,3.5-3.145l.488.624C1065.975,540.061,1064.8,541.114,1063.659,542.167Zm247.775-.083c-1.141-1.053-2.316-2.107-3.486-3.136l.488-.619c1.175,1.034,2.355,2.092,3.5,3.145ZM1070.7,535.994l-.488-.634c1.2-.975,2.438-2,3.637-2.96l.488.644C1073.109,534,1071.89,534.994,1070.7,535.994Zm7.314-5.808-.444-.653c1.234-.936,2.5-1.868,3.765-2.775l.434.668c-1.268.9-2.526,1.834-3.76,2.76Zm219.053-.093c-1.239-.931-2.506-1.863-3.764-2.765l.429-.663c1.263.9,2.536,1.838,3.779,2.775Zm-211.486-5.33-.414-.678c1.282-.873,2.589-1.741,3.9-2.575l.4.688C1088.153,523.033,1086.851,523.9,1085.578,524.764Zm203.893-.1c-1.278-.868-2.584-1.731-3.9-2.57l.4-.683c1.307.839,2.623,1.707,3.9,2.579Zm-196.091-4.93-.385-.692c1.317-.8,2.667-1.6,4-2.375l.366.707C1096.028,518.142,1094.687,518.937,1093.38,519.732Zm188.255-.107c-1.322-.8-2.667-1.6-4-2.365l.366-.707c1.341.771,2.7,1.57,4.023,2.375ZM1101.4,515.118l-.351-.717c1.351-.731,2.731-1.463,4.106-2.165l.337.727C1104.108,513.656,1102.743,514.382,1101.4,515.118ZM1273.569,515c-1.356-.731-2.735-1.463-4.111-2.16l.332-.727c1.38.7,2.77,1.434,4.13,2.17Zm-163.947-4.086-.317-.731c1.385-.663,2.794-1.322,4.194-1.951l.3.741c-1.4.624-2.8,1.268-4.179,1.936Zm155.672-.127c-1.385-.663-2.8-1.317-4.209-1.951l.3-.741c1.409.629,2.833,1.287,4.223,1.951Zm-147.265-3.643-.283-.751c1.414-.595,2.862-1.175,4.3-1.736l.268.756c-1.434.551-2.877,1.131-4.286,1.726Zm138.809-.136c-1.414-.59-2.862-1.17-4.3-1.726l.264-.756c1.463.556,2.891,1.141,4.315,1.731Zm-130.2-3.214-.249-.761q2.194-.783,4.389-1.512l.229.766c-1.487.478-2.95.985-4.388,1.5Zm121.581-.127c-1.463-.517-2.926-1.024-4.389-1.5l.229-.77c1.463.488,2.926.975,4.389,1.507Zm-112.838-2.77-.21-.775c1.463-.444,2.96-.878,4.437-1.283l.2.775c-1.492.385-2.979.834-4.442,1.278Zm104.07-.117c-1.463-.439-2.926-.868-4.423-1.268l.195-.78c1.463.4,2.97.834,4.442,1.273Zm-95.2-2.326-.176-.785c1.463-.371,2.994-.722,4.491-1.053l.161.785c-1.512.327-3.018.678-4.5,1.048Zm86.311-.1c-1.463-.366-2.984-.712-4.476-1.039l.156-.79c1.5.327,3.009.678,4.5,1.043Zm-77.353-1.887-.141-.795c1.5-.293,3.028-.566,4.535-.819l.122.795c-1.507.249-3.028.522-4.52.814Zm68.38-.073c-1.492-.288-3.013-.561-4.52-.809l.117-.8c1.511.254,3.043.527,4.54.814Zm-59.33-1.463-.127-.785c1.512-.21,3.048-.41,4.569-.585l.083.8c-1.5.171-3.023.371-4.53.58Zm50.275-.054c-1.507-.21-3.038-.4-4.555-.575l.083-.8c1.521.171,3.058.366,4.569.575Zm-41.161-.975-.068-.8c1.522-.137,3.068-.258,4.594-.356l.044.8c-1.521.112-3.082.2-4.574.346Zm32.047-.039c-1.516-.132-3.057-.249-4.574-.341l.044-.8c1.521.093,3.067.21,4.594.341Zm-22.919-.551v-.809c1.517-.059,3.062-.1,4.594-.117v.8c-1.507.01-3.062.054-4.579.112Zm13.746,0c-1.516-.058-3.057-.093-4.584-.112v-.8c1.531,0,3.077.054,4.6.107Z" transform="translate(-959.628 -439.921)"/><path class="e" d="M1145.894,888.315c-1.526,0-3.072-.044-4.594-.093v-.81c1.517.049,3.052.083,4.574.1Zm4.594,0v-.8c1.517,0,3.057-.049,4.574-.1v.8C1153.55,888.266,1152.009,888.3,1150.488,888.315Zm-13.771-.288c-1.526-.078-3.067-.176-4.584-.283l.049-.809c1.517.112,3.053.21,4.569.288Zm22.918,0-.039-.8c1.516-.078,3.052-.175,4.569-.288l.054.8c-1.5.107-3.028.2-4.56.283Zm-32.105-.663c-1.516-.146-3.057-.307-4.569-.488l.083-.8c1.512.176,3.043.336,4.555.488Zm41.268,0-.068-.8c1.507-.141,3.043-.3,4.554-.488l.083.8c-1.492.166-3.033.331-4.545.473Zm-50.4-1.048c-1.517-.21-3.043-.434-4.55-.678l.117-.795c1.5.239,3.023.488,4.53.673Zm59.525,0-.1-.8c1.507-.21,3.033-.439,4.535-.678l.112.795c-1.482.21-3.009.439-4.52.648Zm-68.6-1.434c-1.507-.273-3.023-.566-4.52-.868l.146-.795c1.463.3,3,.595,4.5.868Zm77.684-.024-.131-.795c1.5-.268,3.009-.561,4.5-.868l.146.79c-1.473.273-2.989.566-4.486.839Zm-86.7-1.814c-1.463-.336-2.994-.693-4.481-1.058l.176-.79c1.463.371,2.984.727,4.467,1.063Zm95.712-.029-.156-.785c1.463-.336,2.984-.7,4.462-1.063l.176.785c-1.458.331-2.965.692-4.457,1.029Zm-104.651-2.194c-1.463-.4-2.965-.819-4.437-1.253l.2-.775c1.463.434,2.955.853,4.423,1.248Zm113.589-.029-.19-.78c1.463-.4,2.96-.824,4.418-1.253l.21.775c-1.443.4-2.936.819-4.413,1.214Zm-122.434-2.57-4.389-1.463.234-.766,4.389,1.463Zm131.28-.044-.224-.77c1.463-.458,2.926-.946,4.389-1.439l.234.765c-1.448.463-2.921.951-4.374,1.409Zm-140.052-2.955c-1.463-.527-2.926-1.078-4.335-1.638l.263-.756c1.433.561,2.887,1.107,4.325,1.633Zm148.786-.029-.254-.761c1.434-.526,2.887-1.073,4.31-1.629l.263.756c-1.4.522-2.858,1.073-4.3,1.6Zm-157.407-3.369c-1.424-.595-2.862-1.2-4.267-1.824l.292-.746c1.4.619,2.833,1.229,4.257,1.819Zm166.038,0-.283-.751c1.409-.585,2.829-1.19,4.228-1.8l.293.741c-1.395.59-2.823,1.2-4.233,1.79Zm-174.533-3.755c-1.395-.648-2.8-1.321-4.189-2l.322-.731c1.38.683,2.785,1.351,4.179,2Zm182.978,0-.307-.736c1.385-.644,2.784-1.312,4.155-1.984l.322.731C1242.406,866.767,1241.006,867.435,1239.612,868.069ZM1247.9,864l-.341-.722c1.36-.7,2.731-1.434,4.077-2.165l.351.717c-1.341.751-2.716,1.478-4.077,2.185Zm-199.621,0c-1.37-.712-2.755-1.463-4.111-2.185l.356-.712c1.346.732,2.726,1.463,4.1,2.175Zm207.755-4.389-.366-.707c1.331-.761,2.672-1.546,3.994-2.336l.376.7c-1.321.766-2.657,1.536-3.994,2.316Zm-215.928-.049c-1.341-.765-2.692-1.555-4.023-2.355l.38-.7c1.327.8,2.672,1.59,4.008,2.35ZM1264,854.839l-.39-.692c1.292-.814,2.6-1.658,3.9-2.5l.4.682c-1.292.824-2.6,1.673-3.906,2.487Zm-231.888-.073c-1.307-.824-2.628-1.673-3.9-2.526l.4-.683c1.292.849,2.609,1.7,3.9,2.516Zm239.666-5.037-.419-.673c1.272-.873,2.55-1.77,3.8-2.667l.434.663c-1.244.878-2.531,1.78-3.8,2.653Zm-247.463-.1c-1.278-.878-2.565-1.78-3.823-2.687l.429-.668c1.258.907,2.541,1.809,3.813,2.682Zm255.031-5.335-.444-.658c1.239-.927,2.482-1.882,3.7-2.833l.458.648c-1.2.931-2.453,1.887-3.7,2.818Zm-262.628-.122c-1.248-.931-2.5-1.892-3.716-2.848l.458-.648c1.214.975,2.438,1.911,3.7,2.838Zm270-5.637-.487-.639c1.2-.975,2.409-1.98,3.589-2.984l.487.629c-1.165.98-2.375,1.99-3.574,2.97Zm-277.374-.137c-1.2-.975-2.414-1.994-3.6-3l.488-.629c1.18,1,2.389,2.014,3.589,2.994Zm284.528-5.929-.488-.619c1.156-1.024,2.326-2.077,3.467-3.136l.488.61C1296.2,830.36,1295.026,831.418,1293.866,832.472Zm-291.657-.156c-1.166-1.029-2.336-2.092-3.482-3.15l.488-.6c1.146,1.053,2.316,2.112,3.472,3.14Zm298.562-6.207-.517-.6c1.117-1.073,2.243-2.175,3.345-3.277l.532.58c-1.112,1.087-2.238,2.194-3.36,3.272ZM995.3,825.938c-1.122-1.078-2.253-2.189-3.36-3.3l.531-.585c1.1,1.107,2.228,2.214,3.345,3.287Zm312.123-6.485-.541-.576c1.083-1.126,2.165-2.272,3.223-3.413l.551.561c-1.063,1.121-2.151,2.273-3.233,3.4Zm-318.774-.181c-1.083-1.126-2.165-2.282-3.228-3.413l.546-.561c1.063,1.146,2.141,2.3,3.218,3.414Zm325.167-6.793-.561-.551c1.039-1.17,2.077-2.365,3.092-3.555l.566.536C1315.907,810.119,1314.863,811.318,1313.819,812.479Zm-331.565-.18c-1.034-1.175-2.077-2.375-3.091-3.574l.57-.536c1.014,1.195,2.048,2.39,3.082,3.56Zm337.694-7.022-.58-.527c.976-1.214,1.985-2.438,2.926-3.682l.59.488c-.936,1.273-1.936,2.516-2.931,3.735ZM976.14,805.1c-.975-1.219-1.99-2.463-2.955-3.7l.59-.487c.975,1.234,1.95,2.472,2.926,3.682Zm349.666-7.246-.6-.487c.941-1.253,1.887-2.536,2.809-3.809l.61.488C1327.7,795.29,1326.751,796.577,1325.806,797.85Zm-355.483-.18c-.941-1.253-1.887-2.536-2.809-3.818l.61-.488c.922,1.278,1.863,2.56,2.8,3.8Zm361.052-7.539-.619-.488c.892-1.3,1.79-2.618,2.658-3.9l.629.458C1333.164,787.507,1332.267,788.834,1331.374,790.131Zm-366.606-.171c-.9-1.3-1.794-2.619-2.662-3.93l.629-.488c.868,1.307,1.755,2.628,2.653,3.9Zm371.867-7.763-.639-.449c.848-1.336,1.692-2.692,2.511-4.038l.644.434c-.824,1.346-1.673,2.711-2.521,4.052Zm-377.114-.156c-.844-1.336-1.687-2.7-2.5-4.043l.644-.434c.815,1.341,1.653,2.7,2.5,4.028Zm382.069-8-.654-.419c.8-1.375,1.59-2.765,2.35-4.145l.663.41c-.771,1.38-1.565,2.774-2.365,4.154Zm-387-.132c-.79-1.365-1.585-2.76-2.35-4.14l.663-.409c.766,1.38,1.551,2.77,2.341,4.13Zm391.631-8.241-.668-.39c.741-1.4,1.463-2.828,2.189-4.242l.678.375C1347.705,762.838,1346.978,764.272,1346.223,765.666Zm-396.254-.1c-.736-1.395-1.463-2.823-2.184-4.233l.678-.38c.707,1.409,1.463,2.833,2.18,4.223Zm400.565-8.456-.683-.366c.688-1.429,1.37-2.887,2.028-4.33l.688.346c-.658,1.458-1.341,2.921-2.033,4.359Zm-404.851-.064c-.688-1.434-1.365-2.887-2.019-4.325l.687-.346c.653,1.429,1.331,2.882,2.014,4.311Zm408.835-8.675-.7-.336c.629-1.463,1.253-2.926,1.853-4.418l.707.322c-.624,1.482-1.229,2.975-1.863,4.442Zm-412.789,0c-.629-1.463-1.253-2.926-1.853-4.389l.707-.317c.595,1.463,1.214,2.926,1.843,4.389Zm-3.618-8.851c-.57-1.463-1.141-3-1.682-4.5l.717-.288c.541,1.492,1.107,3,1.677,4.481Zm420.045-.044-.712-.3c.575-1.492,1.141-3,1.682-4.5l.717.288c-.546,1.5-1.112,3.013-1.687,4.506Zm-423.327-8.987c-.517-1.512-1.024-3.043-1.507-4.564l.727-.259c.488,1.517.975,3.048,1.5,4.55Zm426.614-.073-.717-.273c.488-1.512,1.019-3.048,1.506-4.564l.727.254c-.488,1.521-.995,3.062-1.516,4.579ZM931.9,721.326c-.463-1.536-.907-3.091-1.331-4.628l.736-.224c.419,1.526.868,3.077,1.322,4.613Zm432.48-.107-.731-.244c.453-1.526.9-3.077,1.322-4.613l.736.229c-.424,1.531-.873,3.091-1.327,4.623Zm-435.054-9.192c-.4-1.551-.78-3.126-1.151-4.681l.746-.195c.366,1.556.751,3.121,1.146,4.666Zm437.619-.112-.741-.21c.395-1.541.78-3.111,1.146-4.667l.741.195c-.365,1.575-.751,3.15-1.121,4.7ZM927.1,702.65c-.337-1.555-.658-3.145-.975-4.725l.751-.161c.3,1.57.629,3.155.975,4.711Zm442.032-.112-.746-.176c.336-1.565.658-3.145.975-4.71l.751.161c-.3,1.575-.629,3.165-.965,4.73Zm-443.861-9.353c-.273-1.58-.536-3.179-.78-4.764l.751-.127c.244,1.575.488,3.17.785,4.745Zm445.695-.112-.751-.146c.273-1.575.536-3.17.78-4.75l.756.132c-.224,1.58-.487,3.184-.766,4.764ZM923.8,683.642c-.215-1.59-.419-3.2-.6-4.793l.761-.093c.181,1.58.38,3.189.595,4.774Zm448.659-.112-.756-.112c.21-1.59.409-3.194.595-4.779l.761.1C1372.876,680.331,1372.676,681.935,1372.462,683.53ZM922.7,674.045c-.156-1.595-.293-3.214-.415-4.813l.761-.063c.122,1.59.263,3.209.414,4.8Zm450.868-.112-.76-.083c.151-1.585.288-3.2.409-4.8l.766.064C1373.857,670.72,1373.715,672.339,1373.564,673.933ZM921.954,664.41c-.088-1.595-.166-3.223-.229-4.828l.766-.034c.058,1.6.136,3.223.229,4.813Zm452.346-.117-.765-.044c.088-1.59.166-3.209.229-4.813l.766.029c-.063,1.614-.141,3.238-.244,4.828Zm-452.716-9.533c-.029-1.6-.044-3.233-.044-4.832h.766c0,1.595,0,3.214.044,4.818Zm453.082-.122h-.766c.03-1.595.044-3.214.044-4.818v-.249h.766v.249C1374.71,651.41,1374.7,653.024,1374.666,654.638Zm-452.322-9.528h-.766c.029-1.6.078-3.233.137-4.833l.766.029C922.422,641.891,922.374,643.51,922.345,645.109Zm451.546-.376c-.034-1.59-.083-3.209-.141-4.8l.766-.034c.058,1.6.107,3.223.141,4.823Zm-451.185-9.265-.761-.044c.088-1.6.2-3.223.317-4.823l.761.063C922.905,632.265,922.8,633.884,922.705,635.469Zm450.815-.361c-.093-1.6-.2-3.218-.322-4.808l.761-.063c.122,1.594.234,3.218.327,4.823Zm-450.083-9.241-.761-.078c.151-1.6.322-3.218.488-4.808l.761.1c-.171,1.59-.341,3.2-.492,4.8Zm449.347-.366c-.151-1.585-.322-3.194-.487-4.784l.761-.1c.185,1.595.356,3.209.488,4.8ZM924.529,616.31l-.761-.112c.215-1.585.444-3.194.688-4.779l.756.127C924.968,613.131,924.739,614.73,924.529,616.31Zm447.157-.361c-.214-1.58-.449-3.18-.693-4.759l.756-.132c.249,1.585.488,3.194.693,4.779ZM925.992,606.8l-.751-.146c.273-1.58.566-3.175.873-4.745l.746.161c-.307,1.565-.6,3.165-.873,4.73Zm444.232-.361c-.273-1.575-.571-3.165-.873-4.725l.751-.166c.307,1.57.6,3.165.878,4.745Zm-442.379-9.08-.746-.181c.336-1.565.688-3.145,1.053-4.706l.746.2c-.395,1.551-.746,3.13-1.082,4.691Zm440.54-.356c-.336-1.565-.693-3.14-1.058-4.691l.741-.19c.366,1.551.727,3.135,1.063,4.7ZM930.01,588l-.741-.21c.4-1.546.809-3.111,1.239-4.652l.731.224C930.82,584.9,930.4,586.462,930.01,588Zm436.137-.351c-.395-1.546-.814-3.106-1.239-4.637l.736-.224c.429,1.536.844,3.1,1.243,4.652Zm-433.587-8.9-.726-.244c.453-1.536.931-3.087,1.419-4.613l.727.254C933.492,575.671,933.019,577.221,932.56,578.753Zm431.022-.346c-.454-1.526-.932-3.067-1.419-4.584l.727-.258c.488,1.521.975,3.067,1.424,4.6Zm-428.1-8.821-.722-.273c.517-1.521,1.053-3.048,1.6-4.55l.712.288C936.535,566.542,936,568.069,935.486,569.585Zm425.17-.312c-.488-1.5-1.049-3.023-1.59-4.516l.712-.288c.546,1.5,1.083,3.023,1.6,4.53Zm-421.9-8.724-.707-.3c.571-1.463,1.165-2.989,1.77-4.472l.707.317C939.924,557.57,939.319,559.072,938.758,560.549Zm418.626-.273c-.575-1.463-1.165-2.969-1.765-4.428l.707-.317c.6,1.463,1.195,2.96,1.765,4.442Zm-415-8.6-.7-.336q.943-2.195,1.951-4.389l.688.351C943.659,548.744,943.005,550.216,942.381,551.674Zm411.394-.214c-.629-1.463-1.277-2.926-1.95-4.35l.688-.351c.658,1.463,1.312,2.926,1.951,4.364Zm-407.435-8.5-.683-.366c.688-1.429,1.4-2.877,2.112-4.3l.678.375C947.736,540.088,947.023,541.532,946.341,542.961Zm403.49-.161c-.688-1.424-1.39-2.862-2.1-4.267l.678-.38c.712,1.414,1.419,2.853,2.107,4.281Zm-399.194-8.373-.673-.39c.746-1.4,1.512-2.823,2.277-4.208l.663.4C952.139,531.6,951.378,533.028,950.637,534.427Zm394.913-.117c-.736-1.39-1.5-2.794-2.263-4.174l.663-.4c.765,1.385,1.531,2.794,2.267,4.189Zm-390.295-8.222-.653-.419c.795-1.37,1.614-2.75,2.438-4.106l.649.434C956.874,523.348,956.045,524.723,955.255,526.088Zm385.716-.078c-.785-1.36-1.6-2.731-2.438-4.076l.644-.439c.819,1.356,1.638,2.731,2.438,4.091ZM960.19,517.95l-.639-.448c.848-1.336,1.721-2.682,2.594-4l.624.488C961.9,515.287,961.033,516.628,960.19,517.95Zm375.837-.054c-.844-1.326-1.712-2.662-2.58-3.974l.629-.458c.873,1.312,1.741,2.653,2.59,3.984Zm-370.6-7.861-.615-.488c.9-1.3,1.819-2.6,2.741-3.9l.609.488c-.917,1.317-1.838,2.619-2.736,3.911Zm365.367-.029c-.892-1.292-1.809-2.589-2.726-3.862l.61-.488c.922,1.278,1.843,2.58,2.735,3.9ZM970.971,502.36l-.6-.488c.946-1.258,1.921-2.526,2.892-3.764l.59.517c-.97,1.229-1.936,2.487-2.877,3.745Zm354.3,0c-.941-1.248-1.912-2.506-2.877-3.74l.59-.517c.975,1.239,1.951,2.5,2.887,3.76ZM976.8,494.939l-.58-.522c.975-1.219,2.009-2.438,3.028-3.638l.57.541c-1,1.18-2.028,2.4-3.018,3.608Zm342.648,0c-.975-1.209-2-2.438-3.014-3.618l.571-.536c1.014,1.195,2.033,2.438,3.023,3.633Zm-6.115-7.188c-1.039-1.17-2.1-2.346-3.155-3.491l.551-.561c1.058,1.151,2.121,2.326,3.165,3.5Zm-330.443,0-.561-.551c1.039-1.17,2.1-2.35,3.165-3.5l.551.561c-1.048,1.151-2.107,2.326-3.14,3.491Zm324.1-6.91c-1.078-1.126-2.185-2.258-3.287-3.355l.527-.585c1.107,1.1,2.214,2.238,3.3,3.365Zm-317.7,0-.536-.571c1.083-1.131,2.189-2.263,3.292-3.365l.527.58c-1.117,1.1-2.224,2.228-3.3,3.35Zm6.632-6.637-.517-.595c1.127-1.078,2.277-2.165,3.413-3.223l.488.609c-1.136,1.048-2.282,2.126-3.4,3.2Zm304.433,0c-1.126-1.082-2.277-2.16-3.413-3.214l.488-.6c1.146,1.053,2.3,2.141,3.413,3.223ZM1002.8,467.865l-.488-.614c1.165-1.029,2.355-2.063,3.54-3.072l.488.624c-1.195.97-2.4,2.024-3.56,3.048Zm290.672,0c-1.161-1.029-2.35-2.058-3.536-3.067l.488-.624c1.185,1.009,2.38,2.043,3.545,3.077Zm-283.557-6.042-.488-.639c1.2-.975,2.438-1.951,3.652-2.926l.458.649c-1.214.936-2.443,1.916-3.643,2.9Zm276.433,0c-1.2-.975-2.438-1.951-3.647-2.926l.454-.649q1.828,1.463,3.662,2.926ZM1017.257,456.1l-.449-.658c1.244-.931,2.507-1.858,3.765-2.76l.429.663c-1.268.868-2.531,1.794-3.765,2.721ZM1279,456.07c-1.239-.926-2.5-1.853-3.76-2.755l.434-.668c1.263.907,2.531,1.838,3.769,2.77Zm-254.217-5.413-.415-.678c1.273-.873,2.57-1.751,3.862-2.6l.4.688C1027.346,448.9,1026.054,449.769,1024.781,450.657Zm246.624-.039c-1.268-.878-2.57-1.751-3.862-2.6l.4-.683c1.3.853,2.6,1.726,3.9,2.6Zm-238.876-5.057-.39-.692c1.307-.824,2.638-1.643,3.955-2.438l.38.7c-1.312.775-2.638,1.59-3.945,2.414Zm231.1-.054c-1.307-.824-2.638-1.638-3.96-2.438l.376-.7c1.326.795,2.667,1.614,3.974,2.438ZM1040.463,440.8l-.366-.712c1.336-.766,2.7-1.521,4.047-2.258l.351.717c-1.341.717-2.7,1.473-4.033,2.238Zm215.2-.073c-1.341-.761-2.7-1.521-4.057-2.258l.356-.717c1.356.736,2.721,1.5,4.067,2.267Zm-207.116-4.359-.336-.722c1.365-.707,2.755-1.409,4.13-2.082l.322.727C1051.313,434.965,1049.929,435.667,1048.548,436.369Zm198.953-.083c-1.365-.707-2.755-1.409-4.135-2.087l.322-.731c1.385.683,2.779,1.385,4.155,2.092Zm-190.663-3.979-.312-.736c1.39-.648,2.8-1.292,4.2-1.907l.3.746C1059.632,431.025,1058.223,431.639,1056.838,432.307Zm182.374-.1c-1.395-.649-2.814-1.287-4.218-1.907l.292-.741c1.414.619,2.838,1.263,4.233,1.912Zm-173.948-3.6-.283-.751c1.424-.59,2.867-1.17,4.286-1.731l.268.761c-1.434.551-2.872,1.131-4.286,1.721Zm165.473-.117c-1.419-.585-2.862-1.165-4.291-1.721l.268-.756c1.429.556,2.877,1.136,4.3,1.726Zm-156.9-3.238-.249-.761c1.463-.527,2.926-1.048,4.35-1.541l.239.766c-1.458.492-2.916,1.009-4.355,1.536Zm148.283-.112c-1.463-.527-2.926-1.044-4.359-1.536l.239-.771c1.463.488,2.926,1.014,4.388,1.546Zm-139.579-2.867-.224-.775c1.463-.463,2.926-.922,4.389-1.351l.209.775c-1.453.429-2.93.883-4.389,1.351Zm130.836-.112q-2.194-.695-4.389-1.346l.2-.775c1.463.434,2.926.887,4.389,1.351Zm-122.025-2.5-.19-.78c1.463-.4,2.979-.795,4.457-1.161l.176.78c-1.487.371-2.979.761-4.457,1.161Zm113.208-.1c-1.463-.395-2.965-.785-4.442-1.151l.175-.785c1.463.371,2.979.756,4.457,1.161Zm-104.329-2.126-.161-.785c1.463-.341,3-.668,4.5-.975l.146.79C1103.236,416.771,1101.729,417.1,1100.237,417.435Zm95.4-.083c-1.463-.332-2.989-.653-4.486-.975l.146-.795c1.5.307,3.018.629,4.5.975Zm-86.408-1.755-.132-.795c1.5-.273,3.023-.536,4.53-.78l.117.8c-1.492.239-3.014.5-4.506.775Zm77.421-.068c-1.492-.268-3.014-.527-4.52-.766l.117-.8c1.507.239,3.033.488,4.535.77Zm-68.366-1.39-.1-.8c1.507-.21,3.043-.4,4.555-.58l.088.8C1121.313,413.734,1119.786,413.929,1118.28,414.138Zm59.325-.049c-1.506-.2-3.033-.4-4.545-.575l.083-.8c1.517.176,3.053.371,4.564.575Zm-50.226-1.019-.068-.8c1.521-.141,3.062-.273,4.579-.385l.053.8c-1.516.112-3.052.239-4.569.385Zm41.136-.034c-1.521-.141-3.058-.268-4.564-.38l.053-.8c1.512.112,3.053.239,4.579.38Zm-32-.644-.039-.8c1.521-.083,3.067-.151,4.589-.2v.809c-1.5.049-3.038.112-4.554.2Zm22.87,0c-1.517-.078-3.053-.141-4.574-.19v-.8c1.526.049,3.067.112,4.589.19Zm-13.727-.278v-.8h4.594v.8c-1.546-.039-3.072-.034-4.6-.02Z" transform="translate(-920.16 -398.378)"/><path class="e" d="M1166.393,889.248a198.876,198.876,0,0,1-81.434-17.306,208.118,208.118,0,0,1-66.488-47.193,220.456,220.456,0,0,1-44.833-69.99,231.687,231.687,0,0,1,0-171.427,220.482,220.482,0,0,1,44.833-69.994,208.268,208.268,0,0,1,66.488-47.193,200.245,200.245,0,0,1,162.869,0,208.267,208.267,0,0,1,66.488,47.193,220.41,220.41,0,0,1,44.828,69.994,231.686,231.686,0,0,1,0,171.427,220.358,220.358,0,0,1-44.828,69.99,208.117,208.117,0,0,1-66.488,47.193A198.921,198.921,0,0,1,1166.393,889.248Zm0-440c-115.13-.015-208.8,98.589-208.8,219.785s93.664,219.8,208.794,219.8,208.8-98.6,208.8-219.8-93.654-219.8-208.789-219.8Z" transform="translate(-938.431 -417.607)"/></g><path class="g" d="M1395.338,669.738c0,27.532-20.373,50.133-46.354,52.484-1.463.137-2.989.21-4.5.21H1098.372c-33.067,0-59.871-27.795-59.871-62.036s26.82-62.041,59.871-62.041a58.289,58.289,0,0,1,13.351,1.546c0-.488-.024-1.024-.024-1.546,0-26.634,20.841-48.227,46.54-48.227a45.456,45.456,0,0,1,31.281,12.522,46.025,46.025,0,0,1,38.372-20.929c25.7,0,46.539,21.592,46.539,48.227a49.545,49.545,0,0,1-1.034,10.138c-.093.454-.19.917-.3,1.365.263-.376.536-.741.824-1.1a26.5,26.5,0,0,1,20.871-10.289c14.868,0,26.907,12.483,26.907,27.888a29.787,29.787,0,0,1-.4,4.876c-.7.375-1.395.771-2.077,1.17l1.643.887c.171-.678.312-1.36.434-2.058a49.252,49.252,0,0,1,23.2-5.783C1372.571,617.039,1395.338,640.636,1395.338,669.738Z" transform="translate(-803.438 -387.975)"/><path class="h" d="M1660.92,720.529a53.178,53.178,0,0,1-21.612,43.107,68.833,68.833,0,0,1,3.272-18.2c23.275-76.5-79.552-59.291-79.552-59.291,12.41-18.14,13.21-39.932-6.188-45.052a26.371,26.371,0,0,1,3.53-.239c14.868,0,26.912,12.483,26.912,27.883a29.844,29.844,0,0,1-.41,4.876c-.7.375-1.395.766-2.077,1.17l1.643.888c.171-.683.312-1.36.434-2.058a49.276,49.276,0,0,1,23.2-5.778C1638.147,667.831,1660.92,691.427,1660.92,720.529Z" transform="translate(-1069.516 -438.766)"/><path class="h" d="M1395.338,783.919c0,27.532-20.378,50.133-46.354,52.484-1.463.137-2.989.21-4.5.21H1098.367c-33.062,0-59.866-27.8-59.866-62.036a64.379,64.379,0,0,1,.775-10.006c4.618,29.507,29.316,52.035,59.091,52.035h246.122c1.511,0,3.018-.073,4.5-.21,22.748-2.058,41.2-19.647,45.438-42.477A54.893,54.893,0,0,1,1395.338,783.919Z" transform="translate(-803.438 -502.156)"/><path class="i" d="M767.42,1315.985c0,6.964,6.417,12.61,14.336,12.61h543c7.914,0,14.332-5.647,14.332-12.61h0c0-6.963-6.417-12.605-14.332-12.605h-543C773.837,1303.38,767.42,1309.022,767.42,1315.985Z" transform="translate(-663.047 -778.226)"/><rect class="j" width="114.866" height="3.355" transform="translate(504.999 499.051)"/><path class="k" d="M1585.146,973.641a40.211,40.211,0,0,0-5.447-12.678,40.727,40.727,0,1,0,.458,43.624,40.44,40.44,0,0,0,5.252-13.166,41.034,41.034,0,0,0-.264-17.789Zm-39.605,31.208a21.751,21.751,0,1,1,0,.015Z" transform="translate(-1042.68 -593.269)"/><rect class="k" width="17.789" height="17.789" transform="translate(493.998 335.344)"/><rect class="k" width="17.789" height="17.789" transform="translate(493.998 425.394)"/><rect class="k" width="17.789" height="17.789" transform="translate(538.857 380.371)"/><rect class="k" width="17.789" height="17.789" transform="translate(449.134 380.371)"/><rect class="k" width="17.789" height="17.789" transform="translate(522.04 421.118) rotate(-45)"/><rect class="k" width="17.789" height="17.789" transform="translate(458.59 357.424) rotate(-45)"/><rect class="k" width="17.789" height="17.789" transform="translate(458.592 421.106) rotate(-45)"/><rect class="k" width="17.789" height="17.789" transform="translate(522.033 357.426) rotate(-45)"/><path class="k" d="M1587.709,1011.229a12.83,12.83,0,1,1-12.825-12.83,12.83,12.83,0,0,1,12.825,12.83Z" transform="translate(-1071.995 -621.964)"/><path class="k" d="M1679.512,874.728a14.932,14.932,0,0,0-2.014-4.7,15.081,15.081,0,1,0-12.649,23.285,15.315,15.315,0,0,0,3.3-.361,15.077,15.077,0,0,0,11.381-18.228Zm-14.663,11.562a8.051,8.051,0,1,1,8.051-8.051,8.051,8.051,0,0,1-8.051,8.051Z" transform="translate(-1117.106 -552.672)"/><rect class="k" width="6.588" height="6.588" transform="translate(544.467 305.388)"/><rect class="k" width="6.588" height="6.588" transform="translate(544.467 338.728)"/><rect class="k" width="6.588" height="6.588" transform="translate(561.075 322.056)"/><rect class="k" width="6.588" height="6.588" transform="translate(527.86 322.056)"/><rect class="k" width="6.588" height="6.588" transform="translate(554.854 337.15) rotate(-45)"/><rect class="k" width="6.588" height="6.588" transform="translate(531.355 313.544) rotate(-45)"/><rect class="k" width="6.588" height="6.588" transform="translate(531.361 337.136) rotate(-45)"/><rect class="k" width="6.588" height="6.588" transform="translate(554.848 313.563) rotate(-45)"/><circle class="l" cx="7.471" cy="7.471" r="7.471" transform="translate(267.906 272.221) rotate(-67.5)"/><path class="j" d="M904.252,1006.065a19.452,19.452,0,0,1-19.432-19.417V793.663a19.583,19.583,0,0,1,19.593-19.583h93.064a1.785,1.785,0,0,1,1.78,1.78h0a1.78,1.78,0,0,1-1.78,1.78H904.413a16.024,16.024,0,0,0-16.019,16.023V986.648a15.9,15.9,0,0,0,16,15.877l23.631-.2.029,3.56-23.63.2Z" transform="translate(-723.867 -507.029)"/><circle class="l" cx="7.471" cy="7.471" r="7.471" transform="translate(370.098 287.965) rotate(-45)"/><path class="j" d="M1051.713,909.891h-43.887c-8.343,0-15.117-4.637-15.117-10.333V891h3.56v8.553c0,3.672,5.3,6.773,11.572,6.773h43.887a11.567,11.567,0,0,0,11.567-11.571v-6a15.117,15.117,0,0,1,15.117-15.117h68.756a11.567,11.567,0,0,0,11.571-11.567V820.83a1.78,1.78,0,0,1,1.78-1.78h0a1.78,1.78,0,0,1,1.78,1.78v41.2a15.116,15.116,0,0,1-15.116,15.116h-68.756a11.576,11.576,0,0,0-11.586,11.606v6.027A15.117,15.117,0,0,1,1051.713,909.891Z" transform="translate(-779.441 -530.07)"/><rect class="g" width="65.347" height="40.634" rx="6.79" transform="translate(237.168 299.888) rotate(90)"/><rect class="j" width="51.772" height="33.276" transform="translate(233.892 303.682) rotate(90)"/><path class="j" d="M997.6,964.456a2.048,2.048,0,1,1,1.453-.6A2.053,2.053,0,0,1,997.6,964.456Z" transform="translate(-780.704 -602.468)"/><rect class="m" width="189.054" height="33.364" transform="translate(129.022 502.274)"/><rect class="n" width="189.054" height="1.999" transform="translate(129.022 533.639)"/><rect class="g" width="94.171" height="16.331" transform="translate(138.582 512.558)"/><rect class="o" width="94.171" height="16.331" transform="translate(138.582 510.788)"/><rect class="g" width="4.203" height="1.946" transform="translate(144.022 519.931) rotate(90)"/><rect class="g" width="1.946" height="6.295" transform="translate(145.348 517.835)"/><rect class="g" width="1.946" height="9.075" transform="translate(148.615 515.055)"/><rect class="g" width="1.946" height="3.999" transform="translate(151.887 520.136)"/><rect class="g" width="1.946" height="4.886" transform="translate(164.315 519.244)"/><rect class="g" width="1.946" height="6.812" transform="translate(155.154 517.318)"/><rect class="g" width="1.946" height="4.886" transform="translate(158.426 519.244)"/><rect class="g" width="1.946" height="1.946" transform="translate(163.063 522.184) rotate(90)"/><rect class="g" width="13.678" height="1.946" transform="translate(180.01 515.016)"/><rect class="g" width="19.72" height="1.946" transform="translate(180.005 518.283)"/><rect class="g" width="8.68" height="1.946" transform="translate(180.014 521.555)"/><rect class="g" width="16.306" height="1.946" transform="translate(206.759 515.016)"/><rect class="g" width="8.002" height="1.946" transform="translate(206.767 518.283)"/><rect class="g" width="2.662" height="1.946" transform="translate(206.772 521.555)"/><path class="n" d="M1073.621,1290.386a3.721,3.721,0,1,1-3.72-3.716,3.72,3.72,0,0,1,3.72,3.716Z" transform="translate(-817.019 -769.664)"/><path class="g" d="M1073.621,1286.766a3.721,3.721,0,1,1-3.72-3.716A3.721,3.721,0,0,1,1073.621,1286.766Z" transform="translate(-817.019 -767.81)"/><path class="g" d="M1106.473,1292.708h0a.663.663,0,0,1-.663-.663v-21.2a.663.663,0,0,1,.663-.663h0a.658.658,0,0,1,.658.663v21.192a.658.658,0,0,1-.658.673Z" transform="translate(-837.387 -761.216)"/><path class="g" d="M1118.5,1292.708h0a.663.663,0,0,1-.663-.663v-21.2a.663.663,0,0,1,.663-.663h0a.663.663,0,0,1,.663.663v21.192a.663.663,0,0,1-.663.673Z" transform="translate(-843.571 -761.216)"/><path class="g" d="M1130.533,1292.708h0a.663.663,0,0,1-.663-.663v-21.2a.663.663,0,0,1,.663-.663h0a.663.663,0,0,1,.663.663v21.192a.663.663,0,0,1-.663.673Z" transform="translate(-849.756 -761.216)"/><path class="g" d="M1142.568,1292.708h0a.658.658,0,0,1-.658-.663v-21.2a.658.658,0,0,1,.658-.663h0a.663.663,0,0,1,.663.663v21.192a.662.662,0,0,1-.663.673Z" transform="translate(-855.946 -761.216)"/><path class="g" d="M1154.6,1292.708h0a.663.663,0,0,1-.663-.663v-21.2a.663.663,0,0,1,.663-.663h0a.663.663,0,0,1,.663.663v21.192a.663.663,0,0,1-.663.673Z" transform="translate(-862.131 -761.216)"/><path class="g" d="M1166.648,1292.7h0a.663.663,0,0,1-.649-.673v-21.2a.663.663,0,0,1,.663-.663h0a.663.663,0,0,1,.663.663v21.2a.663.663,0,0,1-.678.673Z" transform="translate(-868.33 -761.205)"/><path class="g" d="M1178.663,1292.7h0a.659.659,0,0,1-.663-.673v-21.2a.659.659,0,0,1,.658-.663h0a.663.663,0,0,1,.663.663v21.2a.664.664,0,0,1-.658.673Z" transform="translate(-874.5 -761.205)"/><path class="p" d="M1106.473,1289.718h0a.663.663,0,0,1-.663-.663v-21.2a.663.663,0,0,1,.663-.663h0a.658.658,0,0,1,.658.663v21.188a.659.659,0,0,1-.658.678Z" transform="translate(-837.387 -759.684)"/><path class="p" d="M1118.5,1289.718h0a.663.663,0,0,1-.663-.663v-21.2a.663.663,0,0,1,.663-.663h0a.663.663,0,0,1,.663.663v21.188a.663.663,0,0,1-.663.678Z" transform="translate(-843.571 -759.684)"/><path class="p" d="M1130.533,1289.718h0a.663.663,0,0,1-.663-.663v-21.2a.663.663,0,0,1,.663-.663h0a.663.663,0,0,1,.663.663v21.188a.663.663,0,0,1-.663.678Z" transform="translate(-849.756 -759.684)"/><path class="p" d="M1142.568,1289.718h0a.658.658,0,0,1-.658-.663v-21.2a.658.658,0,0,1,.658-.663h0a.663.663,0,0,1,.663.663v21.188a.663.663,0,0,1-.663.678Z" transform="translate(-855.946 -759.684)"/><path class="p" d="M1154.6,1289.718h0a.663.663,0,0,1-.663-.663v-21.2a.663.663,0,0,1,.663-.663h0a.663.663,0,0,1,.663.663v21.188a.663.663,0,0,1-.663.678Z" transform="translate(-862.131 -759.684)"/><path class="p" d="M1166.648,1289.7h0a.663.663,0,0,1-.649-.678v-21.2a.663.663,0,0,1,.663-.663h0a.663.663,0,0,1,.663.663v21.2a.663.663,0,0,1-.678.678Z" transform="translate(-868.331 -759.668)"/><path class="p" d="M1178.663,1289.7h0a.659.659,0,0,1-.663-.678v-21.2a.659.659,0,0,1,.658-.663h0a.663.663,0,0,1,.663.663v21.2a.663.663,0,0,1-.658.678Z" transform="translate(-874.5 -759.668)"/><path class="j" d="M810.209,1256.46h2.765v33.364h-2.765a3.169,3.169,0,0,1-3.169-3.169v-27.005a3.17,3.17,0,0,1,3.17-3.189Z" transform="translate(-683.347 -754.186)"/><path class="j" d="M1206.349,1256.455h2.745a3.17,3.17,0,0,1,3.17,3.17v27.02a3.17,3.17,0,0,1-3.17,3.17h-2.765V1256.45Z" transform="translate(-889.071 -754.181)"/><path class="q" d="M812.985,1315.742v2.974h-3.023a2.892,2.892,0,0,1-2.892-2.9v-2.97a2.887,2.887,0,0,0,2.892,2.892Z" transform="translate(-683.363 -783.078)"/><path class="q" d="M1212.3,1312.85v2.97a2.892,2.892,0,0,1-2.892,2.9h-3.043v-2.974h3.043A2.892,2.892,0,0,0,1212.3,1312.85Z" transform="translate(-889.092 -783.078)"/><path class="r" d="M811.978,1274.21h0a.873.873,0,0,1-.868-.873v-8.124a.873.873,0,0,1,.868-.873h0a.873.873,0,0,1,.873.873v8.124A.873.873,0,0,1,811.978,1274.21Z" transform="translate(-685.433 -758.223)"/><path class="r" d="M1211.538,1274.21h0a.873.873,0,0,1-.868-.873v-8.124a.872.872,0,0,1,.868-.873h0a.873.873,0,0,1,.873.873v8.124A.873.873,0,0,1,1211.538,1274.21Z" transform="translate(-891.296 -758.223)"/><path class="j" d="M1206.349,1256.455h2.745a3.17,3.17,0,0,1,3.17,3.17v27.02a3.17,3.17,0,0,1-3.17,3.17h-2.765V1256.45Z" transform="translate(-889.071 -754.181)"/><rect class="m" width="189.054" height="33.364" transform="translate(129.022 466.243)"/><rect class="n" width="189.054" height="1.999" transform="translate(129.022 497.608)"/><rect class="g" width="94.171" height="16.331" transform="translate(138.582 476.522)"/><rect class="o" width="94.171" height="16.331" transform="translate(138.582 474.757)"/><rect class="g" width="4.203" height="1.946" transform="translate(144.022 483.895) rotate(90)"/><rect class="g" width="1.946" height="6.295" transform="translate(145.348 481.803)"/><rect class="g" width="1.946" height="9.075" transform="translate(148.615 479.019)"/><rect class="g" width="1.946" height="3.999" transform="translate(151.887 484.1)"/><rect class="g" width="1.946" height="4.886" transform="translate(164.315 483.213)"/><rect class="g" width="1.946" height="6.812" transform="translate(155.154 481.282)"/><rect class="g" width="1.946" height="4.886" transform="translate(158.426 483.213)"/><rect class="g" width="1.946" height="1.946" transform="translate(163.063 486.153) rotate(90)"/><rect class="g" width="13.678" height="1.946" transform="translate(180.01 478.98)"/><rect class="g" width="19.72" height="1.946" transform="translate(180.005 482.252)"/><rect class="g" width="8.68" height="1.946" transform="translate(180.014 485.519)"/><rect class="g" width="16.306" height="1.946" transform="translate(206.759 478.98)"/><rect class="g" width="8.002" height="1.946" transform="translate(206.767 482.252)"/><rect class="g" width="2.662" height="1.946" transform="translate(206.772 485.519)"/><path class="n" d="M1073.621,1216.5a3.721,3.721,0,1,1-3.72-3.716A3.72,3.72,0,0,1,1073.621,1216.5Z" transform="translate(-817.019 -731.805)"/><path class="g" d="M1073.621,1212.871a3.721,3.721,0,1,1-3.72-3.721A3.72,3.72,0,0,1,1073.621,1212.871Z" transform="translate(-817.019 -729.946)"/><path class="g" d="M1106.473,1218.813h0a.658.658,0,0,1-.663-.658v-21.2a.663.663,0,0,1,.663-.663h0a.659.659,0,0,1,.658.663v21.2a.653.653,0,0,1-.658.658Z" transform="translate(-837.387 -723.356)"/><path class="g" d="M1118.5,1218.813h0a.657.657,0,0,1-.663-.658v-21.2a.663.663,0,0,1,.663-.663h0a.663.663,0,0,1,.663.663v21.2a.658.658,0,0,1-.663.658Z" transform="translate(-843.571 -723.356)"/><path class="g" d="M1130.533,1218.813h0a.658.658,0,0,1-.663-.658v-21.2a.663.663,0,0,1,.663-.663h0a.663.663,0,0,1,.663.663v21.2a.658.658,0,0,1-.663.658Z" transform="translate(-849.756 -723.356)"/><path class="g" d="M1142.568,1218.813h0a.653.653,0,0,1-.658-.658v-21.2a.659.659,0,0,1,.658-.663h0a.663.663,0,0,1,.663.663v21.2a.658.658,0,0,1-.663.658Z" transform="translate(-855.946 -723.356)"/><path class="g" d="M1154.6,1218.813h0a.658.658,0,0,1-.663-.658v-21.2a.663.663,0,0,1,.663-.663h0a.663.663,0,0,1,.663.663v21.2a.658.658,0,0,1-.663.658Z" transform="translate(-862.13 -723.356)"/><path class="g" d="M1166.633,1218.813h0a.658.658,0,0,1-.663-.658v-21.2a.663.663,0,0,1,.663-.663h0a.663.663,0,0,1,.663.663v21.2a.658.658,0,0,1-.663.658Z" transform="translate(-868.315 -723.356)"/><path class="g" d="M1178.668,1218.813h0a.653.653,0,0,1-.658-.658v-21.2a.659.659,0,0,1,.658-.663h0a.663.663,0,0,1,.663.663v21.2a.658.658,0,0,1-.663.658Z" transform="translate(-874.505 -723.356)"/><path class="p" d="M1106.473,1215.829h0a.663.663,0,0,1-.663-.663v-21.2a.663.663,0,0,1,.663-.663h0a.659.659,0,0,1,.658.663v21.2a.659.659,0,0,1-.658.663Z" transform="translate(-837.387 -721.825)"/><path class="p" d="M1118.5,1215.829h0a.663.663,0,0,1-.663-.663v-21.2a.663.663,0,0,1,.663-.663h0a.663.663,0,0,1,.663.663v21.2A.663.663,0,0,1,1118.5,1215.829Z" transform="translate(-843.571 -721.825)"/><path class="p" d="M1130.533,1215.829h0a.663.663,0,0,1-.663-.663v-21.2a.663.663,0,0,1,.663-.663h0a.663.663,0,0,1,.663.663v21.2A.663.663,0,0,1,1130.533,1215.829Z" transform="translate(-849.756 -721.825)"/><path class="p" d="M1142.568,1215.829h0a.658.658,0,0,1-.658-.663v-21.2a.658.658,0,0,1,.658-.663h0a.663.663,0,0,1,.663.663v21.2A.663.663,0,0,1,1142.568,1215.829Z" transform="translate(-855.946 -721.825)"/><path class="p" d="M1154.6,1215.829h0a.663.663,0,0,1-.663-.663v-21.2a.663.663,0,0,1,.663-.663h0a.663.663,0,0,1,.663.663v21.2A.663.663,0,0,1,1154.6,1215.829Z" transform="translate(-862.131 -721.825)"/><path class="p" d="M1166.633,1215.829h0a.663.663,0,0,1-.663-.663v-21.2a.663.663,0,0,1,.663-.663h0a.663.663,0,0,1,.663.663v21.2A.663.663,0,0,1,1166.633,1215.829Z" transform="translate(-868.315 -721.825)"/><path class="p" d="M1178.668,1215.829h0a.658.658,0,0,1-.658-.663v-21.2a.658.658,0,0,1,.658-.663h0a.663.663,0,0,1,.663.663v21.2A.663.663,0,0,1,1178.668,1215.829Z" transform="translate(-874.505 -721.825)"/><path class="j" d="M810.209,1182.57h2.765v33.369h-2.765a3.17,3.17,0,0,1-3.169-3.17v-27.02a3.17,3.17,0,0,1,3.17-3.179Z" transform="translate(-683.347 -716.327)"/><path class="j" d="M1206.349,1182.565h2.745a3.169,3.169,0,0,1,3.17,3.17v27.02a3.17,3.17,0,0,1-3.17,3.17h-2.765V1182.56Z" transform="translate(-889.071 -716.322)"/><path class="q" d="M812.985,1241.872v2.974h-3.023a2.892,2.892,0,0,1-2.892-2.9V1239a2.887,2.887,0,0,0,2.892,2.892Z" transform="translate(-683.363 -745.24)"/><path class="q" d="M1212.3,1239v2.97a2.9,2.9,0,0,1-2.892,2.9h-3.043v-2.974h3.043A2.892,2.892,0,0,0,1212.3,1239Z" transform="translate(-889.092 -745.24)"/><path class="r" d="M811.978,1200.319h0a.873.873,0,0,1-.868-.873v-8.129a.868.868,0,0,1,.868-.868h0a.873.873,0,0,1,.873.868v8.129a.873.873,0,0,1-.873.873Z" transform="translate(-685.433 -720.364)"/><path class="r" d="M1211.538,1200.319h0a.873.873,0,0,1-.868-.873v-8.129a.868.868,0,0,1,.868-.868h0a.873.873,0,0,1,.873.868v8.129A.873.873,0,0,1,1211.538,1200.319Z" transform="translate(-891.296 -720.364)"/><path class="j" d="M1206.349,1182.565h2.745a3.169,3.169,0,0,1,3.17,3.17v27.02a3.17,3.17,0,0,1-3.17,3.17h-2.765V1182.56Z" transform="translate(-889.071 -716.322)"/><rect class="m" width="189.054" height="33.364" transform="translate(129.022 430.632)"/><rect class="n" width="189.054" height="1.999" transform="translate(129.022 461.996)"/><rect class="g" width="94.171" height="16.331" transform="translate(138.582 440.911)"/><rect class="o" width="94.171" height="16.331" transform="translate(138.582 439.146)"/><rect class="g" width="4.203" height="1.946" transform="translate(144.022 448.284) rotate(90)"/><rect class="g" width="1.946" height="6.295" transform="translate(145.348 446.192)"/><rect class="g" width="1.946" height="9.075" transform="translate(148.615 443.407)"/><rect class="g" width="1.946" height="3.999" transform="translate(151.887 448.489)"/><rect class="g" width="1.946" height="4.886" transform="translate(164.315 447.601)"/><rect class="g" width="1.946" height="6.812" transform="translate(155.154 445.67)"/><rect class="g" width="1.946" height="4.886" transform="translate(158.426 447.601)"/><rect class="g" width="1.946" height="1.946" transform="translate(163.063 450.542) rotate(90)"/><rect class="g" width="13.678" height="1.946" transform="translate(180.01 443.368)"/><rect class="g" width="19.72" height="1.946" transform="translate(180.005 446.64)"/><rect class="g" width="8.68" height="1.946" transform="translate(180.014 449.908)"/><rect class="g" width="16.306" height="1.946" transform="translate(206.759 443.368)"/><rect class="g" width="8.002" height="1.946" transform="translate(206.767 446.64)"/><rect class="g" width="2.662" height="1.946" transform="translate(206.772 449.908)"/><path class="n" d="M1073.621,1143.466a3.721,3.721,0,1,1-3.72-3.716A3.72,3.72,0,0,1,1073.621,1143.466Z" transform="translate(-817.019 -694.387)"/><path class="g" d="M1073.621,1139.836a3.721,3.721,0,1,1-3.72-3.716A3.72,3.72,0,0,1,1073.621,1139.836Z" transform="translate(-817.019 -692.527)"/><path class="g" d="M1106.473,1145.784h0a.658.658,0,0,1-.663-.658v-21.207a.658.658,0,0,1,.663-.658h0a.653.653,0,0,1,.658.658v21.207a.654.654,0,0,1-.658.658Z" transform="translate(-837.387 -685.938)"/><path class="g" d="M1118.5,1145.784h0a.658.658,0,0,1-.663-.658v-21.207a.658.658,0,0,1,.663-.658h0a.658.658,0,0,1,.663.658v21.207a.658.658,0,0,1-.663.658Z" transform="translate(-843.571 -685.938)"/><path class="g" d="M1130.533,1145.784h0a.658.658,0,0,1-.663-.658v-21.207a.658.658,0,0,1,.663-.658h0a.658.658,0,0,1,.663.658v21.207a.658.658,0,0,1-.663.658Z" transform="translate(-849.756 -685.938)"/><path class="g" d="M1142.568,1145.784h0a.654.654,0,0,1-.658-.658v-21.207a.653.653,0,0,1,.658-.658h0a.658.658,0,0,1,.663.658v21.207a.658.658,0,0,1-.663.658Z" transform="translate(-855.946 -685.938)"/><path class="g" d="M1154.6,1145.784h0a.658.658,0,0,1-.663-.658v-21.207a.658.658,0,0,1,.663-.658h0a.658.658,0,0,1,.663.658v21.207a.658.658,0,0,1-.663.658Z" transform="translate(-862.13 -685.938)"/><path class="g" d="M1166.633,1145.784h0a.658.658,0,0,1-.663-.658v-21.207a.658.658,0,0,1,.663-.658h0a.658.658,0,0,1,.663.658v21.207a.658.658,0,0,1-.663.658Z" transform="translate(-868.315 -685.938)"/><path class="g" d="M1178.668,1145.784h0a.653.653,0,0,1-.658-.658v-21.207a.653.653,0,0,1,.658-.658h0a.658.658,0,0,1,.663.658v21.207a.658.658,0,0,1-.663.658Z" transform="translate(-874.505 -685.938)"/><path class="p" d="M1106.473,1142.8h0a.663.663,0,0,1-.663-.663v-21.2a.663.663,0,0,1,.663-.663h0a.659.659,0,0,1,.658.663v21.2a.659.659,0,0,1-.658.663Z" transform="translate(-837.387 -684.406)"/><path class="p" d="M1118.5,1142.8h0a.663.663,0,0,1-.663-.663v-21.2a.663.663,0,0,1,.663-.663h0a.663.663,0,0,1,.663.663v21.2A.663.663,0,0,1,1118.5,1142.8Z" transform="translate(-843.571 -684.406)"/><path class="p" d="M1130.533,1142.8h0a.663.663,0,0,1-.663-.663v-21.2a.663.663,0,0,1,.663-.663h0a.663.663,0,0,1,.663.663v21.2A.663.663,0,0,1,1130.533,1142.8Z" transform="translate(-849.756 -684.406)"/><path class="p" d="M1142.568,1142.8h0a.658.658,0,0,1-.658-.663v-21.2a.658.658,0,0,1,.658-.663h0a.663.663,0,0,1,.663.663v21.2A.663.663,0,0,1,1142.568,1142.8Z" transform="translate(-855.946 -684.406)"/><path class="p" d="M1154.6,1142.8h0a.663.663,0,0,1-.663-.663v-21.2a.663.663,0,0,1,.663-.663h0a.663.663,0,0,1,.663.663v21.2A.663.663,0,0,1,1154.6,1142.8Z" transform="translate(-862.131 -684.406)"/><path class="p" d="M1166.633,1142.8h0a.663.663,0,0,1-.663-.663v-21.2a.663.663,0,0,1,.663-.663h0a.663.663,0,0,1,.663.663v21.2A.663.663,0,0,1,1166.633,1142.8Z" transform="translate(-868.315 -684.406)"/><path class="p" d="M1178.668,1142.8h0a.658.658,0,0,1-.658-.663v-21.2a.658.658,0,0,1,.658-.663h0a.663.663,0,0,1,.663.663v21.2A.663.663,0,0,1,1178.668,1142.8Z" transform="translate(-874.505 -684.406)"/><path class="j" d="M810.209,1109.54h2.765v33.383h-2.765a3.169,3.169,0,0,1-3.169-3.17V1112.69a3.17,3.17,0,0,1,3.17-3.15Z" transform="translate(-683.347 -678.909)"/><path class="j" d="M1206.349,1109.535h2.745a3.17,3.17,0,0,1,3.17,3.17v27.02a3.169,3.169,0,0,1-3.17,3.17h-2.765V1109.53Z" transform="translate(-889.071 -678.904)"/><path class="q" d="M812.985,1168.8v2.974h-3.023a2.892,2.892,0,0,1-2.892-2.926v-2.965a2.892,2.892,0,0,0,2.892,2.892Z" transform="translate(-683.363 -707.776)"/><path class="q" d="M1212.3,1165.93v2.96a2.9,2.9,0,0,1-2.892,2.926h-3.043v-2.975h3.043a2.9,2.9,0,0,0,2.892-2.911Z" transform="translate(-889.092 -707.801)"/><path class="r" d="M811.978,1127.285h0a.873.873,0,0,1-.868-.873v-8.129a.873.873,0,0,1,.868-.873h0a.873.873,0,0,1,.873.873v8.129a.873.873,0,0,1-.873.873Z" transform="translate(-685.433 -682.941)"/><path class="r" d="M1211.538,1127.285h0a.873.873,0,0,1-.868-.873v-8.129a.873.873,0,0,1,.868-.873h0a.873.873,0,0,1,.873.873v8.129A.873.873,0,0,1,1211.538,1127.285Z" transform="translate(-891.296 -682.941)"/><path class="j" d="M1206.349,1109.535h2.745a3.17,3.17,0,0,1,3.17,3.17v27.02a3.169,3.169,0,0,1-3.17,3.17h-2.765V1109.53Z" transform="translate(-889.071 -678.904)"/><rect class="s" width="39.362" height="33.364" transform="translate(282.484 430.632)"/><rect class="m" width="189.054" height="33.364" transform="translate(129.022 395.439)"/><rect class="n" width="189.054" height="1.999" transform="translate(129.022 426.808)"/><rect class="g" width="94.171" height="16.331" transform="translate(138.582 405.723)"/><rect class="o" width="94.171" height="16.331" transform="translate(138.582 403.953)"/><rect class="g" width="4.203" height="1.946" transform="translate(144.022 413.096) rotate(90)"/><rect class="g" width="1.946" height="6.295" transform="translate(145.348 411)"/><rect class="g" width="1.946" height="9.075" transform="translate(148.615 408.22)"/><rect class="g" width="1.946" height="3.999" transform="translate(151.887 413.301)"/><rect class="g" width="1.946" height="4.886" transform="translate(164.315 412.409)"/><rect class="g" width="1.946" height="6.812" transform="translate(155.154 410.483)"/><rect class="g" width="1.946" height="4.886" transform="translate(158.426 412.409)"/><rect class="g" width="1.946" height="1.946" transform="translate(163.059 415.349) rotate(90)"/><rect class="g" width="13.678" height="1.946" transform="translate(180.01 408.181)"/><rect class="g" width="19.72" height="1.946" transform="translate(180.005 411.448)"/><rect class="g" width="8.68" height="1.946" transform="translate(180.014 414.72)"/><rect class="g" width="16.306" height="1.946" transform="translate(206.759 408.181)"/><rect class="g" width="8.002" height="1.946" transform="translate(206.767 411.448)"/><rect class="g" width="2.662" height="1.946" transform="translate(206.772 414.72)"/><path class="n" d="M1073.621,1071.3a3.721,3.721,0,1,1-3.72-3.721A3.72,3.72,0,0,1,1073.621,1071.3Z" transform="translate(-817.019 -657.409)"/><path class="g" d="M1073.621,1067.676a3.721,3.721,0,1,1-3.72-3.716A3.72,3.72,0,0,1,1073.621,1067.676Z" transform="translate(-817.019 -655.555)"/><path class="g" d="M1106.473,1073.619h0a.663.663,0,0,1-.663-.663v-21.2a.663.663,0,0,1,.663-.663h0a.659.659,0,0,1,.658.663v21.2a.659.659,0,0,1-.658.663Z" transform="translate(-837.387 -648.961)"/><path class="g" d="M1118.5,1073.619h0a.663.663,0,0,1-.663-.663v-21.2a.663.663,0,0,1,.663-.663h0a.663.663,0,0,1,.663.663v21.2A.663.663,0,0,1,1118.5,1073.619Z" transform="translate(-843.571 -648.961)"/><path class="g" d="M1130.533,1073.619h0a.663.663,0,0,1-.663-.663v-21.2a.663.663,0,0,1,.663-.663h0a.663.663,0,0,1,.663.663v21.2A.663.663,0,0,1,1130.533,1073.619Z" transform="translate(-849.756 -648.961)"/><path class="g" d="M1142.568,1073.619h0a.658.658,0,0,1-.658-.663v-21.2a.658.658,0,0,1,.658-.663h0a.663.663,0,0,1,.663.663v21.2A.663.663,0,0,1,1142.568,1073.619Z" transform="translate(-855.946 -648.961)"/><path class="g" d="M1154.6,1073.619h0a.663.663,0,0,1-.663-.663v-21.2a.663.663,0,0,1,.663-.663h0a.663.663,0,0,1,.663.663v21.2A.663.663,0,0,1,1154.6,1073.619Z" transform="translate(-862.131 -648.961)"/><path class="g" d="M1166.633,1073.619h0a.663.663,0,0,1-.663-.663v-21.2a.663.663,0,0,1,.663-.663h0a.663.663,0,0,1,.663.663v21.2A.663.663,0,0,1,1166.633,1073.619Z" transform="translate(-868.315 -648.961)"/><path class="g" d="M1178.668,1073.619h0a.658.658,0,0,1-.658-.663v-21.2a.658.658,0,0,1,.658-.663h0a.663.663,0,0,1,.663.663v21.2A.663.663,0,0,1,1178.668,1073.619Z" transform="translate(-874.505 -648.961)"/><path class="p" d="M1106.473,1070.634h0a.659.659,0,0,1-.663-.658v-21.207a.658.658,0,0,1,.663-.658h0a.654.654,0,0,1,.658.658V1070A.654.654,0,0,1,1106.473,1070.634Z" transform="translate(-837.387 -647.434)"/><path class="p" d="M1118.5,1070.634h0a.658.658,0,0,1-.663-.658v-21.207a.658.658,0,0,1,.663-.658h0a.658.658,0,0,1,.663.658V1070A.658.658,0,0,1,1118.5,1070.634Z" transform="translate(-843.571 -647.434)"/><path class="p" d="M1130.533,1070.634h0a.658.658,0,0,1-.663-.658v-21.207a.658.658,0,0,1,.663-.658h0a.658.658,0,0,1,.663.658V1070A.658.658,0,0,1,1130.533,1070.634Z" transform="translate(-849.756 -647.434)"/><path class="p" d="M1142.568,1070.634h0a.654.654,0,0,1-.658-.658v-21.207a.654.654,0,0,1,.658-.658h0a.658.658,0,0,1,.663.658V1070A.658.658,0,0,1,1142.568,1070.634Z" transform="translate(-855.946 -647.434)"/><path class="p" d="M1154.6,1070.634h0a.659.659,0,0,1-.663-.658v-21.207a.658.658,0,0,1,.663-.658h0a.658.658,0,0,1,.663.658V1070a.659.659,0,0,1-.663.634Z" transform="translate(-862.13 -647.434)"/><path class="p" d="M1166.649,1070.659h0a.659.659,0,0,1-.649-.634v-21.207a.659.659,0,0,1,.663-.658h0a.658.658,0,0,1,.663.658v21.207A.658.658,0,0,1,1166.649,1070.659Z" transform="translate(-868.331 -647.459)"/><path class="p" d="M1178.663,1070.659h0a.654.654,0,0,1-.663-.634v-21.207a.654.654,0,0,1,.658-.658h0a.658.658,0,0,1,.663.658v21.207A.658.658,0,0,1,1178.663,1070.659Z" transform="translate(-874.5 -647.459)"/><path class="j" d="M810.209,1037.37h2.765v33.364h-2.765a3.17,3.17,0,0,1-3.169-3.17v-27.02a3.169,3.169,0,0,1,3.17-3.174Z" transform="translate(-683.347 -641.931)"/><path class="j" d="M1206.349,1037.365h2.745a3.17,3.17,0,0,1,3.17,3.17v27.02a3.169,3.169,0,0,1-3.17,3.169h-2.765V1037.36Z" transform="translate(-889.071 -641.926)"/><path class="q" d="M812.985,1096.656v2.97h-3.023a2.892,2.892,0,0,1-2.892-2.9v-2.97a2.892,2.892,0,0,0,2.892,2.9Z" transform="translate(-683.363 -670.823)"/><path class="q" d="M1212.3,1093.76v2.97a2.892,2.892,0,0,1-2.892,2.9h-3.043v-2.97h3.043a2.9,2.9,0,0,0,2.891-2.9Z" transform="translate(-889.092 -670.823)"/><path class="r" d="M811.978,1055.1h0a.868.868,0,0,1-.868-.868v-8.148a.873.873,0,0,1,.868-.873h0a.873.873,0,0,1,.873.873v8.129a.873.873,0,0,1-.873.887Z" transform="translate(-685.433 -645.948)"/><path class="r" d="M1211.538,1055.1h0a.868.868,0,0,1-.868-.868v-8.148a.873.873,0,0,1,.868-.873h0a.873.873,0,0,1,.873.873v8.129a.873.873,0,0,1-.873.887Z" transform="translate(-891.296 -645.948)"/><path class="j" d="M1206.349,1037.365h2.745a3.17,3.17,0,0,1,3.17,3.17v27.02a3.169,3.169,0,0,1-3.17,3.169h-2.765V1037.36Z" transform="translate(-889.071 -641.926)"/><rect class="s" width="39.362" height="33.364" transform="translate(282.484 395.439)"/><rect class="s" width="39.362" height="33.364" transform="translate(282.484 466.243)"/><rect class="s" width="39.362" height="33.364" transform="translate(282.484 502.562)"/><rect class="g" width="205.795" height="148.035" rx="21.39" transform="translate(294.065 370.916)"/><rect class="t" width="181.891" height="118.119" transform="translate(306.015 381.195)"/><path class="j" d="M1279.277,1050.958h-57.541a1.726,1.726,0,0,1-1.726-1.726h0a1.726,1.726,0,0,1,1.726-1.721h57.541a1.726,1.726,0,0,1,1.726,1.721h0A1.726,1.726,0,0,1,1279.277,1050.958Z" transform="translate(-896.189 -647.126)"/><path class="j" d="M1279.277,1069.992h-57.541a1.731,1.731,0,0,1-1.726-1.726h0a1.731,1.731,0,0,1,1.726-1.726h57.541a1.731,1.731,0,0,1,1.726,1.726h0A1.731,1.731,0,0,1,1279.277,1069.992Z" transform="translate(-896.189 -656.877)"/><path class="j" d="M1259.036,1088.672h-37.26a1.731,1.731,0,0,1-1.726-1.726h0a1.731,1.731,0,0,1,1.726-1.726h37.26a1.731,1.731,0,0,1,1.726,1.726h0a1.731,1.731,0,0,1-1.726,1.726Z" transform="translate(-896.177 -666.448)"/><path class="j" d="M1259.036,1107.712h-37.26a1.731,1.731,0,0,1-1.726-1.726h0a1.726,1.726,0,0,1,1.726-1.726h37.26a1.726,1.726,0,0,1,1.726,1.726h0a1.731,1.731,0,0,1-1.726,1.726Z" transform="translate(-896.177 -676.203)"/><path class="j" d="M1370.124,1268.287a4.057,4.057,0,1,1-4.057-4.057A4.057,4.057,0,0,1,1370.124,1268.287Z" transform="translate(-969.112 -758.167)"/><path class="g" d="M1368.521,1298.818c0,4.442-8.26,8.08-15.283,8.08H1166.057c-7.022,0-15.282-3.638-15.282-8.08v-.088c0-4.442-.639-8.08,6.383-8.08h204.98c7.022,0,6.383,3.638,6.383,8.08Z" transform="translate(-860.872 -771.704)"/><rect class="u" width="194.994" height="2.838" transform="translate(301.229 516.118)"/><rect class="v" width="6.607" height="16.814" transform="translate(332.16 465.838)"/><rect class="v" width="6.607" height="22.631" transform="translate(344.205 460.016)"/><rect class="v" width="6.607" height="27.878" transform="translate(356.168 454.774)"/><rect class="v" width="6.607" height="32.54" transform="translate(368.485 450.112)"/><path class="g" d="M1423.557,1077.845H1378.5l-10.05-6.339-.6-9.543,6.115-6.827,6.637-.927,1.165-4.335,5.8-4.3,6.671,1.365,6.656-3,7.968,2.979,2.131,5.744,5.969.571,2,5.266,4.388-2.541,7.529,4.5,3.033,9.787Zm-44.691-1.258h44.282l9.3-6.827-2.624-8.47-6.48-3.867-5.037,2.926-2.258-5.915-5.973-.571-2.2-5.944-6.939-2.6-6.559,2.955-6.515-1.331-5,3.7-1.273,4.715-7,.976-5.457,6.076.532,8.373Z" transform="translate(-972.225 -645.297)"/><path class="g" d="M1409.8,1069.319l-11.059-4.291-4.759-6.286,1-.761,4.544,6,9.192,3.564,1.01-9.6-2.624-6.534,1.171-.468,2.735,6.827-.015.156Z" transform="translate(-985.565 -648.889)"/><path class="g" d="M1433.673,1079.438l-9.733-5.071,1.239-11.762,6.637,2.112,7.222-2.887.468,1.171-7.641,3.052-5.6-1.78-.985,9.377,8.646,4.5,8.836-.834,4.038-9,1.146.517-4.335,9.66Z" transform="translate(-1000.982 -654.463)"/><path class="g" d="M1441.149,1072.917l-2.229-6.651,1.195-.4,1.687,5.033,10.747-7.739.736,1.019Z" transform="translate(-1008.665 -655.145)"/><path class="g" d="M1369.169,1079.991l-.019-1.258,7.651-.122,9.538-1.141.146,1.248-9.631,1.151Z" transform="translate(-972.799 -662.477)"/><path class="g" d="M1385.958,1097.253l-3.248-10.674.454-5.579,1.258.1-.434,5.34,2.648,8.714,10.616-8.075,5.9-3.779.678,1.058-5.876,3.77Z" transform="translate(-979.778 -664.285)"/><path class="g" d="M1424.192,1103.585l-11.762-9.05.77-.995,10.567,8.129,3.579-6.919,1.117.58Z" transform="translate(-995.049 -670.711)"/><path class="g" d="M1461.356,1095.428l-8.87-8.446-8.358-5.944v6.349h-1.258V1078.6l10.45,7.441,8.9,8.475Z" transform="translate(-1010.706 -663.056)"/><rect class="g" width="17.745" height="1.258" transform="translate(441.861 422.945) rotate(-26.31)"/><path class="w" d="M1189.234,797.6c-1.985-1.1-3.208-1.7-1.36-5.852,2.609-5.827,6.768-13.473,8.314-16.5s3-6.534,7.085-4.057c2.394,1.463,1.526,6.754.186,9.177l-9.036,14.824c-1.346,2.438-3.2,3.487-5.188,2.385Z" transform="translate(-879.13 -505.123)"/><path class="x" d="M1221.306,755.9c1.336-2.438,2.8-5.14.561-7.529-1.834-1.838-4.291-2.78-6.081-4.711a4.82,4.82,0,0,1-1.346-5.208c.3-1.17.873-1.951.712-3.145-.161-1.4-.975-1.746-1.882-2.662-4.15-3.745-.863-9.041,3.9-9.933l.814-3.945c2.219-.736,6.305,1.195,7.724,2.926,1.263,1.5,4.618,3.9,4.569,5.822.024,2.136-.653,2.74,1.873,3.662,1.511.644,3.009.3,3.072,2.575,0,1.6-2.365,4.837-.346,6.081,1.648,1.053,4.955-.975,5.618,1.951.278,1.053-.824,1.877-.322,2.926.551,1.195,2.2.873,3.233,1.219,2.755.922,3.784,3.789,1.809,5.9-.922.917-1.79,1.512-1.38,2.979.346,1.263,1.653,1.517,2.36,2.506,1.239,1.882-.854,4.335-2.346,5.364a62.169,62.169,0,0,0-5.53,3.37c-2.092,1.536-5.364,1.165-7.8.844-2.8-.371-6.676-.766-8.6-3.106C1219.833,761.361,1219.838,758.61,1221.306,755.9Z" transform="translate(-891.708 -478.608)"/><path class="y" d="M1265.047,883l-5.1,2.321-6.076-25.391,11.177-1.048Z" transform="translate(-913.52 -550.478)"/><path class="y" d="M1287.454,933.562l-3.121,2.155-18-26.039,4.71-3.257Z" transform="translate(-919.942 -574.836)"/><path class="z" d="M1298.09,964.051c-.107,5.647-6.92,8.48-4.321,12.24l8.651-5.978-.03-.044s-1.331-2.926-.78-3.306a1.2,1.2,0,0,1,1.682.3l1.116,1.673,1.136-.785-4.447-6.432Z" transform="translate(-933.731 -603.17)"/><path class="y" d="M1234.381,884.1h-5.729l-.531-23.07H1238.3Z" transform="translate(-900.28 -551.58)"/><path class="y" d="M1233,940h-3.794V908.34h5.729Z" transform="translate(-900.833 -575.82)"/><path class="z" d="M1218.163,973.07c-3.3,4.579-10.513,3.038-10.513,7.612h10.513v-.049s.57-3.17,1.239-3.17a1.209,1.209,0,0,1,1.209,1.209l-.029,2.009h1.38v-7.8Z" transform="translate(-889.761 -608.888)"/><path class="w" d="M1234.4,771.752l-1.531,16.477s11.176,20.744,11.176,26.069l-24.381,4.837-3.087-26.742-3.687-14.873v-8.29l17.677-1.141Z" transform="translate(-892.481 -503.96)"/><path class="aa" d="M1237.088,787.216c-1.682,9.8-16.092,16.448-16.092,16.448l-.546-6.676,16.657-23.718Z" transform="translate(-896.346 -506.614)"/><path class="ab" d="M1223.675,764.912a2.877,2.877,0,0,0,3.189,2.531h0a2.882,2.882,0,0,0,2.531-3.189l-.395-3.413a2.877,2.877,0,0,0-3.189-2.531h0a2.877,2.877,0,0,0-2.531,3.189Z" transform="translate(-897.775 -498.939)"/><path class="ab" d="M1199,738.092a10.464,10.464,0,1,0,20.79-2.39c-.661-5.739-5.883-10.1-11.593-9.2C1196.2,728.4,1205.563,738.54,1199,738.092Z" transform="translate(-885.323 -482.593)"/><path class="g" d="M1205.32,758.922l4.467-.512C1210.211,760.38,1207.5,762.842,1205.32,758.922Z" transform="translate(-888.55 -499)"/><path class="x" d="M1192.633,726.625a.928.928,0,0,1-.488-.6c-.453-1.833.488-3.369,2.253-2.2.892.619,1.175.6,2.185-.346,4.286-4.023,10.367-5.086,11.162-4.784,4.335-1.282,10.372,2.975,11.8,7.261a11.093,11.093,0,0,1-6.451,13.815,9.837,9.837,0,0,0-.487-2.36,10.035,10.035,0,0,0-.58-1.385,2.9,2.9,0,0,0,1.463-.112,3.018,3.018,0,1,0-3.964-2.994c-.6-.829-2.57-.975-4.14-4.672a1.952,1.952,0,0,1-.975-.332c.663,2.228-3.833,3.189-4.959,1.648.8,1.034-.458,1.609-1.331,1.746a2.4,2.4,0,0,1-2.775-.975c-.3,2.087-2.711,1.282-3.579.044C1190.746,728.848,1191.736,727.678,1192.633,726.625Z" transform="translate(-881.392 -478.533)"/><path class="w" d="M1160.543,826.2l18.218-8.143-2.248-7.037-17.033,13.049Z" transform="translate(-865.003 -525.956)"/><path class="w" d="M1222.885,790.944c-1.985-1.1-3.209-1.7-1.356-5.852,2.6-5.852,6.764-13.473,8.29-16.5s3-6.534,7.09-4.057c2.389,1.463,1.526,6.759.185,9.177l-9.041,14.829c-1.341,2.438-3.2,3.482-5.188,2.385Z" transform="translate(-896.432 -501.711)"/><path class="ac" d="M1151.113,837.969c-.907-2.272,5.822-3.384,6.856-1.165s.76,5.583-1.463,6.617-3.94.254-5.617-1.575C1148.7,839.451,1152.073,840.378,1151.113,837.969Z" transform="translate(-860.183 -538.549)"/><path class="ad" d="M1082.27,864.634h-21.885l-.785-34.1,2.823-1.624h18.091Z" transform="translate(-813.654 -535.122)"/><path class="ae" d="M1060.31,853.432c12.932,9.006,21.67,5.759,21.67,5.759v-11.05l-21.67-3.9Z" transform="translate(-814.018 -542.977)"/><rect class="w" width="21.885" height="8.924" transform="translate(246.729 329.512)"/><path class="j" d="M1111.078,1029.943H1098v-7.153l3.477.185C1104.476,1027.169,1110.059,1021.356,1111.078,1029.943Z" transform="translate(-833.385 -634.46)"/><path class="w" d="M1090.569,941.579h5.242l.488-21.11h-9.319Z" transform="translate(-827.715 -582.035)"/><path class="w" d="M1096.11,992.73h3.472V963.76h-5.242Z" transform="translate(-831.495 -604.215)"/><rect class="af" width="13.098" height="0.99" transform="translate(264.595 394.493)"/><path class="j" d="M1074.238,1029.744h-13.1v-7.154l3.477.185C1067.64,1026.969,1073.223,1021.156,1074.238,1029.744Z" transform="translate(-814.435 -634.358)"/><path class="w" d="M1066.97,941.579h-5.247l-.483-21.11h9.314Z" transform="translate(-814.482 -582.035)"/><path class="w" d="M1065.7,992.73h-3.472V963.76h5.247l-.917,14.98Z" transform="translate(-814.986 -604.215)"/><rect class="af" width="13.098" height="0.99" transform="translate(246.71 394.396)"/><path class="ad" d="M1118.4,836.121c.127,1.951-1.555,3.643-3.837,3.994a4.272,4.272,0,0,1-.488.059l-14.107.922-6.164-2.438a5.949,5.949,0,0,1-.8-1.37,7.05,7.05,0,0,1-.444-2.731c.088-3.048,1.951-6.422,6.871-5.476,0,0,7.363,3.228,13.127,3.491C1116.63,832.771,1118.268,834.049,1118.4,836.121Z" transform="translate(-830.604 -535.126)"/><path class="ae" d="M1104.75,837.57c2.736,4.389,18.233,3.984,18.233,3.984l.624,3.169-18.779.127Z" transform="translate(-836.863 -539.559)"/><path class="ad" d="M1079.088,844.158c-1.239,1.56-2.662.117-6.539-.4-5.515-.736-12.254-4.389-12.254-4.389-5.852-2.565-3.267-8.207-.595-9.972,1.643-1.087,4.637-1.517,6.539,0l11.64,9.226c1.906,1.512,2.438,4,1.209,5.554Z" transform="translate(-812.193 -534.868)"/><rect class="ag" width="37.567" height="24.718" transform="translate(276.195 279.086)"/><path class="v" d="M1121.9,798.76l18.784,12.362,18.784-12.362Z" transform="translate(-845.705 -519.674)"/><path class="ac" d="M1149.492,848.5c5.686-.975,7.241-2.438,6.461-5.886s-5.413-1.463-5.413-1.463,1.1-1.526,0-2.014-2.54,4.794-2.54,4.794Z" transform="translate(-859.085 -540.346)"/><path class="ac" d="M1083.373,822.5a2.633,2.633,0,0,1-2.385,2.862h0a2.634,2.634,0,0,1-2.863-2.38l-.287-3.135a2.633,2.633,0,0,1,2.384-2.862h0a2.628,2.628,0,0,1,2.863,2.38Z" transform="translate(-823.005 -529.008)"/><path class="ac" d="M1087.583,795.264a9.573,9.573,0,0,1-19.066,1.741,9.433,9.433,0,0,1,8.66-10.406C1088.29,786.058,1081.795,796.888,1087.583,795.264Z" transform="translate(-818.213 -513.434)"/><path class="g" d="M1095.4,812.74l-6.559.614C1088.82,816.28,1093.438,819.016,1095.4,812.74Z" transform="translate(-828.668 -526.837)"/><path class="ag" d="M1074.528,782.017c-4.579-1.863-11.625.063-11.455.663a10.153,10.153,0,0,0,5.364,19.018,8.98,8.98,0,0,1-.488-2.155,8.587,8.587,0,0,1,0-1.37,2.765,2.765,0,1,1,.975-3.531,8.29,8.29,0,0,0-.132-4.345c2.843.058,10.928-1.439,10.928-1.439A8.747,8.747,0,0,0,1074.528,782.017Z" transform="translate(-812.754 -510.69)"/><path class="ad" d="M1100.25,853.518l27.795-2.3-3.9-3.877-23.231-2Z" transform="translate(-834.56 -543.541)"/><path class="w" d="M1185.578,822.807,1208,811.392l-2.243-7.032-21.236,16.316Z" transform="translate(-877.883 -522.544)"/><path class="ac" d="M1178.28,836.5c-.839-2.1,5.364-3.116,6.339-1.073s.7,5.149-1.346,6.1-3.633.229-5.179-1.463C1176.056,837.875,1179.148,838.724,1178.28,836.5Z" transform="translate(-874.193 -537.895)"/><circle class="l" cx="7.471" cy="7.471" r="7.471" transform="translate(514.528 273.216) rotate(-76.72)"/><path class="j" d="M1761.071,961.34h-11.7v-3.56h11.7c5.461,0,9.9-5.188,9.9-11.567V787.851A11.571,11.571,0,0,0,1759.4,776.26H1632.62a1.775,1.775,0,0,1-1.78-1.78h0a1.78,1.78,0,0,1,1.78-1.78H1759.4a15.117,15.117,0,0,1,15.117,15.117V946.179C1774.53,954.552,1768.493,961.34,1761.071,961.34Z" transform="translate(-1107.704 -506.322)"/><rect class="ah" width="74.403" height="172.899" rx="18.25" transform="translate(581.295 361.017)"/><path class="g" d="M1824.372,973.923a8.893,8.893,0,0,0-2.292-.3h-56.6a8.929,8.929,0,0,0-8.9,8.9v155.1a8.515,8.515,0,0,0,.171,1.736,8.938,8.938,0,0,1-6.607-8.6V975.649a8.928,8.928,0,0,1,8.9-8.9h56.6A8.929,8.929,0,0,1,1824.372,973.923Z" transform="translate(-1168.845 -605.747)"/><rect class="ai" width="55.229" height="9.275" rx="4.637" transform="translate(590.903 381.498)"/><path class="ai" d="M1825.029,1046.977c0,.936-1.1,1.7-2.438,1.7h-50.353c-1.341,0-2.438-.766-2.438-1.7s1.1-1.707,2.438-1.707h50.353C1823.932,1045.27,1825.029,1046.04,1825.029,1046.977Z" transform="translate(-1178.897 -645.979)"/><path class="j" d="M1827.545,1231.723a9.948,9.948,0,1,1-9.944-9.943,9.948,9.948,0,0,1,9.944,9.943Z" transform="translate(-1198.257 -736.417)"/><path class="aj" d="M1823.483,1242.529a4.472,4.472,0,0,1-2.692-8.4.488.488,0,0,1,.668.268h0a.488.488,0,0,1-.239.609,3.5,3.5,0,1,0,3.2-.034.487.487,0,0,1-.254-.6h0a.488.488,0,0,1,.683-.268,4.472,4.472,0,0,1-1.365,8.431Z" transform="translate(-1203.741 -742.703)"/><path class="aj" d="M1827.048,1236.3h0a.487.487,0,0,1-.488-.488v-4.325a.488.488,0,0,1,.488-.487h0a.487.487,0,0,1,.487.487v4.33A.487.487,0,0,1,1827.048,1236.3Z" transform="translate(-1207.927 -741.141)"/><path class="w" d="M1439.663,1227.651l21.1-4.306-3.14-10.255-19.613,5.008Z" transform="translate(-1008.214 -731.964)"/><path class="w" d="M1466.929,1249.042l-5.925,5.852-8.485-37.655s13.942-5.232,15.677,7.685C1469.484,1234.481,1466.929,1249.042,1466.929,1249.042Z" transform="translate(-1015.66 -733.553)"/><rect class="ak" width="12.908" height="0.975" transform="translate(470.61 540.635) rotate(-77.32)"/><path class="w" d="M1494.5,1294.019l-1.195,1.921-23.333-7.748,3.974-7.041Z" transform="translate(-1024.65 -766.836)"/><path class="ak" d="M1519.127,1320.248l2.833-12.591-5.949-1.9-1.341,2.789C1518.044,1312.358,1511.091,1317.41,1519.127,1320.248Z" transform="translate(-1047.596 -779.446)"/><path class="w" d="M1410.21,1238.007l-3.36-5.154,21.953-16.633,4.569,12.327Z" transform="translate(-992.2 -733.568)"/><path class="ak" d="M1403.22,1323.8l12.908.068.039-7.051-3.413.166C1409.74,1321.1,1404.269,1315.347,1403.22,1323.8Z" transform="translate(-990.308 -785.112)"/><rect class="ak" width="0.975" height="12.908" transform="matrix(0.005, -1, 1, 0.005, 412.943, 538.717)"/><path class="w" d="M1417.992,1284.079h-3.745l-7.4-33.749,8.646.609Z" transform="translate(-992.171 -751.045)"/><path class="ad" d="M1410.28,1185.828l16.8-4.418,5.778,7.344L1412.118,1190Z" transform="translate(-993.956 -715.733)"/><path class="ac" d="M1401.523,1188.89c-2.111-.214-1.424,5.661.673,5.988s4.832-.7,5.164-2.8-.736-3.345-2.657-4.3C1402.181,1186.525,1403.761,1189.114,1401.523,1188.89Z" transform="translate(-988.766 -718.819)"/><path class="al" d="M1442.105,1170.56c-1.9-.181-3.413.322-3.477-3.316-.093-5.144-2.862-11.805-2.862-11.805-.975-5.852,4.876-6.676,7.695-5.476,1.731.741,3.638,2.867,3.413,5.115l-1.551,16Z" transform="translate(-1006.982 -699.377)"/><path class="al" d="M1438.67,1184.119l21.524.868.907-35.207-20.6.283Z" transform="translate(-1008.552 -699.526)"/><path class="am" d="M1463.71,1155.94c-1.546,11.25-3.228,19.179-8.987,20.1s12.191-1.95,12.191-1.95l.375-7.885Z" transform="translate(-1016.203 -702.682)"/><path class="am" d="M1439,1202.522c13.249,1.024,21.456-.561,21.456-.561l1.463-10.591L1439,1199.284Z" transform="translate(-1008.723 -720.836)"/><path class="ac" d="M1455.92,1144.625a2.6,2.6,0,0,0,2.594,2.6h0a2.6,2.6,0,0,0,2.6-2.6v-3.1a2.6,2.6,0,0,0-2.6-2.594h0a2.594,2.594,0,0,0-2.594,2.594Z" transform="translate(-1017.387 -693.967)"/><path class="ac" d="M1435.65,1118.867a9.436,9.436,0,1,0,18.871,0,9.3,9.3,0,0,0-9.436-9.435C1434.133,1109.9,1441.477,1119.945,1435.65,1118.867Z" transform="translate(-1006.993 -678.849)"/><path class="g" d="M1444.16,1137.82h4.067C1448.407,1139.634,1445.72,1141.565,1444.16,1137.82Z" transform="translate(-1011.339 -693.399)"/><path class="an" d="M1436.889,1104.756c1.624.809,1.921,1.4,5.291.644,4.754-1.068,11.416-.975,11.3-.38a10.006,10.006,0,0,1-3.531,19.125,9.009,9.009,0,0,0,.264-2.16,8.75,8.75,0,0,0-.1-1.346,2.726,2.726,0,1,0-1.268-3.374,8.138,8.138,0,0,1-.258-4.276c-2.784.307-5.213.79-9.075-.38C1436,1111.427,1434.329,1108.521,1436.889,1104.756Z" transform="translate(-1007.003 -676.368)"/><path class="al" d="M1475.329,1172.952c-2.033-.21-2.877-1.4-2.926-5.306-.064-5.525-3-12.678-3-12.678-1.019-6.3,5.286-7.144,8.29-5.852,1.853.8,3.9,3.1,3.638,5.51l-1.765,21.607Z" transform="translate(-1024.277 -698.922)"/><path class="al" d="M1444.11,1194.48l16.823-4.32,5.74,7.378-20.749,1.126Z" transform="translate(-1011.35 -720.216)"/><path class="ac" d="M1435.337,1197.4c-2.111-.224-1.463,5.652.639,5.993s4.837-.673,5.179-2.765-.717-3.35-2.633-4.32C1436.01,1195.044,1437.571,1197.643,1435.337,1197.4Z" transform="translate(-1006.143 -723.188)"/><path class="w" d="M1438.67,1220.2v2.443l22.431,2.843-.907-4.418Z" transform="translate(-1008.552 -735.607)"/><rect class="ao" width="18.827" height="16.311" transform="translate(422.074 457.719)"/><rect class="g" width="18.827" height="16.311" transform="translate(413.581 457.719)"/><rect class="g" width="25.918" height="1.083" transform="translate(414.651 453.238)"/><rect class="w" width="17.077" height="8.582" transform="translate(616.427 348.69)"/><path class="w" d="M1797.244,959.8l-5.164-2.6L1823.8,941.53s6.339,13.493-2.926,14.834Z" transform="translate(-1190.291 -592.825)"/><path class="v" d="M1797.153,899.491c-2.019-.488-3.248-.7-2.638-4.808.853-5.778,2.628-13.546,3.243-16.579s1.317-4.837,5.535-3.657c2.467.688,2.726,3.9,2.146,6.373l-4.3,15.307c-.58,2.467-1.951,3.867-3.984,3.384Z" transform="translate(-1191.399 -558.267)"/><path class="v" d="M1816.986,907.618l16.9.517-5.5-19.622-3.867-19.622-17.155,2.648,4.252,18.33Z" transform="translate(-1198.132 -555.607)"/><path class="v" d="M1844.746,890.04c-1.741.746-3.462-.054-5.3-3.292-2.6-4.579-8.29-9.226-8.29-9.226-3.725-4.789.975-8.348,4.014-8.621,1.867-.166,4.569.829,5.481,2.95l5.578,12.991c.912,2.121.239,4.452-1.5,5.2Z" transform="translate(-1209.627 -555.603)"/><path class="ap" d="M1835.14,823.359c5.013,3.643,7.236-2.077,10.728,2.74a10,10,0,0,0-1.643-9.465,6.417,6.417,0,0,0-7.032-1.951C1831.293,816.288,1832.707,821.589,1835.14,823.359Z" transform="translate(-1211.291 -527.669)"/><path class="ab" d="M1796.1,842.832a9.58,9.58,0,1,0,18.934-2.926,9.445,9.445,0,0,0-10.928-8.012C1793.184,834.064,1802.112,843.007,1796.1,842.832Z" transform="translate(-1192.316 -536.566)"/><path class="g" d="M1802.18,861.914l4.067-.624C1806.71,863.1,1804.316,865.42,1802.18,861.914Z" transform="translate(-1195.401 -551.713)"/><path class="ap" d="M1789.762,832.3a.867.867,0,0,1-.487-.527c-.488-1.668.326-3.1,1.984-2.092.844.532,1.1.512,1.989-.4,3.779-3.833,9.3-5.023,10.045-4.774,3.9-1.326,9.592,2.36,11.045,6.227a10.152,10.152,0,0,1-5.413,12.869,9.113,9.113,0,0,0-.517-2.141,9.665,9.665,0,0,0-.566-1.253,2.765,2.765,0,1,0-2.438-2.755c-.576-.736-2.385-.814-3.95-4.125a1.794,1.794,0,0,1-.907-.268c.682,2.014-3.414,3.053-4.481,1.682.77.917-.361,1.487-1.156,1.643a2.19,2.19,0,0,1-2.575-.81c-.2,1.95-2.438,1.273-3.277.166C1788.138,834.4,1789,833.293,1789.762,832.3Z" transform="translate(-1188.511 -532.727)"/><path class="ab" d="M1819.26,866.8a2.638,2.638,0,0,0,3.009,2.2h0a2.633,2.633,0,0,0,2.2-3.009l-.488-3.111a2.634,2.634,0,0,0-3.009-2.2h0a2.633,2.633,0,0,0-2.2,3Z" transform="translate(-1203.918 -551.383)"/><path class="al" d="M1834.52,905.127l11.025-6.607.966,6.91-11.347,1.292Z" transform="translate(-1212.049 -570.788)"/><path class="w" d="M1803.756,1002.289l-3.75.965-8.046-31.277,5.666-1.458Z" transform="translate(-1190.167 -607.679)"/><path class="aq" d="M1799.453,1036.421c-2.092,5.364-9.611,5.671-8.451,10.191l10.387-2.672v-.054c0-.015-.244-3.272.419-3.443a1.224,1.224,0,0,1,1.5.887l.488,1.995,1.365-.351-1.99-7.724Z" transform="translate(-1189.62 -640.845)"/><path class="w" d="M1772.345,951.428l-.975-5.764,24.742-4.164,2.058,9.914Z" transform="translate(-1179.623 -592.81)"/><path class="w" d="M1776.1,981.714l-3.872.146-.853-32.164,5.52-.327Z" transform="translate(-1179.565 -596.842)"/><path class="aq" d="M1761.937,1016.346c-3.189,4.793-10.6,3.487-10.431,8.153l10.728-.39v-.054c0-.014.488-3.252,1.146-3.277a1.233,1.233,0,0,1,1.277,1.19l.044,2.048,1.409-.049-.292-7.968Z" transform="translate(-1169.375 -630.982)"/><path class="ab" d="M1825.08,906.991c-1.912-.458-2,5.018-.122,5.578s4.525-.049,5.081-1.951-.259-3.16-1.906-4.277C1825.977,904.9,1827.1,907.474,1825.08,906.991Z" transform="translate(-1206.418 -574.569)"/><rect class="h" width="34.393" height="19.091" transform="translate(594.476 330.394)"/><rect class="ao" width="34.393" height="3.443" transform="translate(594.476 348.807)"/><path class="w" d="M1812.195,921.577a1.882,1.882,0,1,1-1.883-1.877,1.883,1.883,0,0,1,1.883,1.877Z" transform="translate(-1198.613 -581.64)"/><rect class="g" width="28.561" height="28.902" transform="translate(531.815 417.558)"/><rect class="ar" width="3.428" height="16.355" transform="translate(550.213 424.668)"/><rect class="ar" width="3.428" height="16.355" transform="translate(538.09 424.668)"/><path class="j" d="M1676.2,1190.274a2.441,2.441,0,0,1-.112.741c.049.59.073,1.195.073,1.8a21.6,21.6,0,1,1-43.2,0,16.345,16.345,0,0,1,.071-1.8,2.611,2.611,0,0,1-.112-.741V1123.8a2.55,2.55,0,0,1,2.541-2.541h38.206a2.545,2.545,0,0,1,2.536,2.541Z" transform="translate(-1108.478 -684.914)"/><path class="as" d="M1676.2,1251.969a2.49,2.49,0,0,1-.112.741c.049.585.073,1.19.073,1.794a21.6,21.6,0,1,1-43.2,0,16.206,16.206,0,0,1,.071-1.794,2.652,2.652,0,0,1-.112-.741V1241.66a2.651,2.651,0,0,0,.112.741c-.044.59-.068,1.195-.068,1.8a21.6,21.6,0,1,0,43.2,0,15.216,15.216,0,0,0-.076-1.8,2.488,2.488,0,0,0,.112-.741Z" transform="translate(-1108.478 -746.603)"/><rect class="v" width="41.873" height="41.873" transform="translate(418.953 238.408)"/><path class="x" d="M1458.45,738.275a4.54,4.54,0,1,1-1.328-3.213,4.545,4.545,0,0,1,1.328,3.213Z" transform="translate(-1014.023 -486.355)"/><path class="h" d="M1457.638,766.336l-9.514-11.3-12.937,6.534-9.563-12.542-10.055,3.706v22h42.068Z" transform="translate(-996.715 -494.194)"/><path class="h" d="M1302.6,645.214v39.581H1265.87v-47.7h28.59Z" transform="translate(-919.731 -436.84)"/><path class="v" d="M1324.54,645.193h8.1l-8.1-8.143Z" transform="translate(-949.848 -436.819)"/><path class="w" d="M1301.818,665.8a.975.975,0,0,1-.975.946h-19.837a.946.946,0,1,1,0-1.892h19.856A.975.975,0,0,1,1301.818,665.8Z" transform="translate(-927.002 -451.063)"/><path class="w" d="M1301.818,705.8a.975.975,0,0,1-.975.946h-19.837a.946.946,0,1,1,0-1.892h19.856A.975.975,0,0,1,1301.818,705.8Z" transform="translate(-927.002 -471.558)"/><path class="w" d="M1298.629,686.006a.975.975,0,0,1-.975.946h-16.648a.946.946,0,1,1,0-1.892h16.667A.975.975,0,0,1,1298.629,686.006Z" transform="translate(-926.997 -461.418)"/><path class="w" d="M1295.44,696.006a.975.975,0,0,1-.975.946h-13.458a.946.946,0,1,1,0-1.892h13.478A.975.975,0,0,1,1295.44,696.006Z" transform="translate(-926.991 -466.542)"/><circle class="l" cx="7.471" cy="7.471" r="7.471" transform="translate(452.1 305.112) rotate(-79.1)"/><path class="j" d="M1565.985,1003.8h-7.1c-5.769,0-8.88-10.084-8.88-19.578V885.613a16.024,16.024,0,0,0-16.019-16.024h-16.214c-10.8,0-19.578-6.51-19.578-14.512V844.13a1.775,1.775,0,0,1,1.78-1.78h0a1.78,1.78,0,0,1,1.78,1.78v10.952c0,5.939,7.315,10.952,16.019,10.952h16.214a19.583,19.583,0,0,1,19.578,19.583v98.609c0,9.753,3.155,16.018,5.32,16.018h7.1Z" transform="translate(-1039.257 -542.009)"/><path class="h" d="M1212.75,573.309c49.582-24.581,73.208,32.252,73.208,32.252l-7.159-35.9s-14.892-14.961-30.262-14.234C1222.727,556.667,1212.75,573.309,1212.75,573.309Z" transform="translate(-892.476 -394.983)"/><path class="aj" d="M1391.861,905.487s12.191-15.746,12.191-24.6a12.191,12.191,0,1,0-24.382,0C1379.66,889.741,1391.861,905.487,1391.861,905.487Zm0-29.823a5.095,5.095,0,1,0,0,.01Z" transform="translate(-978.221 -555.509)"/><path class="h" d="M1448.605,589.931a49.489,49.489,0,0,1-1.034,10.133c-.049.224-.092.449-.141.668a96.971,96.971,0,0,1-11.04,10.84c11.732-28.258-26.859-66.527-57.95-63.216h0a45.1,45.1,0,0,1,23.626-6.666C1427.764,541.7,1448.605,563.3,1448.605,589.931Z" transform="translate(-977.68 -387.96)"/><path class="j" d="M1542.3,595.174a14.7,14.7,0,1,1,14.7-14.7,14.7,14.7,0,0,1-14.7,14.7Zm0-26.03a11.337,11.337,0,1,0,11.343,11.339A11.337,11.337,0,0,0,1542.3,569.145Z" transform="translate(-1054.292 -400.302)"/><rect class="v" width="41.254" height="41.254" rx="10" transform="translate(467.374 178.8)"/><path class="j" d="M1557.455,621.253a5.018,5.018,0,1,1-5.018-5.023A5.018,5.018,0,0,1,1557.455,621.253Z" transform="translate(-1064.439 -426.152)"/><rect class="j" width="3.921" height="11.606" rx="1.96" transform="translate(486.055 197.607)"/><path class="aj" d="M1135.719,529.36c-2.565-7.7-9.528.731-9.528,5.5-4.389-4.033-20.529-6.6-15.765,3.667,2.926,5.5,12.464,4.764,17.228,5.5l.371,1.1C1130.589,541.454,1137.567,534.856,1135.719,529.36Z" transform="translate(-839.343 -380.048)"/><path class="g" d="M1271.836,464.206a6.3,6.3,0,0,1-5.623,6.339,5.057,5.057,0,0,1-.546.024h-29.838a7.524,7.524,0,0,1,0-15.039,7.072,7.072,0,0,1,1.619.185v-.185a5.749,5.749,0,0,1,5.642-5.852,5.5,5.5,0,0,1,3.789,1.521,5.589,5.589,0,0,1,4.657-2.541,5.749,5.749,0,0,1,5.642,5.852,6.024,6.024,0,0,1-.127,1.229.269.269,0,0,1-.039.166l.1-.137a3.214,3.214,0,0,1,2.531-1.248,3.326,3.326,0,0,1,3.262,3.384,3.931,3.931,0,0,1-.049.59c-.088.044-.171.093-.254.141l.2.107a1.5,1.5,0,0,1,.054-.249,5.964,5.964,0,0,1,2.808-.7,6.281,6.281,0,0,1,6.169,6.412Z" transform="translate(-900.565 -340.294)"/><path class="g" d="M1928.946,854.708a6.685,6.685,0,0,1-5.958,6.749,5.707,5.707,0,0,1-.581.029H1890.76a7.983,7.983,0,0,1,0-15.955,7.376,7.376,0,0,1,1.716.2v-.2a6.1,6.1,0,0,1,5.983-6.2,5.843,5.843,0,0,0,8.953-1.078,6.1,6.1,0,0,1,5.988,6.217,6.37,6.37,0,0,1-.136,1.307.292.292,0,0,1-.039.175l.107-.141a3.414,3.414,0,0,1,2.687-1.326,3.521,3.521,0,0,1,3.457,3.589,3.7,3.7,0,0,1-.054.624l-.263.151.21.117a1.838,1.838,0,0,1,.054-.268,6.375,6.375,0,0,1,2.984-.741A6.661,6.661,0,0,1,1928.946,854.708Z" transform="translate(-1237.556 -539.908)"/><path class="g" d="M887.306,934.262a6.69,6.69,0,0,1-5.964,6.749,5.573,5.573,0,0,1-.575.029H849.12a7.983,7.983,0,0,1,0-15.955,7.385,7.385,0,0,1,1.717.2v-.2a6.1,6.1,0,0,1,5.983-6.217,5.852,5.852,0,0,1,4.018,1.614,5.92,5.92,0,0,1,4.935-2.692,6.091,6.091,0,0,1,5.983,6.2,6.383,6.383,0,0,1-.132,1.307.765.765,0,0,1-.039.176,1.5,1.5,0,0,1,.107-.141A3.413,3.413,0,0,1,874.374,924a3.53,3.53,0,0,1,3.462,3.589,3.709,3.709,0,0,1-.054.624l-.268.151.215.117a1.862,1.862,0,0,1,.054-.268,6.363,6.363,0,0,1,2.984-.741,6.661,6.661,0,0,1,6.539,6.788Z" transform="translate(-701.492 -580.662)"/><text class="at" transform="translate(337.331 128.618)"><tspan x="0" y="0">@</tspan></text><rect class="j" width="32.335" height="22.26" rx="11.13" transform="translate(400.894 90.47)"/><path class="v" d="M1401.72,429.4v-6.339c0-.488.351-.7.78-.453l3.94,2.277,1.565.9,3.945,2.277a.488.488,0,0,1,0,.9l-3.945,2.277-1.565.9-3.94,2.277c-.429.249-.78.044-.78-.454Z" transform="translate(-989.532 -326.891)"/><path class="au" d="M1708.168,562.62s2.365,17,18.608,18.608c-16.243,1.6-18.608,18.6-18.608,18.6s-2.365-17-18.608-18.6C1705.8,579.624,1708.168,562.62,1708.168,562.62Z" transform="translate(-1137.587 -398.683)"/><path class="au" d="M1683.663,615.82s1.312,9.436,10.323,10.323c-9.011.892-10.323,10.323-10.323,10.323s-1.312-9.431-10.323-10.323C1682.351,625.256,1683.663,615.82,1683.663,615.82Z" transform="translate(-1129.204 -425.941)"/><path class="g" d="M1553.62,455.127l6.173,10.582a1.171,1.171,0,0,1,.122.931,1.2,1.2,0,0,1-.571.751l-4.779,2.828a1.2,1.2,0,0,1-.936.122,1.19,1.19,0,0,1-.751-.561L1546.7,459.2a1.141,1.141,0,0,1-.117-.927,1.175,1.175,0,0,1,.566-.756l4.8-2.8a1.214,1.214,0,0,1,.931-.122A1.175,1.175,0,0,1,1553.62,455.127Zm2.272,10.026a1.151,1.151,0,0,0-.751-.561,1.224,1.224,0,0,0-1.507.883,1.217,1.217,0,0,0,.873,1.492,1.248,1.248,0,0,0,1.507-.883,1.137,1.137,0,0,0-.122-.931Zm17.467-21.548a4.185,4.185,0,0,1,.522,3,4.6,4.6,0,0,1,.975,1.112,3.984,3.984,0,0,1,.6,2.682,3.9,3.9,0,0,1,1.126,1.951,3.716,3.716,0,0,1,0,2.077,4.574,4.574,0,0,1,.932,3.472,4.8,4.8,0,0,1-2.531,3.209l-.6.351-1.268.736-.283.166a14.623,14.623,0,0,1-2.55,1.146,23.513,23.513,0,0,1-2.307.7c-.571.137-1.365.307-2.389.522a13.873,13.873,0,0,0-3.057.809,1.282,1.282,0,0,1-.941.112,1.142,1.142,0,0,1-.746-.546l-6.183-10.6a1.161,1.161,0,0,1-.122-.892,1.278,1.278,0,0,1,.522-.761,3.153,3.153,0,0,0,.7-1.712c.21-.965.381-1.951.517-2.984a29.52,29.52,0,0,1,.522-2.97,2.923,2.923,0,0,0,.058-1.092,5.679,5.679,0,0,0-.18-.975c-.068-.229-.186-.609-.356-1.131s-.3-.849-.38-1.131a5.958,5.958,0,0,1-.181-1.048,3.421,3.421,0,0,1,.088-1.156,1.185,1.185,0,0,1,.566-.751,5.717,5.717,0,0,1,1.463-.629,4.207,4.207,0,0,1,1.253-.156,2.774,2.774,0,0,1,1.058.278,4.784,4.784,0,0,1,.834.512,5.137,5.137,0,0,1,.683.712,7.7,7.7,0,0,1,.517.693l.385.639a5.842,5.842,0,0,1,.57,1.356,7.053,7.053,0,0,1,.263,1.175c.034.3.063.7.083,1.195v.39a4.34,4.34,0,0,0,.029.488,2.6,2.6,0,0,0,.1.488l4.623-2.692a3.569,3.569,0,0,1,2.8-.371,3.521,3.521,0,0,1,2.287,1.624Z" transform="translate(-1064.033 -334.379)"/><rect class="v" width="24.635" height="25.586" transform="translate(480.689 398.258)"/><rect class="aj" width="24.635" height="25.586" transform="translate(480.689 440.448)"/><path class="av" d="M886.491,650.819v37.548c0,27.307-38.5,42.809-38.5,42.809s-38.523-15.492-38.523-42.809V650.819s22.763-.975,38.523-19.729C863.729,649.849,886.491,650.819,886.491,650.819Z" transform="translate(-685.083 -433.765)"/><path class="aw" d="M926.969,650.82v37.548c0,27.171-38.094,42.648-38.5,42.809V631.09C904.206,649.849,926.969,650.82,926.969,650.82Z" transform="translate(-725.679 -433.765)"/><path class="aw" d="M847.993,631.09v100.1h0s-38.523-15.5-38.523-42.809V650.834s22.763-.975,38.523-19.73Z" transform="translate(-685.058 -433.765)"/><path class="ax" d="M886.662,656.977V691.75c0,25.289-35.641,39.635-35.641,39.635S815.38,717.038,815.38,691.75V656.977s21.071-.9,35.641-18.267C865.586,656.074,886.662,656.977,886.662,656.977Z" transform="translate(-688.118 -437.67)"/><path class="ay" d="M886.821,663.712v31.7c0,23.065-32.51,36.153-32.51,36.153s-32.51-13.088-32.51-36.153v-31.7s19.222-.819,32.51-16.662C867.6,662.893,886.821,663.712,886.821,663.712Z" transform="translate(-691.416 -441.943)"/><path class="k" d="M854.31,647.05v84.536S821.8,718.5,821.8,695.433v-31.7S841.022,662.893,854.31,647.05Z" transform="translate(-691.394 -441.943)"/><path class="g" d="M872.273,732.93l-12.191-9.582a.814.814,0,0,1-.137-1.146l4.218-5.364a.809.809,0,0,1,1.146-.137l6.481,5.1a.815.815,0,0,0,1.063-.049L886.8,708.709a.819.819,0,0,1,1.156.039l4.662,4.988a.824.824,0,0,1-.039,1.156l-19.247,17.994A.819.819,0,0,1,872.273,732.93Z" transform="translate(-710.918 -473.422)"/><rect class="az" width="74.305" height="61.095" transform="translate(224.133 467.228)"/><rect class="j" width="88.105" height="23.192" transform="translate(217.792 456.871)"/><path class="az" d="M1080.575,1184.471H1021.9a2.233,2.233,0,0,1-2.233-2.233h0A2.238,2.238,0,0,1,1021.9,1180h58.672a2.238,2.238,0,0,1,2.233,2.238h0A2.233,2.233,0,0,1,1080.575,1184.471Z" transform="translate(-793.168 -715.01)"/><path class="az" d="M1162.24,1182.1a2.365,2.365,0,1,1-2.365-2.365,2.365,2.365,0,0,1,2.365,2.365Z" transform="translate(-863.97 -714.877)"/><path class="k" d="M1080.575,1187.007H1021.9a2.233,2.233,0,0,1-2.233-2.233h0a2.233,2.233,0,0,1,2.233-2.233h58.672a2.233,2.233,0,0,1,2.233,2.233h0A2.233,2.233,0,0,1,1080.575,1187.007Z" transform="translate(-793.168 -716.311)"/><rect class="j" width="88.105" height="23.192" transform="translate(217.792 484.983)"/><path class="az" d="M1080.575,1241.617H1021.9a2.233,2.233,0,0,1-2.233-2.233h0a2.233,2.233,0,0,1,2.233-2.233h58.672a2.233,2.233,0,0,1,2.233,2.233h0A2.233,2.233,0,0,1,1080.575,1241.617Z" transform="translate(-793.168 -744.292)"/><path class="az" d="M1162.24,1239.245a2.365,2.365,0,1,1-2.365-2.365A2.365,2.365,0,0,1,1162.24,1239.245Z" transform="translate(-863.97 -744.154)"/><path class="k" d="M1080.575,1244.661H1021.9a2.238,2.238,0,0,1-2.233-2.238h0a2.233,2.233,0,0,1,2.233-2.233h58.672a2.234,2.234,0,0,1,2.233,2.233h0A2.238,2.238,0,0,1,1080.575,1244.661Z" transform="translate(-793.168 -745.849)"/><path class="k" d="M1162.24,1184.64a2.365,2.365,0,1,1-2.365-2.36A2.365,2.365,0,0,1,1162.24,1184.64Z" transform="translate(-863.97 -716.178)"/><path class="k" d="M1162.24,1242.29a2.365,2.365,0,1,1-2.365-2.36A2.364,2.364,0,0,1,1162.24,1242.29Z" transform="translate(-863.97 -745.716)"/><rect class="j" width="88.105" height="23.192" transform="translate(217.792 514.367)"/><rect class="ba" width="88.105" height="1.726" transform="translate(217.797 456.871)"/><rect class="ba" width="88.105" height="1.731" transform="translate(217.797 484.978)"/><rect class="ba" width="88.105" height="1.731" transform="translate(217.797 514.363)"/><path class="az" d="M1080.575,1301.877H1021.9a2.233,2.233,0,0,1-2.233-2.233h0a2.233,2.233,0,0,1,2.233-2.233h58.672a2.234,2.234,0,0,1,2.233,2.233h0a2.233,2.233,0,0,1-2.233,2.233Z" transform="translate(-793.168 -775.167)"/><path class="az" d="M1162.24,1299.515a2.365,2.365,0,1,1-2.365-2.365A2.365,2.365,0,0,1,1162.24,1299.515Z" transform="translate(-863.97 -775.034)"/><path class="k" d="M1080.575,1304.922H1021.9a2.238,2.238,0,0,1-2.233-2.238h0a2.233,2.233,0,0,1,2.233-2.233h58.672a2.233,2.233,0,0,1,2.233,2.233h0A2.238,2.238,0,0,1,1080.575,1304.922Z" transform="translate(-793.168 -776.725)"/><path class="k" d="M1162.24,1302.52a2.365,2.365,0,1,1-2.365-2.36A2.365,2.365,0,0,1,1162.24,1302.52Z" transform="translate(-863.97 -776.576)"/><path class="az" d="M1089.639,1152.257H1036a10.552,10.552,0,0,1,10.552-10.557h32.53a10.552,10.552,0,0,1,10.552,10.557Z" transform="translate(-801.555 -695.386)"/><path class="j" d="M1089.639,1152.252h-.141a10.562,10.562,0,0,0-10.411-8.826h-32.53a10.557,10.557,0,0,0-10.411,8.826H1036a10.557,10.557,0,0,1,10.552-10.552h32.53A10.552,10.552,0,0,1,1089.639,1152.252Z" transform="translate(-801.555 -695.386)"/><path class="bb" d="M1090.016,1153.292h-34.2a1.039,1.039,0,0,1-1.044-1.039h0a1.044,1.044,0,0,1,1.044-1.044h34.2a1.039,1.039,0,0,1,1.039,1.044h0A1.039,1.039,0,0,1,1090.016,1153.292Z" transform="translate(-811.186 -700.259)"/><path class="v" d="M764.731,879.7H753.057a1.677,1.677,0,0,0-1.672,1.677v29.745a1.79,1.79,0,0,1-1.79,1.79H728.368a1.79,1.79,0,0,1-1.79-1.79V881.38a1.673,1.673,0,0,0-1.672-1.677H713.218a.683.683,0,0,1-.541-1.092l25.757-33.89a.688.688,0,0,1,1.087,0l25.757,33.9a.683.683,0,0,1-.546,1.087Z" transform="translate(-634.929 -543.086)"/></g></g></svg>