<svg xmlns="http://www.w3.org/2000/svg" xmlns:xlink="http://www.w3.org/1999/xlink" width="855.894" height="582.089" viewBox="0 0 855.894 582.089"><defs><style>.a,.c{fill:#f3f7ff;}.b{clip-path:url(#a);}.be,.c,.ca{opacity:0.75;}.d{fill:url(#b);}.e{fill:url(#c);}.f{fill:url(#d);}.g{fill:#415490;}.h,.m{fill:#fff;}.i{fill:#ffd05c;}.j{fill:#80ea6d;}.k{fill:#bfbee3;}.l{fill:#ed7070;}.m{opacity:0.15;}.n,.o{opacity:0.3;}.n{fill:url(#e);}.o{fill:url(#f);}.p{fill:url(#i);}.q{fill:#dce3f7;}.r{fill:url(#j);}.s{fill:url(#k);}.t{fill:url(#l);}.u{fill:url(#m);}.v{fill:url(#n);}.w{fill:#a3a9b2;}.x{fill:#c7cdd8;}.y{fill:#6b6f75;opacity:0.5;}.z{fill:#dedcf4;}.aa{fill:#e9e7f7;}.ab{fill:#c3bfe0;}.ac{fill:#c45555;}.ad{fill:#944;}.ae{fill:#ad4242;}.af{fill:#473f63;}.ag{fill:#353050;}.ah{fill:#5a4d7a;}.ai{fill:#874949;}.aj{fill:#723b3b;}.ak{fill:#5b2c2c;}.al{fill:#ffc942;}.am{fill:#e0a038;}.an{fill:#cc8436;}.ao{fill:#fecdba;}.ap{fill:#ffeee9;}.aq{fill:#e28677;}.ar{fill:#f2aa99;}.as{fill:url(#o);}.at{fill:url(#p);}.au{fill:url(#q);}.av{fill:url(#r);}.aw{fill:url(#s);}.ax{fill:#e9effd;}.ay{fill:url(#t);}.az{fill:#474c56;opacity:0.8;}.ba{fill:#826c51;}.bb{fill:url(#u);}.bc{fill:#152651;}.bd{fill:#051028;}.bf{fill:#4567ab;}.bg{fill:#d4e6fc;}.bh{fill:#bdcde5;}.bi{fill:#82a8f4;}.bj{fill:#5b7cce;}.bk{fill:url(#v);}.bl{fill:url(#w);}.bm{fill:url(#x);}.bn{fill:url(#y);}.bo{fill:url(#z);}.bp{fill:url(#aa);}.bq{fill:url(#ab);}.br{fill:url(#ac);}.bs{fill:url(#ad);}.bt{fill:url(#ae);}.bu{fill:url(#af);}.bv{fill:url(#ag);}.bw{fill:url(#ah);}.bx{fill:url(#ai);}.by{fill:#5b4e3d;}.bz{fill:url(#ak);}.ca{fill:url(#al);}.cb{fill:url(#am);}.cc{fill:url(#an);}.cd{fill:url(#ao);}.ce{fill:#f4b25b;}.cf{fill:#d45959;}.cg{fill:#cc8585;}</style><clipPath id="a"><path class="a" d="M800.294,609.629H146.04A84.851,84.851,0,0,1,89.9,588.178C48.459,550.789,19.457,433.414,29.26,326.959,39.089,220.125,113.885,160.6,213.6,145.753,429.133,113.643,465.441,27.54,643.089,27.54c115.185,0,202.135,64.868,231.623,218.722,21.551,112.474,1.189,245.678-49.047,346.349C819.016,605.944,811.178,609.629,800.294,609.629Z" transform="translate(-27.346 -27.54)"/></clipPath><linearGradient id="b" x1="0.199" y1="-0.258" x2="0.738" y2="1.099" gradientUnits="objectBoundingBox"><stop offset="0" stop-color="#a6cef4"/><stop offset="1" stop-color="#82a8f4"/></linearGradient><linearGradient id="c" y1="0.5" x2="1" y2="0.5" gradientUnits="objectBoundingBox"><stop offset="0" stop-color="#0f6cb6"/><stop offset="0.14" stop-color="#1670ba"/><stop offset="0.35" stop-color="#2a7dc6"/><stop offset="0.6" stop-color="#4b91d9"/><stop offset="0.88" stop-color="#78acf3"/><stop offset="1" stop-color="#8db9ff"/></linearGradient><linearGradient id="d" x1="0.243" y1="-0.207" x2="0.757" y2="1.207" gradientUnits="objectBoundingBox"><stop offset="0.61" stop-color="#415490"/><stop offset="1" stop-color="#7997e2"/></linearGradient><linearGradient id="e" x1="0.5" x2="0.5" y2="1" gradientUnits="objectBoundingBox"><stop offset="0" stop-color="#d1d0fa"/><stop offset="1" stop-color="#e7f0f7"/></linearGradient><linearGradient id="f" x1="0.5" y1="0" x2="0.5" xlink:href="#e"/><linearGradient id="i" x1="0.5" y1="0.53" x2="0.5" y2="-0.276" gradientUnits="objectBoundingBox"><stop offset="0" stop-color="#fff"/><stop offset="1" stop-color="#82a8f4"/></linearGradient><linearGradient id="j" x1="0.563" y1="0.585" x2="1.025" y2="1.216" gradientUnits="objectBoundingBox"><stop offset="0" stop-color="#b9bbbe"/><stop offset="1" stop-color="#fff"/></linearGradient><linearGradient id="k" x1="0.393" y1="1.976" x2="0.578" y2="-0.579" gradientUnits="objectBoundingBox"><stop offset="0" stop-color="#ffc950"/><stop offset="1" stop-color="#ffcc71"/></linearGradient><linearGradient id="l" x1="0.172" y1="-0.343" x2="0.851" y2="1.207" gradientUnits="objectBoundingBox"><stop offset="0" stop-color="#ed7070"/><stop offset="1" stop-color="#d45959"/></linearGradient><linearGradient id="m" y1="0.5" x2="1" y2="0.5" gradientUnits="objectBoundingBox"><stop offset="0" stop-color="#fff"/><stop offset="1" stop-color="#e7f0f7"/></linearGradient><linearGradient id="n" x1="0.016" y1="0.015" x2="0.984" y2="0.985" gradientUnits="objectBoundingBox"><stop offset="0" stop-color="#d7d9dc"/><stop offset="1" stop-color="#86888b"/></linearGradient><linearGradient id="o" x1="1.821" y1="1.249" x2="0.166" y2="0.31" gradientUnits="objectBoundingBox"><stop offset="0" stop-color="#5b7cce"/><stop offset="1" stop-color="#e7f0f7"/></linearGradient><linearGradient id="p" x1="0.5" y1="0" x2="0.5" y2="1" xlink:href="#m"/><linearGradient id="q" x1="0.5" y1="0.046" x2="0.5" y2="1.046" gradientUnits="objectBoundingBox"><stop offset="0" stop-color="#e9effd"/><stop offset="1" stop-color="#418bd3"/></linearGradient><linearGradient id="r" x1="0.5" y1="0" x2="0.5" y2="1" xlink:href="#o"/><linearGradient id="s" x1="0.5" y1="-0.03" x2="0.5" y2="0.969" xlink:href="#o"/><linearGradient id="t" x1="0.426" y1="0.084" x2="0.588" y2="0.996" xlink:href="#o"/><linearGradient id="u" y1="0.499" x2="1" y2="0.499" gradientUnits="objectBoundingBox"><stop offset="0" stop-color="#6f82c3"/><stop offset="1" stop-color="#473f63"/></linearGradient><linearGradient id="v" x1="-0.304" y1="0.177" x2="1.061" y2="0.972" gradientUnits="objectBoundingBox"><stop offset="0" stop-color="#ffd05c"/><stop offset="1" stop-color="#da5f5f"/></linearGradient><linearGradient id="w" x1="0.501" y1="-0.001" x2="0.501" y2="0.999" gradientUnits="objectBoundingBox"><stop offset="0" stop-color="#df615c"/><stop offset="1" stop-color="#e7f0f7"/></linearGradient><linearGradient id="x" x1="0.504" y1="-3.14" x2="0.504" y2="-1.086" gradientUnits="objectBoundingBox"><stop offset="0.57" stop-color="#e77d5c"/><stop offset="1" stop-color="#dc575c"/></linearGradient><linearGradient id="y" x1="1.415" y1="-0.39" x2="-0.22" y2="1.796" gradientUnits="objectBoundingBox"><stop offset="0" stop-color="#d2345c"/><stop offset="1" stop-color="#ffd05c"/></linearGradient><linearGradient id="z" y1="0.499" x2="1" y2="0.499" gradientUnits="objectBoundingBox"><stop offset="0" stop-color="#415490"/><stop offset="1" stop-color="#82a8f4"/></linearGradient><linearGradient id="aa" y1="0.499" x2="1" y2="0.499" gradientUnits="objectBoundingBox"><stop offset="0" stop-color="#415490"/><stop offset="1" stop-color="#5b7cce"/></linearGradient><linearGradient id="ab" x1="0.524" y1="0.5" x2="1.524" y2="0.5" gradientUnits="objectBoundingBox"><stop offset="0" stop-color="#c6dbf9"/><stop offset="1" stop-color="#538ffe"/></linearGradient><linearGradient id="ac" x1="-0.341" y1="0.5" x2="0.659" y2="0.5" gradientUnits="objectBoundingBox"><stop offset="0" stop-color="#2c75ff"/><stop offset="1" stop-color="#e9effd"/></linearGradient><linearGradient id="ad" x1="0.5" y1="0" x2="0.5" y2="1" xlink:href="#m"/><linearGradient id="ae" x1="0.5" y1="1.151" x2="0.5" y2="2.151" gradientUnits="objectBoundingBox"><stop offset="0" stop-color="#c6dbf9"/><stop offset="1" stop-color="#473f63"/></linearGradient><linearGradient id="af" y1="0.5" x2="1" y2="0.5" gradientUnits="objectBoundingBox"><stop offset="0" stop-color="#82a8f4"/><stop offset="1" stop-color="#eaeaf6"/></linearGradient><linearGradient id="ag" y1="0.5" x2="1" y2="0.5" gradientUnits="objectBoundingBox"><stop offset="0.47" stop-color="#82a8f4"/><stop offset="1" stop-color="#eaeaf6"/></linearGradient><linearGradient id="ah" x1="-13.646" y1="0.5" x2="-12.646" y2="0.5" gradientUnits="objectBoundingBox"><stop offset="0" stop-color="#82a8f4"/><stop offset="1" stop-color="#dbe8f9"/></linearGradient><linearGradient id="ai" x1="0" y1="0.5" x2="1" y2="0.5" xlink:href="#m"/><linearGradient id="ak" x1="0.502" x2="0.502" y2="1" gradientUnits="objectBoundingBox"><stop offset="0" stop-color="#5b7cce"/><stop offset="1" stop-color="#d3e1f7"/></linearGradient><linearGradient id="al" y1="0.5" x2="1" y2="0.5" gradientUnits="objectBoundingBox"><stop offset="0" stop-color="#fff"/><stop offset="1" stop-color="#fff"/></linearGradient><linearGradient id="am" x1="0.5" y1="0" x2="0.5" y2="1" xlink:href="#m"/><linearGradient id="an" x1="0.5" y1="1.19" x2="0.5" y2="2.189" gradientUnits="objectBoundingBox"><stop offset="0" stop-color="#8db9ff"/><stop offset="1" stop-color="#6487d7"/></linearGradient><linearGradient id="ao" x1="0" y1="0.5" x2="1" y2="0.5" xlink:href="#ac"/></defs><g transform="translate(-27.346 -27.54)"><g transform="translate(27.346 27.54)"><path class="a" d="M800.294,609.629H146.04A84.851,84.851,0,0,1,89.9,588.178C48.459,550.789,19.457,433.414,29.26,326.959,39.089,220.125,113.885,160.6,213.6,145.753,429.133,113.643,465.441,27.54,643.089,27.54c115.185,0,202.135,64.868,231.623,218.722,21.551,112.474,1.189,245.678-49.047,346.349C819.016,605.944,811.178,609.629,800.294,609.629Z" transform="translate(-27.346 -27.54)"/><g class="b"><g transform="translate(-7.267)"><path class="c" d="M655.264,475.794V27.54H619.676V475.794H597.09V27.54H561.5V475.794H161.683V27.54H126.1V475.794H99.788V27.54H64.2V475.794H19.28v74.994H873.913V475.794Z" transform="translate(-19.28 -27.54)"/></g><g transform="translate(97.666)"><path class="a" d="M607.159,417.431,135.75,192.962V27.54L607.159,375.781Z" transform="translate(-135.75 -27.54)"/></g><g transform="translate(97.666 215.298)"><path class="a" d="M607.159,546.964,135.75,332.918V266.51L607.159,523.891Z" transform="translate(-135.75 -266.51)"/></g><rect class="a" width="22.253" height="582.639" transform="translate(570.543)"/><rect class="a" width="8.487" height="582.639" transform="translate(570.543)"/><rect class="a" width="5.838" height="582.639" transform="translate(586.958)"/><rect class="a" width="6.036" height="582.639" transform="translate(570.543)"/><rect class="a" width="22.253" height="582.639" transform="translate(75.404)"/><rect class="a" width="8.487" height="582.639" transform="translate(75.404)"/><rect class="a" width="5.838" height="582.639" transform="translate(91.819)"/><rect class="a" width="6.036" height="582.639" transform="translate(75.404)"/><rect class="a" width="855.822" height="58.84" transform="translate(-7.267 523.249)"/><rect class="a" width="855.822" height="12.424" transform="translate(-7.267 523.249)"/><rect class="a" width="855.822" height="8.586" transform="translate(-7.267 523.249)"/></g><rect class="d" width="516.834" height="355.656" rx="13.74" transform="translate(146.713 20.803)"/><rect class="e" width="505.581" height="323.997" rx="13.74" transform="translate(152.344 36.632)"/><path class="f" d="M696.8,87.959V373.9a12.379,12.379,0,0,1-12.379,12.379h-469.1A12.4,12.4,0,0,1,202.94,373.9V87.959A12.379,12.379,0,0,1,215.319,75.58h469.1A12.379,12.379,0,0,1,696.8,87.959Z" transform="translate(-44.74 -32.299)"/><path class="g" d="M684.421,75.58h-469.1A12.379,12.379,0,0,0,202.94,87.959V373.9a12.4,12.4,0,0,0,12.379,12.379h469.1A12.379,12.379,0,0,0,696.8,373.9V87.959A12.379,12.379,0,0,0,684.421,75.58Zm7.045,292.166a11.974,11.974,0,0,1-12.109,11.829H220.391a12.208,12.208,0,0,1-8.622-3.523,11.64,11.64,0,0,1-3.487-8.316V94.112a11.983,11.983,0,0,1,12.109-11.847H679.358a11.982,11.982,0,0,1,12.109,11.847Z" transform="translate(-44.74 -32.299)"/><path class="h" d="M729.668,62.331a4.649,4.649,0,1,1-4.649-4.811A4.73,4.73,0,0,1,729.668,62.331Z" transform="translate(-95.996 -30.51)"/><ellipse class="h" cx="4.64" cy="4.811" rx="4.64" ry="4.811" transform="translate(608.293 27.01)"/><path class="h" d="M693.98,62.331a4.64,4.64,0,1,1-4.64-4.811,4.721,4.721,0,0,1,4.64,4.811Z" transform="translate(-92.462 -30.51)"/><path class="h" d="M589.631,131.752H480.086a1.856,1.856,0,0,1,0-3.712H589.631a1.856,1.856,0,0,1,0,3.712Z" transform="translate(-72.01 -37.495)"/><path class="i" d="M637.379,131.752H616.486a1.856,1.856,0,0,1,0-3.712h20.893a1.856,1.856,0,0,1,0,3.712Z" transform="translate(-85.521 -37.495)"/><path class="j" d="M679.4,131.752H653.586a1.856,1.856,0,1,1,0-3.712H679.4a1.856,1.856,0,1,1,0,3.712Z" transform="translate(-89.196 -37.495)"/><path class="h" d="M570.4,149.592H460.846a1.856,1.856,0,1,1,0-3.712H570.4a1.856,1.856,0,0,1,0,3.712Z" transform="translate(-70.104 -39.263)"/><path class="h" d="M618.14,149.592H597.256a1.856,1.856,0,1,1,0-3.712H618.14a1.856,1.856,0,0,1,0,3.712Z" transform="translate(-83.616 -39.263)"/><path class="h" d="M660.158,149.592H634.346a1.856,1.856,0,0,1,0-3.712h25.812a1.856,1.856,0,1,1,0,3.712Z" transform="translate(-87.29 -39.263)"/><path class="h" d="M545.656,167.481h-84.8a1.865,1.865,0,0,1,0-3.721h84.8a1.865,1.865,0,0,1,0,3.721Z" transform="translate(-70.117 -41.034)"/><path class="h" d="M615.433,167.481H569.809a1.865,1.865,0,0,1,0-3.721h45.642a1.865,1.865,0,0,1,0,3.721Z" transform="translate(-80.909 -41.034)"/><path class="k" d="M660.171,167.481H634.359a1.865,1.865,0,0,1,0-3.721h25.812a1.865,1.865,0,0,1,0,3.721Z" transform="translate(-87.303 -41.034)"/><path class="h" d="M508.556,185.342H460.9a1.856,1.856,0,0,1,0-3.712h47.66a1.856,1.856,0,1,1,0,3.712Z" transform="translate(-70.109 -42.804)"/><path class="h" d="M611.334,185.342H528.556a1.856,1.856,0,0,1,0-3.712h82.779a1.856,1.856,0,0,1,0,3.712Z" transform="translate(-76.811 -42.804)"/><path class="i" d="M660.158,185.342H634.346a1.856,1.856,0,0,1,0-3.712h25.812a1.856,1.856,0,1,1,0,3.712Z" transform="translate(-87.29 -42.804)"/><path class="l" d="M480.243,234.282h-19.4a1.856,1.856,0,0,1,0-3.712h19.4a1.856,1.856,0,1,1,0,3.712Z" transform="translate(-70.104 -47.652)"/><path class="j" d="M536.249,234.282H494.166a1.856,1.856,0,0,1,0-3.712h42.083a1.856,1.856,0,0,1,0,3.712Z" transform="translate(-73.404 -47.652)"/><path class="l" d="M480.243,250.772h-19.4a1.856,1.856,0,0,1,0-3.712h19.4a1.856,1.856,0,1,1,0,3.712Z" transform="translate(-70.104 -49.285)"/><path class="h" d="M558.529,250.772H494.166a1.856,1.856,0,0,1,0-3.712h64.363a1.856,1.856,0,1,1,0,3.712Z" transform="translate(-73.404 -49.285)"/><path class="l" d="M480.243,267.262h-19.4a1.856,1.856,0,0,1,0-3.712h19.4a1.856,1.856,0,1,1,0,3.712Z" transform="translate(-70.104 -50.919)"/><path class="h" d="M533.777,267.262H494.136a1.856,1.856,0,0,1,0-3.712h39.641a1.856,1.856,0,1,1,0,3.712Z" transform="translate(-73.401 -50.919)"/><path class="m" d="M569.387,75.576c-21.406,64.453-79.454,181.314-229.524,253.038C289.329,352.76,244.9,370.13,206.524,382.581a12.3,12.3,0,0,1-3.6-8.685V266.954c69.877-16.821,132.754-38.74,173.44-83.3,29.47-32.281,44.29-76.724,59.6-108.113Z" transform="translate(-44.738 -32.295)"/><g transform="translate(408.383 294.401)"><rect class="n" width="32.182" height="32.182"/></g><g transform="translate(338.316 243.398)"><rect class="o" width="42.083" height="42.083"/></g><g transform="translate(575.967 161.26)"><rect class="n" width="32.182" height="32.182"/></g><g transform="translate(439.952 273.904)"><path class="n" d="M528.049,337.749a6.189,6.189,0,1,1-6.19-6.189A6.189,6.189,0,0,1,528.049,337.749Z" transform="translate(-515.67 -331.56)"/></g><path class="p" d="M413.8,115.179V270.555a12.379,12.379,0,0,1-12.379,12.379H149.529a12.379,12.379,0,0,1-12.379-12.379V115.179A12.379,12.379,0,0,1,149.529,102.8H401.423A12.379,12.379,0,0,1,413.8,115.179Z" transform="translate(-38.223 -34.995)"/><path class="q" d="M414.068,115.183V270.559a12.379,12.379,0,0,1-12.379,12.379H149.794a12.325,12.325,0,0,1-9.964-5.036c12.784-2.955,73.7-18.83,121.222-61.8,53.372-48.272,58.561-96.239,58.561-96.239s.595-9.361.631-17.019h81.463a12.379,12.379,0,0,1,12.361,12.343Z" transform="translate(-38.488 -34.999)"/><path class="l" d="M415.038,111.39a4.649,4.649,0,1,1-4.649-4.64,4.649,4.649,0,0,1,4.649,4.64Z" transform="translate(-64.829 -35.386)"/><path class="i" d="M398.548,111.39a4.649,4.649,0,1,1-4.64-4.64A4.649,4.649,0,0,1,398.548,111.39Z" transform="translate(-63.195 -35.386)"/><path class="j" d="M382.06,111.39a4.64,4.64,0,1,1-4.64-4.64A4.64,4.64,0,0,1,382.06,111.39Z" transform="translate(-61.564 -35.386)"/><path class="r" d="M406.47,134.069v131.2a12.379,12.379,0,0,1-12.37,12.379H158.639a12.37,12.37,0,0,1-12.379-12.379v-131.2a12.379,12.379,0,0,1,12.379-12.379H394.1a12.388,12.388,0,0,1,12.37,12.379Z" transform="translate(-39.125 -36.866)"/><path class="h" d="M334,144.292H164.426a1.856,1.856,0,0,1,0-3.712H334a1.856,1.856,0,0,1,0,3.712Z" transform="translate(-40.741 -38.738)"/><path class="h" d="M334,144.292H164.426a1.856,1.856,0,0,1,0-3.712H334a1.856,1.856,0,0,1,0,3.712Z" transform="translate(-40.741 -38.738)"/><path class="h" d="M202.473,162.152H164.426a1.856,1.856,0,1,1,0-3.712h38.047a1.856,1.856,0,1,1,0,3.712Z" transform="translate(-40.741 -40.507)"/><path class="h" d="M257.263,162.152H219.216a1.856,1.856,0,1,1,0-3.712h38.047a1.856,1.856,0,0,1,0,3.712Z" transform="translate(-46.168 -40.507)"/><path class="h" d="M312.062,162.152H274.006a1.856,1.856,0,1,1,0-3.712h38.056a1.856,1.856,0,0,1,0,3.712Z" transform="translate(-51.596 -40.507)"/><path class="h" d="M202.473,277.592H164.426a1.856,1.856,0,1,1,0-3.712h38.047a1.856,1.856,0,1,1,0,3.712Z" transform="translate(-40.741 -51.942)"/><path class="h" d="M257.263,277.592H219.216a1.856,1.856,0,1,1,0-3.712h38.047a1.856,1.856,0,0,1,0,3.712Z" transform="translate(-46.168 -51.942)"/><path class="h" d="M312.062,277.592H274.006a1.856,1.856,0,0,1,0-3.712h38.056a1.856,1.856,0,0,1,0,3.712Z" transform="translate(-51.596 -51.942)"/><path class="h" d="M229.952,211.592H191.9a1.856,1.856,0,1,1,0-3.712h38.056a1.856,1.856,0,0,1,0,3.712Z" transform="translate(-43.462 -45.404)"/><path class="h" d="M205.207,261.081h-13.3a1.865,1.865,0,0,1,0-3.721h13.3a1.865,1.865,0,0,1,0,3.721Z" transform="translate(-43.475 -50.306)"/><path class="h" d="M284.743,211.592H246.7a1.856,1.856,0,1,1,0-3.712h38.047a1.856,1.856,0,1,1,0,3.712Z" transform="translate(-48.89 -45.404)"/><path class="h" d="M339.533,211.592H301.486a1.856,1.856,0,0,1,0-3.712h38.047a1.856,1.856,0,1,1,0,3.712Z" transform="translate(-54.318 -45.404)"/><path class="h" d="M229.952,178.642H191.9a1.856,1.856,0,1,1,0-3.712h38.056a1.856,1.856,0,0,1,0,3.712Z" transform="translate(-43.462 -42.14)"/><path class="h" d="M272.364,178.642H246.7a1.856,1.856,0,1,1,0-3.712h25.668a1.856,1.856,0,0,1,0,3.712Z" transform="translate(-48.89 -42.14)"/><path class="h" d="M338.177,178.642H287.8a1.856,1.856,0,0,1,0-3.712h50.453a1.856,1.856,0,0,1,0,3.712Z" transform="translate(-52.962 -42.14)"/><path class="h" d="M217.784,195.131H191.909a1.865,1.865,0,0,1,0-3.721h25.875a1.865,1.865,0,0,1,0,3.721Z" transform="translate(-43.475 -43.773)"/><path class="h" d="M246.62,195.131H229.169a1.865,1.865,0,0,1,0-3.721H246.62a1.865,1.865,0,0,1,0,3.721Z" transform="translate(-47.166 -43.773)"/><path class="h" d="M316.127,195.131H257.079a1.865,1.865,0,0,1,0-3.721h59.048a1.865,1.865,0,0,1,0,3.721Z" transform="translate(-49.931 -43.773)"/><path class="h" d="M257.432,228.1H219.376a1.856,1.856,0,0,1,0-3.712h38.056a1.856,1.856,0,1,1,0,3.712Z" transform="translate(-46.184 -47.04)"/><path class="h" d="M299.844,228.1H274.176a1.856,1.856,0,1,1,0-3.712h25.668a1.856,1.856,0,0,1,0,3.712Z" transform="translate(-51.612 -47.04)"/><path class="h" d="M365.649,228.1H315.2a1.856,1.856,0,1,1,0-3.712h50.453a1.856,1.856,0,1,1,0,3.712Z" transform="translate(-55.676 -47.04)"/><path class="h" d="M245.251,244.592H219.376a1.856,1.856,0,0,1,0-3.712h25.875a1.856,1.856,0,0,1,0,3.712Z" transform="translate(-46.184 -48.673)"/><path class="h" d="M274.087,244.592H256.636a1.856,1.856,0,1,1,0-3.712h17.451a1.856,1.856,0,1,1,0,3.712Z" transform="translate(-49.875 -48.673)"/><path class="h" d="M343.594,244.592H284.546a1.856,1.856,0,0,1,0-3.712h59.048a1.856,1.856,0,0,1,0,3.712Z" transform="translate(-52.64 -48.673)"/><path class="h" d="M388.735,144.292H360.9a1.856,1.856,0,0,1,0-3.712h27.839a1.856,1.856,0,0,1,0,3.712Z" transform="translate(-60.203 -38.738)"/><rect class="s" width="276.652" height="70.246" rx="13.74" transform="translate(61.791 270.805)"/><path class="t" d="M663.271,220.022v35.749a3.7,3.7,0,0,1-3.712,3.712H646.405a3.712,3.712,0,0,0-3.712,3.721v2.757a3.721,3.721,0,0,1-6.307,2.622l-8-8.009a3.739,3.739,0,0,0-2.631-1.09H587.592a3.694,3.694,0,0,1-3.324-2.072,3.6,3.6,0,0,1-.387-1.64V220.022a3.73,3.73,0,0,1,3.712-3.712H659.55A3.721,3.721,0,0,1,663.271,220.022Z" transform="translate(-82.475 -46.239)"/><path class="m" d="M663.314,220.022v16.586A165.928,165.928,0,0,1,629.258,261.4l-.829-.829a3.739,3.739,0,0,0-2.631-1.09H587.634a3.694,3.694,0,0,1-3.324-2.072c27.713-7.208,53.156-26.794,65.345-41.1h9.91a3.721,3.721,0,0,1,3.748,3.712Z" transform="translate(-82.518 -46.239)"/><path class="h" d="M640.145,249.2a1.243,1.243,0,0,1-.9-2.117l7.937-7.937-8.172-8.181a1.236,1.236,0,0,1,1.748-1.748l9.054,9.009a1.243,1.243,0,0,1,0,1.757l-8.793,8.82A1.27,1.27,0,0,1,640.145,249.2Z" transform="translate(-87.9 -47.482)"/><path class="h" d="M614.381,249.207a1.27,1.27,0,0,1-.9-.36l-8.82-8.82a1.243,1.243,0,0,1,0-1.757l9.009-9.009a1.236,1.236,0,1,1,1.748,1.748l-8.181,8.181,7.946,7.937a1.243,1.243,0,0,1,0,1.757,1.271,1.271,0,0,1-.8.324Z" transform="translate(-84.498 -47.486)"/><path class="h" d="M623.254,249.2a1.334,1.334,0,0,1-.478-.1,1.234,1.234,0,0,1-.667-1.613l7.433-17.875a1.236,1.236,0,0,1,2.279.955L624.4,248.437A1.234,1.234,0,0,1,623.254,249.2Z" transform="translate(-86.253 -47.482)"/><rect class="u" width="156.584" height="293.184" rx="13.74" transform="translate(608.914 83.274)"/><rect class="q" width="148.818" height="269.318" rx="13.74" transform="translate(612.797 101.689)"/><path class="l" d="M854.7,134.749a4.649,4.649,0,1,1-4.649-4.649,4.649,4.649,0,0,1,4.649,4.649Z" transform="translate(-108.381 -37.699)"/><path class="i" d="M838.208,134.749a4.649,4.649,0,1,1-4.64-4.649,4.649,4.649,0,0,1,4.64,4.649Z" transform="translate(-106.747 -37.699)"/><path class="j" d="M821.72,134.749a4.64,4.64,0,1,1-4.64-4.649,4.64,4.64,0,0,1,4.64,4.649Z" transform="translate(-105.116 -37.699)"/><rect class="v" width="143.592" height="258.21" rx="13.74" transform="translate(615.41 109.419)"/><path class="h" d="M790,174.522H725.326a1.856,1.856,0,0,1,0-3.712H790a1.856,1.856,0,0,1,0,3.712Z" transform="translate(-96.303 -41.732)"/><path class="h" d="M835.311,174.522H807.8a1.856,1.856,0,1,1,0-3.712h27.542a1.856,1.856,0,1,1,0,3.712Z" transform="translate(-104.472 -41.732)"/><path class="h" d="M752.868,191H725.326a1.856,1.856,0,0,1,0-3.712h27.542a1.856,1.856,0,0,1,0,3.712Z" transform="translate(-96.303 -43.365)"/><path class="h" d="M794.088,191H766.546a1.856,1.856,0,0,1,0-3.712h27.542a1.856,1.856,0,0,1,0,3.712Z" transform="translate(-100.386 -43.365)"/><path class="h" d="M822.932,191H807.8a1.856,1.856,0,1,1,0-3.712h15.136a1.856,1.856,0,0,1,0,3.712Z" transform="translate(-104.472 -43.365)"/><path class="h" d="M752.868,245.962H725.326a1.856,1.856,0,0,1,0-3.712h27.542a1.856,1.856,0,0,1,0,3.712Z" transform="translate(-96.303 -48.809)"/><path class="h" d="M794.088,245.962H766.546a1.856,1.856,0,0,1,0-3.712h27.542a1.856,1.856,0,0,1,0,3.712Z" transform="translate(-100.386 -48.809)"/><path class="h" d="M822.932,245.962H807.8a1.856,1.856,0,1,1,0-3.712h15.136a1.856,1.856,0,0,1,0,3.712Z" transform="translate(-104.472 -48.809)"/><path class="h" d="M755.472,204.742H739.066a1.856,1.856,0,0,1,0-3.712h16.406a1.856,1.856,0,1,1,0,3.712Z" transform="translate(-97.664 -44.726)"/><path class="h" d="M806.467,204.742H766.546a1.856,1.856,0,0,1,0-3.712h39.921a1.856,1.856,0,1,1,0,3.712Z" transform="translate(-100.386 -44.726)"/><path class="h" d="M836.669,204.742H821.506a1.856,1.856,0,0,1,0-3.712h15.163a1.856,1.856,0,0,1,0,3.712Z" transform="translate(-105.83 -44.726)"/><path class="h" d="M755.472,218.482H739.066a1.856,1.856,0,0,1,0-3.712h16.406a1.856,1.856,0,1,1,0,3.712Z" transform="translate(-97.664 -46.087)"/><path class="h" d="M794.088,218.482H766.546a1.856,1.856,0,0,1,0-3.712h27.542a1.856,1.856,0,0,1,0,3.712Z" transform="translate(-100.386 -46.087)"/><path class="h" d="M835.311,218.482H807.8a1.856,1.856,0,1,1,0-3.712h27.542a1.856,1.856,0,1,1,0,3.712Z" transform="translate(-104.472 -46.087)"/><path class="h" d="M755.472,232.222H739.066a1.856,1.856,0,0,1,0-3.712h16.406a1.856,1.856,0,1,1,0,3.712Z" transform="translate(-97.664 -47.448)"/><path class="h" d="M781.709,232.222H766.546a1.856,1.856,0,0,1,0-3.712h15.163a1.856,1.856,0,0,1,0,3.712Z" transform="translate(-100.386 -47.448)"/><path class="h" d="M833.947,232.222H794.026a1.856,1.856,0,1,1,0-3.712h39.921a1.856,1.856,0,1,1,0,3.712Z" transform="translate(-103.108 -47.448)"/><path class="h" d="M755.472,259.7H739.066a1.856,1.856,0,0,1,0-3.712h16.406a1.856,1.856,0,1,1,0,3.712Z" transform="translate(-97.664 -50.17)"/><path class="h" d="M806.467,259.7H766.546a1.856,1.856,0,0,1,0-3.712h39.921a1.856,1.856,0,1,1,0,3.712Z" transform="translate(-100.386 -50.17)"/><path class="h" d="M836.669,259.7H821.506a1.856,1.856,0,0,1,0-3.712h15.163a1.856,1.856,0,0,1,0,3.712Z" transform="translate(-105.83 -50.17)"/><path class="h" d="M755.472,273.442H739.066a1.856,1.856,0,0,1,0-3.712h16.406a1.856,1.856,0,1,1,0,3.712Z" transform="translate(-97.664 -51.531)"/><path class="h" d="M794.088,273.442H766.546a1.856,1.856,0,0,1,0-3.712h27.542a1.856,1.856,0,0,1,0,3.712Z" transform="translate(-100.386 -51.531)"/><path class="h" d="M835.311,273.442H807.8a1.856,1.856,0,1,1,0-3.712h27.542a1.856,1.856,0,1,1,0,3.712Z" transform="translate(-104.472 -51.531)"/><path class="h" d="M755.472,287.182H739.066a1.856,1.856,0,0,1,0-3.712h16.406a1.856,1.856,0,1,1,0,3.712Z" transform="translate(-97.664 -52.892)"/><path class="h" d="M781.709,287.182H766.546a1.856,1.856,0,0,1,0-3.712h15.163a1.856,1.856,0,0,1,0,3.712Z" transform="translate(-100.386 -52.892)"/><path class="h" d="M809.189,287.182H794.026a1.856,1.856,0,1,1,0-3.712h15.163a1.856,1.856,0,1,1,0,3.712Z" transform="translate(-103.108 -52.892)"/><path class="h" d="M752.868,300.922H725.326a1.856,1.856,0,0,1,0-3.712h27.542a1.856,1.856,0,0,1,0,3.712Z" transform="translate(-96.303 -54.253)"/><path class="h" d="M794.088,300.922H766.546a1.856,1.856,0,0,1,0-3.712h27.542a1.856,1.856,0,0,1,0,3.712Z" transform="translate(-100.386 -54.253)"/><path class="h" d="M822.932,300.922H807.8a1.856,1.856,0,1,1,0-3.712h15.136a1.856,1.856,0,0,1,0,3.712Z" transform="translate(-104.472 -54.253)"/><path class="h" d="M755.472,314.662H739.066a1.856,1.856,0,0,1,0-3.712h16.406a1.856,1.856,0,1,1,0,3.712Z" transform="translate(-97.664 -55.614)"/><path class="h" d="M806.467,314.662H766.546a1.856,1.856,0,0,1,0-3.712h39.921a1.856,1.856,0,1,1,0,3.712Z" transform="translate(-100.386 -55.614)"/><path class="h" d="M836.669,314.662H821.506a1.856,1.856,0,0,1,0-3.712h15.163a1.856,1.856,0,0,1,0,3.712Z" transform="translate(-105.83 -55.614)"/><path class="h" d="M755.472,328.4H739.066a1.856,1.856,0,0,1,0-3.712h16.406a1.856,1.856,0,1,1,0,3.712Z" transform="translate(-97.664 -56.975)"/><path class="h" d="M794.088,328.4H766.546a1.856,1.856,0,0,1,0-3.712h27.542a1.856,1.856,0,0,1,0,3.712Z" transform="translate(-100.386 -56.975)"/><path class="h" d="M835.311,328.4H807.8a1.856,1.856,0,1,1,0-3.712h27.542a1.856,1.856,0,1,1,0,3.712Z" transform="translate(-104.472 -56.975)"/><path class="h" d="M755.472,342.142H739.066a1.856,1.856,0,0,1,0-3.712h16.406a1.856,1.856,0,1,1,0,3.712Z" transform="translate(-97.664 -58.336)"/><path class="h" d="M781.709,342.142H766.546a1.856,1.856,0,0,1,0-3.712h15.163a1.856,1.856,0,0,1,0,3.712Z" transform="translate(-100.386 -58.336)"/><path class="h" d="M809.189,342.142H794.026a1.856,1.856,0,1,1,0-3.712h15.163a1.856,1.856,0,1,1,0,3.712Z" transform="translate(-103.108 -58.336)"/><path class="w" d="M300.754,581.3c-.342,46.687-53.606,69.625-53.606,69.625H109.511s-27.8-1.694-40.75-18.253A58.831,58.831,0,0,1,56,597.52c-.991-29.019,16.3-61.85,36.182-95.5,28.47-48.128,84.779-53.894,84.779-53.894s56.759-4.1,76.58,11.289a57.66,57.66,0,0,1,9.91,10.442c.748.991,1.523,2.045,2.288,3.117C283.033,497.515,301.052,543.706,300.754,581.3Z" transform="translate(-30.18 -69.154)"/><path class="x" d="M248.457,480c-1.108.451-2.225.856-3.315,1.234-14.947,5.108-39.344-1.55-54.588-3.144-21.785-2.261-46.9-7.631-65.471,7.568-17.92,14.649-29.524,42.714-36.722,64.183-7.514,22.424-4.667,40.119-1.721,62.57-6.55-3.072-9.91-11.6-10.964-18.487-1.216-7.865-.081-15.893,1.054-23.776a49.335,49.335,0,0,0-8.469,20.028c2.153-54.3,46.038-124.78,105.149-129.051,0,0,49.236-3.55,66.444,9.8A50.163,50.163,0,0,1,248.457,480Z" transform="translate(-31.398 -70.448)"/><path class="y" d="M304.2,582.6c-.342,46.687-53.606,69.625-53.606,69.625H169.513c-2.829-7.117,1.072-13.127,12.3-12.064,26.127,2.469,43.795,8.658,70.868-6.189s23.677-24.136,12.532-31.533S228.7,621.006,190.2,627.817s-71.048-3.1-74.084-50.75S132.2,495.369,132.2,493.5l62.48-32.785s61.606,4.207,62.372,5.5c.216.36,5.063,3.514,12.163,8.054C286.518,498.811,304.492,545,304.2,582.6Z" transform="translate(-36.106 -70.449)"/><path class="z" d="M457.244,672.81H379.88v-4.64h76.805a8.341,8.341,0,0,1,.532,1.55A5.4,5.4,0,0,1,457.244,672.81Z" transform="translate(-62.267 -91)"/><rect class="aa" width="8.045" height="4.64" transform="translate(317.613 577.17)"/><rect class="ab" width="8.045" height="1.55" transform="translate(317.613 577.17)"/><rect class="ab" width="37.506" height="4.64" transform="translate(354.75 577.17)"/><path class="l" d="M456.685,665.991H379.88V646.17h37.137a25.226,25.226,0,0,0,12.154,9.55,21,21,0,0,0,3.6.973c10.514,1.856,18.253,1.541,21.965,6.19a13.565,13.565,0,0,1,1.946,3.108Z" transform="translate(-62.267 -88.821)"/><path class="ac" d="M456.685,665.991H379.88V646.17H400.6c.162,1.234.324,2.514.5,3.757.9,6.135,21.478,16.046,25.812,8.622a12.028,12.028,0,0,1,2.252-2.829,20.985,20.985,0,0,0,3.6.973c10.514,1.856,18.253,1.541,21.965,6.19a13.565,13.565,0,0,1,1.946,3.108Z" transform="translate(-62.267 -88.821)"/><path class="ad" d="M460.116,665.993h-2.162a20.812,20.812,0,0,0-8.73-5.334c-10.163-3.478-18.8-.7-31.109-11.145q-2.095-1.784-3.6-3.324h5.946a25.226,25.226,0,0,0,12.154,9.55,20.983,20.983,0,0,0,3.6.973c10.514,1.856,18.253,1.541,21.965,6.19a13.568,13.568,0,0,1,1.937,3.09Z" transform="translate(-65.698 -88.823)"/><path class="ae" d="M386.006,665.405l.09.586H379.88V646.17H400.6c.162,1.234.324,2.514.5,3.757l-4,.595a13.073,13.073,0,0,0-11.1,14.884Z" transform="translate(-62.267 -88.821)"/><path class="h" d="M406.757,646.19v3.433a8.866,8.866,0,0,1-1.469,4.91,9.009,9.009,0,0,1-16.478-4.91v-3.406Z" transform="translate(-63.152 -88.823)"/><path class="aa" d="M405.288,654.5a8.955,8.955,0,0,1-14.992,0,8.775,8.775,0,0,1-1.487-4.919V646.18h12.676c.162,1.234.324,2.514.5,3.757C402.207,651.351,403.441,652.955,405.288,654.5Z" transform="translate(-63.152 -88.822)"/><path class="ab" d="M401.993,649.946l-4,.577a12.946,12.946,0,0,0-7.676,3.982,8.775,8.775,0,0,1-1.487-4.919V646.18h12.676C401.65,647.423,401.813,648.721,401.993,649.946Z" transform="translate(-63.154 -88.822)"/><path class="af" d="M394.975,632.919H357.37S327.4,600.413,308.322,587.7A75.482,75.482,0,0,1,285.8,564.069s-34.425,32.515-69.877,39.1c-72.418,13.469-57.228-37.281-57.228-37.281l78.814-34.614,39.353-17.253a30.785,30.785,0,0,1,27.235,3.216,30.387,30.387,0,0,1,5.451,4.55c.55.55,1.063,1.135,1.559,1.739Z" transform="translate(-40.225 -75.551)"/><path class="ag" d="M312.927,517.237c-6.135,3.955-15.9,9.136-30.2,13.866-13.172,4.361-26.253,2.937-36.407.207l39.353-17.289A30.785,30.785,0,0,1,312.927,517.237Z" transform="translate(-49.037 -75.551)"/><path class="z" d="M443.495,672.81H366.14v-4.64h76.805a8.343,8.343,0,0,1,.532,1.55,5.405,5.405,0,0,1,.018,3.09Z" transform="translate(-60.906 -91)"/><rect class="ab" width="8.045" height="4.64" transform="translate(305.234 577.17)"/><rect class="ab" width="37.506" height="4.64" transform="translate(342.371 577.17)"/><path class="l" d="M442.945,665.991H366.14V646.17h37.137a25.226,25.226,0,0,0,12.154,9.55,20.993,20.993,0,0,0,3.6.973c10.514,1.856,18.253,1.541,21.965,6.19a13.564,13.564,0,0,1,1.946,3.108Z" transform="translate(-60.906 -88.821)"/><path class="ac" d="M442.945,665.991H366.14V646.17h20.722c.162,1.234.324,2.514.5,3.757.9,6.135,21.478,16.046,25.812,8.622a12.029,12.029,0,0,1,2.252-2.829,21,21,0,0,0,3.6.973c10.514,1.856,18.253,1.541,21.965,6.189a13.564,13.564,0,0,1,1.946,3.108Z" transform="translate(-60.906 -88.821)"/><path class="ad" d="M446.378,665.993h-2.153a20.813,20.813,0,0,0-8.73-5.334c-10.163-3.478-18.8-.7-31.1-11.145q-2.108-1.784-3.6-3.324h5.946a25.226,25.226,0,0,0,12.154,9.55,20.984,20.984,0,0,0,3.6.973c10.514,1.856,18.253,1.541,21.965,6.19a13.568,13.568,0,0,1,1.919,3.09Z" transform="translate(-64.338 -88.823)"/><path class="ae" d="M372.266,665.405l.09.586H366.14V646.17h20.722c.162,1.234.324,2.514.5,3.757l-4.018.586a13.073,13.073,0,0,0-11.082,14.893Z" transform="translate(-60.906 -88.821)"/><path class="h" d="M393.019,646.19v3.433a9.009,9.009,0,0,1-18.019,0v-3.406Z" transform="translate(-61.784 -88.823)"/><path class="aa" d="M391.548,654.5a8.955,8.955,0,0,1-14.992,0,8.847,8.847,0,0,1-1.487-4.919V646.18h12.676c.162,1.234.324,2.514.5,3.757C388.467,651.351,389.7,652.955,391.548,654.5Z" transform="translate(-61.791 -88.822)"/><path class="ah" d="M381.235,633.864H343.63s-29.965-32.506-49.047-45.218a75.481,75.481,0,0,1-22.523-23.632s-34.4,32.551-69.877,39.137c-72.418,13.469-57.228-37.281-57.228-37.281L265.9,523.562a30.578,30.578,0,0,1,16.758-1.126,3.316,3.316,0,0,1,.775.171,30.758,30.758,0,0,1,16.7,10.46Z" transform="translate(-38.864 -76.496)"/><path class="af" d="M363.658,633.864H343.63s-29.965-32.506-49.047-45.218a75.482,75.482,0,0,1-22.523-23.632s-34.4,32.551-69.877,39.137c-72.418,13.469-57.228-37.281-57.228-37.281l78.571-28.136,42.344-15.172a30.633,30.633,0,0,1,17.532-.955c-10.865,8.838-30.425,16.127-45.164,20.722a38.8,38.8,0,0,0-25.515,25.83s12.532-2.7,25.758-6.559,27.145-9.009,29.938-13.865c5.568-9.739,11.6-1.4,17.92,7.883C291.573,564.32,344.954,615.863,363.658,633.864Z" transform="translate(-38.864 -76.496)"/><path class="ag" d="M272.555,550.627l-.5,16.289s-34.4,32.515-69.877,39.1c-72.418,13.469-57.228-37.281-57.228-37.281L223.525,540.6c-3.6,14.136-33.335,19.56-42.759,26.317-11.091,7.937,3.315,12.055,16.577,12.757,23.316,1.243,21.118,5.307,45.831,0S272.555,550.627,272.555,550.627Z" transform="translate(-38.864 -78.363)"/><path class="ai" d="M257.069,419.449a21.344,21.344,0,0,1-4.5,4.982,21.779,21.779,0,0,1-2.874,2s-15.163,3.406-41.777,13.622c-25.226,9.676-62.94-2.874-67.868-18.172a10.407,10.407,0,0,1-.523-2.568c-.6-7.982,3.27-13.514,8.316-17.118a38.588,38.588,0,0,1,16.136-6.307c8.045-1.162,5.874-21.118,16.7-20.659,9.063.378,11.406-1.919,13.622-6.126h0a70.334,70.334,0,0,1,8.343,3.685c10.955,5.6,5.261-.315,5.261-.315l-4.865-3.3c-1.865-1.261-4.045-2.757-6.036-4.144l-.9-.6c.1-4.649-7.208-8.108-3.388-21.19,4.126-14.118,26.686-23.767,42.2-16.992v.045l.721.315.207.1c.478.234.9.487,1.387.748,15.253,8.847,22.4,21,18.731,38.84-.054.261-.1.514-.162.766-.405,1.874-.793,3.6-1.126,5.3-.694,3.406-1.216,6.424-1.532,9.19-1.054,9.081.045,15.469,4.5,24.2a12.955,12.955,0,0,1-.577,13.7Z" transform="translate(-38.452 -56.91)"/><path class="ai" d="M269.438,425.768c-.487-5.676-1.667-12-4.09-21.487a30.865,30.865,0,0,1,.2-16.46c-1.054,9.081.045,15.469,4.5,24.2a12.956,12.956,0,0,1-.613,13.748Z" transform="translate(-50.821 -63.229)"/><path class="ai" d="M195.129,374c-.216.5-3.6,8.64-10.064,8.847-6.649.225-11.289,12.442-14.415,17.938-2.775,4.91-12.46,5.189-22.01,6.307a38.587,38.587,0,0,1,16.136-6.307c8.045-1.162,5.874-21.118,16.7-20.659C190.57,380.541,192.912,378.243,195.129,374Z" transform="translate(-39.361 -61.86)"/><path class="ai" d="M240.641,326.241a3.033,3.033,0,0,1,.288.171c-8.712-3.081-28.29,2.09-35.848,11.2-6.045,7.28-3.946,20.722-2.424,27.371l-.9-.6c.1-4.649-7.208-8.108-3.388-21.19,4.126-14.118,26.686-23.767,42.2-16.992Z" transform="translate(-44.177 -56.905)"/><path class="aj" d="M257.7,367.62s2.081-8.352-3.018-18.568-13-15.316-21.127-15.784,4.18,4.874,7.433,8.108-10.217-6.036-19.5-1.162-12.28,16.145-12.874,23.74,2.892,10.045,6.144,13.46,23.542,3.388,25.226,3.171S257.7,367.62,257.7,367.62Z" transform="translate(-45.295 -57.822)"/><path class="ak" d="M258.264,369.363s1.405-5.262-4.1-14.235-3.333-.811-2.7,1.6-2.234-7.352-15.316-5.712S215.9,361.795,214.4,371.525s11.712,9.054,11.712,9.054Z" transform="translate(-45.863 -59.565)"/><path class="aj" d="M256.016,370.89c-.054.261-.1.514-.162.766-.243,1.171-.5,2.279-.73,3.361-.135.658-.27,1.306-.4,1.937-1.2,1.649-2.351,3.171-3.234,4.216-3.126,3.685-3.063,19.271,1.5,34.362a20.173,20.173,0,0,1-.46,13.514,21.776,21.776,0,0,1-2.874,2s-4.316.964-12.379,3.415h0c-2.451.739-5.262,1.631-8.406,2.658-5.865,1.946-12.892,4.424-20.992,7.532A54.777,54.777,0,0,1,190.365,448c-18.965.676-39.155-6.622-47.236-16.217a16.154,16.154,0,0,1-3.108-5.343c3.721-10.4,14.1-16.091,21.136-17.415,9.91-1.865,18.325-.82,18.262-8.6S183.445,385.5,191.8,385.81s10.208-.306,10.811-8.5c.117-1.532.234-2.7.4-3.6.667-3.892,1.982-2.126,6.352,1.91,2.577,2.387,11.3,1.117,20.127-.685,9.523-1.928,19.163-4.451,21.406-3.649a7.3,7.3,0,0,0,5.126-.387Z" transform="translate(-38.507 -61.552)"/><path class="ak" d="M220.609,422.768c-1.55,1.234-21.352,23.515-25.983,25.064-.757.252-2.144.667-3.919,1.189-18.965.676-39.155-6.622-47.236-16.217,2.333-4.5,5.406-8.964,9.054-11.469,9.289-6.307,23.848,2.946,28.785-6.811s2.162-15.316,11.136-17.785,14.82-16.01,14.82-16.01H217S222.158,421.516,220.609,422.768Z" transform="translate(-38.849 -62.527)"/><path class="ak" d="M264.444,370.89c-.054.261-.1.514-.162.766-.243,1.171-.5,2.279-.73,3.361a9.984,9.984,0,0,1-3.6,2.054c-5.234,1.7-10.181,9.009-7.4,23.424s-2.478,24.406-6.811,33.974h0c-2.451.739-5.262,1.631-8.406,2.658-5.036-2.261-10.424-8.649-11.712-13.82-2.171-8.667,3.09-42.723,3.09-42.723s3.982-2.523,9.235-5.622c9.523-1.928,19.163-4.451,21.406-3.649a7.3,7.3,0,0,0,5.09-.423Z" transform="translate(-46.935 -61.552)"/><path class="al" d="M208.593,377.181c-2.18-1.108-4.045-1.973-5.64-2.649-1.009-.414-1.91-.766-2.7-1.036.423-.82.847-1.712,1.315-2.658a4.586,4.586,0,0,0,.514-2.018l.9.6c4.964,3.451,10.9,7.442,10.9,7.442S219.548,382.785,208.593,377.181Z" transform="translate(-44.473 -61.347)"/><path class="am" d="M208.89,377.247l-.631-.315c-1.9-.964-3.6-1.721-5.009-2.333.847-4.018,0-5.108,0-5.108L208,372.76c3.361,2.3,6.153,4.171,6.153,4.171S219.845,382.851,208.89,377.247Z" transform="translate(-44.77 -61.413)"/><path class="an" d="M209.412,377.607l-.631-.315a11.856,11.856,0,0,0-.261-4.171c3.36,2.3,6.153,4.171,6.153,4.171S220.367,383.211,209.412,377.607Z" transform="translate(-45.292 -61.773)"/><path class="l" d="M271.439,514.315c-3.261,1.595-6.307,2.252-8.108,1.288-5.829-3.171-24.938-32.028-26.8-50.137s9.748-44.146,9.748-44.146,7.748.279,12.451,21.875c.27,1.225.532,2.523.766,3.91.351,1.856.658,3.856.946,6,3.415,25.686,13.874,34.416,20.109,40.542.1.1.2.2.3.279a27.119,27.119,0,0,1,2.874,3.234l.261.369C287.206,502.342,278.827,510.711,271.439,514.315Z" transform="translate(-48.047 -66.547)"/><path class="ac" d="M271.439,514.315c-3.261,1.595-6.307,2.252-8.108,1.288-5.64-3.072-23.713-30.181-26.56-48.335-.1-.613-.18-1.216-.243-1.8-1.856-18.109,9.748-44.146,9.748-44.146s10.343,25.226,8.226,47.38,6.307,13.658,12.01,10.811c5.054-2.532-1.955,2.775-5.1,8.108a12.347,12.347,0,0,0-.973,2C258.286,495.449,260.2,502.234,271.439,514.315Z" transform="translate(-48.047 -66.547)"/><path class="ae" d="M271.488,518.789c-3.261,1.595-6.307,2.252-8.108,1.288-5.64-3.072-23.713-30.182-26.56-48.336,7.208-2.7,14.487-5.261,14.487-5.261s-1.423,14.9.64,23.424c1.342,5.613,5.532,4.036,9.514,2.171a12.348,12.348,0,0,0-.973,2C258.335,499.923,260.244,506.707,271.488,518.789Z" transform="translate(-48.096 -71.021)"/><path class="l" d="M250.63,516.649l-48.939,17.74-1.108.405-56.264,20.388s-11.6-21.361-5.162-54.318a506.338,506.338,0,0,1,14.271-56q.541-1.685,1.108-3.3c4.5-13.3,9.181-23.109,13.01-24.722,8.811-3.712,27.776-13.073,27.776-13.073l20.5,3.09a50.456,50.456,0,0,1,6.18,1.8c.432.144.9.306,1.324.477a36.135,36.135,0,0,1,6.829,3.379c4.063,2.613,7.28,6.262,6.856,11.172-1.09,12.37,2.946,15.938,6.811,27.686,2.541,7.748-.955,16.694-3.811,25.623-.5,1.586-.991,3.171-1.414,4.739a41.615,41.615,0,0,0-1.586,8.955,19.706,19.706,0,0,0,.468,5.135C239.918,506.874,250.63,516.649,250.63,516.649Z" transform="translate(-38.229 -64.809)"/><path class="ac" d="M240.008,476.954c-.5,1.586-.991,3.171-1.414,4.739-4.559,4.748-15.172,11.613-26.479,13.9-12.514,2.55-12.793,23.821-11.532,39.191l-56.264,20.4s-11.6-21.361-5.162-54.318,19.559-80.31,28.389-84.022,27.776-13.073,27.776-13.073l20.5,3.09a50.456,50.456,0,0,1,6.18,1.8c.432.144.9.306,1.324.477a36.135,36.135,0,0,1,6.829,3.379c-.46,4.964-2.7,13.343-12.325,16.676-14.091,4.865-5.081,19.289-1.451,31.11s10.622,19.037,21.28,16.821a5.613,5.613,0,0,1,2.351-.171Z" transform="translate(-38.229 -64.809)"/><path class="ae" d="M189.969,487.858c-16.712.324-20.154,32.506-19.208,49.552a16.983,16.983,0,0,1-2.586,9.163l-23.857,8.64s-11.6-21.361-5.162-54.318,19.559-80.31,28.389-84.022S195.321,403.8,195.321,403.8l9.271,1.369a4.135,4.135,0,0,1,.333,1.694c-.369,2.1-6.946,5.523-6.946,5.523s-3.333,2.766-10.451,5.55-1.342,19.9-5.928,40.587,14.893,22.379,24.028,19.208S206.682,487.534,189.969,487.858Z" transform="translate(-38.229 -64.812)"/><path class="ae" d="M246.789,498.209c1.207,10.622-4.216-16.613-.261-25.9s6.523-14.541,2.135-26.92-1-23.515-6.243-28.01-13.01-6.775-13.01-6.775l1.721-1.441c6.5,2.27,15.721,6.955,15.01,15.028-1.09,12.37,2.946,15.938,6.811,27.686s-6.189,26.316-6.811,39.317a19.7,19.7,0,0,0,.468,5.135C246.654,496.921,246.708,497.533,246.789,498.209Z" transform="translate(-47.362 -65.343)"/><path class="ao" d="M232.871,400.273l-.045.189-3.234,13.37-.432,1.8a13.019,13.019,0,0,1-4.5,4.5c-2.7,1.6-6.658,2.315-11.757-.793a22.848,22.848,0,0,1-3.433-2.523,23.587,23.587,0,0,1-7.784-15.2s13.514-15.1,14.217-19.343S232.871,400.273,232.871,400.273Z" transform="translate(-44.615 -62.627)"/><path class="ap" d="M235.352,402.52l-3.234,13.37-.432,1.8a13.019,13.019,0,0,1-4.5,4.5,119.153,119.153,0,0,0,3.784-12.217s2.7-7.262,3.135-7.379a8.663,8.663,0,0,1,1.252-.081Z" transform="translate(-47.141 -64.685)"/><path class="aq" d="M232.874,400.269l-2.433,10.082c-2.7-.072-6-.09-9.4-5.252l-3.9-5.865a3.937,3.937,0,0,0-6.568.054,94.316,94.316,0,0,0-6.244,10.91,22.523,22.523,0,0,1-2.622-8.613s13.514-15.1,14.217-19.343S232.874,400.269,232.874,400.269Z" transform="translate(-44.618 -62.623)"/><path class="l" d="M174.741,438.751a70.093,70.093,0,0,1-1.8,9.676,2.89,2.89,0,0,1-.171.694c-.559,2.306-1.216,4.8-1.955,7.433-.469,1.676-.982,3.415-1.514,5.2-2.631,8.91-5.856,18.785-8.82,27.587-1.667,4.892-3.234,9.46-4.595,13.334-.306.9-.595,1.694-.9,2.487-1.3,3.7-2.324,6.559-2.91,8.2l-.55,1.523-.432,3.793-.18,1.514v.27l-3.072,26.929-18.559,4.622s-14.415-6.027-13-25.992,31.11-95.311,35.749-100.905S165.5,418.3,165.5,418.3a14.415,14.415,0,0,1,5.532,4.595,17.434,17.434,0,0,1,1.3,2,19.415,19.415,0,0,1,2.018,5.514A28.154,28.154,0,0,1,174.741,438.751Z" transform="translate(-36.146 -66.248)"/><path class="ac" d="M172.288,424.878c-3.649-.9-9.433-.694-14.415,7.207-8.045,12.685-11.838,44.227-18.613,61.264s8.316-1.252,21.208-4.027c-1.55,4.568-3.027,8.838-4.325,12.541-.4,1.153-.775,2.252-1.153,3.279-.378.225-.766.432-1.144.631a27.026,27.026,0,0,1-8.658,2.82c-14.208,2.009-1.883,1.46,6.892,4.748l-.55,1.523-.649,5.577-.468,4.09-2.6,22.839-18.559,4.622s-14.415-6.027-13-25.992c.441-6.433,3.838-18.631,8.388-32.38,1.712-5.189,3.6-10.586,5.55-15.992a.134.134,0,0,1,0-.054c8.9-24.7,19.226-49.363,21.8-52.453,4.64-5.577,13.469-6.811,13.469-6.811a14.415,14.415,0,0,1,5.532,4.595A17.441,17.441,0,0,1,172.288,424.878Z" transform="translate(-36.143 -66.249)"/><path class="ae" d="M156.136,510.094c-.4,1.153-.775,2.252-1.153,3.279-.378.225-.766.432-1.144.631-8.883,1.351-20.614,3.946-24.127,8.478-5.883,7.577,7.676,12.046,20.722,10.28l-2.6,22.839-18.559,4.622s-14.415-6.027-13-25.992c.441-6.433,3.838-18.631,8.388-32.38a30.794,30.794,0,0,0-.5,7.937c.9,10.676,12.073,4.874,25.686,1.433A39.849,39.849,0,0,1,156.136,510.094Z" transform="translate(-36.145 -74.524)"/><path class="ao" d="M234.077,533.813l-83.634,30.3q-.82-4.334-1.748-9.793a23.091,23.091,0,0,1,.369-9.478c.126-.5.261-.991.405-1.478a33.848,33.848,0,0,1,6.307-11.208,50.279,50.279,0,0,1,4.081-4.4c9.19,1.6,15.433,5.523,35.209-.36a127.216,127.216,0,0,0,16.217-5.892h0c9.37-4.234,12.892-7.811,14.019-9.226,2.541.631,7.208,1.721,9.118,5.153.27.487,2.91,6.108,4.108,7.991,0,0-2.784,3.081-5.1,2.649s-3.406-.46-5.775-.9C225.788,526.8,231.311,530.281,234.077,533.813Z" transform="translate(-39.334 -75.558)"/><path class="ap" d="M212.048,522.52c-.514.36-16.361,11.334-33.047,12.55a74.09,74.09,0,0,1-22.451-1.9,50.26,50.26,0,0,1,4.081-4.4c9.19,1.6,15.433,5.523,35.209-.36a127.2,127.2,0,0,0,16.208-5.892Z" transform="translate(-40.144 -76.572)"/><path class="aq" d="M237.84,537.215l-8.108,2.946c-.9-2.478-1.874-5.406-2.442-7.685.559-.982,1.847-.721,3.315-.252C234.038,535.981,236.633,536.954,237.84,537.215Z" transform="translate(-47.152 -77.492)"/><path class="aq" d="M159.578,564.648l-9.136,3.315q-.82-4.334-1.748-9.793a22.6,22.6,0,0,1-.1-7C150.307,556.215,153.559,562.261,159.578,564.648Z" transform="translate(-39.334 -79.41)"/><path class="aq" d="M236.285,527.849a4.5,4.5,0,0,1,3.91-3.6c3.487-.55-1.8-.487-1.955-3.766s-3.117.613-2.324,2.153S236.285,527.849,236.285,527.849Z" transform="translate(-47.993 -76.243)"/><path class="ao" d="M266.529,521.4l-4.685,1.622s-8.2-10.811-10.622-12.064c-1.09-.595-.9-1.649-.423-2.649a3.1,3.1,0,0,1,.441-.622,2.757,2.757,0,0,1,3.46-.369c1.892,1.207,4.5,3.045,5.5,4.442s3.514,5.27,5.027,7.622Z" transform="translate(-49.443 -75.022)"/><path class="ar" d="M266.529,521.492l-4.685,1.622s-8.2-10.811-10.622-12.064c-1.09-.595-.9-1.649-.423-2.649a3.1,3.1,0,0,1,.441-.622c3.306.559,5.559,4.442,8.19,9.3,2.829,5.262,5.406,2.91,5.406,2.91l.414-.513Z" transform="translate(-49.443 -75.112)"/><path class="ao" d="M261.322,526.879l-5.108,1.847c-.9-4.622-8.108-16.217-11.064-20.821l.955-.315,1-.315a4.766,4.766,0,0,1,5.748,2.433l6.262,12.712Z" transform="translate(-48.921 -75.039)"/><path class="ar" d="M261.322,526.939l-5.108,1.847c-.514-2.55-2.955-7.208-5.514-11.712h0c-2.081-3.6-4.252-7.054-5.55-9.108l.955-.315a15.406,15.406,0,0,1,6.55,8.109c2.622,7.271,3.027,7.307,5.3,6.577a1.577,1.577,0,0,1,1.162.1Z" transform="translate(-48.921 -75.099)"/><path class="aq" d="M250.7,517.074c-2.081-3.6-4.252-7.054-5.55-9.108l.955-.315a16.035,16.035,0,0,1,1.946,1.405A21.407,21.407,0,0,1,250.7,517.074Z" transform="translate(-48.921 -75.099)"/><path class="ao" d="M255.082,528.82h0l-5.108,1.856c-1.162-3.478-4.874-8.108-7.658-13.235-1.874-3.424-6.045-4.973-8.586-5.6a4.188,4.188,0,0,0,.459-.658l5.946-1.928,3.883-1.261c2.009,3.153,6.045,9.613,8.676,14.866h0a28.132,28.132,0,0,1,2.388,5.964Z" transform="translate(-47.79 -75.133)"/><path class="ar" d="M255.084,528.961h0l-5.108,1.856c-1.162-3.478-4.874-8.108-7.658-13.235h0c-1.883-3.424-6.036-4.955-8.568-5.586a4.2,4.2,0,0,0,.459-.658l3-.973,2.946-.955a9.65,9.65,0,0,1,3.883,4.406c2.406,5.261,4.73,10.37,4.73,10.37s3.09,1.063,3.946-1.162a28.125,28.125,0,0,1,2.37,5.937Z" transform="translate(-47.792 -75.273)"/><path class="aq" d="M242.3,517.677c-1.883-3.424-6.036-4.955-8.568-5.586a4.193,4.193,0,0,0,.459-.658l3-.973a15.649,15.649,0,0,1,5.108,7.217Z" transform="translate(-47.79 -75.377)"/><path class="aq" d="M250.192,532.554l-7.442,2.7c-2.766-3.532-8.289-7.009-6.451-6.649,2.369.441,3.442.469,5.775.9s5.1-2.649,5.1-2.649a29.089,29.089,0,0,1,3.018,5.694Z" transform="translate(-48.008 -77.002)"/><path class="ab" d="M136,536.521a10.813,10.813,0,0,0,1.964,1.342c3.865,2,10.415-4.5,16.938-8.928a39.228,39.228,0,0,0-7.577.1A22.271,22.271,0,0,0,134.52,535,13.074,13.074,0,0,0,136,536.521Z" transform="translate(-37.962 -77.194)"/><path class="h" d="M157.14,529a15.452,15.452,0,0,1,1.847.2A8.991,8.991,0,0,0,157.14,529Z" transform="translate(-40.203 -77.214)"/><path class="aa" d="M159.21,529.17Z" transform="translate(-40.408 -77.231)"/><path class="aa" d="M156.461,529.118c-4.6,3.343-12.838,10.46-14.037,19.109-1.685,12.118-10.964,1.91-10.964,1.91a22.776,22.776,0,0,1,4.234-13.631,23.119,23.119,0,0,1,5.658-5.063,17.776,17.776,0,0,1,11.4-2.7,17.066,17.066,0,0,1,1.8.2,15.441,15.441,0,0,1,1.847.2Z" transform="translate(-37.659 -77.179)"/><path class="ab" d="M160.895,529.431c-.541-.1-1.1-.189-1.685-.261h0C159.787,529.242,160.345,529.332,160.895,529.431Z" transform="translate(-40.408 -77.231)"/><path class="ab" d="M157.26,529.431c-.55-.1-1.108-.189-1.685-.261-4.6,3.342-12.838,10.46-14.037,19.109-1.685,12.118-10.964,1.91-10.964,1.91a22.776,22.776,0,0,1,4.234-13.631,13.066,13.066,0,0,1-1.478-1.523c-7.856,7.208-10.811,18.172-10.811,18.172.081,13.568,20.352,14.415,20.352,14.415l5.018-1.8q-.82-4.334-1.748-9.793C144.188,544.558,151.278,535.125,157.26,529.431Z" transform="translate(-36.773 -77.231)"/><path class="as" d="M273.172,464.4a2.7,2.7,0,0,0-1.8,2.171l-7.91,55.858-2.55.9,7.91-55.858a2.7,2.7,0,0,1,1.8-2.171Z" transform="translate(-50.482 -70.815)"/><path class="at" d="M332.782,445.594a1.8,1.8,0,0,1,0,.387l-4.324,30.344-3.216,22.785-60.2,20.767-1.27.441.577-4.063,4.352-30.74,2.631-18.505.351-2.559a2.7,2.7,0,0,1,1.8-2.18l55.723-19.226a2.7,2.7,0,0,1,3.577,2.55Z" transform="translate(-50.765 -68.685)"/><path class="au" d="M333.611,445.593,272.14,467.008l.351-2.559a2.7,2.7,0,0,1,1.8-2.18l55.723-19.226a2.7,2.7,0,0,1,3.595,2.55Z" transform="translate(-51.595 -68.684)"/><g transform="translate(218.356 410.063)"><path class="av" d="M323.676,482.69l-2.7,18.992-50.209,17.325-1.054.36.478-3.388,3.6-25.632c6.253,2.919,15.6,5.946,25.947,4.7C308.288,494.042,316.865,488.456,323.676,482.69Z" transform="translate(-269.71 -482.69)"/></g><path class="aw" d="M259.7,524.32l-.577,4.063-17.649,6.09-23.244,8.009-1.189-3.451,20.127-6.937Z" transform="translate(-46.136 -76.75)"/><path class="ax" d="M261.913,524.32l-.577,4.063-17.649,6.09-4.307-2.333Z" transform="translate(-48.349 -76.75)"/><path class="ah" d="M306.357,483.721a5.847,5.847,0,0,1-3.388,4.415c-1.595.55-2.7-.532-2.414-2.415a5.865,5.865,0,0,1,3.388-4.415C305.528,480.793,306.609,481.919,306.357,483.721Z" transform="translate(-54.405 -72.477)"/><path class="ay" d="M264.327,522.066l61.372-20.5-.478,3.352L263.75,526.13Z" transform="translate(-50.763 -74.497)"/><path class="az" d="M861.32,657.97h-.126a4.586,4.586,0,0,1-4.036-3.009L815.975,534.172l-4.325-12.613c-.577-1.712.333-3.108,2.045-3.108h5.063a4.6,4.6,0,0,1,4.072,3.135l40.47,133.4a2.126,2.126,0,0,1-1.982,2.982Z" transform="translate(-105.021 -76.169)"/><path class="w" d="M861.319,657.97,820.777,532.847l-4.811,1.324-4.325-12.613c-.577-1.712.333-3.108,2.045-3.108h5.063a4.6,4.6,0,0,1,4.072,3.135l40.479,133.4a2.126,2.126,0,0,1-1.982,2.982Z" transform="translate(-105.02 -76.169)"/><path class="w" d="M811.033,521.518l-3.847,11.3-41.66,122.168a4.6,4.6,0,0,1-4.045,3.009A2.135,2.135,0,0,1,759.4,655l37.011-122.159,3.433-11.3a4.6,4.6,0,0,1,4.081-3.135h5.054A2.164,2.164,0,0,1,811.033,521.518Z" transform="translate(-99.844 -76.165)"/><path class="ba" d="M815.118,521.515l-3.847,11.3H800.46l3.433-11.3a4.6,4.6,0,0,1,4.081-3.135h5.054A2.2,2.2,0,0,1,815.118,521.515Z" transform="translate(-103.929 -76.162)"/><path class="az" d="M866.4,388.523v71.5a41.975,41.975,0,0,1-9.613,26.8h0a42.119,42.119,0,0,1-32.6,15.433H753.13V491.122h61.147a43.307,43.307,0,0,0,7.541-.676h0a41.874,41.874,0,0,0,14.947-5.811,43.24,43.24,0,0,0,5.144-3.82,42.119,42.119,0,0,0,14-24.74,42.985,42.985,0,0,0,.6-7.208V377.387a41.993,41.993,0,0,0-6.2-22.037,42.553,42.553,0,0,1,8.352,8.8,41.966,41.966,0,0,1,7.73,24.371Z" transform="translate(-99.241 -60.012)"/><path class="az" d="M866.4,456.23v13.784a42.243,42.243,0,0,1-42.2,42.236H753.13V501.115h61.147a43.3,43.3,0,0,0,7.541-.676h0a30.038,30.038,0,0,0,12.415-4.126,28.055,28.055,0,0,0,2.532-1.685,42.236,42.236,0,0,0,19.145-28.56C858.784,460.843,861.865,456.924,866.4,456.23Z" transform="translate(-99.241 -70.005)"/><path class="w" d="M856.486,376.392v71.5a42.243,42.243,0,0,1-42.2,42.236H753.13v-102.6A42.234,42.234,0,0,1,795.348,345.3h28.839a42.11,42.11,0,0,1,26.127,9.054A41.993,41.993,0,0,1,856.486,376.392Z" transform="translate(-99.241 -59.017)"/><path class="bb" d="M770.594,280.488l-18.559,3.4s-32.974-1.541-38.38-7.685a14.757,14.757,0,0,1-3.442-10.91h0a13.816,13.816,0,0,1,.5-2.847s-5.568.468-8.811-6.406c-2.82-5.991,6.991-19.884,21.821-23.587a30.334,30.334,0,0,1,6.964-.9c9.19-.144,17.253,1.631,23.947,5.928,6.847,4.37,12.271,11.352,16.082,21.623C778.261,279.218,770.594,280.488,770.594,280.488Z" transform="translate(-94.118 -47.748)"/><path class="bc" d="M771.555,281.138,753,284.534s-22.145-1.027-33.1-4.8a12.951,12.951,0,0,1-5.253-2.883,14.757,14.757,0,0,1-3.469-10.91h0c.234-1.27.423-2.261.5-2.847.55-3.856,1.712-10.973,14.631-10.045s.081-8.667,15.316-11.145,22.163,12.379,16.217,0a23.87,23.87,0,0,0-2.279-3.8,37.49,37.49,0,0,1,12.712,14.136,56.825,56.825,0,0,1,3.37,7.442C779.221,279.868,771.555,281.138,771.555,281.138Z" transform="translate(-95.079 -48.398)"/><path class="bd" d="M771.9,282.685l-18.559,3.4s-22.145-1.027-33.1-4.8c.27-3.991.405-7.793-.3-8.82-1.6-2.333-6.667,3.5-4.955-2.46s5.856-9.829,19.821-12.379c7.018-1.288,12.857,1.8,16.388,4.577-3.27-3.838-5.135-7.334,4.27-4.577,11.829,3.478,9.514,10.217,13.154,6.379,1.892-1.982,1.18-6.451.063-10.28a56.825,56.825,0,0,1,3.37,7.442C779.571,281.415,771.9,282.685,771.9,282.685Z" transform="translate(-95.428 -49.945)"/><path class="ar" d="M709.579,399.5a32.613,32.613,0,0,1-6.46,6.352c-2.91,2.333-6.514,4.955-9.667,7.108-4.757,3.27-8.667,5.694-8.667,5.694l-20.145-2.117,11.136-12.775,8.658-9.811,7.126-8.108S713.669,393.192,709.579,399.5Z" transform="translate(-90.475 -63.033)"/><path class="aq" d="M704.438,406.057a2.422,2.422,0,0,1-.09.64c-2.991,2.424-6.514,4.955-9.667,7.108-3.865-.784-8.4-1.91-11.046-3.342a24.2,24.2,0,0,1-6.595-5.811l8.658-9.811c4.874,1.928,12.911,5.009,13.514,5.171C700.032,400.246,704.276,405.525,704.438,406.057Z" transform="translate(-91.703 -63.924)"/><path class="al" d="M734.227,363.57s-.541,1.036-1.8,3.1c-1.045,1.676-2.568,4.027-4.658,7.027-.9,1.261-1.892,2.649-2.991,4.135-1.676,2.252-3.306,4.667-4.883,7s-3.216,4.721-4.721,6.64c-3.063,3.874-5.838,6.1-8.19,4.216a6.091,6.091,0,0,0-1.171-.694,51.436,51.436,0,0,0-6.442-2.027c-4.649-1.352-9.847-3.216-11.541-7.676h0a8.344,8.344,0,0,1-.559-2.856,15.893,15.893,0,0,1,1.315-6.541c.306-.811.7-1.676,1.144-2.586,1.252-2.5,2.7-5.126,4.261-7.784,1.451-2.451,3-4.928,4.595-7.406,2.523-3.919,5.2-7.82,7.784-11.469,1.631-2.306,3.243-4.5,4.757-6.577,1.333-1.8,2.595-3.478,3.748-5.009,1.658-2.18,3.09-4.036,4.234-5.5,1.73-2.189,2.757-3.469,2.757-3.469l6.442,19.5Z" transform="translate(-92.717 -57.115)"/><path class="am" d="M734.289,363.566s-.541,1.036-1.8,3.1c-1.045,1.676-2.568,4.027-4.658,7.027-.9,1.261-1.892,2.649-2.991,4.135-1.676,2.252-3.306,4.667-4.883,7s-3.216,4.721-4.721,6.64c-3.063,3.874-5.838,6.1-8.19,4.216a6.1,6.1,0,0,0-1.171-.694,51.455,51.455,0,0,0-6.442-2.027c-.847-.243-1.73-.523-2.595-.82-3.847-1.306-7.568-3.216-8.946-6.856,9.964-3.82,21.5-8.847,22.875-12.019,2.469-5.7-2.7-29.01,2.414-19.361s7.208,22.28,5.316,4.955c-.991-9.3-2.451-17.884-3.6-23.839l.225-.3c.369-.5.739-.964,1.072-1.414l2.937-3.784c1.73-2.189,2.757-3.469,2.757-3.469l2.144,6.253,4.37,13.244Z" transform="translate(-92.778 -57.111)"/><g class="be" transform="translate(594.535 268.967)"><path class="h" d="M735.933,366.667c-1.045,1.676-2.568,4.027-4.658,7.027l-8.685-44.146c1.73-2.189,2.757-3.469,2.757-3.469l6.442,19.5Z" transform="translate(-690.751 -326.08)"/><path class="h" d="M722,386.365c-1.631,2.415-3.216,4.721-4.721,6.64l-8.829-44.858c1.631-2.306,3.243-4.5,4.757-6.577Z" transform="translate(-689.35 -327.614)"/><path class="h" d="M706.557,398.512a51.445,51.445,0,0,0-6.442-2.027l-5.406-27.479c1.451-2.451,3-4.928,4.595-7.406Z" transform="translate(-687.989 -329.599)"/><path class="h" d="M687.809,391.446a8.343,8.343,0,0,1-.559-2.856Z" transform="translate(-687.25 -332.272)"/></g><path class="ai" d="M710.891,406.012c-3.126,8.108-11.018,1.964-19.37,0s-12.974-2.892-13.6-10.018a5.873,5.873,0,0,1,0-1.126c.451-4.216,5.289-8.415,8.865-10.965a8.757,8.757,0,0,1,8.108-1.063,44.715,44.715,0,0,1,15.253,9.262,27.6,27.6,0,0,1,3.6,4.207S714.027,397.9,710.891,406.012Z" transform="translate(-91.788 -62.681)"/><path class="aj" d="M710.891,407.091c-3.126,8.108-11.018,1.964-19.37,0-6.415-1.514-10.622-2.406-12.514-5.955a10.362,10.362,0,0,1-1.09-4.063,5.873,5.873,0,0,1,0-1.126,29.728,29.728,0,0,1,4.829,2.171c6.154,3.442,13.568,2.82,21.208,2.063,4.874-.478,6.027-4.288,6.226-7a26.2,26.2,0,0,1,2.153,2.315,22.963,22.963,0,0,1,1.46,1.892S714.027,398.982,710.891,407.091Z" transform="translate(-91.788 -63.76)"/><path class="ak" d="M711.014,407.345c-3.126,8.108-11.018,1.964-19.37,0-6.415-1.514-10.622-2.406-12.514-5.955a18.434,18.434,0,0,0,7.307,1.2c7.631-.405,16.848,6.352,20.136,2.514a54.32,54.32,0,0,0,5.892-9.352,22.941,22.941,0,0,1,1.46,1.892S714.15,399.237,711.014,407.345Z" transform="translate(-91.91 -64.014)"/><path class="al" d="M839.268,428.167H748.147s-1.171-4.144-3-10.325c-1-3.37-2.189-7.352-3.514-11.586v-.135c-3.757-12.073-8.433-26.226-12.208-34.587a28.881,28.881,0,0,1-1.252-3.162c-.072-.216-.144-.441-.207-.658a67.57,67.57,0,0,1-2.856-14.721v-.045a147.315,147.315,0,0,1,.442-27.8h.126l9.577-2.379,2.7-.667,1.063-.117,2.09-.261,9.829-1.162,5.91-.712,3.982-.478,5.829-.694,5.91-.712,9.811-1.171,2.045-.252,4.352,2.045,11.073,5.216,6.658,3.117,1.225.577,30.92,98.68Z" transform="translate(-96.42 -56.168)"/><path class="an" d="M814.891,338.572c-3.964.622-8.108.36-11.361-1.928-8.667-6.117-10.289-14.163-14.073-10.9S777,352.492,777,352.492L762.06,333.473l.568-12.037c.622-.712,1.252-1.414,1.883-2.117l5.829-.694,5.91-.712,9.811-1.171,2.045-.252,4.352,2.045,11.073,5.216,6.658,3.117,1.225.577Z" transform="translate(-100.125 -56.163)"/><path class="an" d="M840.212,427.864c-.234.721-.469,1.414-.7,2.045-.829,2.261-1.676,3.91-2.478,4.46-3.37,2.288-24.488,8.847-27.929,9.469s-50.75,6.189-54.156,3.712-14.235-9.91-14.046-10.667a39.874,39.874,0,0,1,0-8.595,15.381,15.381,0,0,1,8.289-.126c12.5,2.613,37.939-6.307,48.912-10.811s8.208-24.325,1.568-39.686-19.064-24.92-13.658-21.713,14.262,14.712,9.811,0,4.054-21.821,4.054-21.821l16.848,18.7Z" transform="translate(-98.003 -57.91)"/><g class="be" transform="translate(628.235 260.318)"><path class="h" d="M834.668,428.959h-6.045L808.09,324.54l6.658,3.117Z" transform="translate(-732.92 -317.278)"/><path class="h" d="M816.656,428.161h-6.045L788.7,316.732l2.045-.252,4.352,2.045Z" transform="translate(-730.999 -316.48)"/><path class="h" d="M798.828,428.317h-6.036L771.25,318.772l5.91-.712Z" transform="translate(-729.27 -316.637)"/><path class="h" d="M781.008,428.524h-6.036L753.8,320.862l5.91-.712Z" transform="translate(-727.542 -316.844)"/><path class="h" d="M763.2,428.73H757.16L736.42,323.275l2.676-.667,3.153-.378Z" transform="translate(-725.82 -317.05)"/><path class="h" d="M741.6,407.094c-3.757-12.073-8.433-26.226-12.208-34.587a28.861,28.861,0,0,1-1.252-3.162l-3.027-15.406v-.045a147.315,147.315,0,0,1,.442-27.8h.126Z" transform="translate(-724.655 -317.432)"/></g><path class="ai" d="M765.878,347.629a2.649,2.649,0,0,1-2.045,2.586,3.163,3.163,0,0,1-.595.063,2.649,2.649,0,1,1,2.64-2.649Z" transform="translate(-99.979 -58.985)"/><path class="aj" d="M765.972,347.63a2.649,2.649,0,0,1-2.045,2.586,5.118,5.118,0,0,0-.595-2.586,4.6,4.6,0,0,0-1.8-1.91,2.631,2.631,0,0,1,4.451,1.91Z" transform="translate(-100.073 -58.986)"/><path class="ai" d="M770,361.37a2.648,2.648,0,0,1-2.108,2.595,2.044,2.044,0,0,1-.532.054A2.644,2.644,0,1,1,770,361.37Z" transform="translate(-100.39 -60.347)"/><path class="aj" d="M770.108,361.37A2.649,2.649,0,0,1,768,363.964a6.2,6.2,0,0,0-.532-2.595,7.451,7.451,0,0,0-1.658-2.045,2.631,2.631,0,0,1,4.3,2.045Z" transform="translate(-100.497 -60.347)"/><path class="ai" d="M759.814,333.713l-5.6,7.036-2.532,3.153-1.865,2.351L740.786,325.5l-1.4-3.207h.009l6.18-3.279Z" transform="translate(-97.88 -56.413)"/><path class="aj" d="M759.814,333.718l-2.757,3.46-2.847,3.6-10.1-14.748a2.315,2.315,0,0,0-3.324-.5l-1.4-3.207h.063l6.126-3.261Z" transform="translate(-97.88 -56.418)"/><path class="ak" d="M759.826,333.713l-2.757,3.46c-3.937-5.054-9.5-12.172-10.811-13.838-2.018-2.469-6.19-1.243-6.748-1.063l6.126-3.261Z" transform="translate(-97.892 -56.413)"/><path class="ai" d="M788.106,316.414l-6.838,17.7-2.36,6.126-2.189,5.694L764.141,335.18l-1.55-1.333-.532-.451,16.082-17.577.009-.009Z" transform="translate(-100.125 -56.096)"/><path class="aj" d="M788.136,316.414,784.9,324.8l-3.6,9.316-6.09-3.8a4.748,4.748,0,0,0-5.514.351l-5.523,4.5-2.081-1.8h0l16.055-17.559h0Z" transform="translate(-100.128 -56.096)"/><path class="ak" d="M788.143,316.415l-3.234,8.388c-3.739-1.874-7.559-3.469-9.009-2.829-3.009,1.315-13.109,10.811-13.739,11.406l16.055-17.559h0Z" transform="translate(-100.135 -56.097)"/><path class="ao" d="M776.463,314.007l-.009.009-6.577,7.2-9.5,10.379-7.451-6.46-5.73-4.964-.613-1.865-1.559-4.892,1.36-1.072,18.6-14.73Z" transform="translate(-98.437 -54.293)"/><path class="ap" d="M752.921,326.753l-5.73-4.964-.613-1.865-1.559-4.892,1.36-1.072Z" transform="translate(-98.437 -55.912)"/><path class="aq" d="M776.461,314.007h0l-2.009,2.2a40.969,40.969,0,0,0-4.811-6.09,6.892,6.892,0,0,0-9.388-.613c-1.36,1.108-2.982,2.487-4.829,4.135a12.415,12.415,0,0,1-9.307,3.171l-1.117-3.4,19.956-15.8Z" transform="translate(-98.435 -54.293)"/><path class="al" d="M860.54,418.932c-1.306,4.5-3.415,7.559-5.7,8.226a9.153,9.153,0,0,1-2.7.378,13.513,13.513,0,0,1-6.379-1.739,20.407,20.407,0,0,1-6.036-5.072,29.093,29.093,0,0,1-4.252-7.009,38.213,38.213,0,0,1-2.09-6.09,41.626,41.626,0,0,0-2.64-7.036c-.649-1.451-1.406-2.964-2.216-4.5-1.424-2.7-3.027-5.631-4.748-8.6-.82-1.405-1.649-2.847-2.487-4.279-7.343-12.613-15.415-26.019-16.685-35.407h0a17.562,17.562,0,0,1-.18-2.414,26.609,26.609,0,0,1,.577-5.7c1.1-4.991,3.6-7.739,5.91-9.235a11.1,11.1,0,0,1,4.658-1.8,7.411,7.411,0,0,1,1.063.126c3.649.685,7.676,4.072,11.838,9.072a114.55,114.55,0,0,1,8.325,11.613c5.279,8.244,10.523,17.839,15.316,26.614.9,1.7,1.8,3.388,2.7,5.027C862.657,395.5,863.08,410.1,860.54,418.932Z" transform="translate(-104.321 -57.367)"/><path class="am" d="M860.532,418.928c-1.306,4.5-3.415,7.559-5.7,8.226a9.152,9.152,0,0,1-2.7.378,13.513,13.513,0,0,1-6.379-1.739,20.406,20.406,0,0,1-6.036-5.072,38.489,38.489,0,0,0-2.478-6.2,8.4,8.4,0,0,0-1.8-.811c-.144-.333-.3-.667-.414-1.009a37.728,37.728,0,0,1-1.676-5.081,41.631,41.631,0,0,0-2.64-7.036c-1.8-3.991-4.27-8.46-6.964-13.127a9.911,9.911,0,0,1,4.865-.9,10.564,10.564,0,0,1,1.063.09c-2.523-2.207-2.523-3.964,4.559-2.577,13.307,2.6,16.749,4.739,11.956-1.4a.784.784,0,0,1-.063-.09c-4.793-6.189-10.37-21.388-25.226-36.713-11.523-11.928-15.262-2.82-16.361,1.883a17.555,17.555,0,0,1-.18-2.415,22.09,22.09,0,0,1,1.8-9.406,12.883,12.883,0,0,1,4.685-5.532,11.1,11.1,0,0,1,4.658-1.8,7.407,7.407,0,0,1,1.063.126c3.649.685,7.676,4.072,11.838,9.072a114.561,114.561,0,0,1,8.325,11.613c5.279,8.244,10.523,17.839,15.316,26.614.9,1.7,1.8,3.388,2.7,5.027C862.649,395.495,863.072,410.1,860.532,418.928Z" transform="translate(-104.313 -57.363)"/><path class="an" d="M860.735,418.921c-1.306,4.5-3.415,7.559-5.7,8.226a9.154,9.154,0,0,1-2.7.378,13.514,13.514,0,0,1-6.379-1.739,20.407,20.407,0,0,1-6.036-5.072,38.492,38.492,0,0,0-2.478-6.2,8.4,8.4,0,0,0-1.8-.811c-.144-.333-.3-.667-.414-1.009.532-3.162,2.063-5.487,5.243-5.928,10.955-1.55,13.8-9.289,8.235-12.992s-5.577-3.721-15.154-5.406a10.163,10.163,0,0,1-4.739-1.847c-3.18-2.55-.847-6.406-.847-6.406s14.289,4.613,18.361,2.433a1.928,1.928,0,0,0,.973-2.433c-1.7-6.811-2.928-13-16.388-30.74-11.289-14.893-18.343-16.712-24.515-13.514a12.883,12.883,0,0,1,4.685-5.532,11.1,11.1,0,0,1,4.658-1.8,7.418,7.418,0,0,1,1.063.126c3.649.685,7.676,4.072,11.838,9.073a114.553,114.553,0,0,1,8.325,11.613c5.279,8.244,10.523,17.839,15.316,26.614.9,1.7,1.8,3.388,2.7,5.027C862.852,395.488,863.276,410.092,860.735,418.921Z" transform="translate(-104.517 -57.356)"/><path class="ai" d="M849.519,435.115c-3.9.09-8.964-.135-14.6-.532-.234-6.135-1.063-14.694-3.649-21.929a23.19,23.19,0,0,0-5.685-9.154,17.9,17.9,0,0,0-3.73-2.748,28.514,28.514,0,0,1,15.541-1.243h0a33.546,33.546,0,0,1,4.108,1.081,14.342,14.342,0,0,1,4.072,2.117c7.379,5.406,9.82,17.361,10.622,24.848a6.82,6.82,0,0,1-6.685,7.559Z" transform="translate(-106.049 -64.332)"/><path class="aj" d="M849.514,435.306c-3.9.09-8.964-.135-14.6-.532-.234-6.135-1.063-14.694-3.649-21.929a25.783,25.783,0,0,0-3.045-6.009,18.857,18.857,0,0,0-6.415-5.892s9.325-.766,13.334,3.721c2.045,2.27,6.514.514,10.4-1.8a18.442,18.442,0,0,1,4.234,4.5c4.144,6.054,5.757,14.541,6.388,20.361a6.82,6.82,0,0,1-6.649,7.577Z" transform="translate(-106.044 -64.524)"/><path class="ak" d="M850.219,435.96c-3.9.09-8.964-.135-14.6-.532-.234-6.135-1.063-14.694-3.649-21.929a25.781,25.781,0,0,0-3.045-6.009,3.828,3.828,0,0,1,1.333.9c5,4.91,11.451,6.5,16.785,3.712a7.046,7.046,0,0,0,3.433-4.072c4.144,6.054,5.757,14.541,6.388,20.361a6.82,6.82,0,0,1-6.649,7.568Z" transform="translate(-106.749 -65.177)"/><path class="ao" d="M695.016,413.037c-3.406.9-6.5,13.676-16.4,13.514s-20.424,2.658-25.686,0-2.568-16.6,22.262-15.793a11.729,11.729,0,0,1,1.252.045c1.063.054,6.811,2.478,12.379-2.586,4.775-4.343,7.054-4.5,10.136-3.288.523.2,1.054.441,1.622.7C704.611,407.46,698.422,412.136,695.016,413.037Z" transform="translate(-89.093 -64.859)"/><path class="ar" d="M696.111,412.72a8.814,8.814,0,0,1-1.09.378c-3.406.9-6.5,13.676-16.4,13.514s-20.424,2.658-25.686,0c-1.658-.847-2.514-2.838-2.1-5.153.9-4.9,7.478-11.19,24.325-10.64a9.342,9.342,0,0,1,2.036,1.541c3.442,3.6,11.523,4.162,10.6,2.352s-.9-4.982,1-2.568,2.478-1.883,4.333-3.865c.991-1.063,3.5-3.072,5.8-3.288.523.2,1.054.441,1.622.7C704.219,407.341,699.552,411.306,696.111,412.72Z" transform="translate(-89.098 -64.93)"/><path class="aq" d="M696.111,413.561a8.809,8.809,0,0,1-1.09.378c-3.406.9-6.5,13.676-16.4,13.514s-20.424,2.658-25.686,0c-1.658-.847-2.514-2.838-2.1-5.153,4.685-2.18,17.307-5.874,21.01-4.081,4.243,2.054,5.532,6.73,10.487,7.045s7.424-6.667,10.442-10.064C694.219,413.534,695.354,413.327,696.111,413.561Z" transform="translate(-89.098 -65.771)"/><path class="ao" d="M654.425,430.541h-.09c-.9.2-7.712-2.216-11.208-7.117-2.18-3.054-2.36-6.307-.9-7.361.946-.694,2.595-.387,4.811,1.64a83.707,83.707,0,0,1,7.784,8.172,3.307,3.307,0,0,1-.4,4.667Z" transform="translate(-88.161 -65.993)"/><path class="ar" d="M651.8,428.935l2.243-1.955a1.928,1.928,0,0,1,1.423,1.955C655.584,430.674,653.413,431.449,651.8,428.935Z" transform="translate(-89.203 -67.108)"/><path class="ao" d="M662.693,426.412a2.162,2.162,0,0,1-.216.2c-.586.477-8.775-2.288-12.928-8.108-2.559-3.6-2.7-7.451-.9-8.514,1.09-.676,2.919-.261,5.406,1.973a92.536,92.536,0,0,1,8.9,9.352,3.775,3.775,0,0,1-.261,5.1Z" transform="translate(-88.771 -65.395)"/><path class="ar" d="M659.79,425.5l2.7-3.135s1.532,1.586,1.423,3.135S660.718,426.676,659.79,425.5Z" transform="translate(-89.995 -66.65)"/><path class="ao" d="M672.121,422.953c-.1.09-.2.189-.315.279-.64.532-9.793-2.568-14.415-9.063-2.478-3.478-2.928-7.208-1.721-8.874,1.054-1.487,3.36-1.451,6.676,1.568a103.843,103.843,0,0,1,9.91,10.451A4.225,4.225,0,0,1,672.121,422.953Z" transform="translate(-89.523 -64.865)"/><path class="ar" d="M669.15,422.658l2.55-3.108a3.875,3.875,0,0,1,1.315,2.072c.387,1.423-.541,2.234-1.928,1.9a4.217,4.217,0,0,1-1.937-.865Z" transform="translate(-90.922 -66.372)"/><path class="ao" d="M681.433,421.831a1.352,1.352,0,0,1-.793,0c-2.451-.441-9.676-3.523-13.64-9.064-2.324-3.261-2.874-6.73-1.919-8.55s3.333-1.982,6.865,1.252a103.943,103.943,0,0,1,9.91,10.442A4.208,4.208,0,0,1,681.433,421.831Z" transform="translate(-90.475 -64.725)"/><path class="ar" d="M678.18,421.042l2.775-3.442a13.7,13.7,0,0,1,1.8,3.442C682.964,422.168,679.189,422.168,678.18,421.042Z" transform="translate(-91.816 -66.179)"/><path class="bf" d="M792.126,665.994H711.42a22.653,22.653,0,0,1,3.225-5.559c4.333-5.577,13.622-4.955,22.136-4.955a15.167,15.167,0,0,0,2.7-.261c6.523-1.108,15.316-5.532,19.469-7.748,1.45-.766,2.315-1.27,2.315-1.27l11.956,6.2A10.874,10.874,0,0,0,786,650.371l4.108-4.171Z" transform="translate(-95.109 -88.824)"/><path class="g" d="M792.126,665.989H711.42a22.654,22.654,0,0,1,3.225-5.559,12.072,12.072,0,0,1,7.009-4.1c4.5-1.09,9.91-.9,15.127-.9a15.185,15.185,0,0,0,2.7-.261c7.325,3.8,5,6.451,17.821,6.451,14.55,0,17.641-2.784,10.523-8.045-3.342-2.46-6.469-4.595-8.874-6.153,1.45-.766,2.315-1.27,2.315-1.27l11.956,6.2A10.874,10.874,0,0,0,786,650.321l4.108-4.171Z" transform="translate(-95.109 -88.819)"/><path class="bf" d="M723.375,667.108H711.42a22.655,22.655,0,0,1,3.225-5.559,12.073,12.073,0,0,1,7.009-4.1Z" transform="translate(-95.109 -89.938)"/><path class="bg" d="M792.428,672.81H710.19a13.89,13.89,0,0,1,1.108-4.64H792Z" transform="translate(-94.987 -91)"/><path class="bh" d="M799.489,672.81H781.47l.73-4.64h16.83Z" transform="translate(-102.048 -91)"/><path class="bh" d="M711.3,668.17h48.741l-.442,4.64H710.19a13.89,13.89,0,0,1,1.108-4.64Z" transform="translate(-94.987 -91)"/><path class="bg" d="M723.983,672.81H710.19a13.89,13.89,0,0,1,1.108-4.64h11.955Z" transform="translate(-94.987 -91)"/><path class="ao" d="M795.639,646.19l-4.108,4.171a10.866,10.866,0,0,1-12.776,2.027l-4.8-2.487L766.8,646.19Z" transform="translate(-100.595 -88.823)"/><path class="ar" d="M795.639,646.19l-4.108,4.171a10.929,10.929,0,0,1-7.5,3.252h0a3.712,3.712,0,0,0-3.721-3.712h-6.361L766.8,646.19Z" transform="translate(-100.595 -88.823)"/><path class="aj" d="M837.3,490.128c-13.766,17.947-82.661,7.433-82.661,7.433s11.343,13.316,13.938,51.984c2.027,30.38,20.3,76.13,20.3,76.13h-28.83l-20.01-43.416-13.208-28.668-25.893-56.246a25.578,25.578,0,0,1,8.64-31.875l.739-.5c7.739-4.865,27.3-21.686,35.245-24.668h38.984L837.3,439.09S851.068,472.182,837.3,490.128Z" transform="translate(-93.832 -68.308)"/><path class="ak" d="M838.34,490.136c-13.766,17.947-82.661,7.433-82.661,7.433s4.234,4.973,8.109,17.65l-1.73,1.685s1.387,38.533,6.514,58.5c3.721,14.478,13.28,38.308,18.244,50.282H775.1L749.994,567.5l-8.919,14.766L727.867,553.6l3.5-9.6s-28.1-53.849-21.3-51.354,3.721-14.235,5.207-21.623c.568-2.838-1.676-4.5-4.667-5.478l.739-.5c7.739-4.865,27.3-21.686,35.245-24.668h38.984l52.759-1.216S852.107,472.19,838.34,490.136Z" transform="translate(-94.87 -68.315)"/><path class="ai" d="M835.905,490.128c-13.766,17.947-82.661,7.433-82.661,7.433s4.766,26.6-12.055,51.984-27.929,76.13-27.929,76.13H684.43L713.4,491.687A48.283,48.283,0,0,1,720.08,474.4h0a48.191,48.191,0,0,1,23.7-19.262l39.362-14.829,52.759-1.216S849.672,472.182,835.905,490.128Z" transform="translate(-92.435 -68.308)"/><path class="aj" d="M837.61,490.128c-13.766,17.947-82.661,7.433-82.661,7.433s4.766,26.6-12.055,51.984-27.929,76.13-27.929,76.13H701.64c7.667-22.262,18.685-57.8,21.623-90.364,4.64-51.354,24.758-35.894,18.857-50.129-3.243-7.838-12.613-10.226-20.343-10.811a48.227,48.227,0,0,1,23.7-19.262l39.371-14.8,52.759-1.216S851.377,472.182,837.61,490.128Z" transform="translate(-94.14 -68.308)"/><path class="ak" d="M830.788,488.381c-12.784,16.667-76.778,6.892-76.778,6.892a72.036,72.036,0,0,1-11.2,48.29c-15.622,23.569-25.983,70.7-25.983,70.7H713.44c4.874-19.3,14-53.831,21.208-71.85,10.334-25.866,12.938-35.065,9.82-41.957s3.6-11.5,3.6-11.5H775.1a.532.532,0,0,0,.523-.532h0a25.343,25.343,0,0,0-25.334-25.343H732.675a44.462,44.462,0,0,1,12.55-7.208l36.56-13.748,49-1.126S843.572,471.7,830.788,488.381Z" transform="translate(-95.309 -68.497)"/><path class="bf" d="M709.652,666H629a23.034,23.034,0,0,1,3.234-5.568c4.334-5.577,13.613-4.955,22.127-4.955h1.162c5.406-.46,13.091-3.9,18.154-6.442,3.108-1.568,5.216-2.793,5.216-2.793l2.306,1.2,9.658,5a10.883,10.883,0,0,0,12.775-2.027l4.108-4.171Z" transform="translate(-86.945 -88.828)"/><path class="g" d="M709.652,666H629a23.034,23.034,0,0,1,3.234-5.568c4.334-5.577,13.613-4.955,22.127-4.955h1.162c5.46,2.7,4.388,5.108,11.712,5.613,9.009.622,25.064-3.712,18.568-4.946-4.072-.784-9.009-4.46-12.091-7.108,1.469-.757,2.7-1.405,3.6-1.9s1.595-.9,1.595-.9l11.965,6.2a10.883,10.883,0,0,0,12.775-2.027l4.108-4.171Z" transform="translate(-86.945 -88.827)"/><path class="bf" d="M712.258,665.711h-5.027l-1.063-8.045s-3.018.757-11.316-2.009a22.469,22.469,0,0,1-8.892-5.307l1.3-.73,9.712,5.036a8.838,8.838,0,0,0,10.379-1.649l3.342-3.388Z" transform="translate(-92.587 -89.162)"/><path class="bg" d="M709.962,672.81h-82.2a13.991,13.991,0,0,1,1.1-4.64h80.67Z" transform="translate(-86.822 -91)"/><path class="bh" d="M710.863,672.81H636.58v-4.64H710.4Z" transform="translate(-87.695 -91)"/><path class="bg" d="M715.157,672.81H709.58v-4.64h5.081Z" transform="translate(-94.927 -91)"/><path class="ao" d="M713.208,646.19l-4.108,4.171a10.91,10.91,0,0,1-12.775,2.027l-4.8-2.487-7.163-3.712Z" transform="translate(-92.428 -88.823)"/><path class="ar" d="M713.212,646.19l-4.108,4.171a10.865,10.865,0,0,1-6.568,3.18h0a3.6,3.6,0,0,0-3.6-3.6h-7.37l-7.162-3.712Z" transform="translate(-92.432 -88.823)"/><path class="ao" d="M772.91,285.575c0,9.91-10.325,11.055-10.325,11.055a30.02,30.02,0,0,1-19.7,13.406h0a29.99,29.99,0,0,1-5.64.541,13.631,13.631,0,0,1-13.631-13.631v-31.4s.622-.243,1.676-.577c4.28-1.324,15.857-3.9,22.983,4.288,8.874,10.226,13.406,13.938,13.406,13.938s9.757-11.136,11.136.459a15.26,15.26,0,0,1,.1,1.919Z" transform="translate(-96.317 -50.916)"/><path class="ap" d="M742.881,310.2h0a30,30,0,0,1-5.64.541A13.631,13.631,0,0,1,723.61,297.1v-31.4s.622-.243,1.676-.577c-.477,8.6-1.469,33.209,2.27,38.8C732,310.591,742.422,310.222,742.881,310.2Z" transform="translate(-96.317 -51.075)"/><path class="aq" d="M759.1,280.871a7.621,7.621,0,0,1-3.252-.694c-4.883-2.216-11.018-9.865-16.6-13.469-3.946-2.55-11.568-.8-15.667.423v-1.586s15.784-6.487,24.659,3.712C753.275,275.042,756.9,278.745,759.1,280.871Z" transform="translate(-96.314 -50.915)"/><path class="ar" d="M774.657,290.063c-.081,2.406-7.28,5.189-7.28,5.189v-.369c-.09-1.441-.144-6.739,3.045-9.46,1.73-1.487,2.8-1.09,3.415,0a9.993,9.993,0,0,1,.82,4.64Z" transform="translate(-100.649 -52.989)"/><path class="aq" d="M772.248,291.522c.162,1.18-.9,2.189-2.892,1.64-.9-.252-1.55.55-2.009,1.721-.09-1.441-.144-6.739,3.045-9.46,1.73-1.487,2.8-1.09,3.415,0a4.5,4.5,0,0,0-2.82,2.622C769.23,291.649,772.086,290.351,772.248,291.522Z" transform="translate(-100.646 -52.989)"/><path class="ar" d="M738.676,296.745h-6.5l4.343-13.6,1.73,10.91Z" transform="translate(-97.165 -52.86)"/><path class="l" d="M744.3,306.59a7.747,7.747,0,0,1-2.91-.55.622.622,0,0,1,.532-1.117c.234.108,5.766,2.559,9.46-5.045a.622.622,0,1,1,1.117.541C750.018,305.527,746.667,306.59,744.3,306.59Z" transform="translate(-98.048 -54.479)"/><ellipse class="bc" cx="1.739" cy="3.559" rx="1.739" ry="3.559" transform="translate(644.844 226.866)"/><ellipse class="bc" cx="1.739" cy="3.559" rx="1.739" ry="3.559" transform="translate(631.231 226.866)"/><path class="bc" d="M751.71,271.708a.658.658,0,0,1-.4-.135c-6.559-5.406-11.325-.288-11.523-.063a.622.622,0,0,1-.9-.829c.054-.063,5.739-6.253,13.235-.063a.613.613,0,0,1,.081.9A.6.6,0,0,1,751.71,271.708Z" transform="translate(-97.82 -51.347)"/><path class="bc" d="M718.71,271.7a.6.6,0,0,1-.477-.225.612.612,0,0,1,.081-.9c7.5-6.189,13.181,0,13.235.063a.613.613,0,0,1,0,.9.622.622,0,0,1-.9,0c-.2-.225-4.964-5.406-11.523.063A.64.64,0,0,1,718.71,271.7Z" transform="translate(-95.768 -51.343)"/><path class="aq" d="M738.676,297.929h-6.5s2.514-.351,3.243-1.622a2.415,2.415,0,0,1,2.82-1.09Z" transform="translate(-97.165 -54.044)"/><path class="ap" d="M736.521,283.12l-2.7,13.622H732.16l4.361-13.6Z" transform="translate(-97.163 -52.857)"/><path class="ar" d="M756.23,433.125c-4.415.189-8.883-.5-10.811-2.514-2.982-3.018-14-1.487-21.749-1.865a19.629,19.629,0,0,1-4.829-.685A1.2,1.2,0,0,1,718.6,428l-.189-.063c-2.36-.829-3.379-3.279-3.7-6.108-.6-5.135,1.072-11.514,1.072-11.514l4.721-1.252,4.1-1.072,2.523-1.288,6.6-3.361L729.859,418.1s10.37,3.5,11.613,6.451,3.6-3.982,1.532-6.451l-2.126-2.451a6.6,6.6,0,0,1,5.027,4.694c1.09,4.045.622,9.739,4.955,10.226a9.911,9.911,0,0,1,5.37,2.559Z" transform="translate(-95.422 -64.766)"/><path class="aq" d="M733.91,430.036c-4.027-.315-5.577-4.649-7.036-1.982a5.883,5.883,0,0,1-3.018,2.315,19.627,19.627,0,0,1-4.829-.685l-2.126-3.09,4.5-6.874s10.523,4.126,13.622,6.144S737.928,430.342,733.91,430.036Z" transform="translate(-95.652 -66.389)"/><path class="ao" d="M719.165,418.728s-2.324.559-9.748,6.595a12.28,12.28,0,0,1-3.8,2.144c-5.964,1.991-11.055-2.144-11.055-2.144l1.8-.9c1.36-.694,3.379-1.7,5.406-2.766,1.8-.955,3.6-1.964,5.045-2.811,4.334-2.577,6.964-7.937,6.964-7.937l1.541-.405,2.162-.532,1-.261Z" transform="translate(-93.439 -65.397)"/><path class="aq" d="M720.38,418.723s-2.324.559-9.748,6.595a12.279,12.279,0,0,1-3.8,2.144,30.167,30.167,0,0,0,5.595-4.5c1.847-2.162,5.063-10.009,6.307-13.046l1-.261Z" transform="translate(-94.654 -65.391)"/><path class="ar" d="M703.738,426.19s-2.991,1.595-5.406.73a5.341,5.341,0,0,1-1.8-1.144c1.36-.694,3.379-1.7,5.406-2.766Z" transform="translate(-93.634 -66.715)"/><path class="ao" d="M726.956,408.461l-2.919,12.217s-2.018.955-4.793,6.09a5.838,5.838,0,0,1-1.207,1.568,7.5,7.5,0,0,1-5.514,1.721,13.336,13.336,0,0,1-2.316-.279c-.631-.135-1.027-.261-1.027-.261s1.207-1.658,3.072-4.5h0c.568-.847,1.2-1.8,1.874-2.865.5-.757,1.009-1.55,1.541-2.387a27.859,27.859,0,0,0,4.252-10.379l2.982-.775,1.117-.3,2.523-1.288.216.712Z" transform="translate(-94.887 -65.131)"/><path class="aq" d="M728.451,408.463l-2.919,12.217s-1.757-7.289-1.117-12.055l1.117-.3,2.523-1.288.216.712Z" transform="translate(-96.382 -65.133)"/><path class="ar" d="M716.133,427.321s-.306,2.018-3.243,4.5a2.6,2.6,0,0,1-.387.279,13.337,13.337,0,0,1-2.315-.279c-.631-.135-1.027-.261-1.027-.261s1.207-1.658,3.072-4.5h0Z" transform="translate(-94.885 -67.116)"/><path class="ao" d="M742.069,423.854s-.82.532-1.892,1.117c-1.856.991-4.5,2.135-5.081.964-.7-1.4-5.73-3.874-8.108-5l-1.3-.595V407.989l4.189-2.135,2.4-1.225,2.541-1.288a45.094,45.094,0,0,0-.667,8.856c.117,2.189.568,4.135,1.658,4.937l.1.072C739.114,419.314,742.069,423.854,742.069,423.854Z" transform="translate(-96.523 -64.766)"/><path class="aq" d="M734.687,412.2l-1.721,5.865s-1.478,0-1.054-3.883c.306-2.766.7-7.208.9-9.55l2.541-1.288A45.085,45.085,0,0,0,734.687,412.2Z" transform="translate(-97.131 -64.766)"/><path class="aq" d="M742.644,425.371s-.82.532-1.892,1.117c-.324-.477-1.162-1.162-3.234-2.108-4.5-2.027-6.027-4.766-6.027-4.766l4.856-.964.1.072C739.689,420.83,742.644,425.371,742.644,425.371Z" transform="translate(-97.097 -66.283)"/><path class="ao" d="M825.971,434.777c-15.658-1.135-35.758-3.6-47.75-4.451l-1.406-.1c-1.162-.081-2.234-.126-3.2-.153-2.973-.108-4.973,0-5.595.423-2,1.324-6.027,2.243-10.1,2.388a9.911,9.911,0,0,0-5.406-2.559c-4.334-.487-3.865-6.181-4.955-10.226a6.6,6.6,0,0,0-5.027-4.694l2.081,2.451c2.09,2.469-.3,9.388-1.532,6.451a1.505,1.505,0,0,0-.171-.306,6.593,6.593,0,0,0-2.072-1.874,25.559,25.559,0,0,0-3.054-1.694,61.8,61.8,0,0,0-6.307-2.577l3.865-14.757h.117l10.379.9,15.658,6.5,2.784-.09c1.3-.045,2.991-.108,4.955-.207,1.243-.063,2.586-.135,4.009-.234l1.865-.126c1.982-.135,4.072-.306,6.18-.523a106.637,106.637,0,0,0,15.938-2.532c5.748-1.55,10.541-4.126,15.622-5.874a17.9,17.9,0,0,1,3.784,2.775,22.272,22.272,0,0,1,5.3,8.027c.144.36.3.739.432,1.126C824.908,420.083,825.736,428.642,825.971,434.777Z" transform="translate(-97.096 -64.527)"/><path class="ar" d="M744.593,425.273a2.116,2.116,0,0,1-.631.757,6.594,6.594,0,0,0-2.072-1.874l1-1.315.784-1.451A3.09,3.09,0,0,1,744.593,425.273Z" transform="translate(-98.127 -66.554)"/><path class="aq" d="M743.216,416.17a6.226,6.226,0,0,0-3.946.541c-2.162,1.018-.811-2.009,1.378-2.009s-1.532-2.027-1.378-5.117,2.559,2.081,3.252,4.334Z" transform="translate(-97.759 -65.29)"/><path class="aq" d="M830.6,437.163c-15.658-1.135-35.758-3.6-47.75-4.451l-1.405-.1c-1.162-.081-2.234-.126-3.2-.153,0,0,31.073,0,42.921-1.9A11.181,11.181,0,0,0,829.378,425a98.232,98.232,0,0,1,1.225,12.163Z" transform="translate(-101.729 -66.912)"/><path class="aq" d="M773.263,429l4.352,3.883c-2.973-.108-4.973,0-5.595.423Z" transform="translate(-101.112 -67.308)"/><path class="h" d="M784.91,409.968c-2.108.216-4.2.387-6.18.523s-4.1.27-5.874.36c-1.964.1-3.658.162-4.955.207h0a3.876,3.876,0,0,1,.189-1.243,2.8,2.8,0,0,1,.9-1.423,5.883,5.883,0,0,1,4.072-1.243h6.8C782.342,407.121,784.414,407.635,784.91,409.968Z" transform="translate(-100.704 -65.142)"/><path class="aa" d="M784.908,409.971c-2.108.216-4.2.387-6.18.523s-4.1.27-5.874.36c-1.964.1-3.658.162-4.955.207h0a1.578,1.578,0,0,1,0-.414,2.7,2.7,0,0,1,.153-.829l9.766-.5v-.9H768.98a5.883,5.883,0,0,1,4.072-1.243h6.8a7.092,7.092,0,0,1,.766,0C782.764,407.25,784.458,407.917,784.908,409.971Z" transform="translate(-100.702 -65.145)"/><path class="ab" d="M784.908,409.973c-2.108.216-4.2.387-6.18.523s-4.1.27-5.874.36c-1.964.1-3.658.162-4.955.207h0a1.578,1.578,0,0,1,0-.414c3.1-.117,13.163-.595,12.946-2.252a6.646,6.646,0,0,0-.261-1.216C782.764,407.252,784.458,407.919,784.908,409.973Z" transform="translate(-100.702 -65.147)"/><path class="bi" d="M782.355,431.311c-1.7-.126-3.252-.216-4.6-.252.072-1.261.117-2.7.09-4.379-.126-7.874-2.64-12.874-4.442-15.46l3.451-.2,2.424-.162C783.536,417.536,783.139,426.158,782.355,431.311Z" transform="translate(-101.249 -65.511)"/><path class="g" d="M783.194,426.678a44.178,44.178,0,0,1-.46,4.631c-1.7-.126-3.252-.216-4.6-.252.072-1.261.117-2.7.09-4.379,0,0,.9,1.369,1.3,0a15.934,15.934,0,0,0,.135-4.874,38.414,38.414,0,0,0-2.424-10.811l2.424-.162C782.816,415.794,783.4,421.794,783.194,426.678Z" transform="translate(-101.628 -65.508)"/><path class="bj" d="M783.293,428.42a44.177,44.177,0,0,1-.46,4.631c-1.7-.126-3.252-.216-4.6-.252.072-1.261.117-2.7.09-4.379Z" transform="translate(-101.727 -67.251)"/><path class="bk" d="M575.559,421.747v15.631H563.18V409.53h.162a12.217,12.217,0,0,1,12.046,10.136,1.712,1.712,0,0,1,0,.225,11.469,11.469,0,0,1,.171,1.856Z" transform="translate(-80.425 -65.379)"/><path class="i" d="M575.77,422.122v15.631H565.31V413.428s4.685-1.405,7.847,5.766c1.541,3.478,2.2,2.7,2.469,1.054A11.455,11.455,0,0,1,575.77,422.122Z" transform="translate(-80.636 -65.754)"/><path class="bl" d="M576.345,422.862V438.1c-3.027-1.18-5.234-4.631-5.234-8.694s2.117-7.388,5.063-8.613a13.233,13.233,0,0,1,.171,2.072Z" transform="translate(-81.21 -66.495)"/><g transform="translate(489.882 354.295)"><path class="bm" d="M573.712,429.295c-.5,2.451,1.243,5,2.613,6.577V438.1c-3.027-1.18-5.234-4.631-5.234-8.694s2.117-7.388,5.063-8.613a13.236,13.236,0,0,1,.171,2.081V424.9a7.757,7.757,0,0,0-2.613,4.4Z" transform="translate(-571.09 -420.79)"/></g><path class="bn" d="M560.118,409.53v27.848H532.27A27.848,27.848,0,0,1,560.118,409.53Z" transform="translate(-77.363 -65.379)"/><path class="i" d="M560.118,417.246v20.893H532.27s4.5-14.6,13.929-18.433a31.533,31.533,0,0,1,13.919-2.46Z" transform="translate(-77.363 -66.14)"/><path class="bo" d="M727.271,439.522H595.13a8.379,8.379,0,0,1,8.352-8.352H718.91A8.379,8.379,0,0,1,727.271,439.522Z" transform="translate(-83.589 -67.523)"/><path class="bp" d="M723.307,439.777H595.13a8.271,8.271,0,0,1,2.586-6.027H717.451a5.937,5.937,0,0,1,5.856,6.027Z" transform="translate(-83.589 -67.779)"/><path class="bq" d="M713.832,388.654h-4.955a2.469,2.469,0,0,0,2.288-3.415l-13.514-33.046-17.442-42.461a2.46,2.46,0,0,0-2.288-1.532h4.955a2.46,2.46,0,0,1,2.288,1.532l19.469,47.489L716.12,385.24a2.478,2.478,0,0,1-2.288,3.415Z" transform="translate(-91.791 -55.342)"/><path class="br" d="M716,393.491h-4.955a2.469,2.469,0,0,0,2.288-3.415L699.82,357.03a23.627,23.627,0,0,0,3.271,2.7c1.225.811,2.487,1.577,3.748,2.288l11.487,28.019A2.478,2.478,0,0,1,716,393.491Z" transform="translate(-93.96 -60.179)"/><path class="bs" d="M695.283,388.655H574.115a2.469,2.469,0,0,1-2.288-1.532L552.4,339.752l-11.523-28.127a2.469,2.469,0,0,1,2.288-3.415H664.326a2.46,2.46,0,0,1,2.288,1.532l11.956,29.163,19,46.344a2.469,2.469,0,0,1-2.288,3.406Z" transform="translate(-78.197 -55.343)"/><g transform="translate(484.683 287.139)"><path class="bt" d="M687.6,388.837H583.9a2.108,2.108,0,0,1-1.955-1.306L565.32,346.989c13.226,6.244,31.866,12.37,53.309,11.956a133.629,133.629,0,0,0,54.678-12.694l16.262,39.641a2.117,2.117,0,0,1-1.964,2.946Z" transform="translate(-565.32 -346.25)"/></g><path class="bu" d="M648.749,391.968H617.143L609.99,377.58h31.6Z" transform="translate(-85.061 -62.214)"/><path class="bv" d="M644.026,386.86l-2.712,19.5-4.072,29.236H633.53l6.784-48.732Z" transform="translate(-87.393 -63.134)"/><path class="bw" d="M644.026,386.86l-2.712,19.5h-1.847l-3.937,29.236h-2l6.784-48.732Z" transform="translate(-87.393 -63.134)"/><path class="bx" d="M638.068,386.86l-3.7,26.6-3.081,22.136H610.86l6.5-27.281,5.1-21.451Z" transform="translate(-85.148 -63.134)"/><path class="az" d="M600.927,651.774h-.315a6.442,6.442,0,0,1-6.144-5.334l-26.7-176.305L565.61,455.9h10.712l2.153,14.235,26.668,176.314a4.5,4.5,0,0,1-4.216,5.325Z" transform="translate(-80.665 -69.973)"/><path class="az" d="M514.515,455.9l-28.83,190.549a6.442,6.442,0,0,1-6.144,5.334,4.918,4.918,0,0,1-1.432-.207,4.451,4.451,0,0,1-3.117-5.126L502.325,465.8l1.5-9.91Z" transform="translate(-71.68 -69.972)"/><path class="w" d="M514.868,455.9l-1.072,7.117L486.047,646.449a6.442,6.442,0,0,1-6.144,5.334,4.92,4.92,0,0,1-1.432-.207l29.9-185.774h-5.667l.423-2.784L504.2,455.9Z" transform="translate(-72.033 -69.973)"/><path class="ba" d="M506.911,455.9h10.667l-1.072,7.117H505.83Z" transform="translate(-74.743 -69.973)"/><path class="az" d="M917.639,651.684a5.41,5.41,0,0,1-1.027.1,6.424,6.424,0,0,1-6.136-5.334L883.763,470.135,881.61,455.9h10.712l2.162,14.235,26.659,176.314a4.451,4.451,0,0,1-3.5,5.234Z" transform="translate(-111.968 -69.973)"/><path class="az" d="M830.532,455.9,801.7,646.447a6.433,6.433,0,0,1-5.865,5.325h-.27a4.5,4.5,0,0,1-4.5-5.334L818.387,465.79l1.5-9.91Z" transform="translate(-102.991 -69.971)"/><path class="w" d="M831.065,455.9l-1.081,7.117L802.235,646.449a6.433,6.433,0,0,1-5.865,5.325L823.065,465.8h-4.126l.424-2.784,1.081-7.117Z" transform="translate(-103.524 -69.973)"/><path class="ba" d="M833.588,455.9l-1.081,7.117H821.84l1.081-7.117Z" transform="translate(-106.047 -69.973)"/><path class="w" d="M921.147,646.449,894.488,470.135,892.326,455.9H881.65l1.072,7.117,1.081,7.117h4.144l29.731,181.549A4.451,4.451,0,0,0,921.147,646.449Z" transform="translate(-111.972 -69.973)"/><path class="ba" d="M893.407,463.017H882.722L881.65,455.9h10.676Z" transform="translate(-111.972 -69.973)"/><path class="w" d="M600.927,651.774,572.881,470.135h-5.117l-1.072-7.117L565.61,455.9h10.712l2.153,14.235,26.668,176.314a4.5,4.5,0,0,1-4.216,5.325Z" transform="translate(-80.665 -69.973)"/><path class="ba" d="M577.406,463.017H566.721L565.64,455.9h10.685Z" transform="translate(-80.668 -69.973)"/><path class="by" d="M858.547,447.4h0a6.973,6.973,0,0,1-6.973,6.973H509a6.946,6.946,0,0,1-6.009-3.478,6.73,6.73,0,0,1-.9-3.478h0a6.964,6.964,0,0,1,6.955-6.955H851.574a6.964,6.964,0,0,1,6.973,6.937Z" transform="translate(-74.373 -68.443)"/><path class="ax" d="M819.717,440.44v13.929H509a6.946,6.946,0,0,1-6.009-3.478,6.73,6.73,0,0,1-.9-3.478H786.823a6.982,6.982,0,0,0,6.973-6.973Z" transform="translate(-74.373 -68.441)"/><path class="by" d="M813.563,452v3.478H509.1A6.946,6.946,0,0,1,503.09,452Z" transform="translate(-74.472 -69.586)"/><path class="by" d="M891.521,447.4h0a6.973,6.973,0,0,1-6.973,6.973H835a6.955,6.955,0,0,0,6.018-3.478,6.812,6.812,0,0,0,.9-3.478h0a6.955,6.955,0,0,0-6.955-6.955h49.552a6.964,6.964,0,0,1,7.009,6.937Z" transform="translate(-107.347 -68.443)"/><path class="ax" d="M891.525,448.18a6.729,6.729,0,0,1-.9,3.478,6.946,6.946,0,0,1-6.072,3.478H835a6.955,6.955,0,0,0,6.018-3.478,6.811,6.811,0,0,0,.9-3.478Z" transform="translate(-107.351 -69.208)"/><path class="by" d="M890.579,452a6.946,6.946,0,0,1-6.027,3.514H835a6.955,6.955,0,0,0,6.018-3.478Z" transform="translate(-107.351 -69.586)"/><path class="at" d="M867.867,412.62h-5.811a6.225,6.225,0,0,0-6.226,6.225v8.442a6.217,6.217,0,0,0,6.226,6.225h5.811a6.225,6.225,0,0,0,6.225-6.226v-8.442a6.225,6.225,0,0,0-6.226-6.226Zm-2.874,17.559h0a6.226,6.226,0,0,1-6.216-6.226v-1.8a6.225,6.225,0,0,1,6.216-6.217h0a6.225,6.225,0,0,1,6.216,6.216v1.8a5.671,5.671,0,0,1-.189,1.478A6.2,6.2,0,0,1,864.993,430.179Z" transform="translate(-109.414 -65.685)"/><g transform="translate(747.236 358.259)"><path class="bz" d="M874.182,425.19v3.342a6.226,6.226,0,0,1-6.226,6.225h-5.811a6.234,6.234,0,0,1-5.406-3.054,16.215,16.215,0,0,1,3.478-2.532A6.207,6.207,0,0,0,865,431.425h0a6.2,6.2,0,0,0,6.028-4.749,20.26,20.26,0,0,0,3.153-1.486Z" transform="translate(-856.74 -425.19)"/></g><g transform="translate(731.311 180.419)"><path class="ca" d="M905.739,228.556c-45.948,7.892-64.525,53.849-43.975,59.877s22.614,10.226,0,23.686-22.406,27.389-2.91,37.587-7.9,14.857-17.019,24.136c-8.865,9.009,6.307,17.83,7.118,18.307-.676-.532-10.757-8.919,9.91-20.163,12.244-6.649,32.488-12.055,31.091-26.127s-23.2-11.442-15.748-17.947,7.865-10.208,31.533-30.947S951.687,220.673,905.739,228.556Zm2.775,54.309c-17.172,16.217-10.667-.46-4.171-6.955s-7.91-.468-18.577-.468,11.154-22.289,33.434-19.956c-.009,0,6.5,11.136-10.685,27.38Z" transform="translate(-839.065 -227.796)"/></g><path class="cb" d="M863.569,420.458l-.6,1.568-3.9,10.19a8.036,8.036,0,0,1-7.514,5.162H839.622a8.046,8.046,0,0,1-7.514-5.162l-3.748-9.829-.739-1.928a8.045,8.045,0,0,1,7.5-10.928h20.92a8.045,8.045,0,0,1,7.532,10.928Z" transform="translate(-106.567 -65.379)"/><g transform="translate(724.046 357.647)"><path class="cc" d="M861.1,424.51l-3.4,8.865a6.973,6.973,0,0,1-6.532,4.5H840.811a7,7,0,0,1-6.541-4.505L831,424.825a31.1,31.1,0,0,0,15.7,4.694C852.3,429.456,857.353,427.051,861.1,424.51Z" transform="translate(-831 -424.51)"/></g><path class="cd" d="M865.986,420.458l-.6,1.568-3.9,10.19a8.036,8.036,0,0,1-7.514,5.162H851.49A8.037,8.037,0,0,0,859,432.216l3.9-10.19.6-1.568a8.045,8.045,0,0,0-7.514-10.928h2.478a8.045,8.045,0,0,1,7.514,10.928Z" transform="translate(-108.984 -65.379)"/><path class="ce" d="M853.362,422.147a.622.622,0,0,1-.622-.622V409.462a.622.622,0,0,1,.622-.622.613.613,0,0,1,.613.622v12.064a.613.613,0,0,1-.613.622Z" transform="translate(-109.108 -65.311)"/><rect class="cf" width="4.64" height="6.189" rx="1.22" transform="translate(741.929 356.214)"/><circle class="h" cx="1.667" cy="1.667" r="1.667" transform="translate(742.587 357.647)"/><path class="ai" d="M200.243,373.464c.9-1.613,1.9-3.315,1.8-4.676s6.82,4.658,6.82,4.658-.27,1.712-.306,2.451a11.718,11.718,0,0,0,0,1.252S199.361,375.086,200.243,373.464Z" transform="translate(-44.467 -61.324)"/><path class="aj" d="M209.05,373.32a15.75,15.75,0,0,1,.342,1.622,12.748,12.748,0,0,1,.072,1.8l.243-2.243.063-.6Z" transform="translate(-45.345 -61.792)"/><path class="ao" d="M257.789,370.015l-.784,3.6-3.054,14.235a18.244,18.244,0,0,1-22.109,13.893,1.842,1.842,0,0,1-.523-.126,2.693,2.693,0,0,0-.3-.09,17.117,17.117,0,0,1-4.667-2.162,16.544,16.544,0,0,1-1.5-1.117,17.235,17.235,0,0,1-4.5-5.73l-4.37-9.009s-6.5-.982-6.5-7.433c0-11.6,6.955-8.82,8.811-4.649,0,0,12.01-3.712,18.821-10.766.4-.423.793-.847,1.153-1.288,5.117-6.225,14.271,3.982,17.92,8.586.9,1.09,1.423,1.856,1.55,2.045a.063.063,0,0,0,.045.009Z" transform="translate(-45.389 -60.217)"/><path class="ap" d="M260.247,371.4l-.784,3.6-3.054,14.235A18.244,18.244,0,0,1,234.3,403.126c3.361.568,13.451-2.108,17.406-6.676,3.658-4.252,7.631-21.181,8.514-25.1a.063.063,0,0,0,.027.045Z" transform="translate(-47.846 -61.597)"/><path class="aq" d="M260.984,370.012l-.324,1.487a22.38,22.38,0,0,0-10-9.532,37.526,37.526,0,0,0-8.919-2.919C248.281,351.93,260.984,370.012,260.984,370.012Z" transform="translate(-48.583 -60.214)"/><path class="ar" d="M216.537,382.147a6.441,6.441,0,0,1-1.514-.9c-1.658-1.315-3.847-4.144-1.991-9.325,0,0,3.415-1.469,4.189,2.586A15.208,15.208,0,0,1,216.537,382.147Z" transform="translate(-45.669 -61.628)"/><path class="aq" d="M216.615,382.147a6.441,6.441,0,0,1-1.514-.9c.748-.658,1.054-1.622-.135-2.883-2.117-2.243-1.234-1.649,0-2.577s.162-1.856-1.856-3.865c0,0,3.415-1.469,4.189,2.586A15.208,15.208,0,0,1,216.615,382.147Z" transform="translate(-45.747 -61.628)"/><ellipse class="aj" cx="1.739" cy="3.559" rx="1.739" ry="3.559" transform="translate(202.112 311.96)"/><path class="aj" d="M240.048,375.979c0,1.973-.784,3.559-1.739,3.559s-1.739-1.586-1.739-3.559.775-3.559,1.739-3.559S240.048,374.015,240.048,375.979Z" transform="translate(-48.071 -61.703)"/><path class="cg" d="M263.987,367.575a.657.657,0,0,1-.4-.135c-6.577-5.406-11.325-.288-11.523-.072a.613.613,0,0,1-.9.054.622.622,0,0,1-.045-.9c.054-.063,5.748-6.253,13.235-.063a.613.613,0,0,1,.081.9.6.6,0,0,1-.451.216Z" transform="translate(-49.495 -60.84)"/><path class="cg" d="M227.3,366.155a.64.64,0,0,1-.477-.216.622.622,0,0,1,.09-.9c7.487-6.189,13.172,0,13.226.063a.613.613,0,0,1-.045.9.622.622,0,0,1-.9-.045c-.2-.225-4.964-5.352-11.523.063a.64.64,0,0,1-.369.135Z" transform="translate(-47.09 -60.7)"/><path class="ar" d="M247.319,377.75v11.037H241.13l.9-1.64h0Z" transform="translate(-48.523 -62.231)"/><path class="aq" d="M247.319,384v5.406H241.13l.9-1.64h0a5.823,5.823,0,0,0,3.234-.279C245.923,387.045,246.707,385.288,247.319,384Z" transform="translate(-48.523 -62.85)"/><path class="ap" d="M247.794,377.75v10.991H246.1Z" transform="translate(-49.015 -62.231)"/><path class="l" d="M246.639,396.719a17.31,17.31,0,0,1-6.253,3.4c-2.613.568-5.207-.3-5.937-5.406q-.135-.9-.189-2Z" transform="translate(-47.842 -63.713)"/><path class="ae" d="M246.639,396.719a17.31,17.31,0,0,1-6.253,3.4,9.833,9.833,0,0,0-5.937-5.406q-.135-.9-.189-2Z" transform="translate(-47.842 -63.713)"/></g></g></svg>