<svg xmlns="http://www.w3.org/2000/svg" width="661.291" height="661.788" viewBox="0 0 661.291 661.788"><defs><style>.a{fill:#2d72f1;opacity:0.04;}.b,.c{stroke:none;}.c{fill:#707070;}</style></defs><g class="a" transform="translate(661.291 294.945) rotate(129)"><path class="b" d="M 408.8523864746094 468.1729431152344 L 63.18627548217773 468.1729431152344 C 54.73815536499023 468.1729431152344 46.54156875610352 466.1134643554688 38.82421493530273 462.0516357421875 C 35.11174392700195 460.0977783203125 31.53050994873047 457.6788330078125 28.17997932434082 454.8621215820312 C 24.85898017883301 452.0702514648438 21.73556900024414 448.8634033203125 18.89656829833984 445.3307189941406 C 16.05598068237305 441.7959899902344 13.47674465179443 437.9060668945312 11.23062705993652 433.7689514160156 C 8.962038993835449 429.5904235839844 7.013391494750977 425.1229858398438 5.438862323760986 420.4908142089844 C 2.161685943603516 410.849365234375 0.4999799430370331 400.6065368652344 0.4999799430370331 390.0469360351562 L 0.4999799430370331 78.62606048583984 C 0.4999799430370331 68.06647491455078 2.161685943603516 57.82364654541016 5.438862323760986 48.18217849731445 C 7.013391494750977 43.54999923706055 8.962038993835449 39.08258819580078 11.23062705993652 34.90406036376953 C 13.47674465179443 30.76694297790527 16.05598068237305 26.87700080871582 18.89656829833984 23.34223556518555 C 21.73556900024414 19.80953025817871 24.85898017883301 16.60270690917969 28.17997932434082 13.81082439422607 C 31.53050994873047 10.99411869049072 35.11174392700195 8.575177192687988 38.82421493530273 6.621294975280762 C 46.54156875610352 2.559471607208252 54.73815536499023 0.5000009536743164 63.18627548217773 0.5000009536743164 L 408.8523864746094 0.5000009536743164 C 417.3005065917969 0.5000009536743164 425.4971008300781 2.559471607208252 433.2144470214844 6.621294975280762 C 436.9269104003906 8.575177192687988 440.5081481933594 10.99411869049072 443.8586730957031 13.81082439422607 C 447.1796875 16.60270690917969 450.3031005859375 19.80953025817871 453.14208984375 23.34223556518555 C 455.9826965332031 26.87700080871582 458.5619201660156 30.76694297790527 460.8080444335938 34.90406036376953 C 463.0766296386719 39.08258819580078 465.0252685546875 43.54999923706055 466.5997924804688 48.18217849731445 C 469.8769836425781 57.82364654541016 471.5386962890625 68.06647491455078 471.5386962890625 78.62606048583984 L 471.5386962890625 390.0469360351562 C 471.5386962890625 400.6065368652344 469.8769836425781 410.849365234375 466.5997924804688 420.4908142089844 C 465.0252685546875 425.1229858398438 463.0766296386719 429.5904235839844 460.8080444335938 433.7689514160156 C 458.5619201660156 437.9060668945312 455.9826965332031 441.7959899902344 453.14208984375 445.3307189941406 C 450.3031005859375 448.8634033203125 447.1796875 452.0702514648438 443.8586730957031 454.8621215820312 C 440.5081481933594 457.6788330078125 436.9269104003906 460.0977783203125 433.2144470214844 462.0516357421875 C 425.4971008300781 466.1134643554688 417.3005065917969 468.1729431152344 408.8523864746094 468.1729431152344 Z"/><path class="c" d="M 63.186279296875 1 C 54.82015991210938 1 46.70193481445312 3.040130615234375 39.05703735351562 7.063751220703125 C 35.37628173828125 9.001007080078125 31.82492065429688 11.39981079101562 28.50167846679688 14.19354248046875 C 25.20550537109375 16.96453857421875 22.10498046875 20.14801025390625 19.28634643554688 23.65545654296875 C 16.46438598632812 27.1668701171875 13.90191650390625 31.03170776367188 11.6700439453125 35.142578125 C 9.4149169921875 39.29629516601562 7.477691650390625 43.73757934570312 5.912261962890625 48.34304809570312 C 2.652679443359375 57.93264770507812 0.999969482421875 68.12130737304688 0.999969482421875 78.62606811523438 L 0.999969482421875 390.046875 C 0.999969482421875 400.5516357421875 2.652679443359375 410.7402954101562 5.912261962890625 420.3298950195312 C 7.477691650390625 424.9353637695312 9.4149169921875 429.3765869140625 11.6700439453125 433.5303039550781 C 13.90191650390625 437.6411743164062 16.46438598632812 441.5060729980469 19.28634643554688 445.0174560546875 C 22.10498046875 448.5249328613281 25.20550537109375 451.7083435058594 28.50167846679688 454.4794006347656 C 31.82492065429688 457.2731323242188 35.37628173828125 459.6719360351562 39.05703735351562 461.6091918945312 C 46.70193481445312 465.6328125 54.82015991210938 467.6729431152344 63.186279296875 467.6729431152344 L 408.8523864746094 467.6729431152344 C 417.218505859375 467.6729431152344 425.3367309570312 465.6328125 432.9816284179688 461.6091918945312 C 436.6623840332031 459.6719360351562 440.2137451171875 457.2731323242188 443.5369873046875 454.4794006347656 C 446.8331604003906 451.7083435058594 449.9336853027344 448.5249328613281 452.7523193359375 445.0174560546875 C 455.5742797851562 441.5060729980469 458.1367492675781 437.6411743164062 460.3686218261719 433.5303039550781 C 462.6237487792969 429.3765869140625 464.5609741210938 424.9353637695312 466.1264038085938 420.3298950195312 C 469.385986328125 410.7402954101562 471.0386962890625 400.5516357421875 471.0386962890625 390.046875 L 471.0386962890625 78.62606811523438 C 471.0386962890625 68.12130737304688 469.385986328125 57.93264770507812 466.1264038085938 48.34304809570312 C 464.5609741210938 43.73757934570312 462.6237487792969 39.29629516601562 460.3686218261719 35.142578125 C 458.1367492675781 31.03170776367188 455.5742797851562 27.1668701171875 452.7523193359375 23.65545654296875 C 449.9336853027344 20.14801025390625 446.8331604003906 16.96453857421875 443.5369873046875 14.19354248046875 C 440.2137451171875 11.39981079101562 436.6623840332031 9.001007080078125 432.9816284179688 7.063751220703125 C 425.3367309570312 3.040130615234375 417.218505859375 1 408.8523864746094 1 L 63.186279296875 1 M 63.186279296875 0 L 408.8523864746094 0 C 443.7492065429688 0 472.0386962890625 35.20205688476562 472.0386962890625 78.62606811523438 L 472.0386962890625 390.046875 C 472.0386962890625 433.4708251953125 443.7492065429688 468.6729431152344 408.8523864746094 468.6729431152344 L 63.186279296875 468.6729431152344 C 28.28945922851562 468.6729431152344 -3.0517578125e-05 433.4708251953125 -3.0517578125e-05 390.046875 L -3.0517578125e-05 78.62606811523438 C -3.0517578125e-05 35.20205688476562 28.28945922851562 0 63.186279296875 0 Z"/></g></svg>