<svg xmlns="http://www.w3.org/2000/svg" xmlns:xlink="http://www.w3.org/1999/xlink" width="812" height="771" viewBox="0 0 812 771"><defs><style>.a{fill:#0f6cb6;}.b{fill:#fff;}.c{fill:none;stroke:#fff;stroke-miterlimit:10;stroke-width:4px;}.d{opacity:0.27;}.e{fill:#3b43f2;}.f{filter:url(#a);}</style><filter id="a" x="202" y="169.212" width="260" height="260" filterUnits="userSpaceOnUse"><feOffset dx="40" dy="2" input="SourceAlpha"/><feGaussianBlur stdDeviation="40" result="b"/><feFlood flood-opacity="0.502"/><feComposite operator="in" in2="b"/><feComposite in="SourceGraphic"/></filter></defs><g transform="translate(-1329.5 -186.331)"><path class="a" d="M100,0H445.18a100,100,0,0,1,100,100V445.18a100,100,0,0,1-100,100H100a100,100,0,0,1-100-100V100A100,100,0,0,1,100,0Z" transform="translate(1370.5 571.831) rotate(-45)"/><g transform="translate(1550.5 555.543)"><path class="b" d="M4.278,2.139A2.139,2.139,0,1,1,2.139,0,2.139,2.139,0,0,1,4.278,2.139"/><path class="b" d="M4.278,2.139A2.139,2.139,0,1,1,2.139,0,2.139,2.139,0,0,1,4.278,2.139" transform="translate(21.391)"/><path class="b" d="M4.278,2.139A2.139,2.139,0,1,1,2.139,0,2.139,2.139,0,0,1,4.278,2.139" transform="translate(42.781)"/><path class="b" d="M4.278,2.139A2.139,2.139,0,1,1,2.139,0,2.139,2.139,0,0,1,4.278,2.139" transform="translate(64.172)"/><path class="b" d="M4.278,2.139A2.139,2.139,0,1,1,2.139,0,2.139,2.139,0,0,1,4.278,2.139" transform="translate(85.562)"/><path class="b" d="M4.278,2.139A2.139,2.139,0,1,1,2.139,0,2.139,2.139,0,0,1,4.278,2.139" transform="translate(106.953)"/><path class="b" d="M4.278,2.139A2.139,2.139,0,1,1,2.139,0,2.139,2.139,0,0,1,4.278,2.139" transform="translate(128.343)"/><path class="b" d="M4.278,2.139A2.139,2.139,0,1,1,2.139,0,2.139,2.139,0,0,1,4.278,2.139" transform="translate(149.734)"/><path class="b" d="M4.278,2.139A2.139,2.139,0,1,1,2.139,0,2.139,2.139,0,0,1,4.278,2.139" transform="translate(0 21.391)"/><path class="b" d="M4.278,2.139A2.139,2.139,0,1,1,2.139,0,2.139,2.139,0,0,1,4.278,2.139" transform="translate(21.391 21.391)"/><path class="b" d="M4.278,2.139A2.139,2.139,0,1,1,2.139,0,2.139,2.139,0,0,1,4.278,2.139" transform="translate(42.781 21.391)"/><path class="b" d="M4.278,2.139A2.139,2.139,0,1,1,2.139,0,2.139,2.139,0,0,1,4.278,2.139" transform="translate(64.172 21.391)"/><path class="b" d="M4.278,2.139A2.139,2.139,0,1,1,2.139,0,2.139,2.139,0,0,1,4.278,2.139" transform="translate(85.562 21.391)"/><path class="b" d="M4.278,2.139A2.139,2.139,0,1,1,2.139,0,2.139,2.139,0,0,1,4.278,2.139" transform="translate(106.953 21.391)"/><path class="b" d="M4.278,2.139A2.139,2.139,0,1,1,2.139,0,2.139,2.139,0,0,1,4.278,2.139" transform="translate(128.343 21.391)"/><path class="b" d="M4.278,2.139A2.139,2.139,0,1,1,2.139,0,2.139,2.139,0,0,1,4.278,2.139" transform="translate(149.734 21.391)"/><path class="b" d="M4.278,2.139A2.139,2.139,0,1,1,2.139,0,2.139,2.139,0,0,1,4.278,2.139" transform="translate(0 42.781)"/><path class="b" d="M4.278,2.139A2.139,2.139,0,1,1,2.139,0,2.139,2.139,0,0,1,4.278,2.139" transform="translate(21.391 42.781)"/><path class="b" d="M4.278,2.139A2.139,2.139,0,1,1,2.139,0,2.139,2.139,0,0,1,4.278,2.139" transform="translate(42.781 42.781)"/><path class="b" d="M4.278,2.139A2.139,2.139,0,1,1,2.139,0,2.139,2.139,0,0,1,4.278,2.139" transform="translate(64.172 42.781)"/><path class="b" d="M4.278,2.139A2.139,2.139,0,1,1,2.139,0,2.139,2.139,0,0,1,4.278,2.139" transform="translate(85.562 42.781)"/><path class="b" d="M4.278,2.139A2.139,2.139,0,1,1,2.139,0,2.139,2.139,0,0,1,4.278,2.139" transform="translate(106.953 42.781)"/><path class="b" d="M4.278,2.139A2.139,2.139,0,1,1,2.139,0,2.139,2.139,0,0,1,4.278,2.139" transform="translate(128.343 42.781)"/><path class="b" d="M4.278,2.139A2.139,2.139,0,1,1,2.139,0,2.139,2.139,0,0,1,4.278,2.139" transform="translate(149.734 42.781)"/><path class="b" d="M4.278,2.139A2.139,2.139,0,1,1,2.139,0,2.139,2.139,0,0,1,4.278,2.139" transform="translate(0 64.172)"/><path class="b" d="M4.278,2.139A2.139,2.139,0,1,1,2.139,0,2.139,2.139,0,0,1,4.278,2.139" transform="translate(21.391 64.172)"/><path class="b" d="M4.278,2.139A2.139,2.139,0,1,1,2.139,0,2.139,2.139,0,0,1,4.278,2.139" transform="translate(42.781 64.172)"/><path class="b" d="M4.278,2.139A2.139,2.139,0,1,1,2.139,0,2.139,2.139,0,0,1,4.278,2.139" transform="translate(64.172 64.172)"/><path class="b" d="M4.278,2.139A2.139,2.139,0,1,1,2.139,0,2.139,2.139,0,0,1,4.278,2.139" transform="translate(85.562 64.172)"/><path class="b" d="M4.278,2.139A2.139,2.139,0,1,1,2.139,0,2.139,2.139,0,0,1,4.278,2.139" transform="translate(106.953 64.172)"/><path class="b" d="M4.278,2.139A2.139,2.139,0,1,1,2.139,0,2.139,2.139,0,0,1,4.278,2.139" transform="translate(128.343 64.172)"/><path class="b" d="M4.278,2.139A2.139,2.139,0,1,1,2.139,0,2.139,2.139,0,0,1,4.278,2.139" transform="translate(149.734 64.172)"/><path class="b" d="M4.278,2.139A2.139,2.139,0,1,1,2.139,0,2.139,2.139,0,0,1,4.278,2.139" transform="translate(0 85.562)"/><path class="b" d="M4.278,2.139A2.139,2.139,0,1,1,2.139,0,2.139,2.139,0,0,1,4.278,2.139" transform="translate(21.391 85.562)"/><path class="b" d="M4.278,2.139A2.139,2.139,0,1,1,2.139,0,2.139,2.139,0,0,1,4.278,2.139" transform="translate(42.781 85.562)"/><path class="b" d="M4.278,2.139A2.139,2.139,0,1,1,2.139,0,2.139,2.139,0,0,1,4.278,2.139" transform="translate(64.172 85.562)"/><path class="b" d="M4.278,2.139A2.139,2.139,0,1,1,2.139,0,2.139,2.139,0,0,1,4.278,2.139" transform="translate(85.562 85.562)"/><path class="b" d="M4.278,2.139A2.139,2.139,0,1,1,2.139,0,2.139,2.139,0,0,1,4.278,2.139" transform="translate(106.953 85.562)"/><path class="b" d="M4.278,2.139A2.139,2.139,0,1,1,2.139,0,2.139,2.139,0,0,1,4.278,2.139" transform="translate(128.343 85.562)"/><path class="b" d="M4.278,2.139A2.139,2.139,0,1,1,2.139,0,2.139,2.139,0,0,1,4.278,2.139" transform="translate(149.734 85.562)"/><path class="b" d="M4.278,2.139A2.139,2.139,0,1,1,2.139,0,2.139,2.139,0,0,1,4.278,2.139" transform="translate(0 106.953)"/><path class="b" d="M4.278,2.139A2.139,2.139,0,1,1,2.139,0,2.139,2.139,0,0,1,4.278,2.139" transform="translate(21.391 106.953)"/><path class="b" d="M4.278,2.139A2.139,2.139,0,1,1,2.139,0,2.139,2.139,0,0,1,4.278,2.139" transform="translate(42.781 106.953)"/><path class="b" d="M4.278,2.139A2.139,2.139,0,1,1,2.139,0,2.139,2.139,0,0,1,4.278,2.139" transform="translate(64.172 106.953)"/><path class="b" d="M4.278,2.139A2.139,2.139,0,1,1,2.139,0,2.139,2.139,0,0,1,4.278,2.139" transform="translate(85.562 106.953)"/><path class="b" d="M4.278,2.139A2.139,2.139,0,1,1,2.139,0,2.139,2.139,0,0,1,4.278,2.139" transform="translate(106.953 106.953)"/><path class="b" d="M4.278,2.139A2.139,2.139,0,1,1,2.139,0,2.139,2.139,0,0,1,4.278,2.139" transform="translate(128.343 106.953)"/><path class="b" d="M4.278,2.139A2.139,2.139,0,1,1,2.139,0,2.139,2.139,0,0,1,4.278,2.139" transform="translate(149.734 106.953)"/><path class="b" d="M4.278,2.139A2.139,2.139,0,1,1,2.139,0,2.139,2.139,0,0,1,4.278,2.139" transform="translate(0 128.343)"/><path class="b" d="M4.278,2.139A2.139,2.139,0,1,1,2.139,0,2.139,2.139,0,0,1,4.278,2.139" transform="translate(21.391 128.343)"/><path class="b" d="M4.278,2.139A2.139,2.139,0,1,1,2.139,0,2.139,2.139,0,0,1,4.278,2.139" transform="translate(42.781 128.343)"/><path class="b" d="M4.278,2.139A2.139,2.139,0,1,1,2.139,0,2.139,2.139,0,0,1,4.278,2.139" transform="translate(64.172 128.343)"/><path class="b" d="M4.278,2.139A2.139,2.139,0,1,1,2.139,0,2.139,2.139,0,0,1,4.278,2.139" transform="translate(85.562 128.343)"/><path class="b" d="M4.278,2.139A2.139,2.139,0,1,1,2.139,0,2.139,2.139,0,0,1,4.278,2.139" transform="translate(106.953 128.343)"/><path class="b" d="M4.278,2.139A2.139,2.139,0,1,1,2.139,0,2.139,2.139,0,0,1,4.278,2.139" transform="translate(128.343 128.343)"/><path class="b" d="M4.278,2.139A2.139,2.139,0,1,1,2.139,0,2.139,2.139,0,0,1,4.278,2.139" transform="translate(149.734 128.343)"/><path class="b" d="M4.278,2.139A2.139,2.139,0,1,1,2.139,0,2.139,2.139,0,0,1,4.278,2.139" transform="translate(0 149.734)"/><path class="b" d="M4.278,2.139A2.139,2.139,0,1,1,2.139,0,2.139,2.139,0,0,1,4.278,2.139" transform="translate(21.391 149.734)"/><path class="b" d="M4.278,2.139A2.139,2.139,0,1,1,2.139,0,2.139,2.139,0,0,1,4.278,2.139" transform="translate(42.781 149.734)"/><path class="b" d="M4.278,2.139A2.139,2.139,0,1,1,2.139,0,2.139,2.139,0,0,1,4.278,2.139" transform="translate(64.172 149.734)"/><path class="b" d="M4.278,2.139A2.139,2.139,0,1,1,2.139,0,2.139,2.139,0,0,1,4.278,2.139" transform="translate(85.562 149.734)"/><path class="b" d="M4.278,2.139A2.139,2.139,0,1,1,2.139,0,2.139,2.139,0,0,1,4.278,2.139" transform="translate(106.953 149.734)"/><path class="b" d="M4.278,2.139A2.139,2.139,0,1,1,2.139,0,2.139,2.139,0,0,1,4.278,2.139" transform="translate(128.343 149.734)"/><path class="b" d="M4.278,2.139A2.139,2.139,0,1,1,2.139,0,2.139,2.139,0,0,1,4.278,2.139" transform="translate(149.734 149.734)"/></g><g class="f" transform="matrix(1, 0, 0, 1, 1329.5, 186.33)"><circle class="c" cx="8" cy="8" r="8" transform="translate(284 289.21)"/></g><g class="d" transform="translate(1380.5 459.543)"><path class="b" d="M4.278,2.139A2.139,2.139,0,1,1,2.139,0,2.139,2.139,0,0,1,4.278,2.139"/><path class="b" d="M4.278,2.139A2.139,2.139,0,1,1,2.139,0,2.139,2.139,0,0,1,4.278,2.139" transform="translate(21.391)"/><path class="b" d="M4.278,2.139A2.139,2.139,0,1,1,2.139,0,2.139,2.139,0,0,1,4.278,2.139" transform="translate(42.781)"/><path class="b" d="M4.278,2.139A2.139,2.139,0,1,1,2.139,0,2.139,2.139,0,0,1,4.278,2.139" transform="translate(64.172)"/><path class="b" d="M4.278,2.139A2.139,2.139,0,1,1,2.139,0,2.139,2.139,0,0,1,4.278,2.139" transform="translate(85.562)"/><path class="b" d="M4.278,2.139A2.139,2.139,0,1,1,2.139,0,2.139,2.139,0,0,1,4.278,2.139" transform="translate(106.953)"/><path class="b" d="M4.278,2.139A2.139,2.139,0,1,1,2.139,0,2.139,2.139,0,0,1,4.278,2.139" transform="translate(128.343)"/><path class="b" d="M4.278,2.139A2.139,2.139,0,1,1,2.139,0,2.139,2.139,0,0,1,4.278,2.139" transform="translate(149.734)"/><path class="b" d="M4.278,2.139A2.139,2.139,0,1,1,2.139,0,2.139,2.139,0,0,1,4.278,2.139" transform="translate(0 21.391)"/><path class="b" d="M4.278,2.139A2.139,2.139,0,1,1,2.139,0,2.139,2.139,0,0,1,4.278,2.139" transform="translate(21.391 21.391)"/><path class="b" d="M4.278,2.139A2.139,2.139,0,1,1,2.139,0,2.139,2.139,0,0,1,4.278,2.139" transform="translate(42.781 21.391)"/><path class="b" d="M4.278,2.139A2.139,2.139,0,1,1,2.139,0,2.139,2.139,0,0,1,4.278,2.139" transform="translate(64.172 21.391)"/><path class="b" d="M4.278,2.139A2.139,2.139,0,1,1,2.139,0,2.139,2.139,0,0,1,4.278,2.139" transform="translate(85.562 21.391)"/><path class="b" d="M4.278,2.139A2.139,2.139,0,1,1,2.139,0,2.139,2.139,0,0,1,4.278,2.139" transform="translate(106.953 21.391)"/><path class="b" d="M4.278,2.139A2.139,2.139,0,1,1,2.139,0,2.139,2.139,0,0,1,4.278,2.139" transform="translate(128.343 21.391)"/><path class="b" d="M4.278,2.139A2.139,2.139,0,1,1,2.139,0,2.139,2.139,0,0,1,4.278,2.139" transform="translate(149.734 21.391)"/><path class="b" d="M4.278,2.139A2.139,2.139,0,1,1,2.139,0,2.139,2.139,0,0,1,4.278,2.139" transform="translate(0 42.781)"/><path class="b" d="M4.278,2.139A2.139,2.139,0,1,1,2.139,0,2.139,2.139,0,0,1,4.278,2.139" transform="translate(21.391 42.781)"/><path class="b" d="M4.278,2.139A2.139,2.139,0,1,1,2.139,0,2.139,2.139,0,0,1,4.278,2.139" transform="translate(42.781 42.781)"/><path class="b" d="M4.278,2.139A2.139,2.139,0,1,1,2.139,0,2.139,2.139,0,0,1,4.278,2.139" transform="translate(64.172 42.781)"/><path class="b" d="M4.278,2.139A2.139,2.139,0,1,1,2.139,0,2.139,2.139,0,0,1,4.278,2.139" transform="translate(85.562 42.781)"/><path class="b" d="M4.278,2.139A2.139,2.139,0,1,1,2.139,0,2.139,2.139,0,0,1,4.278,2.139" transform="translate(106.953 42.781)"/><path class="b" d="M4.278,2.139A2.139,2.139,0,1,1,2.139,0,2.139,2.139,0,0,1,4.278,2.139" transform="translate(128.343 42.781)"/><path class="b" d="M4.278,2.139A2.139,2.139,0,1,1,2.139,0,2.139,2.139,0,0,1,4.278,2.139" transform="translate(149.734 42.781)"/><path class="b" d="M4.278,2.139A2.139,2.139,0,1,1,2.139,0,2.139,2.139,0,0,1,4.278,2.139" transform="translate(0 64.172)"/><path class="b" d="M4.278,2.139A2.139,2.139,0,1,1,2.139,0,2.139,2.139,0,0,1,4.278,2.139" transform="translate(21.391 64.172)"/><path class="b" d="M4.278,2.139A2.139,2.139,0,1,1,2.139,0,2.139,2.139,0,0,1,4.278,2.139" transform="translate(42.781 64.172)"/><path class="b" d="M4.278,2.139A2.139,2.139,0,1,1,2.139,0,2.139,2.139,0,0,1,4.278,2.139" transform="translate(64.172 64.172)"/><path class="b" d="M4.278,2.139A2.139,2.139,0,1,1,2.139,0,2.139,2.139,0,0,1,4.278,2.139" transform="translate(85.562 64.172)"/><path class="b" d="M4.278,2.139A2.139,2.139,0,1,1,2.139,0,2.139,2.139,0,0,1,4.278,2.139" transform="translate(106.953 64.172)"/><path class="b" d="M4.278,2.139A2.139,2.139,0,1,1,2.139,0,2.139,2.139,0,0,1,4.278,2.139" transform="translate(128.343 64.172)"/><path class="b" d="M4.278,2.139A2.139,2.139,0,1,1,2.139,0,2.139,2.139,0,0,1,4.278,2.139" transform="translate(149.734 64.172)"/><path class="b" d="M4.278,2.139A2.139,2.139,0,1,1,2.139,0,2.139,2.139,0,0,1,4.278,2.139" transform="translate(0 85.562)"/><path class="b" d="M4.278,2.139A2.139,2.139,0,1,1,2.139,0,2.139,2.139,0,0,1,4.278,2.139" transform="translate(21.391 85.562)"/><path class="b" d="M4.278,2.139A2.139,2.139,0,1,1,2.139,0,2.139,2.139,0,0,1,4.278,2.139" transform="translate(42.781 85.562)"/><path class="b" d="M4.278,2.139A2.139,2.139,0,1,1,2.139,0,2.139,2.139,0,0,1,4.278,2.139" transform="translate(64.172 85.562)"/><path class="b" d="M4.278,2.139A2.139,2.139,0,1,1,2.139,0,2.139,2.139,0,0,1,4.278,2.139" transform="translate(85.562 85.562)"/><path class="b" d="M4.278,2.139A2.139,2.139,0,1,1,2.139,0,2.139,2.139,0,0,1,4.278,2.139" transform="translate(106.953 85.562)"/><path class="b" d="M4.278,2.139A2.139,2.139,0,1,1,2.139,0,2.139,2.139,0,0,1,4.278,2.139" transform="translate(128.343 85.562)"/><path class="b" d="M4.278,2.139A2.139,2.139,0,1,1,2.139,0,2.139,2.139,0,0,1,4.278,2.139" transform="translate(149.734 85.562)"/><path class="b" d="M4.278,2.139A2.139,2.139,0,1,1,2.139,0,2.139,2.139,0,0,1,4.278,2.139" transform="translate(0 106.953)"/><path class="b" d="M4.278,2.139A2.139,2.139,0,1,1,2.139,0,2.139,2.139,0,0,1,4.278,2.139" transform="translate(21.391 106.953)"/><path class="b" d="M4.278,2.139A2.139,2.139,0,1,1,2.139,0,2.139,2.139,0,0,1,4.278,2.139" transform="translate(42.781 106.953)"/><path class="b" d="M4.278,2.139A2.139,2.139,0,1,1,2.139,0,2.139,2.139,0,0,1,4.278,2.139" transform="translate(64.172 106.953)"/><path class="b" d="M4.278,2.139A2.139,2.139,0,1,1,2.139,0,2.139,2.139,0,0,1,4.278,2.139" transform="translate(85.562 106.953)"/><path class="b" d="M4.278,2.139A2.139,2.139,0,1,1,2.139,0,2.139,2.139,0,0,1,4.278,2.139" transform="translate(106.953 106.953)"/><path class="b" d="M4.278,2.139A2.139,2.139,0,1,1,2.139,0,2.139,2.139,0,0,1,4.278,2.139" transform="translate(128.343 106.953)"/><path class="b" d="M4.278,2.139A2.139,2.139,0,1,1,2.139,0,2.139,2.139,0,0,1,4.278,2.139" transform="translate(149.734 106.953)"/><path class="b" d="M4.278,2.139A2.139,2.139,0,1,1,2.139,0,2.139,2.139,0,0,1,4.278,2.139" transform="translate(0 128.343)"/><path class="b" d="M4.278,2.139A2.139,2.139,0,1,1,2.139,0,2.139,2.139,0,0,1,4.278,2.139" transform="translate(21.391 128.343)"/><path class="b" d="M4.278,2.139A2.139,2.139,0,1,1,2.139,0,2.139,2.139,0,0,1,4.278,2.139" transform="translate(42.781 128.343)"/><path class="b" d="M4.278,2.139A2.139,2.139,0,1,1,2.139,0,2.139,2.139,0,0,1,4.278,2.139" transform="translate(64.172 128.343)"/><path class="b" d="M4.278,2.139A2.139,2.139,0,1,1,2.139,0,2.139,2.139,0,0,1,4.278,2.139" transform="translate(85.562 128.343)"/><path class="b" d="M4.278,2.139A2.139,2.139,0,1,1,2.139,0,2.139,2.139,0,0,1,4.278,2.139" transform="translate(106.953 128.343)"/><path class="b" d="M4.278,2.139A2.139,2.139,0,1,1,2.139,0,2.139,2.139,0,0,1,4.278,2.139" transform="translate(128.343 128.343)"/><path class="b" d="M4.278,2.139A2.139,2.139,0,1,1,2.139,0,2.139,2.139,0,0,1,4.278,2.139" transform="translate(149.734 128.343)"/><path class="b" d="M4.278,2.139A2.139,2.139,0,1,1,2.139,0,2.139,2.139,0,0,1,4.278,2.139" transform="translate(0 149.734)"/><path class="b" d="M4.278,2.139A2.139,2.139,0,1,1,2.139,0,2.139,2.139,0,0,1,4.278,2.139" transform="translate(21.391 149.734)"/><path class="b" d="M4.278,2.139A2.139,2.139,0,1,1,2.139,0,2.139,2.139,0,0,1,4.278,2.139" transform="translate(42.781 149.734)"/><path class="b" d="M4.278,2.139A2.139,2.139,0,1,1,2.139,0,2.139,2.139,0,0,1,4.278,2.139" transform="translate(64.172 149.734)"/><path class="b" d="M4.278,2.139A2.139,2.139,0,1,1,2.139,0,2.139,2.139,0,0,1,4.278,2.139" transform="translate(85.562 149.734)"/><path class="b" d="M4.278,2.139A2.139,2.139,0,1,1,2.139,0,2.139,2.139,0,0,1,4.278,2.139" transform="translate(106.953 149.734)"/><path class="b" d="M4.278,2.139A2.139,2.139,0,1,1,2.139,0,2.139,2.139,0,0,1,4.278,2.139" transform="translate(128.343 149.734)"/><path class="b" d="M4.278,2.139A2.139,2.139,0,1,1,2.139,0,2.139,2.139,0,0,1,4.278,2.139" transform="translate(149.734 149.734)"/></g><path class="b" d="M7.765,2.588a5.183,5.183,0,0,1,5.177,5.177h2.588A7.765,7.765,0,0,0,0,7.765H2.588A5.183,5.183,0,0,1,7.765,2.588" transform="translate(1466.942 577.198)"/><path class="b" d="M7.765,0A7.774,7.774,0,0,0,0,7.765H2.588A5.183,5.183,0,0,1,7.765,2.588Z" transform="translate(1642.697 710.064)"/><g transform="translate(1329.5 218.5)"><path class="e" d="M4.75,2.375A2.375,2.375,0,1,1,2.375,0,2.375,2.375,0,0,1,4.75,2.375"/><path class="e" d="M4.75,2.375A2.375,2.375,0,1,1,2.375,0,2.375,2.375,0,0,1,4.75,2.375" transform="translate(23.75)"/><path class="e" d="M4.75,2.375A2.375,2.375,0,1,1,2.375,0,2.375,2.375,0,0,1,4.75,2.375" transform="translate(47.5)"/><path class="e" d="M4.75,2.375A2.375,2.375,0,1,1,2.375,0,2.375,2.375,0,0,1,4.75,2.375" transform="translate(71.25)"/><path class="e" d="M4.75,2.375A2.375,2.375,0,1,1,2.375,0,2.375,2.375,0,0,1,4.75,2.375" transform="translate(95)"/><path class="e" d="M4.75,2.375A2.375,2.375,0,1,1,2.375,0,2.375,2.375,0,0,1,4.75,2.375" transform="translate(118.75)"/><path class="e" d="M4.75,2.375A2.375,2.375,0,1,1,2.375,0,2.375,2.375,0,0,1,4.75,2.375" transform="translate(142.5)"/><path class="e" d="M4.75,2.375A2.375,2.375,0,1,1,2.375,0,2.375,2.375,0,0,1,4.75,2.375" transform="translate(166.25)"/><path class="e" d="M4.75,2.375A2.375,2.375,0,1,1,2.375,0,2.375,2.375,0,0,1,4.75,2.375" transform="translate(0 23.75)"/><path class="e" d="M4.75,2.375A2.375,2.375,0,1,1,2.375,0,2.375,2.375,0,0,1,4.75,2.375" transform="translate(23.75 23.75)"/><path class="e" d="M4.75,2.375A2.375,2.375,0,1,1,2.375,0,2.375,2.375,0,0,1,4.75,2.375" transform="translate(47.5 23.75)"/><path class="e" d="M4.75,2.375A2.375,2.375,0,1,1,2.375,0,2.375,2.375,0,0,1,4.75,2.375" transform="translate(71.25 23.75)"/><path class="e" d="M4.75,2.375A2.375,2.375,0,1,1,2.375,0,2.375,2.375,0,0,1,4.75,2.375" transform="translate(95 23.75)"/><path class="e" d="M4.75,2.375A2.375,2.375,0,1,1,2.375,0,2.375,2.375,0,0,1,4.75,2.375" transform="translate(118.75 23.75)"/><path class="e" d="M4.75,2.375A2.375,2.375,0,1,1,2.375,0,2.375,2.375,0,0,1,4.75,2.375" transform="translate(142.5 23.75)"/><path class="e" d="M4.75,2.375A2.375,2.375,0,1,1,2.375,0,2.375,2.375,0,0,1,4.75,2.375" transform="translate(166.25 23.75)"/><path class="e" d="M4.75,2.375A2.375,2.375,0,1,1,2.375,0,2.375,2.375,0,0,1,4.75,2.375" transform="translate(0 47.5)"/><path class="e" d="M4.75,2.375A2.375,2.375,0,1,1,2.375,0,2.375,2.375,0,0,1,4.75,2.375" transform="translate(23.75 47.5)"/><path class="e" d="M4.75,2.375A2.375,2.375,0,1,1,2.375,0,2.375,2.375,0,0,1,4.75,2.375" transform="translate(47.5 47.5)"/><path class="e" d="M4.75,2.375A2.375,2.375,0,1,1,2.375,0,2.375,2.375,0,0,1,4.75,2.375" transform="translate(71.25 47.5)"/><path class="e" d="M4.75,2.375A2.375,2.375,0,1,1,2.375,0,2.375,2.375,0,0,1,4.75,2.375" transform="translate(95 47.5)"/><path class="e" d="M4.75,2.375A2.375,2.375,0,1,1,2.375,0,2.375,2.375,0,0,1,4.75,2.375" transform="translate(118.75 47.5)"/><path class="e" d="M4.75,2.375A2.375,2.375,0,1,1,2.375,0,2.375,2.375,0,0,1,4.75,2.375" transform="translate(142.5 47.5)"/><path class="e" d="M4.75,2.375A2.375,2.375,0,1,1,2.375,0,2.375,2.375,0,0,1,4.75,2.375" transform="translate(166.25 47.5)"/><path class="e" d="M4.75,2.375A2.375,2.375,0,1,1,2.375,0,2.375,2.375,0,0,1,4.75,2.375" transform="translate(0 71.25)"/><path class="e" d="M4.75,2.375A2.375,2.375,0,1,1,2.375,0,2.375,2.375,0,0,1,4.75,2.375" transform="translate(23.75 71.25)"/><path class="e" d="M4.75,2.375A2.375,2.375,0,1,1,2.375,0,2.375,2.375,0,0,1,4.75,2.375" transform="translate(47.5 71.25)"/><path class="e" d="M4.75,2.375A2.375,2.375,0,1,1,2.375,0,2.375,2.375,0,0,1,4.75,2.375" transform="translate(71.25 71.25)"/><path class="e" d="M4.75,2.375A2.375,2.375,0,1,1,2.375,0,2.375,2.375,0,0,1,4.75,2.375" transform="translate(95 71.25)"/><path class="e" d="M4.75,2.375A2.375,2.375,0,1,1,2.375,0,2.375,2.375,0,0,1,4.75,2.375" transform="translate(118.75 71.25)"/><path class="e" d="M4.75,2.375A2.375,2.375,0,1,1,2.375,0,2.375,2.375,0,0,1,4.75,2.375" transform="translate(142.5 71.25)"/><path class="e" d="M4.75,2.375A2.375,2.375,0,1,1,2.375,0,2.375,2.375,0,0,1,4.75,2.375" transform="translate(166.25 71.25)"/><path class="e" d="M4.75,2.375A2.375,2.375,0,1,1,2.375,0,2.375,2.375,0,0,1,4.75,2.375" transform="translate(0 95)"/><path class="e" d="M4.75,2.375A2.375,2.375,0,1,1,2.375,0,2.375,2.375,0,0,1,4.75,2.375" transform="translate(23.75 95)"/><path class="e" d="M4.75,2.375A2.375,2.375,0,1,1,2.375,0,2.375,2.375,0,0,1,4.75,2.375" transform="translate(47.5 95)"/><path class="e" d="M4.75,2.375A2.375,2.375,0,1,1,2.375,0,2.375,2.375,0,0,1,4.75,2.375" transform="translate(71.25 95)"/><path class="e" d="M4.75,2.375A2.375,2.375,0,1,1,2.375,0,2.375,2.375,0,0,1,4.75,2.375" transform="translate(95 95)"/><path class="e" d="M4.75,2.375A2.375,2.375,0,1,1,2.375,0,2.375,2.375,0,0,1,4.75,2.375" transform="translate(118.75 95)"/><path class="e" d="M4.75,2.375A2.375,2.375,0,1,1,2.375,0,2.375,2.375,0,0,1,4.75,2.375" transform="translate(142.5 95)"/><path class="e" d="M4.75,2.375A2.375,2.375,0,1,1,2.375,0,2.375,2.375,0,0,1,4.75,2.375" transform="translate(166.25 95)"/><path class="e" d="M4.75,2.375A2.375,2.375,0,1,1,2.375,0,2.375,2.375,0,0,1,4.75,2.375" transform="translate(0 118.75)"/><path class="e" d="M4.75,2.375A2.375,2.375,0,1,1,2.375,0,2.375,2.375,0,0,1,4.75,2.375" transform="translate(23.75 118.75)"/><path class="e" d="M4.75,2.375A2.375,2.375,0,1,1,2.375,0,2.375,2.375,0,0,1,4.75,2.375" transform="translate(47.5 118.75)"/><path class="e" d="M4.75,2.375A2.375,2.375,0,1,1,2.375,0,2.375,2.375,0,0,1,4.75,2.375" transform="translate(71.25 118.75)"/><path class="e" d="M4.75,2.375A2.375,2.375,0,1,1,2.375,0,2.375,2.375,0,0,1,4.75,2.375" transform="translate(95 118.75)"/><path class="e" d="M4.75,2.375A2.375,2.375,0,1,1,2.375,0,2.375,2.375,0,0,1,4.75,2.375" transform="translate(118.75 118.75)"/><path class="e" d="M4.75,2.375A2.375,2.375,0,1,1,2.375,0,2.375,2.375,0,0,1,4.75,2.375" transform="translate(142.5 118.75)"/><path class="e" d="M4.75,2.375A2.375,2.375,0,1,1,2.375,0,2.375,2.375,0,0,1,4.75,2.375" transform="translate(166.25 118.75)"/><path class="e" d="M4.75,2.375A2.375,2.375,0,1,1,2.375,0,2.375,2.375,0,0,1,4.75,2.375" transform="translate(0 142.5)"/><path class="e" d="M4.75,2.375A2.375,2.375,0,1,1,2.375,0,2.375,2.375,0,0,1,4.75,2.375" transform="translate(23.75 142.5)"/><path class="e" d="M4.75,2.375A2.375,2.375,0,1,1,2.375,0,2.375,2.375,0,0,1,4.75,2.375" transform="translate(47.5 142.5)"/><path class="e" d="M4.75,2.375A2.375,2.375,0,1,1,2.375,0,2.375,2.375,0,0,1,4.75,2.375" transform="translate(71.25 142.5)"/><path class="e" d="M4.75,2.375A2.375,2.375,0,1,1,2.375,0,2.375,2.375,0,0,1,4.75,2.375" transform="translate(95 142.5)"/><path class="e" d="M4.75,2.375A2.375,2.375,0,1,1,2.375,0,2.375,2.375,0,0,1,4.75,2.375" transform="translate(118.75 142.5)"/><path class="e" d="M4.75,2.375A2.375,2.375,0,1,1,2.375,0,2.375,2.375,0,0,1,4.75,2.375" transform="translate(142.5 142.5)"/><path class="e" d="M4.75,2.375A2.375,2.375,0,1,1,2.375,0,2.375,2.375,0,0,1,4.75,2.375" transform="translate(166.25 142.5)"/><path class="e" d="M4.75,2.375A2.375,2.375,0,1,1,2.375,0,2.375,2.375,0,0,1,4.75,2.375" transform="translate(0 166.25)"/><path class="e" d="M4.75,2.375A2.375,2.375,0,1,1,2.375,0,2.375,2.375,0,0,1,4.75,2.375" transform="translate(23.75 166.25)"/><path class="e" d="M4.75,2.375A2.375,2.375,0,1,1,2.375,0,2.375,2.375,0,0,1,4.75,2.375" transform="translate(47.5 166.25)"/><path class="e" d="M4.75,2.375A2.375,2.375,0,1,1,2.375,0,2.375,2.375,0,0,1,4.75,2.375" transform="translate(71.25 166.25)"/><path class="e" d="M4.75,2.375A2.375,2.375,0,1,1,2.375,0,2.375,2.375,0,0,1,4.75,2.375" transform="translate(95 166.25)"/><path class="e" d="M4.75,2.375A2.375,2.375,0,1,1,2.375,0,2.375,2.375,0,0,1,4.75,2.375" transform="translate(118.75 166.25)"/><path class="e" d="M4.75,2.375A2.375,2.375,0,1,1,2.375,0,2.375,2.375,0,0,1,4.75,2.375" transform="translate(142.5 166.25)"/><path class="e" d="M4.75,2.375A2.375,2.375,0,1,1,2.375,0,2.375,2.375,0,0,1,4.75,2.375" transform="translate(166.25 166.25)"/></g></g></svg>