<svg xmlns="http://www.w3.org/2000/svg" viewBox="0 0 165.29 147.57"><defs><style>.cls-1{fill:#5167a6;}.cls-2{fill:none;}.cls-3{fill:#49558c;}.cls-4{fill:#fff;}</style></defs><g id="OBJECTS"><polygon class="cls-1" points="109.54 37.22 63.97 37.22 41.19 76.69 63.97 116.15 109.54 116.15 132.33 76.69 109.54 37.22"/><path class="cls-1" d="M121.28,25.05,118.94,21H54.59L22.42,76.69l29.81,51.64,2.35,4.08h64.35L151.1,76.69ZM114.05,124H59.47L32.18,76.69,59.47,29.42h54.58l27.29,47.27Z"/><path class="cls-2" d="M112.48,26.62H57.9L30.61,73.89,57.9,121.16h54.58l27.29-47.27ZM108,113.36H62.4L39.62,73.89,62.4,34.43H108l22.79,39.46Z"/><polygon class="cls-3" points="107.97 34.43 62.4 34.43 39.62 73.89 62.4 113.36 107.97 113.36 130.76 73.89 107.97 34.43"/><path class="cls-3" d="M119.71,22.25l-2.34-4.08H53L20.85,73.89l29.81,51.64L53,129.61h64.36l32.17-55.72Zm-7.23,98.91H57.9L30.61,73.89,57.9,26.62h54.58l27.29,47.27Z"/><polygon class="cls-1" points="68.32 34.43 62.4 34.43 39.62 73.89 62.4 113.36 68.32 113.36 45.54 73.89 68.32 34.43"/><path class="cls-4" d="M87.36,97.33a23.51,23.51,0,1,1,23.51-23.51A23.54,23.54,0,0,1,87.36,97.33Zm0-44.55a21,21,0,1,0,21,21A21.07,21.07,0,0,0,87.36,52.78Z"/><path class="cls-4" d="M87.35,88.18a14.36,14.36,0,1,1,14.37-14.74h0a14.36,14.36,0,0,1-14,14.74Zm0-26.26h-.32a11.38,11.38,0,1,0,.32,0Z"/><path class="cls-4" d="M87.36,81.54a7.72,7.72,0,0,1-.2-15.44,7.72,7.72,0,0,1,7.92,7.52,7.73,7.73,0,0,1-7.52,7.92Zm0-13h-.14a5.25,5.25,0,0,0,.13,10.5h.14a5.26,5.26,0,0,0,5.11-5.39h0A5.18,5.18,0,0,0,91,70,5.24,5.24,0,0,0,87.37,68.57Z"/><polygon class="cls-4" points="86.52 71.56 69.41 54.8 69.41 54.72 69.47 52.31 66.04 48.88 65.93 53.1 65.91 53.11 61.75 53.3 65.05 56.6 67.65 56.48 67.93 56.47 84.95 73.13 83.5 74.58 90.56 77.03 87.98 70.1 86.52 71.56"/><polygon class="cls-3" points="38.85 132.2 5.12 73.78 45.15 4.45 125.27 4.45 156.8 57.69 159.21 56.26 126.86 1.65 43.54 1.65 6.64 65.57 1.89 73.78 36.43 133.6 43.5 145.92 126.03 145.92 126.03 143.12 45.12 143.12 38.85 132.2"/><path class="cls-1" d="M159.34,55.67a4.06,4.06,0,1,0,4,4.06A4.06,4.06,0,0,0,159.34,55.67Z"/><path class="cls-4" d="M163.13,59.36a4.06,4.06,0,1,1-4.06-4A4.06,4.06,0,0,1,163.13,59.36Z"/><path class="cls-3" d="M162.52,59.36a3.45,3.45,0,1,1-3.45-3.45A3.44,3.44,0,0,1,162.52,59.36Z"/><path class="cls-1" d="M156.21,59.36a3.45,3.45,0,0,1,3.16-3.43l-.3,0a3.45,3.45,0,1,0,0,6.9h.3A3.45,3.45,0,0,1,156.21,59.36Z"/></g></svg>