<svg xmlns="http://www.w3.org/2000/svg" width="474" height="306" viewBox="0 0 474 306">
  <g id="Group_7981" data-name="Group 7981" transform="translate(-12832 -6292)">
    <g id="Group_7969" data-name="Group 7969" transform="translate(13198.014 6444.765)" opacity="0.5">
      <path id="Path_20214" data-name="Path 20214" d="M388,150.1v2.09h-2.2V150.1Z" transform="translate(-385.8 -150.1)" fill="#b2cbea"/>
      <path id="Path_20215" data-name="Path 20215" d="M388,154.32v2.09h-2.2v-2.09Z" transform="translate(-385.8 -150.1)" fill="#b2cbea"/>
      <path id="Path_20216" data-name="Path 20216" d="M388,158.54v2.08h-2.2v-2.08Z" transform="translate(-385.8 -150.1)" fill="#b2cbea"/>
      <path id="Path_20217" data-name="Path 20217" d="M388,162.76v2.08h-2.2v-2.08Z" transform="translate(-385.8 -150.1)" fill="#b2cbea"/>
      <path id="Path_20218" data-name="Path 20218" d="M388,167v2.09h-2.2V167Z" transform="translate(-385.8 -150.1)" fill="#b2cbea"/>
      <path id="Path_20219" data-name="Path 20219" d="M388,171.19v2.09h-2.2v-2.09Z" transform="translate(-385.8 -150.1)" fill="#b2cbea"/>
      <path id="Path_20220" data-name="Path 20220" d="M388,175.41v2.08h-2.2v-2.08Z" transform="translate(-385.8 -150.1)" fill="#b2cbea"/>
      <path id="Path_20221" data-name="Path 20221" d="M388,179.63v2.08h-2.2v-2.08Z" transform="translate(-385.8 -150.1)" fill="#b2cbea"/>
      <path id="Path_20222" data-name="Path 20222" d="M388,183.85v2.08h-2.2v-2.08Z" transform="translate(-385.8 -150.1)" fill="#b2cbea"/>
      <path id="Path_20223" data-name="Path 20223" d="M388,188.06v2.09h-2.2v-2.09Z" transform="translate(-385.8 -150.1)" fill="#b2cbea"/>
      <path id="Path_20224" data-name="Path 20224" d="M388,192.28v2.09h-2.2v-2.09Z" transform="translate(-385.8 -150.1)" fill="#b2cbea"/>
      <path id="Path_20225" data-name="Path 20225" d="M388,196.5v2.08h-2.2V196.5Z" transform="translate(-385.8 -150.1)" fill="#b2cbea"/>
      <path id="Path_20226" data-name="Path 20226" d="M388,200.72v2.08h-2.2v-2.08Z" transform="translate(-385.8 -150.1)" fill="#b2cbea"/>
      <path id="Path_20227" data-name="Path 20227" d="M388,204.94V207h-2.2v-2.08Z" transform="translate(-385.8 -150.1)" fill="#b2cbea"/>
      <path id="Path_20228" data-name="Path 20228" d="M388,209.15v2.09h-2.2v-2.09Z" transform="translate(-385.8 -150.1)" fill="#b2cbea"/>
      <path id="Path_20229" data-name="Path 20229" d="M388,213.37v2.09h-2.2v-2.09Z" transform="translate(-385.8 -150.1)" fill="#b2cbea"/>
      <path id="Path_20230" data-name="Path 20230" d="M388,217.59v2.08h-2.2v-2.08Z" transform="translate(-385.8 -150.1)" fill="#b2cbea"/>
      <path id="Path_20231" data-name="Path 20231" d="M388,221.81v2.08h-2.2v-2.08Z" transform="translate(-385.8 -150.1)" fill="#b2cbea"/>
    </g>
    <g id="Group_7970" data-name="Group 7970" transform="translate(13204.646 6470.222)" opacity="0.5">
      <path id="Path_20232" data-name="Path 20232" d="M394.52,175.41v2.08h-2.15v-2.08Z" transform="translate(-392.37 -175.41)" fill="#b2cbea"/>
      <path id="Path_20233" data-name="Path 20233" d="M394.52,179.63v2.08h-2.15v-2.08Z" transform="translate(-392.37 -175.41)" fill="#b2cbea"/>
      <path id="Path_20234" data-name="Path 20234" d="M394.52,183.85v2.08h-2.15v-2.08Z" transform="translate(-392.37 -175.41)" fill="#b2cbea"/>
      <path id="Path_20235" data-name="Path 20235" d="M394.52,188.06v2.09h-2.15v-2.09Z" transform="translate(-392.37 -175.41)" fill="#b2cbea"/>
      <path id="Path_20236" data-name="Path 20236" d="M394.52,192.28v2.09h-2.15v-2.09Z" transform="translate(-392.37 -175.41)" fill="#b2cbea"/>
      <path id="Path_20237" data-name="Path 20237" d="M394.52,196.5v2.08h-2.15V196.5Z" transform="translate(-392.37 -175.41)" fill="#b2cbea"/>
      <path id="Path_20238" data-name="Path 20238" d="M394.52,200.72v2.08h-2.15v-2.08Z" transform="translate(-392.37 -175.41)" fill="#b2cbea"/>
      <path id="Path_20239" data-name="Path 20239" d="M394.52,204.94V207h-2.15v-2.08Z" transform="translate(-392.37 -175.41)" fill="#b2cbea"/>
      <path id="Path_20240" data-name="Path 20240" d="M394.52,209.15v2.09h-2.15v-2.09Z" transform="translate(-392.37 -175.41)" fill="#b2cbea"/>
      <path id="Path_20241" data-name="Path 20241" d="M394.52,213.37v2.09h-2.15v-2.09Z" transform="translate(-392.37 -175.41)" fill="#b2cbea"/>
      <path id="Path_20242" data-name="Path 20242" d="M394.52,217.59v2.08h-2.15v-2.08Z" transform="translate(-392.37 -175.41)" fill="#b2cbea"/>
      <path id="Path_20243" data-name="Path 20243" d="M394.52,221.81v2.08h-2.15v-2.08Z" transform="translate(-392.37 -175.41)" fill="#b2cbea"/>
    </g>
    <g id="Group_7971" data-name="Group 7971" transform="translate(13212.183 6444.765)" opacity="0.5">
      <path id="Path_20244" data-name="Path 20244" d="M401.21,150.1v2.09h-2.15V150.1Z" transform="translate(-399.06 -150.1)" fill="#b2cbea"/>
      <path id="Path_20245" data-name="Path 20245" d="M401.21,154.32v2.09h-2.15v-2.09Z" transform="translate(-399.06 -150.1)" fill="#b2cbea"/>
      <path id="Path_20246" data-name="Path 20246" d="M401.21,158.54v2.08h-2.15v-2.08Z" transform="translate(-399.06 -150.1)" fill="#b2cbea"/>
      <path id="Path_20247" data-name="Path 20247" d="M401.21,162.76v2.08h-2.15v-2.08Z" transform="translate(-399.06 -150.1)" fill="#b2cbea"/>
      <path id="Path_20248" data-name="Path 20248" d="M401.21,167v2.09h-2.15V167Z" transform="translate(-399.06 -150.1)" fill="#b2cbea"/>
      <path id="Path_20249" data-name="Path 20249" d="M401.21,171.19v2.09h-2.15v-2.09Z" transform="translate(-399.06 -150.1)" fill="#b2cbea"/>
      <path id="Path_20250" data-name="Path 20250" d="M401.21,175.41v2.08h-2.15v-2.08Z" transform="translate(-399.06 -150.1)" fill="#b2cbea"/>
      <path id="Path_20251" data-name="Path 20251" d="M401.21,179.63v2.08h-2.15v-2.08Z" transform="translate(-399.06 -150.1)" fill="#b2cbea"/>
      <path id="Path_20252" data-name="Path 20252" d="M401.21,183.85v2.08h-2.15v-2.08Z" transform="translate(-399.06 -150.1)" fill="#b2cbea"/>
      <path id="Path_20253" data-name="Path 20253" d="M401.21,188.06v2.09h-2.15v-2.09Z" transform="translate(-399.06 -150.1)" fill="#b2cbea"/>
      <path id="Path_20254" data-name="Path 20254" d="M401.21,192.28v2.09h-2.15v-2.09Z" transform="translate(-399.06 -150.1)" fill="#b2cbea"/>
      <path id="Path_20255" data-name="Path 20255" d="M401.21,196.5v2.08h-2.15V196.5Z" transform="translate(-399.06 -150.1)" fill="#b2cbea"/>
      <path id="Path_20256" data-name="Path 20256" d="M401.21,200.72v2.08h-2.15v-2.08Z" transform="translate(-399.06 -150.1)" fill="#b2cbea"/>
      <path id="Path_20257" data-name="Path 20257" d="M401.21,204.94V207h-2.15v-2.08Z" transform="translate(-399.06 -150.1)" fill="#b2cbea"/>
      <path id="Path_20258" data-name="Path 20258" d="M401.21,209.15v2.09h-2.15v-2.09Z" transform="translate(-399.06 -150.1)" fill="#b2cbea"/>
      <path id="Path_20259" data-name="Path 20259" d="M401.21,213.37v2.09h-2.15v-2.09Z" transform="translate(-399.06 -150.1)" fill="#b2cbea"/>
      <path id="Path_20260" data-name="Path 20260" d="M401.21,217.59v2.08h-2.15v-2.08Z" transform="translate(-399.06 -150.1)" fill="#b2cbea"/>
      <path id="Path_20261" data-name="Path 20261" d="M401.21,221.81v2.08h-2.15v-2.08Z" transform="translate(-399.06 -150.1)" fill="#b2cbea"/>
    </g>
    <g id="Group_7972" data-name="Group 7972" transform="translate(13217.915 6436.278)" opacity="0.5">
      <path id="Path_20262" data-name="Path 20262" d="M406.85,141.67v2.08H404.7v-2.08Z" transform="translate(-404.7 -141.67)" fill="#b2cbea"/>
      <path id="Path_20263" data-name="Path 20263" d="M406.85,145.88V148H404.7v-2.09Z" transform="translate(-404.7 -141.67)" fill="#b2cbea"/>
      <path id="Path_20264" data-name="Path 20264" d="M406.85,150.1v2.09H404.7V150.1Z" transform="translate(-404.7 -141.67)" fill="#b2cbea"/>
      <path id="Path_20265" data-name="Path 20265" d="M406.85,154.32v2.09H404.7v-2.09Z" transform="translate(-404.7 -141.67)" fill="#b2cbea"/>
      <path id="Path_20266" data-name="Path 20266" d="M406.85,158.54v2.08H404.7v-2.08Z" transform="translate(-404.7 -141.67)" fill="#b2cbea"/>
      <path id="Path_20267" data-name="Path 20267" d="M406.85,162.76v2.08H404.7v-2.08Z" transform="translate(-404.7 -141.67)" fill="#b2cbea"/>
      <path id="Path_20268" data-name="Path 20268" d="M406.85,167v2.09H404.7V167Z" transform="translate(-404.7 -141.67)" fill="#b2cbea"/>
      <path id="Path_20269" data-name="Path 20269" d="M406.85,171.19v2.09H404.7v-2.09Z" transform="translate(-404.7 -141.67)" fill="#b2cbea"/>
      <path id="Path_20270" data-name="Path 20270" d="M406.85,175.41v2.08H404.7v-2.08Z" transform="translate(-404.7 -141.67)" fill="#b2cbea"/>
      <path id="Path_20271" data-name="Path 20271" d="M406.85,179.63v2.08H404.7v-2.08Z" transform="translate(-404.7 -141.67)" fill="#b2cbea"/>
      <path id="Path_20272" data-name="Path 20272" d="M406.85,183.85v2.08H404.7v-2.08Z" transform="translate(-404.7 -141.67)" fill="#b2cbea"/>
      <path id="Path_20273" data-name="Path 20273" d="M406.85,188.06v2.09H404.7v-2.09Z" transform="translate(-404.7 -141.67)" fill="#b2cbea"/>
      <path id="Path_20274" data-name="Path 20274" d="M406.85,192.28v2.09H404.7v-2.09Z" transform="translate(-404.7 -141.67)" fill="#b2cbea"/>
      <path id="Path_20275" data-name="Path 20275" d="M406.85,196.5v2.08H404.7V196.5Z" transform="translate(-404.7 -141.67)" fill="#b2cbea"/>
      <path id="Path_20276" data-name="Path 20276" d="M406.85,200.72v2.08H404.7v-2.08Z" transform="translate(-404.7 -141.67)" fill="#b2cbea"/>
      <path id="Path_20277" data-name="Path 20277" d="M406.85,204.94V207H404.7v-2.08Z" transform="translate(-404.7 -141.67)" fill="#b2cbea"/>
      <path id="Path_20278" data-name="Path 20278" d="M406.85,209.15v2.09H404.7v-2.09Z" transform="translate(-404.7 -141.67)" fill="#b2cbea"/>
      <path id="Path_20279" data-name="Path 20279" d="M406.85,213.37v2.09H404.7v-2.09Z" transform="translate(-404.7 -141.67)" fill="#b2cbea"/>
      <path id="Path_20280" data-name="Path 20280" d="M406.85,217.59v2.08H404.7v-2.08Z" transform="translate(-404.7 -141.67)" fill="#b2cbea"/>
      <path id="Path_20281" data-name="Path 20281" d="M406.85,221.81v2.08H404.7v-2.08Z" transform="translate(-404.7 -141.67)" fill="#b2cbea"/>
    </g>
    <g id="Group_7973" data-name="Group 7973" transform="translate(13225.345 6474.464)" opacity="0.5">
      <path id="Path_20282" data-name="Path 20282" d="M414.28,179.63v2.08h-2.15v-2.08Z" transform="translate(-412.13 -179.63)" fill="#b2cbea"/>
      <path id="Path_20283" data-name="Path 20283" d="M414.28,183.85v2.08h-2.15v-2.08Z" transform="translate(-412.13 -179.63)" fill="#b2cbea"/>
      <path id="Path_20284" data-name="Path 20284" d="M414.28,188.06v2.09h-2.15v-2.09Z" transform="translate(-412.13 -179.63)" fill="#b2cbea"/>
      <path id="Path_20285" data-name="Path 20285" d="M414.28,192.28v2.09h-2.15v-2.09Z" transform="translate(-412.13 -179.63)" fill="#b2cbea"/>
      <path id="Path_20286" data-name="Path 20286" d="M414.28,196.5v2.08h-2.15V196.5Z" transform="translate(-412.13 -179.63)" fill="#b2cbea"/>
      <path id="Path_20287" data-name="Path 20287" d="M414.28,200.72v2.08h-2.15v-2.08Z" transform="translate(-412.13 -179.63)" fill="#b2cbea"/>
      <path id="Path_20288" data-name="Path 20288" d="M414.28,204.94V207h-2.15v-2.08Z" transform="translate(-412.13 -179.63)" fill="#b2cbea"/>
      <path id="Path_20289" data-name="Path 20289" d="M414.28,209.15v2.09h-2.15v-2.09Z" transform="translate(-412.13 -179.63)" fill="#b2cbea"/>
      <path id="Path_20290" data-name="Path 20290" d="M414.28,213.37v2.09h-2.15v-2.09Z" transform="translate(-412.13 -179.63)" fill="#b2cbea"/>
      <path id="Path_20291" data-name="Path 20291" d="M414.28,217.59v2.08h-2.15v-2.08Z" transform="translate(-412.13 -179.63)" fill="#b2cbea"/>
      <path id="Path_20292" data-name="Path 20292" d="M414.28,221.81v2.08h-2.15v-2.08Z" transform="translate(-412.13 -179.63)" fill="#b2cbea"/>
    </g>
    <path id="Path_20293" data-name="Path 20293" d="M118.78,231.16s24.15,5.06,22.93,9.5-26.5-7.58-26.5-7.58S96.57,249.75,94,258.25c0,0,27.22-3.86,25,.14s-30.42,9.33-30.42,9.33-12.8,19.71-1.57,28.37,19.85,5.76,22,2.92,10.25-23.24,12.66-21.62,1,17.07-4.58,23.73c0,0,24.32.2,27.85-11.31s-1.9-17.77.41-24.84,6.23-11.32,6.66-7.13-5.62,15.28-3.21,22.76,3.45,13.17,9.82,3.76S171.19,256,164.82,249l-.8-.87a4.53,4.53,0,0,1,.8.87c1.89-1.44,8.34-2.1,13.21-2.4a30.226,30.226,0,0,0,3.51-.17h0l1.65-.05c10.57.13,25.43,8.54,25.43,8.54l1.5-1.95c-13.76-11.4-30.26-8.24-30.26-8.24a45.44,45.44,0,0,1-21.42-2.7s-2.88-24.35-21.73-21.35C136.71,220.68,124.43,224.24,118.78,231.16Z" transform="translate(12839.896 6296.138)" fill="#d3e1f4"/>
    <path id="Path_20294" data-name="Path 20294" d="M457.19,18C450.75-5.78,410.67,1.64,410.67,1.64S383.45,43.21,375.53,44.2,391.86,4.11,391.86,4.11c-15.34-1.48-54.43,17.32-54.43,17.32s2.47,48.5-5.45,47.51,0-43,0-43c-14.84,4.45-28.7,21.77-28.7,21.77-17.32,28.21,19.8,49,19.8,49s.49,16.83-9.9,36.13h0a56.671,56.671,0,0,0-4.73,9.62h4.05c.33-1.08.69-2.13,1.09-3.14h0l1.17-2.6h0c1.23-2.42,2.07-4.21,2.6-5.5h0c3.71-7.6,9-17.5,12.6-19.58a8.093,8.093,0,0,1-.86-1.86c.27.6.56,1.21.86,1.86,6.93,14.85,41.57,17.32,60.87,13.36s10.89-9.4.5-18.24-32.17-6.5-38.6-10,3-6.92,15.83-5.93,19.3,13.85,40.09,15.83,36.62-37.11,36.62-37.11C431,73.89,405.22,66,404.23,61s37.12-4.45,43.06-5.93S463.62,41.72,457.19,18Z" transform="translate(12813.215 6291.832)" fill="#e0eaf7"/>
    <path id="Path_20295" data-name="Path 20295" d="M72.88,6.88c8.86-14.19,33.47-1.47,33.47-1.47s9.52,32.4,14.47,34.6-2.73-29.29-2.73-29.29c10.27,2.06,32,22,32,22s-11.16,31.05-5.82,32,8.48-28,8.48-28c8.78,5.82,14.38,19.81,14.38,19.81,5.71,21.76-22.52,28-22.52,28S141,95.3,143.94,109.9h0a39.239,39.239,0,0,1,1.18,7.19l-2.64-.8a18.73,18.73,0,0,0-.09-2.26h0a18.83,18.83,0,0,0-.25-1.92h0c-.32-1.82-.52-3.14-.61-4.09h0c-.91-5.67-2.43-13.16-4.34-15.21a5.09,5.09,0,0,0,.93-1l-.93,1C129.75,101,106.73,95.83,95,89.46s-5.23-8.26,3.27-12,22.2,2.1,27.07,1.11-.57-5.09-9.13-7S100.89,76.84,87,74,70.47,42.69,70.47,42.69c8.46,5.72,26.75,5.64,28.37,2.61S75.58,35.1,72,33,64,21.06,72.88,6.88Z" transform="translate(12808.75 6291.832)" fill="#d3e1f4"/>
    <path id="Path_20296" data-name="Path 20296" d="M281.37,5.25c-6.2-10.32-24.09-1.48-24.09-1.48S250,27,246.41,28.51s2.34-21.06,2.34-21.06c-7.42,1.35-23.33,15.43-23.33,15.43s7.64,22.51,3.78,23.1-5.75-20.28-5.75-20.28c-6.4,4.08-10.61,14.09-10.61,14.09-4.39,15.6,15.87,20.43,15.87,20.43a38.65,38.65,0,0,1,.16,18.34h0a28.171,28.171,0,0,0-1,5.16l1.91-.54a8.656,8.656,0,0,1,.1-1.62h0a12.4,12.4,0,0,1,.21-1.38h0c.26-1.31.41-2.26.49-2.94h0c.73-4.07,1.92-9.45,3.32-10.9a4,4,0,0,1-.65-.76l.65.76c5.25,6.07,21.89,2.61,30.46-1.83s3.87-5.89-2.21-8.66-16,1.23-19.51.46.47-3.66,6.67-4.91,10.94,3.95,21,2.1,12.3-22.37,12.3-22.37c-6.17,4-19.35,3.72-20.47,1.52s16.88-7,19.48-8.54S287.57,15.58,281.37,5.25Z" transform="translate(12810.885 6291.832)" fill="#e0eaf7"/>
    <path id="Path_20297" data-name="Path 20297" d="M231.83,147.84,219.66,292.56s-1.28,8.77,5.25,8.79h53.4s-8.07-1.83-8-5.94c.11-4.84,14.22-148.94,14.22-148.94Z" transform="translate(12810.926 6296.138)" fill="#c6ccd4"/>
    <path id="Path_20298" data-name="Path 20298" d="M281.78,298.72c-2.12,0-42.87.13-53.32,0-4.56-.06-5.35-4.05-5.39-6.63a12.763,12.763,0,0,1,.14-2.16l.31-3.76.81-9.58.71-8.47.92-10.89.77-9.19,8.65-102.83,52.73-1.37S282.16,204.15,278,248c-.47,4.89-.91,9.58-1.33,14-.13,1.4-.26,2.77-.38,4.1-.39,4.15-.75,8-1.06,11.33-.16,1.78-.32,3.43-.45,4.94-.54,5.92-.85,9.7-.86,10.42A6.2,6.2,0,0,0,274,294C274.85,298.57,281,298.72,281.78,298.72Z" transform="translate(12810.964 6296.138)" fill="#c6ccd4"/>
    <path id="Path_20299" data-name="Path 20299" d="M103.77,69.08l29.65,119.09,4.06,16.31,13.81,55.47H407.83L356.93,69.08Z" transform="translate(12810.943 6296.138)" fill="#d7d9dc"/>
    <path id="Path_20300" data-name="Path 20300" d="M103.77,69.08l-4.1,1.37,46.16,193.64,5.46-4.14Z" transform="translate(12809.585 6296.138)" fill="#d7d9dc"/>
    <path id="Path_20301" data-name="Path 20301" d="M145.83,264.09H400.79l7.04-4.14H151.29Z" transform="translate(12811.397 6296.138)" fill="#c6ccd4"/>
    <rect id="Rectangle_9070" data-name="Rectangle 9070" width="55.2" height="2.62" transform="translate(13101.604 6597.538) rotate(180)" fill="#c6ccd4"/>
    <path id="Path_20302" data-name="Path 20302" d="M395.4,224.78,353.77,71.61H104.4l-.63-2.53H356.93l41.49,155.36Z" transform="translate(12810.827 6293.864)" fill="#f0a350"/>
    <path id="Path_20303" data-name="Path 20303" d="M276.53,264.09l-.28,2.01-51.92,10.48.71-8.46.34-4.03Z" transform="translate(12810.911 6296.138)" fill="#d7d9dc"/>
    <path id="Path_20304" data-name="Path 20304" d="M281.78,298.72c-2.12,0-42.87.13-53.32,0-4.56-.06-5.35-4.05-5.39-6.63l51.67-9.72c-.54,5.92-.85,9.7-.86,10.42A6.2,6.2,0,0,0,274,294C274.85,298.57,281,298.72,281.78,298.72Z" transform="translate(12810.931 6296.138)" fill="#d7d9dc"/>
    <path id="Path_20305" data-name="Path 20305" d="M263.98,221.31,151.29,259.95l-13.81-55.47Z" transform="translate(12810.253 6296.138)" fill="#c6ccd4"/>
    <path id="Path_20306" data-name="Path 20306" d="M103.77,69.08H356.93l41.08,153.4H141.96Z" transform="translate(12810.822 6293.833)" fill="#729ad1"/>
    <ellipse id="Ellipse_553" data-name="Ellipse 553" cx="6.18" cy="7.51" rx="6.18" ry="7.51" transform="matrix(0.672, -0.741, 0.741, 0.672, 13081.031, 6536.746)" fill="#c6ccd4"/>
    <path id="Path_20307" data-name="Path 20307" d="M386.535,215.83H149.089L122.2,108.9l-2.064-8.2-1.753-7L114.26,77.3H348.28l4.528,16.4,1.923,7L357,108.9Z" transform="translate(12810.591 6293.867)" fill="#e4ecf8"/>
    <path id="Path_20308" data-name="Path 20308" d="M352.4,93.7H118.38l-4.12-16.4H347.88Z" transform="translate(12810.526 6292.996)" fill="#b2cbea"/>
    <path id="Path_20309" data-name="Path 20309" d="M123.92,84.71a1.55,1.55,0,0,1,1.54-2,2.81,2.81,0,0,1,2.57,2,1.55,1.55,0,0,1-1.54,2.05,2.8,2.8,0,0,1-2.57-2.05Z" transform="translate(12809.731 6293.025)" fill="#eaf2fb"/>
    <path id="Path_20310" data-name="Path 20310" d="M130.74,84.71a1.55,1.55,0,0,1,1.54-2,2.8,2.8,0,0,1,2.56,2,1.55,1.55,0,0,1-1.54,2.05A2.79,2.79,0,0,1,130.74,84.71Z" transform="translate(12809.796 6293.025)" fill="#eaf2fb"/>
    <path id="Path_20311" data-name="Path 20311" d="M138.07,84.71a1.55,1.55,0,0,1,1.54-2,2.8,2.8,0,0,1,2.56,2,1.54,1.54,0,0,1-1.54,2.05,2.8,2.8,0,0,1-2.56-2.05Z" transform="translate(12809.865 6293.025)" fill="#eaf2fb"/>
    <path id="Path_20312" data-name="Path 20312" d="M333.85,206.35H158.28L131.56,101.49H304.65Z" transform="translate(12810.576 6294.048)" fill="#ccdef3"/>
    <path id="Path_20313" data-name="Path 20313" d="M356.56,125.89h-39.8l-7.27-24.4h40.27Z" transform="translate(12811.777 6293.405)" fill="#d3e1f4"/>
    <path id="Path_20314" data-name="Path 20314" d="M249.2,111.7H226.43l-.94-3.51h22.77Z" transform="translate(12810.784 6293.392)" fill="#1c478a"/>
    <path id="Path_20315" data-name="Path 20315" d="M289.57,111.7H252.32l-.94-3.51h37.25Z" transform="translate(12811.118 6293.392)" fill="#7caadb"/>
    <path id="Path_20316" data-name="Path 20316" d="M253.03,121.16H212.65l-.94-3.51h40.38Z" transform="translate(12810.726 6293.528)" fill="#7caadb"/>
    <path id="Path_20317" data-name="Path 20317" d="M277.59,121.16H256.66l-.94-3.51h20.93Z" transform="translate(12811.076 6293.528)" fill="#f0a350"/>
    <path id="Path_20318" data-name="Path 20318" d="M256.07,137.44H233.3l-.93-3.51h22.76Z" transform="translate(12810.853 6293.764)" fill="#729ad1"/>
    <path id="Path_20319" data-name="Path 20319" d="M296.44,137.44H259.19l-.94-3.51H295.5Z" transform="translate(12811.189 6293.764)" fill="#7caadb"/>
    <path id="Path_20320" data-name="Path 20320" d="M259.9,146.9H219.52l-.94-3.51h40.38Z" transform="translate(12810.796 6293.899)" fill="#fff"/>
    <path id="Path_20321" data-name="Path 20321" d="M284.46,146.9H263.53l-.94-3.51h20.93Z" transform="translate(12811.145 6293.899)" fill="#fff"/>
    <path id="Path_20322" data-name="Path 20322" d="M235.45,161.54H158.41l-.93-3.51h77.03Z" transform="translate(12810.295 6294.112)" fill="#1c478a"/>
    <path id="Path_20323" data-name="Path 20323" d="M263.14,161.54H240.37l-.93-3.51H262.2Z" transform="translate(12810.923 6294.112)" fill="#729ad1"/>
    <path id="Path_20324" data-name="Path 20324" d="M303.51,161.54H266.26l-.94-3.51h37.25Z" transform="translate(12811.263 6294.112)" fill="#7caadb"/>
    <path id="Path_20325" data-name="Path 20325" d="M183.71,171H160.94l-.94-3.51h22.77Z" transform="translate(12810.134 6294.249)" fill="#fff"/>
    <path id="Path_20326" data-name="Path 20326" d="M266.97,171H226.59l-.94-3.51h40.38Z" transform="translate(12810.869 6294.249)" fill="#f0a350"/>
    <path id="Path_20327" data-name="Path 20327" d="M224.08,171H186.83l-.94-3.51h37.25Z" transform="translate(12810.446 6294.249)" fill="#7caadb"/>
    <path id="Path_20328" data-name="Path 20328" d="M291.53,171H270.6l-.94-3.51h20.93Z" transform="translate(12811.215 6294.249)" fill="#7caadb"/>
    <path id="Path_20329" data-name="Path 20329" d="M244.19,187.65H167.16l-.94-3.51h77.04Z" transform="translate(12810.394 6294.489)" fill="#1c478a"/>
    <path id="Path_20330" data-name="Path 20330" d="M271.88,187.65H249.12l-.94-3.51h22.77Z" transform="translate(12811.011 6294.489)" fill="#729ad1"/>
    <path id="Path_20331" data-name="Path 20331" d="M192.45,197.11H169.69l-.94-3.51h22.77Z" transform="translate(12810.221 6294.625)" fill="#fff"/>
    <path id="Path_20332" data-name="Path 20332" d="M275.71,197.11H235.33l-.93-3.51h40.37Z" transform="translate(12810.96 6294.625)" fill="#f0a350"/>
    <path id="Path_20333" data-name="Path 20333" d="M232.82,197.11H195.57l-.93-3.51h37.24Z" transform="translate(12810.536 6294.625)" fill="#7caadb"/>
    <path id="Path_20334" data-name="Path 20334" d="M300.27,197.11H279.34l-.93-3.51h20.93Z" transform="translate(12811.301 6294.625)" fill="#7caadb"/>
    <path id="Path_20335" data-name="Path 20335" d="M336.75,133.44l-17.52.05-.38-1.59,17.51-.05Z" transform="translate(12811.676 6293.722)" fill="#7caadb"/>
    <path id="Path_20336" data-name="Path 20336" d="M345.98,133.41l-6.58.02-.39-1.59,6.58-.02Z" transform="translate(12811.801 6293.721)" fill="#7caadb"/>
    <path id="Path_20337" data-name="Path 20337" d="M359.33,133.37l-11.64.03-.39-1.59,11.64-.03Z" transform="translate(12811.914 6293.721)" fill="#7caadb"/>
    <path id="Path_20338" data-name="Path 20338" d="M329.81,137.48l-9.6.03-.38-1.59,9.6-.03Z" transform="translate(12811.635 6293.779)" fill="#7caadb"/>
    <path id="Path_20339" data-name="Path 20339" d="M343.81,137.44l-12.39.04-.39-1.59,12.4-.04Z" transform="translate(12811.762 6293.778)" fill="#7caadb"/>
    <path id="Path_20340" data-name="Path 20340" d="M360.31,137.39l-14.21.04-.39-1.59,14.21-.04Z" transform="translate(12811.916 6293.778)" fill="#7caadb"/>
    <path id="Path_20341" data-name="Path 20341" d="M338.84,142.03l-17.51.05-.39-1.59,17.51-.05Z" transform="translate(12811.696 6293.845)" fill="#7caadb"/>
    <path id="Path_20342" data-name="Path 20342" d="M348.08,142l-6.59.02-.39-1.59,6.59-.02Z" transform="translate(12811.821 6293.844)" fill="#7caadb"/>
    <path id="Path_20343" data-name="Path 20343" d="M361.42,141.96l-11.63.04-.39-1.6,11.64-.03Z" transform="translate(12811.935 6293.844)" fill="#7caadb"/>
    <path id="Path_20344" data-name="Path 20344" d="M331.91,146.07l-9.6.03-.39-1.59,9.6-.03Z" transform="translate(12811.655 6293.902)" fill="#7caadb"/>
    <path id="Path_20345" data-name="Path 20345" d="M345.91,146.03l-12.4.04-.39-1.59,12.4-.04Z" transform="translate(12811.782 6293.902)" fill="#7caadb"/>
    <path id="Path_20346" data-name="Path 20346" d="M362.4,145.98l-14.21.04-.38-1.59,14.21-.04Z" transform="translate(12811.937 6293.901)" fill="#7caadb"/>
    <path id="Path_20347" data-name="Path 20347" d="M325.11,104.88l-10.55.03-.23-.96,10.54-.03Z" transform="translate(12811.587 6293.317)" fill="#fff"/>
    <path id="Path_20348" data-name="Path 20348" d="M330.67,104.86l-3.97.01-.23-.95,3.97-.02Z" transform="translate(12811.663 6293.317)" fill="#fff"/>
    <path id="Path_20349" data-name="Path 20349" d="M338.71,104.83l-7.01.03-.24-.96,7.01-.02Z" transform="translate(12811.729 6293.316)" fill="#fff"/>
    <path id="Path_20350" data-name="Path 20350" d="M320.93,107.31l-5.78.02-.23-.96,5.78-.01Z" transform="translate(12811.563 6293.353)" fill="#fff"/>
    <path id="Path_20351" data-name="Path 20351" d="M329.36,107.29l-7.46.02-.24-.96,7.47-.02Z" transform="translate(12811.639 6293.352)" fill="#fff"/>
    <path id="Path_20352" data-name="Path 20352" d="M339.3,107.26l-8.56.02-.23-.95,8.55-.03Z" transform="translate(12811.73 6293.352)" fill="#fff"/>
    <path id="Path_20353" data-name="Path 20353" d="M326.37,110.05l-10.55.03-.23-.95,10.54-.04Z" transform="translate(12811.599 6293.392)" fill="#fff"/>
    <path id="Path_20354" data-name="Path 20354" d="M331.93,110.03l-3.97.02-.23-.96,3.97-.01Z" transform="translate(12811.675 6293.392)" fill="#fff"/>
    <path id="Path_20355" data-name="Path 20355" d="M339.97,110.01l-7.01.02-.23-.96,7-.02Z" transform="translate(12811.742 6293.391)" fill="#fff"/>
    <path id="Path_20356" data-name="Path 20356" d="M322.19,112.49l-5.78.02-.23-.96,5.78-.02Z" transform="translate(12811.576 6293.427)" fill="#fff"/>
    <path id="Path_20357" data-name="Path 20357" d="M330.62,112.46l-7.46.02-.24-.95,7.47-.03Z" transform="translate(12811.65 6293.426)" fill="#fff"/>
    <path id="Path_20358" data-name="Path 20358" d="M340.56,112.43l-8.56.03-.23-.96,8.55-.03Z" transform="translate(12811.743 6293.426)" fill="#fff"/>
    <path id="Path_20359" data-name="Path 20359" d="M342.42,156.71l-17.51.05-.39-1.59,17.51-.05Z" transform="translate(12811.731 6294.056)" fill="#7caadb"/>
    <path id="Path_20360" data-name="Path 20360" d="M351.65,156.68l-6.58.02-.39-1.59,6.59-.02Z" transform="translate(12811.854 6294.055)" fill="#7caadb"/>
    <path id="Path_20361" data-name="Path 20361" d="M365,156.64l-11.64.04-.38-1.59,11.63-.04Z" transform="translate(12811.97 6294.055)" fill="#7caadb"/>
    <path id="Path_20362" data-name="Path 20362" d="M335.49,160.76l-9.6.02-.39-1.59,9.6-.03Z" transform="translate(12811.689 6294.114)" fill="#7caadb"/>
    <path id="Path_20363" data-name="Path 20363" d="M349.49,160.71l-12.4.04-.39-1.59,12.4-.04Z" transform="translate(12811.816 6294.113)" fill="#7caadb"/>
    <path id="Path_20364" data-name="Path 20364" d="M365.98,160.66l-14.21.05-.39-1.59,14.21-.05Z" transform="translate(12811.972 6294.113)" fill="#7caadb"/>
    <path id="Path_20365" data-name="Path 20365" d="M345.93,171.1l-17.52.05-.38-1.59,17.51-.05Z" transform="translate(12811.766 6294.262)" fill="#7caadb"/>
    <path id="Path_20366" data-name="Path 20366" d="M355.16,171.07l-6.58.02-.39-1.59,6.58-.02Z" transform="translate(12811.888 6294.261)" fill="#7caadb"/>
    <path id="Path_20367" data-name="Path 20367" d="M368.51,171.03l-11.64.03-.39-1.59,11.64-.03Z" transform="translate(12812.003 6294.261)" fill="#7caadb"/>
    <path id="Path_20368" data-name="Path 20368" d="M339,175.15l-9.61.02-.38-1.59,9.6-.03Z" transform="translate(12811.724 6294.32)" fill="#7caadb"/>
    <path id="Path_20369" data-name="Path 20369" d="M352.99,175.1l-12.39.04-.39-1.59,12.4-.04Z" transform="translate(12811.851 6294.32)" fill="#7caadb"/>
    <path id="Path_20370" data-name="Path 20370" d="M369.49,175.05l-14.21.04-.39-1.59,14.21-.04Z" transform="translate(12812.006 6294.319)" fill="#7caadb"/>
    <path id="Path_20371" data-name="Path 20371" d="M349.09,184.06l-17.52.06-.38-1.59,17.51-.06Z" transform="translate(12811.797 6294.449)" fill="#7caadb"/>
    <path id="Path_20372" data-name="Path 20372" d="M358.32,184.03l-6.58.02-.39-1.59,6.58-.02Z" transform="translate(12811.918 6294.448)" fill="#7caadb"/>
    <path id="Path_20373" data-name="Path 20373" d="M371.67,183.99l-11.64.04-.39-1.59,11.64-.04Z" transform="translate(12812.034 6294.447)" fill="#7caadb"/>
    <path id="Path_20374" data-name="Path 20374" d="M342.15,188.11l-9.6.03-.38-1.59,9.6-.03Z" transform="translate(12811.754 6294.506)" fill="#7caadb"/>
    <path id="Path_20375" data-name="Path 20375" d="M356.15,188.06l-12.4.04-.38-1.59,12.4-.04Z" transform="translate(12811.882 6294.505)" fill="#7caadb"/>
    <path id="Path_20376" data-name="Path 20376" d="M372.65,188.01l-14.21.05-.39-1.59,14.21-.05Z" transform="translate(12812.036 6294.505)" fill="#7caadb"/>
    <path id="Path_20377" data-name="Path 20377" d="M357.34,203.34a7.37,7.37,0,0,1-6.6-5.1c-.82-2.81.8-5.1,3.62-5.1a7.37,7.37,0,0,1,6.59,5.1C361.77,201.05,360.15,203.34,357.34,203.34Zm-2.71-9.27c-2.3,0-3.63,1.87-3,4.17a6,6,0,0,0,5.39,4.17c2.3,0,3.63-1.87,3-4.17a6,6,0,0,0-5.39-4.17Z" transform="translate(12811.936 6294.683)" fill="#a8d29f"/>
    <path id="Path_20378" data-name="Path 20378" d="M356.5,200.84a1.1,1.1,0,0,1-.57-.24l-2.86-2.29a.84.84,0,0,1-.3-1.1.77.77,0,0,1,1.1,0l2,1.62,1-2.4a.664.664,0,0,1,1-.17,1,1,0,0,1,.49,1.09L357,200.5a.58.58,0,0,1-.49.32Z" transform="translate(12811.923 6294.673)" fill="#a8d29f"/>
    <path id="Path_20379" data-name="Path 20379" d="M371.43,203.34a7.37,7.37,0,0,1-6.6-5.1c-.82-2.81.8-5.1,3.62-5.1a7.37,7.37,0,0,1,6.59,5.1C375.86,201.05,374.24,203.34,371.43,203.34Zm-2.71-9.27c-2.3,0-3.63,1.87-3,4.17a6,6,0,0,0,5.39,4.17c2.3,0,3.63-1.87,3-4.17A6,6,0,0,0,368.72,194.07Z" transform="translate(12812.072 6294.683)" fill="#f0a350"/>
    <path id="Path_20380" data-name="Path 20380" d="M370.18,199.08h0a1,1,0,0,1-.93-.73l-.64-2.16a.53.53,0,0,1,.52-.73h0a1.06,1.06,0,0,1,.93.73l.63,2.16a.53.53,0,0,1-.51.73Z" transform="translate(12812.05 6294.653)" fill="#f0a350"/>
    <path id="Path_20381" data-name="Path 20381" d="M370.75,200.78h-.15a.92.92,0,0,1-.83-.65h0a.46.46,0,0,1,.45-.64h.16a.93.93,0,0,1,.83.64h0a.47.47,0,0,1-.46.65Z" transform="translate(12812.056 6294.689)" fill="#f0a350"/>
    <path id="Path_20382" data-name="Path 20382" d="M341.64,123.54a4,4,0,0,1-3.62-2.8,2,2,0,0,1,2-2.8,4,4,0,0,1,3.62,2.8,2,2,0,0,1-2,2.8Zm-1.49-5.09a1.66,1.66,0,0,0-1.62,2.29,3.32,3.32,0,0,0,3,2.29,1.66,1.66,0,0,0,1.62-2.29,3.32,3.32,0,0,0-3-2.29Z" transform="translate(12811.783 6293.544)" fill="#a8d29f"/>
    <path id="Path_20383" data-name="Path 20383" d="M341.18,122.16a.52.52,0,0,1-.32-.13l-1.57-1.25a.47.47,0,0,1-.16-.61.44.44,0,0,1,.61,0l1.11.89.57-1.32c.08-.19.33-.23.56-.09a.51.51,0,0,1,.27.59L341.5,122a.28.28,0,0,1-.26.17Z" transform="translate(12811.776 6293.551)" fill="#a8d29f"/>
    <path id="Path_20384" data-name="Path 20384" d="M333.63,123.54a4.06,4.06,0,0,1-3.62-2.8,2,2,0,0,1,2-2.8,4,4,0,0,1,3.61,2.8,2,2,0,0,1-1.99,2.8Zm-1.49-5.09a1.65,1.65,0,0,0-1.61,2.29,3.29,3.29,0,0,0,3,2.29,1.66,1.66,0,0,0,1.62-2.29,3.31,3.31,0,0,0-3.01-2.29Z" transform="translate(12811.706 6293.544)" fill="#a8d29f"/>
    <path id="Path_20385" data-name="Path 20385" d="M333.17,122.16a.5.5,0,0,1-.31-.13l-1.57-1.25a.46.46,0,0,1-.16-.61.42.42,0,0,1,.6,0l1.11.89.57-1.32c.08-.19.34-.23.57-.09a.49.49,0,0,1,.26.59L333.5,122a.29.29,0,0,1-.27.17Z" transform="translate(12811.7 6293.551)" fill="#a8d29f"/>
    <path id="Path_20386" data-name="Path 20386" d="M325.34,123.54a4,4,0,0,1-3.62-2.8,2,2,0,0,1,2-2.8,4.06,4.06,0,0,1,3.62,2.8,2,2,0,0,1-2,2.8Zm-1.49-5.09a1.66,1.66,0,0,0-1.62,2.29,3.32,3.32,0,0,0,3,2.29,1.66,1.66,0,0,0,1.62-2.29A3.32,3.32,0,0,0,323.85,118.45Z" transform="translate(12811.627 6293.544)" fill="#a8d29f"/>
    <path id="Path_20387" data-name="Path 20387" d="M324.88,122.16a.52.52,0,0,1-.32-.13L323,120.78a.47.47,0,0,1-.16-.61.454.454,0,0,1,.61,0l1.11.89.57-1.32c.08-.19.33-.23.56-.09a.51.51,0,0,1,.27.59L325.2,122a.28.28,0,0,1-.26.17Z" transform="translate(12811.621 6293.551)" fill="#a8d29f"/>
    <path id="Path_20388" data-name="Path 20388" d="M349.36,123.54a4,4,0,0,1-3.61-2.8,2,2,0,0,1,2-2.8,4,4,0,0,1,3.61,2.8,2,2,0,0,1-2,2.8Zm-1.48-5.09a1.66,1.66,0,0,0-1.62,2.29,3.31,3.31,0,0,0,2.95,2.29,1.66,1.66,0,0,0,1.62-2.29,3.31,3.31,0,0,0-2.95-2.29Z" transform="translate(12811.856 6293.544)" fill="#f0a350"/>
    <path id="Path_20389" data-name="Path 20389" d="M348.68,121.2h0a.57.57,0,0,1-.51-.4l-.35-1.19a.29.29,0,0,1,.28-.39h0a.57.57,0,0,1,.51.39l.35,1.19a.29.29,0,0,1-.28.4Z" transform="translate(12811.846 6293.542)" fill="#f0a350"/>
    <path id="Path_20390" data-name="Path 20390" d="M349,122.13h-.08a.52.52,0,0,1-.46-.35h0a.26.26,0,0,1,.25-.36h.09a.5.5,0,0,1,.45.36h0a.25.25,0,0,1-.25.35Z" transform="translate(12811.85 6293.566)" fill="#f0a350"/>
    <g id="Group_7980" data-name="Group 7980" transform="translate(12832 6424.351)">
      <path id="Path_20391" data-name="Path 20391" d="M61.85,201.06s4.22,1.08,6.9.27,7.3.52,8,1.5.47,1.36-.86,1.7-6,2.34-9.11,1.18a24.6,24.6,0,0,0-7.12-1.2Z" transform="translate(-0.25 -129.603)" fill="#e59a64"/>
      <path id="Path_20392" data-name="Path 20392" d="M25.39,164.41s4.74,33.68,12.59,36.7c3.87,1.49,21,4.86,26,5.2,0,0,1.24-1,.94-5.1,0,0-17.93-6.58-20.47-10.16-3.8-5.33,2.35-21.76-2.41-26.77S29.31,157.13,25.39,164.41Z" transform="translate(-0.25 -129.826)" fill="#5074b9"/>
      <rect id="Rectangle_9071" data-name="Rectangle 9071" width="6.55" height="57.35" rx="3.275" transform="translate(32.3 169.727) rotate(180)" fill="#2b488c"/>
      <path id="Path_20393" data-name="Path 20393" d="M9.05,301.72c2.12-4.39,10.37-7.66,20.22-7.66s18.11,3.27,20.23,7.66Z" transform="translate(-0.25 -128.213)" fill="#2b488c"/>
      <rect id="Rectangle_9072" data-name="Rectangle 9072" width="30.81" height="2.31" rx="1.155" transform="translate(44.43 158.627) rotate(180)" fill="#2b488c"/>
      <path id="Path_20394" data-name="Path 20394" d="M27,235.37A58.819,58.819,0,0,0,31.62,242c5.09,6.43,10.63,11.73,11.6,16.74a22.162,22.162,0,0,0,.9,3.21c.4,1.15.9,2.36,1.47,3.6a111.212,111.212,0,0,0,8.62,14.74C59.79,288.55,65,295.45,65,295.45l9.62-.41c-.39-1-4.58-12.38-10.2-26.33-2.28-5.66-4.7-11.69-7-17.49l-.93-2.32c-.71-1.78-1.42-3.52-2.1-5.23-5.27-13.1-9.47-23.52-9.47-23.52s-21.07-8-23.25-2.81C19.86,221.6,21.33,225.78,27,235.37Z" transform="translate(-0.25 -128.213)" fill="#183660"/>
      <path id="Path_20395" data-name="Path 20395" d="M65.34,293.7s.49,7.93,2,8.05h7.79l9.68-.05A3.14,3.14,0,0,0,82,298.88c-2.84-.49-7.57-2.48-9.29-6.22C70.86,288.72,65.34,293.7,65.34,293.7Z" transform="translate(-0.25 -128.213)" fill="#183660"/>
      <path id="Path_20396" data-name="Path 20396" d="M43.06,271s-6.69,4.3-6,5.69c.09.19,3.78,6.81,3.78,6.81l4.73,8.5a3.13,3.13,0,0,0,1.06-3.9c-1-2.72-1.52-7.82.91-11.14C50.1,273.41,43.06,271,43.06,271Z" transform="translate(-0.25 -128.213)" fill="#183660"/>
      <path id="Path_20397" data-name="Path 20397" d="M52.48,216.59s26.08,16.24,29,27.31-35.17,34.68-35.17,34.68-4.19-3.69-4.92-6.4c0,0,17.23-20.64,21-25.27,2.29-2.84-33.95-9.84-38.37-16.73s-2.85-12.68-2.85-12.68Z" transform="translate(-0.25 -128.213)" fill="#1c478a"/>
      <rect id="Rectangle_9073" data-name="Rectangle 9073" width="58.05" height="14.76" rx="7.38" transform="translate(58.05 123.303) rotate(180)" fill="#a07960"/>
      <path id="Path_20398" data-name="Path 20398" d="M39.89,158.64a14.92,14.92,0,0,1,4,3.65c-6.34,1.64-16.84-4.23-16.84-4.23a15.53,15.53,0,0,0,5.59-8.76c.08-.31.15-.62.21-.94a18.57,18.57,0,0,0,.34-3.29l2.91,2.61L41,152a41,41,0,0,1-.72,4.89Q40.1,157.71,39.89,158.64Z" transform="translate(-0.25 -130.323)" fill="#e59a64"/>
      <path id="Path_20399" data-name="Path 20399" d="M20.38,188.55c.9,12.2-.29,30.76.74,34,.89,2.78,11,1.13,15.05.2,1.49-.34,3.3-.83,5.17-1.41,5.22-1.62,10.91-3.92,11.52-5.64a1.33,1.33,0,0,0,0-.19,1.46,1.46,0,0,0,0-.72,12.5,12.5,0,0,1-1.08-4c-.1-2.41-.08-5.25-.17-8.31V201.1c-.08-3.41-.26-7-.47-10.55-.13-2.23-.28-4.44-.46-6.56a87.12,87.12,0,0,0-1.88-13.4,21.46,21.46,0,0,0-6.91-10.67l-1.93-1.65a11.16,11.16,0,0,1-7-.93c-2.49-1.18-3.35-2-3.78-1.71C23.43,160.05,19.3,173.63,20.38,188.55Z" transform="translate(-0.25 -129.649)" fill="#7a97cd"/>
      <path id="Path_20400" data-name="Path 20400" d="M41.34,221.31c5.22-1.62,10.91-3.92,11.52-5.64a1.33,1.33,0,0,0,0-.19q0-.36,0-.72a12.5,12.5,0,0,1-1.08-4c-.1-2.41-.08-5.25-.17-8.31v-1.38L31.9,192.13S30.75,208,41.34,221.31Z" transform="translate(-0.25 -129.486)" fill="#5074b9"/>
      <path id="Path_20401" data-name="Path 20401" d="M41,152a41,41,0,0,1-.72,4.89c-4.72-1.52-6.86-5.79-7.58-7.6-.2-.51-.29-.83-.29-.83l.5-.11,3.25-.68Z" transform="translate(-0.25 -130.347)" fill="#d58d5c"/>
      <path id="Path_20402" data-name="Path 20402" d="M42.88,152s-10.38,1.17-11-5.3-2.4-10.7,4.2-11.7,8.13,1.33,8.87,3.44S45.57,151.49,42.88,152Z" transform="translate(-0.25 -130.481)" fill="#e59a64"/>
      <path id="Path_20403" data-name="Path 20403" d="M31.92,147.1A10.66,10.66,0,0,1,42,137.62c6.48-.61,2.87-6.18,2.18-7.07,0,0-5,.68-10,1.52C23.49,133.83,30.87,145.77,31.92,147.1Z" transform="translate(-0.25 -130.55)" fill="#2b488c"/>
      <rect id="Rectangle_9074" data-name="Rectangle 9074" width="0.96" height="25.02" transform="translate(83.124 80.263) rotate(-161.928)" fill="#5074b9"/>
      <rect id="Rectangle_9075" data-name="Rectangle 9075" width="26.25" height="1.57" transform="translate(82.529 80.287) rotate(-178.854)" fill="#5074b9"/>
      <path id="Path_20404" data-name="Path 20404" d="M59.68,206.23s4.07,1.55,6.83,1,7.19,1.32,7.82,2.37.32,1.41-1,1.6-6.24,1.66-9.19.17a24.711,24.711,0,0,0-6.93-2Z" transform="translate(-0.25 -129.52)" fill="#e59a64"/>
      <path id="Path_20405" data-name="Path 20405" d="M27.48,165.79s1,34,8.47,37.86c3.68,1.91,20.31,7.15,25.31,8,0,0,1.34-.87,1.49-5,0,0-17.09-8.52-19.23-12.36-3.18-5.71,4.74-21.37.57-26.86S32.19,159,27.48,165.79Z" transform="translate(-0.25 -129.755)" fill="#7a97cd"/>
    </g>
    <path id="Path_20406" data-name="Path 20406" d="M425.34,86.85H262.62L250.14,46.01H412.87Z" transform="translate(12813.215 6292.589)" fill="#fafdff"/>
    <path id="Path_20407" data-name="Path 20407" d="M406.68,59.82l1.49,4.89c.65,2.15-.57,3.91-2.72,3.91H270.64a5.75,5.75,0,0,1-5.1-3.91l-1.49-4.89c-.66-2.15.56-3.9,2.71-3.9H401.57a5.76,5.76,0,0,1,5.11,3.9Z" transform="translate(12812.057 6292.662)" fill="#bad4ef"/>
    <path id="Path_20408" data-name="Path 20408" d="M379.68,60.84h-2.07l-.19-.63h2.89l.16.54-.76,3.57h-.81Z" transform="translate(12812.141 6292.7)" fill="#729ad1"/>
    <path id="Path_20409" data-name="Path 20409" d="M381.44,62.27c-.36-1.18.07-2.13,1.15-2.13A2.8,2.8,0,0,1,385,62.27c.36,1.17-.07,2.12-1.15,2.12a2.82,2.82,0,0,1-2.41-2.12Zm2.84,0c-.25-.82-.87-1.48-1.5-1.48s-.84.65-.59,1.48.86,1.47,1.5,1.47S384.53,63.09,384.28,62.27Z" transform="translate(12812.183 6292.7)" fill="#729ad1"/>
    <path id="Path_20410" data-name="Path 20410" d="M385.33,61.21c-.18-.57.07-1.05.65-1.05a1.43,1.43,0,0,1,1.28,1.05c.18.57-.07,1.06-.65,1.06a1.43,1.43,0,0,1-1.28-1.06Zm3.11-1H389l-1.76,4.11h-.58Zm-1.7,1a.78.78,0,0,0-.63-.6c-.28,0-.36.27-.26.6a.77.77,0,0,0,.63.6c.28,0,.36-.27.26-.6Zm1.71,2.11c-.17-.57.08-1,.66-1a1.43,1.43,0,0,1,1.28,1c.18.57-.07,1.05-.65,1.05a1.46,1.46,0,0,1-1.29-1.05Zm1.42,0a.78.78,0,0,0-.64-.6c-.27,0-.35.27-.25.6a.78.78,0,0,0,.63.6c.28,0,.39-.27.26-.6Z" transform="translate(12812.23 6292.7)" fill="#729ad1"/>
    <path id="Path_20411" data-name="Path 20411" d="M357.92,55.92l3.88,12.7H270.64A5.76,5.76,0,0,1,266,65.75a4.779,4.779,0,0,1-.46-1l-1.49-4.89c-.66-2.15.56-3.9,2.71-3.9Z" transform="translate(12811.646 6292.662)" fill="#f89748"/>
    <path id="Path_20412" data-name="Path 20412" d="M282.9,55.92l-3.85,12.7h-8.41A5.76,5.76,0,0,1,266,65.75l3-9.83Z" transform="translate(12811.151 6292.662)" fill="#ec7e2a"/>
    <path id="Path_20413" data-name="Path 20413" d="M306.75,55.91l-3.84,12.7H288.99l3.84-12.7Z" transform="translate(12811.381 6292.662)" fill="#ec7e2a"/>
    <path id="Path_20414" data-name="Path 20414" d="M330.61,55.91l-3.84,12.7H312.84l3.85-12.7Z" transform="translate(12811.616 6292.662)" fill="#ec7e2a"/>
    <path id="Path_20415" data-name="Path 20415" d="M354.47,55.91l-3.84,12.7H336.7l3.85-12.7Z" transform="translate(12811.851 6292.662)" fill="#ec7e2a"/>
    <path id="Path_20416" data-name="Path 20416" d="M295.36,76.14H271.02l-.52-1.68h24.35Z" transform="translate(12811.239 6292.898)" fill="#b2cbea"/>
    <path id="Path_20417" data-name="Path 20417" d="M290.14,80.83H272.45l-.51-1.67h17.69Z" transform="translate(12811.217 6292.966)" fill="#b2cbea"/>
    <path id="Path_20418" data-name="Path 20418" d="M301.81,80.83H291.23l-.51-1.67h10.57Z" transform="translate(12811.36 6292.966)" fill="#b2cbea"/>
    <path id="Path_20419" data-name="Path 20419" d="M319.79,80.83H303.64l-.52-1.67h16.16Z" transform="translate(12811.514 6292.966)" fill="#b2cbea"/>
    <path id="Path_20420" data-name="Path 20420" d="M304.57,76.14h-7.38l-.51-1.68h7.37Z" transform="translate(12811.399 6292.898)" fill="#b2cbea"/>
    <path id="Path_20421" data-name="Path 20421" d="M333.9,76.14H307.09l-.51-1.68h26.8Z" transform="translate(12811.614 6292.898)" fill="#b2cbea"/>
    <path id="Path_20422" data-name="Path 20422" d="M205.7,148.49H91.22L73.43,90.22H187.91Z" transform="translate(12808.75 6293.425)" fill="#fafdff"/>
    <path id="Path_20423" data-name="Path 20423" d="M189.54,119.36H89.59L82.03,94.59h99.95Z" transform="translate(12808.847 6293.3)" fill="#5074b9"/>
    <path id="Path_20424" data-name="Path 20424" d="M106.02,99.63H89.09l-.4-1.33h16.93Z" transform="translate(12808.835 6293.238)" fill="#ccdef3"/>
    <path id="Path_20425" data-name="Path 20425" d="M124.13,99.63H110.05l-.4-1.33h14.08Z" transform="translate(12809.614 6293.238)" fill="#ccdef3"/>
    <path id="Path_20426" data-name="Path 20426" d="M156.91,99.63H127.8l-.4-1.33h29.1Z" transform="translate(12809.823 6293.238)" fill="#ccdef3"/>
    <path id="Path_20427" data-name="Path 20427" d="M107.47,104.36H90.54l-.41-1.32h16.93Z" transform="translate(12808.837 6293.307)" fill="#ccdef3"/>
    <path id="Path_20428" data-name="Path 20428" d="M125.58,104.36H111.5l-.41-1.32h14.08Z" transform="translate(12809.629 6293.307)" fill="#ccdef3"/>
    <path id="Path_20429" data-name="Path 20429" d="M142.21,104.36H128.13l-.41-1.32h14.09Z" transform="translate(12809.791 6293.307)" fill="#ccdef3"/>
    <path id="Path_20430" data-name="Path 20430" d="M175.58,104.91H146.47l-.4-1.32h29.11Z" transform="translate(12810.011 6293.314)" fill="#ccdef3"/>
    <path id="Path_20431" data-name="Path 20431" d="M109.3,110.36H92.37l-.4-1.32H108.9Z" transform="translate(12808.839 6293.393)" fill="#ccdef3"/>
    <path id="Path_20432" data-name="Path 20432" d="M127.41,110.36H113.33l-.4-1.32h14.08Z" transform="translate(12809.646 6293.393)" fill="#ccdef3"/>
    <path id="Path_20433" data-name="Path 20433" d="M160.18,110.36h-29.1l-.4-1.32h29.1Z" transform="translate(12809.855 6293.393)" fill="#ccdef3"/>
    <path id="Path_20434" data-name="Path 20434" d="M110.75,115.09H93.81l-.4-1.32h16.93Z" transform="translate(12808.84 6293.46)" fill="#ccdef3"/>
    <path id="Path_20435" data-name="Path 20435" d="M128.86,115.09H114.77l-.4-1.32h14.08Z" transform="translate(12809.66 6293.46)" fill="#ccdef3"/>
    <path id="Path_20436" data-name="Path 20436" d="M145.49,115.09H131.41l-.41-1.32h14.08Z" transform="translate(12809.822 6293.46)" fill="#ccdef3"/>
    <path id="Path_20437" data-name="Path 20437" d="M178.86,115.64H149.75l-.4-1.32h29.1Z" transform="translate(12810.044 6293.468)" fill="#ccdef3"/>
    <path id="Path_20438" data-name="Path 20438" d="M156.61,139.87a10.33,10.33,0,0,1-9.18-7c-1.19-3.88,1-7,4.88-7a10.35,10.35,0,0,1,9.19,7C162.68,136.71,160.49,139.87,156.61,139.87Zm-3.9-12.79c-3.18,0-5,2.58-4,5.75a8.45,8.45,0,0,0,7.51,5.76c3.17,0,5-2.58,4-5.76a8.45,8.45,0,0,0-7.51-5.75Z" transform="translate(12809.98 6293.713)" fill="#a8d29f"/>
    <path id="Path_20439" data-name="Path 20439" d="M155.41,136.41a1.46,1.46,0,0,1-.79-.32l-4-3.17a1.16,1.16,0,0,1-.43-1.51,1.08,1.08,0,0,1,1.52,0l2.82,2.24,1.39-3.31c.2-.48.84-.58,1.42-.24a1.32,1.32,0,0,1,.7,1.5l-1.81,4.4a.73.73,0,0,1-.66.44Z" transform="translate(12809.991 6293.725)" fill="#a8d29f"/>
    <path id="Path_20440" data-name="Path 20440" d="M136.48,139.87c-3.88,0-8-3.16-9.19-7s1-7,4.89-7a10.35,10.35,0,0,1,9.19,7C142.55,136.71,140.36,139.87,136.48,139.87Zm-3.91-12.79c-3.17,0-5,2.58-4,5.75a8.44,8.44,0,0,0,7.51,5.76c3.17,0,5-2.58,4-5.76a8.46,8.46,0,0,0-7.51-5.75Z" transform="translate(12809.783 6293.713)" fill="#a8d29f"/>
    <path id="Path_20441" data-name="Path 20441" d="M135.28,136.41a1.46,1.46,0,0,1-.79-.32l-4-3.17a1.15,1.15,0,0,1-.43-1.51,1.08,1.08,0,0,1,1.52,0l2.82,2.24,1.39-3.31c.2-.48.83-.58,1.42-.24a1.31,1.31,0,0,1,.69,1.5l-1.81,4.4a.72.72,0,0,1-.66.44Z" transform="translate(12809.798 6293.725)" fill="#a8d29f"/>
    <path id="Path_20442" data-name="Path 20442" d="M115.62,139.87a10.33,10.33,0,0,1-9.18-7c-1.19-3.88,1-7,4.89-7a10.32,10.32,0,0,1,9.18,7C121.7,136.71,119.5,139.87,115.62,139.87Zm-3.9-12.79c-3.17,0-5,2.58-4,5.75a8.45,8.45,0,0,0,7.51,5.76c3.17,0,5-2.58,4-5.76a8.46,8.46,0,0,0-7.51-5.75Z" transform="translate(12809.58 6293.713)" fill="#a8d29f"/>
    <path id="Path_20443" data-name="Path 20443" d="M114.43,136.41a1.53,1.53,0,0,1-.8-.32l-4-3.17a1.16,1.16,0,0,1-.43-1.51,1.09,1.09,0,0,1,1.53,0l2.82,2.24,1.38-3.31c.2-.48.84-.58,1.43-.24a1.33,1.33,0,0,1,.69,1.5l-1.81,4.4a.73.73,0,0,1-.66.44Z" transform="translate(12808.853 6293.725)" fill="#a8d29f"/>
    <path id="Path_20444" data-name="Path 20444" d="M176,139.87a10.33,10.33,0,0,1-9.18-7c-1.19-3.88,1-7,4.89-7a10.32,10.32,0,0,1,9.18,7C182.11,136.71,179.91,139.87,176,139.87Zm-3.9-12.79c-3.17,0-5,2.58-4,5.75a8.45,8.45,0,0,0,7.51,5.76c3.17,0,5-2.58,4-5.76a8.46,8.46,0,0,0-7.48-5.75Z" transform="translate(12810.169 6293.713)" fill="#f0a350"/>
    <path id="Path_20445" data-name="Path 20445" d="M174.24,134h0a1.46,1.46,0,0,1-1.3-1l-.91-3a.71.71,0,0,1,.69-1h0a1.47,1.47,0,0,1,1.3,1l.91,3a.72.72,0,0,1-.69,1Z" transform="translate(12810.187 6293.701)" fill="#f0a350"/>
    <path id="Path_20446" data-name="Path 20446" d="M175.06,136.33h-.21a1.31,1.31,0,0,1-1.16-.89h0a.63.63,0,0,1,.61-.88h.22a1.31,1.31,0,0,1,1.16.88h0a.64.64,0,0,1-.62.89Z" transform="translate(12810.199 6293.761)" fill="#f0a350"/>
    <g id="Group_7974" data-name="Group 7974" transform="translate(13002.966 6292.092)" opacity="0.5">
      <path id="Path_20447" data-name="Path 20447" d="M192.59,44.61V43.35h1.29v1.26Z" transform="translate(-192.59 -0.26)" fill="#b2cbea"/>
      <path id="Path_20448" data-name="Path 20448" d="M192.59,42.07V40.82h1.29v1.25Z" transform="translate(-192.59 -0.26)" fill="#b2cbea"/>
      <path id="Path_20449" data-name="Path 20449" d="M192.59,39.54V38.28h1.29v1.26Z" transform="translate(-192.59 -0.26)" fill="#b2cbea"/>
      <path id="Path_20450" data-name="Path 20450" d="M192.59,37V35.75h1.29V37Z" transform="translate(-192.59 -0.26)" fill="#b2cbea"/>
      <path id="Path_20451" data-name="Path 20451" d="M192.59,34.47V33.21h1.29v1.26Z" transform="translate(-192.59 -0.26)" fill="#b2cbea"/>
      <path id="Path_20452" data-name="Path 20452" d="M192.59,31.93V30.68h1.29v1.25Z" transform="translate(-192.59 -0.26)" fill="#b2cbea"/>
      <path id="Path_20453" data-name="Path 20453" d="M192.59,29.4V28.14h1.29V29.4Z" transform="translate(-192.59 -0.26)" fill="#b2cbea"/>
      <path id="Path_20454" data-name="Path 20454" d="M192.59,26.86V25.61h1.29v1.25Z" transform="translate(-192.59 -0.26)" fill="#b2cbea"/>
      <path id="Path_20455" data-name="Path 20455" d="M192.59,24.33V23.08h1.29v1.25Z" transform="translate(-192.59 -0.26)" fill="#b2cbea"/>
      <path id="Path_20456" data-name="Path 20456" d="M192.59,21.79V20.54h1.29v1.25Z" transform="translate(-192.59 -0.26)" fill="#b2cbea"/>
      <path id="Path_20457" data-name="Path 20457" d="M192.59,19.26V18h1.29v1.25Z" transform="translate(-192.59 -0.26)" fill="#b2cbea"/>
      <path id="Path_20458" data-name="Path 20458" d="M192.59,16.72V15.47h1.29v1.25Z" transform="translate(-192.59 -0.26)" fill="#b2cbea"/>
      <path id="Path_20459" data-name="Path 20459" d="M192.59,14.19V12.94h1.29v1.25Z" transform="translate(-192.59 -0.26)" fill="#b2cbea"/>
      <path id="Path_20460" data-name="Path 20460" d="M192.59,11.65V10.4h1.29v1.25Z" transform="translate(-192.59 -0.26)" fill="#b2cbea"/>
      <path id="Path_20461" data-name="Path 20461" d="M192.59,9.12V7.87h1.29V9.12Z" transform="translate(-192.59 -0.26)" fill="#b2cbea"/>
      <path id="Path_20462" data-name="Path 20462" d="M192.59,6.58V5.33h1.29V6.58Z" transform="translate(-192.59 -0.26)" fill="#b2cbea"/>
      <path id="Path_20463" data-name="Path 20463" d="M192.59,4.05V2.8h1.29V4.05Z" transform="translate(-192.59 -0.26)" fill="#b2cbea"/>
      <path id="Path_20464" data-name="Path 20464" d="M192.59,1.52V.26h1.29V1.52Z" transform="translate(-192.59 -0.26)" fill="#b2cbea"/>
    </g>
    <g id="Group_7975" data-name="Group 7975" transform="translate(12998.989 6292.092)" opacity="0.5">
      <path id="Path_20465" data-name="Path 20465" d="M188.65,29.4V28.14h1.29V29.4Z" transform="translate(-188.65 -0.26)" fill="#b2cbea"/>
      <path id="Path_20466" data-name="Path 20466" d="M188.65,26.86V25.61h1.29v1.25Z" transform="translate(-188.65 -0.26)" fill="#b2cbea"/>
      <path id="Path_20467" data-name="Path 20467" d="M188.65,24.33V23.08h1.29v1.25Z" transform="translate(-188.65 -0.26)" fill="#b2cbea"/>
      <path id="Path_20468" data-name="Path 20468" d="M188.65,21.79V20.54h1.29v1.25Z" transform="translate(-188.65 -0.26)" fill="#b2cbea"/>
      <path id="Path_20469" data-name="Path 20469" d="M188.65,19.26V18h1.29v1.25Z" transform="translate(-188.65 -0.26)" fill="#b2cbea"/>
      <path id="Path_20470" data-name="Path 20470" d="M188.65,16.72V15.47h1.29v1.25Z" transform="translate(-188.65 -0.26)" fill="#b2cbea"/>
      <path id="Path_20471" data-name="Path 20471" d="M188.65,14.19V12.94h1.29v1.25Z" transform="translate(-188.65 -0.26)" fill="#b2cbea"/>
      <path id="Path_20472" data-name="Path 20472" d="M188.65,11.65V10.4h1.29v1.25Z" transform="translate(-188.65 -0.26)" fill="#b2cbea"/>
      <path id="Path_20473" data-name="Path 20473" d="M188.65,9.12V7.87h1.29V9.12Z" transform="translate(-188.65 -0.26)" fill="#b2cbea"/>
      <path id="Path_20474" data-name="Path 20474" d="M188.65,6.58V5.33h1.29V6.58Z" transform="translate(-188.65 -0.26)" fill="#b2cbea"/>
      <path id="Path_20475" data-name="Path 20475" d="M188.65,4.05V2.8h1.29V4.05Z" transform="translate(-188.65 -0.26)" fill="#b2cbea"/>
      <path id="Path_20476" data-name="Path 20476" d="M188.65,1.52V.26h1.29V1.52Z" transform="translate(-188.65 -0.26)" fill="#b2cbea"/>
    </g>
    <g id="Group_7976" data-name="Group 7976" transform="translate(12994.931 6292.092)" opacity="0.5">
      <path id="Path_20477" data-name="Path 20477" d="M184.63,44.61V43.35h1.29v1.26Z" transform="translate(-184.63 -0.26)" fill="#b2cbea"/>
      <path id="Path_20478" data-name="Path 20478" d="M184.63,42.07V40.82h1.29v1.25Z" transform="translate(-184.63 -0.26)" fill="#b2cbea"/>
      <path id="Path_20479" data-name="Path 20479" d="M184.63,39.54V38.28h1.29v1.26Z" transform="translate(-184.63 -0.26)" fill="#b2cbea"/>
      <path id="Path_20480" data-name="Path 20480" d="M184.63,37V35.75h1.29V37Z" transform="translate(-184.63 -0.26)" fill="#b2cbea"/>
      <path id="Path_20481" data-name="Path 20481" d="M184.63,34.47V33.21h1.29v1.26Z" transform="translate(-184.63 -0.26)" fill="#b2cbea"/>
      <path id="Path_20482" data-name="Path 20482" d="M184.63,31.93V30.68h1.29v1.25Z" transform="translate(-184.63 -0.26)" fill="#b2cbea"/>
      <path id="Path_20483" data-name="Path 20483" d="M184.63,29.4V28.14h1.29V29.4Z" transform="translate(-184.63 -0.26)" fill="#b2cbea"/>
      <path id="Path_20484" data-name="Path 20484" d="M184.63,26.86V25.61h1.29v1.25Z" transform="translate(-184.63 -0.26)" fill="#b2cbea"/>
      <path id="Path_20485" data-name="Path 20485" d="M184.63,24.33V23.08h1.29v1.25Z" transform="translate(-184.63 -0.26)" fill="#b2cbea"/>
      <path id="Path_20486" data-name="Path 20486" d="M184.63,21.79V20.54h1.29v1.25Z" transform="translate(-184.63 -0.26)" fill="#b2cbea"/>
      <path id="Path_20487" data-name="Path 20487" d="M184.63,19.26V18h1.29v1.25Z" transform="translate(-184.63 -0.26)" fill="#b2cbea"/>
      <path id="Path_20488" data-name="Path 20488" d="M184.63,16.72V15.47h1.29v1.25Z" transform="translate(-184.63 -0.26)" fill="#b2cbea"/>
      <path id="Path_20489" data-name="Path 20489" d="M184.63,14.19V12.94h1.29v1.25Z" transform="translate(-184.63 -0.26)" fill="#b2cbea"/>
      <path id="Path_20490" data-name="Path 20490" d="M184.63,11.65V10.4h1.29v1.25Z" transform="translate(-184.63 -0.26)" fill="#b2cbea"/>
      <path id="Path_20491" data-name="Path 20491" d="M184.63,9.12V7.87h1.29V9.12Z" transform="translate(-184.63 -0.26)" fill="#b2cbea"/>
      <path id="Path_20492" data-name="Path 20492" d="M184.63,6.58V5.33h1.29V6.58Z" transform="translate(-184.63 -0.26)" fill="#b2cbea"/>
      <path id="Path_20493" data-name="Path 20493" d="M184.63,4.05V2.8h1.29V4.05Z" transform="translate(-184.63 -0.26)" fill="#b2cbea"/>
      <path id="Path_20494" data-name="Path 20494" d="M184.63,1.52V.26h1.29V1.52Z" transform="translate(-184.63 -0.26)" fill="#b2cbea"/>
    </g>
    <g id="Group_7977" data-name="Group 7977" transform="translate(12991.509 6292.092)" opacity="0.5">
      <path id="Path_20495" data-name="Path 20495" d="M181.24,49.68V48.42h1.29v1.26Z" transform="translate(-181.24 -0.26)" fill="#b2cbea"/>
      <path id="Path_20496" data-name="Path 20496" d="M181.24,47.14V45.89h1.29v1.25Z" transform="translate(-181.24 -0.26)" fill="#b2cbea"/>
      <path id="Path_20497" data-name="Path 20497" d="M181.24,44.61V43.35h1.29v1.26Z" transform="translate(-181.24 -0.26)" fill="#b2cbea"/>
      <path id="Path_20498" data-name="Path 20498" d="M181.24,42.07V40.82h1.29v1.25Z" transform="translate(-181.24 -0.26)" fill="#b2cbea"/>
      <path id="Path_20499" data-name="Path 20499" d="M181.24,39.54V38.28h1.29v1.26Z" transform="translate(-181.24 -0.26)" fill="#b2cbea"/>
      <path id="Path_20500" data-name="Path 20500" d="M181.24,37V35.75h1.29V37Z" transform="translate(-181.24 -0.26)" fill="#b2cbea"/>
      <path id="Path_20501" data-name="Path 20501" d="M181.24,34.47V33.21h1.29v1.26Z" transform="translate(-181.24 -0.26)" fill="#b2cbea"/>
      <path id="Path_20502" data-name="Path 20502" d="M181.24,31.93V30.68h1.29v1.25Z" transform="translate(-181.24 -0.26)" fill="#b2cbea"/>
      <path id="Path_20503" data-name="Path 20503" d="M181.24,29.4V28.14h1.29V29.4Z" transform="translate(-181.24 -0.26)" fill="#b2cbea"/>
      <path id="Path_20504" data-name="Path 20504" d="M181.24,26.86V25.61h1.29v1.25Z" transform="translate(-181.24 -0.26)" fill="#b2cbea"/>
      <path id="Path_20505" data-name="Path 20505" d="M181.24,24.33V23.08h1.29v1.25Z" transform="translate(-181.24 -0.26)" fill="#b2cbea"/>
      <path id="Path_20506" data-name="Path 20506" d="M181.24,21.79V20.54h1.29v1.25Z" transform="translate(-181.24 -0.26)" fill="#b2cbea"/>
      <path id="Path_20507" data-name="Path 20507" d="M181.24,19.26V18h1.29v1.25Z" transform="translate(-181.24 -0.26)" fill="#b2cbea"/>
      <path id="Path_20508" data-name="Path 20508" d="M181.24,16.72V15.47h1.29v1.25Z" transform="translate(-181.24 -0.26)" fill="#b2cbea"/>
      <path id="Path_20509" data-name="Path 20509" d="M181.24,14.19V12.94h1.29v1.25Z" transform="translate(-181.24 -0.26)" fill="#b2cbea"/>
      <path id="Path_20510" data-name="Path 20510" d="M181.24,11.65V10.4h1.29v1.25Z" transform="translate(-181.24 -0.26)" fill="#b2cbea"/>
      <path id="Path_20511" data-name="Path 20511" d="M181.24,9.12V7.87h1.29V9.12Z" transform="translate(-181.24 -0.26)" fill="#b2cbea"/>
      <path id="Path_20512" data-name="Path 20512" d="M181.24,6.58V5.33h1.29V6.58Z" transform="translate(-181.24 -0.26)" fill="#b2cbea"/>
      <path id="Path_20513" data-name="Path 20513" d="M181.24,4.05V2.8h1.29V4.05Z" transform="translate(-181.24 -0.26)" fill="#b2cbea"/>
      <path id="Path_20514" data-name="Path 20514" d="M181.24,1.52V.26h1.29V1.52Z" transform="translate(-181.24 -0.26)" fill="#b2cbea"/>
    </g>
    <g id="Group_7978" data-name="Group 7978" transform="translate(12986.996 6292.092)" opacity="0.5">
      <path id="Path_20515" data-name="Path 20515" d="M176.77,26.86V25.61h1.29v1.25Z" transform="translate(-176.77 -0.26)" fill="#b2cbea"/>
      <path id="Path_20516" data-name="Path 20516" d="M176.77,24.33V23.08h1.29v1.25Z" transform="translate(-176.77 -0.26)" fill="#b2cbea"/>
      <path id="Path_20517" data-name="Path 20517" d="M176.77,21.79V20.54h1.29v1.25Z" transform="translate(-176.77 -0.26)" fill="#b2cbea"/>
      <path id="Path_20518" data-name="Path 20518" d="M176.77,19.26V18h1.29v1.25Z" transform="translate(-176.77 -0.26)" fill="#b2cbea"/>
      <path id="Path_20519" data-name="Path 20519" d="M176.77,16.72V15.47h1.29v1.25Z" transform="translate(-176.77 -0.26)" fill="#b2cbea"/>
      <path id="Path_20520" data-name="Path 20520" d="M176.77,14.19V12.94h1.29v1.25Z" transform="translate(-176.77 -0.26)" fill="#b2cbea"/>
      <path id="Path_20521" data-name="Path 20521" d="M176.77,11.65V10.4h1.29v1.25Z" transform="translate(-176.77 -0.26)" fill="#b2cbea"/>
      <path id="Path_20522" data-name="Path 20522" d="M176.77,9.12V7.87h1.29V9.12Z" transform="translate(-176.77 -0.26)" fill="#b2cbea"/>
      <path id="Path_20523" data-name="Path 20523" d="M176.77,6.58V5.33h1.29V6.58Z" transform="translate(-176.77 -0.26)" fill="#b2cbea"/>
      <path id="Path_20524" data-name="Path 20524" d="M176.77,4.05V2.8h1.29V4.05Z" transform="translate(-176.77 -0.26)" fill="#b2cbea"/>
      <path id="Path_20525" data-name="Path 20525" d="M176.77,1.52V.26h1.29V1.52Z" transform="translate(-176.77 -0.26)" fill="#b2cbea"/>
    </g>
    <path id="Path_20549" data-name="Path 20549" d="M415.16,231.11a1.41,1.41,0,0,0,1.24.92.63.63,0,0,0,.6-.92,1.41,1.41,0,0,0-1.24-.92.63.63,0,0,0-.6.92Z" transform="translate(12813.215 6295.135)" fill="#9f342f"/>
    <g id="Group_7979" data-name="Group 7979" transform="translate(13195.458 6469.986)">
      <path id="Path_20526" data-name="Path 20526" d="M400.47,288.15c1.82,6.8,15.26,10.81,30,13.16h54.89c13.23-6.48,13.21-14.21,14.28-35.54,2.19-44.06-21-65.34-31.33-61.82-.43.14-.86.3-1.31.48-3,1.21-6.37,3.34-9.64,8.42,0,0-10.27,17.13-18.73,27.34-2.72,3.29-5.25,5.86-7.19,6.92h-.07l-.31.15c-4.48,2.05-10.79,6.35-16.56,11.77h0C405.53,267.47,397.9,278.56,400.47,288.15Z" transform="translate(-389.243 -173.848)" fill="#d2a687"/>
      <path id="Path_20527" data-name="Path 20527" d="M414.47,259.06c7.7,2.37,47.31,13.8,56.63,1.68,6.75-8.78,2.55-31.28-1.18-45.83a6.88,6.88,0,0,0-12.49-2.21,1.308,1.308,0,0,0-.1.15S447.06,230,438.6,240.19c-2.44,3.23-4.86,5.71-7.19,6.92h-.07c-.1.06-.21.1-.31.15A69.438,69.438,0,0,0,414.47,259.06Z" transform="translate(-389.243 -173.848)" fill="#a07960"/>
      <path id="Path_20528" data-name="Path 20528" d="M443.94,203.48s-2.75,4.06-4.31,12.6c-1.37,7.47-2.58,10.24-4.56,11.77s-13,6.06-13,6.06l.83,1.93s16.17-2.2,18-4.9,8.74-18.67,8.21-22.35S443.94,203.48,443.94,203.48Z" transform="translate(-389.243 -174.904)" fill="#f4a36a"/>
      <path id="Path_20529" data-name="Path 20529" d="M404.34,292.68c.15,1.57-2,2-4.59,2.08s-1.78.65-5.26,1.28-4.88-.32-5.13-.79,1.39-1.07,3.12-1.81l.65-.28c1.94-.86,3-2.6,4.55-4.22s2.8-6.43,2.8-6.43l4.73-1s-1.33,4.41-1.79,6.3a5.79,5.79,0,0,0,.49,3.28,6.309,6.309,0,0,1,.43,1.59Z" transform="translate(-389.334 -173.848)" fill="#fab17e"/>
      <path id="Path_20530" data-name="Path 20530" d="M399.75,294.76c-2.54.13-1.78.65-5.26,1.28s-4.88-.32-5.13-.79,1.39-1.07,3.12-1.81h0a9.9,9.9,0,0,0,5.27.06c2.31-.62,4.54-2,6.13-2.45a6.31,6.31,0,0,1,.43,1.6C404.49,294.25,402.29,294.64,399.75,294.76Z" transform="translate(-389.335 -173.848)" fill="#c75548"/>
      <path id="Path_20531" data-name="Path 20531" d="M451.5,236.52s-31.47-2.37-37.39,1.37-15.43,47.29-15.43,47.29a3.88,3.88,0,0,0,1.9.61,16,16,0,0,0,3.9-.58s13.65-19.49,14.61-24.4.73-9.29,2.92-9.4,29.49,3.32,33.62-4a16.78,16.78,0,0,0,.72-14.48Z" transform="translate(-389.243 -173.848)" fill="#183660"/>
      <path id="Path_20532" data-name="Path 20532" d="M416.38,297.73c.15,1.58-2.05,2-4.59,2.09s-1.77.64-5.26,1.28-4.88-.33-5.13-.8,1.39-1.07,3.12-1.81l.65-.28c1.94-.85,3-2.6,4.55-4.21s2.8-6.43,2.8-6.43l4.73-1s-1.33,4.41-1.79,6.29a5.82,5.82,0,0,0,.49,3.29,6.129,6.129,0,0,1,.43,1.58Z" transform="translate(-389.243 -173.848)" fill="#fab17e"/>
      <path id="Path_20533" data-name="Path 20533" d="M411.79,299.82c-2.54.12-1.77.64-5.26,1.28s-4.88-.33-5.13-.8,1.39-1.07,3.12-1.81h0a10,10,0,0,0,5.27.07c2.31-.63,4.54-2,6.13-2.45a6.131,6.131,0,0,1,.43,1.59C416.53,299.31,414.33,299.69,411.79,299.82Z" transform="translate(-389.243 -173.848)" fill="#c75548"/>
      <path id="Path_20534" data-name="Path 20534" d="M457.66,238.47s-28,1.32-33.73,5.29-13.57,47.85-13.57,47.85a3.82,3.82,0,0,0,1.92.54,15.671,15.671,0,0,0,3.87-.73s12.89-20,13.66-24.95.36-9.31,2.55-9.51,29.6,2.17,33.44-5.26S457.66,238.47,457.66,238.47Z" transform="translate(-389.243 -173.848)" fill="#1c478a"/>
      <path id="Path_20535" data-name="Path 20535" d="M448.09,201.24a17,17,0,0,1-1.66-5.76c.06.31.86,4.2,2.52,6.32,6.47,3.66,19.27,16.47,19.21,19.06,0,0,3.71-7.38,3.78-7.43s7.07-10.34-2.46-15.36c-4.84-2.55-5.07-6.22-5.08-9.42S462,171.82,452.92,176a6.19,6.19,0,0,0-2.21-.42,1.81,1.81,0,0,1,.85.34,7.25,7.25,0,0,0-3.86,1C444.41,179.13,442.52,196.75,448.09,201.24Z" transform="translate(-389.243 -175.211)" fill="#b6473d"/>
      <path id="Path_20536" data-name="Path 20536" d="M458.84,198.8a31.178,31.178,0,0,0-5.21,0,16.73,16.73,0,0,0-4.52,1.13c-2.46,1-2.2,5.39,3,4.58S459.2,200.09,458.84,198.8Z" transform="translate(-389.243 -175.264)" fill="#fab17e"/>
      <path id="Path_20537" data-name="Path 20537" d="M449.33,202s-.74,3.75,2.65,3.6c2.22-.1,7-2.79,6.59-4.69a23.54,23.54,0,0,1-2.22-8.6l-.4.1-6.81,1.83s.31,2.16.45,4.2C449.71,200.13,449.71,201.77,449.33,202Z" transform="translate(-389.243 -175.285)" fill="#fab17e"/>
      <path id="Path_20538" data-name="Path 20538" d="M449.14,194.22s.31,2.16.45,4.2c3.85-.37,5.65-4,6.36-6Z" transform="translate(-389.243 -175.355)" fill="#f4a36a"/>
      <path id="Path_20539" data-name="Path 20539" d="M456.61,191.6a20.25,20.25,0,0,0,2.11-6.1c.22-2-1.26-9.13-8.45-7.6a9.73,9.73,0,0,0-4,1.82c-1.51,1.17-3.63,3.62-.66,9.75l.8,2.09Z" transform="translate(-389.243 -175.498)" fill="#b6473d"/>
      <path id="Path_20540" data-name="Path 20540" d="M448,196.24s9.13-.46,8.76-6.14.55-9.58-5.3-9.52-6.83,2.29-7.17,4.22S445.6,196.21,448,196.24Z" transform="translate(-389.243 -175.438)" fill="#fab17e"/>
      <path id="Path_20541" data-name="Path 20541" d="M447.29,180.71s2.94,6.51,6.84,7.24,5.5-.41,5.5-.41a10.87,10.87,0,0,1-4-6.18S449,177.41,447.29,180.71Z" transform="translate(-389.243 -175.519)" fill="#b6473d"/>
      <path id="Path_20542" data-name="Path 20542" d="M447.94,181.21a8.17,8.17,0,0,0-2.12,3.09c-.36,1.48-.36,4.48-1.24,4.43,0,0-2.18-4.4-.24-7.11C446.4,178.75,447.94,181.21,447.94,181.21Z" transform="translate(-389.243 -175.51)" fill="#b6473d"/>
      <path id="Path_20543" data-name="Path 20543" d="M438.84,237c.74.88,3.05,1.15,5.52,1.56a16.6,16.6,0,0,1,5.43,1.57c3.29,1.94,14,8.47,17.21,8.17,1.22-.11,1-2.45.25-5.54-1.17-4.89-3.61-11.68-3.61-14.64a84.642,84.642,0,0,0-1.25-9.78l-.18-1.07c-1.41-8.48-3.37-18.47-3.37-18.47s-2.19,4.77-6.46,4.77-3.27-3.64-3.27-3.64-3.89.46-4.81,1.45a38.089,38.089,0,0,0-3.71,6.43s-.09,1.49,3.58,2.2a49,49,0,0,0-1,6.71c-.08,2,1.35,8.2,1.77,12.07a7.28,7.28,0,0,1-.06,2.93,5.66,5.66,0,0,1-2.25,1.85C440.55,234.78,438,236,438.84,237Z" transform="translate(-389.243 -174.762)" fill="#1c478a"/>
      <path id="Path_20544" data-name="Path 20544" d="M442.63,233.57c-2.36,4,6.4,5.23,7.85,6.09,3.29,1.93,13.36,8.94,16.52,8.64,1.22-.11,1-2.45.25-5.54-1.17-4.89-3.61-11.68-3.61-14.64a84.641,84.641,0,0,0-1.25-9.78l-3.79-3.65s-4.07,10.51-8,12.24a33.418,33.418,0,0,1-5.71,1.86,7.28,7.28,0,0,1-.06,2.93,5.66,5.66,0,0,1-2.2,1.85Z" transform="translate(-389.243 -174.708)" fill="#183660"/>
      <path id="Path_20545" data-name="Path 20545" d="M460,201.94s3.25-2,6.39,1.77-2.23,30.47-6.88,31.84c-5.17,1.53-20.09-.24-20.09-.24l.29-2.34s15.88-3,16.54-3.89S458.35,202.38,460,201.94Z" transform="translate(-389.243 -174.908)" fill="#fab17e"/>
      <path id="Path_20546" data-name="Path 20546" d="M458.84,198.8s6.66.6,8.6,2.79,2.5,8.13,2.5,8.13-5.87,4.74-12.94,2.9Z" transform="translate(-389.243 -175.179)" fill="#1c478a"/>
      <rect id="Rectangle_9076" data-name="Rectangle 9076" width="8.8" height="1.04" transform="translate(48.618 62.821) rotate(180)" fill="#9f342f"/>
      <path id="Path_20547" data-name="Path 20547" d="M430.93,237.45c-.09-.34-8.09-12.91-8.09-12.91H405l9,12.58Z" transform="translate(-389.243 -174.809)" fill="#9f342f"/>
      <path id="Path_20548" data-name="Path 20548" d="M430.18,237.6c-.09-.35-8.12-13.06-8.12-13.06H405l8.5,13.06Z" transform="translate(-389.243 -174.807)" fill="#b6473d"/>
      <path id="Path_20550" data-name="Path 20550" d="M441,232.84s-5.18-1-5.76-.75-3.84,3.16-3.5,3.75,1.66,1,3.17.5,4.75-.75,5.33-1.5a4.87,4.87,0,0,0,.76-2Z" transform="translate(-389.243 -174.794)" fill="#fab17e"/>
    </g>
  </g>
</svg>
