<svg xmlns="http://www.w3.org/2000/svg" viewBox="0 0 165.29 147.57"><defs><style>.cls-1{isolation:isolate;}.cls-2{mix-blend-mode:overlay;}.cls-3{fill:#5167a6;}.cls-4{fill:none;}.cls-5{fill:#49558c;}.cls-6{fill:#fff;}</style></defs><g class="cls-1"><g id="OBJECTS"><g class="cls-2"><g class="cls-2"><polygon class="cls-3" points="105.31 37.03 59.74 37.03 36.96 76.5 59.74 115.96 105.31 115.96 128.1 76.5 105.31 37.03"/></g><g class="cls-2"><path class="cls-3" d="M117.05,24.86l-2.34-4.08H50.36L18.19,76.5,48,128.14l2.35,4.08H114.7L146.87,76.5Zm-7.23,98.9H55.24L28,76.5,55.24,29.23h54.58L137.11,76.5Z"/></g></g><path class="cls-4" d="M108.21,26.43H53.63L26.34,73.7,53.63,121h54.58L135.5,73.7Zm-4.5,86.73H58.14L35.35,73.7,58.14,34.23h45.57L126.49,73.7Z"/><polygon class="cls-5" points="103.71 34.23 58.14 34.23 35.35 73.7 58.14 113.16 103.71 113.16 126.49 73.7 103.71 34.23"/><path class="cls-5" d="M115.45,22.06,113.11,18H48.75L16.58,73.7,46.4,125.34l2.34,4.08h64.35L145.26,73.7ZM108.21,121H53.63L26.34,73.7,53.63,26.43h54.58L135.5,73.7Z"/><polygon class="cls-3" points="64.06 34.23 58.14 34.23 35.35 73.7 58.14 113.16 64.06 113.16 41.28 73.7 64.06 34.23"/><path class="cls-6" d="M87.06,63.21a9,9,0,1,0,18,0H103.6L97.83,51.73h6a1.17,1.17,0,0,0,0-2.34H58.23a1.17,1.17,0,0,0,0,2.34h6.12L58.58,63.21H57.16a9,9,0,1,0,18,0H73.7L67.93,51.73H80V88.66a20.57,20.57,0,0,0-15.89,9.06H80.81a.84.84,0,0,0,.67,0H98.21a20.57,20.57,0,0,0-15.89-9.06V51.73H94.25L88.48,63.21Zm-25.85,0,4.93-9.82,4.93,9.82ZM96,53.39,101,63.21H91.11Z"/><path class="cls-5" d="M132,127.52h-3.21l31-53.73L126.12,15.36,119.85,4.44H39.75L10.05,55.89a1.4,1.4,0,0,1-2.42-1.4L38.14,1.65h83.33L128.54,14l34.54,59.82L158.33,82Z"/><path class="cls-5" d="M121.43,145.92H38.1L7.41,92.7a1.39,1.39,0,0,1,.64-2,1.45,1.45,0,0,1,1.82.65l29.85,51.74H123Z"/><path class="cls-3" d="M6.53,84.81a4.06,4.06,0,1,0,4.06,4A4,4,0,0,0,6.53,84.81Z"/><circle class="cls-6" cx="6.26" cy="88.5" r="4.06"/><path class="cls-5" d="M9.71,88.5a3.45,3.45,0,1,1-3.45-3.45A3.45,3.45,0,0,1,9.71,88.5Z"/><path class="cls-3" d="M3.4,88.5a3.45,3.45,0,0,1,3.16-3.44h-.3a3.45,3.45,0,0,0,0,6.9l.3,0A3.45,3.45,0,0,1,3.4,88.5Z"/></g></g></svg>