<svg xmlns="http://www.w3.org/2000/svg" viewBox="0 0 165.29 147.57"><defs><style>.cls-1{isolation:isolate;}.cls-2,.cls-5{fill:#5167a6;}.cls-2{mix-blend-mode:overlay;}.cls-3,.cls-6{fill:none;}.cls-4{fill:#49558c;}.cls-6{stroke:#fff;stroke-miterlimit:10;stroke-width:2.5px;}.cls-7{fill:#fff;}</style></defs><g class="cls-1"><g id="OBJECTS"><polygon class="cls-2" points="108.75 37.26 63.18 37.26 40.4 76.72 63.18 116.19 108.75 116.19 131.53 76.72 108.75 37.26"/><path class="cls-2" d="M120.49,25.08,118.15,21H53.8L21.63,76.72l29.81,51.64,2.34,4.08h64.36L150.3,76.72ZM113.26,124H58.68L31.39,76.72,58.68,29.46h54.58l27.28,47.26Z"/><path class="cls-3" d="M111.69,26.67H57.11L29.82,73.94,57.11,121.2h54.58L139,73.94Zm-4.5,86.73H61.62L38.83,73.94,61.62,34.47h45.57L130,73.94Z"/><polygon class="cls-4" points="107.19 34.47 61.62 34.47 38.83 73.94 61.62 113.4 107.19 113.4 129.97 73.94 107.19 34.47"/><polygon class="cls-5" points="67.54 34.47 61.62 34.47 38.83 73.94 61.62 113.4 67.54 113.4 44.75 73.94 67.54 34.47"/><path class="cls-4" d="M118.93,22.29l-2.35-4.07H52.23L20.06,73.94l29.82,51.64,2.34,4.07h64.35l32.17-55.71Zm-7.24,98.91H57.11L29.82,73.94,57.11,26.67h54.58L139,73.94Z"/><path class="cls-6" d="M114.91,74.81S101.13,91.5,84.2,91.45,53.59,74.6,53.59,74.6,67.38,56.13,84.32,56.19,114.91,74.81,114.91,74.81Z"/><path class="cls-7" d="M84.3,61A12.81,12.81,0,1,0,97.06,73.86,12.8,12.8,0,0,0,84.3,61Zm-.07,19.26a6.45,6.45,0,1,1,6.47-6.43A6.46,6.46,0,0,1,84.23,80.27Z"/><path class="cls-4" d="M44.28,4.44H123a1.39,1.39,0,0,0,1.39-1.39h0A1.4,1.4,0,0,0,123,1.65H42.67a1.4,1.4,0,0,0-1.21.7l-30.2,52.3a1.4,1.4,0,0,0,.51,1.9h0A1.39,1.39,0,0,0,13.68,56L43.07,5.14A1.42,1.42,0,0,1,44.28,4.44Z"/><path class="cls-4" d="M164,73.09l-40.44,70H43.45L37.18,132.2,3.7,74.16a1.4,1.4,0,0,0-2.42,1.39L34.76,133.6l7.07,12.32h83.33L162.06,82l4.35-7.51Z"/><path class="cls-2" d="M3.2,70.06a4.06,4.06,0,1,0,4.06,4.06A4.05,4.05,0,0,0,3.2,70.06Z"/><path class="cls-7" d="M7,73.75a4.06,4.06,0,1,1-4.05-4A4.05,4.05,0,0,1,7,73.75Z"/><path class="cls-4" d="M6.39,73.75A3.45,3.45,0,1,1,2.94,70.3,3.45,3.45,0,0,1,6.39,73.75Z"/><path class="cls-2" d="M.07,73.75a3.44,3.44,0,0,1,3.16-3.43l-.29,0a3.45,3.45,0,1,0,0,6.9h.29A3.45,3.45,0,0,1,.07,73.75Z"/></g></g></svg>