<svg id="Instagram_" data-name="Instagram " xmlns="http://www.w3.org/2000/svg" width="30" height="30" viewBox="0 0 30 30">
  <path id="Path_526" data-name="Path 526" d="M262.772,349.886A2.886,2.886,0,1,1,259.886,347a2.886,2.886,0,0,1,2.886,2.886Zm0,0" transform="translate(-244.886 -334.886)" fill="#b8bdc6"/>
  <path id="Path_527" data-name="Path 527" d="M199.332,277.48a2.867,2.867,0,0,0-1.643-1.643,4.79,4.79,0,0,0-1.608-.3c-.913-.042-1.187-.051-3.5-.051s-2.586.009-3.5.05a4.793,4.793,0,0,0-1.608.3,2.868,2.868,0,0,0-1.643,1.643,4.793,4.793,0,0,0-.3,1.608c-.042.913-.051,1.187-.051,3.5s.009,2.586.051,3.5a4.79,4.79,0,0,0,.3,1.607,2.867,2.867,0,0,0,1.643,1.643,4.786,4.786,0,0,0,1.608.3c.913.042,1.186.05,3.5.05s2.586-.009,3.5-.05a4.786,4.786,0,0,0,1.608-.3,2.867,2.867,0,0,0,1.643-1.643,4.794,4.794,0,0,0,.3-1.607c.042-.913.05-1.187.05-3.5s-.009-2.586-.05-3.5a4.785,4.785,0,0,0-.3-1.608Zm-6.749,9.552a4.446,4.446,0,1,1,4.446-4.446,4.446,4.446,0,0,1-4.446,4.446ZM197.2,279a1.039,1.039,0,1,1,1.039-1.039A1.039,1.039,0,0,1,197.2,279Zm0,0" transform="translate(-177.582 -267.586)" fill="#b8bdc6"/>
  <path id="Path_528" data-name="Path 528" d="M65,140a15,15,0,1,0,15,15,15,15,0,0,0-15-15Zm8.561,18.551a6.319,6.319,0,0,1-.4,2.091,4.4,4.4,0,0,1-2.519,2.519,6.324,6.324,0,0,1-2.091.4c-.918.042-1.212.052-3.551.052s-2.633-.01-3.551-.052a6.324,6.324,0,0,1-2.091-.4,4.4,4.4,0,0,1-2.519-2.519,6.318,6.318,0,0,1-.4-2.091c-.042-.919-.052-1.212-.052-3.551s.01-2.633.052-3.551a6.32,6.32,0,0,1,.4-2.091,4.407,4.407,0,0,1,2.519-2.519,6.325,6.325,0,0,1,2.091-.4c.918-.042,1.212-.052,3.551-.052s2.633.01,3.551.052a6.328,6.328,0,0,1,2.091.4,4.405,4.405,0,0,1,2.519,2.519,6.318,6.318,0,0,1,.4,2.091c.042.918.052,1.212.052,3.551s-.01,2.633-.052,3.551Zm0,0" transform="translate(-50 -140)" fill="#b8bdc6"/>
</svg>
