<svg xmlns="http://www.w3.org/2000/svg" width="30" height="30" viewBox="0 0 30 30">
  <g id="YouTube_" data-name="YouTube " transform="translate(0)">
    <path id="Path_529" data-name="Path 529" d="M274.113,353.689l4.9-2.825-4.9-2.825Zm0,0" transform="translate(-260.995 -335.864)" fill="#b8bdc6"/>
    <path id="Path_530" data-name="Path 530" d="M65,140a15,15,0,1,0,15,15,15,15,0,0,0-15-15Zm9.373,15.015a24.757,24.757,0,0,1-.386,4.509,2.349,2.349,0,0,1-1.652,1.652,57.01,57.01,0,0,1-7.335.386,54.972,54.972,0,0,1-7.335-.4,2.349,2.349,0,0,1-1.652-1.652,26.516,26.516,0,0,1,0-9.017,2.4,2.4,0,0,1,1.652-1.668A57.01,57.01,0,0,1,65,148.437a54.847,54.847,0,0,1,7.335.4,2.349,2.349,0,0,1,1.652,1.652,23.491,23.491,0,0,1,.386,4.524Zm0,0" transform="translate(-50 -140)" fill="#b8bdc6"/>
  </g>
</svg>
